<?xml version="1.0" encoding="UTF-8"?>
<svg id="Layer_2" data-name="Layer 2" xmlns="http://www.w3.org/2000/svg" viewBox="0 0 251.6 313.16">
  <defs>
    <style>
      .cls-1 {
        fill: #373737;
      }

      .cls-2 {
        fill: none;
        stroke: #1e1e1e;
        stroke-miterlimit: 10;
        stroke-width: 13px;
      }

      .cls-3 {
        fill: #000b1d;
      }
    </style>
  </defs>
  <g id="adobe_products_set" data-name="adobe products set">
    <g>
      <path class="cls-3" d="M208.16,251.6H43.44c-23.95,0-43.44-19.49-43.44-43.44V43.44C0,19.49,19.49,0,43.44,0h164.72c23.95,0,43.44,19.49,43.44,43.44v164.72c0,23.95-19.49,43.44-43.44,43.44ZM43.44,12c-17.33,0-31.44,14.1-31.44,31.44v164.72c0,17.33,14.1,31.44,31.44,31.44h164.72c17.33,0,31.44-14.1,31.44-31.44V43.44c0-17.33-14.1-31.44-31.44-31.44H43.44Z"/>
      <g>
        <path class="cls-1" d="M98.1,285.16h-12.47v5.72h10.92v4.32h-10.92v10.43h-5.16v-24.84h17.64v4.37Z"/>
        <path class="cls-1" d="M106.14,280.6v4.44h-4.88v-4.44h4.88ZM106.14,287.24v18.4h-4.88v-18.4h4.88Z"/>
        <path class="cls-1" d="M115.99,308.86c.52.44,1.39.66,2.62.66,1.73,0,2.89-.58,3.48-1.74.38-.74.57-1.99.57-3.75v-1.18c-.46.79-.96,1.38-1.49,1.77-.96.73-2.2,1.1-3.73,1.1-2.36,0-4.25-.83-5.66-2.49-1.41-1.66-2.12-3.91-2.12-6.74s.68-5.03,2.04-6.89c1.36-1.86,3.29-2.79,5.79-2.79.92,0,1.73.14,2.41.42,1.17.48,2.12,1.37,2.84,2.67v-2.65h4.68v17.45c0,2.37-.4,4.16-1.2,5.37-1.37,2.07-4.01,3.11-7.9,3.11-2.35,0-4.27-.46-5.75-1.38-1.49-.92-2.31-2.3-2.46-4.14h5.23c.14.56.35.97.66,1.22ZM115.18,299.35c.65,1.55,1.82,2.33,3.51,2.33,1.12,0,2.08-.42,2.85-1.27.78-.85,1.16-2.2,1.16-4.06,0-1.74-.37-3.07-1.11-3.98s-1.73-1.37-2.96-1.37c-1.69,0-2.85.79-3.49,2.38-.34.84-.51,1.88-.51,3.12,0,1.07.18,2.02.54,2.85Z"/>
        <path class="cls-1" d="M142.24,292.3c-.41-.89-1.2-1.33-2.38-1.33-1.37,0-2.3.44-2.77,1.33-.26.51-.39,1.26-.39,2.26v11.07h-4.88v-18.36h4.68v2.68c.6-.96,1.16-1.64,1.69-2.04.93-.72,2.14-1.08,3.63-1.08,1.41,0,2.54.31,3.41.93.7.57,1.23,1.31,1.59,2.21.63-1.08,1.41-1.87,2.35-2.38.99-.51,2.09-.76,3.31-.76.81,0,1.61.16,2.4.47.79.32,1.5.87,2.14,1.65.52.64.87,1.43,1.05,2.36.11.62.17,1.52.17,2.72l-.03,11.6h-4.93v-11.71c0-.7-.11-1.27-.34-1.72-.43-.86-1.22-1.28-2.36-1.28-1.33,0-2.24.55-2.75,1.65-.26.59-.39,1.29-.39,2.11v10.95h-4.84v-10.95c0-1.09-.11-1.88-.34-2.38Z"/>
        <path class="cls-1" d="M163.34,289.23c1.27-1.62,3.45-2.43,6.55-2.43,2.01,0,3.8.4,5.37,1.2,1.56.8,2.35,2.31,2.35,4.52v8.44c0,.59.01,1.29.03,2.13.03.63.13,1.06.29,1.28.16.23.39.41.71.56v.71h-5.23c-.15-.37-.25-.72-.3-1.05-.06-.33-.1-.7-.14-1.11-.66.72-1.43,1.33-2.3,1.84-1.04.6-2.21.89-3.51.89-1.67,0-3.04-.48-4.13-1.43s-1.63-2.3-1.63-4.04c0-2.26.87-3.9,2.62-4.91.96-.55,2.36-.95,4.22-1.18l1.64-.2c.89-.11,1.52-.25,1.91-.42.69-.29,1.03-.75,1.03-1.37,0-.75-.26-1.27-.78-1.56-.52-.29-1.29-.43-2.3-.43-1.14,0-1.94.28-2.41.84-.34.42-.56.98-.68,1.69h-4.64c.1-1.61.55-2.93,1.35-3.97ZM166.91,302.16c.45.37,1,.56,1.65.56,1.03,0,1.99-.3,2.86-.91s1.33-1.72,1.36-3.32v-1.79c-.3.19-.61.35-.92.46s-.73.23-1.27.33l-1.08.2c-1.01.18-1.74.4-2.18.66-.74.44-1.11,1.12-1.11,2.04,0,.82.23,1.41.69,1.77Z"/>
      </g>
      <g>
        <path class="cls-2" d="M180.25,75.71c0,6.99-2.83,13.31-7.41,17.89-4.58,4.58-10.9,7.41-17.89,7.41h-25.41v-50.6h25.41c13.97,0,25.3,11.33,25.3,25.3Z"/>
        <path class="cls-2" d="M129.55,50.41v50.6h-25.41c-13.97,0-25.3-11.33-25.3-25.3,0-6.99,2.83-13.31,7.41-17.89,4.58-4.58,10.9-7.41,17.89-7.41h25.41Z"/>
        <path class="cls-2" d="M129.55,101.01v50.6h-25.41c-13.97,0-25.3-11.33-25.3-25.3,0-6.99,2.83-13.31,7.41-17.89,4.58-4.58,10.9-7.41,17.89-7.41h25.41Z"/>
        <path class="cls-2" d="M129.55,151.61v25.34c0,13.95-11.31,25.26-25.26,25.26h0c-13.95,0-25.38-11.23-25.45-25.18-.03-7.03,2.81-13.41,7.41-18.01,4.58-4.58,10.9-7.41,17.89-7.41h25.41Z"/>
        <circle class="cls-2" cx="154.9" cy="126.31" r="25.35" transform="translate(-3.62 248.05) rotate(-76.72)"/>
      </g>
    </g>
  </g>
</svg>