<svg width="66" height="66" viewBox="0 0 66 66" fill="none" xmlns="http://www.w3.org/2000/svg">
<circle cx="40.5" cy="39.5" r="18.5" fill="#7BB6D8"/>
<path d="M49.6385 59.444C44.7881 62.5601 39.0176 64.3691 32.8252 64.3691C15.6098 64.3691 1.65625 50.3935 1.65625 33.1572C1.65625 15.9209 15.6126 1.94531 32.8252 1.94531C50.0377 1.94531 63.9941 15.9209 63.9941 33.1572C63.9941 39.1058 62.332 44.666 59.4495 49.3954" stroke="black" stroke-width="3" stroke-linecap="round" stroke-linejoin="round"/>
<path d="M25.8965 34.2812H1.65625" stroke="black" stroke-width="3" stroke-linecap="round" stroke-linejoin="round"/>
<path d="M64.0395 34.2812H55.0439" stroke="black" stroke-width="3" stroke-linecap="round" stroke-linejoin="round"/>
<path d="M57.3486 13.8906C54.401 15.2233 51.3714 16.2979 48.2907 17.123C43.3328 18.4556 38.2418 19.1304 33.1451 19.1588C28.04 19.1871 22.9377 18.5605 17.9571 17.2789H17.9543C14.6698 16.434 11.439 15.3083 8.30176 13.8906" stroke="black" stroke-width="3" stroke-linecap="round" stroke-linejoin="round"/>
<path d="M50.3242 29.401C50.075 25.267 49.3983 21.1528 48.2912 17.1266C47.0085 12.4425 45.1426 7.88324 42.6934 3.55078" stroke="black" stroke-width="3" stroke-linecap="round" stroke-linejoin="round"/>
<path d="M42.4717 62.846C43.8874 60.382 45.1163 57.8444 46.1526 55.25" stroke="black" stroke-width="3" stroke-linecap="round" stroke-linejoin="round"/>
<path d="M23.9593 63.0912C21.7309 59.2549 19.9613 55.2315 18.656 51.1003C16.9231 45.6252 15.9944 39.9573 15.8726 34.278C15.748 28.5647 16.4418 22.8373 17.9538 17.2771H17.9566C19.2647 12.4484 21.193 7.74735 23.7356 3.29297" stroke="black" stroke-width="3" stroke-linecap="round" stroke-linejoin="round"/>
<path d="M28.1023 49.5859C24.9282 49.8383 21.7682 50.343 18.6564 51.1029C15.6098 51.8457 12.6056 52.8324 9.68066 54.0687" stroke="black" stroke-width="3" stroke-linecap="round" stroke-linejoin="round"/>
<path d="M33.1445 26.3469V1.92578" stroke="black" stroke-width="3" stroke-linecap="round" stroke-linejoin="round"/>
<path d="M33.1445 64.3957V54.0664" stroke="black" stroke-width="3" stroke-linecap="round" stroke-linejoin="round"/>
<path d="M49.6963 53.332L53.0656 49.6744L63.4426 59.2599C64.3021 60.0539 64.3562 61.3961 63.5633 62.2568L63.0661 62.7966C62.2732 63.6573 60.9328 63.7115 60.0733 62.9175L49.6963 53.332Z" stroke="black" stroke-width="3" stroke-linecap="round" stroke-linejoin="round"/>
<path d="M48.6795 46.939L46.583 49.2148L50.3313 52.6772L52.4278 50.4014L48.6795 46.939Z" stroke="black" stroke-width="3" stroke-linecap="round" stroke-linejoin="round"/>
<path d="M39.6793 51.3077C45.8891 51.3077 50.9231 46.2667 50.9231 40.0484C50.9231 33.83 45.8891 28.7891 39.6793 28.7891C33.4696 28.7891 28.4355 33.83 28.4355 40.0484C28.4355 46.2667 33.4696 51.3077 39.6793 51.3077Z" stroke="black" stroke-width="3" stroke-linecap="round" stroke-linejoin="round"/>
</svg>
