<svg width="81" height="71" viewBox="0 0 81 71" fill="none" xmlns="http://www.w3.org/2000/svg">
<circle cx="36.5" cy="30.5" r="18.5" fill="#E36A46"/>
<path d="M69.2991 10.0078H72.64C75.9114 10.0078 78.5604 12.6462 78.5604 15.8972V49.1553C78.5604 52.4096 75.9081 55.0447 72.64 55.0447H7.92033C4.64892 55.0447 2 52.4064 2 49.1553V15.8972C2 12.6429 4.65223 10.0078 7.92033 10.0078H48.9719" stroke="black" stroke-width="3" stroke-linecap="round" stroke-linejoin="round"/>
<path d="M2 47.2891H50.9156H66.968H78.5604" stroke="black" stroke-width="3" stroke-linecap="round" stroke-linejoin="round"/>
<path d="M29.1587 55.0469L27.7812 61.9706" stroke="black" stroke-width="3" stroke-linecap="round" stroke-linejoin="round"/>
<path d="M51.4023 55.0469L52.7798 61.9706" stroke="black" stroke-width="3" stroke-linecap="round" stroke-linejoin="round"/>
<path d="M47.1077 62.5977H60.5542C64.3223 62.5977 67.3785 65.6379 67.3785 69.3863H13.1816C13.1816 65.6379 16.2378 62.5977 20.0059 62.5977H47.1044H47.1077Z" stroke="black" stroke-width="3" stroke-linecap="round" stroke-linejoin="round"/>
<path d="M41.761 26.6356C43.7808 28.3154 44.049 31.3096 42.3603 33.3188C39.7743 36.3953 35.1685 36.8037 32.0759 34.2312L30.3574 32.8017L32.0759 32.3768C33.6586 31.9848 34.8043 30.6244 34.9169 29.0072C35.0427 27.2054 36.4433 25.7199 38.2545 25.5486C39.4763 25.4333 40.7445 25.7858 41.761 26.6323V26.6356Z" stroke="black" stroke-width="3" stroke-linecap="round" stroke-linejoin="round"/>
<path d="M43.2778 28.4958C46.9466 26.1868 50.3637 23.5517 53.496 20.6169C54.837 19.3586 56.1284 18.0477 57.3634 16.6807L68.5617 4.31558C69.0981 3.72269 69.1412 2.88605 68.6644 2.38209C68.426 2.12846 68.0949 2 67.7472 2C67.3962 2 67.0287 2.12187 66.7174 2.36891L53.6384 12.7479C48.8372 16.5556 44.5956 20.9858 40.9766 25.9661" stroke="black" stroke-width="3" stroke-linecap="round" stroke-linejoin="round"/>
<path d="M30.3532 32.8052L26.4163 26.0198C25.5256 24.4882 23.3038 24.4882 22.4131 26.0198L10.1387 47.1697" stroke="black" stroke-width="3" stroke-linecap="round" stroke-linejoin="round"/>
<path d="M2 35.1243L9.4832 28.8265C10.4765 27.9898 11.9533 28.0524 12.8705 28.9714L17.824 33.9287" stroke="black" stroke-width="3" stroke-linecap="round" stroke-linejoin="round"/>
</svg>
