<svg width="52" height="64" viewBox="0 0 52 64" fill="none" xmlns="http://www.w3.org/2000/svg">
<circle cx="33.5" cy="32.5" r="18.5" fill="#FCC764"/>
<path d="M41.6922 12.1538C41.6922 14.9592 40.6104 17.4957 38.8597 19.3338C37.1089 21.1719 34.693 22.3077 32.021 22.3077H22.3076V2H32.021C37.3612 2 41.6922 6.54716 41.6922 12.1538Z" stroke="#1E1E1E" stroke-width="3" stroke-miterlimit="10"/>
<path d="M22.3077 2V22.3077H12.1318C6.53729 22.3077 2 17.7605 2 12.1538C2 9.34849 3.13332 6.81204 4.96746 4.97391C6.8016 3.13579 9.33255 2 12.1318 2H22.3077Z" stroke="#1E1E1E" stroke-width="3" stroke-miterlimit="10"/>
<path d="M22.3077 22.3086V41.6932H12.1318C6.53729 41.6932 2 37.3527 2 32.0009C2 29.3231 3.13332 26.9019 4.96746 25.1473C6.8016 23.3928 9.33255 22.3086 12.1318 22.3086H22.3077Z" stroke="#1E1E1E" stroke-width="3" stroke-miterlimit="10"/>
<path d="M22.3077 41.6914V51.8613C22.3077 57.46 17.7784 61.9991 12.1919 61.9991C6.60545 61.9991 2.02813 57.4921 2.00009 51.8934C1.98808 49.072 3.1254 46.5115 4.96754 44.6653C6.80167 42.8272 9.33261 41.6914 12.1319 41.6914H22.3077Z" stroke="#1E1E1E" stroke-width="3" stroke-miterlimit="10"/>
<path d="M42.2967 35.1392C43.5387 29.895 40.2797 24.6404 35.0176 23.4027C29.7555 22.1649 24.4829 25.4128 23.241 30.6569C21.999 35.9011 25.258 41.1557 30.5201 42.3935C35.7822 43.6312 41.0548 40.3833 42.2967 35.1392Z" stroke="#1E1E1E" stroke-width="3" stroke-miterlimit="10"/>
</svg>
