<svg width="64" height="54" viewBox="0 0 64 54" fill="none" xmlns="http://www.w3.org/2000/svg">
<circle cx="18.5" cy="18.5" r="18.5" fill="#E36A46"/>
<path d="M57.5141 14.1531C52.8583 9.45498 46.4637 6.87241 39.8307 7.00485C33.6464 6.93863 27.7075 9.41664 23.4233 13.8534C12.3624 12.6126 2.3813 20.5137 1.12972 31.5131C1.04207 32.2624 1 33.0222 1 33.7785C1.04207 38.9819 3.06143 43.9798 6.65141 47.7682C10.3992 51.7623 15.6509 54.0208 21.148 53.9999H40.3565C53.4613 53.9336 64.0385 43.3385 63.9999 30.3107C63.9473 24.3091 61.6299 18.541 57.5141 14.1496M20.7869 50.3473C11.8506 50.3752 4.58297 43.1991 4.55492 34.3152C4.55492 34.1723 4.55492 34.0329 4.55842 33.89C4.55842 24.7622 11.4474 17.2062 20.6081 17.2062C24.752 17.2515 28.7382 18.7989 31.8093 21.5627L31.8899 21.6324L38.8105 28.6935C39.9463 29.875 39.9078 31.7466 38.7193 32.8793C37.5448 33.9981 35.6797 33.9702 34.5368 32.8166L27.6689 25.8112C25.7337 24.1557 23.2656 23.2461 20.7133 23.2461C14.9953 23.2949 10.3992 27.9407 10.4447 33.6251C10.4447 33.6983 10.4447 33.775 10.4482 33.8482C10.3711 39.6825 15.0654 44.4747 20.9307 44.5514C20.9307 44.5514 20.9377 44.5514 20.9412 44.5514L22.312 44.5583L22.326 44.5967C24.2893 47.2908 29.7549 50.3473 29.7549 50.3473H20.7799H20.7869ZM55.0109 44.6106C51.1615 48.4339 45.9168 50.546 40.4757 50.4589C35.1469 50.417 30.0564 48.2527 26.3472 44.4503L17.2005 35.3364C16.0471 34.1653 16.0716 32.2868 17.2496 31.1436C17.807 30.6034 18.5572 30.3002 19.3355 30.3002C20.1384 30.3002 20.9096 30.6209 21.4706 31.1959L30.5542 40.2506C33.2186 43.0004 36.8682 44.5897 40.7106 44.6733C44.5039 44.7012 48.143 43.1747 50.7654 40.4492C53.3071 37.6541 54.6323 33.9737 54.45 30.2131C54.6674 22.5909 48.6268 16.2373 40.9595 16.0212C40.8579 16.0212 40.7562 16.0177 40.6545 16.0177C37.8358 15.8922 35.0557 16.7008 32.7454 18.311C32.7208 18.2901 32.0617 17.8544 31.3185 17.4083C30.8592 17.1295 30.3614 16.8541 29.9722 16.6415C29.5375 16.408 28.2964 15.8016 27.5532 15.4949C27.3674 15.4182 27.1325 15.3311 27.0273 15.2997L27.0484 15.2893C30.8136 11.7901 35.2275 10.6086 40.3776 10.6086C51.144 10.3611 60.0734 18.8373 60.3223 29.5404C60.3258 29.7356 60.3293 29.9308 60.3258 30.1259C60.5396 35.4619 58.629 40.6653 55.0074 44.6071L55.0109 44.6106Z" fill="#000B1D"/>
</svg>
