<svg width="90" height="74" viewBox="0 0 90 74" fill="none" xmlns="http://www.w3.org/2000/svg">
<circle cx="27.5" cy="18.5" r="18.5" fill="#7BB6D8"/>
<path fill-rule="evenodd" clip-rule="evenodd" d="M61.5713 71.9995H66.4815C72.0566 71.9995 76.5781 67.5397 76.5781 62.033C76.5781 56.5264 72.06 52.0665 66.4815 52.0665C65.9291 52.0665 65.3869 52.1136 64.855 52.1978C64.947 51.4808 64.9982 50.7538 64.9982 50.0133C64.9982 40.2992 57.0225 32.4297 47.1851 32.4297C38.3842 32.4297 31.0803 38.7273 29.6345 47.0075C28.8741 46.8661 28.0932 46.7921 27.2919 46.7921C20.2403 46.7921 14.5254 52.4334 14.5254 59.3941C14.5254 66.3549 20.2403 71.9962 27.2919 71.9962H61.5747L61.5713 71.9995Z" stroke="black" stroke-width="3" stroke-linecap="round" stroke-linejoin="round"/>
<path d="M49.6504 32.8036L59.5394 22.9273C60.0161 22.458 60.5232 22.0292 61.0743 21.651C61.6051 21.2762 62.1596 20.9588 62.7512 20.6853L65.9123 19.2098L72.1771 16.2891L69.2526 22.5458L67.7752 25.7096C67.5013 26.2937 67.1801 26.8542 66.815 27.3809C66.4397 27.9313 66.0104 28.4378 65.5337 28.9139L57.876 36.3254" stroke="black" stroke-width="3" stroke-linecap="round" stroke-linejoin="round"/>
<path d="M61.0742 21.6484L63.9446 24.5151L66.8149 27.3818" stroke="black" stroke-width="3" stroke-linecap="round" stroke-linejoin="round"/>
<path d="M31.3292 25.6033C34.8385 23.6246 36.0793 19.1811 34.0981 15.6763C31.0689 10.311 24.2564 8.41338 18.8843 11.4421L15.9023 13.1236L18.367 14.2413C20.6355 15.2711 21.9811 17.6448 21.7005 20.1198C21.3861 22.8784 23.0799 25.5087 25.7508 26.2684C27.5595 26.7817 29.561 26.5993 31.3292 25.6066V25.6033Z" stroke="black" stroke-width="3" stroke-linecap="round" stroke-linejoin="round"/>
<path d="M35.1222 37.227C33.8002 34.9174 31.1192 28.8194 29.9697 26.3984" stroke="black" stroke-width="3" stroke-linecap="round" stroke-linejoin="round"/>
<path d="M34.1357 23.207C38.0947 26.8706 39.9914 28.91 43.2302 33.0192" stroke="black" stroke-width="3" stroke-linecap="round" stroke-linejoin="round"/>
<path d="M64.1377 45.6531L81.1603 28.6523L88.4089 35.8916L70.9569 53.5306" stroke="black" stroke-width="3" stroke-linecap="round" stroke-linejoin="round"/>
<path d="M70.4971 39.4414L73.7292 42.6694" stroke="black" stroke-width="3" stroke-linecap="round" stroke-linejoin="round"/>
<path d="M76.7852 33.5898L80.0173 36.8178" stroke="black" stroke-width="3" stroke-linecap="round" stroke-linejoin="round"/>
<path d="M13.2684 32.6967L12.5686 27.5441C12.5686 27.5441 5.45524 24.9307 2.03381 23.4349L2 23.418L2.00676 23.4551C2.80803 27.0984 3.98456 34.574 3.98456 34.574L8.90709 36.2656" stroke="black" stroke-width="3" stroke-linecap="round" stroke-linejoin="round"/>
<path d="M13.5392 32.4621L8.62632 36.4896C7.95088 37.0433 7.85277 38.039 8.40719 38.7136L9.93874 40.5771C10.4932 41.2517 11.4902 41.3497 12.1656 40.7959L17.0785 36.7685C17.754 36.2148 17.8521 35.219 17.2977 34.5445L15.7661 32.681C15.2117 32.0064 14.2147 31.9084 13.5392 32.4621Z" stroke="black" stroke-width="3" stroke-linecap="round" stroke-linejoin="round"/>
<path d="M26.8188 47.0305L17.1123 36.7422" stroke="black" stroke-width="3" stroke-linecap="round" stroke-linejoin="round"/>
<path d="M18.9275 50.1891L12.1455 40.8125" stroke="black" stroke-width="3" stroke-linecap="round" stroke-linejoin="round"/>
</svg>
