<svg width="70" height="69" viewBox="0 0 70 69" fill="none" xmlns="http://www.w3.org/2000/svg">
<rect x="1.99121" y="1.69141" width="65.9268" height="65.9268" rx="16" fill="#FBF8F0"/>
<path d="M57.2896 68.8366H12.3458C5.81101 68.8366 0.493164 63.5187 0.493164 56.984V12.0401C0.493164 5.50535 5.81101 0.1875 12.3458 0.1875H57.2896C63.8244 0.1875 69.1422 5.50535 69.1422 12.0401V56.984C69.1422 63.5187 63.8244 68.8366 57.2896 68.8366ZM12.3458 3.4617C7.61728 3.4617 3.76736 7.30888 3.76736 12.0401V56.984C3.76736 61.7124 7.61455 65.5624 12.3458 65.5624H57.2896C62.0181 65.5624 65.868 61.7152 65.868 56.984V12.0401C65.868 7.31161 62.0208 3.4617 57.2896 3.4617H12.3458Z" fill="#000B1D"/>
<path d="M28.9758 41.7354H18.9976L16.9676 48.3138C16.9103 48.5512 16.6921 48.7149 16.4492 48.7013H11.3933C11.1068 48.7013 11.0059 48.543 11.0904 48.2265L19.7316 23.6945C19.8189 23.4353 19.9035 23.1407 19.9908 22.8078C20.1054 22.2321 20.1627 21.6454 20.1627 21.0588C20.1436 20.9115 20.2446 20.7778 20.3892 20.756C20.4137 20.7532 20.4383 20.7532 20.4656 20.756H27.3332C27.5351 20.756 27.6497 20.8296 27.6797 20.9715L37.486 48.2674C37.5733 48.5566 37.486 48.7013 37.2267 48.6985H31.6115C31.4123 48.7204 31.2268 48.5921 31.1804 48.3957L28.9785 41.7299L28.9758 41.7354ZM20.5529 37.1379H27.3769C27.205 36.5622 27.0031 35.3807 26.7711 34.6604C26.5419 33.9401 26.2964 33.1706 26.0372 32.3494C25.778 31.5281 25.5188 30.7095 25.2595 29.8882C25.0003 29.067 24.763 28.2757 24.5447 27.5117C24.3264 26.7477 24.1354 26.0492 23.9608 25.419H23.9171C23.6743 26.5868 23.3714 27.7382 23.0085 28.876C22.6047 30.172 22.1954 31.4953 21.778 32.8487C21.3632 34.202 20.954 35.9864 20.5502 37.1406" fill="#000B1D"/>
<path d="M53.3229 39.3753H44.8127C44.9355 40.2512 45.2356 41.0916 45.6913 41.8501C46.1742 42.5704 46.8563 43.1325 47.6558 43.4708C48.7581 43.9647 49.9532 44.2184 51.1592 44.2157C51.9668 44.2348 52.7772 44.172 53.5712 44.0274C54.4388 43.8719 55.2874 43.6182 56.0978 43.2716C56.2424 43.157 56.3133 43.228 56.3133 43.4872V47.5909C56.3215 47.7027 56.297 47.8146 56.2478 47.9155C56.1987 47.9947 56.1332 48.0602 56.0541 48.1093C55.1592 48.5322 54.2151 48.8432 53.2438 49.037C52.0842 49.2007 50.9136 49.2471 49.7458 49.1734C47.9832 49.228 46.2315 48.9033 44.6053 48.2239C43.2984 47.6482 42.1442 46.775 41.2356 45.6754C40.3871 44.6386 39.7541 43.4408 39.3775 42.1557C39.0037 40.8869 38.8155 39.5691 38.8155 38.2457C38.8127 36.7996 39.0365 35.3644 39.4839 33.992C39.915 32.6523 40.5972 31.4054 41.4921 30.3194C42.3761 29.2471 43.4839 28.3768 44.7363 27.771C46.1442 27.1216 47.6804 26.8024 49.2301 26.8433C50.739 26.8242 52.2342 27.1189 53.623 27.711C54.7308 28.213 55.7021 28.977 56.4525 29.9347C57.1592 30.8488 57.6994 31.8802 58.0487 32.9797C58.3897 34.0411 58.5643 35.1489 58.5671 36.2621C58.5671 36.8951 58.5452 37.4708 58.5016 37.9893C58.4661 38.2976 58.4088 38.6032 58.3351 38.906C58.3133 39.1025 58.1442 39.2526 57.9477 39.2526C57.7758 39.2526 57.4811 39.2744 57.0637 39.318C56.6462 39.3617 55.9041 39.3453 55.2847 39.359C54.6653 39.3726 54.0105 39.3808 53.3202 39.3808M44.7909 35.9456H50.4471C51.1374 35.9456 51.6503 35.9374 51.9805 35.9238C52.1906 35.9238 52.4007 35.902 52.608 35.8583V35.5991C52.6326 35.0834 52.6026 34.565 52.518 34.0548C52.0378 32.5404 50.6053 31.5309 49.02 31.5937C47.5357 31.5036 46.136 32.3003 45.4566 33.6237C45.1347 34.3658 44.9109 35.1462 44.7936 35.9456" fill="#000B1D"/>
</svg>
