<?xml version="1.0" encoding="UTF-8"?>
<svg id="Layer_2" data-name="Layer 2" xmlns="http://www.w3.org/2000/svg" viewBox="0 0 1060.81 993.23">
  <defs>
    <style>
      .cls-1 {
        fill: #cecece;
      }
    </style>
  </defs>
  <g id="Layer_1-2" data-name="Layer 1">
    <g>
      <path class="cls-1" d="M1053.91,468.78c-17.06-51.29-39.24-99.39-66.12-143.75,2.56-29.97-1.17-61-10.98-89.26-13.97-39.88-39.24-75.29-79.55-111.44-67.18-60.36-130.31-88.19-193.34-85.42-14.82.64-29.54,3.63-43.83,8.42-60.57-23.99-125.51-39.56-193.44-45.64l-13.22-1.17c-38.07-3.41-76.57,9.7-108.45,37-4.91,4.27-9.6,8.74-14.08,13.44-58.54-2.99-179.37,16.74-304.24,193.76C.42,281.95-7.26,324.29,7.24,352.65c10.34,20.15,30.18,31.46,55.67,31.67,5.44.11,11.62.11,18.34.11,46.17.11,158.57.32,196,29.33,14.72,61,59.51,107.6,121.04,121.14l13.65,2.99c3.52.75,6.93,1.6,10.34,2.56,1.81,11.84,4.69,22.82,8.64,32.74,12.9,32.42,64.84,68.89,116.98,71.34.53,1.07,1.07,2.13,1.6,3.2,17.6,41.16,48.09,71.98,85.95,86.91,16.85,6.61,34.55,9.92,52.47,9.92,36.79,30.07,64.41,138.42,75.82,183.1,1.6,6.51,3.09,12.48,4.48,17.7,6.61,24.85,22.5,41.37,44.57,46.39,4.48.96,9.17,1.49,13.97,1.49,28.15,0,60.25-17.28,85.42-46.92,134.47-158.36,130.21-277.47,114.32-336.45,6.4-8.32,11.94-17.28,16.74-26.77,18.88-37.43,22.71-78.06,10.66-114.32ZM879.66,918.69c-20.79,24.42-44.57,34.34-57.37,31.46-2.56-.64-9.17-2.13-12.8-15.68-1.39-5.12-2.88-10.98-4.48-17.38-17.06-67.18-37.32-137.14-67.82-180.43,6.18-2.03,12.48-4.37,18.66-7.04l191.84-62.81c15.04-4.91,29.43-12.26,42.44-21.54,7.04,54.71-4.8,149.08-110.48,273.42ZM1005.28,563.69c0,.11-.11.11-.11.21-3.41,6.72-7.36,13.01-11.84,18.98-15.04,20.47-35.72,35.83-58.86,43.4l-192.91,63.13c-.75.21-1.39.43-2.13.75-11.3,5.12-22.72,8.53-33.81,10.24-16.32,2.67-32.31,1.71-47.24-2.99-2.45-.64-4.9-1.49-7.25-2.45-25.17-9.92-46.07-30.18-59.29-57.27,91.28-28.15,132.13-56.73,192.8-99.28l20.47-14.29c10.77-7.46,23.78-15.46,37.43-23.89,47.67-29.43,105.68-65.16,130.1-115.38,15.78,30.71,29.43,63.24,40.74,97.36,8.32,24.95,5.33,54.71-8.1,81.47ZM473.04,561.99c-1.17-1.6-1.92-3.2-2.56-4.69-2.88-7.04-4.91-15.25-6.29-24.21-1.28-7.46-2.03-15.46-2.24-24.1-2.35-68.04,21.54-167.1,47.24-243.03,23.14-68.25,86.91-144.82,151.75-173.18,10.13-4.37,20.05-7.57,30.07-9.49h.11c5.01-.85,9.92-1.49,14.82-1.71,2.35-.11,4.69-.21,7.04-.21,7.89,0,15.78.64,23.78,1.92,41.8,6.4,84.56,30.07,132.02,72.73,34.66,31.25,56.2,61.1,67.72,93.95.32.85.53,1.71.85,2.56,4.91,14.72,7.78,30.5,8.53,46.17v.11c.43,11.84-.21,23.57-2.13,35.08-1.07,7.15-2.77,14.08-4.8,20.9-13.54,44.15-71.87,80.19-118.8,109.09-14.18,8.85-27.62,17.06-39.35,25.27l-20.58,14.29c-61.32,42.98-98.43,68.89-189.07,95.98-.21.11-.32.11-.53.21-5.65,1.71-11.52,2.45-17.49,2.45-2.03,0-4.16-.11-6.19-.32-12.58-.96-25.38-5.01-36.9-10.66-16.85-8.1-30.82-19.41-37-29.11ZM315.32,382.51c-.64-7.57-.75-15.46-.21-23.46l13.54-203.89c1.71-26.13,12.8-51.72,30.92-72.19,3.95-4.59,8.42-8.96,13.12-13.01,1.81-1.49,3.63-2.99,5.55-4.37,19.41-14.82,42.02-22.93,63.66-22.93,2.56,0,5.12.11,7.68.32l13.33,1.17c50.44,4.48,98.85,14.29,144.6,29.01-65.9,43.51-118.58,119.86-138.74,179.15-13.65,39.99-48.84,152.6-49.59,243.46l-11.73-2.56c-35.62-7.78-63.24-30.18-78.7-61.21-7.36-14.72-11.94-31.46-13.44-49.48ZM81.36,341.78c-6.61,0-12.58,0-17.92-.11-13.86-.11-17.06-6.19-18.13-8.53-6.08-11.73-2.45-37.43,16.1-63.88,96.19-136.18,185.98-169.34,240.04-174.99-8.75,18.34-13.97,38.07-15.36,58.12l-13.54,203.79c-.21,2.45-.32,4.9-.32,7.36-54.81-21.54-135.11-21.65-190.88-21.75Z"/>
      <path class="cls-1" d="M700.08,162.84c8.32-.32,16.85.53,25.81,2.88,20.15,5.12,42.02,16.96,66.22,35.94,7.04,5.44,14.18,11.52,21.86,18.34,25.81,23.25,41.27,44.04,48.84,65.48.53,1.49,1.07,3.09,1.39,4.69,2.35,7.46,3.63,15.46,3.95,23.57.43,11.41,9.92,20.37,21.22,20.37h.96c11.73-.43,20.9-10.45,20.37-22.18-.43-11.3-2.24-22.18-5.23-32.63-.64-2.67-1.49-5.33-2.45-8-9.92-28.47-29.22-54.81-60.57-82.96-8.42-7.57-16.32-14.18-24.1-20.26-35.19-27.51-67.82-43.08-98.96-46.92-7.14-.96-14.29-1.28-21.33-.96-11.73.53-20.79,10.56-20.26,22.29.53,11.84,10.45,20.9,22.29,20.37Z"/>
    </g>
  </g>
</svg>