<svg width="100" height="55" viewBox="0 0 100 55" fill="none" xmlns="http://www.w3.org/2000/svg">
<rect x="0.5" y="0.5" width="98.0141" height="53.0238" rx="26.5119" stroke="#E36A46"/>
<path d="M39.1198 18.7902L41.2441 19.2749C40.4899 22.1193 39.2137 24.9462 37.7749 26.7291C37.3966 26.3513 36.5322 25.6499 36.046 25.3262C37.413 23.7773 38.5094 21.2926 39.1198 18.7902ZM38.6209 26.8005L40.7092 27.2312C40.2067 29.5175 39.2722 31.8221 38.2651 33.2808C37.8509 32.939 36.9325 32.3816 36.4283 32.112C37.4355 30.8513 38.2082 28.7988 38.6209 26.8005ZM39.5178 21.958L46.8978 21.9532L46.8991 23.9512L38.7091 23.9565L39.5178 21.958ZM41.5884 22.8386L43.7304 22.8373L43.7371 33.2233C43.7377 34.2673 43.5581 34.8614 42.9103 35.2218C42.2806 35.5642 41.3986 35.6548 40.2466 35.6555C40.1382 35.0256 39.8136 34.0718 39.5072 33.478C40.2632 33.5135 41.0192 33.495 41.2712 33.4948C41.5052 33.4947 41.5952 33.4406 41.595 33.2066L41.5884 22.8386ZM44.3632 27.2649L46.3068 26.6156C47.244 28.469 48.0195 30.8625 48.2726 32.5003L46.2031 33.2217C46.004 31.6018 45.2464 29.1183 44.3632 27.2649ZM46.3218 21.9536L46.6098 21.9534L46.9518 21.8992L48.464 22.1682C48.2489 23.6444 47.926 25.3186 47.6927 26.3987L45.8385 26.0759C45.9998 25.1038 46.1968 23.5017 46.322 22.2416L46.3218 21.9536ZM35.2678 18.8107L37.3022 19.4394C36.1342 22.5181 34.2643 25.7593 32.3036 27.8126C32.1052 27.2907 31.5285 26.1031 31.1501 25.5813C32.7871 23.9423 34.3514 21.3853 35.2678 18.8107ZM33.525 23.7798L35.5757 21.7265L35.5937 21.7445L35.6026 35.6225L33.5326 35.6238L33.525 23.7798ZM58.0383 19.6241L65.3463 19.6194L65.3476 21.6174L58.0396 21.6221L58.0383 19.6241ZM57.4303 25.8885L67.3663 25.8821L67.3677 27.9161L57.4317 27.9225L57.4303 25.8885ZM61.227 23.78L63.405 23.7786L63.4111 33.2286C63.4118 34.3086 63.1961 34.8848 62.4944 35.2272C61.7746 35.5517 60.7846 35.6243 59.4526 35.6072C59.3442 35.0132 58.9836 34.0775 58.6952 33.5016C59.6133 33.5371 60.5493 33.5545 60.8553 33.5363C61.1433 33.5181 61.2332 33.446 61.233 33.194L61.227 23.78ZM64.5723 19.6199L65.0943 19.6195L65.5443 19.5112L66.9489 20.5723C65.8879 22.139 64.3592 24.048 62.9559 25.2369C62.6677 24.8591 62.0733 24.2655 61.7311 23.9777C62.7925 22.951 64.0333 21.1682 64.5726 20.0879L64.5723 19.6199ZM50.57 22.3109L56.384 22.3071L56.3853 24.3051L50.5713 24.3089L50.57 22.3109ZM52.9797 18.7273L55.0139 18.942C54.3323 22.7764 53.2914 27.6011 52.4475 30.8417L50.6829 29.9068C51.4551 27.0623 52.424 22.3097 52.9797 18.7273ZM51.6187 29.6002L52.8058 28.0874C54.6785 29.2562 57.0556 31.0007 58.1005 32.35L56.8056 34.0969C55.7967 32.7295 53.5095 30.841 51.6187 29.6002ZM55.646 22.3076L55.988 22.3074L56.366 22.2531L57.6442 22.4683C57.2347 29.4886 55.4912 33.4677 51.9286 35.684C51.6403 35.1622 51.0638 34.3886 50.6315 33.9748C53.6905 32.3709 55.29 28.3918 55.6463 22.7036L55.646 22.3076Z" fill="#E36A46"/>
</svg>
