<?xml version="1.0" encoding="UTF-8"?>
<svg id="Layer_2" data-name="Layer 2" xmlns="http://www.w3.org/2000/svg" viewBox="0 0 384.53 581.87">
  <defs>
    <style>
      .cls-1 {
        fill: #cecece;
      }
    </style>
  </defs>
  <g id="Layer_1-2" data-name="Layer 1">
    <g>
      <path class="cls-1" d="M333.92,20.37c10.93,3.64,16.05,11.7,16.93,22.72.22,2.74,1.12,4.45,3.25,6.1,5.45,4.23,8.81,10.17,12.38,15.93,6.88,11.11,13.34,22.44,16.87,35.14,1.52,5.46,1.47,11.04.49,16.61-.99,5.61-3.95,9.96-8.9,12.67-4.93,2.71-2.14,3.29-7.09,34.69-5.64,35.83-4.41,49.56-6.57,66.27-.26,2-.23,3.13,2.18,3.89,5.54,1.75,8.47,6.67,7.54,12.53-4.76,30.14-6.84,60.64-12.54,90.66-2.26,11.9-2.51,24.09-3.55,36.16-1.42,16.57-6.97,38.64-6.94,41.77.04,4.46-1.21,7.93-6.03,9.18-1.08.28-1.61,1.04-1.76,2.33-11.86,101.19-11.97,116.5-31.17,127.76-20.76,12.18-42.89,20.77-66.94,23.7-40.19,4.89-57.74,4.45-92.23-1.02-29.52-4.68-52.6-9.75-76.3-26.29-10.49-7.32-12.17-17.63-16.95-55.65-4.58-36.4-6.65-47.91-7.92-65.03-.2-2.65-.92-4.22-3.87-4.32-3.4-.11-4.4-2.79-5.27-5.46-3.52-10.75-5.57-21.82-7.19-32.99-2.88-19.97-6.11-39.89-8.76-59.89-3.74-28.2-6.9-65.38-9.46-74.87-2.26-8.35,1.46-14.09,6.88-19.14,2.36-2.2,2.84-3.96,2.27-6.97-9.47-50.23-9.59-72.44-12.28-93.85-.4-3.17-15.54-8.89-9.63-33.84,2.93-12.37,6.85-24.4,11.7-36.15,2.82-6.83,7.57-11.69,13.86-15.21,4.71-2.64.95-4.8,5.01-14.07,1.82-4.14,4.32-6.9,9.12-8.51C141.24-8.28,252.11-6.87,333.92,20.37ZM21.76,140.24c-1.33,17.35,13.92,103.76,13.94,103.9.46,3.07,1.25,4.31,4.34,5.01,46.25,10.58,130.24,13.9,177.64,13.89,33.8-.01,87.1-5.75,125.09-13.99,3.83-.83,6.72-1.88,7.11-7.14.46-6.2,2.3-12.35,2.6-18.64,2.45-50.84,9.24-74.99,9.25-86.61-111.85,45.55-270.09,40.74-338.21,3.92-.52-.28-1-.66-1.76-.34ZM197.91,572.4c15.87.1,31.58-1.75,47.21-3.96,20.93-2.96,40.22-10.88,58.46-21.35,16.26-9.32,15.09-23.71,26.63-115.18.37-2.97-.33-3.36-3.12-2.77-86.08,18.33-208.4,15.43-266.65,1.22-1.6-.39-2.45-.17-2.18,1.87.58,4.47.87,8.99,1.45,13.46,11.04,85.82,10.86,92.25,19.94,98.29,8.53,5.67,17.41,10.72,27.18,13.87,29.6,9.55,60.12,13.47,91.08,14.55ZM360.42,251.42c-21.49,13.15-29.94,5.13-30.15,13.56-.28,11.52-2.55,22.9-2.37,34.47.04,2.86-1.39,5.18-4.65,5.24-5.88.1-5.23-7.69-4.67-14.04.75-8.52,1.41-17.04,2.24-25.55.2-2.04-.25-2.49-2.26-1.99-9.4,2.33-11.44.61-11.74,4.72-.16,2.17-2.53,30.55-2.92,34.08-.31,2.83-1.72,5.17-5,4.87-3.17-.29-4.31-2.59-4.27-5.56.05-4.08,2.05-27.53,2.5-32.32.34-3.6.92-2.26-22.99.24-1.87.19-2.66,1.02-2.97,2.84-1.96,11.6.94,16.93-4.96,17.83-2.71.41-4.81-1.48-5.39-4.95-.53-3.19-.06-9.24.59-12.04.92-3.96-1.83-1.76-14.51-1.37-2.78.09-3.61,1.17-3.42,3.89,1.13,15.94-1.68,31.78-1.41,47.71.04,2.4-1.26,4.12-3.71,4.54-10.74,1.84-3.12-22.42-4.2-52-.19-5.24-1.74-2.22-21.33-3.07-3.3-.14-3.89,1.01-3.86,4.02.17,19.37.15,38.74.2,58.11,0,3.67-1.44,5.73-4.22,5.9-2.75.17-4.82-1.78-5.1-5.25-.77-9.69-.51-44.44-.41-59.52.03-5.23-2.91-2.34-11.67-3.58-3.08-.44-4.08.87-4.03,3.63.12,6.41.23,12.82.34,19.23.07,3.96-.9,7.72-4.87,7.64-3.96-.08-4.69-3.5-4.74-7.42-.3-23.73.83-23.36-2.05-23.44-21.71-.62-20.56-2.56-20.44,4.94,1.59,98.48.2,18.53,4.07,152.16.07,2.38.88,3.03,3.11,3.03,3.92,0,7.84.3,11.76.39,12.23.28,4.3,3.01,4.64-61.23.02-3.07,1.49-5.66,4.57-5.69,3.5-.03,4.74,3.14,4.81,6.66.35,17.58.96,35.16,2.04,52.71.47,7.61.34,7.62,7.74,7.6,8.17-.03,7.35,1.15,7.21-5.85-.37-18.83-2.32-58.38-.59-65.16,1.08-4.26,7-4.7,8.63-.05.57,1.62.51,3.28.47,4.94-.55,21.04.84,42.05.88,63.09,0,4.35,2.75,1.72,12.28,2.32,7.24.46,4.5.44,7.02-79.69.13-4.2.9-8.02,5.14-7.88,3.75.12,4.68,3.47,4.52,7.2-1.04,25.64-.79,51.33-2.57,76.94-.17,2.39.68,2.86,2.78,2.66,12.48-1.16,14.58.36,14.36-4.32-.69-14.54-.23-52.84-.1-53.82.35-2.62,1.61-4.54,4.49-4.64,2.95-.1,4.18,1.94,4.66,4.45.23,1.2.27,51.66.27,52.75,0,5.54,2.44,2.92,17.86,1.49,5.36-.5,1.02-8.59,6.95-57.94.33-2.75,1.94-4.68,5.01-4.45,3.15.24,3.99,2.56,4.22,5.25.04.47.03.95-.03,1.42-1.97,16.41-2.25,32.95-3.73,49.39-.57,6.26-.58,4.28,11.67,2.87,1.73-.2,2.36-.89,2.35-2.72-.04-24.93,3.24-74.51,8.08-95.35,1.79-7.7,10.56-5.55,9.17,2.02-5.07,27.59-7.73,68.32-7.57,90.08,0,1.19-1.24,3.66,1.47,3.43,8.26-.7,2.52,6.99,13.6-79.99,1.81-14.25,3.95-28.45,6.54-42.57.68-3.7,2.91-5.52,5.71-5.06,2.78.46,4.14,2.86,3.57,6.67-1.69,11.28-7.51,38.79-14.38,117.19,1.81-.45,3.37-.34,3.76-2.67,1.95-11.82,5.06-23.44,6.28-35.38,1.13-11.1,1.66-22.28,3.13-33.33,3.27-24.58,7.89-48.97,10.15-73.7.6-6.59,1.55-13.16,2.45-20.6ZM17.04,79.11c-2.63,7.95-4.83,15.43-6.72,23.03-2.72,10.99.49,19.36,10.08,25.34,83.09,51.77,271.9,34.68,346.8-4.08,5.36-2.77,7.58-6.76,7.73-12.8.28-11.57-5.88-20.63-10.59-30.71-5.89,7.64-13.7,11.65-21.94,14.86-59.44,23.18-108.14,23.17-160.96,24.06-41.61.71-82.48-3.88-122.22-16.68-15.32-4.94-31.03-9.29-42.19-23.03ZM54.22,418.47c-4.07-18.32-7.3-42.93-10.76-71.03-.92-7.43,7.77-8.95,9.28-1.46,1.29,6.37,5.59,46.63,10.65,70.77.91,4.32,2.74,5.65,6.49,6.13,5.27.68,2.55,7.4-9.29-98.79-.32-2.9.62-5.33,3.84-5.85,3.64-.58,5.14,2.18,5.63,5.84,4.09,30.72,6.84,61.61,11.38,92.28,1.29,8.75,1.09,8.73,9.76,10.05,3.85.59,2.56-.07,1-15.66-1.94-19.3-8.33-80.84-8.59-93.29-.08-4.13,1.5-6.38,4.45-6.45,2.81-.06,4.57,1.95,4.91,5.85,7.89,89.62,4.4,53.22,10.55,108.52.41,3.72-.11,2.29,18.37,4.27,1.99.21,2.46-.45,2.15-2.39-.89-5.53-9.32-85.55-11.15-117.37-2.43-42.16-.58-41.56-4.78-41.78-16.9-.88-19.04-3.49-18.78,2.09.43,9.02.74,18.04,1.11,27.07.05,1.31.14,2.58-.23,3.88-1.49,5.19-9.24,4.96-9.33-3.24-.11-9.86-1.35-19.69-.84-29.57.22-4.36-1.72-2.43-13.15-4.58-2.02-.38-2.13.4-2.06,2.03,1.44,34.46,5,40.71-1.87,41.22-4.67.35-5.28-3.92-5.6-8.62-.73-10.67-1.64-21.33-2.01-32-.13-3.76-1.27-5.29-4.97-5.43-2.22-.08-4.42-.82-6.63-1.28-3.99-.83-3.88-.82-3.3,3.22.98,6.81,1.81,13.65,2.58,20.49.32,2.87-1.01,4.98-3.94,5.42-4.57.7-5.57-4.2-6.02-8.8-.63-6.5-1.73-12.94-2.43-19.42-.44-4.07-2.16-5.81-6.14-5.92,0,3.67,15.28,133.12,22.43,157.84,1.12,3.87,2.91,5.91,7.31,5.96ZM313.14,69.94c8.95-1.39,25.8-5.39,27.81-14.27,1.04-4.57.97-9.17.19-13.81-.68-4.11-1.11.81-17.14,4.73-55.65,13.61-126.15,20.35-220.81,7.69-62.64-8.38-66.03-22.69-63.97-6.35,1,7.9,6.23,12.59,13.08,15.6,69.65,30.55,187.6,17.82,260.82,6.41ZM350.29,58.79c-4.24,8.27-8.89,14.72-29.15,19.19-14.63,3.23-29.57,4.45-44.35,6.64-26.83,3.99-53.84,5.86-80.91,6.77-51.4,1.72-96.43.29-142.88-17.24-21.78-8.22-19.19-19.79-22.73-17.4-16.01,10.79-3.03,23.8,14.89,30.49,62.59,23.39,116.21,24.27,185.39,20.7,27.57-1.42,54.86-4.85,81.37-12.94,12.24-3.74,24.69-6.96,35.95-13.3,11.77-6.63,12.55-12.43,3.25-22.31-.16-.17-.38-.28-.82-.6ZM49.31,32.69c31.85,10.54,67.88,14.48,101.2,16.72,76.55,5.15,123.19-.77,172.31-12.26,3.22-.75,6.39-1.8,9.36-3.34,1.02-.53,2.56-.79,2.54-2.13-.02-1.18-1.52-1.3-2.46-1.71-45.9-19.93-176.88-34.7-282.95,2.71ZM142.2,273.44c-.3-4.46-1.2-2.51-18.67-4.32-4.67-.48-2.42,2.03-2.21,15.31.55,34.67,4.55,66.77,11.54,137.3.88,8.84.84,8.64,9.64,9.49,3.57.34,4.1-.86,3.99-3.97-5.32-156.04-2.9-133-4.29-153.82Z"/>
      <path class="cls-1" d="M267.55,347.12c-.33,3.94-2.51,5.98-5.49,5.58-8.05-1.09-.92-14.4-1.66-51.61-.16-8.31,9.22-8.49,9.33-.13.2,14.9.19,18.05-2.19,46.17Z"/>
      <path class="cls-1" d="M183.56,347.92c-1.59,4.44-7.28,4.34-8.66-.08-1.33-4.25-.82-29.61-.15-37.99.26-3.29,1.53-5.96,4.8-5.91,6,.08,4.4,6.65,4.27,14.89-.17,10.99.72,26.34-.27,29.1Z"/>
      <path class="cls-1" d="M293.36,317.31c.5-4.15,2.72-6.31,5.71-5.81,7.68,1.28,1.14,12.33,1.21,34.18.03,7.71-9.19,8.22-9.52-.09-.42-10.77,1.42-18.57,2.59-28.28Z"/>
      <path class="cls-1" d="M46.32,301.41c1.03,6.56,1.96,13.14,2.68,19.73.59,5.37-7.21,6.98-8.79,1.86-2.18-7.07-2.79-14.41-2.95-21.76-.11-4.95,8.09-5.97,9.06.17Z"/>
      <path class="cls-1" d="M216.54,43.7c-16.84-2.36-8.71-16.6-10.57-27.01-.55-3.05,2.21-4.61,5.08-4.74,23.44-1.05,47.93,4.64,70.43,11.72,5.01,1.58,11.15,4.32,10.77,9.26-.46,6.07-8.19,6.72-21.54,9.07-16.07,2.82-33.48,4.6-54.17,1.7ZM273.65,31.3c-16.23-4.51-32.42-8.97-49.32-9.78-8.64-.41-8.5-.31-9.07,8.39-.21,3.28.86,4.31,4.03,4.63,25.34,2.52,46.84-.6,54.37-3.24Z"/>
      <path class="cls-1" d="M149.4,43.68c-40.39-2.43-23.82-30.3,8.58-21.56,8.53,2.3,13.26,17.77-1.18,20.65-2.66.53-5.4.68-7.4.92ZM136.81,31.75c6.26,2.53,11.8,2.3,17.35,1.88,2.95-.22,1.88-2.58.56-2.62-5.66-.16-11.39-1.57-17.91.74Z"/>
    </g>
  </g>
</svg>