<svg width="128" height="193" viewBox="0 0 128 193" fill="none" xmlns="http://www.w3.org/2000/svg">
<path d="M110.619 7.217C114.227 8.41864 115.917 11.0794 116.207 14.7173C116.28 15.6219 116.577 16.1864 117.28 16.7311C119.079 18.1275 120.188 20.0884 121.366 21.9899C123.637 25.6575 125.769 29.3978 126.934 33.5903C127.436 35.3928 127.419 37.2348 127.096 39.0736C126.769 40.9256 125.792 42.3616 124.158 43.2562C122.531 44.1509 123.452 44.3423 121.818 54.7081C119.957 66.5363 120.363 71.0689 119.65 76.5852C119.564 77.2454 119.574 77.6185 120.369 77.8693C122.198 78.4471 123.165 80.0712 122.858 82.0058C121.287 91.9556 120.6 102.024 118.719 111.934C117.973 115.863 117.89 119.887 117.547 123.872C117.078 129.342 115.247 136.627 115.257 137.661C115.27 139.133 114.857 140.279 113.266 140.691C112.91 140.784 112.735 141.035 112.686 141.46C108.771 174.865 108.735 179.919 102.398 183.637C95.5459 187.657 88.2419 190.493 80.3042 191.46C67.0394 193.075 61.247 192.929 49.8635 191.124C40.1204 189.579 32.5028 187.905 24.6806 182.445C21.2184 180.028 20.6639 176.625 19.0862 164.074C17.5746 152.057 16.8914 148.258 16.4722 142.606C16.4062 141.731 16.1686 141.213 15.1949 141.18C14.0727 141.144 13.7427 140.259 13.4555 139.377C12.2938 135.829 11.6172 132.174 11.0825 128.487C10.1319 121.894 9.06586 115.318 8.19122 108.716C6.95683 99.4064 5.91387 87.1325 5.06894 83.9997C4.32302 81.2432 5.55081 79.3483 7.33969 77.6812C8.11861 76.9549 8.27704 76.3739 8.08891 75.3802C4.96332 58.7983 4.92372 51.4663 4.03588 44.3984C3.90386 43.352 -1.09312 41.4637 0.857482 33.2272C1.82453 29.1436 3.11833 25.1722 4.71908 21.2933C5.64983 19.0386 7.21757 17.4342 9.2936 16.2722C10.8481 15.4007 9.60715 14.6876 10.9472 11.6274C11.5478 10.2607 12.373 9.34958 13.9572 8.81808C47.0251 -2.24095 83.6179 -1.77548 110.619 7.217ZM7.59053 46.7885C7.15156 52.5161 12.1848 81.0418 12.1914 81.088C12.3433 82.1015 12.604 82.5108 13.6239 82.7419C28.8888 86.2346 56.6098 87.3306 72.2542 87.3273C83.4099 87.324 101.002 85.4291 113.54 82.7089C114.804 82.4349 115.758 82.0883 115.887 80.3519C116.039 78.3051 116.646 76.2749 116.745 74.1984C117.554 57.4151 119.795 49.4427 119.798 45.6067C82.8819 60.6437 30.6545 59.0558 8.17142 46.9008C7.99979 46.8083 7.84137 46.6829 7.59053 46.7885ZM65.7291 189.453C70.967 189.486 76.1521 188.876 81.3108 188.146C88.2188 187.169 94.5855 184.554 100.606 181.098C105.972 178.021 105.586 173.271 109.395 143.075C109.517 142.094 109.286 141.966 108.365 142.16C79.9543 148.211 39.5824 147.254 20.3569 142.563C19.8288 142.434 19.5483 142.507 19.6374 143.18C19.8288 144.656 19.9246 146.148 20.116 147.624C23.7598 175.955 23.7003 178.077 26.6972 180.071C29.5125 181.943 32.4434 183.61 35.668 184.65C45.4375 187.803 55.5107 189.097 65.7291 189.453ZM119.366 83.4913C112.273 87.8324 109.484 85.1848 109.415 87.9677C109.322 91.7707 108.573 95.5275 108.632 99.347C108.646 100.291 108.174 101.057 107.098 101.077C105.157 101.11 105.372 98.5382 105.556 96.4419C105.804 93.6293 106.022 90.8167 106.296 88.0073C106.362 87.3339 106.213 87.1853 105.55 87.3504C102.447 88.1196 101.774 87.5518 101.675 88.9086C101.622 89.6249 100.84 98.9937 100.711 100.159C100.609 101.093 100.144 101.866 99.061 101.767C98.0147 101.671 97.6385 100.912 97.6517 99.9313C97.6682 98.5844 98.3283 90.8431 98.4768 89.2618C98.589 88.0734 98.7804 88.5157 90.8889 89.341C90.2717 89.4038 90.011 89.6778 89.9087 90.2786C89.2618 94.108 90.2189 95.8675 88.2716 96.1646C87.3772 96.3 86.6841 95.676 86.4926 94.5305C86.3177 93.4774 86.4728 91.4802 86.6874 90.5559C86.991 89.2486 86.0834 89.9749 81.8983 90.1036C80.9808 90.1333 80.7068 90.4898 80.7695 91.3878C81.1425 96.6499 80.2151 101.879 80.3042 107.138C80.3174 107.93 79.8883 108.498 79.0797 108.637C75.5349 109.244 78.0499 101.235 77.6935 91.4703C77.6308 89.7405 77.1192 90.7374 70.6535 90.4568C69.5643 90.4106 69.3696 90.7903 69.3795 91.7839C69.4356 98.1783 69.429 104.573 69.4455 110.967C69.4455 112.179 68.9702 112.859 68.0527 112.915C67.145 112.971 66.4618 112.327 66.3694 111.182C66.1153 107.983 66.2011 96.5112 66.2341 91.533C66.244 89.8065 65.2736 90.7605 62.3824 90.3512C61.3658 90.2059 61.0358 90.6384 61.0523 91.5495C61.0919 93.6656 61.1282 95.7817 61.1645 97.8977C61.1876 99.205 60.8674 100.446 59.5571 100.42C58.2501 100.393 58.0092 99.2644 57.9927 97.9704C57.8937 90.1366 58.2666 90.2588 57.3161 90.2323C50.1507 90.0277 50.5302 89.3872 50.5698 91.8631C51.0946 124.373 50.6358 97.9803 51.9131 142.094C51.9362 142.88 52.2036 143.095 52.9396 143.095C54.2334 143.095 55.5272 143.194 56.821 143.223C60.8575 143.316 58.2402 144.217 58.3524 123.01C58.359 121.997 58.8442 121.142 59.8608 121.132C61.016 121.122 61.4252 122.168 61.4483 123.33C61.5638 129.134 61.7652 134.937 62.1216 140.731C62.2768 143.243 62.2339 143.246 64.6762 143.24C67.3728 143.23 67.1021 143.619 67.0559 141.309C66.9338 135.092 66.2902 122.036 66.8612 119.798C67.2176 118.392 69.1715 118.246 69.7095 119.781C69.8976 120.316 69.8778 120.864 69.8646 121.412C69.6831 128.358 70.1419 135.294 70.1551 142.24C70.1551 143.676 71.0627 142.807 74.2081 143.005C76.5977 143.157 75.6933 143.151 76.5251 116.698C76.568 115.312 76.8221 114.051 78.2215 114.097C79.4592 114.136 79.7662 115.242 79.7134 116.474C79.3701 124.938 79.4526 133.419 78.8651 141.873C78.809 142.662 79.0896 142.817 79.7827 142.751C83.9017 142.368 84.5948 142.87 84.5222 141.325C84.2945 136.525 84.4463 123.882 84.4892 123.558C84.6047 122.693 85.0206 122.059 85.9711 122.026C86.9448 121.993 87.3508 122.667 87.5092 123.495C87.5851 123.891 87.5983 140.549 87.5983 140.909C87.5983 142.738 88.4036 141.873 93.493 141.401C95.2621 141.236 93.8297 138.565 95.7869 122.274C95.8958 121.366 96.4272 120.729 97.4404 120.805C98.4801 120.884 98.7573 121.65 98.8332 122.538C98.8464 122.693 98.8431 122.852 98.8233 123.007C98.1731 128.424 98.0807 133.884 97.5923 139.311C97.4041 141.378 97.4008 140.724 101.444 140.259C102.015 140.193 102.223 139.965 102.22 139.361C102.206 131.131 103.289 114.764 104.886 107.884C105.477 105.342 108.372 106.052 107.913 108.551C106.24 117.659 105.362 131.105 105.414 138.288C105.414 138.681 105.005 139.496 105.9 139.42C108.626 139.189 106.731 141.728 110.388 113.014C110.986 108.31 111.692 103.622 112.547 98.9607C112.771 97.7393 113.507 97.1385 114.431 97.2903C115.349 97.4422 115.798 98.2345 115.61 99.4922C115.052 103.216 113.131 112.298 110.864 138.179C111.461 138.03 111.976 138.067 112.105 137.298C112.748 133.396 113.775 129.56 114.177 125.618C114.55 121.954 114.725 118.263 115.21 114.615C116.29 106.501 117.815 98.449 118.56 90.2852C118.758 88.1097 119.072 85.9408 119.369 83.4847L119.366 83.4913ZM6.03269 26.6083C5.16465 29.2327 4.43854 31.702 3.81474 34.2109C2.917 37.839 3.97647 40.6021 7.14166 42.5762C34.5656 59.6665 96.8826 54.0248 121.604 41.2293C123.373 40.3149 124.105 38.9977 124.155 37.0038C124.247 33.1843 122.214 30.1934 120.66 26.8658C118.716 29.3879 116.138 30.7117 113.418 31.7713C93.8 39.4235 77.7265 39.4202 60.2931 39.714C46.5597 39.9484 33.0705 38.4332 19.9543 34.2076C14.8979 32.5768 9.71276 31.1408 6.02939 26.605L6.03269 26.6083ZM18.304 138.638C16.9607 132.59 15.8946 124.466 14.7526 115.189C14.449 112.737 17.3171 112.235 17.8155 114.707C18.2413 116.81 19.6605 130.101 21.3306 138.07C21.6309 139.496 22.2349 139.935 23.4726 140.094C25.212 140.318 24.3142 142.537 20.4064 107.481C20.3008 106.524 20.6111 105.722 21.6738 105.55C22.8752 105.358 23.3703 106.27 23.532 107.478C24.8819 117.619 25.7896 127.817 27.288 137.941C27.7138 140.83 27.6478 140.823 30.5093 141.259C31.78 141.454 31.3542 141.236 30.8394 136.089C30.1991 129.718 28.09 109.402 28.0042 105.292C27.9778 103.929 28.4993 103.186 29.4729 103.163C30.4004 103.143 30.9813 103.807 31.0935 105.094C33.6976 134.68 32.5457 122.663 34.5755 140.919C34.7109 142.147 34.5392 141.675 40.6386 142.329C41.2954 142.398 41.4505 142.18 41.3482 141.54C41.0544 139.714 38.2721 113.298 37.6681 102.793C36.8661 88.8756 37.4767 89.0736 36.0905 89.001C30.5126 88.7105 29.8063 87.8489 29.8921 89.691C30.034 92.6686 30.1363 95.6463 30.2585 98.6273C30.275 99.0598 30.3047 99.479 30.1826 99.9082C29.6908 101.621 27.1329 101.546 27.1032 98.8386C27.0669 95.5836 26.6576 92.3385 26.8259 89.0769C26.8985 87.6376 26.2582 88.2747 22.4858 87.565C21.819 87.4395 21.7827 87.697 21.8058 88.2351C22.2811 99.6111 23.4561 101.674 21.1887 101.843C19.6473 101.958 19.446 100.549 19.3404 98.997C19.0994 95.4747 18.7991 91.9556 18.677 88.4332C18.6341 87.1919 18.2578 86.6869 17.0366 86.6406C16.3039 86.6142 15.5778 86.3699 14.8484 86.2181C13.5315 85.9441 13.5678 85.9474 13.7592 87.2811C14.0826 89.5292 14.3566 91.7872 14.6107 94.0452C14.7163 94.9927 14.2774 95.6892 13.3103 95.8345C11.802 96.0656 11.4719 94.448 11.3234 92.9294C11.1155 90.7837 10.7524 88.6577 10.5214 86.5185C10.3762 85.1749 9.80848 84.6005 8.49487 84.5642C8.49487 85.7757 13.5381 128.51 15.8979 136.67C16.2676 137.948 16.8584 138.621 18.3106 138.638H18.304ZM103.761 23.5811C106.715 23.1222 112.276 21.8017 112.94 18.8702C113.283 17.3616 113.26 15.843 113.002 14.3113C112.778 12.9545 112.636 14.5787 107.345 15.8728C88.9779 20.3657 65.7093 22.5907 34.4666 18.4114C13.7922 15.645 12.6733 10.9209 13.3532 16.3151C13.6833 18.9231 15.4095 20.4713 17.6703 21.465C40.6584 31.5502 79.5879 27.3477 103.754 23.5811H103.761ZM116.022 19.9002C114.623 22.6303 113.088 24.7596 106.401 26.2352C101.573 27.3015 96.6417 27.7043 91.7636 28.4272C82.9083 29.7444 73.9936 30.3617 65.0591 30.6621C48.0944 31.2299 33.2322 30.7579 17.9013 24.9709C10.7128 22.2573 11.5677 18.4378 10.3993 19.2268C5.11515 22.7888 9.39921 27.0836 15.3137 29.2921C35.9717 37.0137 53.669 37.3042 76.502 36.1256C85.6015 35.6569 94.6086 34.5246 103.358 31.8539C107.398 30.6192 111.507 29.5562 115.224 27.4633C119.108 25.2746 119.366 23.3599 116.296 20.0983C116.243 20.0422 116.171 20.0059 116.026 19.9002H116.022ZM16.6834 11.2841C27.1956 14.7635 39.0873 16.0642 50.0847 16.8037C75.3501 18.5038 90.7437 16.5495 106.956 12.7564C108.019 12.5088 109.065 12.1622 110.045 11.6538C110.382 11.4789 110.89 11.393 110.883 10.9507C110.877 10.5611 110.382 10.5215 110.072 10.3862C94.9221 3.80686 51.692 -1.06902 16.6834 11.2808V11.2841ZM47.3419 90.7605C47.2429 89.2882 46.9459 89.9319 41.1799 89.3344C39.6385 89.176 40.3811 90.0046 40.4505 94.3886C40.632 105.834 41.9522 116.431 44.2592 139.714C44.5497 142.632 44.5365 142.566 47.4409 142.847C48.6192 142.959 48.7942 142.563 48.7579 141.536C47.002 90.0244 47.8007 97.6303 47.3419 90.7572V90.7605Z" fill="#CECECE"/>
<path d="M88.7139 115.085C88.6049 116.386 87.8854 117.06 86.9019 116.928C84.245 116.568 86.5982 112.174 86.354 99.89C86.3012 97.1467 89.3971 97.0873 89.4334 99.8471C89.4994 104.766 89.4961 105.806 88.7106 115.089L88.7139 115.085Z" fill="#CECECE"/>
<path d="M60.9928 115.347C60.4681 116.813 58.5901 116.78 58.1346 115.321C57.6956 113.918 57.864 105.546 58.0851 102.779C58.1709 101.693 58.5901 100.812 59.6693 100.828C61.6497 100.855 61.1216 103.024 61.0787 105.744C61.0226 109.372 61.3163 114.439 60.9895 115.35L60.9928 115.347Z" fill="#CECECE"/>
<path d="M97.2328 105.242C97.3978 103.872 98.1305 103.159 99.1174 103.324C101.652 103.747 99.4937 107.395 99.5168 114.608C99.5267 117.153 96.4836 117.321 96.3747 114.578C96.236 111.023 96.8433 108.448 97.2295 105.242H97.2328Z" fill="#CECECE"/>
<path d="M15.6967 99.9928C16.0366 102.158 16.3436 104.331 16.5812 106.506C16.776 108.279 14.2016 108.81 13.6801 107.12C12.9606 104.786 12.7592 102.363 12.7064 99.9367C12.6701 98.3026 15.3765 97.9659 15.6967 99.9928Z" fill="#CECECE"/>
<path d="M71.8782 14.9133C66.3201 14.1342 69.0035 9.43332 68.3896 5.99677C68.208 4.9899 69.119 4.47492 70.0662 4.432C77.8026 4.08537 85.8856 5.96376 93.3118 8.30101C94.9653 8.8226 96.9918 9.72713 96.8664 11.3579C96.7146 13.3618 94.1633 13.5763 89.7571 14.3521C84.4532 15.2831 78.707 15.8707 71.8782 14.9133ZM90.7274 10.8198C85.3707 9.33099 80.0272 7.85865 74.4493 7.59125C71.5977 7.4559 71.6439 7.48891 71.4557 10.361C71.3864 11.4438 71.7396 11.7838 72.7858 11.8894C81.1493 12.7213 88.2455 11.6913 90.7307 10.8198H90.7274Z" fill="#CECECE"/>
<path d="M49.7182 14.9138C36.3874 14.1116 41.8564 4.91117 52.5501 7.79642C55.3654 8.5557 56.9265 13.6627 52.1606 14.6134C51.2827 14.7884 50.3783 14.8379 49.7182 14.9171V14.9138ZM45.5629 10.9755C47.629 11.8107 49.4575 11.7348 51.2893 11.5961C52.2629 11.5235 51.9098 10.7444 51.4741 10.7312C49.606 10.6784 47.7148 10.2129 45.5629 10.9755Z" fill="#CECECE"/>
</svg>
