<svg width="95" height="55" viewBox="0 0 95 55" fill="none" xmlns="http://www.w3.org/2000/svg">
<rect x="0.5" y="0.5" width="93.0141" height="53.0206" rx="26.5103" stroke="#FCC764"/>
<path d="M41.0823 19.6131L43.3323 19.6116L43.3416 34.0116L41.0916 34.0131L41.0877 27.9291L34.1577 27.9335L34.1616 34.0175L31.9116 34.019L31.9023 19.619L34.1523 19.6175L34.1562 25.7015L41.0862 25.6791L41.0823 19.6131ZM48.3491 29.6884C48.4816 30.4083 48.8059 30.9841 49.3222 31.4158C49.8505 31.8354 50.5106 32.045 51.3026 32.0445C52.5746 32.0437 53.5823 31.551 54.3257 30.5665L55.8564 31.6096C55.3889 32.4979 54.7534 33.1643 53.9496 33.6088C53.1459 34.0533 52.2641 34.2759 51.3041 34.2765C50.3561 34.2771 49.4799 34.0437 48.6756 33.5762C47.8713 33.0967 47.2289 32.4551 46.7484 31.6514C46.2799 30.8357 46.0453 29.9479 46.0447 28.9879C46.044 28.0279 46.2775 27.1457 46.745 26.3414C47.2244 25.5371 47.866 24.9007 48.6697 24.4322C49.4734 23.9517 50.3493 23.7111 51.2973 23.7105C52.3053 23.7098 53.1934 23.9613 53.9618 24.4648C54.7301 24.9683 55.3185 25.6759 55.7271 26.5876C56.1357 27.4874 56.3224 28.5193 56.2871 29.6833L48.3491 29.6884ZM51.2987 25.9065C50.5547 25.907 49.9188 26.1234 49.3911 26.5557C48.8754 26.976 48.5337 27.5163 48.3661 28.1764L54.1261 28.1727C53.9817 27.4648 53.6453 26.913 53.1171 26.5173C52.6008 26.1097 51.9947 25.906 51.2987 25.9065ZM60.2523 22.8947C59.8803 22.895 59.5682 22.7752 59.3161 22.5353C59.0639 22.2835 58.9377 21.9776 58.9375 21.6176C58.9373 21.2576 59.0631 20.9515 59.3149 20.6993C59.5667 20.4472 59.8787 20.321 60.2507 20.3207C60.5987 20.3205 60.8927 20.4463 61.1329 20.6982C61.3851 20.95 61.5113 21.2559 61.5115 21.6159C61.5117 21.9759 61.3859 22.282 61.1341 22.5342C60.8942 22.7743 60.6003 22.8945 60.2523 22.8947ZM59.1189 23.8135L61.3689 23.812L61.3755 34C61.3641 35.032 61.2566 35.7821 61.0529 36.2502C60.8612 36.7304 60.4174 37.0726 59.7216 37.2771C59.0377 37.4935 57.9218 37.6022 56.3738 37.6032L56.3723 35.3532C57.1163 35.3528 57.6683 35.3224 58.0283 35.2622C58.4002 35.2139 58.6762 35.0938 58.856 34.9016C59.0359 34.7215 59.1257 34.4215 59.1255 34.0015L59.1189 23.8135Z" fill="#FCC764"/>
</svg>
