<?xml version="1.0" encoding="UTF-8"?>
<svg id="Layer_2" data-name="Layer 2" xmlns="http://www.w3.org/2000/svg" viewBox="0 0 2560 2560">
  <defs>
    <style>
      .cls-1 {
        fill: #dfdfdf;
      }
    </style>
  </defs>
  <g id="Design">
    <path class="cls-1" d="M1280,0C574.2,0,0,574.21,0,1280s574.2,1280,1280,1280,1280-574.21,1280-1280S1985.8,0,1280,0ZM2432.07,945c-62.21-20.4-130.43,2.13-181.77,19.17-11.76,3.9-26.7,8.86-36.52,11.21-40.02-44.63-103.22-63.57-151.7-66.23-38.67-2.18-75.1,13.6-100.02,43.13-25.2,29.82-34.69,68.73-26.05,106.76,3.91,17.29,11.46,33.8,18.12,48.36,4.34,9.43,11.25,24.56,12.4,31.9-1.7,1.06-4.82,2.71-10.18,4.52-15.59,5.34-54.51-3.55-74.24-16.98-14.82-10.07-49.53-33.62-92.52-19.02-37.27,12.66-65.25,47.02-74.88,91.9-14.14,65.8,22.48,104.86,54.8,139.33,5.06,5.38,10.27,10.94,15.49,16.8,35.8,40.15,82.87,57.13,124.39,72.11,6.11,2.21,12.23,4.4,18.3,6.69-2.09,3.65-4.3,7.25-5.66,9.48-4.98,8.1-9.88,16.42-14.8,24.78-8.71,14.76-17.71,30.02-26.86,43.47-11.6,17.12-24.53,33.64-38.18,51.13-31.43,40.22-63.93,81.81-82.73,134.03-16.13,44.66-19.8,89.78-23.36,133.4-2.62,32.14-5.1,62.49-12.32,91.23-6.74,26.92-23.75,49.59-45.25,76.39-35.57,44.24-84.36,82.2-127.38,113.5-30.31,22.04-72.21,42.3-99.9,13.52-31.6-32.86-54.34-81.09-67.62-143.34-5.23-24.61-6.13-51.27-7.07-79.5-1.29-38.69-2.64-78.7-15.39-118-4.9-15.14-11.86-28.71-17.99-40.69-10.29-20.12-16.54-33.12-15.23-46.45,6.86-69.65-10.39-123.71-51.25-160.68-71.5-64.72-189.49-47.24-209.45-43.71-47.01,3.19-85.98-15.04-134.92-38.07l-12.27-5.75c-78.59-36.67-108.79-102.82-97.89-214.47,10.82-110.65,100.41-214.96,208.36-242.62,100.92-25.85,198.54-.57,315.66,35.14,26.11,7.98,85.12,13.9,191.33,19.18l6.19.31c59.22,3.06,104.63-9.51,135.33-37.38,32.03-29.04,35.14-63.07,35.37-68.57,4.3-60.31-11.33-109.79-46.45-147.07-65.88-69.97-182.42-76.85-264.47-75.9-21.41.24-43.95,1.91-65.74,3.54-49.14,3.65-99.94,7.43-140.12-4.66-6.11-1.84-9.1-3.31-10.45-4.12-1.27-13.37,5.62-20.93,38.57-42.36,16.39-10.67,33.34-21.7,46.84-37.29,37.27-43.06,41.17-109.76,42.44-131.67l.1-1.39c.04-.3.08-.62.12-.92,5.02-40.13,115.49-53.45,189.98-47.37,1.6.13,3.24.15,4.84.15,44.77,0,69.18-20.56,81.8-37.96,36.31-50.03,14.53-126.93,8.14-146.4-18.54-78.95,21.66-124.67,31.9-134.79,384.74,118.25,687.41,425.17,800.16,812.26ZM577.91,307.72c5.57,24.13,9.65,60.06,11.5,76.57,1.54,13.74,2.91,25.59,4.3,33.63,5.74,33.54,10.51,68.74.21,98.04-11.54,32.84-37.83,56.8-87.91,80.1-8.28,3.87-16.54,7.6-24.73,11.31-55.16,24.98-112.19,50.81-159.22,105.85-37.29,43.6-95.53,88.34-129,86.76-3.49-.13-7.2-.9-11.11-3.2,86.63-196.09,224.21-364.69,395.96-489.06ZM93.44,1100.74c51.78,3.32,161.37,18.47,165.62,87.18-4.84,61.36-4.08,120.4,2.25,175.54,9.69,83.85,70.31,135.35,123.79,180.78,48.65,41.33,90.66,77.02,94.63,129.78,2.11,27.87-8.57,57.07-19.86,87.98-7.48,20.44-15.2,41.57-20.02,64.14l-.94,4.38c-7.68,35.91-15.62,73.04-8.05,114.9,8.2,45.22,3.12,84.09-13.26,101.45-9.77,10.34-26.44,14.33-49.01,12.43-179.69-209.84-288.59-482.01-288.59-779.28,0-60.92,4.64-120.76,13.44-179.26ZM830,2392.12c97.87-47.36,328.35-122.22,534.95,84.54-28.1,1.98-56.36,3.34-84.95,3.34-159.1,0-310.94-31.4-450-87.88ZM1463.44,2465.98c-307.3-366.27-694.01-133.87-723.8-115.04-113.41-57.46-216.65-132.15-305.9-221.01,18.68-7.48,32.44-18.01,41.99-28.12,49.08-51.94,40-136.67,33.83-170.67-4.77-26.3.96-52.98,7.56-83.88l.96-4.42c3.63-17.08,10.08-34.71,16.91-53.37,13.09-35.79,27.91-76.36,24.49-121.46-6.45-86.07-68.14-138.49-122.6-184.74-48.32-41.04-90.04-76.49-96.09-128.97-5.84-50.7-6.45-105.35-1.8-162.42.14-1.5.16-3.02.12-4.53-3-93.7-88.67-154.59-230.79-165.78,11.34-51.43,25.76-101.71,43.48-150.45,11.85,5.24,24.66,8.3,38.32,8.8,1.41.06,2.79.08,4.2.08,85.92,0,171.93-95.38,188.54-114.79,35.47-41.5,79.94-61.64,131.43-84.96,8.44-3.82,16.95-7.68,25.49-11.66,43.77-20.37,104.82-55.61,129.61-126.08,16.66-47.38,10.37-96.13,3.16-138.1-1.19-6.94-2.3-17.17-3.63-29.02-5.21-46.35-10.64-85.77-22.08-114.1,134.9-84.15,287.49-142.46,450.98-167.47,1.53,7.08,2.27,19.39,2.14,37.28l-.02,7.08c.23,37.65-.92,63.38-18.54,77.53-13.54,10.85-32.6,17.88-52.75,25.32-10.98,4.05-21.89,8.11-32.36,12.76-47.62,21.2-101.8,47.16-142.07,87.17-32.77,32.53-42.17,64.75-27.93,95.74,6.74,14.67,21.23,23.31,36.37,23.31,5.59,0,11.27-1.18,16.68-3.66,18.34-8.42,27.27-28.96,21.64-47.75,1.41-2.05,4.18-5.48,9.61-10.87,30.66-30.46,77.11-52.54,118.22-70.85,8.91-3.96,18.2-7.35,27.54-10.8,24.1-8.9,51.43-18.97,75.12-37.98,49.12-39.43,48.75-97.81,48.48-140.48l.02-5.94c.1-12.68.05-29.82-2.71-46.98,33.9-2.89,68.11-4.7,102.75-4.7,92.29,0,182.04,10.82,268.4,30.64-22.96,36.41-45.53,96.14-25.76,177.38.27,1.11.62,2.3.98,3.39,8.75,26.02,12.32,63.45,3.5,75.56-2.38,3.26-8.05,4.92-16.84,4.93-33.03-2.57-257.85-15.22-274.41,117.3l.16.02c-.41,2.35-.7,4.86-.86,7.54-2.97,50.81-14.18,73.71-23.05,83.97-6.11,7.06-18.26,14.96-30,22.61-32.25,20.98-80.98,52.69-74.53,117.46,3.57,35.92,26.11,60.36,66.97,72.68,54.39,16.36,115.37,11.84,169.12,7.84,21.5-1.6,41.82-3.12,60.7-3.32,104.51-1.24,172.07,15.41,205.35,50.75,19.41,20.62,27.56,48.92,24.92,85.99-.53,3.74-7.38,36.44-86.82,32.29l-6.35-.31c-125-6.22-161.37-12.56-171.95-15.79-101.7-31-228.3-69.59-358.87-36.12-141.21,36.18-253.96,167.53-268.12,312.33-14.3,146.55,32.7,242.96,143.65,294.75l12.05,5.65c55.55,26.13,108.03,50.81,177.32,45.27,1.48-.12,3.09-.34,4.55-.63,26.68-5.21,104.36-11,143.03,24.19,21.21,19.31,29.45,49.86,25.18,93.4-3.69,37.38,11.46,66.97,23.63,90.75,5.23,10.2,10.16,19.82,13.09,28.89,9.3,28.61,10.39,61.35,11.54,96.02,1.02,30.46,2.07,61.96,8.79,93.5,16.43,77.06,46.11,138.34,88.2,182.12,24.94,25.93,55.84,38.86,89.86,38.86,35.92,0,75.29-14.4,114.77-43.13,47.29-34.38,101.21-76.5,142.68-128.08,20.66-25.74,48.96-61.01,60.49-107.02,8.83-35.14,11.7-70.24,14.45-104.2,3.28-40.17,6.37-78.11,18.89-112.76,14.47-40.2,41.7-75.03,70.51-111.91,13.89-17.76,28.24-36.13,41.35-55.45,10.57-15.55,20.21-31.92,29.57-47.77,4.69-7.95,9.36-15.87,14.06-23.56,12.68-20.63,30.04-48.91,19.57-80.18-4.38-13.1-15.53-31.04-43.81-42.16-9.71-3.82-19.57-7.38-29.41-10.94-37.3-13.46-69.51-25.08-91.84-50.1-5.68-6.38-11.35-12.43-16.84-18.28-32.13-34.27-39.77-45.4-34.96-67.8,2.71-12.61,10.2-28.81,22.42-32.96,2.77-.9,7.32-.39,21.8,9.44,30.9,21.01,96.31,43.13,145.04,26.54,29.38-10.01,49.04-26.2,58.5-48.12,14.9-34.64-1.02-69.39-13.79-97.32-5.31-11.57-10.78-23.53-12.87-32.74-3.03-13.33.31-26.98,9.16-37.45,5.06-5.99,16.04-16.04,34.53-14.87,35.35,1.93,80.37,16.81,101.29,45.65,25.8,35.54,69.86,20.89,116.5,5.41,44.02-14.61,104.32-34.61,141.97-14.86,19.82,10.38,34.26,31.85,44.16,65.62,1.13,3.85,2.93,7.28,5.01,10.47,8.74,58.31,13.36,117.96,13.36,178.67,0,599.32-441.64,1097.41-1016.56,1185.98Z"/>
  </g>
</svg>