<svg width="109" height="55" viewBox="0 0 109 55" fill="none" xmlns="http://www.w3.org/2000/svg">
<rect x="0.5" y="0.5" width="107.014" height="53.0296" rx="26.5148" stroke="#337EB5"/>
<path d="M37.2016 19.0241L39.7016 19.0224L39.7119 35.0224L37.2119 35.0241L37.2075 28.2641L29.5075 28.269L29.5119 35.029L27.0119 35.0306L27.0016 19.0306L29.5016 19.029L29.5059 25.789L37.2059 25.7641L37.2016 19.0241ZM45.2758 30.2189C45.423 31.0188 45.7834 31.6585 46.3571 32.1382C46.944 32.6045 47.6775 32.8373 48.5575 32.8368C49.9708 32.8359 51.0905 32.2885 51.9164 31.1946L53.6172 32.3535C53.0978 33.3405 52.3916 34.081 51.4986 34.5749C50.6056 35.0688 49.6258 35.3161 48.5591 35.3168C47.5058 35.3174 46.5323 35.0581 45.6386 34.5386C44.7449 34.0059 44.0311 33.293 43.4972 32.4C42.9766 31.4937 42.716 30.5072 42.7153 29.4405C42.7146 28.3738 42.974 27.3937 43.4934 26.5C44.0262 25.6063 44.7391 24.8992 45.6321 24.3786C46.5251 23.8447 47.4982 23.5774 48.5516 23.5768C49.6716 23.576 50.6584 23.8554 51.5121 24.4149C52.3658 24.9743 53.0196 25.7606 53.4736 26.7736C53.9276 27.7733 54.135 28.9198 54.0958 30.2132L45.2758 30.2189ZM48.5531 26.0168C47.7265 26.0173 47.0199 26.2577 46.4336 26.7381C45.8606 27.2052 45.4809 27.8054 45.2947 28.5389L51.6947 28.5347C51.5342 27.7482 51.1605 27.1351 50.5736 26.6955C49.9999 26.2425 49.3265 26.0163 48.5531 26.0168ZM57.1071 19.0113L59.6071 19.0097L59.6173 35.0097L57.1173 35.0113L57.1071 19.0113ZM63.2047 19.0073L65.7047 19.0057L65.715 35.0057L63.215 35.0073L63.2047 19.0073ZM74.3874 35.3002C73.334 35.3008 72.3739 35.0348 71.5069 34.502C70.6399 33.9692 69.9527 33.243 69.4455 32.3233C68.9515 31.4037 68.7042 30.3972 68.7035 29.3038C68.7028 28.2238 68.9489 27.2303 69.4416 26.3233C69.9477 25.4163 70.6339 24.6959 71.5002 24.162C72.3665 23.6281 73.3264 23.3608 74.3797 23.3602C75.433 23.3595 76.3932 23.6255 77.2602 24.1583C78.1272 24.6911 78.8077 25.4107 79.3016 26.317C79.7955 27.2234 80.0428 28.2165 80.0435 29.2965C80.0442 30.3899 79.7982 31.3967 79.3055 32.317C78.8127 33.2373 78.1332 33.9644 77.2669 34.4983C76.4005 35.0322 75.4407 35.2995 74.3874 35.3002ZM74.3858 32.8202C75.3458 32.8196 76.1122 32.4924 76.6852 31.8387C77.2581 31.1717 77.5442 30.3315 77.5435 29.3181C77.5429 28.3048 77.2557 27.4717 76.6819 26.8187C76.1082 26.1657 75.3413 25.8396 74.3813 25.8402C73.4346 25.8408 72.6682 26.1746 72.0819 26.8416C71.4957 27.4954 71.2029 28.3222 71.2035 29.3222C71.2042 30.3355 71.4981 31.1754 72.0852 31.8416C72.6722 32.4946 73.4391 32.8208 74.3858 32.8202Z" fill="#337EB5"/>
</svg>
