<svg width="145" height="55" viewBox="0 0 145 55" fill="none" xmlns="http://www.w3.org/2000/svg">
<rect x="0.5" y="0.5" width="143.014" height="53.0296" rx="26.5148" stroke="#E36A46"/>
<path d="M37.8963 19.6385C39.3723 19.6376 40.5065 19.9429 41.2989 20.5544C42.0913 21.1538 42.4878 21.9636 42.4885 22.9836C42.489 23.7876 42.2734 24.4537 41.8417 24.982C41.4101 25.4983 40.7563 25.8107 39.8803 25.9193C41.2004 26.0264 42.2746 26.3617 43.103 26.9252C43.9434 27.4887 44.3639 28.3764 44.3647 29.5884C44.3657 31.1124 43.7544 32.2348 42.5309 32.9556C41.3193 33.6763 39.7776 34.0373 37.9056 34.0385L31.9116 34.0424L31.9023 19.6424L37.8963 19.6385ZM37.8997 24.9485C38.6797 24.948 39.2496 24.8097 39.6095 24.5334C39.9813 24.2572 40.167 23.8731 40.1667 23.3811C40.1661 22.4331 39.4098 21.9596 37.8978 21.9605L34.2078 21.9629L34.2097 24.9509L37.8997 24.9485ZM37.9041 31.7345C39.3801 31.7336 40.394 31.5289 40.9457 31.1206C41.5094 30.7122 41.7911 30.136 41.7906 29.392C41.7901 28.708 41.5018 28.1742 40.9256 27.7906C40.3613 27.395 39.3532 27.1976 37.9012 27.1985L34.2112 27.2009L34.2141 31.7369L37.9041 31.7345ZM52.1796 34.2994C51.2316 34.3 50.3674 34.0605 49.5871 33.581C48.8068 33.1015 48.1884 32.4479 47.7319 31.6202C47.2873 30.7925 47.0648 29.8867 47.0641 28.9027C47.0635 27.9307 47.2849 27.0365 47.7284 26.2202C48.1839 25.4039 48.8015 24.7555 49.5812 24.275C50.3608 23.7945 51.2247 23.554 52.1727 23.5534C53.1207 23.5528 53.9848 23.7922 54.7652 24.2717C55.5455 24.7512 56.1579 25.3988 56.6024 26.2145C57.0469 27.0302 57.2695 27.9241 57.2701 28.8961C57.2708 29.8801 57.0493 30.7862 56.6059 31.6145C56.1624 32.4428 55.5508 33.0972 54.7711 33.5777C53.9914 34.0582 53.1276 34.2988 52.1796 34.2994ZM52.1782 32.0674C53.0422 32.0668 53.732 31.7724 54.2476 31.184C54.7632 30.5837 55.0207 29.8275 55.0201 28.9155C55.0196 28.0035 54.7611 27.2537 54.2447 26.666C53.7283 26.0784 53.0381 25.7848 52.1741 25.7854C51.3221 25.7859 50.6323 26.0864 50.1047 26.6867C49.5771 27.275 49.3136 28.0192 49.3141 28.9192C49.3147 29.8312 49.5792 30.587 50.1076 31.1867C50.636 31.7744 51.3262 32.0679 52.1782 32.0674ZM65.9966 23.5625C67.4246 23.5616 68.4928 24.0049 69.2014 24.8924C69.922 25.78 70.2829 27.2137 70.2842 29.1937L70.2873 34.0177L68.0553 34.0192L68.0522 29.1952C68.0514 28.0552 67.8349 27.2153 67.4026 26.6756C66.9702 26.1359 66.286 25.8663 65.35 25.8669C64.402 25.8675 63.6523 26.192 63.1007 26.8403C62.5491 27.4767 62.2737 28.3949 62.2744 29.5949L62.2773 34.0229L59.9733 34.0244L59.9667 23.8364L62.2707 23.8349L61.7689 27.1652L62.1109 27.165C62.2543 26.2049 62.4938 25.4667 62.8295 24.9505C63.1651 24.4223 63.5849 24.062 64.0888 23.8697C64.6046 23.6654 65.2406 23.563 65.9966 23.5625ZM74.2304 22.9092C73.8584 22.9094 73.5464 22.7896 73.2942 22.5498C73.0421 22.298 72.9159 21.992 72.9156 21.632C72.9154 21.272 73.0412 20.966 73.293 20.7138C73.5449 20.4616 73.8568 20.3354 74.2288 20.3352C74.5768 20.335 74.8709 20.4608 75.111 20.7126C75.3632 20.9645 75.4894 21.2704 75.4896 21.6304C75.4899 21.9904 75.3641 22.2965 75.1122 22.5486C74.8724 22.7888 74.5784 22.909 74.2304 22.9092ZM73.097 23.8279L75.347 23.8265L75.3536 34.0145C75.3422 35.0465 75.2347 35.7966 75.031 36.2647C74.8393 36.7448 74.3956 37.0871 73.6997 37.2915C73.0158 37.508 71.8999 37.6167 70.3519 37.6177L70.3504 35.3677C71.0944 35.3672 71.6464 35.3369 72.0064 35.2766C72.3784 35.2284 72.6543 35.1082 72.8342 34.9161C73.014 34.736 73.1038 34.4359 73.1036 34.0159L73.097 23.8279ZM83.3034 34.2794C82.3554 34.28 81.4913 34.0405 80.711 33.561C79.9307 33.0815 79.3122 32.4279 78.8557 31.6002C78.4112 30.7725 78.1886 29.8667 78.188 28.8827C78.1873 27.9107 78.4088 27.0165 78.8522 26.2002C79.3077 25.3839 79.9253 24.7355 80.705 24.255C81.4847 23.7745 82.3485 23.534 83.2965 23.5334C84.2445 23.5328 85.1087 23.7722 85.889 24.2517C86.6693 24.7312 87.2817 25.3788 87.7262 26.1945C88.1708 27.0102 88.3933 27.9041 88.394 28.8761C88.3946 29.8601 88.1732 30.7662 87.7297 31.5945C87.2862 32.4228 86.6747 33.0772 85.895 33.5577C85.1153 34.0382 84.2514 34.2788 83.3034 34.2794ZM83.302 32.0474C84.166 32.0468 84.8558 31.7524 85.3714 31.164C85.887 30.5637 86.1445 29.8075 86.144 28.8955C86.1434 27.9835 85.8849 27.2337 85.3685 26.646C84.8521 26.0584 84.162 25.7648 83.298 25.7654C82.446 25.7659 81.7561 26.0664 81.2285 26.6667C80.7009 27.255 80.4374 27.9992 80.438 28.8992C80.4385 29.8112 80.703 30.567 81.2314 31.1667C81.7598 31.7544 82.45 32.0479 83.302 32.0474ZM101.405 23.8097L101.411 33.9977L99.1071 33.9992L99.609 30.6689L99.267 30.6691C99.1236 31.6292 98.8841 32.3734 98.5484 32.9016C98.2127 33.4178 97.787 33.7781 97.2711 33.9824C96.7672 34.1747 96.1373 34.2711 95.3813 34.2716C93.9533 34.2725 92.879 33.8292 92.1584 32.9417C91.4499 32.0541 91.0949 30.6204 91.0937 28.6404L91.0906 23.8164L93.3226 23.8149L93.3257 28.6389C93.3264 29.7789 93.5429 30.6188 93.9753 31.1585C94.4076 31.6982 95.0918 31.9678 96.0278 31.9672C96.9758 31.9666 97.7256 31.6481 98.2772 31.0117C98.8288 30.3634 99.1042 29.4392 99.1034 28.2392L99.1006 23.8112L101.405 23.8097ZM107.143 27.1361C107.286 26.236 107.525 25.5458 107.861 25.0656C108.197 24.5854 108.629 24.2551 109.157 24.0748C109.696 23.8944 110.392 23.804 111.244 23.8034L111.246 26.3054C110.886 26.2336 110.55 26.1979 110.238 26.1981C109.29 26.1987 108.558 26.4991 108.042 27.0995C107.539 27.6878 107.287 28.51 107.288 29.566L107.291 33.994L105.005 33.9954L104.998 23.7894L107.284 23.788L106.783 27.1363L107.143 27.1361Z" fill="#E36A46"/>
</svg>
