<svg width="109" height="55" viewBox="0 0 109 55" fill="none" xmlns="http://www.w3.org/2000/svg">
<rect x="0.5" y="0.515625" width="107.014" height="53.0296" rx="26.5148" stroke="#E36A46"/>
<path d="M31.0044 22.8509L42.3444 22.8436L42.3457 24.8596L40.6897 24.8607L40.6956 34.0407L38.1756 34.0423L38.1725 29.3443L35.5085 29.346L35.5088 29.742C35.5095 30.804 35.0598 31.2903 34.2498 31.2908C33.0618 31.2916 31.5668 29.6905 31.566 28.5025C31.5656 27.8005 31.8713 27.3323 32.9693 27.3316L38.1713 27.3283L38.1697 24.8623L31.0057 24.8669L31.0044 22.8509ZM53.3119 24.8525L53.3178 34.0325L50.8158 34.0341L50.8133 30.1461L47.5193 30.1483L47.5195 30.4183C47.5201 31.4263 47.0344 31.8586 46.2604 31.8591C45.0544 31.8599 43.5594 30.2768 43.5586 29.1608C43.5583 28.6208 43.828 28.1346 44.908 28.1339L44.998 28.1339L44.9959 24.8579L42.9799 24.8592L42.9786 22.8432L54.9666 22.8355L54.9679 24.8515L53.3119 24.8525ZM50.8099 24.8541L47.5159 24.8563L47.518 28.1323L50.812 28.1301L50.8099 24.8541ZM60.6142 34.4419C58.633 32.4811 57.354 30.9159 56.7593 29.8363C56.3628 29.1706 56.2185 28.6487 56.2182 28.1807C56.2177 27.4247 56.6674 26.9024 57.5674 26.9018C58.1434 26.9014 58.6116 27.1531 59.0438 27.5309C59.3855 27.1346 59.5292 26.6485 59.5288 26.0365C59.5286 25.6045 59.4563 25.1906 59.3121 24.8487L55.6221 24.8511L55.6208 22.8351L65.0708 22.829L65.0721 24.845L61.8141 24.8471C61.9583 25.279 62.0306 25.7289 62.031 26.3049C62.0315 27.0249 61.8338 27.6011 61.5102 28.0873C62.1223 28.2669 62.6983 28.3385 63.3643 28.3381C64.0663 28.3376 64.7143 28.2832 65.4162 28.1748L65.5074 30.1007C64.8956 30.2991 64.2836 30.3535 63.5636 30.354C62.4656 30.3547 61.2414 30.1034 60.1071 29.4922C59.8911 29.6363 59.6392 29.7625 59.3693 29.8707C60.1979 30.8421 61.3146 31.8854 62.4673 32.9287L60.6142 34.4419ZM73.8898 24.8393L73.8957 34.0193L71.3757 34.0209L71.3724 28.7829L69.0864 28.7844C67.8984 28.7852 67.2686 29.2176 67.2692 30.1536C67.2698 31.0536 67.9183 31.8632 69.1431 32.9964L67.29 34.4376C65.687 32.8726 64.7501 31.5412 64.749 29.8672C64.7477 27.7612 66.1691 26.7703 68.7431 26.7686L71.3711 26.7669L71.3698 24.8409L64.1158 24.8456L64.1145 22.8296L75.5445 22.8223L75.5458 24.8383L73.8898 24.8393ZM72.3607 22.9503C71.5311 20.4488 71.1528 19.9451 70.1268 19.9457C69.6948 19.946 69.2089 20.0543 68.795 20.2166L68.1637 18.255C68.8115 18.0026 69.5315 17.8941 70.2335 17.8937C72.4475 17.8922 73.2761 18.9357 74.5207 22.9489L72.3607 22.9503Z" fill="#E36A46"/>
</svg>
