<svg width="109" height="55" viewBox="0 0 109 55" fill="none" xmlns="http://www.w3.org/2000/svg">
<rect x="0.5" y="0.5" width="107.014" height="53.0296" rx="26.5148" stroke="#FDCF04"/>
<path d="M39.0823 19.6248L41.3323 19.6233L41.3416 34.0233L39.0916 34.0248L39.0877 27.9408L32.1577 27.9452L32.1616 34.0292L29.9116 34.0307L29.9023 19.6307L32.1523 19.6292L32.1562 25.7132L39.0862 25.6908L39.0823 19.6248ZM48.7213 23.7226C50.4133 23.7215 51.6735 24.1167 52.502 24.9082C53.3305 25.6876 53.7453 26.8694 53.7463 28.4534L53.7499 34.0154L51.5359 34.0168L51.8937 30.5605L51.6237 30.5607C51.1933 33.033 49.8981 34.2698 47.7381 34.2712C46.5021 34.272 45.5779 34.0086 44.9655 33.481C44.3532 32.9534 44.0467 32.2036 44.0461 31.2316C44.0454 30.1876 44.4589 29.3713 45.2865 28.7828C46.1141 28.1943 47.308 27.8995 48.868 27.8985L51.496 27.8968C51.3756 27.2609 51.0873 26.7931 50.6311 26.4934C50.1869 26.1816 49.5508 26.026 48.7228 26.0266C48.1468 26.027 47.6608 26.1473 47.265 26.3875C46.8691 26.6158 46.4914 26.976 46.1317 27.4682L44.2949 26.2274C44.8704 25.3991 45.512 24.7746 46.2197 24.3542C46.9394 23.9337 47.7733 23.7232 48.7213 23.7226ZM48.0786 31.949C49.0866 31.9483 49.8604 31.7319 50.4001 31.2995C50.9399 30.8672 51.2815 30.2309 51.4249 29.3908L48.8689 29.3925C48.0049 29.393 47.369 29.5075 46.9611 29.7357C46.5533 29.952 46.3495 30.2881 46.3498 30.7441C46.35 31.1041 46.4942 31.398 46.7824 31.6258C47.0705 31.8416 47.5026 31.9494 48.0786 31.949ZM57.1554 19.6132L59.4054 19.6117L59.4147 34.0117L57.1647 34.0132L57.1554 19.6132ZM62.6433 19.6096L64.8933 19.6082L64.9026 34.0082L62.6526 34.0096L62.6433 19.6096ZM72.7077 34.2732C71.7597 34.2738 70.8956 34.0343 70.1153 33.5548C69.3349 33.0753 68.7165 32.4217 68.26 31.594C67.8155 30.7663 67.5929 29.8605 67.5922 28.8765C67.5916 27.9045 67.8131 27.0103 68.2565 26.194C68.712 25.3777 69.3296 24.7293 70.1093 24.2488C70.889 23.7683 71.7528 23.5278 72.7008 23.5272C73.6488 23.5266 74.513 23.766 75.2933 24.2455C76.0736 24.725 76.686 25.3726 77.1305 26.1883C77.5751 27.004 77.7976 27.8979 77.7982 28.8699C77.7989 29.8539 77.5775 30.76 77.134 31.5883C76.6905 32.4166 76.0789 33.071 75.2993 33.5515C74.5196 34.032 73.6557 34.2726 72.7077 34.2732ZM72.7063 32.0412C73.5703 32.0406 74.2601 31.7462 74.7757 31.1578C75.2913 30.5575 75.5488 29.8013 75.5483 28.8893C75.5477 27.9773 75.2892 27.2275 74.7728 26.6398C74.2564 26.0522 73.5662 25.7586 72.7022 25.7592C71.8502 25.7597 71.1604 26.0602 70.6328 26.6605C70.1052 27.2488 69.8417 27.993 69.8423 28.893C69.8428 29.805 70.1073 30.5608 70.6357 31.1605C71.1641 31.7482 71.8543 32.0417 72.7063 32.0412Z" fill="#FDCF04"/>
</svg>
