<svg width="157" height="55" viewBox="0 0 157 55" fill="none" xmlns="http://www.w3.org/2000/svg">
<rect x="0.5" y="0.5" width="155.014" height="53.0604" rx="26.5302" stroke="#337EB5"/>
<path d="M34.9092 20.9881C36.2413 21.1312 37.9153 21.2022 39.8233 21.2009C41.5873 21.1998 43.6572 21.0905 45.0251 20.9456L45.0267 23.3396C43.7668 23.4484 41.5528 23.5578 39.8248 23.5589C37.9528 23.5601 36.3868 23.4711 34.9107 23.3641L34.9092 20.9881ZM36.4261 28.6011C36.2645 29.2492 36.1208 29.8253 36.1212 30.4373C36.122 31.5713 37.2385 32.4166 39.8305 32.4149C42.2425 32.4134 44.5463 32.1419 46.148 31.6909L46.1677 34.2289C44.5839 34.5899 42.4241 34.8253 39.9041 34.8269C35.8001 34.8295 33.7112 33.4629 33.7096 30.9789C33.7089 29.9529 33.9424 29.0707 34.0679 28.3866L36.4261 28.6011ZM60.289 20.6838C60.0911 20.9179 59.9113 21.224 59.7135 21.5301C58.8143 22.8087 57.5558 25.1135 56.6749 26.7161C57.3406 26.3197 58.0425 26.1572 58.7265 26.1568C60.0765 26.1559 60.887 27.0014 60.96 28.5133C60.9965 29.3053 60.9614 30.7453 61.0519 31.5013C61.1244 32.2032 61.6106 32.4909 62.2046 32.4906C63.7706 32.4895 64.7413 30.4549 65.2438 28.2226L67.2068 29.8053C66.2548 32.9019 64.6002 34.955 61.8282 34.9568C59.8302 34.9581 58.9114 33.7527 58.8205 32.4567C58.7659 31.4848 58.765 30.0268 58.7105 29.2888C58.6561 28.6588 58.3139 28.281 57.6659 28.2815C56.4419 28.2823 55.4167 29.5429 54.7876 31.0013C54.3023 32.0456 53.6916 34.062 53.4222 35.0162L50.8836 34.1538C52.1953 30.553 55.8806 23.2066 56.8515 21.478C57.0672 21.0098 57.4088 20.4156 57.7323 19.6594L60.289 20.6838ZM76.8495 21.4471C79.0637 21.7517 82.6636 21.6594 84.5895 21.4242L84.591 23.7462C82.3951 23.9636 79.1191 23.9657 76.869 23.7511L76.8495 21.4471ZM78.2944 29.1322C78.1508 29.7443 78.0791 30.1764 78.0794 30.6444C78.0799 31.4544 78.7822 31.9399 80.6182 31.9387C82.2202 31.9377 83.5521 31.7928 85.1179 31.4498L85.1735 33.8798C84.0036 34.1145 82.5457 34.2415 80.5117 34.2428C77.4157 34.2448 75.921 33.1297 75.9198 31.2937C75.9193 30.5737 76.0269 29.8717 76.2423 28.9535L78.2944 29.1322ZM74.0767 20.2429C73.9509 20.621 73.7175 21.5391 73.6457 21.8632C73.3945 23.0514 72.7668 26.6518 72.768 28.4518C72.7682 28.8118 72.7865 29.2618 72.8407 29.6217C73.1103 29.0095 73.3979 28.3974 73.6675 27.7852L74.7841 28.6665C74.2631 30.1788 73.6703 32.1232 73.4909 33.0773C73.4371 33.3473 73.3834 33.7434 73.3835 33.9234C73.4016 34.1214 73.4018 34.4274 73.42 34.6793L71.3501 34.8067C70.9893 33.5829 70.6459 31.3871 70.6443 28.9391C70.6425 26.2211 71.1806 23.1968 71.3777 21.7927C71.4494 21.3066 71.5389 20.6225 71.5566 20.0465L74.0767 20.2429ZM95.8383 19.6709C95.6588 20.3191 95.5512 20.9311 95.4075 21.5072C95.1205 22.9474 94.5822 25.5937 94.0432 27.2681C95.5007 26.4752 96.9045 26.1503 98.5245 26.1492C101.423 26.1474 103.367 27.6761 103.369 29.9981C103.372 34.0301 99.4665 35.5086 93.6341 34.8824L93.0026 32.5608C96.963 33.1882 100.941 32.7177 100.939 30.0537C100.938 28.9917 100.002 28.0743 98.2377 28.0754C96.1677 28.0767 94.3322 28.8339 93.2711 30.2026C93.0733 30.4547 92.9294 30.6708 92.7676 30.9769L90.6431 30.2403C91.9734 27.6114 92.9786 23.2368 93.2114 21.3826C93.301 20.6266 93.3187 20.1586 93.2823 19.5646L95.8383 19.6709ZM89.5577 21.781C90.7278 21.9782 92.1679 22.1213 93.2839 22.1206C95.5879 22.1191 99.0077 21.8469 101.959 21.215L102.015 23.375C99.729 23.7544 95.9132 24.1889 93.3032 24.1906C91.9352 24.1914 90.6392 24.1203 89.5771 24.013L89.5577 21.781ZM113.624 22.9535C114.669 23.0608 115.695 23.1142 116.793 23.1135C118.989 23.1121 121.238 22.9306 123.11 22.5334L123.112 24.7654C121.222 25.0546 118.954 25.2001 116.794 25.2195C115.732 25.2202 114.706 25.1848 113.644 25.1135L113.624 22.9535ZM120.481 19.9251C120.427 20.2671 120.391 20.6992 120.373 21.0772C120.338 21.6712 120.302 22.9132 120.303 24.2092C120.305 27.5212 120.595 29.861 120.596 31.571C120.597 33.461 119.662 34.8296 117.07 34.8313C114.568 34.8329 113.019 33.8079 113.018 31.9179C113.017 30.0819 114.564 28.8209 117.03 28.8193C120.414 28.8171 122.593 30.5077 123.998 31.8028L122.775 33.6936C120.704 31.769 118.885 30.5641 116.851 30.5654C115.825 30.5661 115.124 30.9805 115.124 31.6645C115.125 32.4025 115.845 32.7261 116.817 32.7255C117.915 32.7248 118.292 32.1485 118.292 31.0865C118.291 29.8445 118.055 26.8207 118.053 24.2287C118.052 22.8607 118.034 21.6547 118.015 21.1147C118.015 20.8267 117.961 20.2687 117.907 19.9268L120.481 19.9251ZM111.697 20.1107C111.553 20.4708 111.337 21.407 111.266 21.731C110.996 22.9372 110.405 26.8976 110.406 28.6976C110.406 29.0396 110.425 29.5076 110.479 29.8675C110.73 29.2374 111.036 28.6252 111.288 28.013L112.404 28.8943C111.901 30.3886 111.308 32.207 111.111 33.1971C111.057 33.4492 111.003 33.8452 111.022 34.0252C111.022 34.2232 111.022 34.5292 111.04 34.7812L109.006 34.9265C108.645 33.6847 108.284 31.6149 108.282 29.1849C108.281 26.4669 108.819 23.0646 109.034 21.6785C109.105 21.1744 109.177 20.4724 109.195 19.9144L111.697 20.1107Z" fill="#337EB5"/>
</svg>
