<svg width="120" height="55" viewBox="0 0 120 55" fill="none" xmlns="http://www.w3.org/2000/svg">
<rect x="0.5" y="0.5" width="118.014" height="53.0366" rx="26.5183" stroke="#FCC764"/>
<path d="M34.0505 29.2272C34.5071 30.1509 35.0475 30.8106 35.6717 31.2062C36.296 31.5898 37.0341 31.7813 37.8861 31.7807C38.8101 31.7801 39.53 31.6357 40.0458 31.3473C40.5617 31.059 40.8194 30.6149 40.819 30.0149C40.8186 29.3909 40.5423 28.887 39.99 28.5034C39.4498 28.1197 38.5976 27.8143 37.4334 27.587L36.4613 27.3897C35.1531 27.1385 34.1328 26.6471 33.4003 25.9156C32.6679 25.1841 32.3013 24.2483 32.3005 23.1083C32.3001 22.3883 32.5097 21.7702 32.9294 21.2539C33.349 20.7256 33.9188 20.3233 34.6386 20.0468C35.3584 19.7704 36.1623 19.6318 37.0503 19.6313C38.4663 19.6304 39.5945 19.9236 40.4349 20.5111C41.2873 21.0985 41.9838 22.0161 42.5246 23.2638L40.6172 24.147C40.2207 23.3552 39.7283 22.7736 39.1401 22.4019C38.5518 22.0183 37.8197 21.8268 36.9437 21.8273C36.2117 21.8278 35.6298 21.9542 35.198 22.2065C34.7661 22.4587 34.5504 22.8669 34.5508 23.4309C34.5511 23.9469 34.7673 24.3487 35.1995 24.6365C35.6317 24.9122 36.3039 25.1518 37.216 25.3552L38.0621 25.5526C39.8624 25.9835 41.1468 26.5766 41.9153 27.3321C42.6957 28.0876 43.0804 29.0534 43.0691 30.2294C43.0579 31.4774 42.5725 32.4257 41.613 33.0743C40.6534 33.711 39.3756 34.0298 37.7796 34.0308C36.3396 34.0317 35.1694 33.7205 34.269 33.0971C33.3686 32.4736 32.5819 31.5141 31.9091 30.2186L34.0505 29.2272ZM50.44 23.7267C52.132 23.7256 53.3923 24.1208 54.2208 24.9122C55.0493 25.6917 55.4641 26.8734 55.4651 28.4574L55.4686 34.0194L53.2546 34.0209L53.6124 30.5646L53.3424 30.5648C52.912 33.0371 51.6168 34.2739 49.4568 34.2753C48.2208 34.2761 47.2966 34.0127 46.6843 33.4851C46.072 32.9575 45.7655 32.2077 45.7648 31.2357C45.7642 30.1917 46.1777 29.3754 47.0053 28.7869C47.8329 28.1983 49.0267 27.9036 50.5867 27.9026L53.2147 27.9009C53.0943 27.265 52.806 26.7971 52.3498 26.4974C51.9056 26.1857 51.2695 26.0301 50.4415 26.0307C49.8655 26.031 49.3796 26.1514 48.9837 26.3916C48.5879 26.6199 48.2101 26.9801 47.8504 27.4723L46.0136 26.2315C46.5891 25.4031 47.2307 24.7787 47.9384 24.3583C48.6582 23.9378 49.492 23.7273 50.44 23.7267ZM49.7973 31.9531C50.8053 31.9524 51.5792 31.7359 52.1189 31.3036C52.6586 30.8712 53.0002 30.235 53.1437 29.3949L50.5877 29.3966C49.7237 29.3971 49.0877 29.5115 48.6799 29.7398C48.272 29.9561 48.0682 30.2922 48.0685 30.7482C48.0688 31.1082 48.213 31.4021 48.5011 31.6299C48.7892 31.8457 49.2213 31.9535 49.7973 31.9531ZM58.8742 19.6172L61.1242 19.6158L61.1334 34.0158L58.8834 34.0172L58.8742 19.6172ZM71.5419 23.8211L73.8819 23.8196L71.4404 34.0092L66.4724 34.0124L63.8199 23.8261L66.1599 23.8246L68.4515 32.6071L69.4415 32.6065L71.5419 23.8211ZM78.3479 29.6847C78.4804 30.4047 78.8048 30.9804 79.3211 31.4121C79.8493 31.8318 80.5095 32.0414 81.3015 32.0408C82.5735 32.04 83.5811 31.5474 84.3245 30.5629L85.8552 31.6059C85.3877 32.4942 84.7522 33.1606 83.9485 33.6051C83.1447 34.0497 82.2629 34.2722 81.3029 34.2728C80.3549 34.2735 79.4787 34.04 78.6744 33.5725C77.8701 33.093 77.2277 32.4515 76.7472 31.6478C76.2787 30.8321 76.0441 29.9442 76.0435 28.9842C76.0429 28.0242 76.2763 27.1421 76.7438 26.3378C77.2233 25.5335 77.8649 24.897 78.6686 24.4285C79.4723 23.948 80.3481 23.7075 81.2961 23.7068C82.3041 23.7062 83.1923 23.9576 83.9606 24.4611C84.7289 24.9646 85.3174 25.6723 85.726 26.584C86.1345 27.4837 86.3212 28.5156 86.2859 29.6796L78.3479 29.6847ZM81.2975 25.9028C80.5535 25.9033 79.9177 26.1197 79.3899 26.5521C78.8742 26.9724 78.5325 27.5126 78.365 28.1727L84.125 28.169C83.9805 27.4611 83.6442 26.9093 83.1159 26.5137C82.5996 26.106 81.9935 25.9024 81.2975 25.9028Z" fill="#FCC764"/>
</svg>
