<svg width="201" height="55" viewBox="0 0 201 55" fill="none" xmlns="http://www.w3.org/2000/svg">
<rect x="0.5" y="0.5" width="199.014" height="53.0887" rx="26.5443" stroke="#337EB5"/>
<path d="M34.0505 29.2819C34.5071 30.2056 35.0475 30.8652 35.6717 31.2608C36.296 31.6444 37.0341 31.836 37.8861 31.8354C38.8101 31.8348 39.53 31.6904 40.0458 31.402C40.5617 31.1137 40.8194 30.6695 40.819 30.0695C40.8186 29.4455 40.5423 28.9417 39.99 28.5581C39.4498 28.1744 38.5976 27.869 37.4334 27.6417L36.4613 27.4443C35.1531 27.1932 34.1328 26.7018 33.4003 25.9703C32.6679 25.2388 32.3013 24.303 32.3005 23.163C32.3001 22.443 32.5097 21.8249 32.9294 21.3086C33.349 20.7803 33.9188 20.378 34.6386 20.1015C35.3584 19.825 36.1623 19.6865 37.0503 19.686C38.4663 19.685 39.5945 19.9783 40.4349 20.5658C41.2873 21.1532 41.9838 22.0708 42.5246 23.3184L40.6172 24.2017C40.2207 23.4099 39.7283 22.8282 39.1401 22.4566C38.5518 22.073 37.8197 21.8815 36.9437 21.882C36.2117 21.8825 35.6298 22.0089 35.198 22.2611C34.7661 22.5134 34.5504 22.9216 34.5508 23.4856C34.5511 24.0016 34.7673 24.4034 35.1995 24.6911C35.6317 24.9669 36.3039 25.2064 37.216 25.4099L38.0621 25.6073C39.8624 26.0382 41.1468 26.6313 41.9153 27.3868C42.6957 28.1423 43.0804 29.1081 43.0691 30.2841C43.0579 31.5321 42.5725 32.4804 41.613 33.129C40.6534 33.7656 39.3756 34.0845 37.7796 34.0855C36.3396 34.0864 35.1694 33.7752 34.269 33.1517C33.3686 32.5283 32.5819 31.5688 31.9091 30.2733L34.0505 29.2819ZM48.0679 29.7589C48.2003 30.4788 48.5247 31.0546 49.041 31.4863C49.5692 31.9059 50.2294 32.1155 51.0214 32.115C52.2934 32.1142 53.3011 31.6215 54.0444 30.637L55.5751 31.6801C55.1077 32.5684 54.4721 33.2348 53.6684 33.6793C52.8647 34.1238 51.9828 34.3464 51.0228 34.347C50.0748 34.3476 49.1987 34.1142 48.3944 33.6467C47.5901 33.1672 46.9476 32.5256 46.4671 31.7219C45.9986 30.9062 45.764 30.0184 45.7634 29.0584C45.7628 28.0984 45.9962 27.2162 46.4637 26.4119C46.9432 25.6076 47.5848 24.9712 48.3885 24.5027C49.1922 24.0222 50.068 23.7816 51.016 23.781C52.024 23.7803 52.9122 24.0318 53.6805 24.5353C54.4488 25.0388 55.0373 25.7464 55.4459 26.6581C55.8545 27.5579 56.0411 28.5898 56.0059 29.7538L48.0679 29.7589ZM51.0174 25.977C50.2734 25.9775 49.6376 26.1939 49.1099 26.6262C48.5941 27.0465 48.2525 27.5868 48.0849 28.2469L53.8449 28.2432C53.7004 27.5353 53.3641 26.9835 52.8358 26.5878C52.3196 26.1801 51.7134 25.9765 51.0174 25.977ZM58.716 19.672L60.966 19.6706L60.9752 34.0706L58.7252 34.072L58.716 19.672ZM69.0623 23.7694C70.7543 23.7683 72.0145 24.1635 72.8431 24.955C73.6716 25.7344 74.0863 26.9162 74.0873 28.5002L74.0909 34.0622L71.8769 34.0636L72.2347 30.6074L71.9647 30.6075C71.5343 33.0798 70.2391 34.3166 68.0791 34.318C66.8431 34.3188 65.9189 34.0554 65.3066 33.5278C64.6942 33.0002 64.3877 32.2504 64.3871 31.2784C64.3864 30.2344 64.7999 29.4181 65.6275 28.8296C66.4552 28.2411 67.649 27.9463 69.209 27.9453L71.837 27.9436C71.7166 27.3077 71.4283 26.8399 70.9721 26.5402C70.5279 26.2285 69.8918 26.0729 69.0638 26.0734C68.4878 26.0738 68.0018 26.1941 67.606 26.4343C67.2102 26.6626 66.8324 27.0228 66.4727 27.5151L64.6359 26.2742C65.2114 25.4459 65.853 24.8215 66.5607 24.401C67.2804 23.9805 68.1143 23.77 69.0623 23.7694ZM68.4196 31.9958C69.4276 31.9952 70.2014 31.7787 70.7412 31.3463C71.2809 30.914 71.6225 30.2777 71.7659 29.4377L69.2099 29.4393C68.3459 29.4399 67.71 29.5543 67.3022 29.7825C66.8943 29.9988 66.6905 30.3349 66.6908 30.7909C66.691 31.1509 66.8352 31.4448 67.1234 31.6726C67.4115 31.8885 67.8436 31.9962 68.4196 31.9958ZM79.0824 23.853L78.5806 27.2013L79.0126 27.201C79.2877 25.8808 79.7851 24.9505 80.5048 24.41C81.2245 23.8696 82.0403 23.5991 82.9523 23.5985C83.9963 23.5978 84.8125 23.9093 85.4009 24.5329C86.0013 25.1445 86.2778 26.0323 86.2306 27.1964L86.6626 27.1961C86.9377 25.8759 87.4351 24.9456 88.1548 24.4051C88.8745 23.8647 89.6903 23.5941 90.6023 23.5936C91.8383 23.5928 92.7745 24.0122 93.4111 24.8517C94.0596 25.6913 94.3846 27.1491 94.3859 29.2251L94.389 34.0491L92.157 34.0506L92.1539 29.2266C92.1525 27.0066 91.3478 25.8971 89.7398 25.8981C88.7918 25.8987 88.054 26.2232 87.5264 26.8715C86.9988 27.5079 86.7354 28.426 86.7362 29.626L86.739 34.054L84.507 34.0555L84.5039 29.2315C84.5025 27.0115 83.6978 25.902 82.0898 25.903C81.1418 25.9036 80.404 26.2281 79.8764 26.8764C79.3488 27.5128 79.0854 28.431 79.0862 29.631L79.089 34.059L76.785 34.0604L76.7784 23.8544L79.0824 23.853ZM101.765 23.7484C103.457 23.7473 104.717 24.1425 105.545 24.934C106.374 25.7134 106.789 26.8952 106.79 28.4792L106.793 34.0412L104.579 34.0426L104.937 30.5863L104.667 30.5865C104.237 33.0588 102.941 34.2956 100.781 34.297C99.5454 34.2978 98.6212 34.0344 98.0089 33.5068C97.3966 32.9792 97.0901 32.2294 97.0895 31.2574C97.0888 30.2134 97.5023 29.3971 98.3299 28.8086C99.1575 28.2201 100.351 27.9253 101.911 27.9243L104.539 27.9226C104.419 27.2867 104.131 26.8189 103.674 26.5192C103.23 26.2074 102.594 26.0518 101.766 26.0524C101.19 26.0527 100.704 26.1731 100.308 26.4133C99.9125 26.6416 99.5347 27.0018 99.175 27.494L97.3382 26.2532C97.9137 25.4249 98.5553 24.8004 99.263 24.38C99.9828 23.9595 100.817 23.749 101.765 23.7484ZM101.122 31.9748C102.13 31.9741 102.904 31.7577 103.444 31.3253C103.983 30.893 104.325 30.2567 104.468 29.4166L101.912 29.4183C101.048 29.4188 100.412 29.5333 100.004 29.7615C99.5966 29.9778 99.3929 30.3139 99.3931 30.7699C99.3934 31.1299 99.5376 31.4238 99.8257 31.6516C100.114 31.8674 100.546 31.9752 101.122 31.9748ZM112.993 28.7632C112.994 29.8312 113.048 30.5511 113.157 30.9231C113.265 31.295 113.517 31.5348 113.913 31.6426C114.321 31.7383 115.107 31.7858 116.271 31.7851L116.273 34.0351C114.497 34.0362 113.231 33.893 112.474 33.6055C111.718 33.318 111.238 32.8383 111.033 32.1664C110.841 31.4826 110.744 30.3486 110.743 28.7646L110.742 26.1546L108.762 26.1559L108.76 23.8519L110.74 23.8506L110.738 20.3586L112.988 20.3572L112.99 23.8492L116.248 23.8471L116.25 26.1511L112.992 26.1532L112.993 28.7632ZM126.651 34.0284L124.365 34.0299L124.356 19.6299L130.08 19.6262C131.928 19.625 133.476 19.96 134.725 20.6312C135.985 21.3024 136.616 22.526 136.617 24.302C136.618 25.874 135.977 26.9964 134.693 27.6692C133.41 28.342 131.874 28.679 130.086 28.6802L126.648 28.6824L126.651 34.0284ZM130.085 26.4842C131.405 26.4833 132.395 26.3207 133.054 25.9963C133.714 25.6599 134.044 25.0716 134.043 24.2316C134.043 23.4036 133.706 22.8099 133.034 22.4503C132.362 22.0907 131.378 21.9114 130.082 21.9122L126.644 21.9144L126.647 26.4864L130.085 26.4842ZM143.105 23.7218C144.797 23.7207 146.057 24.1159 146.886 24.9074C147.714 25.6869 148.129 26.8686 148.13 28.4526L148.133 34.0146L145.919 34.016L146.277 30.5598L146.007 30.56C145.577 33.0322 144.282 34.2691 142.122 34.2705C140.886 34.2712 139.961 34.0078 139.349 33.4802C138.737 32.9526 138.43 32.2028 138.43 31.2308C138.429 30.1868 138.842 29.3706 139.67 28.782C140.498 28.1935 141.692 27.8987 143.252 27.8977L145.88 27.896C145.759 27.2601 145.471 26.7923 145.015 26.4926C144.57 26.1809 143.934 26.0253 143.106 26.0258C142.53 26.0262 142.044 26.1465 141.649 26.3868C141.253 26.615 140.875 26.9753 140.515 27.4675L138.678 26.2267C139.254 25.3983 139.896 24.7739 140.603 24.3534C141.323 23.933 142.157 23.7224 143.105 23.7218ZM142.462 31.9482C143.47 31.9476 144.244 31.7311 144.784 31.2987C145.323 30.8664 145.665 30.2302 145.809 29.3901L143.253 29.3917C142.389 29.3923 141.753 29.5067 141.345 29.735C140.937 29.9512 140.733 30.2873 140.733 30.7433C140.734 31.1033 140.878 31.3973 141.166 31.6251C141.454 31.8409 141.886 31.9486 142.462 31.9482ZM156.302 37.6093C155.018 37.6102 153.962 37.4128 153.134 37.0174C152.317 36.6339 151.621 36.0284 151.044 35.2007L152.772 34.0656C153.192 34.6533 153.672 35.061 154.212 35.2887C154.753 35.5163 155.449 35.6299 156.301 35.6293C157.381 35.6287 158.232 35.3041 158.856 34.6557C159.48 34.0193 159.833 33.2091 159.916 32.225L160.059 30.6589L159.753 30.6591C159.502 31.9433 159.029 32.8436 158.333 33.36C157.649 33.8645 156.81 34.117 155.814 34.1177C155.034 34.1182 154.301 33.8906 153.617 33.4351C152.933 32.9795 152.381 32.3559 151.96 31.5641C151.551 30.7724 151.347 29.8965 151.346 28.9365C151.346 27.9885 151.537 27.1184 151.921 26.3262C152.316 25.5219 152.856 24.8916 153.539 24.4351C154.223 23.9667 154.979 23.7322 155.807 23.7317C156.779 23.731 157.607 24.0185 158.292 24.5941C158.976 25.1696 159.444 26.0153 159.697 27.1312L160.057 27.1309L159.875 23.819L162.179 23.8176L162.183 30.7116C162.185 33.0516 161.658 34.7859 160.603 35.9146C159.548 37.0433 158.114 37.6082 156.302 37.6093ZM156.622 31.9931C157.126 31.9928 157.606 31.8665 158.062 31.6142C158.53 31.3499 158.902 30.9897 159.177 30.5335C159.465 30.0653 159.609 29.5312 159.608 28.9312C159.608 28.0672 159.319 27.3834 158.743 26.8798C158.179 26.3641 157.47 26.1066 156.618 26.1071C156.042 26.1075 155.521 26.2338 155.053 26.4861C154.597 26.7264 154.237 27.0627 153.973 27.4948C153.71 27.927 153.578 28.4071 153.578 28.9351C153.579 29.5351 153.705 30.069 153.957 30.5368C154.222 30.9927 154.582 31.3524 155.038 31.6162C155.506 31.8679 156.034 31.9935 156.622 31.9931ZM166.745 22.8966C166.373 22.8969 166.061 22.7771 165.809 22.5372C165.557 22.2854 165.431 21.9795 165.431 21.6195C165.43 21.2595 165.556 20.9534 165.808 20.7012C166.06 20.4491 166.372 20.3229 166.744 20.3226C167.092 20.3224 167.386 20.4482 167.626 20.7001C167.878 20.9519 168.004 21.2578 168.005 21.6178C168.005 21.9778 167.879 22.2839 167.627 22.5361C167.387 22.7762 167.093 22.8964 166.745 22.8966ZM165.612 23.8154L167.862 23.8139L167.869 34.0019L165.619 34.0034L165.612 23.8154Z" fill="#337EB5"/>
</svg>
