<svg width="410" height="411" viewBox="0 0 410 411" fill="none" xmlns="http://www.w3.org/2000/svg">
<path d="M260.655 149.571C297.17 186.087 325.853 225.249 342.624 259.63C362.832 301.056 365.698 336.085 351.136 350.646C335.961 365.821 298.797 362.824 254.74 340.695C221.432 323.966 184.182 295.37 149.519 260.707C113.98 225.168 84.3892 187.454 67.7391 153.512C46.6706 110.56 44.6949 73.9737 59.5793 59.0893C74.0221 44.6457 108.071 46.7794 149.047 66.5698C183.669 83.2927 223.783 112.699 260.655 149.571Z" stroke="#E3E3E3" stroke-width="10" stroke-miterlimit="10"/>
<path d="M184.711 129.25C234.585 115.859 282.838 110.578 321.002 113.224C366.983 116.414 398.759 131.431 404.099 151.319C409.665 172.045 388.501 202.743 347.323 229.854C316.19 250.35 272.81 268.332 225.466 281.045C176.925 294.077 129.471 300.869 91.7498 298.336C44.016 295.13 11.3368 278.564 5.87804 258.233C0.582551 238.506 19.4392 210.077 57.0542 184.468C88.8356 162.829 134.349 142.771 184.711 129.25Z" stroke="#E3E3E3" stroke-width="10" stroke-miterlimit="10"/>
<path d="M129.155 184.89C142.463 134.994 161.985 90.5499 183.338 58.8092C209.065 20.5654 237.945 0.535054 257.843 5.84204C278.578 11.3714 294.604 45.0372 297.526 94.2522C299.736 131.462 293.651 178.025 281.019 225.391C268.068 273.953 250.255 318.458 229.22 349.873C202.604 389.627 171.931 409.665 151.592 404.241C131.855 398.978 116.643 368.443 113.241 323.064C110.367 284.723 115.719 235.275 129.155 184.89Z" stroke="#E3E3E3" stroke-width="10" stroke-miterlimit="10"/>
<path d="M205.463 242.897C204.682 242.897 204.021 242.626 203.48 242.085L175.359 214.956C175.059 214.716 174.645 214.325 174.119 213.784C173.593 213.244 172.76 212.26 171.618 210.832C170.477 209.406 169.455 207.94 168.554 206.439C167.653 204.937 166.849 203.119 166.143 200.986C165.437 198.853 165.084 196.78 165.084 194.767C165.084 188.158 166.992 182.99 170.807 179.264C174.623 175.539 179.896 173.676 186.625 173.676C188.488 173.676 190.388 173.999 192.326 174.645C194.263 175.291 196.066 176.162 197.734 177.259C199.401 178.356 200.836 179.384 202.037 180.346C203.239 181.307 204.381 182.329 205.462 183.41C206.544 182.329 207.685 181.307 208.887 180.346C210.089 179.384 211.523 178.356 213.191 177.259C214.859 176.162 216.66 175.291 218.599 174.645C220.537 173.999 222.437 173.676 224.3 173.676C231.03 173.676 236.302 175.539 240.118 179.264C243.934 182.989 245.842 188.158 245.842 194.767C245.842 201.407 242.402 208.167 235.522 215.047L207.446 242.086C206.905 242.627 206.244 242.897 205.463 242.897Z" fill="#E3E3E3"/>
</svg>
