<svg width="137" height="137" viewBox="0 0 137 137" fill="none" xmlns="http://www.w3.org/2000/svg">
<path d="M86.8656 50.7064C98.7914 62.6322 108.159 75.4223 113.636 86.651C120.236 100.181 121.172 111.621 116.416 116.376C111.46 121.332 99.3228 120.354 84.9341 113.127C74.0557 107.663 61.89 98.3234 50.5694 87.0026C38.9626 75.3958 29.2984 63.0786 23.8606 51.9934C16.9797 37.9655 16.3345 26.0167 21.1956 21.1555C25.9126 16.4384 37.0326 17.1352 50.4152 23.5986C61.7228 29.0602 74.8236 38.6641 86.8656 50.7064Z" stroke="#CECECE" stroke-width="5" stroke-miterlimit="10"/>
<path d="M62.0627 44.0671C78.3514 39.6939 94.1105 37.969 106.575 38.8333C121.592 39.875 131.97 44.7794 133.714 51.2749C135.531 58.0438 128.619 68.0696 115.171 76.9239C105.003 83.6177 90.8353 89.4907 75.3729 93.6425C59.5199 97.8987 44.0218 100.117 31.7021 99.2896C16.1125 98.2427 5.43969 92.8322 3.65688 86.1925C1.9274 79.7496 8.08586 70.4649 20.3707 62.101C30.7503 55.0339 45.6148 48.483 62.0627 44.0671Z" stroke="#CECECE" stroke-width="5" stroke-miterlimit="10"/>
<path d="M43.9183 62.2394C48.2644 45.9435 54.6402 31.4284 61.6139 21.0621C70.0162 8.57187 79.4483 2.03006 85.9468 3.76329C92.7187 5.56913 97.953 16.5642 98.9072 32.6375C99.6291 44.7899 97.6415 59.9972 93.516 75.4665C89.2863 91.3268 83.4686 105.862 76.5988 116.122C67.9061 129.105 57.8886 135.65 51.2458 133.878C44.7999 132.159 39.8318 122.187 38.7208 107.366C37.7821 94.8441 39.5301 78.6946 43.9183 62.2394Z" stroke="#CECECE" stroke-width="5" stroke-miterlimit="10"/>
<path d="M68.842 78.0724L76.9061 70.3058C78.8894 68.3174 79.5284 66.7137 79.5284 65.4665C79.5284 63.8096 79.0668 62.8307 78.4127 62.1923L78.4125 62.1921C77.7475 61.5429 76.7173 61.0781 74.9928 61.0781C74.6784 61.0781 74.3245 61.1321 73.9217 61.2663L68.842 78.0724ZM68.842 78.0724L60.7449 70.2607L60.6606 70.1793L60.5808 70.1157C60.5762 70.1115 60.5664 70.1027 60.5512 70.0883C60.5163 70.0553 60.4656 70.0055 60.3972 69.9351L60.396 69.9338C60.3181 69.8538 60.1133 69.6188 59.7403 69.1522L59.7391 69.1506C59.4335 68.7689 59.1645 68.3825 58.9305 67.9923C58.753 67.6964 58.5606 67.2799 58.3727 66.7125L68.842 78.0724ZM64.9428 61.8371L64.9425 61.837C64.584 61.6011 64.1918 61.4105 63.7592 61.2661C63.3575 61.1321 63.0037 61.0781 62.6884 61.0781C60.9644 61.0781 59.9342 61.5427 59.2691 62.1919L64.9428 61.8371ZM64.9428 61.8371C65.4408 62.1647 65.8433 62.455 66.1601 62.7085C66.4816 62.9658 66.7857 63.2378 67.0722 63.5245L68.84 65.2935M64.9428 61.8371L68.84 65.2935M68.84 65.2935L70.6084 63.5252M68.84 65.2935L70.6084 63.5252M70.6084 63.5252C70.8963 63.2372 71.2 62.9653 71.5206 62.709C71.8384 62.4548 72.2408 62.1643 72.7378 61.8377L72.7389 61.837M70.6084 63.5252L72.7389 61.837M72.7389 61.837C73.0977 61.6009 73.4893 61.4105 73.9214 61.2664L72.7389 61.837ZM58.1533 65.4665C58.1533 65.8273 58.2162 66.239 58.3724 66.7117L58.1533 65.4665ZM58.1533 65.4665C58.1533 63.8099 58.6148 62.831 59.269 62.1921L58.1533 65.4665Z" fill="#CECECE" stroke="#CECECE" stroke-width="5"/>
</svg>
