<svg width="65" height="65" viewBox="0 0 65 65" fill="none" xmlns="http://www.w3.org/2000/svg">
<path d="M40.6441 23.4185C46.3066 29.0809 50.7543 35.1538 53.355 40.4852C56.4887 46.9092 56.9331 52.3411 54.675 54.599C52.3219 56.9522 46.5588 56.4875 39.727 53.056C34.5619 50.4617 28.7855 46.0274 23.4104 40.6522C17.8994 35.1412 13.3108 29.2929 10.7289 24.0296C7.46182 17.369 7.15544 11.6957 9.46355 9.38755C11.7032 7.1478 16.983 7.47867 23.3372 10.5475C28.7061 13.1408 34.9265 17.7007 40.6441 23.4185Z" stroke="#E36A46" stroke-width="2" stroke-miterlimit="10"/>
<path d="M28.8676 20.2673C36.6016 18.1909 44.0841 17.3719 50.0022 17.7823C57.1324 18.2769 62.0599 20.6056 62.888 23.6897C63.751 26.9036 60.4692 31.6639 54.0838 35.8679C49.2559 39.0462 42.529 41.8348 35.1874 43.8061C27.6603 45.8269 20.3017 46.8803 14.4522 46.4874C7.05017 45.9903 1.98265 43.4213 1.13616 40.2687C0.31499 37.2096 3.23907 32.8012 9.072 28.83C14.0003 25.4744 21.058 22.3641 28.8676 20.2673Z" stroke="#E36A46" stroke-width="2" stroke-miterlimit="10"/>
<path d="M20.2527 28.8954C22.3162 21.158 25.3435 14.2661 28.6547 9.34414C32.6441 3.41372 37.1225 0.307625 40.2081 1.13057C43.4234 1.988 45.9087 7.20854 46.3618 14.8403C46.7045 20.6103 45.7608 27.8308 43.802 35.1758C41.7937 42.7063 39.0314 49.6076 35.7696 54.4792C31.6422 60.6438 26.8858 63.7511 23.7318 62.91C20.6713 62.0938 18.3124 57.3588 17.7849 50.3219C17.3392 44.3763 18.1691 36.7085 20.2527 28.8954Z" stroke="#E36A46" stroke-width="2" stroke-miterlimit="10"/>
<path d="M32.0857 37.8903C31.9646 37.8903 31.8621 37.8483 31.7783 37.7645L27.4176 33.5575C27.371 33.5203 27.3069 33.4597 27.2253 33.3758C27.1438 33.292 27.0145 33.1395 26.8375 32.918C26.6605 32.6968 26.502 32.4696 26.3623 32.2367C26.2226 32.0038 26.0979 31.7219 25.9884 31.3912C25.879 31.0604 25.8242 30.739 25.8242 30.4269C25.8242 29.4019 26.12 28.6006 26.7117 28.0228C27.3034 27.4452 28.121 27.1562 29.1645 27.1562C29.4534 27.1562 29.7482 27.2063 30.0486 27.3065C30.349 27.4067 30.6286 27.5418 30.8872 27.7119C31.1457 27.8819 31.3683 28.0415 31.5546 28.1906C31.7409 28.3397 31.918 28.498 32.0856 28.6658C32.2534 28.498 32.4303 28.3397 32.6167 28.1906C32.8031 28.0415 33.0254 27.8819 33.2841 27.7119C33.5427 27.5418 33.8221 27.4067 34.1228 27.3065C34.4232 27.2064 34.718 27.1562 35.0067 27.1562C36.0503 27.1562 36.8679 27.4452 37.4597 28.0228C38.0515 28.6005 38.3473 29.4019 38.3473 30.4269C38.3473 31.4565 37.8138 32.5047 36.7469 33.5716L32.3933 37.7646C32.3094 37.8484 32.2069 37.8903 32.0857 37.8903Z" fill="#E36A46"/>
</svg>
