<?xml version="1.0" encoding="UTF-8"?>
<svg id="Layer_1" xmlns="http://www.w3.org/2000/svg" version="1.1" viewBox="0 0 137 137">
  <!-- Generator: Adobe Illustrator 29.2.1, SVG Export Plug-In . SVG Version: 2.1.0 Build 116)  -->
  <defs>
    <style>
      .st0 {
        fill: #cecece;
      }

      .st1 {
        fill: none;
        stroke: #cecece;
        stroke-miterlimit: 10;
        stroke-width: 5px;
      }
    </style>
  </defs>
  <path class="st1" d="M86.9,50.7c11.9,11.9,21.3,24.7,26.8,35.9,6.6,13.5,7.5,25,2.8,29.7s-17.1,4-31.5-3.2c-10.9-5.5-23-14.8-34.4-26.1-11.6-11.6-21.3-23.9-26.7-35-6.9-14-7.5-26-2.7-30.8s15.8-4,29.2,2.4c11.3,5.5,24.4,15.1,36.5,27.1Z"/>
  <path class="st1" d="M62.1,44.1c16.3-4.4,32-6.1,44.5-5.2,15,1,25.4,5.9,27.1,12.4,1.8,6.8-5.1,16.8-18.5,25.6-10.2,6.7-24.3,12.6-39.8,16.7-15.9,4.3-31.4,6.5-43.7,5.6-15.6-1-26.3-6.5-28-13.1-1.7-6.4,4.4-15.7,16.7-24.1,10.4-7.1,25.2-13.6,41.7-18h0Z"/>
  <path class="st1" d="M43.9,62.2c4.3-16.3,10.7-30.8,17.7-41.2,8.4-12.5,17.8-19,24.3-17.3,6.8,1.8,12,12.8,13,28.9.7,12.2-1.3,27.4-5.4,42.8-4.2,15.9-10,30.4-16.9,40.7-8.7,13-18.7,19.5-25.4,17.8-6.4-1.7-11.4-11.7-12.5-26.5-.9-12.5.8-28.7,5.2-45.1h0Z"/>
  <path class="st0" d="M72.7,61.8l1.2-.6c-.4,0-.8.3-1.2.6ZM71.5,62.7c-.3.3-.6.5-.9.8l2.1-1.7c-.5.3-.9.6-1.2.9ZM67.1,63.4h0c-.3-.2-.6-.5-.9-.7s-.7-.6-1.2-.9l3.9,3.4-1.8-1.8ZM58.5,66.9c0,0,0-.1,0-.2h-.2l.3.4c0,0,0-.1,0-.2Z"/>
  <path class="st0" d="M79.5,65.4h0c0,1.3-.6,3-2.6,4.9l-8.1,7.8-10.3-11.2c0,0,0-.1,0-.2,0,0,0-.1,0-.2-.1-.3-.1-.7-.1-1,0-1.6.3-2.6,1-3.2h0c.7-.8,1.7-1.2,3.4-1.2s.7,0,1.1.2c.4.1.8.3,1.2.6l3.9,3.4h.1c0,0,1.7-1.8,1.7-1.8l2.1-1.7,1.2-.6c.4-.1.8-.2,1.1-.2,1.7,0,2.8.5,3.4,1.1.7.6,1.1,1.6,1.1,3.3Z"/>
  <path class="st0" d="M58.5,67.1l10.2,11-8.1-7.8h0c0-.2,0-.3,0-.3,0,0-.3-.3-.7-.8-.3-.4-.6-.8-.8-1.2-.2-.2-.3-.5-.5-.9Z"/>
  <path class="st0" d="M58.5,66.9l1.8-.2-2-.2c0,0,0,.1,0,.2,0,0,0,.1,0,.2Z"/>
</svg>