<svg width="54" height="33" viewBox="0 0 54 33" fill="none" xmlns="http://www.w3.org/2000/svg">
<g clip-path="url(#clip0_2114_390)">
<mask id="mask0_2114_390" style="mask-type:luminance" maskUnits="userSpaceOnUse" x="0" y="0" width="54" height="33">
<path d="M54 0H0V32.4H54V0Z" fill="white"/>
</mask>
<g mask="url(#mask0_2114_390)">
<path fill-rule="evenodd" clip-rule="evenodd" d="M27 0C19.8 0 15.3 3.6 13.5 10.8C16.2 7.2 19.35 5.85 22.95 6.75C25 7.26 26.47 8.75 28.1 10.4C30.75 13.09 33.81 16.2 40.5 16.2C47.7 16.2 52.2 12.6 54 5.4C51.3 9 48.15 10.35 44.55 9.45C42.5 8.94 41.03 7.45 39.4 5.8C36.75 3.11 33.69 0 27 0ZM13.5 16.2C6.3 16.2 1.8 19.8 0 27C2.7 23.4 5.85 22.05 9.45 22.95C11.5 23.46 12.97 24.95 14.6 26.6C17.25 29.29 20.31 32.4 27 32.4C34.2 32.4 38.7 28.8 40.5 21.6C37.8 25.2 34.65 26.55 31.05 25.65C29 25.14 27.53 23.65 25.9 22C23.25 19.31 20.19 16.2 13.5 16.2Z" fill="#337EB5"/>
</g>
</g>
<defs>
<clipPath id="clip0_2114_390">
<rect width="54" height="32.4" fill="white"/>
</clipPath>
</defs>
</svg>
