<svg width="145" height="55" viewBox="0 0 145 55" fill="none" xmlns="http://www.w3.org/2000/svg">
<rect x="0.5" y="0.5" width="143.014" height="53.0296" rx="26.5148" fill="#1E1E1E"/>
<rect x="0.5" y="0.5" width="143.014" height="53.0296" rx="26.5148" stroke="#919191"/>
<path d="M31.9023 19.6424L37.8963 19.6385C39.3723 19.6376 40.5065 19.9369 41.2989 20.5364C42.0913 21.1358 42.4878 21.9516 42.4885 22.9836C42.4888 23.5236 42.3931 23.9977 42.2014 24.4058C42.0216 24.8139 41.7339 25.1501 41.338 25.4143C40.9542 25.6786 40.4683 25.8469 39.8803 25.9193C40.7564 25.9787 41.5185 26.1342 42.1666 26.3858C42.8148 26.6374 43.3431 27.027 43.7514 27.5548C44.1597 28.0825 44.3642 28.7604 44.3647 29.5884C44.3657 31.1124 43.7544 32.2348 42.5309 32.9556C41.3193 33.6763 39.7776 34.0373 37.9056 34.0385L31.9116 34.0424L31.9023 19.6424ZM37.9041 31.7345C38.9241 31.7339 39.716 31.6374 40.2799 31.445C40.8558 31.2406 41.2516 30.9704 41.4674 30.6342C41.6832 30.2861 41.7909 29.872 41.7906 29.392C41.7903 28.948 41.6761 28.5701 41.4479 28.2583C41.2316 27.9344 40.8355 27.6767 40.2594 27.485C39.6832 27.2934 38.8972 27.1979 37.9012 27.1985L34.2112 27.2009L34.2141 31.7369L37.9041 31.7345ZM37.8997 24.9485C38.6797 24.948 39.2496 24.8097 39.6095 24.5334C39.9813 24.2572 40.167 23.8731 40.1667 23.3811C40.1664 22.9371 39.9862 22.5892 39.626 22.3374C39.2659 22.0857 38.6898 21.96 37.8978 21.9605L34.2078 21.9629L34.2097 24.9509L37.8997 24.9485ZM52.1796 34.2994C51.2316 34.3 50.3614 34.0605 49.5691 33.581C48.7888 33.0895 48.1764 32.4359 47.7319 31.6202C47.2873 30.7925 47.0648 29.8867 47.0641 28.9027C47.0635 27.9427 47.2849 27.0545 47.7284 26.2382C48.1719 25.4099 48.7835 24.7555 49.5632 24.275C50.3548 23.7945 51.2247 23.554 52.1727 23.5534C53.1327 23.5528 53.9968 23.7922 54.7652 24.2717C55.5455 24.7512 56.1579 25.4048 56.6024 26.2325C57.0469 27.0482 57.2695 27.9361 57.2701 28.8961C57.2708 29.8801 57.0493 30.7862 56.6059 31.6145C56.1624 32.4308 55.5508 33.0852 54.7711 33.5777C54.0034 34.0582 53.1396 34.2988 52.1796 34.2994ZM52.1782 32.0674C52.7542 32.067 53.2521 31.9347 53.6719 31.6704C54.1037 31.3941 54.4335 31.0159 54.6612 30.5358C54.9009 30.0556 55.0205 29.5155 55.0201 28.9155C55.0198 28.3155 54.8994 27.7816 54.6591 27.3138C54.4308 26.8339 54.1006 26.4621 53.6684 26.1984C53.2362 25.9227 52.7381 25.785 52.1741 25.7854C51.6101 25.7857 51.1122 25.924 50.6804 26.2003C50.2486 26.4646 49.9128 26.8368 49.6731 27.317C49.4334 27.7851 49.3138 28.3192 49.3141 28.9192C49.3145 29.5192 49.4349 30.0591 49.6752 30.539C49.9155 31.0188 50.2517 31.3966 50.6839 31.6723C51.1161 31.936 51.6142 32.0677 52.1782 32.0674ZM61.9684 29.5951C61.9674 27.9511 62.1166 26.691 62.416 25.8148C62.7274 24.9386 63.1591 24.3443 63.7109 24.032C64.2747 23.7196 65.0366 23.5631 65.9966 23.5625C66.9446 23.5619 67.7307 23.7534 68.3549 24.137C68.9912 24.5086 69.4716 25.1143 69.7961 25.954C70.1206 26.7818 70.2833 27.8617 70.2842 29.1937L68.0522 29.1952C68.0514 28.0432 67.8349 27.2033 67.4026 26.6756C66.9702 26.1359 66.286 25.8663 65.35 25.8669C64.726 25.8673 64.1801 26.0117 63.7123 26.3C63.2565 26.5762 62.9028 26.9965 62.6511 27.5606C62.3995 28.1128 62.2739 28.7909 62.2744 29.5949L61.9684 29.5951ZM59.9667 23.8364L62.2707 23.8349L61.7689 27.1652L62.2729 27.1649L62.2773 34.0229L59.9733 34.0244L59.9667 23.8364ZM68.0522 29.1952L70.2842 29.1937L70.2873 34.0177L68.0553 34.0192L68.0522 29.1952ZM70.3504 35.3677C71.1064 35.3672 71.6644 35.3368 72.0244 35.2766C72.3844 35.2284 72.6543 35.1142 72.8342 34.9341C73.0141 34.754 73.1039 34.4479 73.1036 34.0159L75.3536 34.0145C75.3422 35.0465 75.2347 35.7966 75.031 36.2647C74.8393 36.7448 74.3956 37.0871 73.6997 37.2915C73.0158 37.508 71.8999 37.6167 70.3519 37.6177L70.3504 35.3677ZM73.097 23.8279L75.347 23.8265L75.3536 34.0145L73.1036 34.0159L73.097 23.8279ZM74.2304 22.9092C73.8584 22.9094 73.5464 22.7896 73.2942 22.5498C73.0421 22.298 72.9159 21.992 72.9156 21.632C72.9154 21.272 73.0412 20.966 73.293 20.7138C73.5449 20.4616 73.8568 20.3354 74.2288 20.3352C74.5768 20.335 74.8709 20.4608 75.111 20.7126C75.3632 20.9645 75.4894 21.2704 75.4896 21.6304C75.4899 21.9904 75.3641 22.2965 75.1122 22.5486C74.8724 22.7888 74.5784 22.909 74.2304 22.9092ZM83.321 34.2794C82.373 34.28 81.5028 34.0405 80.7105 33.561C79.9302 33.0695 79.3178 32.4159 78.8733 31.6002C78.4287 30.7725 78.2062 29.8666 78.2055 28.8826C78.2049 27.9226 78.4263 27.0345 78.8698 26.2182C79.3133 25.3899 79.9249 24.7355 80.7046 24.255C81.4962 23.7745 82.3661 23.534 83.3141 23.5334C84.2741 23.5327 85.1382 23.7722 85.9066 24.2517C86.6869 24.7312 87.2993 25.3848 87.7438 26.2125C88.1883 27.0282 88.4109 27.9161 88.4115 28.8761C88.4122 29.8601 88.1907 30.7662 87.7473 31.5945C87.3038 32.4108 86.6922 33.0652 85.9125 33.5577C85.1448 34.0382 84.281 34.2787 83.321 34.2794ZM83.3196 32.0474C83.8956 32.047 84.3935 31.9147 84.8133 31.6504C85.2451 31.3741 85.5749 30.9959 85.8026 30.5158C86.0423 30.0356 86.1619 29.4955 86.1615 28.8955C86.1612 28.2955 86.0408 27.7616 85.8005 27.2938C85.5722 26.8139 85.242 26.4421 84.8098 26.1784C84.3776 25.9027 83.8795 25.765 83.3155 25.7654C82.7515 25.7657 82.2536 25.904 81.8218 26.1803C81.39 26.4446 81.0542 26.8168 80.8145 27.297C80.5748 27.7651 80.4552 28.2992 80.4555 28.8992C80.4559 29.4992 80.5763 30.0391 80.8166 30.519C81.0569 30.9988 81.3931 31.3766 81.8253 31.6523C82.2575 31.916 82.7556 32.0477 83.3196 32.0474ZM99.427 28.239C99.428 29.883 99.2729 31.1431 98.9614 32.0193C98.662 32.8955 98.2304 33.4898 97.6666 33.8021C97.1148 34.1145 96.3589 34.271 95.3989 34.2716C94.4509 34.2722 93.6587 34.0867 93.0225 33.7151C92.3983 33.3315 91.9239 32.7258 91.5993 31.898C91.2748 31.0582 91.1121 29.9724 91.1112 28.6404L93.3432 28.6389C93.344 29.7909 93.5605 30.6368 93.9929 31.1765C94.4252 31.7042 95.1094 31.9678 96.0454 31.9672C96.6694 31.9668 97.2093 31.8284 97.6651 31.5521C98.1329 31.2638 98.4927 30.8436 98.7443 30.2914C98.9959 29.7273 99.1215 29.0432 99.121 28.2392L99.427 28.239ZM101.429 33.9977L99.1247 33.9992L99.6265 30.6689L99.1225 30.6692L99.1181 23.8112L101.422 23.8097L101.429 33.9977ZM93.3432 28.6389L91.1112 28.6404L91.1081 23.8164L93.3401 23.8149L93.3432 28.6389ZM107.018 29.5661C107.017 27.9701 107.16 26.758 107.447 25.9299C107.747 25.1017 108.184 24.5434 108.76 24.255C109.348 23.9546 110.182 23.8041 111.262 23.8034L111.264 26.3054C109.991 26.0782 109.014 26.2588 108.33 26.8473C107.646 27.4237 107.305 28.3299 107.306 29.5659L107.018 29.5661ZM105.016 23.7894L107.302 23.7879L106.8 27.1363L107.304 27.1359L107.308 33.9939L105.022 33.9954L105.016 23.7894Z" fill="#919191"/>
</svg>
