<svg width="109" height="55" viewBox="0 0 109 55" fill="none" xmlns="http://www.w3.org/2000/svg">
<rect x="0.5" y="0.492188" width="107.014" height="53.0296" rx="26.5148" fill="#1E1E1E"/>
<rect x="0.5" y="0.492188" width="107.014" height="53.0296" rx="26.5148" stroke="#FCC764"/>
<path d="M32.1523 19.6214L32.1616 34.0214L29.9116 34.0229L29.9023 19.6229L32.1523 19.6214ZM41.3323 19.6155L41.3416 34.0155L39.0916 34.017L39.0823 19.617L41.3323 19.6155ZM39.0877 27.933L32.1577 27.9374L32.1562 25.7054L39.0862 25.683L39.0877 27.933ZM51.8937 30.5527L51.4977 30.553L51.5685 28.7889C51.5801 28.1529 51.4898 27.631 51.2975 27.2231C51.1053 26.8152 50.7931 26.5154 50.361 26.3237C49.9408 26.12 49.3948 26.0183 48.7228 26.0188C48.1348 26.0191 47.6428 26.1395 47.247 26.3797C46.8631 26.608 46.4914 26.9682 46.1317 27.4604L44.2949 26.2196C44.8823 25.3792 45.5239 24.7548 46.2197 24.3464C46.9274 23.9259 47.7613 23.7154 48.7213 23.7148C49.8613 23.714 50.7974 23.8874 51.5296 24.235C52.2738 24.5825 52.8262 25.1101 53.1866 25.8179C53.5591 26.5137 53.7456 27.3895 53.7463 28.4455L53.7499 34.0075L51.5359 34.009L51.8937 30.5527ZM47.7381 34.2634C46.5021 34.2642 45.5779 34.0008 44.9655 33.4732C44.3532 32.9456 44.0467 32.1958 44.0461 31.2238C44.0457 30.5278 44.2253 29.9337 44.585 29.4414C44.9566 28.9372 45.4964 28.5528 46.2042 28.2884C46.924 28.0239 47.812 27.8914 48.868 27.8907L51.712 27.8888L51.7129 29.3828L48.8689 29.3847C48.0049 29.3852 47.369 29.4996 46.9611 29.7279C46.5533 29.9442 46.3495 30.2803 46.3498 30.7363C46.35 31.0963 46.4942 31.3902 46.7824 31.618C47.0705 31.8338 47.5026 31.9416 48.0786 31.9412C48.8946 31.9407 49.5485 31.8082 50.0403 31.5439C50.5441 31.2676 50.9099 30.8714 51.1375 30.3552C51.3652 29.8391 51.4908 29.203 51.5143 28.447L51.7843 28.4468C51.7856 30.4268 51.4385 31.891 50.7431 32.8395C50.0597 33.7879 49.0581 34.2626 47.7381 34.2634ZM57.173 19.6053L59.423 19.6039L59.4323 34.0039L57.1823 34.0053L57.173 19.6053ZM62.6609 19.6018L64.9109 19.6004L64.9202 34.0004L62.6702 34.0018L62.6609 19.6018ZM72.7253 34.2654C71.7773 34.266 70.9071 34.0265 70.1148 33.547C69.3345 33.0555 68.7221 32.4019 68.2776 31.5862C67.833 30.7585 67.6105 29.8526 67.6098 28.8686C67.6092 27.9086 67.8306 27.0205 68.2741 26.2042C68.7176 25.3759 69.3292 24.7215 70.1089 24.241C70.9005 23.7605 71.7704 23.52 72.7184 23.5194C73.6784 23.5187 74.5425 23.7582 75.3109 24.2377C76.0912 24.7172 76.7036 25.3708 77.1481 26.1985C77.5926 27.0142 77.8152 27.9021 77.8158 28.8621C77.8165 29.8461 77.595 30.7522 77.1516 31.5805C76.7081 32.3968 76.0965 33.0512 75.3168 33.5437C74.5491 34.0242 73.6853 34.2647 72.7253 34.2654ZM72.7239 32.0334C73.2999 32.033 73.7978 31.9007 74.2176 31.6364C74.6494 31.3601 74.9792 30.9819 75.2069 30.5018C75.4466 30.0216 75.5662 29.4815 75.5658 28.8815C75.5655 28.2815 75.4451 27.7476 75.2048 27.2798C74.9765 26.7999 74.6463 26.4281 74.2141 26.1644C73.7819 25.8887 73.2838 25.751 72.7198 25.7514C72.1558 25.7517 71.6579 25.89 71.2261 26.1663C70.7943 26.4306 70.4585 26.8028 70.2188 27.283C69.9791 27.7511 69.8595 28.2852 69.8598 28.8852C69.8602 29.4852 69.9806 30.0251 70.2209 30.505C70.4612 30.9848 70.7974 31.3626 71.2296 31.6383C71.6618 31.902 72.1599 32.0337 72.7239 32.0334Z" fill="#FCC764"/>
</svg>
