<svg width="120" height="55" viewBox="0 0 120 55" fill="none" xmlns="http://www.w3.org/2000/svg">
<rect x="0.5" y="0.5" width="118.014" height="53.0366" rx="26.5183" fill="#1E1E1E"/>
<rect x="0.5" y="0.5" width="118.014" height="53.0366" rx="26.5183" stroke="#FCC764"/>
<path d="M34.0505 29.2272C34.5071 30.1509 35.0475 30.8106 35.6717 31.2062C36.296 31.5898 37.0341 31.7813 37.8861 31.7807C38.8101 31.7801 39.53 31.6357 40.0458 31.3473C40.5617 31.059 40.8194 30.6149 40.819 30.0149C40.8186 29.3909 40.5483 28.887 40.008 28.5034C39.4678 28.1197 38.6096 27.8143 37.4334 27.587L36.4613 27.3897C35.1291 27.1265 34.1028 26.6352 33.3823 25.9156C32.6619 25.1841 32.3013 24.2483 32.3005 23.1083C32.3001 22.3883 32.5097 21.7702 32.9294 21.2539C33.349 20.7256 33.9188 20.3233 34.6386 20.0468C35.3584 19.7704 36.1623 19.6318 37.0503 19.6313C38.4783 19.6304 39.6125 19.9236 40.4529 20.5111C41.2932 21.0865 41.9838 22.0041 42.5246 23.2638L40.6172 24.147C40.2327 23.3672 39.7403 22.7855 39.1401 22.4019C38.5518 22.0183 37.8197 21.8268 36.9437 21.8273C36.1997 21.8278 35.6118 21.9542 35.18 22.2065C34.7601 22.4587 34.5504 22.8669 34.5508 23.4309C34.5511 23.9469 34.7613 24.3427 35.1815 24.6185C35.6137 24.8942 36.2919 25.1398 37.216 25.3552L38.0621 25.5526C39.2743 25.8398 40.2465 26.2052 40.9788 26.6487C41.7231 27.0803 42.2574 27.5899 42.5818 28.1777C42.9182 28.7655 43.0806 29.4494 43.0691 30.2294C43.0579 31.4774 42.5725 32.4257 41.613 33.0743C40.6654 33.711 39.3876 34.0298 37.7796 34.0308C36.3396 34.0317 35.1694 33.7205 34.269 33.0971C33.3686 32.4736 32.5819 31.5141 31.9091 30.2186L34.0505 29.2272ZM53.6124 30.5646L53.2164 30.5649L53.2873 28.8008C53.2989 28.1648 53.2085 27.6429 53.0163 27.235C52.824 26.8271 52.5118 26.5273 52.0797 26.3356C51.6596 26.1319 51.1135 26.0302 50.4415 26.0307C49.8535 26.031 49.3616 26.1514 48.9657 26.3916C48.5819 26.6199 48.2101 26.9801 47.8504 27.4723L46.0136 26.2315C46.6011 25.3911 47.2427 24.7667 47.9384 24.3583C48.6462 23.9378 49.48 23.7273 50.44 23.7267C51.58 23.7259 52.5161 23.8993 53.2484 24.2469C53.9926 24.5944 54.5449 25.122 54.9054 25.8298C55.2778 26.5256 55.4644 27.4014 55.4651 28.4574L55.4686 34.0194L53.2546 34.0209L53.6124 30.5646ZM49.4568 34.2753C48.2208 34.2761 47.2966 34.0127 46.6843 33.4851C46.072 32.9575 45.7655 32.2077 45.7648 31.2357C45.7644 30.5397 45.944 29.9456 46.3037 29.4533C46.6754 28.9491 47.2151 28.5647 47.923 28.3003C48.6428 28.0358 49.5307 27.9033 50.5867 27.9026L53.4307 27.9007L53.4317 29.3947L50.5877 29.3966C49.7237 29.3971 49.0877 29.5115 48.6799 29.7398C48.272 29.9561 48.0682 30.2922 48.0685 30.7482C48.0688 31.1082 48.213 31.4021 48.5011 31.6299C48.7892 31.8457 49.2213 31.9535 49.7973 31.9531C50.6133 31.9526 51.2672 31.8201 51.7591 31.5558C52.2629 31.2795 52.6286 30.8833 52.8563 30.3671C53.084 29.851 53.2096 29.2149 53.2331 28.4589L53.5031 28.4587C53.5043 30.4387 53.1573 31.9029 52.4619 32.8514C51.7785 33.7998 50.7768 34.2745 49.4568 34.2753ZM58.8918 19.6172L61.1418 19.6158L61.151 34.0158L58.901 34.0172L58.8918 19.6172ZM63.8374 23.8261L66.1774 23.8246L68.83 34.0109L66.49 34.0124L63.8374 23.8261ZM68.2351 32.6072L69.7111 32.6063L69.298 34.0106L68.65 34.011L68.2351 32.6072ZM71.5594 23.8211L73.8994 23.8196L71.458 34.0092L69.118 34.0107L71.5594 23.8211ZM85.8728 31.6059C85.3933 32.5062 84.7518 33.1786 83.9481 33.6231C83.1563 34.0557 82.2805 34.2722 81.3205 34.2728C80.3605 34.2734 79.4783 34.04 78.674 33.5725C77.8817 33.093 77.2453 32.4514 76.7648 31.6478C76.2963 30.8321 76.0617 29.9442 76.0611 28.9842C76.0605 28.0242 76.2939 27.1421 76.7614 26.3378C77.2409 25.5334 77.8824 24.897 78.6861 24.4285C79.4898 23.948 80.3657 23.7074 81.3137 23.7068C82.3097 23.7062 83.1918 23.9576 83.9602 24.4611C84.7285 24.9646 85.3169 25.6723 85.7255 26.584C86.1461 27.4837 86.3388 28.5156 86.3035 29.6796L84.1615 29.681C84.269 28.9009 84.2086 28.229 83.9802 27.6651C83.7519 27.0893 83.3976 26.6515 82.9174 26.3518C82.4492 26.0521 81.9151 25.9024 81.3151 25.9028C80.7151 25.9032 80.1812 26.0416 79.7134 26.3179C79.2575 26.5942 78.9038 26.9664 78.6521 27.4345C78.4124 27.9027 78.2927 28.4188 78.2931 28.9828C78.2934 29.5708 78.4138 30.0987 78.6541 30.5665C78.9064 31.0344 79.2606 31.4002 79.7168 31.6639C80.173 31.9156 80.707 32.0412 81.319 32.0408C81.943 32.0404 82.507 31.9201 83.0108 31.6797C83.5266 31.4394 83.9704 31.0671 84.3421 30.5629L85.8728 31.6059ZM85.4565 28.1682L85.4575 29.6802L78.1495 29.6849L78.1485 28.1729L85.4565 28.1682Z" fill="#FCC764"/>
</svg>
