<svg width="95" height="55" viewBox="0 0 95 55" fill="none" xmlns="http://www.w3.org/2000/svg">
<rect x="0.5" y="0.5" width="93.0141" height="53.0206" rx="26.5103" fill="#1E1E1E"/>
<rect x="0.5" y="0.5" width="93.0141" height="53.0206" rx="26.5103" stroke="#FCC764"/>
<path d="M34.1523 19.6175L34.1616 34.0175L31.9116 34.019L31.9023 19.619L34.1523 19.6175ZM43.3323 19.6116L43.3416 34.0116L41.0916 34.0131L41.0823 19.6131L43.3323 19.6116ZM41.0877 27.9291L34.1577 27.9335L34.1562 25.7015L41.0862 25.6791L41.0877 27.9291ZM55.8564 31.6096C55.3769 32.5099 54.7354 33.1823 53.9316 33.6268C53.1399 34.0593 52.2641 34.2759 51.3041 34.2765C50.3441 34.2771 49.4619 34.0437 48.6576 33.5762C47.8653 33.0967 47.2289 32.4551 46.7484 31.6514C46.2799 30.8357 46.0453 29.9479 46.0447 28.9879C46.044 28.0279 46.2775 27.1457 46.745 26.3414C47.2244 25.5371 47.866 24.9007 48.6697 24.4322C49.4734 23.9517 50.3493 23.7111 51.2973 23.7105C52.2933 23.7099 53.1754 23.9613 53.9438 24.4648C54.7121 24.9683 55.3005 25.6759 55.7091 26.5877C56.1297 27.4874 56.3224 28.5193 56.2871 29.6833L54.1451 29.6847C54.2526 28.9046 54.1922 28.2326 53.9638 27.6688C53.7355 27.0929 53.3812 26.6552 52.901 26.3555C52.4328 26.0558 51.8987 25.9061 51.2987 25.9065C50.6987 25.9069 50.1648 26.0452 49.697 26.3215C49.2411 26.5978 48.8874 26.97 48.6357 27.4382C48.396 27.9064 48.2763 28.4224 48.2767 28.9864C48.277 29.5744 48.3974 30.1024 48.6377 30.5702C48.89 31.038 49.2442 31.4038 49.7004 31.6675C50.1566 31.9192 50.6906 32.0449 51.3026 32.0445C51.9266 32.0441 52.4906 31.9237 52.9944 31.6834C53.5102 31.4431 53.954 31.0708 54.3257 30.5665L55.8564 31.6096ZM55.4401 28.1718L55.4411 29.6838L48.1331 29.6885L48.1321 28.1765L55.4401 28.1718ZM56.3723 35.3532C57.1283 35.3528 57.6863 35.3224 58.0463 35.2622C58.4062 35.2139 58.6762 35.0998 58.856 34.9196C59.0359 34.7395 59.1257 34.4335 59.1255 34.0015L61.3755 34C61.3641 35.032 61.2566 35.7821 61.0529 36.2502C60.8612 36.7304 60.4174 37.0726 59.7216 37.2771C59.0377 37.4935 57.9218 37.6022 56.3738 37.6032L56.3723 35.3532ZM59.1189 23.8135L61.3689 23.812L61.3755 34L59.1255 34.0015L59.1189 23.8135ZM60.2523 22.8947C59.8803 22.895 59.5682 22.7752 59.3161 22.5353C59.0639 22.2835 58.9377 21.9776 58.9375 21.6176C58.9373 21.2576 59.0631 20.9515 59.3149 20.6993C59.5667 20.4472 59.8787 20.321 60.2507 20.3207C60.5987 20.3205 60.8927 20.4463 61.1329 20.6982C61.3851 20.95 61.5113 21.2559 61.5115 21.6159C61.5117 21.9759 61.3859 22.282 61.1341 22.5342C60.8942 22.7743 60.6003 22.8945 60.2523 22.8947Z" fill="#FCC764"/>
</svg>
