<svg width="109" height="55" viewBox="0 0 109 55" fill="none" xmlns="http://www.w3.org/2000/svg">
<rect x="0.5" y="0.5" width="107.014" height="53.0296" rx="26.5148" fill="#1E1E1E"/>
<rect x="0.5" y="0.5" width="107.014" height="53.0296" rx="26.5148" stroke="#337EB5"/>
<path d="M29.5016 19.029L29.5119 35.029L27.0119 35.0306L27.0016 19.0306L29.5016 19.029ZM39.7016 19.0224L39.7119 35.0224L37.2119 35.0241L37.2016 19.0241L39.7016 19.0224ZM37.2075 28.2641L29.5075 28.269L29.5059 25.789L37.2059 25.7641L37.2075 28.2641ZM53.6172 32.3535C53.0845 33.3539 52.3717 34.101 51.4786 34.5949C50.5989 35.0755 49.6258 35.3161 48.5591 35.3168C47.4924 35.3174 46.5123 35.0581 45.6186 34.5387C44.7383 34.0059 44.0311 33.293 43.4972 32.4C42.9766 31.4937 42.716 30.5072 42.7153 29.4405C42.7146 28.3738 42.974 27.3937 43.4934 26.5C44.0262 25.6063 44.7391 24.8992 45.6321 24.3786C46.5251 23.8447 47.4982 23.5774 48.5516 23.5768C49.6582 23.5761 50.6384 23.8554 51.4921 24.4149C52.3458 24.9743 52.9996 25.7606 53.4536 26.7736C53.9209 27.7733 54.135 28.9198 54.0958 30.2132L51.7158 30.2147C51.8353 29.348 51.7681 28.6014 51.5144 27.9749C51.2606 27.335 50.867 26.8486 50.3334 26.5156C49.8132 26.1826 49.2198 26.0163 48.5531 26.0168C47.8865 26.0172 47.2932 26.1709 46.7734 26.4779C46.2669 26.7849 45.8739 27.1985 45.5942 27.7187C45.3279 28.2388 45.1949 28.8123 45.1953 29.4389C45.1957 30.0923 45.3294 30.6788 45.5964 31.1987C45.8768 31.7185 46.2704 32.1249 46.7772 32.4179C47.2841 32.6976 47.8775 32.8372 48.5575 32.8368C49.2508 32.8363 49.8774 32.7026 50.4372 32.4356C51.0104 32.1685 51.5035 31.7549 51.9164 31.1946L53.6172 32.3535ZM53.1547 28.5338L53.1558 30.2138L45.0358 30.219L45.0347 28.539L53.1547 28.5338ZM57.1071 19.0113L59.6071 19.0097L59.6173 35.0097L57.1173 35.0113L57.1071 19.0113ZM63.2047 19.0073L65.7047 19.0057L65.715 35.0057L63.215 35.0073L63.2047 19.0073ZM74.3874 35.3002C73.334 35.3008 72.3672 35.0348 71.4869 34.502C70.6198 33.9559 69.9394 33.2297 69.4455 32.3233C68.9515 31.4037 68.7042 30.3972 68.7035 29.3038C68.7028 28.2372 68.9489 27.2503 69.4416 26.3433C69.9344 25.423 70.6139 24.6959 71.4802 24.162C72.3599 23.6281 73.3264 23.3608 74.3797 23.3602C75.4464 23.3595 76.4065 23.6255 77.2602 24.1583C78.1272 24.6911 78.8077 25.4173 79.3016 26.337C79.7955 27.2434 80.0428 28.2299 80.0435 29.2965C80.0442 30.3899 79.7982 31.3967 79.3055 32.317C78.8127 33.224 78.1332 33.9511 77.2669 34.4983C76.4139 35.0322 75.454 35.2995 74.3874 35.3002ZM74.3858 32.8202C75.0258 32.8198 75.579 32.6727 76.0455 32.3791C76.5253 32.0721 76.8917 31.6519 77.1447 31.1184C77.411 30.5849 77.544 29.9848 77.5435 29.3181C77.5431 28.6515 77.4094 28.0582 77.1424 27.5384C76.8887 27.0052 76.5218 26.5921 76.0416 26.2991C75.5614 25.9927 75.008 25.8398 74.3813 25.8402C73.7546 25.8406 73.2014 25.9943 72.7216 26.3012C72.2418 26.5949 71.8687 27.0084 71.6024 27.542C71.3361 28.0621 71.2031 28.6555 71.2035 29.3222C71.204 29.9889 71.3377 30.5888 71.6047 31.122C71.8717 31.6551 72.2453 32.0749 72.7255 32.3812C73.2057 32.6743 73.7591 32.8206 74.3858 32.8202Z" fill="#337EB5"/>
</svg>
