<svg width="108" height="55" viewBox="0 0 108 55" fill="none" xmlns="http://www.w3.org/2000/svg">
<rect x="0.5" y="0.5" width="106.014" height="53.0289" rx="26.5145" fill="#1E1E1E"/>
<rect x="0.5" y="0.5" width="106.014" height="53.0289" rx="26.5145" stroke="#337EB5"/>
<path d="M34.1523 19.6253L34.1616 34.0253L31.9116 34.0268L31.9023 19.6268L34.1523 19.6253ZM43.3323 19.6194L43.3416 34.0194L41.0916 34.0209L41.0823 19.6209L43.3323 19.6194ZM41.0877 27.9369L34.1577 27.9413L34.1562 25.7093L41.0862 25.6869L41.0877 27.9369ZM51.1601 34.2844C50.2121 34.285 49.3419 34.0456 48.5496 33.5661C47.7693 33.0746 47.1569 32.421 46.7123 31.6053C46.2678 30.7775 46.0452 29.8717 46.0446 28.8877C46.044 27.9277 46.2654 27.0395 46.7089 26.2233C47.1524 25.395 47.7639 24.7406 48.5436 24.2601C49.3353 23.7796 50.2052 23.539 51.1532 23.5384C52.1132 23.5378 52.9773 23.7772 53.7456 24.2567C54.5259 24.7362 55.1384 25.3898 55.5829 26.2176C56.0274 27.0333 56.25 27.9211 56.2506 28.8811C56.2512 29.8651 56.0298 30.7713 55.5863 31.5996C55.1429 32.4158 54.5313 33.0702 53.7516 33.5627C52.9839 34.0432 52.1201 34.2838 51.1601 34.2844ZM51.1586 32.0524C51.7346 32.052 52.2325 31.9197 52.6524 31.6554C53.0842 31.3792 53.414 31.0009 53.6416 30.5208C53.8813 30.0406 54.001 29.5006 54.0006 28.9006C54.0002 28.3006 53.8799 27.7666 53.6396 27.2988C53.4113 26.8189 53.081 26.4472 52.6489 26.1834C52.2167 25.9077 51.7186 25.77 51.1546 25.7704C50.5906 25.7708 50.0927 25.9091 49.6609 26.1854C49.229 26.4496 48.8933 26.8219 48.6536 27.302C48.4139 27.7702 48.2942 28.3042 48.2946 28.9042C48.295 29.5042 48.4153 30.0442 48.6556 30.524C48.896 31.0039 49.2322 31.3816 49.6644 31.6574C50.0965 31.9211 50.5946 32.0528 51.1586 32.0524ZM58.9445 19.6094L61.1945 19.6079L61.2038 34.0079L58.9538 34.0094L58.9445 19.6094ZM72.4632 30.5447L72.0672 30.545L72.1381 28.7809C72.1497 28.1449 72.0593 27.623 71.8671 27.2151C71.6748 26.8072 71.3626 26.5074 70.9305 26.3157C70.5104 26.112 69.9643 26.0103 69.2923 26.0107C68.7043 26.0111 68.2124 26.1314 67.8165 26.3717C67.4327 26.5999 67.0609 26.9602 66.7012 27.4524L64.8644 26.2116C65.4519 25.3712 66.0935 24.7468 66.7892 24.3384C67.4969 23.9179 68.3308 23.7074 69.2908 23.7067C70.4308 23.706 71.3669 23.8794 72.0991 24.2269C72.8434 24.5745 73.3957 25.1021 73.7562 25.8099C74.1286 26.5056 74.3152 27.3815 74.3158 28.4375L74.3194 33.9995L72.1054 34.0009L72.4632 30.5447ZM68.3076 34.2554C67.0716 34.2562 66.1474 33.9928 65.5351 33.4652C64.9227 32.9376 64.6163 32.1878 64.6156 31.2158C64.6152 30.5198 64.7948 29.9256 65.1545 29.4334C65.5262 28.9292 66.0659 28.5448 66.7737 28.2804C67.4936 28.0159 68.3815 27.8833 69.4375 27.8827L72.2815 27.8808L72.2825 29.3748L69.4385 29.3767C68.5745 29.3772 67.9385 29.4916 67.5307 29.7199C67.1228 29.9361 66.919 30.2723 66.9193 30.7283C66.9195 31.0883 67.0637 31.3822 67.3519 31.61C67.64 31.8258 68.0721 31.9335 68.6481 31.9332C69.4641 31.9326 70.118 31.8002 70.6098 31.5359C71.1137 31.2596 71.4794 30.8633 71.7071 30.3472C71.9347 29.831 72.0603 29.195 72.0838 28.439L72.3538 28.4388C72.3551 30.4188 72.0081 31.883 71.3127 32.8314C70.6293 33.7799 69.6276 34.2545 68.3076 34.2554Z" fill="#337EB5"/>
</svg>
