<svg width="100" height="55" viewBox="0 0 100 55" fill="none" xmlns="http://www.w3.org/2000/svg">
<rect x="0.5" y="0.5" width="98.0141" height="53.0238" rx="26.5119" fill="#1E1E1E"/>
<rect x="0.5" y="0.5" width="98.0141" height="53.0238" rx="26.5119" stroke="#E36A46"/>
<path d="M39.3899 18.97L40.7221 19.2752C40.4827 20.2233 40.2013 21.1595 39.8779 22.0837C39.5545 22.9959 39.195 23.8542 38.7996 24.6584C38.4041 25.4507 37.9725 26.147 37.5049 26.7473C37.4328 26.6753 37.3248 26.5854 37.1807 26.4775C37.0486 26.3576 36.9106 26.2496 36.7665 26.1537C36.6344 26.0458 36.5144 25.9559 36.4063 25.884C36.862 25.3317 37.2756 24.6894 37.6471 23.9572C38.0186 23.2129 38.3481 22.4207 38.6356 21.5805C38.935 20.7283 39.1865 19.8582 39.3899 18.97ZM39.0888 26.6022L40.403 26.8714C40.2235 27.6635 39.996 28.4377 39.7205 29.1938C39.4449 29.938 39.1394 30.6402 38.8038 31.3004C38.4802 31.9486 38.1326 32.5249 37.7609 33.0291C37.6769 32.9572 37.5628 32.8732 37.4188 32.7773C37.2747 32.6814 37.1306 32.5915 36.9866 32.5076C36.8425 32.4237 36.7165 32.3518 36.6085 32.2918C37.16 31.6075 37.6455 30.7612 38.0648 29.7529C38.4962 28.7326 38.8375 27.6824 39.0888 26.6022ZM39.2121 22.3722L47.3121 22.367L47.3129 23.627L38.7089 23.6325L39.2121 22.3722ZM42.0204 22.8744L43.3524 22.8735L43.3594 33.8175C43.3597 34.1895 43.3119 34.4835 43.216 34.6996C43.1201 34.9157 42.9523 35.0838 42.7123 35.2039C42.4604 35.3121 42.1364 35.3843 41.7405 35.4205C41.3565 35.4568 40.8825 35.4751 40.3185 35.4755C40.2824 35.2835 40.2162 35.0495 40.1201 34.7736C40.0359 34.5096 39.9397 34.2877 39.8316 34.1078C40.2636 34.1195 40.6536 34.1252 41.0016 34.125C41.3616 34.1248 41.6016 34.1186 41.7216 34.1066C41.8296 34.1065 41.9076 34.0884 41.9556 34.0524C42.0036 34.0164 42.0275 33.9384 42.0274 33.8184L42.0204 22.8744ZM44.651 26.8687L45.8747 26.4719C46.2231 27.1077 46.5476 27.7855 46.848 28.5053C47.1485 29.2251 47.4129 29.9389 47.6414 30.6468C47.8698 31.3426 48.0322 31.9665 48.1286 32.5184L46.8329 32.9693C46.7485 32.4173 46.5921 31.7874 46.3637 31.0796C46.1472 30.3717 45.8888 29.6519 45.5883 28.9201C45.2998 28.1883 44.9874 27.5045 44.651 26.8687ZM46.9161 22.3672L47.1141 22.3671L47.348 22.3129L48.2662 22.5103C48.1466 23.1704 48.015 23.8605 47.8715 24.5806C47.728 25.2887 47.5963 25.8888 47.4767 26.3809L46.3245 26.1656C46.3843 25.8536 46.4501 25.4935 46.5218 25.0855C46.5936 24.6774 46.6653 24.2574 46.737 23.8253C46.8087 23.3813 46.8685 22.9612 46.9162 22.5652L46.9161 22.3672ZM35.7539 18.9724L37.0321 19.3496C36.6488 20.3698 36.1934 21.3781 35.6661 22.3744C35.1387 23.3588 34.5693 24.2891 33.9579 25.1655C33.3464 26.0419 32.7109 26.8163 32.0514 27.4888C32.0153 27.3808 31.9492 27.2428 31.8531 27.0749C31.769 26.9069 31.6729 26.739 31.5648 26.5711C31.4687 26.3911 31.3786 26.2532 31.2945 26.1573C31.8941 25.5689 32.4697 24.8905 33.0212 24.1221C33.5727 23.3538 34.0822 22.5315 34.5496 21.6552C35.017 20.7669 35.4185 19.8726 35.7539 18.9724ZM33.8849 23.5996L35.162 22.3208L35.1801 22.3388L35.1885 35.4248L33.8925 35.4256L33.8849 23.5996ZM57.9484 19.8041L65.8684 19.799L65.8692 21.059L57.9492 21.0641L57.9484 19.8041ZM57.3405 26.1405L67.2405 26.1342L67.2413 27.4122L57.3413 27.4185L57.3405 26.1405ZM61.587 23.7438L62.937 23.7429L62.9434 33.7329C62.9437 34.1409 62.8899 34.453 62.782 34.669C62.6741 34.8851 62.4762 35.0532 62.1883 35.1734C61.9004 35.2696 61.5164 35.3298 61.0364 35.3541C60.5565 35.3905 59.9565 35.4088 59.2365 35.4093C59.2003 35.2293 59.1282 35.0074 59.02 34.7434C58.9239 34.4915 58.8277 34.2696 58.7316 34.0776C59.3076 34.0893 59.8236 34.0949 60.2796 34.0946C60.7356 34.1063 61.0416 34.1061 61.1976 34.094C61.3536 34.0819 61.4556 34.0519 61.5036 34.0038C61.5635 33.9558 61.5935 33.8658 61.5934 33.7338L61.587 23.7438ZM65.3824 19.7993L65.7064 19.7991L65.9764 19.727L66.8768 20.3744C66.5171 20.8906 66.1035 21.4189 65.6358 21.9592C65.1682 22.4875 64.6765 22.9918 64.1608 23.4721C63.6571 23.9525 63.1594 24.3788 62.6676 24.7511C62.5715 24.6192 62.4394 24.4752 62.2713 24.3193C62.1152 24.1514 61.9832 24.0255 61.8751 23.9416C62.3069 23.6173 62.7446 23.233 63.1884 22.7888C63.6321 22.3325 64.0458 21.8702 64.4295 21.402C64.8252 20.9337 65.1429 20.5015 65.3826 20.1053L65.3824 19.7993ZM50.6782 22.5988L56.6182 22.595L56.6191 23.873L50.6791 23.8768L50.6782 22.5988ZM53.3938 18.889L54.6899 19.0322C54.5105 19.9323 54.3131 20.8925 54.0978 21.9126C53.8824 22.9327 53.6551 23.9589 53.4158 24.991C53.1764 26.0232 52.9431 27.0133 52.7157 27.9615C52.4883 28.9096 52.2668 29.7558 52.0513 30.4999L50.9349 29.8886C51.1265 29.2045 51.33 28.4124 51.5454 27.5122C51.7728 26.6001 52.0002 25.6459 52.2275 24.6498C52.4549 23.6417 52.6703 22.6455 52.8736 21.6614C53.077 20.6653 53.2504 19.7411 53.3938 18.889ZM51.5826 29.3302L52.3379 28.3757C53.0102 28.7473 53.7005 29.1789 54.4088 29.6704C55.1171 30.1499 55.7714 30.6415 56.3717 31.1451C56.984 31.6487 57.4704 32.1224 57.8306 32.5662L57.0033 33.6647C56.6551 33.221 56.1807 32.7353 55.5804 32.2077C54.9921 31.68 54.3497 31.1644 53.6534 30.6609C52.9571 30.1573 52.2668 29.7138 51.5826 29.3302ZM56.1682 22.5953L56.3842 22.5951L56.6182 22.559L57.4283 22.7205C57.2738 25.0366 56.9511 27.0288 56.4602 28.6971C55.9812 30.3534 55.3401 31.7338 54.5368 32.8383C53.7335 33.9428 52.7801 34.8255 51.6765 35.4862C51.5924 35.3182 51.4663 35.1263 51.2981 34.9104C51.142 34.7065 50.9919 34.5386 50.8478 34.4067C51.8435 33.8661 52.713 33.0855 53.4563 32.065C54.1997 31.0325 54.7988 29.7542 55.2539 28.2299C55.7089 26.6936 56.0137 24.9114 56.1684 22.8833L56.1682 22.5953Z" fill="#E36A46"/>
</svg>
