<svg width="154" height="55" viewBox="0 0 154 55" fill="none" xmlns="http://www.w3.org/2000/svg">
<rect x="0.5" y="0.5" width="152.014" height="53.0585" rx="26.5292" fill="#1E1E1E"/>
<rect x="0.5" y="0.5" width="152.014" height="53.0585" rx="26.5292" stroke="#E36A46"/>
<path d="M44.2683 19.6501L34.5216 34.0563L31.9116 34.058L41.6583 19.6517L44.2683 19.6501ZM34.5123 19.6563L44.2776 34.0501L41.6676 34.0517L31.9023 19.658L34.5123 19.6563ZM47.153 23.8602L49.403 23.8588L49.4095 34.0468L47.1595 34.0482L47.153 23.8602ZM48.2864 22.9415C47.9144 22.9417 47.6023 22.8219 47.3502 22.5821C47.098 22.3303 46.9718 22.0243 46.9716 21.6643C46.9713 21.3043 47.0971 20.9983 47.349 20.7461C47.6008 20.4939 47.9127 20.3677 48.2847 20.3675C48.6327 20.3673 48.9268 20.4931 49.167 20.7449C49.4191 20.9968 49.5453 21.3027 49.5456 21.6627C49.5458 22.0227 49.42 22.3288 49.1682 22.5809C48.9283 22.8211 48.6344 22.9413 48.2864 22.9415ZM54.7966 29.6153C54.7955 27.9713 54.9447 26.7112 55.2441 25.835C55.5556 24.9588 55.9872 24.3645 56.539 24.0522C57.1028 23.7398 57.8647 23.5833 58.8247 23.5827C59.7727 23.5821 60.5588 23.7736 61.1831 24.1572C61.8193 24.5288 62.2997 25.1345 62.6242 25.9743C62.9488 26.8021 63.1115 27.882 63.1123 29.214L60.8803 29.2154C60.8796 28.0634 60.663 27.2235 60.2307 26.6958C59.7983 26.1561 59.1142 25.8865 58.1782 25.8871C57.5542 25.8875 57.0083 26.0319 56.5404 26.3202C56.0846 26.5965 55.7309 27.0167 55.4793 27.5809C55.2276 28.133 55.102 28.8111 55.1026 29.6151L54.7966 29.6153ZM52.7949 23.8566L55.0989 23.8551L54.597 27.1854L55.101 27.1851L55.1054 34.0431L52.8014 34.0446L52.7949 23.8566ZM60.8803 29.2154L63.1123 29.214L63.1154 34.038L60.8834 34.0394L60.8803 29.2154ZM83.7923 30.2627C83.2291 31.499 82.4257 32.4356 81.3821 33.0722C80.3505 33.7089 79.1147 34.0277 77.6747 34.0286C76.3187 34.0295 75.1545 33.7182 74.1821 33.0949C73.2097 32.4715 72.4712 31.608 71.9665 30.5043C71.4618 29.4006 71.209 28.1528 71.2081 26.7608C71.2072 25.3688 71.4524 24.1386 71.9437 23.0703C72.447 21.99 73.1845 21.1495 74.1561 20.5489C75.1277 19.9362 76.2975 19.6295 77.6655 19.6286C79.1415 19.6277 80.3957 19.9629 81.4281 20.6342C82.4606 21.2935 83.2832 22.319 83.8961 23.7106L81.8809 25.0259C81.6044 24.2461 81.2681 23.6343 80.8718 23.1906C80.4755 22.7348 80.0133 22.4171 79.4852 22.2374C78.969 22.0458 78.363 21.9502 77.667 21.9506C76.875 21.9511 76.1671 22.1256 75.5433 22.474C74.9315 22.8104 74.4399 23.3387 74.0683 24.0589C73.6968 24.7792 73.5114 25.6793 73.5121 26.7593C73.5128 27.8873 73.6994 28.8172 74.0719 29.5489C74.4443 30.2807 74.9367 30.8264 75.5489 31.186C76.1611 31.5336 76.8692 31.7071 77.6732 31.7066C78.3572 31.7182 78.9512 31.6338 79.4551 31.4535C79.971 31.2731 80.4148 30.9788 80.7865 30.5706C81.1703 30.1624 81.4879 29.6222 81.7395 28.95L83.7923 30.2627ZM88.9639 19.6214L88.9666 23.8334L86.6626 23.8348L86.6599 19.6228L88.9639 19.6214ZM88.6823 29.5935C88.6812 27.9495 88.8304 26.6894 89.1298 25.8132C89.4413 24.937 89.8729 24.3428 90.4247 24.0304C90.9765 23.7181 91.7384 23.5616 92.7104 23.5609C93.6584 23.5603 94.4445 23.7518 95.0688 24.1354C95.705 24.507 96.1854 25.1127 96.5099 25.9525C96.8345 26.7803 96.9972 27.8602 96.998 29.1922L94.748 29.1936C94.7473 28.0416 94.5307 27.2018 94.0984 26.6741C93.678 26.1343 92.9999 25.8648 92.0639 25.8654C91.4399 25.8658 90.894 26.0101 90.4261 26.2984C89.9703 26.5747 89.6166 26.9949 89.365 27.5591C89.1133 28.1113 88.9877 28.7893 88.9883 29.5933L88.6823 29.5935ZM86.6806 23.8348L88.9846 23.8333L88.4827 27.1637L88.9867 27.1633L88.9911 34.0213L86.6871 34.0228L86.6806 23.8348ZM94.748 29.1936L96.998 29.1922L97.0011 34.0162L94.7511 34.0176L94.748 29.1936ZM103.956 24.2017C105.132 24.201 106.003 24.4584 106.567 24.974C107.131 25.4897 107.414 26.3115 107.415 27.4395L107.419 34.0095L106.267 34.0102L105.96 32.6424L105.888 32.6425C105.612 32.9907 105.324 33.2848 105.024 33.525C104.737 33.7532 104.401 33.9214 104.017 34.0297C103.645 34.1379 103.189 34.1922 102.649 34.1926C102.073 34.1929 101.551 34.0913 101.083 33.8876C100.627 33.6839 100.266 33.3721 100.002 32.9523C99.7378 32.5204 99.6054 31.9805 99.605 31.3325C99.6044 30.3725 99.9819 29.6343 100.738 29.1178C101.493 28.5893 102.657 28.3006 104.229 28.2515L105.867 28.1965L105.867 27.6205C105.866 26.8165 105.692 26.2586 105.344 25.9468C104.995 25.6351 104.503 25.4794 103.867 25.4798C103.363 25.4801 102.883 25.5584 102.427 25.7147C101.972 25.859 101.546 26.0273 101.15 26.2195L100.663 25.0318C101.083 24.8036 101.581 24.6112 102.157 24.4549C102.733 24.2865 103.332 24.2021 103.956 24.2017ZM104.428 29.3494C103.228 29.3982 102.394 29.5907 101.926 29.927C101.47 30.2633 101.243 30.7375 101.243 31.3495C101.243 31.8895 101.406 32.2854 101.73 32.5372C102.066 32.7889 102.492 32.9147 103.008 32.9143C103.824 32.9138 104.502 32.6914 105.042 32.247C105.581 31.7907 105.851 31.0945 105.85 30.1585L105.85 29.2945L104.428 29.3494ZM103.378 20.2241C103.51 20.488 103.672 20.7879 103.864 21.1238C104.069 21.4476 104.279 21.7655 104.495 22.0774C104.723 22.3892 104.927 22.6591 105.108 22.887L105.108 23.103L104.046 23.1037C103.842 22.9358 103.614 22.7379 103.361 22.5101C103.109 22.2703 102.857 22.0244 102.605 21.7726C102.365 21.5087 102.143 21.2569 101.938 21.017C101.746 20.7771 101.596 20.5732 101.488 20.4053L101.488 20.2253L103.378 20.2241ZM115.781 34.2741C114.833 34.2747 113.963 34.0353 113.17 33.5558C112.39 33.0643 111.778 32.4107 111.333 31.595C110.889 30.7673 110.666 29.8614 110.665 28.8774C110.665 27.9174 110.886 27.0293 111.33 26.213C111.773 25.3847 112.385 24.7303 113.164 24.2498C113.956 23.7693 114.826 23.5287 115.774 23.5281C116.734 23.5275 117.598 23.767 118.366 24.2465C119.147 24.726 119.759 25.3796 120.204 26.2073C120.648 27.023 120.871 27.9109 120.871 28.8709C120.872 29.8549 120.651 30.761 120.207 31.5893C119.764 32.4056 119.152 33.06 118.372 33.5525C117.605 34.033 116.741 34.2735 115.781 34.2741ZM115.779 32.0421C116.355 32.0418 116.853 31.9094 117.273 31.6452C117.705 31.3689 118.035 30.9907 118.262 30.5105C118.502 30.0304 118.622 29.4903 118.621 28.8903C118.621 28.2903 118.501 27.7564 118.26 27.2885C118.032 26.8087 117.702 26.4369 117.27 26.1732C116.837 25.8974 116.339 25.7598 115.775 25.7601C115.211 25.7605 114.713 25.8988 114.282 26.1751C113.85 26.4394 113.514 26.8116 113.274 27.2917C113.035 27.7599 112.915 28.294 112.915 28.894C112.916 29.494 113.036 30.0339 113.276 30.5137C113.517 30.9936 113.853 31.3714 114.285 31.6471C114.717 31.9108 115.215 32.0425 115.779 32.0421Z" fill="#E36A46"/>
</svg>
