<svg width="140" height="55" viewBox="0 0 140 55" fill="none" xmlns="http://www.w3.org/2000/svg">
<rect x="0.5" y="0.5" width="138.014" height="53.0495" rx="26.5247" fill="#1E1E1E"/>
<rect x="0.5" y="0.5" width="138.014" height="53.0495" rx="26.5247" stroke="#337EB5"/>
<path d="M34.1523 19.6488L34.1616 34.0488L31.9116 34.0502L31.9023 19.6502L34.1523 19.6488ZM43.3323 19.6429L43.3416 34.0429L41.0916 34.0443L41.0823 19.6443L43.3323 19.6429ZM41.0838 21.8943L34.1538 21.8988L34.1523 19.6488L41.0823 19.6443L41.0838 21.8943ZM52.0685 34.3073C50.7845 34.3081 49.7822 33.8827 49.0617 33.0312C48.3531 32.1676 47.9983 30.8299 47.9971 29.0179C47.9964 27.8899 48.1638 26.9298 48.4993 26.1375C48.8347 25.3453 49.3084 24.751 49.9201 24.3546C50.5318 23.9462 51.2457 23.7418 52.0617 23.7413C52.9017 23.7407 53.6639 23.9802 54.3482 24.4598C55.0325 24.9393 55.5669 25.599 55.9514 26.4388C56.348 27.2665 56.5466 28.1964 56.5472 29.2284C56.5478 30.1284 56.3504 30.9685 55.9549 31.7488C55.5594 32.517 55.0198 33.1354 54.3361 33.6038C53.6524 34.0722 52.8965 34.3067 52.0685 34.3073ZM45.6898 23.8533L47.9938 23.8519L47.8159 27.182L48.2659 27.1817L48.2682 30.6917L47.8182 30.692L48.0026 37.6399L45.6986 37.6413L45.6898 23.8533ZM51.275 32.0218C51.839 32.0214 52.349 31.8951 52.8048 31.6428C53.2726 31.3905 53.6324 31.0482 53.8841 30.6161C54.1478 30.1719 54.2795 29.6738 54.2792 29.1218C54.2788 28.5458 54.1525 28.0299 53.9002 27.5741C53.6479 27.1182 53.2877 26.7645 52.8195 26.5128C52.3633 26.2611 51.8473 26.1354 51.2713 26.1358C50.7193 26.1361 50.2153 26.2624 49.7595 26.5147C49.3037 26.767 48.9379 27.1153 48.6622 27.5594C48.3984 27.9916 48.2667 28.4597 48.2671 28.9637C48.2674 29.4917 48.3997 29.9956 48.664 30.4754C48.9283 30.9433 49.2886 31.321 49.7448 31.6087C50.2129 31.8844 50.723 32.0221 51.275 32.0218ZM59.264 23.8446L61.37 23.8433L61.3766 34.0493L59.2706 34.0506L59.264 23.8446ZM69.398 23.8381L61.5926 34.0491L59.2526 34.0506L67.022 23.8396L69.398 23.8381ZM67.256 23.8395L69.398 23.8381L69.4046 34.0441L67.2626 34.0455L67.256 23.8395ZM72.2749 23.8363L77.7649 23.8327C78.9769 23.832 79.8711 24.0414 80.4473 24.461C81.0236 24.8806 81.312 25.4145 81.3124 26.0625C81.3128 26.7105 81.1031 27.2446 80.6834 27.6649C80.2757 28.0731 79.7538 28.3195 79.1179 28.4039L79.1181 28.7099C79.9821 28.7933 80.6963 29.0629 81.2606 29.5185C81.8249 29.9621 82.1073 30.5559 82.1077 31.2999C82.1083 32.1399 81.7427 32.8062 81.011 33.2987C80.2913 33.7791 79.2115 34.0198 77.7715 34.0207L72.2815 34.0243L72.2749 23.8363ZM77.7701 31.8067C78.4421 31.8063 78.928 31.716 79.2279 31.5358C79.5398 31.3436 79.6956 31.0615 79.6953 30.6895C79.6951 30.3415 79.545 30.0896 79.2449 29.9338C78.9568 29.766 78.4647 29.6823 77.7687 29.6827L74.4747 29.6849L74.4761 31.8089L77.7701 31.8067ZM77.7674 27.7027C78.2714 27.7024 78.6434 27.6422 78.8833 27.522C79.1232 27.3899 79.2431 27.1498 79.2428 26.8018C79.2426 26.4658 79.1225 26.2379 78.8824 26.118C78.6423 25.9862 78.2703 25.9204 77.7663 25.9207L74.4723 25.9229L74.4734 27.7049L77.7674 27.7027ZM94.2224 31.6162C93.7429 32.5165 93.1014 33.1889 92.2977 33.6334C91.5059 34.0659 90.6301 34.2825 89.6701 34.2831C88.7101 34.2837 87.8279 34.0503 87.0236 33.5828C86.2313 33.1033 85.5949 32.4617 85.1144 31.658C84.6459 30.8423 84.4113 29.9545 84.4107 28.9945C84.4101 28.0345 84.6435 27.1523 85.111 26.348C85.5905 25.5437 86.2321 24.9073 87.0358 24.4388C87.8394 23.9583 88.7153 23.7177 89.6633 23.7171C90.6593 23.7165 91.5415 23.9679 92.3098 24.4714C93.0781 24.9749 93.6666 25.6825 94.0751 26.5943C94.4957 27.494 94.6884 28.5259 94.6531 29.6899L92.5111 29.6913C92.6186 28.9112 92.5582 28.2392 92.3298 27.6754C92.1015 27.0995 91.7472 26.6618 91.267 26.3621C90.7988 26.0624 90.2647 25.9127 89.6647 25.9131C89.0647 25.9135 88.5308 26.0518 88.063 26.3281C87.6071 26.6044 87.2534 26.9766 87.0017 27.4448C86.762 27.913 86.6423 28.429 86.6427 28.993C86.6431 29.581 86.7634 30.109 87.0037 30.5768C87.256 31.0446 87.6102 31.4104 88.0664 31.6741C88.5226 31.9258 89.0566 32.0515 89.6686 32.0511C90.2926 32.0507 90.8566 31.9303 91.3604 31.69C91.8763 31.4497 92.32 31.0774 92.6917 30.5731L94.2224 31.6162ZM93.8062 28.1784L93.8071 29.6904L86.4991 29.6951L86.4982 28.1831L93.8062 28.1784ZM100.501 23.8181L102.607 23.8168L102.614 34.0048L100.508 34.0061L100.501 23.8181ZM96.4695 23.8207L106.621 23.8142L106.623 25.9922L96.4709 25.9987L96.4695 23.8207Z" fill="#337EB5"/>
</svg>
