<svg width="109" height="55" viewBox="0 0 109 55" fill="none" xmlns="http://www.w3.org/2000/svg">
<rect x="0.5" y="0.515625" width="107.014" height="53.0296" rx="26.5148" fill="#1E1E1E"/>
<rect x="0.5" y="0.515625" width="107.014" height="53.0296" rx="26.5148" stroke="#E36A46"/>
<path d="M33.0044 22.847L43.2464 22.8404L43.2472 24.1184L41.3932 24.1196L41.3996 34.0376L39.9416 34.0385L39.9381 28.6745L36.6801 28.6766L36.6807 29.6486C36.6812 30.3146 36.3214 30.6568 35.7634 30.6572C34.8814 30.6578 33.6745 29.3265 33.6739 28.3185C33.6735 27.7785 33.9613 27.4004 34.7713 27.3998L39.9373 27.3965L39.9352 24.1205L33.0052 24.125L33.0044 22.847ZM53.0516 24.1121L53.0579 34.0301L51.5999 34.031L51.597 29.531L47.619 29.5336L47.6195 30.1996C47.62 30.9916 47.2062 31.3158 46.7562 31.3161C45.8382 31.3167 44.5953 29.9495 44.5947 29.0315C44.5944 28.5995 44.8822 28.2573 45.6922 28.2568L46.1602 28.2565L46.1576 24.1165L43.8896 24.118L43.8887 22.84L54.9047 22.8329L54.9056 24.1109L53.0516 24.1121ZM51.5936 24.113L47.6156 24.1156L47.6182 28.2556L51.5962 28.253L51.5936 24.113ZM60.7199 34.2772C58.9188 32.5143 57.4596 30.6973 56.8108 29.5097C56.4685 28.8979 56.3061 28.358 56.3058 27.908C56.3054 27.278 56.6652 26.9358 57.2772 26.9354C57.7992 26.935 58.2854 27.2587 58.7537 27.7984C59.4015 27.348 59.6169 26.5379 59.6164 25.7459C59.616 25.0799 59.4716 24.486 59.3094 24.1081L55.5474 24.1105L55.5466 22.8325L64.4746 22.8267L64.4754 24.1047L60.7854 24.1071C60.9837 24.629 61.0741 25.2049 61.0745 25.9249C61.0751 26.7529 60.8775 27.4551 60.4639 28.0493C61.2201 28.3188 61.9402 28.4264 62.7142 28.4259C63.3262 28.4255 63.8661 28.3711 64.514 28.2627L64.5509 29.5407C63.939 29.6851 63.417 29.7214 62.715 29.7219C61.779 29.7225 60.5908 29.5072 59.6005 28.9679C59.2407 29.2201 58.7908 29.4544 58.2869 29.6167C59.1517 30.7862 60.3764 31.9734 61.8173 33.3045L60.7199 34.2772ZM72.1015 24.0998L72.1078 34.0178L70.6498 34.0188L70.6461 28.1148L68.1441 28.1164C66.6321 28.1174 65.7144 28.586 65.7152 29.864C65.7159 31.034 66.4725 31.9875 67.9134 33.3545L66.888 34.2732C65.195 32.6363 64.2581 31.2869 64.2571 29.6849C64.2558 27.7409 65.6772 26.84 67.8912 26.8386L70.6452 26.8368L70.6435 24.1008L63.4435 24.1054L63.4427 22.8274L73.9547 22.8207L73.9555 24.0987L72.1015 24.0998ZM71.5664 22.9482C70.5743 19.7448 70.2139 19.2051 68.9899 19.2058C68.4859 19.2062 67.928 19.3325 67.4961 19.4948L67.0993 18.2171C67.6032 18.0187 68.2871 17.8923 68.8991 17.8919C71.0051 17.8906 71.6538 18.9161 72.8984 22.9473L71.5664 22.9482Z" fill="#E36A46"/>
</svg>
