<svg width="150" height="55" viewBox="0 0 150 55" fill="none" xmlns="http://www.w3.org/2000/svg">
<rect x="0.5" y="0.5" width="148.014" height="53.0559" rx="26.5279" stroke="#919191"/>
<path d="M42.4499 18.9813L44.8439 18.9798L44.8517 31.0938L42.4577 31.0953L42.4499 18.9813ZM44.1629 23.7502L47.0609 23.7484L47.0622 25.7104L44.1642 25.7122L44.1629 23.7502ZM34.1072 33.4587L45.4472 33.4514L45.4484 35.3594L34.1084 35.3667L34.1072 33.4587ZM34.1049 29.8407L36.4989 29.8392L36.5017 34.3032L34.1077 34.3047L34.1049 29.8407ZM36.3666 20.0472C38.9226 20.0456 40.9037 21.8263 40.9053 24.2923C40.9069 26.7403 38.928 28.5236 36.372 28.5252C33.816 28.5269 31.8349 26.7462 31.8333 24.2982C31.8317 21.8322 33.8106 20.0489 36.3666 20.0472ZM36.3679 22.1352C35.1439 22.136 34.1724 22.9287 34.1733 24.2967C34.1742 25.6467 35.1467 26.438 36.3707 26.4372C37.6127 26.4364 38.5662 25.6438 38.5653 24.2938C38.5644 22.9258 37.6099 22.1344 36.3679 22.1352ZM50.153 19.8224L52.529 19.8209L52.5335 26.8229L50.1575 26.8244L50.153 19.8224ZM50.1572 26.3384L51.5072 26.3375C54.3872 26.3357 56.3852 26.2624 58.6169 25.8289L58.8881 27.7368C56.5844 28.1883 54.4965 28.2796 51.5085 28.2815L50.1585 28.2824L50.1572 26.3384ZM60.7365 18.9696L63.1305 18.968L63.1369 28.958L60.7429 28.9596L60.7365 18.9696ZM56.7774 20.4481L61.3314 20.4452L61.3326 22.2632L56.7786 22.2661L56.7774 20.4481ZM56.7793 23.3281L61.3333 23.3252L61.3344 25.1432L56.7804 25.1461L56.7793 23.3281ZM57.485 29.1777C61.013 29.1754 63.1918 30.38 63.1931 32.414C63.1944 34.466 61.0172 35.6554 57.4892 35.6577C53.9612 35.6599 51.7824 34.4733 51.7811 32.4213C51.7798 30.3873 53.957 29.1799 57.485 29.1777ZM57.4862 31.0317C55.3262 31.0331 54.1745 31.4838 54.1751 32.4198C54.1757 33.3558 55.328 33.8051 57.488 33.8037C59.666 33.8023 60.8177 33.3515 60.8171 32.4155C60.8165 31.4795 59.6642 31.0303 57.4862 31.0317ZM77.3311 18.9589L79.7071 18.9574L79.7178 35.6254L77.3418 35.6269L77.3311 18.9589ZM79.1712 25.4557L82.1232 25.4538L82.1245 27.4518L79.1725 27.4537L79.1712 25.4557ZM66.5687 21.4318L76.2707 21.4256L76.2719 23.3336L66.5699 23.3398L66.5687 21.4318ZM71.4485 24.2727C73.8785 24.2711 75.6795 25.926 75.681 28.248C75.6825 30.57 73.8836 32.2271 71.4536 32.2287C69.0236 32.2303 67.2225 30.5754 67.221 28.2534C67.2195 25.9314 69.0185 24.2743 71.4485 24.2727ZM71.4497 26.2167C70.3157 26.2174 69.5062 26.974 69.507 28.252C69.5079 29.53 70.3183 30.2854 71.4523 30.2847C72.5863 30.284 73.3959 29.5275 73.395 28.2495C73.3942 26.9715 72.5837 26.216 71.4497 26.2167ZM70.2392 19.2335L72.6332 19.2319L72.6351 22.1479L70.2411 22.1495L70.2392 19.2335ZM90.6713 24.5484L93.4253 24.5466L93.4265 26.4906L90.6725 26.4924L90.6713 24.5484ZM87.1046 20.3926L88.9406 20.3915L88.9424 23.1995C88.9448 26.9795 87.9032 30.6701 85.2402 32.3098L83.7991 30.5108C86.2461 28.9972 87.1082 26.0266 87.1064 23.2006L87.1046 20.3926ZM87.6266 20.3923L89.4266 20.3911L89.4283 23.0911C89.4301 25.8091 90.1339 28.5807 92.4028 30.0552L91.108 31.9281C88.4609 30.2918 87.6306 26.6923 87.6283 23.0923L87.6266 20.3923ZM96.1397 18.9468L98.4257 18.9454L98.4364 35.6134L96.1504 35.6148L96.1397 18.9468ZM92.7558 19.201L94.9878 19.1996L94.9979 34.8596L92.7659 34.861L92.7558 19.201ZM104.892 27.4012L107.268 27.3997L107.271 32.0797L104.895 32.0812L104.892 27.4012ZM110.94 27.3973L113.334 27.3958L113.337 32.0758L110.943 32.0773L110.94 27.3973ZM101.582 31.7413L116.666 31.7317L116.668 33.6757L101.584 33.6853L101.582 31.7413ZM109.099 19.7485C112.681 19.7462 115.328 21.5085 115.33 24.2265C115.331 26.9445 112.687 28.6922 109.105 28.6945C105.505 28.6968 102.875 26.9525 102.874 24.2345C102.872 21.5165 105.499 19.7508 109.099 19.7485ZM109.1 21.6205C106.778 21.622 105.231 22.577 105.232 24.233C105.233 25.871 106.781 26.842 109.103 26.8405C111.425 26.839 112.973 25.866 112.972 24.228C112.971 22.572 111.422 21.619 109.1 21.6205Z" fill="#919191"/>
</svg>
