<svg width="109" height="55" viewBox="0 0 109 55" fill="none" xmlns="http://www.w3.org/2000/svg">
<rect x="0.5" y="0.5" width="107.014" height="53.0296" rx="26.5148" fill="#1E1E1E"/>
<rect x="0.5" y="0.5" width="107.014" height="53.0296" rx="26.5148" stroke="#FCC764"/>
<path d="M38.2476 34.0266L38.2433 27.4566C38.2428 26.6766 38.0625 26.1247 37.7023 25.8009C37.3541 25.4652 36.766 25.2975 35.938 25.2981C35.338 25.2985 34.762 25.3828 34.2101 25.5512C33.6702 25.7075 33.1544 25.9299 32.6625 26.2182L32.6616 24.7242C33.0095 24.544 33.4774 24.3757 34.0653 24.2193C34.6652 24.0629 35.3371 23.9845 36.0811 23.984C36.7171 23.9836 37.2572 24.0552 37.7013 24.1989C38.1573 24.3427 38.4935 24.6064 38.7098 24.9903C39.1299 25.182 39.4181 25.4818 39.5743 25.8897C39.7426 26.2976 39.8269 26.7896 39.8273 27.3656L39.8316 34.0256L38.2476 34.0266ZM35.1517 34.2086C34.0957 34.2093 33.2855 33.9698 32.7212 33.4902C32.1689 32.9985 31.8925 32.2967 31.8919 31.3847C31.8912 30.3887 32.2507 29.6205 32.9704 29.08C33.702 28.5395 34.8838 28.2208 36.5158 28.1237L38.5677 27.9964L38.5685 29.3284L36.7326 29.4556C35.5087 29.5404 34.6628 29.7329 34.195 30.0332C33.7392 30.3335 33.5115 30.7716 33.5118 31.3476C33.5122 31.8876 33.6804 32.2835 34.0166 32.5353C34.3648 32.7871 34.8448 32.9128 35.4568 32.9124C35.6608 32.9123 35.8468 32.9001 36.0148 32.876C36.1828 32.8399 36.3448 32.7978 36.5007 32.7497L36.7535 33.9556C36.5256 34.0397 36.2736 34.0999 35.9976 34.136C35.7337 34.1842 35.4517 34.2084 35.1517 34.2086ZM38.6561 25.5483L37.7556 24.7029C38.0675 24.6547 38.3615 24.5345 38.6373 24.3423C38.9132 24.1502 39.051 23.8741 39.0508 23.5141L40.6168 23.5131C40.6171 23.8851 40.5273 24.2151 40.3474 24.5032C40.1796 24.7794 39.9458 25.0075 39.6459 25.1877C39.346 25.3559 39.0161 25.4761 38.6561 25.5483ZM45.6505 34.2018C45.1825 34.2021 44.7264 34.1544 44.2824 34.0587C43.8503 33.963 43.3882 33.7833 42.896 33.5196L43.3992 32.2953C43.6633 32.4511 43.9634 32.5889 44.2995 32.7087C44.6356 32.8165 45.0256 32.8702 45.4696 32.87C46.3576 32.8694 47.0474 32.5449 47.539 31.8966C48.0426 31.2363 48.2939 30.2881 48.2932 29.0521C48.2924 27.8401 48.0338 26.9163 47.5174 26.2806C47.013 25.633 46.2327 25.3095 45.1767 25.3101C44.7927 25.3104 44.4028 25.3526 44.0068 25.4369C43.6109 25.5212 43.263 25.6474 42.9631 25.8156L42.9622 24.4656C43.3101 24.2853 43.688 24.1591 44.096 24.0868C44.5159 24.0146 44.9359 23.9783 45.3559 23.978C46.4359 23.9773 47.312 24.1928 47.9843 24.6243C48.6566 25.0439 49.149 25.6316 49.4614 26.3874C49.7739 27.1432 49.9305 28.0311 49.9312 29.0511C49.9322 30.6351 49.573 31.8893 48.8536 32.8138C48.1462 33.7382 47.0785 34.2009 45.6505 34.2018ZM48.2522 22.5902C47.7482 22.5905 47.3461 22.5187 47.046 22.3749C46.7459 22.2311 46.5298 22.0453 46.3977 21.8174C46.2535 21.5895 46.1814 21.3495 46.1812 21.0975C46.1811 20.9175 46.211 20.7255 46.2708 20.5214C46.3187 20.3054 46.3846 20.1314 46.4685 19.9993L47.8186 20.2324C47.7947 20.2805 47.7707 20.3645 47.7468 20.4845C47.7229 20.5925 47.7109 20.6945 47.711 20.7905C47.7111 20.9465 47.7592 21.0845 47.8553 21.2044C47.9513 21.3124 48.1134 21.3663 48.3414 21.3661L52.8954 21.3632L52.8962 22.5872L48.2522 22.5902ZM60.1077 34.0126L60.1035 27.4426C60.103 26.6626 59.9226 26.1107 59.5624 25.7869C59.2142 25.4511 58.6261 25.2835 57.7981 25.284C57.1981 25.2844 56.6222 25.3688 56.0703 25.5371C55.5304 25.6935 55.0145 25.9158 54.5227 26.2041L54.5217 24.7101C54.8696 24.5299 55.3375 24.3616 55.9254 24.2052C56.5253 24.0489 57.1973 23.9704 57.9413 23.9699C58.5773 23.9695 59.1173 24.0412 59.5614 24.1849C60.0175 24.3286 60.3537 24.5924 60.5699 24.9763C60.99 25.168 61.2782 25.4678 61.4345 25.8757C61.6028 26.2836 61.6871 26.7755 61.6874 27.3515L61.6917 34.0115L60.1077 34.0126ZM57.0118 34.1945C55.9558 34.1952 55.1457 33.9557 54.5814 33.4761C54.0291 32.9845 53.7526 32.2826 53.752 31.3706C53.7514 30.3746 54.1109 29.6064 54.8305 29.0659C55.5622 28.5255 56.744 28.2067 58.3759 28.1097L60.4278 27.9823L60.4287 29.3143L58.5928 29.4415C57.3688 29.5263 56.523 29.7189 56.0552 30.0192C55.5993 30.3194 55.3716 30.7576 55.372 31.3336C55.3723 31.8736 55.5406 32.2695 55.8768 32.5213C56.2249 32.773 56.705 32.8987 57.317 32.8983C57.521 32.8982 57.707 32.8861 57.875 32.862C58.043 32.8259 58.2049 32.7838 58.3609 32.7357L58.6137 33.9415C58.3857 34.0257 58.1338 34.0858 57.8578 34.122C57.5938 34.1702 57.3118 34.1944 57.0118 34.1945ZM60.5163 25.5343L59.6157 24.6889C59.9277 24.6407 60.2216 24.5205 60.4975 24.3283C60.7734 24.1361 60.9112 23.86 60.911 23.5L62.477 23.499C62.4772 23.871 62.3874 24.2011 62.2076 24.4892C62.0398 24.7653 61.8059 24.9935 61.506 25.1737C61.2062 25.3418 60.8762 25.4621 60.5163 25.5343ZM68.8966 34.1869C67.9366 34.1875 67.1805 33.966 66.6282 33.5224C66.0879 33.0667 65.7035 32.455 65.475 31.6871C65.2585 30.9192 65.15 30.0733 65.1494 29.1493C65.1487 28.1293 65.2502 27.2892 65.4538 26.6291C65.6693 25.957 65.969 25.4288 66.3527 25.0445C66.7485 24.6483 67.2163 24.372 67.7562 24.2156C68.3081 24.0473 68.914 23.9629 69.574 23.9625C70.534 23.9619 71.3141 24.1054 71.9143 24.393C72.5265 24.6686 72.9768 25.0643 73.2651 25.5801C73.5534 26.0959 73.6978 26.7138 73.6983 27.4338L73.7025 34.0038L72.1185 34.0048L72.1144 27.5788C72.1139 26.8348 71.9275 26.271 71.5553 25.8872C71.183 25.4914 70.5409 25.2938 69.6289 25.2944C69.0769 25.2948 68.579 25.3971 68.1351 25.6014C67.7032 25.8057 67.3615 26.1839 67.1098 26.7361C66.8702 27.2882 66.7507 28.0983 66.7514 29.1663C66.7518 29.8623 66.8182 30.4922 66.9506 31.0562C67.095 31.6081 67.3412 32.0459 67.6894 32.3697C68.0377 32.6935 68.5238 32.8551 69.1478 32.8547C69.3278 32.8546 69.4958 32.8425 69.6517 32.8184C69.8077 32.7943 69.9577 32.7582 70.1017 32.7101L70.2645 33.952C70.0725 34.0362 69.8506 34.0963 69.5986 34.1325C69.3586 34.1686 69.1246 34.1868 68.8966 34.1869ZM66.805 22.5782L66.8045 21.8762L68.1181 21.2994L74.4541 21.2953L74.455 22.5733L66.805 22.5782ZM72.9605 21.8723L72.9592 19.8383L74.4712 19.8373L74.4725 21.8713L72.9605 21.8723Z" fill="#FCC764"/>
</svg>
