<svg width="109" height="55" viewBox="0 0 109 55" fill="none" xmlns="http://www.w3.org/2000/svg">
<rect x="0.5" y="0.5" width="107.014" height="53.0296" rx="26.5148" stroke="#919191"/>
<path d="M44.4911 30.2606C43.9279 31.4849 43.1245 32.4215 42.081 33.0701C41.0494 33.7068 39.8136 34.0256 38.3736 34.0265C37.0176 34.0274 35.8534 33.7161 34.881 33.0928C33.9086 32.4694 33.17 31.6119 32.6653 30.5202C32.1606 29.4165 31.9078 28.1627 31.9069 26.7587C31.906 25.3667 32.1572 24.1365 32.6605 23.0682C33.1638 21.9879 33.9013 21.1474 34.8729 20.5468C35.8445 19.9341 37.0083 19.6274 38.3643 19.6265C39.8403 19.6256 41.0945 19.9608 42.127 20.6321C43.1714 21.2914 43.994 22.3169 44.5949 23.7085L42.5798 25.0238C42.171 23.8841 41.6305 23.0864 40.9582 22.6309C40.286 22.1753 39.4218 21.9478 38.3658 21.9485C37.5858 21.949 36.8779 22.1235 36.2421 22.4719C35.6184 22.8203 35.1207 23.3546 34.7492 24.0748C34.3896 24.7831 34.2102 25.6772 34.2109 26.7572C34.212 28.4372 34.6088 29.6849 35.4013 30.5004C36.2058 31.3039 37.2381 31.7052 38.4981 31.7044C39.4821 31.7038 40.2919 31.4873 40.9277 31.0549C41.5634 30.6225 42.0669 29.9201 42.4383 28.9479L44.4911 30.2606ZM48.6028 22.9139C48.2308 22.9142 47.9187 22.7944 47.6666 22.5545C47.4144 22.3027 47.2882 21.9968 47.288 21.6368C47.2878 21.2768 47.4136 20.9707 47.6654 20.7185C47.9172 20.4664 48.2291 20.3402 48.6011 20.3399C48.9491 20.3397 49.2432 20.4655 49.4834 20.7174C49.7356 20.9692 49.8618 21.2751 49.862 21.6351C49.8622 21.9951 49.7364 22.3012 49.4846 22.5534C49.2447 22.7935 48.9508 22.9137 48.6028 22.9139ZM47.4694 23.8327L49.7194 23.8312L49.7259 34.0192L47.4759 34.0207L47.4694 23.8327ZM57.2463 23.7184C58.9383 23.7173 60.1985 24.1125 61.027 24.904C61.8555 25.6834 62.2703 26.8652 62.2713 28.4492L62.2749 34.0112L60.0609 34.0126L60.4187 30.5564L60.1487 30.5565C59.7183 33.0288 58.4231 34.2656 56.2631 34.267C55.0271 34.2678 54.1029 34.0044 53.4905 33.4768C52.8782 32.9492 52.5717 32.1994 52.5711 31.2274C52.5704 30.1834 52.9839 29.3671 53.8115 28.7786C54.6391 28.1901 55.833 27.8953 57.393 27.8943L60.021 27.8926C59.9006 27.2567 59.6122 26.7889 59.1561 26.4892C58.7119 26.1774 58.0758 26.0219 57.2478 26.0224C56.6718 26.0228 56.1858 26.1431 55.79 26.3833C55.3941 26.6116 55.0164 26.9718 54.6567 27.4641L52.8199 26.2232C53.3954 25.3949 54.037 24.7705 54.7447 24.35C55.4644 23.9295 56.2983 23.719 57.2463 23.7184ZM56.6036 31.9448C57.6116 31.9442 58.3854 31.7277 58.9251 31.2953C59.4649 30.863 59.8065 30.2267 59.9499 29.3867L57.3939 29.3883C56.5299 29.3889 55.894 29.5033 55.4861 29.7315C55.0783 29.9478 54.8745 30.2839 54.8748 30.7399C54.875 31.0999 55.0192 31.3938 55.3074 31.6216C55.5955 31.8375 56.0276 31.9452 56.6036 31.9448ZM70.0812 34.2761C69.1332 34.2768 68.269 34.0373 67.4887 33.5578C66.7084 33.0783 66.09 32.4247 65.6334 31.597C65.1889 30.7693 64.9663 29.8634 64.9657 28.8794C64.9651 27.9074 65.1865 27.0133 65.63 26.197C66.0854 25.3807 66.703 24.7323 67.4827 24.2518C68.2624 23.7713 69.1263 23.5308 70.0743 23.5301C71.0223 23.5295 71.8864 23.769 72.6667 24.2485C73.447 24.728 74.0594 25.3756 74.504 26.1913C74.9485 27.007 75.1711 27.9009 75.1717 28.8729C75.1723 29.8569 74.9509 30.763 74.5074 31.5913C74.064 32.4196 73.4524 33.074 72.6727 33.5545C71.893 34.035 71.0292 34.2755 70.0812 34.2761ZM70.0797 32.0441C70.9437 32.0436 71.6335 31.7491 72.1492 31.1608C72.6648 30.5605 72.9223 29.8043 72.9217 28.8923C72.9211 27.9803 72.6626 27.2305 72.1463 26.6428C71.6299 26.0551 70.9397 25.7616 70.0757 25.7621C69.2237 25.7627 68.5339 26.0631 68.0063 26.6635C67.4786 27.2518 67.2151 27.996 67.2157 28.896C67.2163 29.808 67.4808 30.5638 68.0092 31.1635C68.5375 31.7511 69.2277 32.0447 70.0797 32.0441Z" fill="#919191"/>
</svg>
