<svg width="110" height="55" viewBox="0 0 110 55" fill="none" xmlns="http://www.w3.org/2000/svg">
<rect x="0.5" y="0.5" width="108.014" height="53.0302" rx="26.5151" stroke="#FCC764"/>
<path d="M37.8876 34.0268L37.8834 27.6188C37.8831 27.0428 37.7268 26.6289 37.4146 26.3771C37.1025 26.1253 36.6224 25.9996 35.9744 26.0001C35.3504 26.0005 34.7385 26.0969 34.1386 26.2892C33.5507 26.4696 33.0408 26.6859 32.609 26.9382L32.6076 24.7062C32.9555 24.538 33.4474 24.3697 34.0833 24.2013C34.7191 24.0209 35.4511 23.9304 36.2791 23.9299C36.9151 23.9295 37.4851 24.0071 37.9892 24.1628C38.5053 24.3184 38.8775 24.6242 39.1058 25.08C39.6099 25.2357 39.9701 25.5415 40.1864 25.9974C40.4147 26.4412 40.5291 27.0171 40.5295 27.7251L40.5336 34.0251L37.8876 34.0268ZM34.9357 34.2087C33.9037 34.2094 33.1055 33.9639 32.5412 33.4723C31.9889 32.9806 31.7124 32.2908 31.7119 31.4028C31.7113 30.4428 32.0528 29.6746 32.7364 29.0981C33.432 28.5217 34.5238 28.173 36.0117 28.052L38.3156 27.8706L38.3169 29.8146L36.319 30.0138C35.599 30.0863 35.0951 30.2306 34.8073 30.4468C34.5314 30.663 34.3936 30.9511 34.3938 31.3111C34.394 31.6711 34.5082 31.941 34.7363 32.1209C34.9765 32.3007 35.2825 32.3905 35.6545 32.3903C35.7985 32.3902 35.9425 32.3781 36.0865 32.354C36.2305 32.3179 36.3624 32.2818 36.4824 32.2457L36.7175 33.9376C36.4896 34.0217 36.2196 34.0879 35.9076 34.1361C35.5957 34.1843 35.2717 34.2085 34.9357 34.2087ZM39.0525 26.1241L37.5757 24.883C37.9956 24.7388 38.3255 24.5585 38.5653 24.3424C38.8052 24.1142 38.931 23.8382 38.9428 23.5141L41.3008 23.5126C41.301 23.8846 41.2233 24.2447 41.0675 24.5928C40.9237 24.9289 40.6839 25.229 40.3481 25.4932C40.0243 25.7575 39.5924 25.9677 39.0525 26.1241ZM46.6278 34.2552C46.0158 34.2556 45.4398 34.184 44.8997 34.0403C44.3596 33.9087 43.8555 33.717 43.3873 33.4653L44.1061 31.5028C44.3702 31.6587 44.6883 31.7965 45.0603 31.9162C45.4324 32.036 45.7985 32.0957 46.1585 32.0955C46.8305 32.0951 47.3643 31.8427 47.76 31.3385C48.1556 30.8222 48.3531 30.0541 48.3525 29.0341C48.3519 28.0741 48.1534 27.3422 47.7571 26.8385C47.3608 26.3347 46.7426 26.0831 45.9026 26.0837C45.5066 26.0839 45.0986 26.1442 44.6787 26.2645C44.2588 26.3727 43.9109 26.511 43.635 26.6791L43.6335 24.4651C44.0054 24.2969 44.4254 24.1646 44.8933 24.0683C45.3612 23.972 45.8592 23.9237 46.3872 23.9234C47.4912 23.9227 48.3913 24.1261 49.0876 24.5336C49.7839 24.9412 50.2942 25.5289 50.6187 26.2966C50.9432 27.0524 51.1058 27.9643 51.1065 29.0323C51.1076 30.7363 50.7184 32.0326 49.939 32.9211C49.1596 33.8096 48.0558 34.2543 46.6278 34.2552ZM49.2504 22.7875C48.6864 22.7879 48.2424 22.7042 47.9183 22.5364C47.5942 22.3686 47.366 22.1587 47.2339 21.9068C47.0897 21.6429 47.0175 21.367 47.0173 21.079C47.0172 20.875 47.0471 20.6589 47.1069 20.4309C47.1668 20.1909 47.2566 19.9688 47.3765 19.7647L49.3387 20.0155C49.3147 20.0995 49.2968 20.1895 49.2848 20.2855C49.2609 20.3695 49.2489 20.4475 49.249 20.5195C49.2491 20.6875 49.3032 20.8195 49.4112 20.9154C49.5073 20.9994 49.6753 21.0413 49.9153 21.0411L53.7853 21.0386L53.7864 22.7846L49.2504 22.7875ZM60.6618 34.0122L60.6577 27.6042C60.6573 27.0282 60.501 26.6143 60.1889 26.3625C59.8767 26.1107 59.3966 25.985 58.7486 25.9854C58.1246 25.9858 57.5127 26.0822 56.9128 26.2746C56.3249 26.455 55.8151 26.6713 55.3832 26.9236L55.3818 24.6916C55.7297 24.5234 56.2216 24.355 56.8575 24.1866C57.4934 24.0062 58.2253 23.9158 59.0533 23.9152C59.6893 23.9148 60.2593 23.9925 60.7634 24.1481C61.2795 24.3038 61.6517 24.6096 61.88 25.0654C62.3841 25.2211 62.7443 25.5269 62.9606 25.9827C63.1889 26.4266 63.3033 27.0025 63.3037 27.7105L63.3078 34.0105L60.6618 34.0122ZM57.7099 34.1941C56.6779 34.1948 55.8797 33.9493 55.3154 33.4576C54.7631 32.966 54.4867 32.2762 54.4861 31.3882C54.4855 30.4282 54.827 29.6599 55.5106 29.0835C56.2062 28.5071 57.298 28.1584 58.7859 28.0374L61.0898 27.8559L61.0911 29.7999L59.0932 29.9992C58.3733 30.0717 57.8693 30.216 57.5815 30.4322C57.3056 30.6484 57.1678 30.9364 57.168 31.2964C57.1683 31.6564 57.2824 31.9264 57.5106 32.1062C57.7507 32.2861 58.0567 32.3759 58.4287 32.3756C58.5727 32.3755 58.7167 32.3634 58.8607 32.3394C59.0047 32.3033 59.1367 32.2672 59.2566 32.2311L59.4917 33.923C59.2638 34.0071 58.9938 34.0733 58.6819 34.1215C58.3699 34.1697 58.0459 34.1939 57.7099 34.1941ZM61.8267 26.1094L60.3499 24.8684C60.7698 24.7241 61.0997 24.5439 61.3396 24.3278C61.5794 24.0996 61.7052 23.8235 61.717 23.4995L64.075 23.498C64.0753 23.87 63.9975 24.2301 63.8417 24.5782C63.6979 24.9142 63.4581 25.2144 63.1223 25.4786C62.7985 25.7428 62.3666 25.9531 61.8267 26.1094ZM70.32 34.186C69.348 34.1866 68.5739 33.9771 67.9976 33.5575C67.4213 33.1259 67.007 32.5381 66.7545 31.7943C66.502 31.0384 66.3754 30.1745 66.3748 29.2025C66.3741 28.1585 66.4876 27.2945 66.7152 26.6103C66.9547 25.9142 67.2904 25.3739 67.7221 24.9897C68.1539 24.5934 68.6637 24.3171 69.2516 24.1607C69.8515 23.9923 70.5054 23.9079 71.2134 23.9074C72.2934 23.9067 73.1575 24.0562 73.8057 24.3557C74.4539 24.6553 74.9222 25.081 75.2105 25.6328C75.5109 26.1847 75.6613 26.8326 75.6618 27.5766L75.6659 34.0026L72.9659 34.0043L72.9619 27.7943C72.9616 27.2303 72.8233 26.8044 72.5471 26.5166C72.2829 26.2167 71.8388 26.067 71.2148 26.0674C70.7948 26.0677 70.4229 26.1579 70.099 26.3381C69.7871 26.5063 69.5413 26.8125 69.3616 27.2566C69.1939 27.7007 69.1103 28.3368 69.1108 29.1648C69.1112 29.7288 69.1655 30.2267 69.2738 30.6587C69.382 31.0906 69.5562 31.4265 69.7964 31.6663C70.0486 31.9062 70.3846 32.026 70.8046 32.0257C70.9366 32.0256 71.0626 32.0195 71.1826 32.0074C71.3146 31.9834 71.4286 31.9593 71.5246 31.9352L71.7779 33.9511C71.5859 34.0352 71.352 34.0953 71.076 34.1315C70.812 34.1677 70.56 34.1858 70.32 34.186ZM67.9028 22.7755L67.9021 21.6415L69.7196 20.8844L76.1456 20.8802L76.1468 22.7702L67.9028 22.7755ZM73.8421 21.6737L73.8408 19.6397L76.1448 19.6382L76.1461 21.6722L73.8421 21.6737Z" fill="#FCC764"/>
</svg>
