<svg width="155" height="55" viewBox="0 0 155 55" fill="none" xmlns="http://www.w3.org/2000/svg">
<rect x="0.5" y="0.5" width="153.014" height="53.0591" rx="26.5296" stroke="#E36A46"/>
<path d="M44.2683 19.6501L39.3949 26.8532L44.2776 34.0501L41.6676 34.0517L38.1002 28.78L34.5216 34.0563L31.9116 34.058L36.7849 26.8549L31.9023 19.658L34.5123 19.6563L38.0977 24.928L41.6583 19.6517L44.2683 19.6501ZM48.2864 22.9415C47.9144 22.9417 47.6023 22.8219 47.3502 22.5821C47.098 22.3303 46.9718 22.0243 46.9716 21.6643C46.9713 21.3043 47.0971 20.9983 47.349 20.7461C47.6008 20.4939 47.9127 20.3677 48.2847 20.3675C48.6327 20.3673 48.9268 20.4931 49.167 20.7449C49.4191 20.9968 49.5453 21.3027 49.5456 21.6627C49.5458 22.0227 49.42 22.3288 49.1682 22.5809C48.9283 22.8211 48.6344 22.9413 48.2864 22.9415ZM47.153 23.8602L49.403 23.8588L49.4095 34.0468L47.1595 34.0482L47.153 23.8602ZM58.8247 23.5827C60.2527 23.5818 61.321 24.0251 62.0295 24.9127C62.7501 25.8002 63.111 27.234 63.1123 29.214L63.1154 34.038L60.8834 34.0394L60.8803 29.2154C60.8796 28.0754 60.663 27.2355 60.2307 26.6958C59.7983 26.1561 59.1142 25.8865 58.1782 25.8871C57.2302 25.8877 56.4804 26.2122 55.9288 26.8606C55.3772 27.4969 55.1018 28.4151 55.1026 29.6151L55.1054 34.0431L52.8014 34.0446L52.7949 23.8566L55.0989 23.8551L54.597 27.1854L54.939 27.1852C55.0824 26.2251 55.3219 25.487 55.6576 24.9708C55.9932 24.4425 56.413 24.0823 56.9169 23.8899C57.4328 23.6856 58.0687 23.5832 58.8247 23.5827ZM83.7923 30.2627C83.2291 31.487 82.4257 32.4236 81.3821 33.0722C80.3505 33.7089 79.1147 34.0277 77.6747 34.0286C76.3187 34.0295 75.1545 33.7182 74.1821 33.0949C73.2097 32.4715 72.4712 31.614 71.9665 30.5223C71.4618 29.4186 71.209 28.1648 71.2081 26.7608C71.2072 25.3688 71.4584 24.1386 71.9617 23.0703C72.465 21.99 73.2025 21.1495 74.1741 20.5489C75.1457 19.9362 76.3095 19.6295 77.6655 19.6286C79.1415 19.6277 80.3957 19.9629 81.4281 20.6342C82.4726 21.2935 83.2952 22.319 83.8961 23.7106L81.8809 25.0259C81.4722 23.8862 80.9317 23.0885 80.2594 22.6329C79.5871 22.1774 78.723 21.9499 77.667 21.9506C76.887 21.9511 76.1791 22.1256 75.5433 22.474C74.9195 22.8224 74.4219 23.3567 74.0503 24.0769C73.6908 24.7852 73.5114 25.6793 73.5121 26.7593C73.5131 28.4393 73.9099 29.687 74.7025 30.5025C75.507 31.306 76.5392 31.7073 77.7992 31.7065C78.7832 31.7059 79.5931 31.4894 80.2288 31.057C80.8645 30.6246 81.3681 29.9222 81.7395 28.95L83.7923 30.2627ZM92.7104 23.5609C94.1384 23.56 95.2067 24.0033 95.9152 24.8909C96.6358 25.7784 96.9967 27.2122 96.998 29.1922L97.0011 34.0162L94.7511 34.0176L94.748 29.1936C94.7473 28.0536 94.5307 27.2138 94.0984 26.6741C93.666 26.1343 92.9879 25.8648 92.0639 25.8654C91.1159 25.866 90.3661 26.1905 89.8145 26.8388C89.2629 27.4752 88.9875 28.3933 88.9883 29.5933L88.9911 34.0213L86.6871 34.0228L86.6806 23.8348L86.6626 23.8348L86.6599 19.6228L88.9639 19.6214L88.9666 23.8334L88.9846 23.8333L88.4827 27.1637L88.8247 27.1634C88.9681 26.2034 89.2076 25.4652 89.5433 24.949C89.8789 24.4208 90.2987 24.0605 90.8026 23.8682C91.3185 23.6638 91.9544 23.5614 92.7104 23.5609ZM104.208 23.9856C105.528 23.9847 106.536 24.2721 107.233 24.8476C107.941 25.4112 108.296 26.2809 108.297 27.4569L108.301 34.0089L106.429 34.0101L105.906 32.6785L105.834 32.6785C105.414 33.2068 104.97 33.5911 104.503 33.8314C104.035 34.0717 103.393 34.1921 102.577 34.1926C101.701 34.1932 100.975 33.9416 100.398 33.438C99.8221 32.9344 99.5336 32.1486 99.5329 31.0806C99.5322 30.0366 99.8977 29.2683 100.629 28.7759C101.361 28.2834 102.459 28.0067 103.923 27.9457L105.633 27.8906L105.633 27.4586C105.632 26.9426 105.494 26.5647 105.218 26.3249C104.954 26.0851 104.582 25.9653 104.102 25.9656C103.622 25.9659 103.154 26.0382 102.698 26.1825C102.242 26.3148 101.786 26.4831 101.33 26.6874L100.447 24.87C100.963 24.6056 101.545 24.3953 102.192 24.2389C102.84 24.0704 103.512 23.986 104.208 23.9856ZM105.634 29.4566L104.59 29.4933C103.726 29.5179 103.126 29.6743 102.79 29.9625C102.454 30.2507 102.287 30.6288 102.287 31.0968C102.287 31.5048 102.407 31.7987 102.647 31.9786C102.888 32.1464 103.2 32.2302 103.584 32.23C104.16 32.2296 104.645 32.0613 105.041 31.725C105.437 31.3768 105.635 30.8906 105.634 30.2666L105.634 29.4566ZM103.774 20.2238C103.954 20.4877 104.164 20.7876 104.404 21.1234C104.657 21.4473 104.909 21.7651 105.161 22.0769C105.425 22.3768 105.653 22.6406 105.846 22.8685L105.846 23.1025L104.064 23.1037C103.836 22.9478 103.566 22.756 103.253 22.5282C102.953 22.2884 102.641 22.0366 102.317 21.7728C102.005 21.509 101.711 21.2572 101.434 21.0173C101.158 20.7775 100.936 20.5737 100.768 20.4058L100.768 20.2258L103.774 20.2238ZM116.554 34.2736C115.606 34.2742 114.742 34.0348 113.962 33.5553C113.181 33.0758 112.563 32.4222 112.106 31.5945C111.662 30.7668 111.439 29.8609 111.439 28.8769C111.438 27.9049 111.66 27.0108 112.103 26.1945C112.558 25.3782 113.176 24.7298 113.956 24.2493C114.735 23.7688 115.599 23.5282 116.547 23.5276C117.495 23.527 118.359 23.7665 119.14 24.246C119.92 24.7255 120.532 25.3731 120.977 26.1888C121.422 27.0045 121.644 27.8984 121.645 28.8704C121.645 29.8544 121.424 30.7605 120.98 31.5888C120.537 32.4171 119.925 33.0715 119.146 33.552C118.366 34.0325 117.502 34.273 116.554 34.2736ZM116.553 32.0416C117.417 32.0411 118.107 31.7466 118.622 31.1583C119.138 30.558 119.395 29.8018 119.395 28.8898C119.394 27.9778 119.136 27.228 118.619 26.6403C118.103 26.0526 117.413 25.7591 116.549 25.7596C115.697 25.7602 115.007 26.0606 114.479 26.661C113.952 27.2493 113.688 27.9935 113.689 28.8935C113.689 29.8055 113.954 30.5613 114.482 31.161C115.011 31.7486 115.701 32.0422 116.553 32.0416Z" fill="#E36A46"/>
</svg>
