<svg width="146" height="146" viewBox="0 0 146 146" fill="none" xmlns="http://www.w3.org/2000/svg">
<path d="M73 0C32.7473 0 0 32.7479 0 73C0 113.252 32.7473 146 73 146C113.253 146 146 113.252 146 73C146 32.7479 113.253 0 73 0ZM138.703 53.8951C135.156 52.7317 131.265 54.0166 128.337 54.9884C127.666 55.2108 126.814 55.4937 126.254 55.6277C123.972 53.0824 120.367 52.0022 117.602 51.8505C115.397 51.7262 113.319 52.6261 111.898 54.3103C110.461 56.011 109.92 58.2301 110.413 60.399C110.635 61.385 111.066 62.3266 111.446 63.157C111.693 63.6948 112.088 64.5577 112.153 64.9763C112.056 65.0367 111.878 65.1308 111.573 65.2341C110.683 65.5386 108.464 65.0316 107.339 64.2657C106.493 63.6914 104.514 62.3483 102.062 63.1809C99.9364 63.9029 98.3407 65.8625 97.7915 68.4221C96.9851 72.1747 99.0735 74.4024 100.917 76.3683C101.205 76.6751 101.503 76.9922 101.8 77.3264C103.842 79.6162 106.526 80.5846 108.894 81.4389C109.243 81.565 109.592 81.6899 109.938 81.8205C109.819 82.0286 109.693 82.2339 109.615 82.3611C109.331 82.8231 109.052 83.2976 108.771 83.7744C108.274 84.6161 107.761 85.4864 107.239 86.2535C106.578 87.2299 105.84 88.172 105.062 89.1695C103.269 91.4633 101.416 93.8352 100.344 96.8134C99.4237 99.3604 99.2144 101.934 99.0114 104.421C98.862 106.254 98.7205 107.985 98.3088 109.624C97.9244 111.16 96.9543 112.453 95.7281 113.981C93.6995 116.504 90.9169 118.669 88.4634 120.454C86.7348 121.711 84.3452 122.866 82.766 121.225C80.9638 119.351 79.6669 116.6 78.9096 113.05C78.6113 111.647 78.56 110.126 78.5064 108.516C78.4328 106.31 78.3558 104.028 77.6287 101.787C77.3492 100.923 76.9523 100.149 76.6027 99.4659C76.0158 98.3185 75.6594 97.5771 75.7341 96.8168C76.1253 92.8446 75.1415 89.7615 72.8112 87.653C68.7335 83.962 62.0044 84.9589 60.866 85.1602C58.185 85.3421 55.9625 84.3025 53.1714 82.989L52.4716 82.6611C47.9895 80.5698 46.2672 76.7971 46.8888 70.4296C47.5059 64.1191 52.6153 58.1702 58.7718 56.5927C64.5274 55.1184 70.0948 56.5602 76.7743 58.5968C78.2634 59.0519 81.6288 59.3895 87.6861 59.6906L88.0391 59.7083C91.4165 59.8828 94.0063 59.1659 95.7572 57.5765C97.5839 55.9203 97.7613 53.9795 97.7744 53.6658C98.0196 50.2263 97.1282 47.4044 95.1253 45.2783C91.3681 41.2878 84.7216 40.8954 80.0422 40.9496C78.8212 40.9633 77.5357 41.0585 76.293 41.1515C73.4905 41.3596 70.5933 41.5752 68.3018 40.8857C67.9533 40.7808 67.7828 40.6969 67.7058 40.6507C67.6334 39.8882 68.0263 39.4571 69.9055 38.2349C70.8402 37.6264 71.8069 36.9973 72.5768 36.1082C74.7024 33.6524 74.9248 29.8484 74.9972 28.5989L75.0029 28.5196C75.0052 28.5025 75.0075 28.4843 75.0098 28.4672C75.2961 26.1785 81.5963 25.4188 85.8446 25.7656C85.9358 25.773 86.0294 25.7741 86.1206 25.7741C88.6739 25.7741 90.066 24.6016 90.7858 23.6092C92.8566 20.756 91.6144 16.3702 91.25 15.2598C90.1926 10.7572 92.4853 8.14977 93.0693 7.57261C115.011 14.3166 132.273 31.8206 138.703 53.8968V53.8951ZM32.9589 17.5502C33.2766 18.9264 33.5093 20.9755 33.6148 21.9171C33.7026 22.7007 33.7807 23.3765 33.86 23.8351C34.1874 25.7479 34.4594 27.7554 33.872 29.4264C33.2139 31.2993 31.7145 32.6658 28.8584 33.9946C28.3862 34.2153 27.9151 34.4281 27.448 34.6397C24.3022 36.0643 21.0497 37.5374 18.3675 40.6764C16.2408 43.1629 12.9193 45.7145 11.0104 45.6244C10.8114 45.617 10.5998 45.5731 10.3768 45.4419C15.3175 34.2587 23.1638 24.6432 32.9589 17.5502ZM5.329 62.7766C8.28207 62.9659 14.5321 63.83 14.7745 67.7486C14.4985 71.248 14.5418 74.6151 14.9028 77.7598C15.4555 82.5419 18.9127 85.479 21.9627 88.0699C24.7373 90.427 27.1332 92.4625 27.3596 95.4714C27.4799 97.0609 26.8708 98.7262 26.227 100.489C25.8004 101.655 25.3601 102.86 25.0852 104.147L25.0316 104.397C24.5936 106.445 24.1408 108.562 24.5725 110.95C25.0401 113.529 24.7504 115.745 23.8162 116.736C23.2591 117.325 22.3083 117.553 21.0211 117.444C10.7732 105.477 4.5625 89.9548 4.5625 73.0011C4.5625 69.5268 4.82712 66.1141 5.329 62.7777V62.7766ZM47.3354 136.426C52.917 133.725 66.0616 129.456 77.8442 141.248C76.2417 141.361 74.63 141.438 72.9994 141.438C63.9258 141.438 55.2661 139.647 47.3354 136.426ZM83.4618 140.638C65.9361 119.749 43.8815 133.003 42.1826 134.077C35.7147 130.8 29.8268 126.54 24.7367 121.473C25.8021 121.046 26.5868 120.445 27.1315 119.869C29.9306 116.907 29.4127 112.074 29.0608 110.135C28.7888 108.635 29.1156 107.114 29.492 105.352L29.5467 105.099C29.7538 104.125 30.1216 103.12 30.5111 102.056C31.2577 100.015 32.1029 97.7008 31.9078 95.1287C31.54 90.22 28.0217 87.2304 24.9158 84.5927C22.1601 82.2522 19.7807 80.2304 19.4357 77.2374C19.1026 74.3459 19.0678 71.2292 19.333 67.9744C19.341 67.8889 19.3421 67.8022 19.3399 67.7161C19.1688 62.3722 14.2829 58.8996 6.17762 58.2614C6.82436 55.3283 7.64675 52.4608 8.65734 49.6811C9.33316 49.9799 10.0637 50.1544 10.8428 50.183C10.9232 50.1864 11.0019 50.1875 11.0823 50.1875C15.9824 50.1875 20.8877 44.7478 21.835 43.6409C23.8579 41.2741 26.3941 40.1255 29.3306 38.7955C29.8119 38.5776 30.2973 38.3575 30.7843 38.1305C33.2806 36.9688 36.7623 34.959 38.1761 30.94C39.1263 28.2379 38.7676 25.4576 38.3564 23.064C38.2885 22.6682 38.2252 22.0848 38.1493 21.409C37.8522 18.7656 37.5425 16.5174 36.8901 14.9017C44.5836 10.1025 53.286 6.77701 62.6101 5.35066C62.6973 5.75444 62.7395 6.4565 62.7321 7.47679L62.731 7.88057C62.7441 10.0278 62.6785 11.4952 61.6736 12.3022C60.9014 12.921 59.8144 13.3219 58.6652 13.7462C58.039 13.9772 57.4168 14.2088 56.8197 14.474C54.1038 15.683 51.0139 17.1636 48.7172 19.4454C46.8483 21.3006 46.3122 23.1381 47.1244 24.9055C47.5087 25.7422 48.3351 26.2349 49.1986 26.2349C49.5174 26.2349 49.8413 26.1676 50.1499 26.0262C51.1958 25.546 51.7051 24.3746 51.384 23.303C51.4644 23.186 51.6224 22.9904 51.9321 22.683C53.6807 20.9459 56.3298 19.6866 58.6743 18.6424C59.1825 18.4165 59.7123 18.2232 60.245 18.0264C61.6194 17.5189 63.1781 16.9445 64.5291 15.8604C67.3305 13.6116 67.3094 10.2822 67.294 7.84863L67.2952 7.50987C67.3009 6.78672 67.298 5.8092 67.1406 4.83054C69.074 4.66572 71.025 4.5625 73.0006 4.5625C78.264 4.5625 83.3825 5.17957 88.3078 6.30993C86.9983 8.38644 85.7111 11.7929 86.8386 16.4261C86.854 16.4894 86.874 16.5573 86.8945 16.6195C87.3935 18.1034 87.5971 20.2381 87.0941 20.9288C86.9584 21.1147 86.635 21.2093 86.1337 21.2099C84.25 21.0633 71.4282 20.3419 70.4838 27.8997L70.4929 27.9008C70.4695 28.0349 70.453 28.178 70.4439 28.3308C70.2745 31.2286 69.6352 32.5346 69.1293 33.1197C68.7808 33.5224 68.0879 33.973 67.4183 34.4092C65.5791 35.6058 62.8 37.4142 63.1678 41.1081C63.3714 43.1567 64.6569 44.5505 66.9872 45.2531C70.0891 46.1862 73.5669 45.9284 76.6323 45.7003C77.8585 45.609 79.0174 45.5223 80.0941 45.5109C86.0544 45.4402 89.9075 46.3898 91.8055 48.4053C92.9125 49.5812 93.3773 51.1952 93.2267 53.3094C93.1965 53.5227 92.8058 55.3876 88.2753 55.1509L87.9131 55.1333C80.7842 54.7785 78.71 54.4169 78.1066 54.2327C72.3065 52.4648 65.0863 50.2639 57.6398 52.1728C49.5864 54.2361 43.1561 61.7272 42.3486 69.9853C41.533 78.3433 44.2135 83.8416 50.5411 86.7953L51.2283 87.1175C54.3964 88.6077 57.3894 90.0153 61.3411 89.6993C61.4255 89.6925 61.5173 89.6799 61.6006 89.6634C63.1222 89.3663 67.5524 89.036 69.7578 91.043C70.9674 92.1443 71.4374 93.8866 71.1938 96.3697C70.9834 98.5015 71.8474 100.189 72.5415 101.545C72.8397 102.127 73.1209 102.676 73.288 103.193C73.8184 104.825 73.8806 106.692 73.9462 108.669C74.0043 110.406 74.0642 112.203 74.4474 114.001C75.3845 118.396 77.0772 121.891 79.4776 124.388C80.9 125.867 82.6622 126.604 84.6024 126.604C86.651 126.604 88.8963 125.783 91.1479 124.144C93.8449 122.184 96.92 119.782 99.2851 116.84C100.463 115.372 102.077 113.36 102.735 110.736C103.239 108.732 103.402 106.731 103.559 104.794C103.746 102.503 103.922 100.339 104.636 98.3629C105.462 96.0703 107.015 94.0839 108.658 91.9806C109.45 90.9677 110.268 89.92 111.016 88.8182C111.619 87.9314 112.168 86.9978 112.702 86.0938C112.97 85.6404 113.236 85.1887 113.504 84.7502C114.227 83.5736 115.217 81.9607 114.62 80.1774C114.37 79.4303 113.735 78.4071 112.122 77.7729C111.568 77.5551 111.006 77.352 110.444 77.149C108.317 76.3814 106.48 75.7187 105.207 74.2918C104.883 73.9279 104.559 73.5829 104.246 73.2492C102.414 71.2948 101.978 70.66 102.252 69.3825C102.407 68.6634 102.834 67.7394 103.531 67.5028C103.689 67.4514 103.949 67.4805 104.774 68.0411C106.537 69.2394 110.267 70.5009 113.046 69.5548C114.722 68.9839 115.843 68.0605 116.383 66.8104C117.232 64.8348 116.324 62.853 115.596 61.2601C115.293 60.6003 114.981 59.9182 114.862 59.3929C114.689 58.6327 114.88 57.8542 115.384 57.2571C115.673 56.9155 116.299 56.3423 117.354 56.409C119.37 56.5191 121.937 57.3677 123.13 59.0125C124.602 61.0394 127.115 60.2039 129.775 59.3211C132.285 58.4878 135.724 57.3472 137.871 58.4736C139.002 59.0655 139.825 60.29 140.39 62.216C140.454 62.4355 140.557 62.6312 140.676 62.8131C141.174 66.1386 141.438 69.5405 141.438 73.0029C141.438 107.183 116.25 135.59 83.4618 140.641V140.638Z" fill="#CECECE"/>
</svg>
