<?xml version="1.0" encoding="UTF-8"?>
<svg id="Layer_2" data-name="Layer 2" xmlns="http://www.w3.org/2000/svg" viewBox="0 0 251.6 310.79">
  <defs>
    <style>
      .cls-1 {
        fill: #373737;
      }

      .cls-2 {
        fill: #000b1d;
      }
    </style>
  </defs>
  <g id="adobe_products_set" data-name="adobe products set">
    <g id="outline_black" data-name="outline black">
      <path class="cls-1" d="M49.22,303.55h-8.69l-2.17,6.55c-.03.2-.16.3-.41.3h-3.93c-.25,0-.34-.12-.26-.37l7.79-22.24c.23-.67.34-1.38.34-2.1,0-.15.09-.22.26-.22h5.39c.13,0,.24.07.3.19l8.69,24.41c.07.22,0,.34-.22.34h-4.42c-.17,0-.32-.1-.37-.26l-2.28-6.59ZM41.51,299.92h6.74c-.1-.35-.63-1.93-1.57-4.75-.92-2.85-1.53-4.79-1.83-5.84h-.04c-.3,1.27-1.4,4.8-3.29,10.59M70.01,295.58h-6.4v14.45c0,.25-.11.37-.34.37h-4.08c-.16.02-.31-.09-.34-.25,0-.03,0-.06,0-.08v-14.49h-2.25c-.18,0-.26-.1-.26-.3v-2.81c-.02-.14.08-.28.22-.3.02,0,.05,0,.08,0h2.21v-1.68c-.04-1.38.23-2.74.79-4.01,1.02-2.25,3.34-3.63,5.8-3.44.81-.03,1.63.1,2.4.38.13.08.22.22.22.37v3.18c0,.2-.09.27-.26.22-.51-.24-1.08-.35-1.65-.34-1.7,0-2.55,1.13-2.55,3.37v1.95h6.4c.22-2.77.36-4.31.41-4.6.05-.2.15-.31.3-.33l3.97-.75c.2-.05.3.01.3.19-.1,1.02-.17,2.86-.22,5.5h3.59c.13-.02.25.07.26.2,0,.02,0,.04,0,.06v2.88c.02.13-.07.24-.2.26-.02,0-.04,0-.06,0h-3.59v9.4c-.06.68.1,1.36.45,1.95.43.43,1.04.63,1.65.56.54,0,1.07-.09,1.57-.26.05-.02.11,0,.15.04.05.06.08.14.07.22v2.21c.01.2-.09.39-.26.48-1.09.45-2.27.66-3.44.6-3.29,0-4.94-1.76-4.94-5.28v-9.92ZM92.14,302.16h-7.52c-.04,1.36.48,2.69,1.42,3.67,1.15.97,2.62,1.45,4.12,1.35,1.6.04,3.18-.28,4.64-.94.15-.05.22.01.22.19v2.81c.02.18-.07.36-.22.45-1.78.77-3.71,1.14-5.65,1.09-1.5.03-2.99-.24-4.38-.79-1.14-.45-2.15-1.18-2.92-2.13-.69-.88-1.22-1.86-1.57-2.92-.33-1.12-.49-2.28-.49-3.44-.08-2.5.76-4.93,2.36-6.85,1.62-1.88,4.03-2.92,6.51-2.81,2.2-.16,4.35.69,5.84,2.32,1.29,1.51,1.98,3.44,1.95,5.43,0,.71-.05,1.43-.15,2.14-.01.16-.14.29-.3.3-1.28.13-2.57.18-3.86.15M84.61,299.24h5.32c.66.03,1.33,0,1.98-.07.03-.17.04-.35.04-.52,0-.91-.28-1.81-.82-2.54-.63-.8-1.61-1.22-2.62-1.13-1.07-.05-2.09.41-2.77,1.24-.68.87-1.07,1.93-1.12,3.03M99.16,292.17h3.71c.2,0,.37.14.41.34.22.72.36,1.46.41,2.21,1.4-1.89,3.64-2.97,5.99-2.88.13-.02.25.07.26.2,0,.02,0,.04,0,.06v3.86c.02.14-.08.28-.22.3-.03,0-.05,0-.08,0-1.99-.25-3.98.41-5.43,1.8-.23.24-.35.57-.34.9v11.16c.02.14-.08.28-.22.3-.03,0-.05,0-.08,0h-4.12c-.22,0-.34-.1-.34-.3v-12.61c0-1.95-.06-3.63-.19-5.05-.03-.18.05-.26.23-.26M135.72,307.11l-.56,2.99c0,.17-.14.3-.31.3,0,0-.02,0-.03,0h-15.01c-.16.02-.31-.09-.34-.25,0-.03,0-.06,0-.08v-24.3c-.02-.14.08-.28.22-.3.02,0,.05,0,.08,0h14.56c.17-.02.33.09.37.26l.41,2.99c.05.22-.04.34-.26.34h-10.63v6.81h9.62c.17,0,.26.1.26.3v3.07c0,.18-.1.26-.3.26h-9.58v7.3h11.23c.2,0,.29.1.26.3M143.17,310.4h-4.08c-.16.02-.31-.09-.34-.25,0-.03,0-.06,0-.08v-14.49h-2.28c-.11.01-.21-.06-.22-.17,0-.02,0-.04,0-.06v-2.88c0-.2.09-.3.26-.3h2.25v-1.65c-.11-2,.53-3.98,1.8-5.54,1.73-1.75,4.29-2.39,6.64-1.65.15.05.24.19.22.34v3.11c0,.18-.1.25-.3.22-.39-.11-.79-.16-1.2-.15-1.6,0-2.4,1.17-2.4,3.52v1.8h6.48v-1.68c-.1-1.95.49-3.88,1.68-5.43,1.2-1.37,2.96-2.11,4.78-2.02.78-.03,1.56.09,2.28.38.17.04.28.2.26.37v3.14c0,.23-.09.3-.26.23-.49-.19-1.01-.29-1.53-.3-.69-.03-1.35.22-1.83.71-.54.77-.79,1.72-.67,2.66v1.95h3.29c.17,0,.26.1.26.3v2.81c0,.2-.09.3-.26.3h-3.29v14.49c0,.22-.1.34-.3.34h-4.12c-.2,0-.3-.11-.3-.34v-14.49h-6.48v14.45c0,.25-.11.37-.34.37M171.01,302.16h-7.52c-.04,1.36.48,2.69,1.42,3.67,1.15.97,2.62,1.45,4.12,1.35,1.6.04,3.18-.28,4.64-.94.15-.05.22.01.22.19v2.81c.02.18-.07.36-.22.45-1.78.77-3.71,1.14-5.65,1.09-1.5.03-2.99-.24-4.38-.79-1.14-.45-2.15-1.18-2.92-2.13-.69-.88-1.22-1.86-1.57-2.92-.33-1.12-.5-2.28-.49-3.44-.08-2.5.76-4.93,2.36-6.85,1.63-1.88,4.03-2.92,6.51-2.81,2.2-.16,4.35.69,5.84,2.32,1.29,1.51,1.98,3.44,1.95,5.43,0,.71-.05,1.43-.15,2.14-.01.16-.14.29-.3.3-1.28.13-2.57.18-3.86.15M163.49,299.24h5.32c.66.03,1.33,0,1.98-.07.03-.17.04-.35.04-.52.01-.91-.28-1.81-.82-2.54-.63-.8-1.61-1.22-2.62-1.13-1.07-.05-2.09.41-2.77,1.24-.68.87-1.07,1.93-1.12,3.03M191.24,306.77v3c.02.14-.06.28-.19.34-1.38.5-2.84.73-4.31.68-2.58.14-5.09-.81-6.93-2.62-1.7-1.83-2.6-4.27-2.5-6.77-.08-2.57.92-5.06,2.77-6.85,1.95-1.84,4.55-2.81,7.23-2.7,1.26-.07,2.52.11,3.71.52.13.1.22.25.22.41l-.04,3c0,.25-.1.32-.3.22-1.02-.47-2.13-.71-3.26-.67-1.49-.06-2.94.52-3.97,1.61-1.02,1.2-1.54,2.74-1.46,4.31-.11,1.63.48,3.24,1.61,4.42,1.05.99,2.45,1.53,3.89,1.5,1.11.03,2.22-.16,3.26-.56.17-.07.25-.01.25.19M203.84,307.41v2.28c0,.25-.07.4-.22.45-1.09.47-2.26.68-3.44.64-3.32,0-4.98-1.76-4.98-5.28v-9.92h-2.28c-.17,0-.26-.11-.26-.34v-2.77c-.02-.14.08-.28.22-.3.03,0,.05,0,.08,0h2.25c.05-1.53.18-3.05.41-4.57.05-.2.15-.31.3-.34l4.01-.52c.17-.05.26.01.26.19-.1,1.12-.17,2.87-.22,5.24h3.59c.17,0,.26.1.26.3v2.85c0,.17-.07.26-.22.26h-3.63v9.43c-.05.66.11,1.31.45,1.87.44.42,1.04.62,1.65.56.52,0,1.04-.09,1.53-.26.17-.05.26.02.26.22M216.89,296.47c-1.3-.85-2.82-1.3-4.38-1.31-.69-.05-1.37.12-1.95.49-.37.27-.59.7-.6,1.16,0,.45.19.89.52,1.2.67.5,1.42.89,2.21,1.16,1.62.52,3.1,1.39,4.34,2.55.86.92,1.33,2.15,1.27,3.41.04,1.6-.68,3.13-1.95,4.12-1.5,1.1-3.34,1.64-5.2,1.54-1.87.07-3.73-.34-5.39-1.2-.15-.06-.25-.21-.22-.37v-3.48c0-.1.03-.16.07-.19.05-.03.14-.05.19,0,1.49,1.15,3.32,1.78,5.2,1.8.69.04,1.38-.11,1.98-.45.44-.26.71-.73.71-1.24.01-.5-.19-.97-.56-1.31-.66-.53-1.4-.94-2.21-1.2-1.56-.51-2.99-1.35-4.19-2.47-.79-.94-1.2-2.14-1.16-3.37-.02-1.49.62-2.92,1.76-3.89,1.42-1.13,3.21-1.69,5.02-1.57,1.6-.08,3.2.2,4.68.82.13.07.19.24.19.49v3.11c0,.3-.11.37-.34.22"/>
      <g>
        <path class="cls-2" d="M208.16,251.6H43.44c-23.95,0-43.44-19.49-43.44-43.44V43.44C0,19.49,19.49,0,43.44,0h164.72c23.95,0,43.44,19.49,43.44,43.44v164.72c0,23.95-19.49,43.44-43.44,43.44ZM43.44,12c-17.33,0-31.44,14.1-31.44,31.44v164.72c0,17.33,14.1,31.44,31.44,31.44h164.72c17.33,0,31.44-14.1,31.44-31.44V43.44c0-17.33-14.1-31.44-31.44-31.44H43.44Z"/>
        <path class="cls-2" d="M104.39,152.27h-36.57l-7.44,24.11c-.21.87-1.01,1.47-1.9,1.42h-18.53c-1.05,0-1.42-.58-1.11-1.74l31.67-89.91c.32-.95.63-2.03.95-3.25.42-2.11.63-4.26.63-6.41-.07-.54.3-1.03.83-1.11.09-.01.18-.01.28,0h25.17c.74,0,1.16.27,1.27.79l35.94,100.04c.32,1.06,0,1.59-.95,1.58h-20.58c-.73.08-1.41-.39-1.58-1.11l-8.07-24.43ZM73.52,135.42h25.01c-.63-2.11-1.37-6.44-2.22-9.08-.84-2.64-1.74-5.46-2.69-8.47-.95-3.01-1.9-6.01-2.85-9.02s-1.82-5.91-2.62-8.71c-.8-2.8-1.5-5.36-2.14-7.67h-.16c-.89,4.28-2,8.5-3.33,12.67-1.48,4.75-2.98,9.6-4.51,14.56-1.52,4.96-3.02,11.5-4.5,15.73"/>
        <path class="cls-2" d="M193.62,143.63h-31.19c.45,3.21,1.55,6.29,3.22,9.07,1.77,2.64,4.27,4.7,7.2,5.94,4.04,1.81,8.42,2.74,12.84,2.73,2.96.07,5.93-.16,8.84-.69,3.18-.57,6.29-1.5,9.26-2.77.53-.42.79-.16.79.79v15.04c.03.41-.06.82-.24,1.19-.18.29-.42.53-.71.71-3.28,1.55-6.74,2.69-10.3,3.4-4.25.6-8.54.77-12.82.5-6.46.2-12.88-.99-18.84-3.48-4.79-2.11-9.02-5.31-12.35-9.34-3.11-3.8-5.43-8.19-6.81-12.9-1.37-4.65-2.06-9.48-2.06-14.33-.01-5.3.81-10.56,2.45-15.59,1.58-4.91,4.08-9.48,7.36-13.46,3.24-3.93,7.3-7.12,11.89-9.34,5.16-2.38,10.79-3.55,16.47-3.4,5.53-.07,11.01,1.01,16.1,3.18,4.06,1.84,7.62,4.64,10.37,8.15,2.59,3.35,4.57,7.13,5.85,11.16,1.25,3.89,1.89,7.95,1.9,12.03,0,2.32-.08,4.43-.24,6.33-.13,1.13-.34,2.25-.61,3.36-.08.72-.7,1.27-1.42,1.27-.63,0-1.71.08-3.24.24-1.53.16-4.25.1-6.52.15s-4.67.08-7.2.08M162.35,131.06h20.73c2.53,0,4.41-.03,5.62-.08.77,0,1.54-.08,2.3-.24v-.95c.09-1.89-.02-3.79-.33-5.66-1.76-5.55-7.01-9.25-12.82-9.02-5.44-.33-10.57,2.59-13.06,7.44-1.18,2.72-2,5.58-2.43,8.51"/>
      </g>
    </g>
  </g>
</svg>