<svg width="4001" height="4001" viewBox="0 0 4001 4001" fill="none" xmlns="http://www.w3.org/2000/svg">
<g clip-path="url(#clip0_2084_195)">
<path d="M4000.94 0.109375H0V4000.94H4000.94V0.109375Z" fill="#FFFAF2"/>
<path d="M285.78 0H0V285.77H285.78V0Z" fill="white"/>
<path d="M571.56 0H285.78V285.77H571.56V0Z" fill="#FFFAF2"/>
<path d="M285.78 285.77H0V571.54H285.78V285.77Z" fill="#FFFAF2"/>
<path d="M571.56 285.77H285.78V571.54H571.56V285.77Z" fill="white"/>
<path d="M857.34 0H571.56V285.77H857.34V0Z" fill="white"/>
<path d="M1143.12 0H857.34V285.77H1143.12V0Z" fill="#FFFAF2"/>
<path d="M857.34 285.77H571.56V571.54H857.34V285.77Z" fill="#FFFAF2"/>
<path d="M1143.12 285.77H857.34V571.54H1143.12V285.77Z" fill="white"/>
<path d="M1428.91 0H1143.13V285.77H1428.91V0Z" fill="white"/>
<path d="M1714.69 0H1428.91V285.77H1714.69V0Z" fill="#FFFAF2"/>
<path d="M1428.91 285.77H1143.13V571.54H1428.91V285.77Z" fill="#FFFAF2"/>
<path d="M1714.69 285.77H1428.91V571.54H1714.69V285.77Z" fill="white"/>
<path d="M2000.47 0H1714.69V285.77H2000.47V0Z" fill="white"/>
<path d="M2286.25 0H2000.47V285.77H2286.25V0Z" fill="#FFFAF2"/>
<path d="M2000.47 285.77H1714.69V571.54H2000.47V285.77Z" fill="#FFFAF2"/>
<path d="M2286.25 285.77H2000.47V571.54H2286.25V285.77Z" fill="white"/>
<path d="M2572.03 0H2286.25V285.77H2572.03V0Z" fill="white"/>
<path d="M2857.81 0H2572.03V285.77H2857.81V0Z" fill="#FFFAF2"/>
<path d="M2572.03 285.77H2286.25V571.54H2572.03V285.77Z" fill="#FFFAF2"/>
<path d="M2857.81 285.77H2572.03V571.54H2857.81V285.77Z" fill="white"/>
<path d="M3143.6 0H2857.82V285.77H3143.6V0Z" fill="white"/>
<path d="M3429.38 0H3143.6V285.77H3429.38V0Z" fill="#FFFAF2"/>
<path d="M3143.6 285.77H2857.82V571.54H3143.6V285.77Z" fill="#FFFAF2"/>
<path d="M3429.38 285.77H3143.6V571.54H3429.38V285.77Z" fill="white"/>
<path d="M3715.16 0H3429.38V285.77H3715.16V0Z" fill="white"/>
<path d="M4000.94 0H3715.16V285.77H4000.94V0Z" fill="#FFFAF2"/>
<path d="M3715.16 285.77H3429.38V571.54H3715.16V285.77Z" fill="#FFFAF2"/>
<path d="M4000.94 285.77H3715.16V571.54H4000.94V285.77Z" fill="white"/>
<path d="M285.78 571.32H0V857.09H285.78V571.32Z" fill="white"/>
<path d="M571.56 571.32H285.78V857.09H571.56V571.32Z" fill="#FFFAF2"/>
<path d="M285.78 857.09H0V1142.86H285.78V857.09Z" fill="#FFFAF2"/>
<path d="M571.56 857.09H285.78V1142.86H571.56V857.09Z" fill="white"/>
<path d="M857.34 571.32H571.56V857.09H857.34V571.32Z" fill="white"/>
<path d="M1143.12 571.32H857.34V857.09H1143.12V571.32Z" fill="#FFFAF2"/>
<path d="M857.34 857.09H571.56V1142.86H857.34V857.09Z" fill="#FFFAF2"/>
<path d="M1143.12 857.09H857.34V1142.86H1143.12V857.09Z" fill="white"/>
<path d="M1428.91 571.32H1143.13V857.09H1428.91V571.32Z" fill="white"/>
<path d="M1714.69 571.32H1428.91V857.09H1714.69V571.32Z" fill="#FFFAF2"/>
<path d="M1428.91 857.09H1143.13V1142.86H1428.91V857.09Z" fill="#FFFAF2"/>
<path d="M1714.69 857.09H1428.91V1142.86H1714.69V857.09Z" fill="white"/>
<path d="M2000.47 571.32H1714.69V857.09H2000.47V571.32Z" fill="white"/>
<path d="M2286.25 571.32H2000.47V857.09H2286.25V571.32Z" fill="#FFFAF2"/>
<path d="M2000.47 857.09H1714.69V1142.86H2000.47V857.09Z" fill="#FFFAF2"/>
<path d="M2286.25 857.09H2000.47V1142.86H2286.25V857.09Z" fill="white"/>
<path d="M2572.03 571.32H2286.25V857.09H2572.03V571.32Z" fill="white"/>
<path d="M2857.81 571.32H2572.03V857.09H2857.81V571.32Z" fill="#FFFAF2"/>
<path d="M2572.03 857.09H2286.25V1142.86H2572.03V857.09Z" fill="#FFFAF2"/>
<path d="M2857.81 857.09H2572.03V1142.86H2857.81V857.09Z" fill="white"/>
<path d="M3143.6 571.32H2857.82V857.09H3143.6V571.32Z" fill="white"/>
<path d="M3429.38 571.32H3143.6V857.09H3429.38V571.32Z" fill="#FFFAF2"/>
<path d="M3143.6 857.09H2857.82V1142.86H3143.6V857.09Z" fill="#FFFAF2"/>
<path d="M3429.38 857.09H3143.6V1142.86H3429.38V857.09Z" fill="white"/>
<path d="M3715.16 571.32H3429.38V857.09H3715.16V571.32Z" fill="white"/>
<path d="M4000.94 571.32H3715.16V857.09H4000.94V571.32Z" fill="#FFFAF2"/>
<path d="M3715.16 857.09H3429.38V1142.86H3715.16V857.09Z" fill="#FFFAF2"/>
<path d="M4000.94 857.09H3715.16V1142.86H4000.94V857.09Z" fill="white"/>
<path d="M285.78 1142.64H0V1428.41H285.78V1142.64Z" fill="white"/>
<path d="M571.56 1142.64H285.78V1428.41H571.56V1142.64Z" fill="#FFFAF2"/>
<path d="M285.78 1428.41H0V1714.18H285.78V1428.41Z" fill="#FFFAF2"/>
<path d="M571.56 1428.41H285.78V1714.18H571.56V1428.41Z" fill="white"/>
<path d="M857.34 1142.64H571.56V1428.41H857.34V1142.64Z" fill="white"/>
<path d="M1143.12 1142.64H857.34V1428.41H1143.12V1142.64Z" fill="#FFFAF2"/>
<path d="M857.34 1428.41H571.56V1714.18H857.34V1428.41Z" fill="#FFFAF2"/>
<path d="M1143.12 1428.41H857.34V1714.18H1143.12V1428.41Z" fill="white"/>
<path d="M1428.91 1142.64H1143.13V1428.41H1428.91V1142.64Z" fill="white"/>
<path d="M1714.69 1142.64H1428.91V1428.41H1714.69V1142.64Z" fill="#FFFAF2"/>
<path d="M1428.91 1428.41H1143.13V1714.18H1428.91V1428.41Z" fill="#FFFAF2"/>
<path d="M1714.69 1428.41H1428.91V1714.18H1714.69V1428.41Z" fill="white"/>
<path d="M2000.47 1142.64H1714.69V1428.41H2000.47V1142.64Z" fill="white"/>
<path d="M2286.25 1142.64H2000.47V1428.41H2286.25V1142.64Z" fill="#FFFAF2"/>
<path d="M2000.47 1428.41H1714.69V1714.18H2000.47V1428.41Z" fill="#FFFAF2"/>
<path d="M2286.25 1428.41H2000.47V1714.18H2286.25V1428.41Z" fill="white"/>
<path d="M2572.03 1142.64H2286.25V1428.41H2572.03V1142.64Z" fill="white"/>
<path d="M2857.81 1142.64H2572.03V1428.41H2857.81V1142.64Z" fill="#FFFAF2"/>
<path d="M2572.03 1428.41H2286.25V1714.18H2572.03V1428.41Z" fill="#FFFAF2"/>
<path d="M2857.81 1428.41H2572.03V1714.18H2857.81V1428.41Z" fill="white"/>
<path d="M3143.6 1142.64H2857.82V1428.41H3143.6V1142.64Z" fill="white"/>
<path d="M3429.38 1142.64H3143.6V1428.41H3429.38V1142.64Z" fill="#FFFAF2"/>
<path d="M3143.6 1428.41H2857.82V1714.18H3143.6V1428.41Z" fill="#FFFAF2"/>
<path d="M3429.38 1428.41H3143.6V1714.18H3429.38V1428.41Z" fill="white"/>
<path d="M3715.16 1142.64H3429.38V1428.41H3715.16V1142.64Z" fill="white"/>
<path d="M4000.94 1142.64H3715.16V1428.41H4000.94V1142.64Z" fill="#FFFAF2"/>
<path d="M3715.16 1428.41H3429.38V1714.18H3715.16V1428.41Z" fill="#FFFAF2"/>
<path d="M4000.94 1428.41H3715.16V1714.18H4000.94V1428.41Z" fill="white"/>
<path d="M285.78 1713.95H0V1999.72H285.78V1713.95Z" fill="white"/>
<path d="M571.56 1713.95H285.78V1999.72H571.56V1713.95Z" fill="#FFFAF2"/>
<path d="M285.78 1999.73H0V2285.5H285.78V1999.73Z" fill="#FFFAF2"/>
<path d="M571.56 1999.73H285.78V2285.5H571.56V1999.73Z" fill="white"/>
<path d="M857.34 1713.95H571.56V1999.72H857.34V1713.95Z" fill="white"/>
<path d="M1143.12 1713.95H857.34V1999.72H1143.12V1713.95Z" fill="#FFFAF2"/>
<path d="M857.34 1999.73H571.56V2285.5H857.34V1999.73Z" fill="#FFFAF2"/>
<path d="M1143.12 1999.73H857.34V2285.5H1143.12V1999.73Z" fill="white"/>
<path d="M1428.91 1713.95H1143.13V1999.72H1428.91V1713.95Z" fill="white"/>
<path d="M1714.69 1713.95H1428.91V1999.72H1714.69V1713.95Z" fill="#FFFAF2"/>
<path d="M1428.91 1999.73H1143.13V2285.5H1428.91V1999.73Z" fill="#FFFAF2"/>
<path d="M1714.69 1999.73H1428.91V2285.5H1714.69V1999.73Z" fill="white"/>
<path d="M2000.47 1713.95H1714.69V1999.72H2000.47V1713.95Z" fill="white"/>
<path d="M2286.25 1713.95H2000.47V1999.72H2286.25V1713.95Z" fill="#FFFAF2"/>
<path d="M2000.47 1999.73H1714.69V2285.5H2000.47V1999.73Z" fill="#FFFAF2"/>
<path d="M2286.25 1999.73H2000.47V2285.5H2286.25V1999.73Z" fill="white"/>
<path d="M2572.03 1713.95H2286.25V1999.72H2572.03V1713.95Z" fill="white"/>
<path d="M2857.81 1713.95H2572.03V1999.72H2857.81V1713.95Z" fill="#FFFAF2"/>
<path d="M2572.03 1999.73H2286.25V2285.5H2572.03V1999.73Z" fill="#FFFAF2"/>
<path d="M2857.81 1999.73H2572.03V2285.5H2857.81V1999.73Z" fill="white"/>
<path d="M3143.6 1713.95H2857.82V1999.72H3143.6V1713.95Z" fill="white"/>
<path d="M3429.38 1713.95H3143.6V1999.72H3429.38V1713.95Z" fill="#FFFAF2"/>
<path d="M3143.6 1999.73H2857.82V2285.5H3143.6V1999.73Z" fill="#FFFAF2"/>
<path d="M3429.38 1999.73H3143.6V2285.5H3429.38V1999.73Z" fill="white"/>
<path d="M3715.16 1713.95H3429.38V1999.72H3715.16V1713.95Z" fill="white"/>
<path d="M4000.94 1713.95H3715.16V1999.72H4000.94V1713.95Z" fill="#FFFAF2"/>
<path d="M3715.16 1999.73H3429.38V2285.5H3715.16V1999.73Z" fill="#FFFAF2"/>
<path d="M4000.94 1999.73H3715.16V2285.5H4000.94V1999.73Z" fill="white"/>
<path d="M285.78 2285.27H0V2571.04H285.78V2285.27Z" fill="white"/>
<path d="M571.56 2285.27H285.78V2571.04H571.56V2285.27Z" fill="#FFFAF2"/>
<path d="M285.78 2571.05H0V2856.82H285.78V2571.05Z" fill="#FFFAF2"/>
<path d="M571.56 2571.05H285.78V2856.82H571.56V2571.05Z" fill="white"/>
<path d="M857.34 2285.27H571.56V2571.04H857.34V2285.27Z" fill="white"/>
<path d="M1143.12 2285.27H857.34V2571.04H1143.12V2285.27Z" fill="#FFFAF2"/>
<path d="M857.34 2571.05H571.56V2856.82H857.34V2571.05Z" fill="#FFFAF2"/>
<path d="M1143.12 2571.05H857.34V2856.82H1143.12V2571.05Z" fill="white"/>
<path d="M1428.91 2285.27H1143.13V2571.04H1428.91V2285.27Z" fill="white"/>
<path d="M1714.69 2285.27H1428.91V2571.04H1714.69V2285.27Z" fill="#FFFAF2"/>
<path d="M1428.91 2571.05H1143.13V2856.82H1428.91V2571.05Z" fill="#FFFAF2"/>
<path d="M1714.69 2571.05H1428.91V2856.82H1714.69V2571.05Z" fill="white"/>
<path d="M2000.47 2285.27H1714.69V2571.04H2000.47V2285.27Z" fill="white"/>
<path d="M2286.25 2285.27H2000.47V2571.04H2286.25V2285.27Z" fill="#FFFAF2"/>
<path d="M2000.47 2571.05H1714.69V2856.82H2000.47V2571.05Z" fill="#FFFAF2"/>
<path d="M2286.25 2571.05H2000.47V2856.82H2286.25V2571.05Z" fill="white"/>
<path d="M2572.03 2285.27H2286.25V2571.04H2572.03V2285.27Z" fill="white"/>
<path d="M2857.81 2285.27H2572.03V2571.04H2857.81V2285.27Z" fill="#FFFAF2"/>
<path d="M2572.03 2571.05H2286.25V2856.82H2572.03V2571.05Z" fill="#FFFAF2"/>
<path d="M2857.81 2571.05H2572.03V2856.82H2857.81V2571.05Z" fill="white"/>
<path d="M3143.6 2285.27H2857.82V2571.04H3143.6V2285.27Z" fill="white"/>
<path d="M3429.38 2285.27H3143.6V2571.04H3429.38V2285.27Z" fill="#FFFAF2"/>
<path d="M3143.6 2571.05H2857.82V2856.82H3143.6V2571.05Z" fill="#FFFAF2"/>
<path d="M3429.38 2571.05H3143.6V2856.82H3429.38V2571.05Z" fill="white"/>
<path d="M3715.16 2285.27H3429.38V2571.04H3715.16V2285.27Z" fill="white"/>
<path d="M4000.94 2285.27H3715.16V2571.04H4000.94V2285.27Z" fill="#FFFAF2"/>
<path d="M3715.16 2571.05H3429.38V2856.82H3715.16V2571.05Z" fill="#FFFAF2"/>
<path d="M4000.94 2571.05H3715.16V2856.82H4000.94V2571.05Z" fill="white"/>
<path d="M285.78 2856.59H0V3142.36H285.78V2856.59Z" fill="white"/>
<path d="M571.56 2856.59H285.78V3142.36H571.56V2856.59Z" fill="#FFFAF2"/>
<path d="M285.78 3142.36H0V3428.13H285.78V3142.36Z" fill="#FFFAF2"/>
<path d="M571.56 3142.36H285.78V3428.13H571.56V3142.36Z" fill="white"/>
<path d="M857.34 2856.59H571.56V3142.36H857.34V2856.59Z" fill="white"/>
<path d="M1143.12 2856.59H857.34V3142.36H1143.12V2856.59Z" fill="#FFFAF2"/>
<path d="M857.34 3142.36H571.56V3428.13H857.34V3142.36Z" fill="#FFFAF2"/>
<path d="M1143.12 3142.36H857.34V3428.13H1143.12V3142.36Z" fill="white"/>
<path d="M1428.91 2856.59H1143.13V3142.36H1428.91V2856.59Z" fill="white"/>
<path d="M1714.69 2856.59H1428.91V3142.36H1714.69V2856.59Z" fill="#FFFAF2"/>
<path d="M1428.91 3142.36H1143.13V3428.13H1428.91V3142.36Z" fill="#FFFAF2"/>
<path d="M1714.69 3142.36H1428.91V3428.13H1714.69V3142.36Z" fill="white"/>
<path d="M2000.47 2856.59H1714.69V3142.36H2000.47V2856.59Z" fill="white"/>
<path d="M2286.25 2856.59H2000.47V3142.36H2286.25V2856.59Z" fill="#FFFAF2"/>
<path d="M2000.47 3142.36H1714.69V3428.13H2000.47V3142.36Z" fill="#FFFAF2"/>
<path d="M2286.25 3142.36H2000.47V3428.13H2286.25V3142.36Z" fill="white"/>
<path d="M2572.03 2856.59H2286.25V3142.36H2572.03V2856.59Z" fill="white"/>
<path d="M2857.81 2856.59H2572.03V3142.36H2857.81V2856.59Z" fill="#FFFAF2"/>
<path d="M2572.03 3142.36H2286.25V3428.13H2572.03V3142.36Z" fill="#FFFAF2"/>
<path d="M2857.81 3142.36H2572.03V3428.13H2857.81V3142.36Z" fill="white"/>
<path d="M3143.6 2856.59H2857.82V3142.36H3143.6V2856.59Z" fill="white"/>
<path d="M3429.38 2856.59H3143.6V3142.36H3429.38V2856.59Z" fill="#FFFAF2"/>
<path d="M3143.6 3142.36H2857.82V3428.13H3143.6V3142.36Z" fill="#FFFAF2"/>
<path d="M3429.38 3142.36H3143.6V3428.13H3429.38V3142.36Z" fill="white"/>
<path d="M3715.16 2856.59H3429.38V3142.36H3715.16V2856.59Z" fill="white"/>
<path d="M4000.94 2856.59H3715.16V3142.36H4000.94V2856.59Z" fill="#FFFAF2"/>
<path d="M3715.16 3142.36H3429.38V3428.13H3715.16V3142.36Z" fill="#FFFAF2"/>
<path d="M4000.94 3142.36H3715.16V3428.13H4000.94V3142.36Z" fill="white"/>
<path d="M285.78 3427.91H0V3713.68H285.78V3427.91Z" fill="white"/>
<path d="M571.56 3427.91H285.78V3713.68H571.56V3427.91Z" fill="#FFFAF2"/>
<path d="M285.78 3713.68H0V3999.45H285.78V3713.68Z" fill="#FFFAF2"/>
<path d="M571.56 3713.68H285.78V3999.45H571.56V3713.68Z" fill="white"/>
<path d="M857.34 3427.91H571.56V3713.68H857.34V3427.91Z" fill="white"/>
<path d="M1143.12 3427.91H857.34V3713.68H1143.12V3427.91Z" fill="#FFFAF2"/>
<path d="M857.34 3713.68H571.56V3999.45H857.34V3713.68Z" fill="#FFFAF2"/>
<path d="M1143.12 3713.68H857.34V3999.45H1143.12V3713.68Z" fill="white"/>
<path d="M1428.91 3427.91H1143.13V3713.68H1428.91V3427.91Z" fill="white"/>
<path d="M1714.69 3427.91H1428.91V3713.68H1714.69V3427.91Z" fill="#FFFAF2"/>
<path d="M1428.91 3713.68H1143.13V3999.45H1428.91V3713.68Z" fill="#FFFAF2"/>
<path d="M1714.69 3713.68H1428.91V3999.45H1714.69V3713.68Z" fill="white"/>
<path d="M2000.47 3427.91H1714.69V3713.68H2000.47V3427.91Z" fill="white"/>
<path d="M2286.25 3427.91H2000.47V3713.68H2286.25V3427.91Z" fill="#FFFAF2"/>
<path d="M2000.47 3713.68H1714.69V3999.45H2000.47V3713.68Z" fill="#FFFAF2"/>
<path d="M2286.25 3713.68H2000.47V3999.45H2286.25V3713.68Z" fill="white"/>
<path d="M2572.03 3427.91H2286.25V3713.68H2572.03V3427.91Z" fill="white"/>
<path d="M2857.81 3427.91H2572.03V3713.68H2857.81V3427.91Z" fill="#FFFAF2"/>
<path d="M2572.03 3713.68H2286.25V3999.45H2572.03V3713.68Z" fill="#FFFAF2"/>
<path d="M2857.81 3713.68H2572.03V3999.45H2857.81V3713.68Z" fill="white"/>
<path d="M3143.6 3427.91H2857.82V3713.68H3143.6V3427.91Z" fill="white"/>
<path d="M3429.38 3427.91H3143.6V3713.68H3429.38V3427.91Z" fill="#FFFAF2"/>
<path d="M3143.6 3713.68H2857.82V3999.45H3143.6V3713.68Z" fill="#FFFAF2"/>
<path d="M3429.38 3713.68H3143.6V3999.45H3429.38V3713.68Z" fill="white"/>
<path d="M3715.16 3427.91H3429.38V3713.68H3715.16V3427.91Z" fill="white"/>
<path d="M4000.94 3427.91H3715.16V3713.68H4000.94V3427.91Z" fill="#FFFAF2"/>
<path d="M3715.16 3713.68H3429.38V3999.45H3715.16V3713.68Z" fill="#FFFAF2"/>
<path d="M4000.94 3713.68H3715.16V3999.45H4000.94V3713.68Z" fill="white"/>
</g>
<defs>
<clipPath id="clip0_2084_195">
<rect width="4000.94" height="4000.94" fill="white"/>
</clipPath>
</defs>
</svg>
