<?xml version="1.0" encoding="UTF-8"?>
<svg id="Layer_2" data-name="Layer 2" xmlns="http://www.w3.org/2000/svg" viewBox="0 0 121.96 121.96">
  <g id="Layer_2-2" data-name="Layer 2">
    <g>
      <path d="M103.08,18.88c0-3.18,0-6.37,0-9.55h-18.11c-.08,0-.25.39-.56-.11V0h37.21l.33.33v37.21h-9.22l-.11-18.66c-3.18,0-6.37-.01-9.55,0,0,3.11,0,6.22,0,9.33-3.11,0-6.22,0-9.33,0,0,3.11,0,6.22,0,9.33-3.11,0-6.22,0-9.33,0,0,3.11,0,6.22,0,9.33h-9.33v-9.33c3.11,0,6.22,0,9.33,0,0-3.11,0-6.22,0-9.33,3.11,0,6.22,0,9.33,0,0-3.11,0-6.22,0-9.33,3.11,0,6.22,0,9.33,0Z"/>
      <polygon points="84.42 9.55 84.42 18.55 84.08 18.88 56.2 18.88 56.2 28.21 18.99 28.21 18.66 27.88 18.66 19.22 18.99 18.88 46.87 18.88 46.87 9.55 84.42 9.55"/>
      <polygon points="112.41 37.54 112.41 75.09 103.08 75.09 103.08 102.97 102.74 103.3 94.08 103.3 93.75 102.97 93.75 65.76 103.08 65.76 103.08 37.88 103.41 37.54 112.41 37.54"/>
      <path d="M65.53,56.43c0-2.56-.36-6.67,0-9,.03-.19.05-.34.22-.46.16-.13.28.13.34.13h8.77v8.77c0,.05.42.29-.1.49-3.06.12-6.16.05-9.23.07-.03,9.33,0,18.66,0,27.99,3.1,0,6.21-.02,9.31.02v18.1s.35.77.35.77h18.55v9.33h-9.33v9.33h-9.33v-9.33h-9.55c.01-9.4,0-18.81,0-28.21-3.11,0-6.22,0-9.33,0v-18.66h-18.66v-9.33c9.33-.02,18.66.03,27.99,0Z"/>
      <polygon points="18.66 28.21 18.66 46.76 18.99 47.1 37.54 47.1 37.54 56.09 37.21 56.43 9.66 56.43 9.33 56.09 9.33 46.87 0 46.87 0 37.54 9.33 37.54 9.33 28.21 18.66 28.21"/>
    </g>
  </g>
</svg>