<?xml version="1.0" encoding="UTF-8"?>
<svg id="Layer_2" data-name="Layer 2" xmlns="http://www.w3.org/2000/svg" viewBox="0 0 251.6 319.4">
  <defs>
    <style>
      .cls-1 {
        fill: #373737;
      }

      .cls-2 {
        fill: #000b1d;
      }
    </style>
  </defs>
  <g id="adobe_products_set" data-name="adobe products set">
    <g id="outline_black" data-name="outline black">
      <path class="cls-1" d="M66.62,285.77v24.3c0,.22-.11.34-.3.34h-4.12c-.16.02-.31-.09-.34-.25,0-.03,0-.06,0-.08v-24.3c0-.2.11-.3.34-.3h4.12c.15-.02.28.09.3.23,0,.02,0,.04,0,.07M70.63,310.06v-13.55c.02-1.35-.03-2.7-.15-4.04-.04-.2.04-.3.22-.3h3.59c.21,0,.4.12.48.3.16.48.24.99.26,1.5,1.47-1.4,3.43-2.16,5.47-2.13,1.64-.03,3.23.59,4.42,1.72,1.4,1.56,2.08,3.64,1.87,5.73v10.78c0,.22-.09.34-.3.34h-4.12c-.16.02-.31-.09-.34-.25,0-.03,0-.06,0-.08v-10.89c.06-.96-.22-1.91-.79-2.7-.57-.67-1.44-1.03-2.32-.97-1.37,0-2.68.6-3.56,1.65v12.95c0,.2-.11.3-.34.3h-4.12c-.19,0-.3-.11-.3-.34M90.62,310.06v-24.3c-.02-.14.08-.28.22-.3h0c1.57-.05,4.13-.07,7.71-.07,3.53-.25,7,.99,9.58,3.41,2.24,2.38,3.43,5.57,3.29,8.84.02,1.73-.26,3.45-.82,5.09-.46,1.36-1.2,2.61-2.17,3.67-.89.96-1.94,1.76-3.11,2.36-1.16.61-2.39,1.06-3.67,1.35-1.24.25-2.51.38-3.78.37-2.4,0-4.74-.02-7.04-.07-.15,0-.23-.11-.23-.34M95.37,288.99v17.89c.9.05,1.78.07,2.62.07,2.32.14,4.59-.67,6.29-2.25,1.65-1.94,2.45-4.46,2.24-7,.21-2.38-.54-4.75-2.06-6.59-1.57-1.54-3.72-2.34-5.91-2.21-1.72,0-2.79.02-3.18.07M126.16,302.16h-7.52c-.04,1.36.48,2.69,1.42,3.67,1.15.97,2.62,1.45,4.12,1.35,1.6.04,3.18-.28,4.64-.94.15-.05.22.01.22.19v2.81c.02.18-.07.36-.22.45-1.79.77-3.71,1.13-5.65,1.09-1.5.03-2.99-.24-4.38-.79-1.14-.44-2.15-1.18-2.92-2.13-.68-.88-1.21-1.87-1.57-2.92-.33-1.12-.49-2.28-.49-3.44-.08-2.5.76-4.93,2.36-6.85,1.62-1.89,4.03-2.92,6.51-2.81,2.2-.17,4.35.69,5.84,2.32,1.28,1.52,1.98,3.44,1.95,5.43,0,.71-.05,1.43-.15,2.14,0,.16-.14.29-.3.3-1.28.13-2.57.18-3.86.15M118.64,299.24h5.32c.66.03,1.33,0,1.98-.07.03-.17.04-.35.04-.53,0-.91-.28-1.81-.82-2.54-.63-.8-1.61-1.22-2.62-1.13-1.07-.05-2.09.41-2.77,1.24-.68.87-1.07,1.93-1.12,3.03M143.87,296.47c-1.3-.85-2.82-1.3-4.38-1.31-.68-.05-1.37.12-1.95.49-.37.27-.59.7-.6,1.16,0,.45.2.89.53,1.2.67.5,1.42.89,2.21,1.16,1.62.52,3.1,1.39,4.34,2.55.87.91,1.33,2.15,1.27,3.41.05,1.61-.68,3.14-1.95,4.12-1.5,1.1-3.34,1.64-5.2,1.53-1.87.07-3.73-.34-5.39-1.2-.16-.06-.25-.21-.22-.37v-3.48c0-.07.02-.14.07-.19.07-.05.15-.05.19,0,1.49,1.15,3.32,1.78,5.2,1.8.69.04,1.38-.11,1.98-.45.44-.25.71-.73.71-1.24.01-.5-.19-.98-.56-1.31-.65-.53-1.4-.94-2.21-1.2-1.56-.51-2.99-1.36-4.19-2.47-.79-.94-1.2-2.14-1.16-3.37-.02-1.49.63-2.92,1.76-3.89,1.42-1.13,3.21-1.69,5.02-1.57,1.6-.08,3.2.2,4.68.82.13.07.19.24.19.49v3.11c0,.3-.11.37-.34.22M147.6,310.06v-17.6c-.02-.14.07-.28.22-.3.03,0,.05,0,.08,0h4.16c.14-.02.28.08.3.22,0,.03,0,.05,0,.08v17.63c.02.14-.07.28-.22.3-.03,0-.06,0-.08,0h-4.12c-.16.02-.31-.09-.34-.25,0-.03,0-.06,0-.08M151.83,288.39c-1.06.9-2.61.9-3.67,0-.47-.49-.71-1.16-.67-1.84-.02-.68.23-1.34.71-1.83.49-.48,1.15-.74,1.83-.71.67-.03,1.33.23,1.8.71.46.5.7,1.16.67,1.83.04.68-.21,1.34-.67,1.84M165.64,298.08c.05-.9-.23-1.79-.78-2.51-.54-.66-1.36-1.03-2.21-.97-.83-.03-1.63.3-2.21.9-.61.69-.92,1.59-.86,2.51-.04.91.25,1.8.83,2.51.57.61,1.38.94,2.21.9.83.04,1.63-.28,2.21-.86.59-.69.88-1.57.82-2.47M168.22,313.1c0-1.77-1.53-2.66-4.6-2.66-.97-.02-1.95.03-2.92.15-1.06.42-1.78,1.41-1.87,2.55.02.89.49,1.72,1.24,2.21,1.02.67,2.22,1,3.44.94,1.25.09,2.49-.25,3.52-.97.72-.51,1.17-1.33,1.2-2.21M172.34,292.43v2.85c.02.13-.07.25-.2.26-.02,0-.04,0-.06,0l-2.88-.19c.63.84.93,1.88.86,2.92.08,1.71-.69,3.35-2.06,4.38-1.54,1.08-3.4,1.62-5.28,1.53-.45,0-.91-.04-1.35-.15-.58.28-.95.86-.97,1.5,0,.7.45,1.32,1.12,1.53h3.45c5.3,0,7.94,1.8,7.93,5.39-.02,1.97-1.02,3.81-2.66,4.9-2.03,1.44-4.48,2.15-6.96,2.02-2.32.15-4.63-.46-6.59-1.72-1.43-.9-2.3-2.47-2.32-4.16,0-1.6,1.12-3.03,3.37-4.31-.98-.62-1.59-1.68-1.61-2.85.08-1.31.85-2.48,2.02-3.07-2.02-.9-3.26-2.96-3.11-5.17-.02-1.73.73-3.38,2.06-4.49,1.55-1.26,3.51-1.9,5.5-1.8,1.15-.02,2.31.07,3.44.26.28.06.57.08.86.07h5.17c.13-.01.24.07.26.2,0,.02,0,.04,0,.06M174.57,310.06v-13.55c0-1.65-.06-2.99-.15-4.04-.06-.2.02-.3.22-.3h3.59c.2,0,.39.12.49.3.14.49.22.99.26,1.5,1.47-1.4,3.43-2.17,5.47-2.13,1.64-.02,3.22.6,4.42,1.72,1.39,1.57,2.07,3.64,1.87,5.73v10.78c0,.22-.11.34-.3.34h-4.12c-.16.02-.31-.09-.34-.25,0-.03,0-.06,0-.08v-10.89c.06-.96-.22-1.91-.79-2.7-.58-.67-1.44-1.03-2.32-.97-1.37-.01-2.68.59-3.55,1.65v12.95c0,.2-.11.3-.34.3h-4.12c-.21,0-.3-.11-.3-.34"/>
      <g>
        <path class="cls-2" d="M208.16,251.6H43.44c-23.95,0-43.44-19.49-43.44-43.44V43.44C0,19.49,19.49,0,43.44,0h164.72c23.95,0,43.44,19.49,43.44,43.44v164.72c0,23.95-19.49,43.44-43.44,43.44ZM43.44,12c-17.33,0-31.44,14.1-31.44,31.44v164.72c0,17.33,14.1,31.44,31.44,31.44h164.72c17.33,0,31.44-14.1,31.44-31.44V43.44c0-17.33-14.1-31.44-31.44-31.44H43.44Z"/>
        <path class="cls-2" d="M91.11,76.89v99.21c0,1.06-.48,1.59-1.43,1.58h-18.11c-.85,0-1.26-.53-1.26-1.58v-99.21c0-.84.47-1.27,1.42-1.27h18.11c.62-.08,1.18.35,1.27.96.01.1.01.21,0,.31h0Z"/>
        <path class="cls-2" d="M149.89,179.83c-7.29.11-14.51-1.4-21.14-4.43-6.17-2.86-11.33-7.52-14.8-13.38-3.81-6.84-5.67-14.59-5.38-22.41-.06-7.27,1.8-14.42,5.38-20.74,3.69-6.44,9.12-11.7,15.67-15.2,7.66-3.99,16.22-5.95,24.85-5.69.53,0,1.21.03,2.06.08.84.05,2.69.13,3.86.24v-29.97c0-.74.32-1.11.95-1.11h18.36c.46-.07.88.26.95.71.01.08.01.16,0,.23v92.34c0,1.8.08,3.75.24,5.86.16,2.11.29,4.01.39,5.7.04.67-.34,1.3-.95,1.58-4.89,2.14-10,3.73-15.25,4.75-5.01.93-10.1,1.41-15.2,1.43M160.4,160.2v-43.22c-1.14-.23-2.3-.38-3.46-.47-1.08-.11-2.17-.16-3.25-.16-3.84-.04-7.64.83-11.08,2.53-7.55,3.6-12.13,11.44-11.56,19.79-.08,3.45.49,6.88,1.66,10.13.96,2.61,2.47,4.99,4.43,6.97,1.88,1.82,4.16,3.17,6.65,3.96,2.63.85,5.39,1.28,8.15,1.27,1.48,0,2.85-.05,4.12-.16,1.46-.09,2.91-.3,4.33-.63h0Z"/>
      </g>
    </g>
  </g>
</svg>