<?xml version="1.0" encoding="UTF-8"?>
<svg id="Layer_2" data-name="Layer 2" xmlns="http://www.w3.org/2000/svg" viewBox="0 0 251.6 312.92">
  <defs>
    <style>
      .cls-1 {
        fill: #221f20;
      }

      .cls-2 {
        fill: #000b1d;
      }
    </style>
  </defs>
  <g id="adobe_products_set" data-name="adobe products set">
    <g id="outline_black" data-name="outline black">
      <g>
        <path class="cls-2" d="M208.16,251.6H43.44c-23.95,0-43.44-19.49-43.44-43.44V43.44C0,19.49,19.49,0,43.44,0h164.72c23.95,0,43.44,19.49,43.44,43.44v164.72c0,23.95-19.49,43.44-43.44,43.44ZM43.44,12c-17.33,0-31.44,14.1-31.44,31.44v164.72c0,17.33,14.1,31.44,31.44,31.44h164.72c17.33,0,31.44-14.1,31.44-31.44V43.44c0-17.33-14.1-31.44-31.44-31.44H43.44Z"/>
        <path class="cls-1" d="M158.7,59.17c-8.62-4.48-17.88-6.87-27.58-7.51-.48-.03-.97-.18-1.44-.29h-7.73c-2.35.3-4.72.53-7.06.91-25.05,4.18-43.5,17.59-55.39,39.96-4.67,8.8-7.17,18.29-7.83,28.25-.04.49-.19.97-.29,1.44v7.74c.29,2.3.51,4.61.89,6.89,4.19,25.36,17.78,43.95,40.5,55.82,8.65,4.51,17.97,6.92,27.73,7.57.48.03.96.19,1.44.29h7.73c2.3-.29,4.61-.51,6.89-.9,25.24-4.15,43.78-17.66,55.68-40.23,4.59-8.73,7.05-18.13,7.69-27.99.04-.48.2-.96.29-1.43v-7.74c-.29-2.29-.5-4.61-.88-6.89-4.21-25.42-17.84-44.02-40.65-55.87ZM96.2,185.91c-14.66-7.45-25.53-18.62-31.97-33.83-7.51-17.74-7.18-35.54.21-53.23.14,0,.27,0,.42,0,10.56,28.94,21.13,57.88,31.68,86.82-.11.07-.22.15-.34.23ZM106.82,190.03c6.69-19.42,13.33-38.7,19.96-57.98.14-.01.27-.01.41-.01,6.9,18.9,13.8,37.79,20.8,56.96-13.61,4.67-27.19,5.02-41.16,1.03ZM159.15,166.4c-8.12-24.18-16.14-47.97-24.2-71.98,2.03-.17,3.88-.33,5.73-.51.69-.05,1.39-.11,2.06-.24,1.61-.29,2.48-1.4,2.36-2.89-.15-1.55-1.25-2.51-2.99-2.42-3.87.2-7.73.64-11.59.62-7.28-.03-14.57-.31-21.85-.5-.69-.02-1.39-.14-2.07-.12-1.52.04-2.49.99-2.63,2.5-.14,1.51.64,2.58,2.21,2.8,1.86.26,3.74.47,5.61.55,1.13.05,1.75.37,2.16,1.53,3.11,8.66,6.31,17.3,9.43,25.96.24.65.39,1.5.17,2.12-4.64,14.06-9.33,28.09-14.02,42.13-.06.19-.14.35-.55.63-8.06-23.96-16.12-47.93-24.26-72.16,2.09-.17,3.9-.33,5.72-.49.59-.04,1.18-.08,1.77-.18,1.96-.33,2.78-1.31,2.6-3.1-.17-1.57-1.28-2.37-3.24-2.26-3.95.21-7.92.53-11.88.68-3.15.11-6.31.02-9.91.02,9.74-14.26,22.53-23.83,38.98-27.99,23.17-5.86,43.78-.4,62.31,15.2-1.08.13-1.72.19-2.36.29-6.26,1.04-10.53,6.92-9.68,13.21.42,3.06,1.55,5.83,3.06,8.47,1.6,2.8,3.3,5.52,4.86,8.35,4.42,8.12,5.22,16.63,2.61,25.46-3.31,11.15-6.69,22.28-10.04,33.43-.04.16-.13.32-.36.92ZM192.08,135.22c-3.17,21.08-14.24,37.02-32.14,48.27-.15-.07-.28-.14-.42-.21.34-1.02.68-2.04,1.03-3.05,6.36-18.39,12.67-36.78,19.1-55.14,1.84-5.28,3.71-10.55,4.57-16.11.76-4.88.84-9.76.49-14.69,6.95,12.83,9.53,26.52,7.36,40.92Z"/>
        <g>
          <path d="M62.72,280.62h5.31l-7.04,25.02h-4.99l-3.02-14.63-.88-4.84-.88,4.84-3.02,14.63h-4.85l-7.09-25.02h5.55l3.31,14.32.71,3.99.73-3.9,2.82-14.41h5.52l2.97,14.32.76,3.99.76-3.84,3.34-14.48Z"/>
          <path d="M85.62,289.48c1.56,1.96,2.34,4.27,2.34,6.94s-.78,5.04-2.34,6.97-3.93,2.89-7.11,2.89-5.55-.96-7.11-2.89-2.34-4.25-2.34-6.97.78-4.98,2.34-6.94,3.93-2.94,7.11-2.94,5.55.98,7.11,2.94ZM78.49,290.63c-1.41,0-2.5.5-3.27,1.5s-1.15,2.43-1.15,4.29.38,3.29,1.15,4.29,1.85,1.51,3.27,1.51,2.5-.5,3.26-1.51,1.14-2.44,1.14-4.29-.38-3.28-1.14-4.29-1.84-1.5-3.26-1.5Z"/>
          <path d="M100.72,291.6c-1.95,0-3.25.63-3.92,1.9-.37.71-.56,1.81-.56,3.29v8.84h-4.87v-18.5h4.62v3.22c.75-1.23,1.4-2.08,1.95-2.53.91-.76,2.08-1.14,3.53-1.14.09,0,.17,0,.23,0s.2.01.42.03v4.96c-.31-.03-.58-.06-.81-.07s-.43-.02-.58-.02Z"/>
          <path d="M121.78,280.65v24.98h-4.7v-2.56c-.69,1.1-1.48,1.9-2.36,2.39s-1.98.75-3.29.75c-2.16,0-3.98-.87-5.46-2.62s-2.21-3.99-2.21-6.73c0-3.16.73-5.64,2.18-7.45,1.45-1.81,3.4-2.72,5.83-2.72,1.12,0,2.12.25,2.99.74s1.58,1.17,2.12,2.05v-8.83h4.91ZM108.75,296.5c0,1.71.34,3.07,1.02,4.09.67,1.03,1.69,1.54,3.06,1.54s2.41-.51,3.12-1.53,1.07-2.34,1.07-3.95c0-2.26-.57-3.88-1.71-4.85-.7-.59-1.52-.88-2.44-.88-1.41,0-2.45.53-3.11,1.6s-.99,2.4-.99,3.98Z"/>
          <path d="M141.68,289.12c1.49,1.6,2.24,3.94,2.24,7.03,0,3.26-.73,5.74-2.2,7.45s-3.35,2.56-5.66,2.56c-1.47,0-2.69-.37-3.67-1.1-.53-.41-1.05-1-1.56-1.78v9.64h-4.79v-25.78h4.63v2.73c.52-.8,1.07-1.44,1.66-1.9,1.07-.83,2.35-1.24,3.84-1.24,2.16,0,3.99.8,5.5,2.39ZM138.93,296.39c0-1.43-.33-2.69-.98-3.78s-1.71-1.65-3.17-1.65c-1.75,0-2.96.83-3.62,2.49-.34.88-.51,2-.51,3.36,0,2.15.57,3.66,1.71,4.53.68.51,1.48.76,2.41.76,1.35,0,2.37-.52,3.08-1.56s1.06-2.43,1.06-4.16Z"/>
          <path d="M156.71,291.6c-1.95,0-3.25.63-3.92,1.9-.37.71-.56,1.81-.56,3.29v8.84h-4.87v-18.5h4.62v3.22c.75-1.23,1.4-2.08,1.95-2.53.91-.76,2.08-1.14,3.53-1.14.09,0,.17,0,.23,0s.2.01.42.03v4.96c-.31-.03-.58-.06-.81-.07s-.43-.02-.58-.02Z"/>
          <path d="M176.78,300.21c-.12,1.1-.7,2.21-1.71,3.34-1.58,1.8-3.8,2.7-6.65,2.7-2.35,0-4.43-.76-6.23-2.27-1.8-1.52-2.7-3.98-2.7-7.4,0-3.2.81-5.66,2.44-7.37s3.73-2.56,6.32-2.56c1.54,0,2.92.29,4.16.87s2.25,1.49,3.06,2.73c.72,1.1,1.19,2.37,1.41,3.82.12.85.18,2.07.15,3.67h-12.66c.07,1.86.65,3.16,1.75,3.9.67.46,1.47.7,2.41.7,1,0,1.8-.28,2.43-.85.34-.31.64-.73.9-1.27h4.94ZM171.99,294.54c-.08-1.28-.47-2.25-1.16-2.91s-1.56-.99-2.59-.99c-1.12,0-1.99.35-2.61,1.05s-1,1.65-1.16,2.85h7.52Z"/>
          <path d="M193.02,287.98c1.45.93,2.28,2.52,2.49,4.79h-4.84c-.07-.62-.24-1.11-.53-1.48-.53-.66-1.44-.98-2.72-.98-1.05,0-1.8.16-2.25.49s-.67.71-.67,1.15c0,.55.24.96.71,1.21.48.26,2.16.71,5.04,1.34,1.92.45,3.37,1.14,4.33,2.05.95.93,1.43,2.09,1.43,3.48,0,1.83-.68,3.33-2.05,4.49s-3.47,1.74-6.32,1.74-5.06-.61-6.44-1.84-2.08-2.79-2.08-4.69h4.91c.1.86.32,1.47.66,1.83.6.64,1.71.97,3.33.97.95,0,1.71-.14,2.27-.42s.84-.71.84-1.27-.23-.96-.68-1.24-2.13-.77-5.04-1.46c-2.09-.52-3.57-1.17-4.43-1.95-.86-.77-1.29-1.88-1.29-3.33,0-1.71.67-3.18,2.01-4.4s3.23-1.84,5.66-1.84,4.19.46,5.65,1.37Z"/>
          <path d="M212.35,287.98c1.45.93,2.28,2.52,2.49,4.79h-4.84c-.07-.62-.24-1.11-.53-1.48-.53-.66-1.44-.98-2.72-.98-1.05,0-1.8.16-2.25.49s-.67.71-.67,1.15c0,.55.24.96.71,1.21.48.26,2.16.71,5.04,1.34,1.92.45,3.37,1.14,4.33,2.05.95.93,1.43,2.09,1.43,3.48,0,1.83-.68,3.33-2.05,4.49s-3.47,1.74-6.32,1.74-5.06-.61-6.44-1.84c-1.39-1.23-2.08-2.79-2.08-4.69h4.91c.1.86.32,1.47.66,1.83.6.64,1.71.97,3.33.97.95,0,1.71-.14,2.27-.42s.84-.71.84-1.27-.23-.96-.68-1.24-2.13-.77-5.04-1.46c-2.09-.52-3.57-1.17-4.43-1.95-.86-.77-1.29-1.88-1.29-3.33,0-1.71.67-3.18,2.01-4.4s3.23-1.84,5.66-1.84,4.19.46,5.65,1.37Z"/>
        </g>
      </g>
    </g>
  </g>
</svg>