<?xml version="1.0" encoding="UTF-8"?>
<svg id="Layer_2" data-name="Layer 2" xmlns="http://www.w3.org/2000/svg" viewBox="0 0 120 140">
  <defs>
    <style>
      .cls-1 {
        fill: #fff;
      }
    </style>
  </defs>
  <g id="Layer_2-2" data-name="Layer 2">
    <g>
      <rect y="100" width="20" height="20" transform="translate(-100 120) rotate(-90)"/>
      <rect x="0" y="20" width="20" height="20" transform="translate(-20 40) rotate(-90)"/>
      <rect x="20" y="120" width="20" height="20" transform="translate(-100 160) rotate(-90)"/>
      <rect class="cls-1" x="20" y="100" width="20" height="20" transform="translate(-80 140) rotate(-90)"/>
      <rect x="20" y="80" width="20" height="20" transform="translate(-60 120) rotate(-90)"/>
      <rect x="20" y="40" width="20" height="20" transform="translate(-20 80) rotate(-90)"/>
      <rect class="cls-1" x="20" y="20" width="20" height="20" transform="translate(0 60) rotate(-90)"/>
      <rect x="20" y="0" width="20" height="20" transform="translate(20 40) rotate(-90)"/>
      <rect x="40" y="120" width="20" height="20" transform="translate(-80 180) rotate(-90)"/>
      <rect class="cls-1" x="40" y="100" width="20" height="20" transform="translate(-60 160) rotate(-90)"/>
      <rect class="cls-1" x="40" y="80" width="20" height="20" transform="translate(-40 140) rotate(-90)"/>
      <rect x="40" y="60" width="20" height="20" transform="translate(-20 120) rotate(-90)"/>
      <rect class="cls-1" x="40" y="40" width="20" height="20" transform="translate(0 100) rotate(-90)"/>
      <rect class="cls-1" x="40" y="20" width="20" height="20" transform="translate(20 80) rotate(-90)"/>
      <rect x="40" y="0" width="20" height="20" transform="translate(40 60) rotate(-90)"/>
      <rect x="60" y="100" width="20" height="20" transform="translate(-40 180) rotate(-90)"/>
      <rect class="cls-1" x="60" y="80" width="20" height="20" transform="translate(-20 160) rotate(-90)"/>
      <rect class="cls-1" x="60" y="60" width="20" height="20" transform="translate(0 140) rotate(-90)"/>
      <rect class="cls-1" x="60" y="40" width="20" height="20" transform="translate(20 120) rotate(-90)"/>
      <rect x="60" y="20" width="20" height="20" transform="translate(40 100) rotate(-90)"/>
      <rect x="80" y="80" width="20" height="20" transform="translate(0 180) rotate(-90)"/>
      <rect class="cls-1" x="80" y="60" width="20" height="20" transform="translate(20 160) rotate(-90)"/>
      <rect x="80" y="40" width="20" height="20" transform="translate(40 140) rotate(-90)"/>
      <rect x="100" y="60" width="20" height="20" transform="translate(40 180) rotate(-90)"/>
    </g>
  </g>
</svg>