<?xml version="1.0" encoding="UTF-8"?>
<svg id="Layer_2" data-name="Layer 2" xmlns="http://www.w3.org/2000/svg" viewBox="0 0 905.76 568.56">
  <defs>
    <style>
      .cls-1 {
        fill: #fff;
      }
    </style>
  </defs>
  <g id="Layer_1-2" data-name="Layer 1">
    <path class="cls-1" d="M753.91,170.54c-11.62,0-22.96,1.33-33.81,3.87.04-1.29.04-2.58.04-3.87,0-75.11-59.63-136.01-133.18-136.01-41.97,0-79.38,19.83-103.77,50.78C454.31,34.32,400.35,0,338.55,0c-92.22,0-166.99,76.36-166.99,170.54v1.29c-6.44-.87-13.05-1.29-19.7-1.29C68,170.54,0,239.98,0,325.63s68,155.09,151.86,155.09c14.64,0,28.84-2.12,42.22-6.08,17.46,54.32,67.51,93.52,126.53,93.52,43.69,0,82.48-21.49,106.79-54.69,29.98,33.82,73.34,55.11,121.59,55.11,66.49,0,123.75-40.41,149.45-98.52,17.17,6.87,35.89,10.66,55.47,10.66,83.86,0,151.86-69.44,151.86-155.09s-68-155.09-151.86-155.09Z"/>
  </g>
</svg>