<?xml version="1.0" encoding="UTF-8"?>
<svg id="Layer_2" data-name="Layer 2" xmlns="http://www.w3.org/2000/svg" viewBox="0 0 7000 3000">
  <defs>
    <style>
      .cls-1 {
        fill: #bcbec0;
      }
    </style>
  </defs>
  <g id="Layer_1-2" data-name="Layer 1">
    <g>
      <path class="cls-1" d="M233.33,0H0v3000h700V0H233.33ZM237.33,4h225.33v206.29h-225.33V4ZM462.67,2781.71h-225.33v-206.29h225.33v206.29ZM462.67,2567.43h-225.33v-206.29h225.33v206.29ZM462.67,2353.14h-225.33v-206.29h225.33v206.29ZM462.67,2138.86h-225.33v-206.29h225.33v206.29ZM462.67,1924.57h-225.33v-206.29h225.33v206.29ZM462.67,1710.29h-225.33v-206.29h225.33v206.29ZM462.67,1496h-225.33v-206.29h225.33v206.29ZM462.67,1281.71h-225.33v-206.29h225.33v206.29ZM462.67,1067.43h-225.33v-206.29h225.33v206.29ZM462.67,853.14h-225.33v-206.29h225.33v206.29ZM462.67,638.86h-225.33v-206.29h225.33v206.29ZM462.67,424.57h-225.33v-206.29h225.33v206.29ZM4,4h225.33v206.29H4V4ZM229.33,218.29v206.29H4v-206.29h225.33ZM229.33,432.57v206.29H4v-206.29h225.33ZM229.33,646.86v206.29H4v-206.29h225.33ZM229.33,861.14v206.29H4v-206.29h225.33ZM229.33,1075.43v206.29H4v-206.29h225.33ZM229.33,1289.71v206.29H4v-206.29h225.33ZM229.33,1504v206.29H4v-206.29h225.33ZM229.33,1718.29v206.29H4v-206.29h225.33ZM229.33,1932.57v206.29H4v-206.29h225.33ZM229.33,2146.86v206.29H4v-206.29h225.33ZM229.33,2361.14v206.29H4v-206.29h225.33ZM229.33,2575.43v206.29H4v-206.29h225.33ZM229.33,2996H4v-206.29h225.33v206.29ZM462.67,2996h-225.33v-206.29h225.33v206.29ZM696,2996h-225.33v-206.29h225.33v206.29ZM470.67,2781.71v-206.29h225.33v206.29h-225.33ZM470.67,2567.43v-206.29h225.33v206.29h-225.33ZM470.67,2353.14v-206.29h225.33v206.29h-225.33ZM470.67,2138.86v-206.29h225.33v206.29h-225.33ZM470.67,1924.57v-206.29h225.33v206.29h-225.33ZM470.67,1710.29v-206.29h225.33v206.29h-225.33ZM470.67,1496v-206.29h225.33v206.29h-225.33ZM470.67,1281.71v-206.29h225.33v206.29h-225.33ZM470.67,1067.43v-206.29h225.33v206.29h-225.33ZM470.67,853.14v-206.29h225.33v206.29h-225.33ZM470.67,638.86v-206.29h225.33v206.29h-225.33ZM470.67,424.57v-206.29h225.33v206.29h-225.33ZM470.67,4h225.33v206.29h-225.33V4Z"/>
      <path class="cls-1" d="M700,214.29v2785.71h233.33V0h-233.33v214.29ZM929.33,2996h-225.33v-206.29h225.33v206.29ZM929.33,2575.43v206.29h-225.33v-206.29h225.33ZM929.33,2361.14v206.29h-225.33v-206.29h225.33ZM929.33,2146.86v206.29h-225.33v-206.29h225.33ZM929.33,1932.57v206.29h-225.33v-206.29h225.33ZM929.33,1718.29v206.29h-225.33v-206.29h225.33ZM929.33,1504v206.29h-225.33v-206.29h225.33ZM929.33,1289.71v206.29h-225.33v-206.29h225.33ZM929.33,1075.43v206.29h-225.33v-206.29h225.33ZM929.33,861.14v206.29h-225.33v-206.29h225.33ZM929.33,646.86v206.29h-225.33v-206.29h225.33ZM929.33,432.57v206.29h-225.33v-206.29h225.33ZM929.33,218.29v206.29h-225.33v-206.29h225.33ZM704,4h225.33v206.29h-225.33V4Z"/>
      <path class="cls-1" d="M6766.67,0H933.33v3000h6066.67V0h-233.33ZM6770.67,4h225.33v206.29h-225.33V4ZM6537.33,4h225.33v206.29h-225.33V4ZM6762.67,2781.71h-225.33v-206.29h225.33v206.29ZM6529.33,2781.71h-225.33v-206.29h225.33v206.29ZM6296,2781.71h-225.33v-206.29h225.33v206.29ZM6062.67,2781.71h-225.33v-206.29h225.33v206.29ZM5829.33,2781.71h-225.33v-206.29h225.33v206.29ZM5596,2781.71h-225.33v-206.29h225.33v206.29ZM5362.67,2781.71h-225.33v-206.29h225.33v206.29ZM5129.33,2781.71h-225.33v-206.29h225.33v206.29ZM4896,2781.71h-225.33v-206.29h225.33v206.29ZM4662.67,2781.71h-225.33v-206.29h225.33v206.29ZM4429.33,2781.71h-225.33v-206.29h225.33v206.29ZM4196,2781.71h-225.33v-206.29h225.33v206.29ZM3962.67,2781.71h-225.33v-206.29h225.33v206.29ZM3729.33,2781.71h-225.33v-206.29h225.33v206.29ZM3496,2781.71h-225.33v-206.29h225.33v206.29ZM3262.67,2781.71h-225.33v-206.29h225.33v206.29ZM3029.33,2781.71h-225.33v-206.29h225.33v206.29ZM2796,2781.71h-225.33v-206.29h225.33v206.29ZM2562.67,2781.71h-225.33v-206.29h225.33v206.29ZM2329.33,2781.71h-225.33v-206.29h225.33v206.29ZM2096,2781.71h-225.33v-206.29h225.33v206.29ZM1862.67,2781.71h-225.33v-206.29h225.33v206.29ZM1629.33,2781.71h-225.33v-206.29h225.33v206.29ZM1396,2781.71h-225.33v-206.29h225.33v206.29ZM1170.67,218.29h225.33v206.29h-225.33v-206.29ZM1404,218.29h225.33v206.29h-225.33v-206.29ZM1637.33,218.29h225.33v206.29h-225.33v-206.29ZM1870.67,218.29h225.33v206.29h-225.33v-206.29ZM2104,218.29h225.33v206.29h-225.33v-206.29ZM2337.33,218.29h225.33v206.29h-225.33v-206.29ZM2570.67,218.29h225.33v206.29h-225.33v-206.29ZM2804,218.29h225.33v206.29h-225.33v-206.29ZM3037.33,218.29h225.33v206.29h-225.33v-206.29ZM3270.67,218.29h225.33v206.29h-225.33v-206.29ZM3504,218.29h225.33v206.29h-225.33v-206.29ZM3737.33,218.29h225.33v206.29h-225.33v-206.29ZM3970.67,218.29h225.33v206.29h-225.33v-206.29ZM4204,218.29h225.33v206.29h-225.33v-206.29ZM4437.33,218.29h225.33v206.29h-225.33v-206.29ZM4670.67,218.29h225.33v206.29h-225.33v-206.29ZM4904,218.29h225.33v206.29h-225.33v-206.29ZM5137.33,218.29h225.33v206.29h-225.33v-206.29ZM5370.67,218.29h225.33v206.29h-225.33v-206.29ZM5604,218.29h225.33v206.29h-225.33v-206.29ZM5837.33,218.29h225.33v206.29h-225.33v-206.29ZM6070.67,218.29h225.33v206.29h-225.33v-206.29ZM6304,218.29h225.33v206.29h-225.33v-206.29ZM6529.33,2361.14v206.29h-225.33v-206.29h225.33ZM6296,2361.14v206.29h-225.33v-206.29h225.33ZM6062.67,2361.14v206.29h-225.33v-206.29h225.33ZM5829.33,2361.14v206.29h-225.33v-206.29h225.33ZM5596,2361.14v206.29h-225.33v-206.29h225.33ZM5362.67,2361.14v206.29h-225.33v-206.29h225.33ZM5129.33,2361.14v206.29h-225.33v-206.29h225.33ZM4896,2361.14v206.29h-225.33v-206.29h225.33ZM4662.67,2361.14v206.29h-225.33v-206.29h225.33ZM4429.33,2361.14v206.29h-225.33v-206.29h225.33ZM4196,2361.14v206.29h-225.33v-206.29h225.33ZM3962.67,2361.14v206.29h-225.33v-206.29h225.33ZM3729.33,2361.14v206.29h-225.33v-206.29h225.33ZM3496,2361.14v206.29h-225.33v-206.29h225.33ZM3262.67,2361.14v206.29h-225.33v-206.29h225.33ZM3029.33,2361.14v206.29h-225.33v-206.29h225.33ZM2796,2361.14v206.29h-225.33v-206.29h225.33ZM2562.67,2361.14v206.29h-225.33v-206.29h225.33ZM2329.33,2361.14v206.29h-225.33v-206.29h225.33ZM2096,2361.14v206.29h-225.33v-206.29h225.33ZM1862.67,2361.14v206.29h-225.33v-206.29h225.33ZM1629.33,2361.14v206.29h-225.33v-206.29h225.33ZM1404,638.86v-206.29h225.33v206.29h-225.33ZM1637.33,638.86v-206.29h225.33v206.29h-225.33ZM1870.67,638.86v-206.29h225.33v206.29h-225.33ZM2104,638.86v-206.29h225.33v206.29h-225.33ZM2337.33,638.86v-206.29h225.33v206.29h-225.33ZM2570.67,638.86v-206.29h225.33v206.29h-225.33ZM2804,638.86v-206.29h225.33v206.29h-225.33ZM3037.33,638.86v-206.29h225.33v206.29h-225.33ZM3270.67,638.86v-206.29h225.33v206.29h-225.33ZM3504,638.86v-206.29h225.33v206.29h-225.33ZM3737.33,638.86v-206.29h225.33v206.29h-225.33ZM3970.67,638.86v-206.29h225.33v206.29h-225.33ZM4204,638.86v-206.29h225.33v206.29h-225.33ZM4437.33,638.86v-206.29h225.33v206.29h-225.33ZM4670.67,638.86v-206.29h225.33v206.29h-225.33ZM4904,638.86v-206.29h225.33v206.29h-225.33ZM5137.33,638.86v-206.29h225.33v206.29h-225.33ZM5370.67,638.86v-206.29h225.33v206.29h-225.33ZM5604,638.86v-206.29h225.33v206.29h-225.33ZM5837.33,638.86v-206.29h225.33v206.29h-225.33ZM6070.67,638.86v-206.29h225.33v206.29h-225.33ZM6296,2146.86v206.29h-225.33v-206.29h225.33ZM6062.67,2146.86v206.29h-225.33v-206.29h225.33ZM5829.33,2146.86v206.29h-225.33v-206.29h225.33ZM5596,2146.86v206.29h-225.33v-206.29h225.33ZM5362.67,2146.86v206.29h-225.33v-206.29h225.33ZM5129.33,2146.86v206.29h-225.33v-206.29h225.33ZM4896,2146.86v206.29h-225.33v-206.29h225.33ZM4662.67,2146.86v206.29h-225.33v-206.29h225.33ZM4429.33,2146.86v206.29h-225.33v-206.29h225.33ZM4196,2146.86v206.29h-225.33v-206.29h225.33ZM3962.67,2146.86v206.29h-225.33v-206.29h225.33ZM3729.33,2146.86v206.29h-225.33v-206.29h225.33ZM3496,2146.86v206.29h-225.33v-206.29h225.33ZM3262.67,2146.86v206.29h-225.33v-206.29h225.33ZM3029.33,2146.86v206.29h-225.33v-206.29h225.33ZM2796,2146.86v206.29h-225.33v-206.29h225.33ZM2562.67,2146.86v206.29h-225.33v-206.29h225.33ZM2329.33,2146.86v206.29h-225.33v-206.29h225.33ZM2096,2146.86v206.29h-225.33v-206.29h225.33ZM1862.67,2146.86v206.29h-225.33v-206.29h225.33ZM1637.33,853.14v-206.29h225.33v206.29h-225.33ZM1870.67,853.14v-206.29h225.33v206.29h-225.33ZM2104,853.14v-206.29h225.33v206.29h-225.33ZM2337.33,853.14v-206.29h225.33v206.29h-225.33ZM2570.67,853.14v-206.29h225.33v206.29h-225.33ZM2804,853.14v-206.29h225.33v206.29h-225.33ZM3037.33,853.14v-206.29h225.33v206.29h-225.33ZM3270.67,853.14v-206.29h225.33v206.29h-225.33ZM3504,853.14v-206.29h225.33v206.29h-225.33ZM3737.33,853.14v-206.29h225.33v206.29h-225.33ZM3970.67,853.14v-206.29h225.33v206.29h-225.33ZM4204,853.14v-206.29h225.33v206.29h-225.33ZM4437.33,853.14v-206.29h225.33v206.29h-225.33ZM4670.67,853.14v-206.29h225.33v206.29h-225.33ZM4904,853.14v-206.29h225.33v206.29h-225.33ZM5137.33,853.14v-206.29h225.33v206.29h-225.33ZM5370.67,853.14v-206.29h225.33v206.29h-225.33ZM5604,853.14v-206.29h225.33v206.29h-225.33ZM5837.33,853.14v-206.29h225.33v206.29h-225.33ZM6062.67,1932.57v206.29h-225.33v-206.29h225.33ZM5829.33,1932.57v206.29h-225.33v-206.29h225.33ZM5596,1932.57v206.29h-225.33v-206.29h225.33ZM5362.67,1932.57v206.29h-225.33v-206.29h225.33ZM5129.33,1932.57v206.29h-225.33v-206.29h225.33ZM4896,1932.57v206.29h-225.33v-206.29h225.33ZM4662.67,1932.57v206.29h-225.33v-206.29h225.33ZM4429.33,1932.57v206.29h-225.33v-206.29h225.33ZM4196,1932.57v206.29h-225.33v-206.29h225.33ZM3962.67,1932.57v206.29h-225.33v-206.29h225.33ZM3729.33,1932.57v206.29h-225.33v-206.29h225.33ZM3496,1932.57v206.29h-225.33v-206.29h225.33ZM3262.67,1932.57v206.29h-225.33v-206.29h225.33ZM3029.33,1932.57v206.29h-225.33v-206.29h225.33ZM2796,1932.57v206.29h-225.33v-206.29h225.33ZM2562.67,1932.57v206.29h-225.33v-206.29h225.33ZM2329.33,1932.57v206.29h-225.33v-206.29h225.33ZM2096,1932.57v206.29h-225.33v-206.29h225.33ZM1870.67,1067.43v-206.29h225.33v206.29h-225.33ZM2104,1067.43v-206.29h225.33v206.29h-225.33ZM2337.33,1067.43v-206.29h225.33v206.29h-225.33ZM2570.67,1067.43v-206.29h225.33v206.29h-225.33ZM2804,1067.43v-206.29h225.33v206.29h-225.33ZM3037.33,1067.43v-206.29h225.33v206.29h-225.33ZM3270.67,1067.43v-206.29h225.33v206.29h-225.33ZM3504,1067.43v-206.29h225.33v206.29h-225.33ZM3737.33,1067.43v-206.29h225.33v206.29h-225.33ZM3970.67,1067.43v-206.29h225.33v206.29h-225.33ZM4204,1067.43v-206.29h225.33v206.29h-225.33ZM4437.33,1067.43v-206.29h225.33v206.29h-225.33ZM4670.67,1067.43v-206.29h225.33v206.29h-225.33ZM4904,1067.43v-206.29h225.33v206.29h-225.33ZM5137.33,1067.43v-206.29h225.33v206.29h-225.33ZM5370.67,1067.43v-206.29h225.33v206.29h-225.33ZM5604,1067.43v-206.29h225.33v206.29h-225.33ZM5829.33,1718.29v206.29h-225.33v-206.29h225.33ZM5596,1718.29v206.29h-225.33v-206.29h225.33ZM5362.67,1718.29v206.29h-225.33v-206.29h225.33ZM5129.33,1718.29v206.29h-225.33v-206.29h225.33ZM4896,1718.29v206.29h-225.33v-206.29h225.33ZM4662.67,1718.29v206.29h-225.33v-206.29h225.33ZM4429.33,1718.29v206.29h-225.33v-206.29h225.33ZM4196,1718.29v206.29h-225.33v-206.29h225.33ZM3962.67,1718.29v206.29h-225.33v-206.29h225.33ZM3729.33,1718.29v206.29h-225.33v-206.29h225.33ZM3496,1718.29v206.29h-225.33v-206.29h225.33ZM3262.67,1718.29v206.29h-225.33v-206.29h225.33ZM3029.33,1718.29v206.29h-225.33v-206.29h225.33ZM2796,1718.29v206.29h-225.33v-206.29h225.33ZM2562.67,1718.29v206.29h-225.33v-206.29h225.33ZM2329.33,1718.29v206.29h-225.33v-206.29h225.33ZM2104,1281.71v-206.29h225.33v206.29h-225.33ZM2337.33,1281.71v-206.29h225.33v206.29h-225.33ZM2570.67,1281.71v-206.29h225.33v206.29h-225.33ZM2804,1281.71v-206.29h225.33v206.29h-225.33ZM3037.33,1281.71v-206.29h225.33v206.29h-225.33ZM3270.67,1281.71v-206.29h225.33v206.29h-225.33ZM3504,1281.71v-206.29h225.33v206.29h-225.33ZM3737.33,1281.71v-206.29h225.33v206.29h-225.33ZM3970.67,1281.71v-206.29h225.33v206.29h-225.33ZM4204,1281.71v-206.29h225.33v206.29h-225.33ZM4437.33,1281.71v-206.29h225.33v206.29h-225.33ZM4670.67,1281.71v-206.29h225.33v206.29h-225.33ZM4904,1281.71v-206.29h225.33v206.29h-225.33ZM5137.33,1281.71v-206.29h225.33v206.29h-225.33ZM5370.67,1281.71v-206.29h225.33v206.29h-225.33ZM5596,1504v206.29h-225.33v-206.29h225.33ZM5362.67,1504v206.29h-225.33v-206.29h225.33ZM5129.33,1504v206.29h-225.33v-206.29h225.33ZM4896,1504v206.29h-225.33v-206.29h225.33ZM4662.67,1504v206.29h-225.33v-206.29h225.33ZM4429.33,1504v206.29h-225.33v-206.29h225.33ZM4196,1504v206.29h-225.33v-206.29h225.33ZM3962.67,1504v206.29h-225.33v-206.29h225.33ZM3729.33,1504v206.29h-225.33v-206.29h225.33ZM3496,1504v206.29h-225.33v-206.29h225.33ZM3262.67,1504v206.29h-225.33v-206.29h225.33ZM3029.33,1504v206.29h-225.33v-206.29h225.33ZM2796,1504v206.29h-225.33v-206.29h225.33ZM2562.67,1504v206.29h-225.33v-206.29h225.33ZM2337.33,1496v-206.29h225.33v206.29h-225.33ZM2570.67,1496v-206.29h225.33v206.29h-225.33ZM2804,1496v-206.29h225.33v206.29h-225.33ZM3037.33,1496v-206.29h225.33v206.29h-225.33ZM3270.67,1496v-206.29h225.33v206.29h-225.33ZM3504,1496v-206.29h225.33v206.29h-225.33ZM3737.33,1496v-206.29h225.33v206.29h-225.33ZM3970.67,1496v-206.29h225.33v206.29h-225.33ZM4204,1496v-206.29h225.33v206.29h-225.33ZM4437.33,1496v-206.29h225.33v206.29h-225.33ZM4670.67,1496v-206.29h225.33v206.29h-225.33ZM4904,1496v-206.29h225.33v206.29h-225.33ZM5137.33,1496v-206.29h225.33v206.29h-225.33ZM5596,1496h-225.33v-206.29h225.33v206.29ZM2104,1289.71h225.33v206.29h-225.33v-206.29ZM2104,1504h225.33v206.29h-225.33v-206.29ZM5829.33,1710.29h-225.33v-206.29h225.33v206.29ZM5829.33,1496h-225.33v-206.29h225.33v206.29ZM5829.33,1281.71h-225.33v-206.29h225.33v206.29ZM1870.67,1075.43h225.33v206.29h-225.33v-206.29ZM1870.67,1289.71h225.33v206.29h-225.33v-206.29ZM1870.67,1504h225.33v206.29h-225.33v-206.29ZM1870.67,1718.29h225.33v206.29h-225.33v-206.29ZM6062.67,1924.57h-225.33v-206.29h225.33v206.29ZM6062.67,1710.29h-225.33v-206.29h225.33v206.29ZM6062.67,1496h-225.33v-206.29h225.33v206.29ZM6062.67,1281.71h-225.33v-206.29h225.33v206.29ZM6062.67,1067.43h-225.33v-206.29h225.33v206.29ZM1637.33,861.14h225.33v206.29h-225.33v-206.29ZM1637.33,1075.43h225.33v206.29h-225.33v-206.29ZM1637.33,1289.71h225.33v206.29h-225.33v-206.29ZM1637.33,1504h225.33v206.29h-225.33v-206.29ZM1637.33,1718.29h225.33v206.29h-225.33v-206.29ZM1637.33,1932.57h225.33v206.29h-225.33v-206.29ZM6296,2138.86h-225.33v-206.29h225.33v206.29ZM6296,1924.57h-225.33v-206.29h225.33v206.29ZM6296,1710.29h-225.33v-206.29h225.33v206.29ZM6296,1496h-225.33v-206.29h225.33v206.29ZM6296,1281.71h-225.33v-206.29h225.33v206.29ZM6296,1067.43h-225.33v-206.29h225.33v206.29ZM6296,853.14h-225.33v-206.29h225.33v206.29ZM1404,646.86h225.33v206.29h-225.33v-206.29ZM1404,861.14h225.33v206.29h-225.33v-206.29ZM1404,1075.43h225.33v206.29h-225.33v-206.29ZM1404,1289.71h225.33v206.29h-225.33v-206.29ZM1404,1504h225.33v206.29h-225.33v-206.29ZM1404,1718.29h225.33v206.29h-225.33v-206.29ZM1404,1932.57h225.33v206.29h-225.33v-206.29ZM1404,2146.86h225.33v206.29h-225.33v-206.29ZM6529.33,2353.14h-225.33v-206.29h225.33v206.29ZM6529.33,2138.86h-225.33v-206.29h225.33v206.29ZM6529.33,1924.57h-225.33v-206.29h225.33v206.29ZM6529.33,1710.29h-225.33v-206.29h225.33v206.29ZM6529.33,1496h-225.33v-206.29h225.33v206.29ZM6529.33,1281.71h-225.33v-206.29h225.33v206.29ZM6529.33,1067.43h-225.33v-206.29h225.33v206.29ZM6529.33,853.14h-225.33v-206.29h225.33v206.29ZM6529.33,638.86h-225.33v-206.29h225.33v206.29ZM1170.67,432.57h225.33v206.29h-225.33v-206.29ZM1170.67,646.86h225.33v206.29h-225.33v-206.29ZM1170.67,861.14h225.33v206.29h-225.33v-206.29ZM1170.67,1075.43h225.33v206.29h-225.33v-206.29ZM1170.67,1289.71h225.33v206.29h-225.33v-206.29ZM1170.67,1504h225.33v206.29h-225.33v-206.29ZM1170.67,1718.29h225.33v206.29h-225.33v-206.29ZM1170.67,1932.57h225.33v206.29h-225.33v-206.29ZM1170.67,2146.86h225.33v206.29h-225.33v-206.29ZM1170.67,2361.14h225.33v206.29h-225.33v-206.29ZM6762.67,2567.43h-225.33v-206.29h225.33v206.29ZM6762.67,2353.14h-225.33v-206.29h225.33v206.29ZM6762.67,2138.86h-225.33v-206.29h225.33v206.29ZM6762.67,1924.57h-225.33v-206.29h225.33v206.29ZM6762.67,1710.29h-225.33v-206.29h225.33v206.29ZM6762.67,1496h-225.33v-206.29h225.33v206.29ZM6762.67,1281.71h-225.33v-206.29h225.33v206.29ZM6762.67,1067.43h-225.33v-206.29h225.33v206.29ZM6762.67,853.14h-225.33v-206.29h225.33v206.29ZM6762.67,638.86h-225.33v-206.29h225.33v206.29ZM6762.67,424.57h-225.33v-206.29h225.33v206.29ZM6304,4h225.33v206.29h-225.33V4ZM6070.67,4h225.33v206.29h-225.33V4ZM5837.33,4h225.33v206.29h-225.33V4ZM5604,4h225.33v206.29h-225.33V4ZM5370.67,4h225.33v206.29h-225.33V4ZM5137.33,4h225.33v206.29h-225.33V4ZM4904,4h225.33v206.29h-225.33V4ZM4670.67,4h225.33v206.29h-225.33V4ZM4437.33,4h225.33v206.29h-225.33V4ZM4204,4h225.33v206.29h-225.33V4ZM3970.67,4h225.33v206.29h-225.33V4ZM3737.33,4h225.33v206.29h-225.33V4ZM3504,4h225.33v206.29h-225.33V4ZM3270.67,4h225.33v206.29h-225.33V4ZM3037.33,4h225.33v206.29h-225.33V4ZM2804,4h225.33v206.29h-225.33V4ZM2570.67,4h225.33v206.29h-225.33V4ZM2337.33,4h225.33v206.29h-225.33V4ZM2104,4h225.33v206.29h-225.33V4ZM1870.67,4h225.33v206.29h-225.33V4ZM1637.33,4h225.33v206.29h-225.33V4ZM1404,4h225.33v206.29h-225.33V4ZM1170.67,4h225.33v206.29h-225.33V4ZM937.33,4h225.33v206.29h-225.33V4ZM1162.67,218.29v206.29h-225.33v-206.29h225.33ZM1162.67,432.57v206.29h-225.33v-206.29h225.33ZM1162.67,646.86v206.29h-225.33v-206.29h225.33ZM1162.67,861.14v206.29h-225.33v-206.29h225.33ZM1162.67,1075.43v206.29h-225.33v-206.29h225.33ZM1162.67,1289.71v206.29h-225.33v-206.29h225.33ZM1162.67,1504v206.29h-225.33v-206.29h225.33ZM1162.67,1718.29v206.29h-225.33v-206.29h225.33ZM1162.67,1932.57v206.29h-225.33v-206.29h225.33ZM1162.67,2146.86v206.29h-225.33v-206.29h225.33ZM1162.67,2361.14v206.29h-225.33v-206.29h225.33ZM1162.67,2575.43v206.29h-225.33v-206.29h225.33ZM1162.67,2996h-225.33v-206.29h225.33v206.29ZM1396,2996h-225.33v-206.29h225.33v206.29ZM1629.33,2996h-225.33v-206.29h225.33v206.29ZM1862.67,2996h-225.33v-206.29h225.33v206.29ZM2096,2996h-225.33v-206.29h225.33v206.29ZM2329.33,2996h-225.33v-206.29h225.33v206.29ZM2562.67,2996h-225.33v-206.29h225.33v206.29ZM2796,2996h-225.33v-206.29h225.33v206.29ZM3029.33,2996h-225.33v-206.29h225.33v206.29ZM3262.67,2996h-225.33v-206.29h225.33v206.29ZM3496,2996h-225.33v-206.29h225.33v206.29ZM3729.33,2996h-225.33v-206.29h225.33v206.29ZM3962.67,2996h-225.33v-206.29h225.33v206.29ZM4196,2996h-225.33v-206.29h225.33v206.29ZM4429.33,2996h-225.33v-206.29h225.33v206.29ZM4662.67,2996h-225.33v-206.29h225.33v206.29ZM4896,2996h-225.33v-206.29h225.33v206.29ZM5129.33,2996h-225.33v-206.29h225.33v206.29ZM5362.67,2996h-225.33v-206.29h225.33v206.29ZM5596,2996h-225.33v-206.29h225.33v206.29ZM5829.33,2996h-225.33v-206.29h225.33v206.29ZM6062.67,2996h-225.33v-206.29h225.33v206.29ZM6296,2996h-225.33v-206.29h225.33v206.29ZM6529.33,2996h-225.33v-206.29h225.33v206.29ZM6762.67,2996h-225.33v-206.29h225.33v206.29ZM6996,2996h-225.33v-206.29h225.33v206.29ZM6770.67,2781.71v-206.29h225.33v206.29h-225.33ZM6770.67,2567.43v-206.29h225.33v206.29h-225.33ZM6770.67,2353.14v-206.29h225.33v206.29h-225.33ZM6770.67,2138.86v-206.29h225.33v206.29h-225.33ZM6770.67,1924.57v-206.29h225.33v206.29h-225.33ZM6770.67,1710.29v-206.29h225.33v206.29h-225.33ZM6770.67,1496v-206.29h225.33v206.29h-225.33ZM6770.67,1281.71v-206.29h225.33v206.29h-225.33ZM6770.67,1067.43v-206.29h225.33v206.29h-225.33ZM6770.67,853.14v-206.29h225.33v206.29h-225.33ZM6770.67,638.86v-206.29h225.33v206.29h-225.33ZM6770.67,424.57v-206.29h225.33v206.29h-225.33Z"/>
    </g>
  </g>
</svg>