<?xml version="1.0" encoding="UTF-8"?>
<svg id="Layer_2" data-name="Layer 2" xmlns="http://www.w3.org/2000/svg" viewBox="0 0 428.37 334.88">
  <defs>
    <style>
      .cls-1 {
        fill: none;
        stroke: #222831;
        stroke-linecap: round;
        stroke-linejoin: round;
        stroke-width: 10px;
      }
    </style>
  </defs>
  <g id="Layer_2-2" data-name="Layer 2">
    <g>
      <path class="cls-1" d="M248.36,35.18C208.11,4.73,169.68-3.53,151.83,14.32c-1.26,1.26-2.38,2.59-3.36,4.06l-.28.35c-16.03,24.01,1.96,73.15,48.16,119.35,23.94,23.94,48.79,40.39,70.49,48.3"/>
      <path class="cls-1" d="M151.8,14.32l-3.61,4.41-.05.05L13.2,182.61c-19.16,19.16-3.61,65.68,34.65,103.94,38.26,38.26,84.79,53.8,103.94,34.65l123.64-101.87"/>
      <path class="cls-1" d="M88.29,47.44c-41.43,9.85-70.14,31.23-70.14,55.98,0,7.23,2.43,14.21,6.98,20.64,8.81,12.67,25.49,23.41,47.12,30.79,19.35,6.58,42.62,10.44,67.66,10.44,14.26,0,27.97-1.24,40.59-3.56"/>
      <path class="cls-1" d="M349.79,258.2c-.74,4.7-5.69,45.6-29.7,39.1-32.32-8.75-9.9-75.1-24.75-109.74"/>
      <path class="cls-1" d="M349.79,257.71c10.49,52.07,20.9,72.17,39.15,72.17,58.43,0,71.25-369.76-199.37-243.24"/>
    </g>
  </g>
</svg>