<?xml version="1.0" encoding="UTF-8"?>
<svg id="Layer_2" xmlns="http://www.w3.org/2000/svg" viewBox="0 0 46.64 32.5">
  <defs>
    <style>
      .cls-1 {
        fill: #f64117;
      }
    </style>
  </defs>
  <g id="Layer_1-2" data-name="Layer_1">
    <path d="M46.64,20.95c-7.83,9.34-20.13,15.42-31.6,8.7-3.18-1.85-5.73-4.49-7.81-7.27.31-.22.61-.48.92-.74.36-.32.71-.64,1.01-.97,4.4,4.8,10.46,7.87,16.85,6.75,6.31-1.03,11.29-5.89,14.94-11.11l5.69,4.64Z"/>
    <path d="M24.32,1.45c-1.12,3.54-2.31,6.84-2.61,10.41-.08,1.34-.04,2.44.46,3.46.78,1.42,2.58,1.43,4.22,1.39,2.27-.16,4.71-.83,6.78-1.91l.93,1.4c-2.2,1.61-4.6,2.69-7.3,3.32C14.49,22.17,16.99,7.38,18.51,0c0,0,5.81,1.45,5.81,1.45h0Z"/>
    <ellipse class="cls-1" cx="5.41" cy="18.73" rx="6.72" ry="2.73" transform="translate(-10.89 8.03) rotate(-40.61)"/>
  </g>
</svg>