<?xml version="1.0" encoding="UTF-8"?>
<svg id="Layer_2" data-name="Layer 2" xmlns="http://www.w3.org/2000/svg" viewBox="0 0 1232 486.06">
  <defs>
    <linearGradient id="gradient" x1="0%" y1="0%" x2="100%" y2="0%">
      <stop offset="0%" style="stop-color:#FBF8F0; stop-opacity:1" />
      <stop offset="100%" style="stop-color:#F8FAFC; stop-opacity:1" />
    </linearGradient>
    <style>
      .cls-1 {
        fill: url(#gradient);
        stroke: #131414;
        stroke-miterlimit: 10;
        stroke-width: 13px;
      }
    </style>
  </defs>
  <g id="_ÎÓÈ_1" data-name="—ÎÓÈ_1">
    <path class="cls-1" d="M1221.16,454.22c-4.77-2.81-9.8-5.18-14.46-8.15-4.13-2.63-8.06-5.64-11.78-8.83-.59-.51-1.1-1.04-1.53-1.6-2.81-3.64-2.14-8.14,1.91-10.72.04-.03.08-.05.12-.08,4.16-2.58,8.49-4.99,12.98-6.93,5.62-2.43,11.47-4.31,16.99-6.34.29-3.25-1.42-4.88-3.46-6.35-1.77-1.28-3.57-2.54-5.37-3.79-5-3.46-10.05-6.88-14.73-10.72-.74-.6-1.47-1.21-2.19-1.84-8.89-7.76-8.38-14.62,1.12-20.86.41-.27.82-.53,1.24-.79,3.74-2.34,7.75-4.27,11.61-6.43,2.49-1.4,5.04-2.7,7.39-4.29.18-.12.36-.24.53-.36.6-.42.87-2.61.41-3.05-2.67-2.49-5.51-4.81-8.46-6.97-6.03-4.42-12.2-8.69-18.23-13.11l-11.69-10.73c-.45-.56-.9-1.11-1.35-1.65-1.27-1.52-.91-5.42.66-6.87,2.23-2.06,4.4-4.38,7.03-5.79,5.94-3.2,12-6.17,18.05-9.18,2.22-1.11,4.43-2.21,6.64-3.34,1.62-.83,3.3-1.74,4.52-3.03.07-.07.12-.17.17-.29.28-.7.2-2.1-.14-2.7-.06-.1-.12-.18-.19-.22-.57-.38-1.14-.77-1.71-1.14-5.04-3.37-10.18-6.57-15.33-9.78-5.75-3.58-11.51-7.11-16.06-12.28-.39-.44-.71-.93-.96-1.43-.34-.69-.56-1.42-.65-2.17-.28-2.25.53-4.62,2.36-6.23.96-.84,1.97-1.61,3-2.32,4.04-2.78,8.57-4.65,12.99-6.74,6.65-3.15,13.37-6.18,20.03-9.31,1.5-.7,1.38-3.81-.2-4.65-1.38-.74-2.74-1.46-4.13-2.19h-.03c-.39-.2-.78-.4-1.16-.6-5.31-2.76-10.63-5.48-15.84-8.41-.69-.39-1.38-.78-2.06-1.19-.63-.37-1.25-.74-1.88-1.13-3.4-2.08-6.72-4.3-10.01-6.56-2.4-1.65-2.41-6.26-.05-8.12,3.35-2.65,6.79-5.23,10.41-7.5.71-.45,1.42-.88,2.14-1.3,6.07-3.62,12.5-6.7,18.53-10.73,1.63-1.08,3.23-2.23,4.79-3.48-1.1-1.64-1.74-3.57-3.06-4.4-7.32-4.54-14.89-8.68-22.21-13.22-1.25-.78-2.51-1.56-3.74-2.39-3.37-2.26-6.48-4.86-8.38-8.63-.28-.57-.44-1.32-.46-2.09-.04-1.09.18-2.24.63-3.02,1.18-2.05,3-3.97,5.01-5.24,7.79-4.93,15.78-9.56,23.67-14.35.48-.29.98-.58,1.47-.88,1.66-1.03,3.22-2.23,3.39-4.28.24-2.89-2.64-3.67-4.64-4.78-1.01-.56-2.02-1.11-3.03-1.66-6.54-3.56-13.13-7.03-19.63-10.69-1.54-.86-3.14-2.26-3.82-3.8-.65-1.46-.77-3.84.02-5.09.93-1.47,2.27-2.85,3.75-3.91.51-.37,1.03-.69,1.56-.97,5.56-2.88,10.8-6.23,15.93-9.76,4.5-3.09,8.9-6.32,13.36-9.48,1.46-1.03,2.84-2.37,3.79-3.86.44-.7.16-2.71-.44-3.08-3.12-1.93-6.42-3.56-9.69-5.23-1.21-.62-2.43-1.23-3.65-1.84-6.99-3.52-14.03-6.93-20.87-10.72-.04-.02-.07-.04-.11-.06-6.85-3.82-6.8-8.89-.98-12.8,5.11-3.43,10.4-6.57,15.64-9.79.46-.28.91-.56,1.37-.84,5.32-3.26,10.67-6.45,15.94-9.77.38-.24.71-.57,1.01-.95.45-.55.82-1.21,1.15-1.82.21-.38-.13-1.54-.48-1.67-1.61-.61-3.3-1.38-4.97-1.4C1172.04,8.88,114.6,3.29,24.12,3c-3.64-.01-7.27,0-10.81,0-.23,1.06-.65,2.05-.45,2.2,2.89,2.13,5.95,4.03,8.79,6.22,1.27.98,2.54,1.95,3.8,2.95,2.1,1.67,4.16,3.41,6.05,5.29,1.43,1.43,2.26,3.38,2.5,5.43.35,2.9-.47,5.99-2.43,8.11-2.06,2.22-4.38,4.35-6.94,5.94-4.15,2.58-8.64,4.59-12.85,7.07-.4.24-.6,1.56-.53,2.37.03.32.1.55.21.62,5.56,3.47,11.29,6.67,16.88,10.1.69.42,1.36.84,2.04,1.26,3.53,2.2,4.78,7.71,3.2,11.58-1.67,4.09-4.18,7.56-7.74,10.14-.24.17-.48.35-.72.51-4.74,3.42-9.6,6.66-14.4,10-.24.17-.43.42-.56.73-.53,1.23-.15,3.3.96,4.08,2.02,1.4,4.04,2.78,6.07,4.16,4.06,2.78,8.29,5.34,12.14,8.38,2.33,1.84,3.8,4.25,4.4,6.87.73,3.16.22,6.62-1.5,9.82-.16.3-.33.6-.51.9-1.99,3.48-4.51,6.51-7.68,8.97-3.4,2.63-7.1,4.89-10.44,7.6-1.25,1.02-1.86,2.84-3.09,4.8,1.15.72,2.29,1.43,3.41,2.12,3.22,1.99,6.32,3.89,9.32,5.92,2.35,1.59,4.69,3.18,7.02,4.8,2.71,1.9,5.39,3.85,7.99,5.89,4.31,3.4,5.12,10.79,1.54,15.06-.72.86-1.45,1.7-2.2,2.54-2.92,3.29-6.06,6.42-9.39,9.26-.58.5-1.17.99-1.77,1.47-4.18,3.38-8.69,6.36-13,9.59-4.9,3.67-4.77,6.18.51,9.58,2.29,1.47,4.62,2.88,6.94,4.31,2.93,1.8,5.83,3.64,8.56,5.69,2.07,1.55,4.07,3.23,5.95,5.04,1.67,1.6,3.24,3.3,4.66,5.09,3.32,4.18,3,9.29.76,14-.75,1.58-1.86,3.04-3.05,4.4l-11.15,10.72c-3.64,3-7.49,5.76-11.55,8.27-3.1,1.92-5.99,4.21-8.76,6.59-.56.48-.6,2.74-.09,3.11,2.62,1.92,5.31,3.74,8.03,5.52,1.36.9,2.73,1.78,4.1,2.67,2.96,1.91,5.99,3.73,8.99,5.6l.15.1,3.73,2.35c1.94,1.25,3.86,2.55,5.72,3.92,5.52,4.04,5.9,11.26,1.59,16.32-.96,1.13-1.96,2.21-2.99,3.25-3.71,3.78-7.87,7.06-12.36,9.94-.41.26-.83.53-1.24.79-5.79,3.71-11.63,7.35-17.32,11.2-.74.5-.7,2.16-1.11,3.6,4.08,2.55,8.31,5.03,12.36,7.77.45.3.9.61,1.34.92,4.47,3.16,8.59,6.73,12.3,10.72,1.37,1.47,2.69,2.99,3.95,4.57,4.79,6.01,5.29,12.54,1.7,18.92-.3.53-.63,1.05-.98,1.58-2.33,3.47-5.13,6.44-8.21,9.14-1.98,1.75-4.09,3.38-6.25,4.96-3.42,2.51-7.82,3.84-10.14,8.67,1.96,1.98,4.07,4.14,6.2,6.27,1.23,1.23,2.54,2.39,3.79,3.59.97.93,1.91,1.88,2.76,2.91,2.21,2.67,3.96,5.27,5.24,7.81,4.28,8.4,3.56,16.11-1.72,23.49-1.45,2.03-3.24,4.03-5.37,6.02-1.81,1.69-3.78,3.22-5.77,4.71-1.44,1.09-2.89,2.16-4.3,3.28-1,.79-.96,4.38,0,4.99,3.67,2.31,7.43,4.47,11.87,4.7,4.3.23,8.62.23,12.92.22,118.8-.22,960.83-3.51,1133.81-3.91,3.07-.01,6.15-.03,9.23-.03,3.72-.01,7.24-.67,10.73-2.17,5.61-2.41,11.25-4.75,16.89-7.08,5.73-2.37,11.45-4.73,17.14-7.17,1.4-.59,2.43-2.07,3.95-3.56.12-.12.24-.24.36-.35-2.27-1.71-4.08-3.35-6.15-4.56Z"/>
  </g>
</svg>