<svg width="2247" height="555" viewBox="0 0 2247 555" fill="none" xmlns="http://www.w3.org/2000/svg">


<path d="M2246.95 0.956821C2246.95 0.956821 2246.95 0.949413 2246.95 0.942005C2246.95 0.934597 2246.95 0.919782 2246.94 0.912374C2246.94 0.912374 2246.94 0.897558 2246.94 0.890151C2246.94 0.875335 2246.93 0.867927 2246.93 0.853111C2246.93 0.853111 2246.93 0.838296 2246.93 0.838296C2246.93 0.816072 2246.92 0.793849 2246.9 0.779033C2246.9 0.764218 2246.89 0.741994 2246.88 0.727179C2246.87 0.704955 2246.86 0.69014 2246.85 0.675324C2246.84 0.638285 2246.81 0.608654 2246.79 0.579023C2246.79 0.579023 2246.79 0.571615 2246.78 0.564207C2246.77 0.541984 2246.76 0.527168 2246.74 0.504945C2246.74 0.504945 2246.74 0.504945 2246.73 0.497537C2246.73 0.497537 2246.73 0.497537 2246.73 0.482721C2246.73 0.482721 2246.72 0.467906 2246.71 0.460498C2246.7 0.445682 2246.7 0.438274 2246.68 0.423459C2246.67 0.408643 2246.65 0.393828 2246.64 0.379012C2246.63 0.364196 2246.61 0.349381 2246.6 0.341973C2246.59 0.334565 2246.58 0.327157 2246.58 0.31975C2246.56 0.304934 2246.55 0.297526 2246.53 0.290118C2246.53 0.290118 2246.53 0.282711 2246.52 0.275303C2246.52 0.275303 2246.5 0.267895 2246.5 0.260487C2246.5 0.260487 2246.48 0.253079 2246.47 0.245672C2246.47 0.245672 2246.47 0.245672 2246.47 0.238264C2246.44 0.223448 2246.42 0.208633 2246.41 0.201225C2246.38 0.186409 2246.36 0.179001 2246.34 0.164186C2246.33 0.164186 2246.33 0.156778 2246.31 0.14937C2246.28 0.134555 2246.25 0.119739 2246.21 0.104923C2246.21 0.104923 2246.15 0.0752921 2246.11 0.0678843C2246.11 0.0678843 2246.11 0.0678843 2246.1 0.0678843C2246.07 0.0678843 2246.04 0.0530687 2246.02 0.0456609C2246.01 0.0456609 2246 0.0456609 2245.99 0.0456609C2245.96 0.0456609 2245.93 0.0308453 2245.89 0.0308453C2245.86 0.0308453 2245.82 0.0234375 2245.79 0.0234375C2245.78 0.0234375 2245.78 0.0234375 2245.77 0.0234375C2245.77 0.0234375 2245.76 0.0234375 2245.76 0.0234375C2245.75 0.0234375 2245.74 0.0234375 2245.73 0.0234375L2027.55 0.445682C2027.08 0.445682 2026.65 0.704955 2026.42 1.11238C2026.19 1.51981 2026.2 2.02354 2026.43 2.42357L2046.74 36.0846L2058.81 74.9534C2058.84 75.0349 2058.87 75.1089 2058.91 75.183C2058.93 75.2126 2058.94 75.2423 2058.96 75.2645C2058.98 75.2941 2058.99 75.3163 2059.01 75.3386C2059.04 75.3682 2059.05 75.3904 2059.07 75.4127C2059.07 75.4127 2059.07 75.4201 2059.09 75.4275C2059.11 75.4571 2059.13 75.4793 2059.16 75.5015C2059.18 75.5238 2059.21 75.546 2059.24 75.5756C2059.27 75.5904 2059.28 75.6053 2059.3 75.6201C2059.3 75.6201 2059.3 75.6201 2059.31 75.6201C2059.34 75.6423 2059.37 75.6571 2059.39 75.6793C2059.41 75.6941 2059.44 75.709 2059.47 75.7238C2059.5 75.7386 2059.52 75.746 2059.54 75.7608C2059.67 75.8201 2059.82 75.8571 2059.97 75.8645C2060 75.8645 2060.03 75.8645 2060.06 75.8645C2060.07 75.8645 2060.08 75.8645 2060.09 75.8645C2060.12 75.8645 2060.15 75.8645 2060.18 75.8645C2060.24 75.8645 2060.29 75.8571 2060.34 75.8423C2060.41 75.8275 2060.47 75.8053 2060.54 75.7756L2068.69 72.5384L2084.73 99.1695C2084.91 99.4658 2085.2 99.6806 2085.54 99.7621C2085.73 99.8065 2085.93 99.8139 2086.13 99.7695C2086.27 99.7399 2086.4 99.688 2086.53 99.6065L2246.31 2.4532L2246.34 2.43838L2246.37 2.42357C2246.37 2.42357 2246.38 2.40875 2246.39 2.40875C2246.41 2.39393 2246.44 2.37912 2246.45 2.3643C2246.47 2.3569 2246.48 2.34208 2246.5 2.32726C2246.51 2.31986 2246.52 2.30504 2246.53 2.29763C2246.54 2.29763 2246.55 2.28282 2246.56 2.27541C2246.57 2.27541 2246.58 2.26059 2246.58 2.25319C2246.61 2.22355 2246.64 2.20133 2246.67 2.1717C2246.67 2.1717 2246.67 2.16429 2246.68 2.15688C2246.68 2.15688 2246.69 2.14207 2246.7 2.13466C2246.7 2.12725 2246.72 2.11244 2246.73 2.10503C2246.73 2.09021 2246.74 2.08281 2246.75 2.0754C2246.77 2.04577 2246.78 2.01614 2246.81 1.98651C2246.81 1.98651 2246.81 1.9791 2246.81 1.97169C2246.83 1.94947 2246.84 1.92724 2246.85 1.90502C2246.87 1.86798 2246.89 1.83835 2246.9 1.80131C2246.9 1.77168 2246.92 1.74946 2246.93 1.71982C2246.93 1.71982 2246.93 1.71242 2246.93 1.70501C2246.94 1.66797 2246.95 1.63834 2246.96 1.6013C2246.96 1.57908 2246.96 1.55685 2246.97 1.52722C2246.97 1.51241 2246.97 1.49759 2246.98 1.49018C2246.98 1.46796 2246.98 1.44574 2246.98 1.43092C2246.98 1.4161 2246.98 1.40129 2246.98 1.37907C2246.98 1.36425 2246.98 1.34943 2246.98 1.32721C2246.98 1.3124 2246.98 1.29758 2246.98 1.28276C2246.98 1.27536 2246.98 1.26795 2246.98 1.26054C2246.98 1.24573 2246.98 1.23832 2246.98 1.2235C2246.98 1.19387 2246.98 1.16424 2246.96 1.13461C2246.96 1.13461 2246.96 1.1272 2246.96 1.11979C2246.96 1.08275 2246.96 1.05312 2246.95 1.02349C2246.95 1.00127 2246.93 0.979044 2246.93 0.949413L2246.95 0.956821ZM2230.33 2.63839L2048.56 34.0845L2029.82 3.03101L2230.33 2.63839H2230.33ZM2049.59 36.5513L2224.85 6.23858L2060.57 55.819H2060.55L2060.51 55.8412C2060.47 55.856 2060.43 55.8709 2060.38 55.8857C2060.38 55.8857 2060.37 55.8931 2060.36 55.8931C2060.32 55.9153 2060.28 55.9301 2060.24 55.9523C2060.19 55.982 2060.14 56.019 2060.1 56.0487C2060.07 56.0709 2060.03 56.1005 2060.01 56.1301C2059.97 56.1672 2059.93 56.1968 2059.9 56.2413C2059.88 56.2709 2059.86 56.3005 2059.84 56.3227C2059.84 56.3227 2059.82 56.3376 2059.81 56.345C2059.81 56.3598 2059.79 56.3746 2059.78 56.3968C2059.74 56.4635 2059.7 56.5376 2059.67 56.6191C2059.64 56.7228 2059.61 56.8265 2059.6 56.9376C2059.6 56.9672 2059.6 56.9969 2059.59 57.0265C2059.59 57.0487 2059.59 57.0635 2059.59 57.0857L2059.1 67.1381L2049.6 36.5661L2049.59 36.5513ZM2061.97 61.4193L2067.29 70.2568L2061.42 72.5903L2061.97 61.4193ZM2086.25 96.6879L2071.12 71.5532L2070.77 70.9754L2070.43 70.4198L2069.75 69.2864L2062.87 57.8413H2062.89L2215.85 11.6759L2230.99 7.1053L2236.26 5.51262L2231.98 8.11276L2086.25 96.6804V96.6879Z" fill="#1D1D1B"/>


<path d="M13.4648 536.836C51.4234 487.878 169.602 354.293 343.027 333.552C551.003 308.676 653.561 464.618 895.496 511.946C1061.14 544.348 1267.42 554.793 1285.47 431.853C1300.68 328.329 1218.41 175.995 1550.08 172.921C2059.75 168.209 1802.58 347.352 1643.6 323.781C1499.77 302.454 1929.98 119.073 2013.31 84.3086" stroke="#4C4C4C" stroke-miterlimit="10" stroke-dasharray="20.06 20.06"/>
</svg>
