<?xml version="1.0" encoding="UTF-8"?>
<svg id="Layer_2" data-name="Layer 2" xmlns="http://www.w3.org/2000/svg" viewBox="0 0 3027.31 750.72">
  <defs>
    <style>
          .cls-1 {
        fill: #1d1d1b;
      }

      .cls-2 {
        stroke-dasharray: 20.06 20.06;
      }

      .cls-2, .cls-3 {
        fill: none;
        stroke: #4c4c4c;
        stroke-miterlimit: 10;
      }
    
    </style>
  </defs>
  <g id="Layer_1-2" data-name="Layer 1">
    <g>
      <path class="cls-1" d="M3027.24,1.35s0-.01,0-.02c0-.01,0-.03-.01-.04h0s0-.02,0-.03c0-.02-.01-.03-.01-.05,0,0-.01-.02,0-.02,0-.03-.02-.06-.04-.09,0-.02-.02-.05-.03-.07-.01-.03-.03-.05-.04-.07-.03-.05-.05-.09-.08-.14,0,0,0-.01-.01-.02-.02-.03-.04-.06-.06-.08,0,0,0,0-.01-.02,0,0,0-.01-.01-.02,0-.01-.02-.02-.03-.03-.01-.02-.03-.03-.04-.05-.02-.02-.04-.04-.06-.07-.02-.02-.03-.04-.05-.05-.01-.01-.02-.02-.03-.03,0,0,0,0,0,0-.02-.02-.04-.03-.06-.05,0-.01-.01-.02-.02-.02,0,0-.02-.01-.03-.02,0,0-.02-.01-.03-.02,0,0,0,0-.01-.01-.03-.02-.06-.04-.09-.06,0,0,0,0,0,0-.03-.02-.06-.04-.09-.05-.01,0-.03-.01-.04-.02-.04-.02-.09-.04-.13-.06h0s-.1-.04-.14-.05c0,0,0,0-.01,0-.04-.01-.08-.02-.12-.03-.02,0-.03,0-.04,0-.05,0-.1-.02-.15-.02-.04,0-.09-.01-.14-.01-.01,0-.02,0-.03,0,0,0-.02,0-.02,0-.01,0-.02,0-.03,0l-309.28.6c-.67,0-1.28.36-1.61.94-.33.58-.32,1.29.03,1.86l28.79,47.7,17.11,55.09c.03.11.08.22.14.33.02.04.04.08.07.12.02.04.04.07.07.11.03.04.05.08.08.11,0,0,.01.01.02.02.03.04.07.08.1.11.03.03.07.07.11.1.03.02.06.04.08.07,0,0,0,0,.01,0,.04.03.08.05.12.08.04.02.07.04.12.06.03.02.06.03.09.05.19.09.4.14.61.15.04,0,.09,0,.13,0,.02,0,.03,0,.04,0,.04,0,.09,0,.13,0,.08,0,.16-.02.23-.03.1-.02.19-.05.29-.09l11.56-4.59,22.73,37.74c.25.42.66.73,1.14.84.28.07.56.07.84.01.2-.04.39-.12.57-.23L3026.33,3.48l.04-.02.04-.02s.02-.02.04-.02c.03-.02.06-.04.09-.06.02-.02.04-.03.06-.05.02-.01.04-.03.05-.04.01-.01.03-.02.04-.03.01-.01.03-.02.03-.03.04-.04.08-.08.11-.12,0,0,.01-.01.02-.02,0,0,.01-.02.02-.03.02-.01.03-.03.04-.05.01-.02.02-.03.04-.05.03-.04.06-.08.08-.12,0,0,0-.01.01-.02.02-.03.04-.06.05-.09.03-.05.05-.09.07-.14.01-.04.03-.08.04-.12,0,0,0-.01.01-.02.02-.05.03-.1.04-.15,0-.04.02-.07.02-.1,0-.02.01-.04.01-.06,0-.03,0-.06,0-.08,0-.02,0-.05,0-.07,0-.02,0-.05,0-.07,0-.02,0-.04,0-.06,0-.01,0-.02,0-.03,0-.02,0-.03,0-.05,0-.04,0-.08-.02-.13,0,0,0-.02,0-.02,0-.05-.01-.09-.02-.14,0-.04-.02-.07-.03-.1ZM3003.68,3.74l-257.68,44.57-26.56-44.01,284.23-.55ZM2747.47,51.8l248.44-42.97-232.87,70.27h-.03s-.07.03-.07.03c-.06.02-.12.04-.18.06-.01,0-.02.01-.03.02-.05.03-.11.05-.17.08-.07.04-.14.09-.21.14-.05.04-.09.07-.13.11-.05.05-.1.1-.14.15-.03.04-.07.08-.09.12,0,0-.02.02-.03.04-.01.02-.03.04-.05.07-.06.1-.11.2-.16.31-.06.14-.09.3-.11.45,0,.04,0,.08-.01.12,0,.03,0,.06,0,.09l-.7,14.24-13.46-43.33ZM2765.03,87.05l7.54,12.53-8.32,3.31.78-15.83ZM2799.44,137.03l-21.45-35.62-.49-.82-.47-.79-.96-1.6-9.77-16.22h.04s216.81-65.43,216.81-65.43l21.46-6.48,7.48-2.26-6.07,3.69-206.57,125.53Z"/>
      <g>
        <!-- <path class="cls-3" d="M.42,750.45s1.94-2.92,5.73-8.19"/> -->
        <path class="cls-2" d="M18.18,726.21c51.25-66.09,210.81-246.42,444.96-274.42,280.8-33.58,419.27,176.93,745.92,240.82,223.65,43.74,502.15,57.84,526.53-108.12,20.53-139.75-90.55-345.39,357.26-349.54,688.14-6.36,340.91,235.47,126.26,203.65-194.19-28.79,386.67-276.34,499.17-323.27"/>
        <!-- <path class="cls-3" d="M2727.55,111.47c6-2.48,9.24-3.81,9.24-3.81"/> -->
      </g>
    </g>
  </g>
</svg>