<svg width="220" height="180" viewBox="0 0 220 180" fill="none" xmlns="http://www.w3.org/2000/svg">
<g clip-path="url(#clip0_1546_1316)">
<path d="M60 75L80 75L80 60L60 60L60 75Z" fill="#FEE6BD"/>
<path d="M140 75L160 75L160 60L140 60L140 75Z" fill="#FEE6BD"/>
<path d="M60 60L80 60L80 45L60 45L60 60Z" fill="#FEE6BD"/>
<path d="M140 60L160 60L160 45L140 45L140 60Z" fill="#FEE6BD"/>
<path d="M120 75L140 75L140 60L120 60L120 75Z" fill="#FEE6BD"/>
<path d="M100 75L120 75L120 60L100 60L100 75Z" fill="black"/>
<path d="M100 120L120 120L120 105L100 105L100 120Z" fill="#FEE6BD"/>
<path d="M80 75L100 75L100 60L80 60L80 75Z" fill="#FEE6BD"/>
<path d="M0 90L20 90L20 75L1.31134e-06 75L0 90Z" fill="black"/>
<path d="M60 120L80 120L80 105L60 105L60 120Z" fill="#FEE6BD"/>
<path d="M80 120L100 120L100 105L80 105L80 120Z" fill="#FEE6BD"/>
<path d="M120 120L140 120L140 105L120 105L120 120Z" fill="#FEE6BD"/>
<path d="M140 120L160 120L160 105L140 105L140 120Z" fill="#FEE6BD"/>
<path d="M200 90L220 90L220 75L200 75L200 90Z" fill="black"/>
<path d="M0 45L20 45L20 30L1.31134e-06 30L0 45Z" fill="black"/>
<path d="M200 45L220 45L220 30L200 30L200 45Z" fill="black"/>
<path d="M0 30L20 30L20 15L1.31134e-06 15L0 30Z" fill="black"/>
<path d="M200 30L220 30L220 15L200 15L200 30Z" fill="black"/>
<path d="M0 15L20 15L20 0L1.31134e-06 -1.74846e-06L0 15Z" fill="black"/>
<path d="M200 15L220 15L220 0L200 -1.74846e-06L200 15Z" fill="black"/>
<path d="M0 105L20 105L20 90L1.31134e-06 90L0 105Z" fill="black"/>
<path d="M60 135L80 135L80 120L60 120L60 135Z" fill="#FEE6BD"/>
<path d="M80 135L100 135L100 120L80 120L80 135Z" fill="#FEE6BD"/>
<path d="M100 135L120 135L120 120L100 120L100 135Z" fill="#FEE6BD"/>
<path d="M120 135L140 135L140 120L120 120L120 135Z" fill="#FEE6BD"/>
<path d="M140 135L160 135L160 120L140 120L140 135Z" fill="#FEE6BD"/>
<path d="M200 105L220 105L220 90L200 90L200 105Z" fill="black"/>
<path d="M100 90L120 90L120 75L100 75L100 90Z" fill="#FEE6BD"/>
<path d="M0 60L20 60L20 45L1.31134e-06 45L0 60Z" fill="black"/>
<path d="M60 90L80 90L80 75L60 75L60 90Z" fill="#FEE6BD"/>
<path d="M80 90L100 90L100 75L80 75L80 90Z" fill="#FEE6BD"/>
<path d="M120 90L140 90L140 75L120 75L120 90Z" fill="#FEE6BD"/>
<path d="M140 90L160 90L160 75L140 75L140 90Z" fill="#FEE6BD"/>
<path d="M200 60L220 60L220 45L200 45L200 60Z" fill="black"/>
<path d="M0 75L20 75L20 60L1.31134e-06 60L0 75Z" fill="black"/>
<path d="M60 105L80 105L80 90L60 90L60 105Z" fill="#FEE6BD"/>
<path d="M80 105L100 105L100 90L80 90L80 105Z" fill="#FEE6BD"/>
<path d="M100 105L120 105L120 90L100 90L100 105Z" fill="#FEE6BD"/>
<path d="M120 105L140 105L140 90L120 90L120 105Z" fill="#FEE6BD"/>
<path d="M140 105L160 105L160 90L140 90L140 105Z" fill="#FEE6BD"/>
<path d="M200 75L220 75L220 60L200 60L200 75Z" fill="black"/>
<path d="M60 150L80 150L80 135L60 135L60 150Z" fill="black"/>
<path d="M80 150L100 150L100 135L80 135L80 150Z" fill="#FEE6BD"/>
<path d="M100 150L120 150L120 135L100 135L100 150Z" fill="#FEE6BD"/>
<path d="M120 150L140 150L140 135L120 135L120 150Z" fill="#FEE6BD"/>
<path d="M140 150L160 150L160 135L140 135L140 150Z" fill="black"/>
<path d="M80 165L100 165L100 150L80 150L80 165Z" fill="black"/>
<path d="M100 165L120 165L120 150L100 150L100 165Z" fill="#FEE6BD"/>
<path d="M120 165L140 165L140 150L120 150L120 165Z" fill="black"/>
<path d="M100 180L120 180L120 165L100 165L100 180Z" fill="black"/>
<path d="M60 45L80 45L80 30L60 30L60 45Z" fill="black"/>
<path d="M140 45L160 45L160 30L140 30L140 45Z" fill="black"/>
<path d="M160 60L180 60L180 45L160 45L160 60Z" fill="#FEE6BD"/>
<path d="M160 45L180 45L180 30L160 30L160 45Z" fill="#FEE6BD"/>
<path d="M160 105L180 105L180 90L160 90L160 105Z" fill="#FEE6BD"/>
<path d="M160 120L180 120L180 105L160 105L160 120Z" fill="#FEE6BD"/>
<path d="M160 75L180 75L180 60L160 60L160 75Z" fill="#FEE6BD"/>
<path d="M160 90L180 90L180 75L160 75L160 90Z" fill="#FEE6BD"/>
<path d="M160 135L180 135L180 120L160 120L160 135Z" fill="black"/>
<path d="M160 30L180 30L180 15L160 15L160 30Z" fill="black"/>
<path d="M180 45L200 45L200 30L180 30L180 45Z" fill="#FEE6BD"/>
<path d="M180 30L200 30L200 15L180 15L180 30Z" fill="#FEE6BD"/>
<path d="M180 90L200 90L200 75L180 75L180 90Z" fill="#FEE6BD"/>
<path d="M180 105L200 105L200 90L180 90L180 105Z" fill="#FEE6BD"/>
<path d="M180 60L200 60L200 45L180 45L180 60Z" fill="#FEE6BD"/>
<path d="M180 75L200 75L200 60L180 60L180 75Z" fill="#FEE6BD"/>
<path d="M180 120L200 120L200 105L180 105L180 120Z" fill="black"/>
<path d="M180 15L200 15L200 0L180 -1.74846e-06L180 15Z" fill="black"/>
<path d="M80 60L100 60L100 45L80 45L80 60Z" fill="black"/>
<path d="M20 45L40 45L40 30L20 30L20 45Z" fill="#FEE6BD"/>
<path d="M20 30L40 30L40 15L20 15L20 30Z" fill="#FEE6BD"/>
<path d="M40 45L60 45L60 30L40 30L40 45Z" fill="#FEE6BD"/>
<path d="M20 90L40 90L40 75L20 75L20 90Z" fill="#FEE6BD"/>
<path d="M40 90L60 90L60 75L40 75L40 90Z" fill="#FEE6BD"/>
<path d="M20 105L40 105L40 90L20 90L20 105Z" fill="#FEE6BD"/>
<path d="M40 105L60 105L60 90L40 90L40 105Z" fill="#FEE6BD"/>
<path d="M20 60L40 60L40 45L20 45L20 60Z" fill="#FEE6BD"/>
<path d="M40 60L60 60L60 45L40 45L40 60Z" fill="#FEE6BD"/>
<path d="M20 75L40 75L40 60L20 60L20 75Z" fill="#FEE6BD"/>
<path d="M40 75L60 75L60 60L40 60L40 75Z" fill="#FEE6BD"/>
<path d="M20 120L40 120L40 105L20 105L20 120Z" fill="black"/>
<path d="M40 120L60 120L60 105L40 105L40 120Z" fill="#FEE6BD"/>
<path d="M40 135L60 135L60 120L40 120L40 135Z" fill="black"/>
<path d="M20 15L40 15L40 0L20 -1.74846e-06L20 15Z" fill="black"/>
<path d="M40 30L60 30L60 15L40 15L40 30Z" fill="black"/>
<path d="M120 60L140 60L140 45L120 45L120 60Z" fill="black"/>
</g>
<defs>
<clipPath id="clip0_1546_1316">
<rect width="220" height="180" fill="white" transform="translate(220 180) rotate(-180)"/>
</clipPath>
</defs>
</svg>
