<?xml version="1.0" encoding="UTF-8"?>
<svg id="Layer_2" data-name="Layer 2" xmlns="http://www.w3.org/2000/svg" viewBox="0 0 850.53 249.24">
  <g id="Layer_1-2" data-name="Layer 1">
    <path d="M780.6,61.89c59.81,28.41,97.54,71.8,44.83,109.16-22.05,15.62-61.4,29.04-95.36,38.04-154.59,40.98-347.42,47.99-519.29,32.71-31.95-2.84-69-6.12-96.8-14.58-.96-.29-8.01-2.55-6.97-3.09,6.64,1.69,12.98,3.67,19.7,5.31,16.3,3.97,32.43,6.25,50.18,8.18,178.27,19.4,382.53,14.08,545.62-27.65,57.8-14.79,121.99-38.09,126.11-72.8,5.98-50.42-93.05-91.27-177.86-111.36C511.07-12.03,293.95-5.35,140.39,36.49,61.98,57.86-26.01,96.6,10.41,145.22c21.13,28.22,89.03,65.54,146.67,76.81,7.94,1.55,16.13,2.69,24.58,3.46l1.74,1.08c-8.81-1.04-17.63-2-26.12-3.59C96.64,211.66,19.31,168.9,3.89,138.24c-23.44-46.63,63.6-83.38,138.31-103.39C331.88-15.95,619.35-14.71,780.6,61.89Z"/>
  </g>
</svg>