<?xml version="1.0" encoding="UTF-8"?>
<svg id="Layer_2" data-name="Layer 2" xmlns="http://www.w3.org/2000/svg" viewBox="0 0 707.53 426.81">
  <g id="Layer_1-2" data-name="Layer 1">
    <path d="M649.36,105.98c49.76,48.66,81.14,122.96,37.29,186.94-18.34,26.76-51.08,49.72-79.32,65.14-128.6,70.18-289.01,82.18-431.98,56.02-26.58-4.86-57.4-10.48-80.53-24.97-.8-.5-6.66-4.37-5.8-5.29,5.53,2.89,10.8,6.29,16.38,9.09,13.56,6.8,26.98,10.7,41.74,14.01,148.29,33.22,318.22,24.11,453.89-47.36,48.08-25.33,101.48-65.24,104.91-124.67,4.97-86.34-77.4-156.29-147.95-190.7C425.15-20.6,244.52-9.16,116.79,62.49,51.56,99.08-21.63,165.41,8.66,248.69c17.58,48.32,74.06,112.23,122.01,131.54,6.6,2.66,13.42,4.61,20.45,5.93l1.44,1.85c-7.33-1.78-14.67-3.43-21.73-6.14-50.44-19.4-114.77-92.64-127.6-145.14C-16.26,156.88,56.14,93.94,118.3,59.67,276.08-27.31,515.21-25.2,649.36,105.98Z"/>
  </g>
</svg>