<svg xmlns="http://www.w3.org/2000/svg" width="2448" height="314" viewBox="0 0 2448 314" fill="none">
                        <path d="M2448 247.548C2419.85 219.584 2381.17 202.316 2338.47 202.316C2319.23 202.316 2300.8 205.828 2283.78 212.242C2227.91 87.1299 2102.95 0 1957.75 0C1837.23 0 1730.65 60.0341 1665.95 151.993C1636.46 139.104 1603.93 131.96 1569.72 131.96C1471.72 131.96 1387.34 190.632 1349.42 274.96C1325.97 260.753 1298.49 252.579 1269.11 252.579C1239.74 252.579 1212.52 260.676 1189.14 274.761C1153.36 237.262 1103.02 213.92 1047.26 213.92C1023.11 213.92 999.988 218.299 978.62 226.307C938.169 147.517 856.437 93.6453 762.197 93.6453C667.958 93.6453 585.343 148.096 545.122 227.584C526.177 219.345 505.28 214.78 483.328 214.78C435.73 214.78 393.115 236.24 364.523 270.066C326.882 225.224 270.578 196.742 207.663 196.742C171.549 196.742 137.613 206.128 108.134 222.605C98.0732 156.497 56.8365 100.724 0 70.9283V314H2448V247.548Z" fill="white" />
                    </svg>