<?xml version="1.0" encoding="UTF-8"?>
<svg id="Layer_2" data-name="Layer 2" xmlns="http://www.w3.org/2000/svg" viewBox="0 0 8000 970.46">
  <defs>
    <style>
      .cls-1 {
        fill: #fff;
      }
    </style>
  </defs>
  <g id="Layer_1-2" data-name="Layer 1">
    <path class="cls-1" d="M8000,970.46V357.38c-55.12-20.44-114.75-31.62-176.98-31.62-234.96,0-432.73,159.18-491.38,375.57-34.28-14.25-71.88-22.13-111.31-22.13-53.52,0-103.64,14.5-146.69,39.76-103.54-183.78-300.52-307.9-526.49-307.9-184.64,0-349.93,82.87-460.7,213.44-70.69-77.14-172.27-125.51-285.16-125.51-47.74,0-93.46,8.66-135.68,24.48C5527,214.9,5216.99,0,4856.79,0c-298.99,0-563.4,148.07-723.9,374.88-73.15-31.79-153.87-49.41-238.72-49.41-243.12,0-452.45,144.71-546.53,352.7-58.18-35.04-126.35-55.2-199.22-55.2s-140.39,19.97-198.39,54.71c-88.78-92.49-213.66-150.06-351.99-150.06-59.9,0-117.27,10.8-170.28,30.55-100.35-194.33-303.11-327.2-536.9-327.2s-438.74,134.3-538.52,330.35c-47-20.32-98.84-31.58-153.3-31.58-118.08,0-223.8,52.93-294.73,136.36-93.38-110.6-233.06-180.85-389.14-180.85-89.59,0-173.78,23.15-246.91,63.79C243.3,385.99,141,248.43,0,174.94v795.52h8000Z"/>
  </g>
</svg>