<svg width="43" height="54" viewBox="0 0 43 54" fill="none" xmlns="http://www.w3.org/2000/svg">
<g clip-path="url(#clip0_1675_618)">
<path d="M34.001 27.8954C33.7037 27.3921 33.3639 26.921 32.9935 26.4971C32.8731 26.3579 32.7528 26.2273 32.6261 26.0984L29.1277 22.5349L28.2578 21.6485C26.5392 19.8986 24.2379 18.9336 21.7753 18.9336C19.3127 18.9336 17.1191 19.8561 15.4139 21.529L14.0768 22.8416C14.1767 23.0594 14.3002 23.2592 14.4457 23.4409C14.5227 23.536 14.5959 23.6194 14.6659 23.6902L17.3 26.3736L18.7613 24.9391C19.5683 24.1471 20.6388 23.7106 21.7761 23.7106C22.9134 23.7106 24.0334 24.1668 24.8474 24.9949L25.7173 25.8813L29.2158 29.4448C29.3141 29.5439 29.414 29.6579 29.5202 29.7885C29.8285 30.1754 30.0684 30.6198 30.2304 31.1074C30.2729 31.2372 30.3091 31.3677 30.3382 31.4983C30.6709 32.9572 30.2367 34.4719 29.1592 35.529L16.4615 47.993C15.6546 48.7857 14.5841 49.2214 13.4468 49.2222C12.2796 49.2222 11.1895 48.7661 10.3754 47.9371L6.00707 43.4873C4.34436 41.7948 4.37031 39.0649 6.06369 37.4023L12.1286 31.4487L9.49451 28.7653C9.349 28.6182 9.21136 28.4688 9.0745 28.3099C8.98641 28.21 8.90147 28.1078 8.81731 28.0024L2.71547 33.9922C-0.858494 37.5006 -0.911191 43.2616 2.5967 46.8353L6.96505 51.2851C8.6836 53.0351 10.985 54 13.4476 54C15.8441 54 18.1038 53.0783 19.8082 51.4047L32.5066 38.9407C35.4663 36.0354 36.0821 31.4991 34.0034 27.901C34.0018 27.8986 34.001 27.8962 33.9994 27.8947L34.001 27.8954Z" fill="#232323"/>
<path d="M40.4041 7.16398L36.0366 2.71412C34.318 0.964215 32.0151 0 29.554 0C27.093 0 24.8978 0.921746 23.1918 2.59536L10.4942 15.0594C7.53454 17.9646 6.9179 22.501 8.99747 26.0991C8.99904 26.1015 8.99983 26.1038 9.0014 26.1054C9.29871 26.6087 9.6377 27.0798 10.0082 27.5029C10.1285 27.6429 10.2488 27.7735 10.3762 27.9017L13.8747 31.4652L14.7446 32.3516C16.4624 34.1015 18.7645 35.0657 21.2263 35.0665C23.6229 35.0665 25.8825 34.1439 27.5877 32.4711L28.924 31.1585C28.8241 30.9406 28.7007 30.7409 28.5559 30.5592C28.4789 30.464 28.4057 30.3807 28.3357 30.3099L25.7016 27.6264L24.2403 29.061C23.4325 29.8537 22.3621 30.2894 21.2255 30.2894C20.089 30.2894 18.9674 29.8333 18.1542 29.0051L17.2843 28.1188L13.7866 24.5552C13.6883 24.4554 13.5876 24.3421 13.4822 24.2116C13.1731 23.8246 12.934 23.3803 12.772 22.8926C12.7303 22.7629 12.6933 22.6323 12.6642 22.5018C12.3315 21.0421 12.7657 19.5281 13.8425 18.4711L26.5409 6.00708C27.3478 5.21431 28.4183 4.77782 29.5548 4.77782C30.6913 4.77782 31.8129 5.23398 32.6262 6.06292L36.9945 10.5128C38.6565 12.2053 38.6313 14.9351 36.9379 16.5977L30.873 22.5513L33.5071 25.2348C33.6518 25.3818 33.7887 25.5305 33.9263 25.6893C34.0144 25.7892 34.1001 25.8915 34.1843 25.9969L40.2854 20.0079C42.0133 18.3114 42.9776 16.0401 43.0004 13.6107C43.0232 11.1813 42.1014 8.89186 40.4049 7.16398H40.4041Z" fill="#232323"/>
</g>
<defs>
<clipPath id="clip0_1675_618">
<rect width="43" height="54" fill="white"/>
</clipPath>
</defs>
</svg>
