<?xml version="1.0" encoding="UTF-8"?>
<svg xmlns="http://www.w3.org/2000/svg" viewBox="0 0 570.59 403.43" width='150'>
  <defs>
    <style>
      /*  animation */
      @keyframes moveOrange {
        0% {
          transform: translate(-10px, 0);
        }

        50% {
          transform: translateX(20px); 
        }

        100% {
          transform: translate(-10px, 0);
        }
      }

      @keyframes  moveYellow {
        0% {
          transform: translateY(-10px);
        }
        50% {
          transform: translateY(30px); 
        }
        100% {
          transform: translateY(-10px);
        }
      }

      @keyframes moveGrey {
        0% {
          transform: translateY(20px);
        }
        50%{
          transform:translateY(0px)
        }
        100% {
          transform: translateY(20px);
        }
      }
      @keyframes scaleBlock {
        0%, 100% {transform: rotate(0); }
        50% {transform: rotate(.5deg);}
      }

      .cls-1 {
        fill: #f64117;
        animation: moveOrange 2s ease-in-out infinite; 
      }

      .cls-2 {
        fill: #b7b7b7;
        animation: moveGrey 2s ease-in-out infinite;
        animation-delay:.5s;
      }

      .cls-3 {
        fill: #fee6bd;
        animation: moveYellow 2s ease-in-out infinite; 

        animation-delay:.5s;
      }

      .block {
        animation: scaleBlock 1s infinite;
        transform-origin: 50% 50%
      }

    </style>
  </defs>
  <g id="Layer_3" data-name="Layer 3">
    <!-- Orange -->
    <rect class="cls-1" x="39.59" y="156" width="206" height="111"/>
    
    <!-- Yellow -->
     <rect class="cls-3" x="400.09" y="150.5" width="111" height="180"/>
    
    <!-- Grey -->
    <rect class="cls-2" x="268.59" width="161" height="111"/>
    
    <!-- Path -->
    <path class="block" d="M376.93,145.81h81.65c1.65,0,4.45,4.4,4.45,6.75v114.28h81.65c1.41,0,4.45,4.25,4.45,6.25v114.78h16.9c1.22,0,3.52,2.64,4.04,4.33,1.9,6.26-1.67,11.48-6.15,11.2H6.37c-4.94.46-8.46-7.68-4.95-13,.51-.77,2.62-2.53,3.18-2.53h16.9v-114.78c0-1.99,3.02-6.25,4.45-6.25h81.65v-114.28c0-2.36,2.8-6.75,4.45-6.75h81.65V31.53c0-2.51,2.42-6.15,4.25-6.53l175,.12c1.72.46,3.98,4.05,3.98,6.41v114.28ZM365.9,39.78h-161.17v106.03h161.17V39.78ZM279.8,160.82H118.63v106.03h161.17v-106.03ZM452,160.82h-161.17v106.03h161.17v-106.03ZM193.7,281.86H32.71l-.53.75v105.28h161.53v-106.03ZM365.9,281.86h-161.17v106.03h161.17v-106.03ZM538.46,387.89v-105.28l-.53-.75h-160.99v106.03h161.53Z"/>
  </g>
</svg>
