<?xml version="1.0" encoding="UTF-8"?>
<svg id="Layer_2" data-name="Layer 2" xmlns="http://www.w3.org/2000/svg" xmlns:xlink="http://www.w3.org/1999/xlink" viewBox="0 0 4800 2800">
  <defs>
    <style>
      .cls-1 {
        fill: none;
      }

      .cls-2 {
        fill: #d1d3d4;
      }

      .cls-3 {
        clip-path: url(#clippath);
      }
    </style>
    <clipPath id="clippath">
      <rect class="cls-1" width="4800" height="2800"/>
    </clipPath>
  </defs>
  <g id="Livello_1" data-name="Livello 1">
    <g class="cls-3">
      <g>
        <rect class="cls-2" x="-198.28" y="93.5" width="2893.83" height="9.93"/>
        <rect class="cls-2" x="-196.11" y="257.3" width="2893.83" height="9.92"/>
        <rect class="cls-2" x="-193.94" y="421.1" width="2893.83" height="9.93"/>
        <rect class="cls-2" x="-191.76" y="584.9" width="2893.83" height="9.93"/>
        <rect class="cls-2" x="-189.6" y="748.7" width="2893.84" height="9.93"/>
        <rect class="cls-2" x="-187.42" y="912.51" width="2893.84" height="9.93"/>
        <rect class="cls-2" x="-185.25" y="1076.3" width="2893.83" height="9.93"/>
        <rect class="cls-2" x="-183.08" y="1240.11" width="2893.83" height="9.93"/>
        <rect class="cls-2" x="-180.91" y="1403.92" width="2893.83" height="9.92"/>
        <rect class="cls-2" x="-178.73" y="1567.71" width="2893.83" height="9.93"/>
        <rect class="cls-2" x="-176.57" y="1731.51" width="2893.84" height="9.93"/>
        <rect class="cls-2" x="-174.39" y="1895.31" width="2893.84" height="9.93"/>
        <rect class="cls-2" x="-172.22" y="2059.12" width="2893.83" height="9.93"/>
        <rect class="cls-2" x="-170.05" y="2222.92" width="2893.83" height="9.93"/>
        <rect class="cls-2" x="-167.88" y="2386.72" width="2893.83" height="9.93"/>
        <rect class="cls-2" x="-165.71" y="2550.52" width="2893.84" height="9.93"/>
        <rect class="cls-2" x="-163.54" y="2714.32" width="2893.84" height="9.93"/>
        <rect class="cls-2" x="114.43" y="-22.84" width="9.93" height="2893.83"/>
        <rect class="cls-2" x="278.23" y="-25.01" width="9.93" height="2893.83"/>
        <rect class="cls-2" x="442.04" y="-27.19" width="9.93" height="2893.83"/>
        <rect class="cls-2" x="605.84" y="-29.36" width="9.93" height="2893.83"/>
        <rect class="cls-2" x="769.64" y="-31.53" width="9.93" height="2893.83"/>
        <rect class="cls-2" x="933.45" y="-33.7" width="9.92" height="2893.83"/>
        <rect class="cls-2" x="1097.25" y="-35.87" width="9.92" height="2893.83"/>
        <rect class="cls-2" x="1261.05" y="-38.05" width="9.92" height="2893.83"/>
        <rect class="cls-2" x="1424.85" y="-40.22" width="9.93" height="2893.83"/>
        <rect class="cls-2" x="1588.65" y="-42.39" width="9.93" height="2893.84"/>
        <rect class="cls-2" x="1752.45" y="-44.56" width="9.93" height="2893.83"/>
        <rect class="cls-2" x="1916.26" y="-46.73" width="9.92" height="2893.83"/>
        <rect class="cls-2" x="2080.06" y="-48.9" width="9.92" height="2893.83"/>
        <rect class="cls-2" x="2243.86" y="-51.07" width="9.92" height="2893.83"/>
        <rect class="cls-2" x="2407.66" y="-53.24" width="9.93" height="2893.83"/>
        <rect class="cls-2" x="2571.46" y="-55.42" width="9.93" height="2893.84"/>
      </g>
      <g>
        <rect class="cls-2" x="2578.11" y="93.46" width="2893.83" height="9.93"/>
        <rect class="cls-2" x="2580.28" y="257.26" width="2893.83" height="9.92"/>
        <rect class="cls-2" x="2582.45" y="421.06" width="2893.83" height="9.93"/>
        <rect class="cls-2" x="2584.62" y="584.86" width="2893.83" height="9.93"/>
        <rect class="cls-2" x="2586.79" y="748.66" width="2893.84" height="9.93"/>
        <rect class="cls-2" x="2588.96" y="912.47" width="2893.83" height="9.93"/>
        <rect class="cls-2" x="2591.13" y="1076.26" width="2893.83" height="9.93"/>
        <rect class="cls-2" x="2593.31" y="1240.07" width="2893.83" height="9.93"/>
        <rect class="cls-2" x="2595.48" y="1403.88" width="2893.84" height="9.92"/>
        <rect class="cls-2" x="2597.65" y="1567.67" width="2893.83" height="9.93"/>
        <rect class="cls-2" x="2599.82" y="1731.47" width="2893.84" height="9.93"/>
        <rect class="cls-2" x="2601.99" y="1895.27" width="2893.83" height="9.93"/>
        <rect class="cls-2" x="2604.17" y="2059.08" width="2893.83" height="9.93"/>
        <rect class="cls-2" x="2606.34" y="2222.88" width="2893.83" height="9.93"/>
        <rect class="cls-2" x="2608.51" y="2386.68" width="2893.83" height="9.92"/>
        <rect class="cls-2" x="2610.67" y="2550.48" width="2893.84" height="9.93"/>
        <rect class="cls-2" x="2612.85" y="2714.28" width="2893.84" height="9.93"/>
        <rect class="cls-2" x="2727.02" y="-20.71" width="9.93" height="2893.84"/>
        <rect class="cls-2" x="2890.82" y="-22.88" width="9.93" height="2893.83"/>
        <rect class="cls-2" x="3054.62" y="-25.05" width="9.93" height="2893.83"/>
        <rect class="cls-2" x="3218.42" y="-27.23" width="9.93" height="2893.83"/>
        <rect class="cls-2" x="3382.23" y="-29.4" width="9.92" height="2893.83"/>
        <rect class="cls-2" x="3546.02" y="-31.57" width="9.93" height="2893.83"/>
        <rect class="cls-2" x="3709.83" y="-33.74" width="9.92" height="2893.83"/>
        <rect class="cls-2" x="3873.63" y="-35.91" width="9.92" height="2893.83"/>
        <rect class="cls-2" x="4037.43" y="-38.09" width="9.92" height="2893.83"/>
        <rect class="cls-2" x="4201.23" y="-40.26" width="9.93" height="2893.83"/>
        <rect class="cls-2" x="4365.03" y="-42.43" width="9.93" height="2893.84"/>
        <rect class="cls-2" x="4528.83" y="-44.6" width="9.93" height="2893.83"/>
        <rect class="cls-2" x="4692.64" y="-46.77" width="9.92" height="2893.83"/>
      </g>
    </g>
  </g>
</svg>