<svg width="543" height="208" viewBox="0 0 543 208" fill="none" xmlns="http://www.w3.org/2000/svg">
<rect x="0.582005" y="27.6457" width="150" height="51" rx="25.5" transform="rotate(-10.3942 0.582005 27.6457)" fill="#CFCFCF"/>
<rect x="0.582005" y="27.6457" width="150" height="51" rx="25.5" transform="rotate(-10.3942 0.582005 27.6457)" stroke="black"/>
<path d="M50.7864 36.8385L55.5571 47.3828L56.505 35.7896L58.7889 35.3706L63.5596 45.9149L64.5075 34.3217L66.7914 33.9027L65.3174 48.8134L62.8564 49.2648L58.2619 39.1822L57.3149 50.2813L54.8539 50.7327L48.5025 37.2575L50.7864 36.8385ZM73.0239 36.932C74.6881 36.6267 75.9989 36.7889 76.9562 37.4185C77.9113 38.0363 78.5318 39.1242 78.8175 40.6822L79.821 46.153L77.6434 46.5524L77.3739 43.0882L77.1084 43.1369C77.1295 45.6463 76.0777 47.0958 73.9532 47.4855C72.7374 47.7085 71.781 47.6155 71.0838 47.2066C70.3865 46.7977 69.9502 46.1152 69.7749 45.1592C69.5865 44.1323 69.8465 43.255 70.5548 42.5273C71.2632 41.7995 72.3845 41.2949 73.9189 41.0135L76.5038 40.5393C76.271 39.9354 75.9033 39.5271 75.4007 39.3142C74.9077 39.0875 74.2539 39.0488 73.4395 39.1982C72.873 39.3021 72.4166 39.5078 72.0704 39.8153C71.722 40.111 71.4152 40.5333 71.1499 41.0822L69.1199 40.1918C69.5371 39.2735 70.056 38.5439 70.6766 38.0031C71.309 37.46 72.0914 37.103 73.0239 36.932ZM73.8706 45.1399C74.8621 44.958 75.5844 44.6059 76.0376 44.0836C76.4908 43.5613 76.7124 42.874 76.7025 42.0218L74.1885 42.483C73.3386 42.6388 72.7337 42.8657 72.3735 43.1636C72.0111 43.4496 71.8711 43.8169 71.9534 44.2655C72.0183 44.6195 72.213 44.8827 72.5374 45.055C72.8597 45.2155 73.3041 45.2438 73.8706 45.1399ZM83.3405 38.535C83.3197 37.6238 83.4313 36.9018 83.6752 36.369C83.9191 35.8363 84.2844 35.4338 84.7713 35.1615C85.2699 34.887 85.9383 34.6729 86.7763 34.5192L87.2277 36.9801C86.8606 36.9742 86.5237 36.9995 86.2168 37.0557C85.2843 37.2268 84.6185 37.6539 84.2192 38.3372C83.8295 39.0065 83.73 39.8604 83.9205 40.8991L84.7194 45.2544L82.4709 45.6669L80.6296 35.6284L82.878 35.2159L82.9864 38.5999L83.3405 38.535ZM91.6996 33.5978L91.808 36.9818L92.2329 36.9038C92.2662 35.5557 92.5882 34.5511 93.199 33.8901C93.8097 33.229 94.5636 32.8162 95.4607 32.6517C96.4875 32.4633 97.3464 32.623 98.0374 33.1307C98.7379 33.6244 99.1696 34.448 99.3324 35.6016L99.7573 35.5236C99.7907 34.1755 100.113 33.1709 100.723 32.5099C101.334 31.8488 102.088 31.436 102.985 31.2715C104.201 31.0485 105.197 31.2927 105.974 32.0042C106.763 32.7135 107.345 34.0891 107.72 36.131L108.59 40.8759L106.395 41.2786L105.524 36.5337C105.124 34.3502 104.133 33.4034 102.551 33.6936C101.619 33.8646 100.951 34.3164 100.549 35.0491C100.144 35.7699 100.05 36.7204 100.267 37.9008L101.065 42.2561L98.8701 42.6588L97.9998 37.914C97.5992 35.7304 96.6082 34.7837 95.0265 35.0738C94.0941 35.2448 93.4267 35.6966 93.0242 36.4293C92.6197 37.1501 92.5256 38.1007 92.7421 39.281L93.541 43.6363L91.2748 44.052L89.4335 34.0135L91.6996 33.5978Z" fill="black"/>
<rect x="151.716" y="24.1312" width="120" height="51" rx="25.5" transform="rotate(5.21136 151.716 24.1312)" fill="#F8F8F5"/>
<rect x="151.716" y="24.1312" width="120" height="51" rx="25.5" transform="rotate(5.21136 151.716 24.1312)" stroke="black"/>
<path d="M196.421 58.5843L204.488 59.32L204.283 61.5607L196.219 60.8071L196.217 60.825L193.976 60.6206L195.284 46.2801L197.525 46.4845L196.421 58.5843ZM209.286 50.8649C208.916 50.8311 208.616 50.6833 208.387 50.4214C208.159 50.1475 208.061 49.8313 208.094 49.4728C208.126 49.1143 208.28 48.821 208.553 48.593C208.827 48.3649 209.149 48.2677 209.52 48.3015C209.866 48.3331 210.148 48.4853 210.364 48.7581C210.592 49.0319 210.69 49.3481 210.657 49.7066C210.624 50.0651 210.471 50.3584 210.197 50.5865C209.936 50.8037 209.633 50.8965 209.286 50.8649ZM208.073 51.6761L210.314 51.8805L209.389 62.0264L207.148 61.822L208.073 51.6761ZM219.722 52.4674C221.144 52.5971 222.167 53.1362 222.791 54.0849C223.428 55.0346 223.656 56.4954 223.476 58.4672L223.038 63.2713L220.815 63.0685L221.253 58.2645C221.357 57.1292 221.218 56.273 220.837 55.696C220.456 55.119 219.799 54.788 218.867 54.703C217.923 54.6169 217.147 54.8714 216.538 55.4666C215.93 56.0498 215.572 56.939 215.463 58.134L215.061 62.5437L212.767 62.3344L213.692 52.1885L215.986 52.3978L215.182 55.6683L215.523 55.6993C215.753 54.7564 216.059 54.0432 216.441 53.5599C216.823 53.0646 217.274 52.7442 217.794 52.5988C218.326 52.4425 218.969 52.3987 219.722 52.4674Z" fill="black"/>
<rect x="0.697659" y="165.338" width="123" height="51" rx="25.5" transform="rotate(-35.6232 0.697659 165.338)" fill="#CFCFCF"/>
<rect x="0.697659" y="165.338" width="123" height="51" rx="25.5" transform="rotate(-35.6232 0.697659 165.338)" stroke="black"/>
<path d="M56.2425 150.574L49.6583 155.292L51.8809 158.394L57.5036 154.342L58.8246 156.186L53.1915 160.222L56.7246 165.153L54.8957 166.464L46.5084 154.759L48.3373 153.448L48.3478 153.463L54.9215 148.73L56.2425 150.574ZM67.2323 145.113L73.1663 153.394L71.2935 154.736L69.7636 151.736L69.4856 151.935C69.9277 152.799 70.166 153.544 70.2004 154.169C70.2278 154.784 70.0912 155.325 69.7906 155.791C69.4928 156.241 69.0366 156.686 68.422 157.126C67.2613 157.958 66.1296 158.222 65.0272 157.92C63.9344 157.61 62.8114 156.651 61.6582 155.041L58.8484 151.12L60.6627 149.82L63.4725 153.741C64.1365 154.668 64.8013 155.225 65.467 155.412C66.1327 155.6 66.846 155.421 67.6068 154.876C68.3774 154.323 68.8018 153.628 68.8801 152.79C68.9514 151.941 68.6375 151.03 67.9386 150.054L65.3595 146.455L67.2323 145.113ZM74.6121 139.493C75.7729 138.661 76.8997 138.4 77.9924 138.709C79.0949 139.012 80.2227 139.968 81.376 141.577L84.1857 145.498L82.3714 146.798L79.5617 142.877C78.8977 141.95 78.2328 141.393 77.5672 141.206C76.9015 141.019 76.1882 141.198 75.4274 141.743C74.6568 142.295 74.2358 142.995 74.1646 143.844C74.0863 144.682 74.3967 145.589 75.0956 146.564L77.6747 150.164L75.8019 151.506L69.8678 143.224L71.7407 141.882L73.2706 144.883L73.5486 144.684C73.1065 143.819 72.8717 143.08 72.8443 142.464C72.8099 141.84 72.9416 141.302 73.2394 140.853C73.54 140.386 73.9976 139.933 74.6121 139.493Z" fill="black"/>
<rect x="295.081" y="6.68835" width="214" height="51" rx="25.5" transform="rotate(32.4852 295.081 6.68835)" fill="#CFCFCF"/>
<rect x="295.081" y="6.68835" width="214" height="51" rx="25.5" transform="rotate(32.4852 295.081 6.68835)" stroke="black"/>
<path d="M327.771 48.9603C329.957 50.3524 331.205 51.9007 331.513 53.6053C331.832 55.3163 331.399 57.1031 330.213 58.9656C329.014 60.8484 327.563 62.0224 325.858 62.4877C324.153 62.953 322.213 62.4928 320.037 61.1071L315.922 58.4872L323.656 46.3404L325.554 47.5488L325.544 47.564L327.771 48.9603ZM321.255 59.194C322.719 60.1119 324.034 60.4588 325.201 60.2345C326.368 60.0102 327.406 59.1844 328.315 57.7572C330.055 55.0242 329.468 52.7296 326.552 50.8734L324.336 49.462L319.028 57.7977L321.255 59.194ZM332.851 64.145C332.576 64.8233 332.54 65.4831 332.743 66.1247C332.963 66.7625 333.407 67.2942 334.075 67.7195C335.148 68.4027 336.262 68.5291 337.419 68.0986L338.148 69.801C337.277 70.2987 336.383 70.5189 335.466 70.4616C334.549 70.4043 333.686 70.1179 332.876 69.6023C332.077 69.0931 331.463 68.4253 331.036 67.5987C330.616 66.762 330.419 65.8756 330.446 64.9396C330.49 63.9999 330.769 63.1252 331.285 62.3154C331.8 61.5056 332.472 60.8873 333.298 60.4605C334.135 60.0401 335.018 59.8484 335.947 59.8854C336.883 59.9124 337.751 60.1804 338.551 60.6895C339.401 61.2309 340.015 61.9204 340.392 62.758C340.769 63.5957 340.885 64.5087 340.739 65.4971C340.6 66.4754 340.203 67.4458 339.547 68.4084L332.851 64.145ZM337.372 62.5419C336.744 62.1423 336.091 61.983 335.414 62.0638C334.753 62.1409 334.175 62.4128 333.679 62.8793L338.537 65.9729C338.796 65.2983 338.809 64.6522 338.576 64.0346C338.36 63.4133 337.959 62.9157 337.372 62.5419ZM345.311 70.9474C344.738 71.8483 344.397 72.4847 344.288 72.8565C344.179 73.2283 344.263 73.5661 344.539 73.8699C344.832 74.17 345.469 74.6326 346.451 75.2578L345.242 77.1557C343.744 76.2019 342.753 75.4004 342.27 74.7515C341.787 74.1025 341.64 73.4398 341.829 72.7634C342.035 72.0833 342.563 71.0752 343.413 69.739L344.815 67.5374L343.145 66.474L344.382 64.5305L346.053 65.5939L347.928 62.6483L349.826 63.8567L347.951 66.8023L350.699 68.5522L349.461 70.4956L346.713 68.7458L345.311 70.9474ZM351.777 76.1954C351.502 76.8736 351.466 77.5335 351.669 78.175C351.889 78.8129 352.333 79.3445 353.001 79.7699C354.074 80.453 355.189 80.5794 356.345 80.149L357.074 81.8513C356.203 82.349 355.309 82.5692 354.392 82.512C353.475 82.4547 352.612 82.1682 351.802 81.6526C351.003 81.1435 350.389 80.4756 349.962 79.649C349.542 78.8123 349.345 77.926 349.372 76.99C349.416 76.0503 349.695 75.1756 350.211 74.3658C350.726 73.556 351.398 72.9377 352.224 72.5108C353.061 72.0904 353.944 71.8987 354.874 71.9358C355.81 71.9627 356.677 72.2307 357.477 72.7399C358.327 73.2813 358.941 73.9708 359.318 74.8084C359.695 75.646 359.811 76.559 359.665 77.5474C359.526 78.5258 359.129 79.4962 358.473 80.4587L351.777 76.1954ZM356.298 74.5923C355.67 74.1927 355.018 74.0333 354.34 74.1141C353.679 74.1913 353.101 74.4631 352.605 74.9296L357.463 78.0232C357.722 77.3486 357.735 76.7025 357.502 76.0849C357.286 75.4636 356.885 74.9661 356.298 74.5923ZM363.935 80.9273C364.54 80.2454 365.113 79.7923 365.654 79.5679C366.195 79.3434 366.737 79.2971 367.279 79.4288C367.831 79.567 368.466 79.8649 369.185 80.3225L367.841 82.433C367.576 82.1789 367.312 81.9681 367.049 81.8005C366.249 81.2914 365.471 81.1513 364.713 81.3803C363.972 81.6056 363.318 82.1636 362.751 83.0544L360.373 86.7896L358.445 85.5618L363.926 76.9527L365.854 78.1805L363.631 80.7339L363.935 80.9273ZM373.42 82.9974L371.197 85.5509L371.561 85.7829C372.503 84.8177 373.422 84.3007 374.32 84.2319C375.217 84.1631 376.05 84.3736 376.82 84.8634C377.7 85.4241 378.221 86.1255 378.382 86.9677C378.559 87.8062 378.315 88.7035 377.65 89.6596L378.014 89.8916C378.956 88.9264 379.875 88.4093 380.773 88.3405C381.67 88.2717 382.503 88.4822 383.273 88.9721C384.315 89.6359 384.879 90.4929 384.965 91.543C385.06 92.5996 384.55 94.0035 383.435 95.7547L380.844 99.8239L378.962 98.6251L381.553 94.5559C382.745 92.6833 382.663 91.3151 381.306 90.4515C380.507 89.9424 379.71 89.8193 378.917 90.0823C378.13 90.3352 377.414 90.9678 376.77 91.98L374.391 95.7152L372.509 94.5164L375.1 90.4472C376.292 88.5746 376.21 87.2065 374.853 86.3428C374.054 85.8337 373.257 85.7106 372.464 85.9737C371.677 86.2266 370.961 86.8591 370.317 87.8714L367.938 91.6065L365.995 90.3691L371.476 81.76L373.42 82.9974ZM390.657 92.9053C390.343 92.7055 390.144 92.4367 390.061 92.099C389.983 91.751 390.041 91.4252 390.235 91.1216C390.428 90.8179 390.699 90.6275 391.047 90.5502C391.395 90.473 391.725 90.5343 392.039 90.7341C392.333 90.921 392.513 91.1852 392.58 91.5266C392.657 91.8746 392.599 92.2004 392.406 92.504C392.213 92.8077 391.942 92.9981 391.594 93.0754C391.263 93.1489 390.95 93.0922 390.657 92.9053ZM389.207 93.0706L391.105 94.2791L385.633 102.873L383.735 101.665L389.207 93.0706ZM399.198 99.1116C400.402 99.8786 401.065 100.827 401.185 101.956C401.315 103.092 400.849 104.495 399.785 106.165L397.195 110.234L395.312 109.035L397.903 104.966C398.515 104.005 398.784 103.18 398.71 102.492C398.635 101.805 398.203 101.21 397.414 100.707C396.614 100.198 395.807 100.068 394.994 100.319C394.186 100.559 393.461 101.185 392.816 102.197L390.438 105.932L388.494 104.695L393.966 96.1008L395.91 97.3382L393.696 99.8765L393.985 100.06C394.622 99.3277 395.22 98.8341 395.781 98.5793C396.348 98.3144 396.896 98.2363 397.424 98.345C397.969 98.4501 398.56 98.7056 399.198 99.1116ZM403.734 109.276C403.458 109.954 403.422 110.614 403.625 111.256C403.845 111.894 404.289 112.425 404.957 112.851C406.03 113.534 407.145 113.66 408.301 113.23L409.031 114.932C408.159 115.43 407.265 115.65 406.348 115.593C405.431 115.536 404.568 115.249 403.758 114.733C402.959 114.224 402.346 113.556 401.919 112.73C401.498 111.893 401.302 111.007 401.328 110.071C401.372 109.131 401.651 108.256 402.167 107.447C402.683 106.637 403.354 106.019 404.18 105.592C405.017 105.171 405.9 104.98 406.83 105.017C407.766 105.044 408.634 105.312 409.433 105.821C410.284 106.362 410.897 107.052 411.274 107.889C411.652 108.727 411.767 109.64 411.622 110.628C411.482 111.607 411.085 112.577 410.43 113.54L403.734 109.276ZM408.254 107.673C407.626 107.274 406.974 107.114 406.296 107.195C405.636 107.272 405.057 107.544 404.561 108.01L409.42 111.104C409.678 110.429 409.691 109.783 409.459 109.166C409.243 108.544 408.841 108.047 408.254 107.673ZM426.994 112.136L419.26 124.283L417.316 123.046L419.266 120.318L419.008 120.154C417.379 121.976 415.623 122.288 413.74 121.089C413.042 120.644 412.526 120.046 412.194 119.294C411.869 118.532 411.748 117.715 411.833 116.845C411.918 115.974 412.202 115.159 412.686 114.4C413.24 113.529 413.906 112.851 414.685 112.365C415.47 111.87 416.275 111.6 417.1 111.556C417.935 111.518 418.706 111.725 419.415 112.176C420.245 112.705 420.782 113.402 421.027 114.269C421.288 115.133 421.226 116.089 420.842 117.139L421.161 117.342L422.788 114.452L425.05 110.899L426.994 112.136ZM415.636 119.586C416.091 119.876 416.586 120.027 417.118 120.039C417.668 120.047 418.176 119.93 418.644 119.687C419.122 119.451 419.493 119.125 419.757 118.71C420.047 118.255 420.2 117.769 420.216 117.252C420.238 116.726 420.124 116.234 419.875 115.777C419.632 115.309 419.273 114.924 418.797 114.621C418.058 114.15 417.299 114.001 416.521 114.174C415.748 114.337 415.127 114.788 414.657 115.527C414.36 115.992 414.199 116.48 414.173 116.99C414.164 117.496 414.284 117.978 414.533 118.436C414.782 118.893 415.15 119.276 415.636 119.586Z" fill="black"/>
<rect x="51.7289" y="64.5482" width="306" height="51" rx="25.5" transform="rotate(5.82989 51.7289 64.5482)" fill="#FEE6BD"/>
<rect x="51.7289" y="64.5482" width="306" height="51" rx="25.5" transform="rotate(5.82989 51.7289 64.5482)" stroke="black"/>
<path d="M105.123 90.4566L97.0649 89.6338L96.6773 93.4301L103.573 94.1161L103.343 96.3724L96.4487 95.6685L95.8326 101.703L93.5942 101.475L95.0569 87.149L97.2953 87.3776L97.2934 87.3955L105.353 88.2003L105.123 90.4566ZM108.507 96.1216C108.742 95.2409 109.051 94.5789 109.434 94.1355C109.817 93.6921 110.28 93.4077 110.823 93.2822C111.379 93.158 112.08 93.1392 112.928 93.2257L112.674 95.7148C112.323 95.6066 111.993 95.5367 111.682 95.505C110.739 95.4087 109.98 95.6328 109.406 96.1772C108.845 96.711 108.511 97.5032 108.403 98.5537L107.954 102.959L105.68 102.727L106.716 92.5734L108.99 92.8056L108.149 96.0851L108.507 96.1216ZM118.925 104.35C117.982 104.254 117.147 103.928 116.42 103.371C115.693 102.814 115.144 102.101 114.775 101.231C114.417 100.362 114.288 99.438 114.388 98.4591C114.487 97.4921 114.799 96.6253 115.323 95.8586C115.86 95.0932 116.54 94.5113 117.365 94.113C118.19 93.7147 119.074 93.5637 120.017 93.66C120.96 93.7563 121.795 94.0828 122.522 94.6396C123.249 95.1963 123.792 95.9031 124.151 96.76C124.51 97.6169 124.64 98.5288 124.541 99.4958C124.441 100.475 124.129 101.353 123.603 102.132C123.077 102.911 122.402 103.499 121.577 103.897C120.752 104.296 119.868 104.447 118.925 104.35ZM119.152 102.13C120.011 102.218 120.728 101.995 121.301 101.463C121.875 100.918 122.209 100.192 122.301 99.2851C122.394 98.3779 122.213 97.6055 121.76 96.9682C121.306 96.3308 120.65 95.9682 119.79 95.8805C118.942 95.7939 118.225 96.0223 117.639 96.5655C117.054 97.0969 116.716 97.8102 116.625 98.7056C116.532 99.6128 116.718 100.392 117.182 101.042C117.648 101.681 118.304 102.043 119.152 102.13ZM133.767 95.0821C135.188 95.2271 136.205 95.7773 136.819 96.7326C137.445 97.6892 137.658 99.1523 137.457 101.122L136.967 105.921L134.746 105.694L135.236 100.895C135.352 99.7613 135.223 98.9037 134.848 98.3226C134.473 97.7415 133.82 97.4034 132.889 97.3083C131.945 97.212 131.166 97.4582 130.551 98.0468C129.938 98.6234 129.57 99.5086 129.448 100.702L128.998 105.108L126.706 104.873L127.741 94.7382L130.033 94.9722L129.193 98.2338L129.534 98.2685C129.774 97.3281 130.088 96.6183 130.475 96.1391C130.863 95.648 131.317 95.3325 131.838 95.1927C132.372 95.0422 133.015 95.0053 133.767 95.0821ZM144.394 101.378C144.286 102.441 144.266 103.162 144.336 103.543C144.405 103.924 144.632 104.189 145.015 104.336C145.411 104.473 146.188 104.601 147.346 104.719L147.117 106.958C145.351 106.777 144.106 106.505 143.383 106.142C142.66 105.779 142.231 105.252 142.097 104.563C141.975 103.863 141.995 102.725 142.156 101.15L142.421 98.553L140.451 98.3519L140.685 96.0598L142.655 96.2609L143.009 92.787L145.248 93.0155L144.893 96.4895L148.134 96.8204L147.9 99.1125L144.659 98.7816L144.394 101.378ZM157.882 103.533L150.253 102.754L150.478 100.552L158.107 101.331L157.882 103.533ZM171.646 97.2669L163.588 96.4442L163.2 100.24L170.096 100.926L169.866 103.183L162.972 102.479L162.584 106.275L170.644 107.08L170.414 109.336L160.117 108.285L161.578 93.9773L171.875 95.0286L171.646 97.2669ZM180.157 99.8187C181.578 99.9637 182.595 100.514 183.209 101.469C183.836 102.426 184.048 103.889 183.847 105.859L183.357 110.658L181.136 110.431L181.626 105.632C181.742 104.498 181.613 103.64 181.238 103.059C180.863 102.478 180.21 102.14 179.279 102.045C178.336 101.949 177.557 102.195 176.942 102.783C176.328 103.36 175.96 104.245 175.838 105.439L175.388 109.844L173.096 109.61L174.131 99.4748L176.423 99.7088L175.584 102.97L175.924 103.005C176.165 102.065 176.478 101.355 176.865 100.876C177.253 100.385 177.707 100.069 178.228 99.9293C178.762 99.7787 179.405 99.7419 180.157 99.8187ZM198.301 97.7087L196.838 112.034L194.546 111.8L195.065 108.488L194.761 108.457C194.122 110.816 192.692 111.882 190.472 111.656C189.648 111.571 188.919 111.268 188.285 110.745C187.652 110.21 187.178 109.534 186.863 108.718C186.549 107.902 186.437 107.046 186.528 106.151C186.633 105.124 186.925 104.219 187.403 103.435C187.882 102.64 188.48 102.038 189.198 101.628C189.927 101.22 190.709 101.059 191.545 101.144C192.524 101.244 193.317 101.627 193.925 102.292C194.545 102.946 194.92 103.829 195.047 104.94L195.424 104.978L195.581 101.665L196.009 97.4746L198.301 97.7087ZM191.492 109.462C192.029 109.517 192.538 109.43 193.02 109.202C193.515 108.963 193.917 108.63 194.226 108.203C194.547 107.777 194.732 107.32 194.782 106.83C194.837 106.293 194.756 105.79 194.538 105.322C194.322 104.841 194 104.453 193.571 104.156C193.145 103.847 192.651 103.664 192.09 103.606C191.218 103.517 190.473 103.725 189.855 104.228C189.238 104.72 188.885 105.402 188.796 106.273C188.74 106.823 188.814 107.331 189.02 107.798C189.239 108.255 189.562 108.632 189.99 108.929C190.418 109.226 190.919 109.403 191.492 109.462ZM211.214 99.0271C213.793 99.2904 215.602 100.115 216.643 101.499C217.696 102.885 218.11 104.677 217.885 106.873C217.659 109.094 216.888 110.794 215.573 111.975C214.259 113.155 212.318 113.615 209.751 113.353L204.898 112.857L206.361 98.5317L208.6 98.7602L208.598 98.7781L211.214 99.0271ZM209.982 111.096C211.702 111.26 213.033 110.98 213.976 110.256C214.918 109.532 215.475 108.328 215.647 106.645C215.976 103.422 214.422 101.634 210.984 101.283L208.369 101.016L207.365 110.847L209.982 111.096ZM222.567 110.319C222.625 111.048 222.889 111.654 223.358 112.137C223.841 112.608 224.476 112.884 225.264 112.964C226.53 113.094 227.582 112.707 228.422 111.803L229.838 112.997C229.283 113.833 228.582 114.431 227.737 114.791C226.892 115.151 225.992 115.282 225.037 115.185C224.094 115.089 223.247 114.767 222.494 114.22C221.743 113.66 221.17 112.956 220.774 112.108C220.391 111.249 220.249 110.341 220.346 109.386C220.444 108.431 220.766 107.578 221.313 106.825C221.872 106.074 222.576 105.507 223.423 105.123C224.272 104.727 225.168 104.577 226.111 104.673C227.113 104.776 227.971 105.117 228.684 105.696C229.397 106.276 229.91 107.04 230.223 107.988C230.538 108.925 230.618 109.971 230.464 111.125L222.567 110.319ZM225.888 106.858C225.147 106.783 224.493 106.933 223.924 107.309C223.368 107.674 222.973 108.177 222.738 108.816L228.469 109.401C228.397 108.682 228.119 108.099 227.634 107.652C227.162 107.193 226.58 106.929 225.888 106.858ZM240.902 106.292L243.23 106.53L239.76 116.417L234.818 115.912L233.22 105.508L235.548 105.746L236.93 114.716L237.915 114.817L240.902 106.292ZM247.073 112.821C247.132 113.551 247.395 114.157 247.865 114.639C248.348 115.11 248.983 115.386 249.771 115.467C251.036 115.596 252.089 115.209 252.929 114.305L254.345 115.499C253.789 116.335 253.089 116.933 252.244 117.293C251.399 117.653 250.499 117.785 249.544 117.687C248.601 117.591 247.753 117.269 247.001 116.722C246.25 116.163 245.676 115.459 245.28 114.61C244.898 113.751 244.755 112.844 244.853 111.889C244.95 110.933 245.273 110.08 245.82 109.328C246.379 108.576 247.082 108.009 247.93 107.625C248.778 107.229 249.674 107.079 250.617 107.176C251.62 107.278 252.478 107.619 253.191 108.198C253.904 108.778 254.417 109.542 254.73 110.491C255.044 111.427 255.124 112.473 254.97 113.627L247.073 112.821ZM250.394 109.36C249.654 109.285 248.999 109.435 248.43 109.811C247.874 110.177 247.479 110.679 247.245 111.319L252.975 111.904C252.904 111.185 252.626 110.601 252.141 110.154C251.669 109.696 251.087 109.431 250.394 109.36ZM258.697 103.875L260.935 104.104L259.473 118.429L257.234 118.201L258.697 103.875ZM267.21 119.491C266.267 119.394 265.431 119.068 264.704 118.511C263.977 117.954 263.429 117.241 263.059 116.371C262.702 115.502 262.573 114.578 262.673 113.599C262.771 112.632 263.083 111.766 263.608 110.999C264.144 110.234 264.825 109.652 265.65 109.253C266.474 108.855 267.358 108.704 268.301 108.8C269.244 108.897 270.079 109.223 270.807 109.78C271.534 110.337 272.077 111.043 272.436 111.9C272.795 112.757 272.925 113.669 272.826 114.636C272.726 115.615 272.413 116.494 271.887 117.272C271.361 118.051 270.686 118.639 269.861 119.038C269.037 119.436 268.153 119.587 267.21 119.491ZM267.436 117.27C268.296 117.358 269.012 117.136 269.585 116.603C270.16 116.059 270.493 115.333 270.586 114.425C270.678 113.518 270.498 112.746 270.044 112.109C269.591 111.471 268.934 111.109 268.075 111.021C267.227 110.934 266.51 111.163 265.924 111.706C265.339 112.237 265.001 112.951 264.909 113.846C264.817 114.753 265.002 115.532 265.467 116.183C265.932 116.821 266.589 117.184 267.436 117.27ZM282.376 110.418C283.211 110.504 283.939 110.819 284.559 111.365C285.19 111.912 285.661 112.623 285.969 113.499C286.279 114.363 286.382 115.309 286.277 116.335C286.185 117.231 285.903 118.046 285.43 118.782C284.957 119.518 284.356 120.083 283.628 120.48C282.901 120.864 282.126 121.014 281.302 120.93C280.252 120.822 279.416 120.442 278.795 119.787C278.175 119.133 277.826 118.18 277.748 116.93L277.444 116.899L276.917 123.829L274.625 123.595L276.026 109.879L278.318 110.113L277.8 113.407L278.158 113.444C278.511 112.358 279.051 111.556 279.779 111.04C280.519 110.524 281.385 110.317 282.376 110.418ZM280.747 118.575C281.32 118.634 281.846 118.561 282.325 118.356C282.804 118.152 283.191 117.848 283.486 117.443C283.793 117.029 283.975 116.547 284.031 115.997C284.12 115.126 283.912 114.387 283.407 113.781C282.904 113.162 282.216 112.808 281.344 112.719C280.795 112.663 280.281 112.738 279.802 112.942C279.323 113.146 278.924 113.449 278.605 113.851C278.299 114.254 278.119 114.712 278.067 115.226C278.013 115.751 278.093 116.266 278.307 116.77C278.522 117.262 278.842 117.675 279.267 118.008C279.704 118.33 280.197 118.519 280.747 118.575ZM291.208 117.327C291.266 118.057 291.53 118.663 291.999 119.145C292.482 119.616 293.117 119.892 293.905 119.973C295.17 120.102 296.223 119.715 297.063 118.812L298.479 120.006C297.923 120.842 297.223 121.439 296.378 121.8C295.533 122.16 294.633 122.291 293.678 122.193C292.735 122.097 291.887 121.775 291.135 121.228C290.384 120.669 289.811 119.965 289.415 119.116C289.032 118.257 288.889 117.35 288.987 116.395C289.084 115.44 289.407 114.586 289.954 113.834C290.513 113.083 291.217 112.515 292.064 112.131C292.913 111.735 293.808 111.586 294.751 111.682C295.754 111.784 296.612 112.125 297.325 112.705C298.038 113.284 298.551 114.048 298.864 114.997C299.178 115.934 299.259 116.979 299.105 118.133L291.208 117.327ZM294.528 113.867C293.788 113.791 293.134 113.941 292.564 114.317C292.008 114.683 291.613 115.185 291.379 115.825L297.109 116.41C297.038 115.691 296.76 115.108 296.275 114.66C295.803 114.202 295.221 113.937 294.528 113.867ZM304.196 116.102C304.431 115.221 304.739 114.559 305.122 114.116C305.505 113.673 305.969 113.388 306.512 113.263C307.068 113.139 307.769 113.12 308.617 113.206L308.363 115.695C308.012 115.587 307.681 115.517 307.371 115.485C306.428 115.389 305.669 115.613 305.095 116.158C304.534 116.691 304.2 117.484 304.092 118.534L303.643 122.939L301.368 122.707L302.405 112.554L304.679 112.786L303.838 116.066L304.196 116.102Z" fill="black"/>
<rect x="89.2161" y="146.035" width="274" height="51" rx="25.5" transform="rotate(-0.0368127 89.2161 146.035)" fill="#FEE6BD"/>
<rect x="89.2161" y="146.035" width="274" height="51" rx="25.5" transform="rotate(-0.0368127 89.2161 146.035)" stroke="black"/>
<path d="M136.923 178.506L134.637 178.507L134.628 164.107L140.352 164.104C142.2 164.102 143.748 164.437 144.997 165.109C146.257 165.78 146.888 167.003 146.889 168.779C146.89 170.351 146.249 171.474 144.965 172.147C143.681 172.819 142.146 173.156 140.358 173.158L136.92 173.16L136.923 178.506ZM140.356 170.962C141.676 170.961 142.666 170.798 143.326 170.474C143.986 170.137 144.315 169.549 144.315 168.709C144.314 167.881 143.978 167.287 143.306 166.928C142.633 166.568 141.649 166.389 140.353 166.39L136.915 166.392L136.918 170.964L140.356 170.962ZM151.737 171.638C151.881 170.738 152.12 170.048 152.456 169.568C152.792 169.088 153.223 168.757 153.751 168.577C154.291 168.397 154.987 168.306 155.839 168.306L155.841 170.808C155.481 170.736 155.145 170.7 154.833 170.7C153.885 170.701 153.153 171.001 152.637 171.602C152.134 172.19 151.882 173.012 151.883 174.068L151.886 178.496L149.6 178.498L149.593 168.292L151.879 168.29L151.377 171.638L151.737 171.638ZM162.942 178.759C161.994 178.76 161.13 178.52 160.349 178.041C159.569 177.561 158.951 176.908 158.494 176.08C158.05 175.252 157.827 174.346 157.826 173.362C157.826 172.39 158.047 171.496 158.491 170.68C158.946 169.864 159.564 169.215 160.343 168.735C161.123 168.254 161.987 168.014 162.935 168.013C163.883 168.012 164.747 168.252 165.527 168.731C166.308 169.211 166.92 169.858 167.365 170.674C167.809 171.49 168.032 172.384 168.032 173.356C168.033 174.34 167.812 175.246 167.368 176.074C166.925 176.902 166.313 177.557 165.533 178.037C164.754 178.518 163.89 178.758 162.942 178.759ZM162.94 176.527C163.804 176.526 164.494 176.232 165.01 175.644C165.526 175.043 165.783 174.287 165.782 173.375C165.782 172.463 165.523 171.713 165.007 171.126C164.491 170.538 163.8 170.244 162.936 170.245C162.084 170.246 161.395 170.546 160.867 171.146C160.339 171.735 160.076 172.479 160.076 173.379C160.077 174.291 160.342 175.047 160.87 175.646C161.398 176.234 162.088 176.528 162.94 176.527ZM181.58 164.077L181.59 178.477L179.286 178.479L179.463 175.13L179.157 175.131C178.763 177.543 177.45 178.75 175.218 178.751C174.39 178.752 173.634 178.524 172.949 178.069C172.265 177.601 171.725 176.977 171.328 176.198C170.932 175.418 170.733 174.578 170.732 173.678C170.732 172.646 170.929 171.716 171.325 170.888C171.72 170.047 172.254 169.387 172.925 168.907C173.609 168.426 174.371 168.186 175.211 168.185C176.195 168.185 177.023 168.484 177.696 169.084C178.38 169.671 178.842 170.511 179.083 171.603L179.461 171.602L179.279 168.291L179.276 164.079L181.58 164.077ZM176.008 176.465C176.548 176.464 177.046 176.326 177.502 176.05C177.97 175.761 178.336 175.389 178.599 174.933C178.875 174.477 179.013 174.003 179.012 173.511C179.012 172.971 178.88 172.479 178.615 172.035C178.351 171.579 177.991 171.225 177.535 170.974C177.079 170.71 176.569 170.578 176.005 170.579C175.129 170.579 174.409 170.862 173.845 171.426C173.281 171.978 173 172.693 173 173.569C173.001 174.121 173.127 174.619 173.379 175.062C173.644 175.494 174.004 175.836 174.46 176.088C174.916 176.339 175.432 176.465 176.008 176.465ZM195.32 168.28L195.327 178.468L193.023 178.47L193.524 175.139L193.182 175.14C193.039 176.1 192.799 176.844 192.464 177.372C192.128 177.888 191.702 178.249 191.187 178.453C190.683 178.645 190.053 178.742 189.297 178.742C187.869 178.743 186.794 178.3 186.074 177.412C185.365 176.525 185.01 175.091 185.009 173.111L185.006 168.287L187.238 168.285L187.241 173.109C187.242 174.249 187.458 175.089 187.891 175.629C188.323 176.169 189.007 176.438 189.943 176.438C190.891 176.437 191.641 176.119 192.193 175.482C192.744 174.834 193.02 173.91 193.019 172.71L193.016 168.282L195.32 168.28ZM207.94 176.066C206.993 177.843 205.374 178.732 203.082 178.733C202.134 178.734 201.27 178.5 200.49 178.033C199.721 177.553 199.115 176.912 198.67 176.108C198.238 175.292 198.021 174.405 198.021 173.445C198.02 172.485 198.235 171.602 198.667 170.798C199.11 169.982 199.716 169.339 200.484 168.871C201.263 168.402 202.127 168.168 203.075 168.167C204.251 168.167 205.259 168.412 206.1 168.903C206.94 169.395 207.594 170.102 208.063 171.026L206.282 172.251C205.825 171.579 205.363 171.118 204.895 170.866C204.439 170.602 203.893 170.471 203.257 170.471C202.393 170.472 201.685 170.748 201.133 171.301C200.594 171.853 200.324 172.567 200.325 173.443C200.325 174.367 200.596 175.099 201.136 175.639C201.676 176.166 202.385 176.43 203.261 176.429C204.449 176.428 205.402 175.9 206.122 174.843L207.94 176.066ZM214.453 173.182C214.454 174.25 214.508 174.97 214.617 175.342C214.725 175.714 214.977 175.954 215.373 176.061C215.781 176.157 216.567 176.205 217.731 176.204L217.733 178.454C215.957 178.455 214.691 178.312 213.934 178.024C213.178 177.737 212.698 177.257 212.493 176.585C212.301 175.901 212.204 174.767 212.203 173.183L212.202 170.573L210.222 170.575L210.22 168.271L212.2 168.269L212.198 164.777L214.448 164.776L214.45 168.268L217.708 168.266L217.71 170.57L214.452 170.572L214.453 173.182ZM230.694 164.046C233.286 164.044 235.171 164.679 236.347 165.95C237.536 167.221 238.131 168.961 238.133 171.169C238.134 173.401 237.541 175.171 236.354 176.48C235.167 177.789 233.283 178.444 230.703 178.446L225.825 178.449L225.816 164.049L228.066 164.047L228.066 164.065L230.694 164.046ZM230.702 176.178C232.43 176.164 233.726 175.75 234.589 174.933C235.453 174.116 235.884 172.862 235.883 171.17C235.881 167.93 234.152 166.311 230.696 166.314L228.068 166.315L228.074 176.197L230.702 176.178ZM243.142 174.118C243.274 174.837 243.599 175.413 244.115 175.845C244.643 176.265 245.303 176.474 246.095 176.474C247.367 176.473 248.375 175.98 249.118 174.996L250.649 176.039C250.182 176.927 249.546 177.593 248.742 178.038C247.939 178.482 247.057 178.705 246.097 178.706C245.149 178.706 244.273 178.473 243.468 178.005C242.664 177.526 242.022 176.884 241.541 176.081C241.073 175.265 240.838 174.377 240.837 173.417C240.837 172.457 241.07 171.575 241.538 170.771C242.017 169.966 242.659 169.33 243.463 168.861C244.266 168.381 245.142 168.14 246.09 168.14C247.098 168.139 247.986 168.39 248.755 168.894C249.523 169.397 250.111 170.105 250.52 171.017C250.928 171.917 251.115 172.948 251.08 174.112L243.142 174.118ZM246.091 170.336C245.347 170.336 244.712 170.553 244.184 170.985C243.668 171.405 243.326 171.945 243.159 172.606L248.919 172.602C248.774 171.894 248.438 171.342 247.91 170.946C247.394 170.539 246.787 170.335 246.091 170.336ZM255.957 174.721C256.245 175.285 256.606 175.717 257.038 176.017C257.482 176.304 258.046 176.448 258.73 176.448C260.194 176.447 260.926 176.128 260.925 175.492C260.925 175.18 260.781 174.94 260.493 174.772C260.205 174.605 259.653 174.443 258.837 174.287L258.189 174.162C256.82 173.911 255.83 173.527 255.218 173.012C254.605 172.484 254.299 171.788 254.298 170.924C254.298 170.42 254.442 169.958 254.73 169.538C255.029 169.118 255.485 168.782 256.097 168.529C256.721 168.265 257.489 168.132 258.401 168.132C259.577 168.131 260.513 168.37 261.209 168.85C261.905 169.317 262.482 170.025 262.938 170.973L261.013 171.892C260.665 171.316 260.292 170.914 259.896 170.687C259.5 170.447 259.002 170.327 258.402 170.328C257.73 170.328 257.244 170.412 256.944 170.581C256.656 170.737 256.512 170.947 256.513 171.211C256.513 171.487 256.627 171.703 256.855 171.859C257.095 172.015 257.539 172.164 258.187 172.308L258.835 172.433C259.964 172.637 260.834 172.888 261.446 173.188C262.07 173.487 262.502 173.835 262.743 174.231C262.983 174.615 263.103 175.083 263.103 175.635C263.104 176.139 262.948 176.625 262.636 177.093C262.337 177.549 261.857 177.921 261.197 178.21C260.537 178.498 259.715 178.643 258.731 178.644C257.519 178.644 256.529 178.417 255.761 177.961C255.005 177.494 254.35 176.738 253.797 175.695L255.957 174.721ZM267.168 167.316C266.796 167.316 266.484 167.197 266.232 166.957C265.98 166.705 265.854 166.399 265.853 166.039C265.853 165.679 265.979 165.373 266.231 165.121C266.483 164.869 266.795 164.742 267.167 164.742C267.515 164.742 267.809 164.868 268.049 165.12C268.301 165.371 268.427 165.677 268.427 166.037C268.428 166.397 268.302 166.703 268.05 166.956C267.81 167.196 267.516 167.316 267.168 167.316ZM266.035 168.235L268.285 168.233L268.291 178.421L266.041 178.423L266.035 168.235ZM276.788 182.016C275.504 182.017 274.448 181.819 273.62 181.424C272.804 181.04 272.107 180.435 271.531 179.607L273.258 178.472C273.679 179.06 274.159 179.468 274.699 179.695C275.239 179.923 275.935 180.036 276.787 180.036C277.867 180.035 278.719 179.711 279.343 179.062C279.966 178.426 280.32 177.616 280.403 176.632L280.546 175.065L280.24 175.066C279.989 176.35 279.515 177.25 278.82 177.767C278.136 178.271 277.296 178.524 276.3 178.524C275.52 178.525 274.788 178.297 274.104 177.842C273.419 177.386 272.867 176.762 272.447 175.971C272.038 175.179 271.833 174.303 271.833 173.343C271.832 172.395 272.024 171.525 272.407 170.733C272.803 169.928 273.342 169.298 274.026 168.842C274.71 168.373 275.465 168.139 276.293 168.138C277.265 168.138 278.094 168.425 278.778 169.001C279.462 169.576 279.931 170.422 280.184 171.538L280.544 171.537L280.362 168.226L282.666 168.224L282.67 175.118C282.671 177.458 282.145 179.192 281.089 180.321C280.034 181.45 278.6 182.015 276.788 182.016ZM277.109 176.4C277.613 176.399 278.093 176.273 278.549 176.021C279.016 175.756 279.388 175.396 279.664 174.94C279.952 174.472 280.095 173.938 280.095 173.338C280.094 172.474 279.806 171.79 279.23 171.286C278.665 170.771 277.957 170.513 277.105 170.514C276.529 170.514 276.007 170.64 275.539 170.893C275.083 171.133 274.724 171.469 274.46 171.901C274.196 172.334 274.064 172.814 274.065 173.342C274.065 173.942 274.192 174.476 274.444 174.943C274.708 175.399 275.068 175.759 275.525 176.023C275.993 176.274 276.521 176.4 277.109 176.4ZM291.579 167.948C293.007 167.947 294.075 168.391 294.784 169.278C295.505 170.166 295.866 171.6 295.867 173.58L295.87 178.404L293.638 178.405L293.635 173.581C293.634 172.441 293.418 171.601 292.985 171.061C292.553 170.522 291.869 170.252 290.933 170.253C289.985 170.253 289.235 170.578 288.683 171.226C288.132 171.863 287.856 172.781 287.857 173.981L287.86 178.409L285.556 178.41L285.549 168.222L287.853 168.221L287.351 171.551L287.693 171.551C287.837 170.591 288.076 169.853 288.412 169.336C288.748 168.808 289.167 168.448 289.671 168.256C290.187 168.051 290.823 167.949 291.579 167.948ZM300.868 174.08C301.001 174.8 301.325 175.376 301.842 175.808C302.37 176.227 303.03 176.437 303.822 176.437C305.094 176.436 306.102 175.943 306.845 174.959L308.376 176.002C307.908 176.89 307.273 177.556 306.469 178.001C305.665 178.445 304.783 178.668 303.823 178.669C302.875 178.669 301.999 178.436 301.195 177.968C300.391 177.489 299.748 176.847 299.268 176.043C298.799 175.228 298.565 174.34 298.564 173.38C298.563 172.42 298.797 171.538 299.264 170.733C299.744 169.929 300.385 169.293 301.189 168.824C301.993 168.344 302.869 168.103 303.817 168.103C304.825 168.102 305.713 168.353 306.481 168.857C307.249 169.36 307.838 170.068 308.246 170.98C308.655 171.879 308.842 172.911 308.806 174.075L300.868 174.08ZM303.818 170.299C303.074 170.299 302.438 170.515 301.91 170.948C301.395 171.368 301.053 171.908 300.885 172.568L306.645 172.565C306.501 171.857 306.165 171.305 305.636 170.909C305.12 170.502 304.514 170.298 303.818 170.299ZM313.663 171.534C313.807 170.634 314.046 169.944 314.382 169.464C314.718 168.984 315.15 168.653 315.677 168.473C316.217 168.293 316.913 168.202 317.765 168.202L317.767 170.704C317.407 170.632 317.071 170.596 316.759 170.596C315.811 170.597 315.079 170.897 314.563 171.498C314.06 172.086 313.808 172.908 313.809 173.964L313.812 178.392L311.526 178.394L311.519 168.188L313.805 168.186L313.303 171.534L313.663 171.534Z" fill="black"/>
<rect x="357.123" y="154.29" width="178" height="51" rx="25.5" transform="rotate(-17.9651 357.123 154.29)" fill="#CFCFCF"/>
<rect x="357.123" y="154.29" width="178" height="51" rx="25.5" transform="rotate(-17.9651 357.123 154.29)" stroke="black"/>

<path d="M421.142 163.745C420.983 165.083 420.507 166.221 419.714 167.16C418.928 168.083 417.851 168.767 416.481 169.211C415.191 169.629 413.987 169.692 412.87 169.398C411.753 169.104 410.787 168.515 409.97 167.632C409.15 166.737 408.524 165.622 408.091 164.287C407.661 162.963 407.522 161.715 407.672 160.543C407.818 159.361 408.261 158.334 409.001 157.463C409.736 156.581 410.749 155.931 412.039 155.513C413.443 155.058 414.74 154.991 415.929 155.312C417.125 155.617 418.224 156.34 419.224 157.479L417.711 159.351C416.972 158.392 416.212 157.8 415.432 157.573C414.652 157.347 413.76 157.396 412.755 157.722C412.013 157.963 411.394 158.346 410.896 158.874C410.41 159.397 410.101 160.059 409.969 160.858C409.845 161.643 409.949 162.549 410.282 163.576C410.801 165.174 411.562 166.239 412.567 166.771C413.58 167.288 414.686 167.352 415.884 166.963C416.82 166.66 417.524 166.205 417.996 165.598C418.468 164.99 418.731 164.167 418.785 163.128L421.142 163.745ZM424.89 159.275C424.75 158.374 424.765 157.644 424.937 157.084C425.108 156.523 425.418 156.076 425.864 155.742C426.322 155.404 426.957 155.104 427.767 154.841L428.539 157.221C428.174 157.264 427.844 157.333 427.547 157.429C426.645 157.722 426.041 158.233 425.735 158.963C425.437 159.678 425.451 160.537 425.777 161.542L427.143 165.754L424.968 166.459L421.82 156.751L423.995 156.046L424.548 159.386L424.89 159.275ZM433.656 159.101C434.004 159.745 434.49 160.193 435.114 160.445C435.746 160.681 436.438 160.677 437.191 160.433C438.401 160.041 439.209 159.262 439.613 158.096L441.39 158.618C441.219 159.607 440.819 160.436 440.191 161.107C439.564 161.777 438.793 162.26 437.88 162.556C436.978 162.849 436.073 162.896 435.164 162.699C434.251 162.49 433.442 162.078 432.737 161.461C432.041 160.829 431.544 160.057 431.248 159.143C430.952 158.23 430.902 157.319 431.1 156.41C431.308 155.497 431.723 154.694 432.343 154.001C432.96 153.296 433.719 152.798 434.621 152.505C435.58 152.195 436.502 152.16 437.388 152.403C438.274 152.645 439.052 153.138 439.721 153.879C440.387 154.61 440.882 155.534 441.207 156.652L433.656 159.101ZM435.298 154.594C434.591 154.824 434.052 155.226 433.683 155.799C433.322 156.358 433.163 156.977 433.207 157.657L438.686 155.88C438.331 155.251 437.841 154.83 437.216 154.616C436.6 154.387 435.96 154.38 435.298 154.594ZM446.4 148.686C448.009 148.164 449.33 148.152 450.362 148.65C451.39 149.137 452.149 150.134 452.637 151.64L454.353 156.931L452.247 157.614L451.523 154.216L451.266 154.299C451.618 156.784 450.766 158.359 448.712 159.025C447.536 159.407 446.575 159.44 445.83 159.127C445.085 158.813 444.563 158.194 444.263 157.27C443.941 156.277 444.083 155.373 444.69 154.558C445.296 153.743 446.341 153.095 447.825 152.614L450.325 151.804C450.014 151.236 449.596 150.879 449.07 150.735C448.551 150.575 447.898 150.622 447.11 150.878C446.563 151.056 446.137 151.32 445.835 151.67C445.528 152.009 445.28 152.468 445.089 153.047L442.959 152.432C443.252 151.467 443.67 150.675 444.214 150.057C444.77 149.436 445.498 148.979 446.4 148.686ZM448.321 156.711C449.279 156.4 449.949 155.956 450.33 155.378C450.71 154.801 450.839 154.09 450.717 153.247L448.286 154.035C447.464 154.302 446.894 154.606 446.576 154.949C446.255 155.28 446.164 155.663 446.305 156.097C446.416 156.439 446.644 156.674 446.988 156.803C447.328 156.919 447.773 156.889 448.321 156.711ZM458.627 150.001C458.956 151.017 459.23 151.685 459.447 152.006C459.665 152.326 459.978 152.477 460.388 152.457C460.806 152.423 461.569 152.226 462.676 151.867L463.37 154.007C461.68 154.555 460.432 154.809 459.624 154.768C458.816 154.727 458.211 154.419 457.81 153.842C457.416 153.251 456.975 152.202 456.487 150.695L455.682 148.212L453.798 148.823L453.087 146.631L454.971 146.021L453.894 142.699L456.034 142.005L457.111 145.327L460.21 144.322L460.921 146.513L457.822 147.518L458.627 150.001ZM464.274 142.039C463.92 142.154 463.587 142.136 463.273 141.985C462.955 141.823 462.741 141.571 462.63 141.229C462.519 140.886 462.545 140.556 462.707 140.239C462.869 139.921 463.126 139.705 463.48 139.59C463.811 139.483 464.13 139.512 464.436 139.678C464.753 139.84 464.968 140.092 465.079 140.435C465.19 140.777 465.164 141.107 465.002 141.425C464.848 141.727 464.605 141.932 464.274 142.039ZM463.479 143.262L465.619 142.568L468.761 152.259L466.621 152.953L463.479 143.262ZM475.673 139.308L477.899 138.586L478.712 149.033L473.986 150.565L468.327 141.69L470.553 140.968L475.437 148.619L476.379 148.313L475.673 139.308ZM483.953 142.792C484.301 143.436 484.787 143.884 485.411 144.136C486.043 144.373 486.735 144.369 487.489 144.125C488.699 143.732 489.506 142.953 489.91 141.788L491.687 142.309C491.516 143.298 491.116 144.128 490.489 144.798C489.861 145.468 489.09 145.952 488.177 146.248C487.275 146.54 486.37 146.588 485.461 146.391C484.548 146.182 483.739 145.769 483.034 145.152C482.338 144.521 481.841 143.748 481.545 142.835C481.249 141.922 481.199 141.01 481.397 140.101C481.605 139.188 482.02 138.385 482.64 137.692C483.257 136.988 484.016 136.489 484.918 136.197C485.877 135.886 486.799 135.852 487.685 136.094C488.571 136.337 489.349 136.829 490.018 137.571C490.684 138.301 491.179 139.225 491.504 140.344L483.953 142.792ZM485.595 138.286C484.888 138.515 484.349 138.917 483.98 139.491C483.619 140.049 483.46 140.669 483.504 141.348L488.983 139.572C488.628 138.942 488.138 138.521 487.513 138.307C486.897 138.078 486.257 138.071 485.595 138.286Z" fill="black"/>
</svg>
