

<svg width="1399" height="892" viewBox="0 0 1399 892" fill="none" xmlns="http://www.w3.org/2000/svg">
<defs>
<style>
  .float-path {
    animation: float 4s ease-in-out infinite;
  }

  .float-path:nth-child(1) {
    animation-delay: 0s;
  }

  .float-path:nth-child(2) {
    animation-delay: 0.2s;
  }

  .float-path:nth-child(3) {
    animation-delay: 0.4s;
  }
  .float-path:nth-child(4) {
    animation-delay: 0.6s;
  }
  .float-path:nth-child(5) {
    animation-delay: 0s;
  }
  .float-path:nth-child(6) {
    animation-delay: 0.2s;
  }
  .float-path:nth-child(7) {
    animation-delay: 0.4s;
  }

  @keyframes float {
    0% {
      transform: translateY(0);
    }
    50% {
      transform: translateY(10px); /* Very subtle float */
    }
    100% {
      transform: translateY(0);
    }
  }
</style>
</defs>



<g clip-path="url(#clip0_1633_184)">
<path class='float-path' d="M327.133 204.324C244.877 207.1 152.629 236.976 71.6545 212.842C76.8766 196.173 82.0986 179.504 87.3275 162.851C168.368 186.86 260.611 156.899 342.906 154.028C337.657 170.796 332.395 187.56 327.145 204.328L327.133 204.324ZM242.468 163.002C216.981 244.296 191.507 325.595 166.021 406.889C144.222 409.48 122.43 411.991 100.521 413.455C126.008 332.161 151.482 250.863 176.968 169.569C198.872 168.116 220.669 165.593 242.468 163.002Z" fill="white"/>
<path class='float-path' d="M358.261 207.579C349.689 206.774 342.944 203.99 338.302 198.831C333.66 193.673 332.396 187.56 334.695 180.252C336.982 172.938 342.139 166.647 349.971 161.642C357.803 156.637 366.132 154.348 374.704 155.153C382.809 155.915 388.646 159.51 392.363 165.653C396.086 171.784 396.681 178.698 394.389 186.023C392.097 193.348 387.613 198.827 380.706 202.848C373.787 206.863 366.372 208.358 358.268 207.596L358.261 207.579ZM326.247 211.933C345.866 212.197 364.26 213.666 383.498 217.484C364.077 279.469 344.638 341.461 325.217 403.446C305.966 399.623 287.572 398.153 267.965 397.894C287.387 335.909 306.826 273.917 326.247 211.933Z" fill="white"/>
<path class='float-path' d="M423.324 231.727C439.616 239.34 455.289 247.636 470.87 256.614C461.35 276.665 451.841 296.721 442.321 316.771C445.621 318.652 447.254 319.614 450.518 321.548C437.874 361.891 425.231 402.233 412.588 442.576C397.007 433.597 381.351 425.294 365.042 417.688C384.464 355.703 403.902 293.711 423.324 231.727ZM430.596 366.532C438.853 341.227 447.448 313.529 463.342 291.922C470.485 282.209 481.941 271.629 494.637 273.205C508.922 274.99 523.009 283.467 535.233 291.233C549.681 300.402 563.19 312.211 572.312 326.853C581.524 341.642 585.207 359.478 585.387 376.747C585.64 401.349 579.218 425.912 572.298 449.448C556.452 442.59 541.13 434.579 526.221 425.882C532.104 408.298 536.15 387.853 532.325 369.861C528.962 354.071 516.423 341.337 502.941 332.837C492.636 326.346 483.125 323.318 474.491 324.218C465.856 325.118 458.249 329.553 451.723 337.294C444.365 346.03 438.581 358.515 435.522 369.426C433.554 368.269 432.576 367.693 430.603 366.549L430.596 366.532ZM526.209 425.877C541.119 434.574 556.44 442.585 572.286 449.443C564.649 473.829 556.995 498.223 549.359 522.609C533.513 515.751 518.192 507.74 503.282 499.044C510.919 474.657 518.573 450.264 526.209 425.877Z" fill="white"/>
<path class='float-path' d="M648.814 551.643C631.343 549.756 610.475 543.51 599.37 529.202C589.3 516.229 590.242 497.573 595.186 482.394C598.577 471.982 604.484 463.04 612.943 455.776C621.743 448.198 635.462 442.666 646.599 440.389C662.363 437.155 679.179 436.799 695.38 438.444C719.094 440.507 742.824 441.939 766.578 443.312C762.87 455.143 761.016 461.058 757.308 472.889C733.553 471.516 709.812 470.079 686.109 468.021C676.464 467.099 669.179 467.622 664.126 469.829C659.073 472.035 655.803 475.542 654.275 480.416C652.746 485.29 653.608 489.683 656.893 493.483C660.178 497.284 666.634 499.932 675.892 500.651C688.75 501.644 702.254 502.382 715.264 499.768C725.053 497.799 733.045 493.637 739.189 487.371C745.332 481.104 750.759 471.587 755.453 458.825C757.914 458.969 759.145 459.041 761.618 459.191C752.26 486.43 740.712 514.001 717.835 532.697C698.965 548.111 672.413 554.212 648.827 551.676L648.814 551.643ZM757.001 484.967C753.85 484.783 752.281 484.693 749.129 484.51C751.158 478.044 752.167 474.809 754.191 468.355C758.079 455.963 759.6 446.112 758.745 438.826C757.889 431.54 753.994 425.988 747.064 422.157C740.133 418.326 729.133 415.977 714.243 414.742C704.319 413.925 695.347 414.573 687.294 416.797C679.234 419.005 670.576 423.234 661.313 429.441C649.394 418.103 638.015 406.202 627.357 393.675C643.288 382.862 659.242 373.251 677.86 367.901C694.859 363.008 712.988 361.305 730.487 362.926C750.464 364.781 772.096 367.121 790.48 375.957C803.501 382.215 813.965 393.553 817.413 407.715C821.947 426.365 817.099 444.687 812.261 462.889C802.42 494.291 792.579 525.693 782.738 557.095C764.276 555.459 745.81 554.195 727.304 553.094C737.213 530.394 747.111 507.689 757.02 484.988L757.001 484.967Z" fill="white"/>
<path class='float-path' d="M968.372 340.441C982.95 349.069 995.954 360.099 1007.68 372.269L932.291 612.762C920 601.684 906.654 591.703 892.09 583.802C917.519 502.678 942.943 421.565 968.372 340.441ZM932.391 612.457C937.613 595.788 942.835 579.119 948.064 562.466C978.288 590.767 1004.84 622.574 1036.7 649.133C1031.45 665.901 1026.18 682.665 1020.93 699.434C989.101 672.758 962.582 640.869 932.391 612.457Z" fill="white"/>
<path class='float-path' d="M1129.18 540.649C1121.81 538.114 1116.55 533.57 1113.06 527.509C1109.57 521.448 1108.78 515.63 1110.53 510.031C1112.28 504.432 1116.08 500.689 1122.13 498.581C1128.17 496.469 1134.8 496.631 1142.17 499.23C1149.12 501.673 1154.42 505.774 1157.87 511.224C1161.32 516.675 1162.12 522.011 1160.39 527.563C1158.65 533.121 1154.86 537.299 1148.85 540.005C1142.82 542.718 1136.16 543.045 1129.18 540.649ZM1104.21 534.192C1119.05 542.446 1135.38 548.206 1152.19 550.784C1133.12 611.629 1114.06 672.461 1094.98 733.3C1078.15 730.701 1061.9 724.918 1046.99 716.748C1066.06 655.892 1085.14 595.036 1104.21 534.192Z" fill="white"/>
<path className='float-path' d="M1190.34 551.077C1206.22 549.072 1221.78 545.043 1237.02 540.234C1227.48 561.787 1218.45 583.58 1209.26 605.293C1212.5 604.417 1214.12 603.959 1217.35 603.027C1204.7 643.369 1192.06 683.711 1179.42 724.054C1164.24 728.503 1148.77 732.194 1133.03 733.943C1152.13 672.988 1171.25 612.025 1190.35 551.07L1190.34 551.077ZM1197.49 652.262C1206.46 624.498 1215.53 595.519 1230.14 570.768C1238.25 557.015 1247.26 543.053 1260.88 533.89C1273.11 525.669 1288.11 519.026 1301.97 516.687C1314.35 514.596 1329.82 513.192 1340.55 523.463C1351.36 533.81 1354.37 550.23 1354.67 564.484C1355.17 588.513 1348.76 612.829 1342 635.851C1326.5 630.98 1310.21 628.98 1293.99 629.736C1298.33 613.974 1304.71 595.973 1299.79 580.184C1296.85 570.724 1286.3 567.01 1269.72 571.33C1259.27 574.06 1249.77 579.365 1241.16 586.759C1232.53 594.16 1225 603.39 1218.48 614.171C1211.77 625.282 1206.05 638.376 1202.35 650.876C1200.41 651.436 1199.45 651.712 1197.5 652.255L1197.49 652.262ZM1293.98 629.748C1310.2 628.992 1326.49 630.992 1341.99 635.863C1334.36 660.249 1326.7 684.642 1319.06 709.029C1303.56 704.158 1287.28 702.158 1271.06 702.914C1278.69 678.528 1286.35 654.134 1293.98 629.748Z" fill="white"/>
</g>
<defs>
<clipPath id="clip0_1633_184">
<rect width="1347.11" height="402.61" fill="white" transform="translate(155.535) rotate(22.7255)"/>
</clipPath>
</defs>
</svg>
