<?xml version="1.0" encoding="UTF-8"?>
<svg id="Layer_2" data-name="Layer 2" xmlns="http://www.w3.org/2000/svg" viewBox="0 0 207.93 184.45">
  <defs>
    <style>
      .cls-1 {
        fill: none;
        stroke: #000;
        stroke-dasharray: 10 20;
        stroke-width: 6px;
      }
    </style>
  </defs>
  <g id="Layer_1-2" data-name="Layer 1">
    <g>
      <path class="cls-1" d="M33.06,14.17C23.05,31.94,12.95,49.91,7.31,69.51c-5.63,19.6-6.47,41.29,1.85,59.91,5.69,12.74,17.92,24.49,31.75,22.66,14.33-1.9,22.82-16.83,27.65-30.46,11.57-32.66,16.45-70.13,41.71-93.85,8.01-7.52,17.64-13.13,27.67-17.61,13.3-5.94,28.67-9.95,42.29-4.77,22.09,8.4,29.3,37.87,21.9,60.32-7.4,22.44-25,39.72-40.86,57.24-11.11,12.27-21.96,25.93-27.83,41.13"/>
      <polygon points="129.02 184.45 124.12 153.1 134.19 162.65 147.47 158.64 129.02 184.45"/>
    </g>
  </g>
</svg>