<svg width="1343" height="33" viewBox="0 0 1343 33" fill="none" xmlns="http://www.w3.org/2000/svg">
<g clip-path="url(#clip0_1542_1146)">
<path d="M16.7867 0H0V16.5H16.7867V0Z" fill="#F8F8F5"/>
<path d="M33.5738 0H16.7871V16.5H33.5738V0Z" fill="#1D1D1B"/>
<path d="M50.3599 0H33.5732V16.5H50.3599V0Z" fill="#F8F8F5"/>
<path d="M67.147 0H50.3604V16.5H67.147V0Z" fill="#1D1D1B"/>
<path d="M83.9332 0H67.1465V16.5H83.9332V0Z" fill="#F8F8F5"/>
<path d="M100.727 0H83.9404V16.5H100.727V0Z" fill="#1D1D1B"/>
<path d="M117.514 0H100.728V16.5H117.514V0Z" fill="#F8F8F5"/>
<path d="M134.3 0H117.514V16.5H134.3V0Z" fill="#1D1D1B"/>
<path d="M151.087 0H134.301V16.5H151.087V0Z" fill="#F8F8F5"/>
<path d="M167.875 0H151.088V16.5H167.875V0Z" fill="#1D1D1B"/>
<path d="M184.661 0H167.874V16.5H184.661V0Z" fill="#F8F8F5"/>
<path d="M201.448 0H184.661V16.5H201.448V0Z" fill="#1D1D1B"/>
<path d="M218.234 0H201.447V16.5H218.234V0Z" fill="#F8F8F5"/>
<path d="M235.021 0H218.234V16.5H235.021V0Z" fill="#1D1D1B"/>
<path d="M251.815 0H235.028V16.5H251.815V0Z" fill="#F8F8F5"/>
<path d="M268.601 0H251.814V16.5H268.601V0Z" fill="#1D1D1B"/>
<path d="M285.388 0H268.602V16.5H285.388V0Z" fill="#F8F8F5"/>
<path d="M302.174 0H285.388V16.5H302.174V0Z" fill="#1D1D1B"/>
<path d="M318.962 0H302.175V16.5H318.962V0Z" fill="#F8F8F5"/>
<path d="M335.749 0H318.962V16.5H335.749V0Z" fill="#1D1D1B"/>
<path d="M318.961 33H335.748V16.5L318.961 16.5V33Z" fill="#F8F8F5"/>
<path d="M302.175 33H318.962V16.5L302.175 16.5V33Z" fill="#1D1D1B"/>
<path d="M285.388 33H302.175V16.5L285.388 16.5V33Z" fill="#F8F8F5"/>
<path d="M268.601 33H285.388V16.5L268.601 16.5V33Z" fill="#1D1D1B"/>
<path d="M251.815 33H268.602V16.5L251.815 16.5V33Z" fill="#F8F8F5"/>
<path d="M235.021 33H251.808V16.5L235.021 16.5V33Z" fill="#1D1D1B"/>
<path d="M218.242 33H235.028V16.5L218.242 16.5V33Z" fill="#F8F8F5"/>
<path d="M201.455 33H218.241V16.5L201.455 16.5V33Z" fill="#1D1D1B"/>
<path d="M184.668 33H201.455V16.5L184.668 16.5V33Z" fill="#F8F8F5"/>
<path d="M167.874 33H184.661V16.5L167.874 16.5V33Z" fill="#1D1D1B"/>
<path d="M151.087 33H167.874V16.5L151.087 16.5V33Z" fill="#F8F8F5"/>
<path d="M134.301 33H151.088V16.5L134.301 16.5V33Z" fill="#1D1D1B"/>
<path d="M117.514 33H134.301V16.5L117.514 16.5V33Z" fill="#F8F8F5"/>
<path d="M100.72 33H117.507V16.5L100.72 16.5V33Z" fill="#1D1D1B"/>
<path d="M83.933 33H100.72V16.5L83.933 16.5V33Z" fill="#F8F8F5"/>
<path d="M67.1537 33H83.9404V16.5L67.1537 16.5V33Z" fill="#1D1D1B"/>
<path d="M50.3676 33H67.1543V16.5L50.3676 16.5V33Z" fill="#F8F8F5"/>
<path d="M33.5805 33H50.3672V16.5L33.5805 16.5V33Z" fill="#1D1D1B"/>
<path d="M16.7865 33H33.5732V16.5L16.7865 16.5L16.7865 33Z" fill="#F8F8F5"/>
<path d="M0.000411987 33H16.7871L16.7871 16.5L0.000411987 16.5L0.000411987 33Z" fill="#1D1D1B"/>
<path d="M352.535 0H335.748V16.5H352.535V0Z" fill="#F8F8F5"/>
<path d="M369.322 0H352.535V16.5H369.322V0Z" fill="#1D1D1B"/>
<path d="M386.108 0H369.321V16.5H386.108V0Z" fill="#F8F8F5"/>
<path d="M402.902 0H386.115V16.5H402.902V0Z" fill="#1D1D1B"/>
<path d="M419.689 0H402.902V16.5H419.689V0Z" fill="#F8F8F5"/>
<path d="M436.475 0H419.688V16.5H436.475V0Z" fill="#1D1D1B"/>
<path d="M453.262 0H436.476V16.5H453.262V0Z" fill="#F8F8F5"/>
<path d="M470.048 0H453.262V16.5H470.048V0Z" fill="#1D1D1B"/>
<path d="M486.836 0H470.049V16.5H486.836V0Z" fill="#F8F8F5"/>
<path d="M503.623 0H486.836V16.5H503.623V0Z" fill="#1D1D1B"/>
<path d="M520.409 0H503.622V16.5H520.409V0Z" fill="#F8F8F5"/>
<path d="M537.203 0H520.416V16.5H537.203V0Z" fill="#1D1D1B"/>
<path d="M553.99 0H537.203V16.5H553.99V0Z" fill="#F8F8F5"/>
<path d="M570.776 0H553.989V16.5H570.776V0Z" fill="#1D1D1B"/>
<path d="M587.563 0H570.776V16.5H587.563V0Z" fill="#F8F8F5"/>
<path d="M604.349 0H587.562V16.5H604.349V0Z" fill="#1D1D1B"/>
<path d="M621.136 0H604.35V16.5H621.136V0Z" fill="#F8F8F5"/>
<path d="M637.922 0H621.136V16.5H637.922V0Z" fill="#1D1D1B"/>
<path d="M654.71 0H637.923V16.5H654.71V0Z" fill="#F8F8F5"/>
<path d="M671.497 0H654.71V16.5H671.497V0Z" fill="#1D1D1B"/>
<path d="M654.716 33H671.503V16.5L654.716 16.5V33Z" fill="#F8F8F5"/>
<path d="M637.93 33H654.717V16.5L637.93 16.5V33Z" fill="#1D1D1B"/>
<path d="M621.143 33H637.93V16.5L621.143 16.5V33Z" fill="#F8F8F5"/>
<path d="M604.349 33H621.136V16.5L604.349 16.5V33Z" fill="#1D1D1B"/>
<path d="M587.563 33H604.35V16.5L587.563 16.5V33Z" fill="#F8F8F5"/>
<path d="M570.776 33H587.562V16.5L570.776 16.5V33Z" fill="#1D1D1B"/>
<path d="M553.989 33H570.775V16.5L553.989 16.5V33Z" fill="#F8F8F5"/>
<path d="M537.195 33H553.981V16.5L537.195 16.5V33Z" fill="#1D1D1B"/>
<path d="M520.409 33H537.195V16.5L520.409 16.5V33Z" fill="#F8F8F5"/>
<path d="M503.629 33H520.416V16.5L503.629 16.5V33Z" fill="#1D1D1B"/>
<path d="M486.842 33H503.629V16.5L486.842 16.5V33Z" fill="#F8F8F5"/>
<path d="M470.048 33H486.835V16.5L470.048 16.5V33Z" fill="#1D1D1B"/>
<path d="M453.262 33H470.049V16.5L453.262 16.5V33Z" fill="#F8F8F5"/>
<path d="M436.475 33H453.262V16.5L436.475 16.5V33Z" fill="#1D1D1B"/>
<path d="M419.688 33H436.475V16.5L419.688 16.5V33Z" fill="#F8F8F5"/>
<path d="M402.902 33H419.688V16.5L402.902 16.5V33Z" fill="#1D1D1B"/>
<path d="M386.108 33H402.895V16.5L386.108 16.5V33Z" fill="#F8F8F5"/>
<path d="M369.329 33H386.115V16.5L369.329 16.5V33Z" fill="#1D1D1B"/>
<path d="M352.541 33H369.328V16.5L352.541 16.5V33Z" fill="#F8F8F5"/>
<path d="M335.755 33H352.542V16.5L335.755 16.5V33Z" fill="#1D1D1B"/>
<path d="M688.291 0H671.504V16.5H688.291V0Z" fill="#F8F8F5"/>
<path d="M705.078 0H688.291V16.5H705.078V0Z" fill="#1D1D1B"/>
<path d="M721.864 0H705.077V16.5H721.864V0Z" fill="#F8F8F5"/>
<path d="M738.651 0H721.864V16.5H738.651V0Z" fill="#1D1D1B"/>
<path d="M755.437 0H738.65V16.5H755.437V0Z" fill="#F8F8F5"/>
<path d="M772.224 0H755.438V16.5H772.224V0Z" fill="#1D1D1B"/>
<path d="M789.011 0H772.225V16.5H789.011V0Z" fill="#F8F8F5"/>
<path d="M805.797 0H789.011V16.5H805.797V0Z" fill="#1D1D1B"/>
<path d="M822.585 0H805.798V16.5H822.585V0Z" fill="#F8F8F5"/>
<path d="M839.379 0H822.592V16.5H839.379V0Z" fill="#1D1D1B"/>
<path d="M856.165 0H839.378V16.5H856.165V0Z" fill="#F8F8F5"/>
<path d="M872.952 0H856.165V16.5H872.952V0Z" fill="#1D1D1B"/>
<path d="M889.738 0H872.951V16.5H889.738V0Z" fill="#F8F8F5"/>
<path d="M906.525 0H889.738V16.5H906.525V0Z" fill="#1D1D1B"/>
<path d="M923.311 0H906.524V16.5H923.311V0Z" fill="#F8F8F5"/>
<path d="M940.098 0H923.312V16.5H940.098V0Z" fill="#1D1D1B"/>
<path d="M956.885 0H940.099V16.5H956.885V0Z" fill="#F8F8F5"/>
<path d="M973.672 0H956.885V16.5H973.672V0Z" fill="#1D1D1B"/>
<path d="M990.465 0H973.679V16.5H990.465V0Z" fill="#F8F8F5"/>
<path d="M1007.25 0H990.466V16.5H1007.25V0Z" fill="#1D1D1B"/>
<path d="M990.464 33H1007.25V16.5L990.464 16.5V33Z" fill="#F8F8F5"/>
<path d="M973.671 33H990.458V16.5L973.671 16.5V33Z" fill="#1D1D1B"/>
<path d="M956.891 33H973.678V16.5L956.891 16.5V33Z" fill="#F8F8F5"/>
<path d="M940.105 33H956.892V16.5L940.105 16.5V33Z" fill="#1D1D1B"/>
<path d="M923.318 33H940.104V16.5L923.318 16.5V33Z" fill="#F8F8F5"/>
<path d="M906.524 33H923.311V16.5L906.524 16.5V33Z" fill="#1D1D1B"/>
<path d="M889.738 33H906.524V16.5L889.738 16.5V33Z" fill="#F8F8F5"/>
<path d="M872.951 33H889.737V16.5L872.951 16.5V33Z" fill="#1D1D1B"/>
<path d="M856.164 33H872.951V16.5L856.164 16.5V33Z" fill="#F8F8F5"/>
<path d="M839.371 33H856.157V16.5L839.371 16.5V33Z" fill="#1D1D1B"/>
<path d="M822.583 33H839.37V16.5L822.583 16.5V33Z" fill="#F8F8F5"/>
<path d="M805.804 33H822.591V16.5L805.804 16.5V33Z" fill="#1D1D1B"/>
<path d="M789.017 33H805.804V16.5L789.017 16.5V33Z" fill="#F8F8F5"/>
<path d="M772.231 33H789.018V16.5L772.231 16.5V33Z" fill="#1D1D1B"/>
<path d="M755.437 33H772.224V16.5L755.437 16.5V33Z" fill="#F8F8F5"/>
<path d="M738.65 33H755.437V16.5L738.65 16.5V33Z" fill="#1D1D1B"/>
<path d="M721.864 33H738.65V16.5L721.864 16.5V33Z" fill="#F8F8F5"/>
<path d="M705.077 33H721.863V16.5L705.077 16.5V33Z" fill="#1D1D1B"/>
<path d="M688.283 33H705.069V16.5L688.283 16.5V33Z" fill="#F8F8F5"/>
<path d="M671.497 33H688.283V16.5L671.497 16.5V33Z" fill="#1D1D1B"/>
<path d="M1024.04 0H1007.25V16.5H1024.04V0Z" fill="#F8F8F5"/>
<path d="M1040.83 0H1024.04V16.5H1040.83V0Z" fill="#1D1D1B"/>
<path d="M1057.61 0H1040.83V16.5H1057.61V0Z" fill="#F8F8F5"/>
<path d="M1074.4 0H1057.61V16.5H1074.4V0Z" fill="#1D1D1B"/>
<path d="M1091.19 0H1074.4V16.5H1091.19V0Z" fill="#F8F8F5"/>
<path d="M1107.97 0H1091.19V16.5H1107.97V0Z" fill="#1D1D1B"/>
<path d="M1124.76 0H1107.97V16.5H1124.76V0Z" fill="#F8F8F5"/>
<path d="M1141.55 0H1124.77V16.5H1141.55V0Z" fill="#1D1D1B"/>
<path d="M1158.34 0H1141.55V16.5H1158.34V0Z" fill="#F8F8F5"/>
<path d="M1175.13 0H1158.34V16.5H1175.13V0Z" fill="#1D1D1B"/>
<path d="M1191.91 0H1175.13V16.5H1191.91V0Z" fill="#F8F8F5"/>
<path d="M1208.7 0H1191.91V16.5H1208.7V0Z" fill="#1D1D1B"/>
<path d="M1225.49 0H1208.7V16.5H1225.49V0Z" fill="#F8F8F5"/>
<path d="M1242.27 0H1225.49V16.5H1242.27V0Z" fill="#1D1D1B"/>
<path d="M1259.06 0H1242.27V16.5H1259.06V0Z" fill="#F8F8F5"/>
<path d="M1275.85 0H1259.07V16.5H1275.85V0Z" fill="#1D1D1B"/>
<path d="M1292.64 0H1275.85V16.5H1292.64V0Z" fill="#F8F8F5"/>
<path d="M1309.43 0H1292.64V16.5H1309.43V0Z" fill="#1D1D1B"/>
<path d="M1326.21 0H1309.43V16.5H1326.21V0Z" fill="#F8F8F5"/>
<path d="M1343 0H1326.21V16.5H1343V0Z" fill="#1D1D1B"/>
<path d="M1326.21 33H1343V16.5L1326.21 16.5V33Z" fill="#F8F8F5"/>
<path d="M1309.43 33H1326.21V16.5L1309.43 16.5V33Z" fill="#1D1D1B"/>
<path d="M1292.64 33H1309.43V16.5L1292.64 16.5V33Z" fill="#F8F8F5"/>
<path d="M1275.85 33H1292.63V16.5L1275.85 16.5V33Z" fill="#1D1D1B"/>
<path d="M1259.06 33H1275.85V16.5L1259.06 16.5V33Z" fill="#F8F8F5"/>
<path d="M1242.28 33H1259.07V16.5L1242.28 16.5V33Z" fill="#1D1D1B"/>
<path d="M1225.49 33H1242.28V16.5L1225.49 16.5V33Z" fill="#F8F8F5"/>
<path d="M1208.7 33H1225.49V16.5L1208.7 16.5V33Z" fill="#1D1D1B"/>
<path d="M1191.91 33H1208.7V16.5L1191.91 16.5V33Z" fill="#F8F8F5"/>
<path d="M1175.13 33H1191.91V16.5L1175.13 16.5V33Z" fill="#1D1D1B"/>
<path d="M1158.34 33H1175.13V16.5L1158.34 16.5V33Z" fill="#F8F8F5"/>
<path d="M1141.55 33H1158.34V16.5L1141.55 16.5V33Z" fill="#1D1D1B"/>
<path d="M1124.76 33H1141.55V16.5L1124.76 16.5V33Z" fill="#F8F8F5"/>
<path d="M1107.98 33H1124.77V16.5L1107.98 16.5V33Z" fill="#1D1D1B"/>
<path d="M1091.19 33H1107.98V16.5L1091.19 16.5V33Z" fill="#F8F8F5"/>
<path d="M1074.41 33H1091.19V16.5L1074.41 16.5V33Z" fill="#1D1D1B"/>
<path d="M1057.61 33H1074.4V16.5L1057.61 16.5V33Z" fill="#F8F8F5"/>
<path d="M1040.83 33H1057.61V16.5L1040.83 16.5V33Z" fill="#1D1D1B"/>
<path d="M1024.04 33H1040.83V16.5L1024.04 16.5V33Z" fill="#F8F8F5"/>
<path d="M1007.25 33H1024.04V16.5L1007.25 16.5V33Z" fill="#1D1D1B"/>
</g>
<defs>
<clipPath id="clip0_1542_1146">
<rect width="1343" height="33" fill="white"/>
</clipPath>
</defs>
</svg>
