<svg width="1626" height="300" viewBox="0 0 1626 300" fill="none" xmlns="http://www.w3.org/2000/svg">
<path d="M1513.07 299.445C1492.25 299.445 1473.14 294.179 1455.75 283.646C1438.61 272.868 1425.01 258.417 1414.97 240.291C1404.93 222.165 1399.91 202.324 1399.91 180.769C1399.91 159.704 1404.93 140.231 1414.97 122.35C1425.01 104.224 1438.73 89.8944 1456.12 79.3617C1473.51 68.5841 1492.49 63.1953 1513.07 63.1953C1533.65 63.1953 1552.51 68.5841 1569.65 79.3617C1586.8 89.8944 1600.39 104.224 1610.44 122.35C1620.48 140.231 1625.5 159.704 1625.5 180.769C1625.5 202.324 1620.48 222.165 1610.44 240.291C1600.39 258.417 1586.8 272.868 1569.65 283.646C1552.51 294.179 1533.65 299.445 1513.07 299.445ZM1512.7 239.189C1528.87 239.189 1541.61 233.677 1550.91 222.655C1560.22 211.632 1564.88 197.793 1564.88 181.136C1564.88 164.725 1560.22 151.008 1550.91 139.986C1541.61 128.963 1528.87 123.452 1512.7 123.452C1496.78 123.452 1484.04 129.086 1474.49 140.353C1465.18 151.376 1460.53 164.97 1460.53 181.136C1460.53 197.548 1465.18 211.387 1474.49 222.655C1484.04 233.677 1496.78 239.189 1512.7 239.189Z" fill="#F2F1EC"/>
<path d="M1357.85 63.1959C1348.79 63.1959 1341.07 60.1341 1334.7 54.0104C1328.58 47.8868 1325.52 40.416 1325.52 31.5979C1325.52 22.7799 1328.58 15.3091 1334.7 9.18544C1341.07 3.06182 1348.79 0 1357.85 0C1366.42 0 1373.65 3.06182 1379.53 9.18544C1385.65 15.3091 1388.71 22.7799 1388.71 31.5979C1388.71 40.416 1385.65 47.8868 1379.53 54.0104C1373.65 60.1341 1366.42 63.1959 1357.85 63.1959ZM1326.99 69.8094L1387.61 69.8094V293.934H1326.99V69.8094Z" fill="#F2F1EC"/>
<path d="M1242.88 0L1303.5 0V293.934H1242.88V0Z" fill="#F2F1EC"/>
<path d="M1119.47 299.445C1098.65 299.445 1079.55 294.179 1062.16 283.646C1045.01 272.868 1031.42 258.417 1021.37 240.291C1011.33 222.165 1006.31 202.324 1006.31 180.769C1006.31 159.704 1011.33 140.231 1021.37 122.35C1031.42 104.224 1045.13 89.8944 1062.52 79.3617C1079.91 68.5841 1098.9 63.1953 1119.47 63.1953C1140.05 63.1953 1158.91 68.5841 1176.06 79.3617C1193.2 89.8944 1206.8 104.224 1216.84 122.35C1226.88 140.231 1231.9 159.704 1231.9 180.769C1231.9 202.324 1226.88 222.165 1216.84 240.291C1206.8 258.417 1193.2 272.868 1176.06 283.646C1158.91 294.179 1140.05 299.445 1119.47 299.445ZM1119.11 239.189C1135.27 239.189 1148.01 233.677 1157.32 222.655C1166.63 211.632 1171.28 197.793 1171.28 181.136C1171.28 164.725 1166.63 151.008 1157.32 139.986C1148.01 128.963 1135.27 123.452 1119.11 123.452C1103.18 123.452 1090.45 129.086 1080.89 140.353C1071.59 151.376 1066.93 164.97 1066.93 181.136C1066.93 197.548 1071.59 211.387 1080.89 222.655C1090.45 233.677 1103.18 239.189 1119.11 239.189Z" fill="#F2F1EC"/>
<path d="M989.437 51.4385C975.965 51.4385 965.8 51.9284 958.941 52.9082C952.083 53.643 946.816 55.3576 943.142 58.052C939.468 60.5015 937.018 64.4206 935.794 69.8094L1006.34 69.8094V132.27H933.222V293.934H872.598V132.27H831.814V69.8094H873.333C874.557 52.1733 878.599 38.4564 885.457 28.6586C892.561 18.8608 905.421 11.6349 924.036 6.98094C942.897 2.32698 970.331 0 1006.34 0V51.4385H989.437Z" fill="#F2F1EC"/>
<path d="M747.604 132.27V177.463C747.604 198.038 748.706 211.633 750.91 218.246C753.115 224.86 758.504 229.024 767.077 230.738C775.65 232.453 793.531 233.31 820.72 233.31V293.934C776.63 293.934 745.522 290.873 727.396 284.749C709.515 278.625 698.247 268.215 693.593 253.518C689.184 238.822 686.98 213.47 686.98 177.463V132.27H646.196V69.8094H686.98V0L747.604 0V69.8094L820.72 69.8094V132.27H747.604Z" fill="#F2F1EC"/>
<path d="M556.314 148.069C559.253 124.554 564.52 107.285 572.113 96.2629C579.951 84.9954 589.871 77.7695 601.874 74.5853C614.121 71.401 631.267 69.8088 653.312 69.8088V139.251C641.555 136.311 631.022 134.842 621.714 134.842C600.894 134.842 585.34 141.333 575.052 154.315C565.01 167.297 559.988 184.443 559.988 205.753V293.934H497.895L497.895 69.4414L559.988 69.4414L548.966 148.069H556.314Z" fill="#F2F1EC"/>
<path d="M374.49 299.445C353.67 299.445 334.564 294.179 317.173 283.646C300.027 272.868 286.432 258.417 276.389 240.291C266.347 222.165 261.325 202.324 261.325 180.769C261.325 159.704 266.347 140.231 276.389 122.35C286.432 104.224 300.149 89.8944 317.54 79.3617C334.931 68.5841 353.915 63.1953 374.49 63.1953C395.065 63.1953 413.926 68.5841 431.072 79.3617C448.218 89.8944 461.813 104.224 471.856 122.35C481.898 140.231 486.92 159.704 486.92 180.769C486.92 202.324 481.898 222.165 471.856 240.291C461.813 258.417 448.218 272.868 431.072 283.646C413.926 294.179 395.065 299.445 374.49 299.445ZM374.123 239.189C390.289 239.189 403.026 233.677 412.334 222.655C421.642 211.632 426.296 197.793 426.296 181.136C426.296 164.725 421.642 151.008 412.334 139.986C403.026 128.963 390.289 123.452 374.123 123.452C358.201 123.452 345.464 129.086 335.911 140.353C326.603 151.376 321.949 164.97 321.949 181.136C321.949 197.548 326.603 211.387 335.911 222.655C345.464 233.677 358.201 239.189 374.123 239.189Z" fill="#F2F1EC"/>
<path d="M62.0936 293.934H0L0 0L124.187 0C165.093 0 199.385 6.61352 227.064 19.8406C254.743 33.0676 268.583 58.9093 268.583 97.3657C268.583 130.433 254.253 153.458 225.595 166.44C197.181 179.422 163.379 185.913 124.187 185.913L62.0936 185.913L62.0936 293.934ZM124.187 126.759C142.313 126.759 156.52 125.902 166.808 124.187C177.095 122.473 184.689 119.411 189.588 115.002C194.487 110.348 196.936 103.612 196.936 94.7938C196.936 85.9758 194.487 79.2398 189.588 74.5858C184.689 69.9319 176.973 66.7476 166.44 65.033C156.153 63.3183 142.068 62.461 124.187 62.461L62.0936 62.461L62.0936 126.759H124.187Z" fill="#F2F1EC"/>
</svg>
