<?xml version="1.0" encoding="UTF-8"?>
<svg id="Layer_2" data-name="Layer 2" xmlns="http://www.w3.org/2000/svg" viewBox="0 0 400 600">
  <defs>
    <style>
      .cls-1 {
        fill: #fc7c33;
      }

      .cls-2 {
        fill: #004ba3;
      }
    </style>
  </defs>
  <g id="Layer_4" data-name="Layer 4">
    <g>
      <rect class="cls-2" y="240" width="40" height="40" transform="translate(-240 280) rotate(-90)"/>
      <rect class="cls-2" x="40" y="280" width="40" height="40" transform="translate(-240 360) rotate(-90)"/>
      <rect class="cls-1" x="40" y="240" width="40" height="40" transform="translate(-200 320) rotate(-90)"/>
      <rect class="cls-2" x="40" y="200" width="40" height="40" transform="translate(-160 280) rotate(-90)"/>
      <rect class="cls-2" x="80" y="280" width="40" height="40" transform="translate(-200 400) rotate(-90)"/>
      <rect class="cls-1" x="80" y="240" width="40" height="40" transform="translate(-160 360) rotate(-90)"/>
      <rect class="cls-1" x="80" y="200" width="40" height="40" transform="translate(-120 320) rotate(-90)"/>
      <rect class="cls-2" x="80" y="160" width="40" height="40" transform="translate(-80 280) rotate(-90)"/>
      <rect class="cls-2" x="80" y="120" width="40" height="40" transform="translate(-40 240) rotate(-90)"/>
      <rect class="cls-2" x="120" y="400" width="40" height="40" transform="translate(-280 560) rotate(-90)"/>
      <rect class="cls-2" x="120" y="360" width="40" height="40" transform="translate(-240 520) rotate(-90)"/>
      <rect class="cls-2" x="120" y="280" width="40" height="40" transform="translate(-160 440) rotate(-90)"/>
      <rect class="cls-1" x="120" y="240" width="40" height="40" transform="translate(-120 400) rotate(-90)"/>
      <rect class="cls-1" x="120" y="200" width="40" height="40" transform="translate(-80 360) rotate(-90)"/>
      <rect class="cls-1" x="120" y="160" width="40" height="40" transform="translate(-40 320) rotate(-90)"/>
      <rect class="cls-1" x="120" y="120" width="40" height="40" transform="translate(0 280) rotate(-90)"/>
      <rect class="cls-2" x="120" y="80" width="40" height="40" transform="translate(40 240) rotate(-90)"/>
      <rect class="cls-1" x="160" y="400" width="40" height="40" transform="translate(-240 600) rotate(-90)"/>
      <rect class="cls-1" x="160" y="360" width="40" height="40" transform="translate(-200 560) rotate(-90)"/>
      <rect class="cls-2" x="160" y="320" width="40" height="40" transform="translate(-160 520) rotate(-90)"/>
      <rect class="cls-2" x="160" y="280" width="40" height="40" transform="translate(-120 480) rotate(-90)"/>
      <rect class="cls-1" x="160" y="240" width="40" height="40" transform="translate(-80 440) rotate(-90)"/>
      <rect class="cls-1" x="160" y="200" width="40" height="40" transform="translate(-40 400) rotate(-90)"/>
      <rect class="cls-1" x="160" y="160" width="40" height="40" transform="translate(0 360) rotate(-90)"/>
      <rect class="cls-1" x="160" y="120" width="40" height="40" transform="translate(40 320) rotate(-90)"/>
      <rect class="cls-1" x="160" y="80" width="40" height="40" transform="translate(80 280) rotate(-90)"/>
      <rect class="cls-2" x="160" y="40" width="40" height="40" transform="translate(120 240) rotate(-90)"/>
      <rect class="cls-1" x="200" y="400" width="40" height="40" transform="translate(-200 640) rotate(-90)"/>
      <rect class="cls-1" x="200" y="360" width="40" height="40" transform="translate(-160 600) rotate(-90)"/>
      <rect class="cls-1" x="200" y="320" width="40" height="40" transform="translate(-120 560) rotate(-90)"/>
      <rect class="cls-1" x="200" y="280" width="40" height="40" transform="translate(-80 520) rotate(-90)"/>
      <rect class="cls-1" x="200" y="240" width="40" height="40" transform="translate(-40 480) rotate(-90)"/>
      <rect class="cls-2" x="200" y="200" width="40" height="40" transform="translate(0 440) rotate(-90)"/>
      <rect class="cls-1" x="200" y="160" width="40" height="40" transform="translate(40 400) rotate(-90)"/>
      <rect class="cls-1" x="200" y="120" width="40" height="40" transform="translate(80 360) rotate(-90)"/>
      <rect class="cls-1" x="200" y="80" width="40" height="40" transform="translate(120 320) rotate(-90)"/>
      <rect class="cls-1" x="200" y="40" width="40" height="40" transform="translate(160 280) rotate(-90)"/>
      <rect class="cls-2" x="240" y="400" width="40" height="40" transform="translate(-160 680) rotate(-90)"/>
      <rect class="cls-1" x="120" y="440" width="40" height="40" transform="translate(-320 600) rotate(-90)"/>
      <rect class="cls-1" x="160" y="440" width="40" height="40" transform="translate(-280 640) rotate(-90)"/>
      <rect class="cls-2" x="200" y="440" width="40" height="40" transform="translate(-240 680) rotate(-90)"/>
      <rect class="cls-1" x="120" y="480" width="40" height="40" transform="translate(-360 640) rotate(-90)"/>
      <rect class="cls-2" x="80" y="440" width="40" height="40" transform="translate(-360 560) rotate(-90)"/>
      <rect class="cls-2" x="80" y="480" width="40" height="40" transform="translate(-400 600) rotate(-90)"/>
      <rect class="cls-2" x="40" y="520" width="40" height="40" transform="translate(-480 600) rotate(-90)"/>
      <rect class="cls-2" x="160" y="480" width="40" height="40" transform="translate(-320 680) rotate(-90)"/>
      <rect class="cls-2" x="120" y="520" width="40" height="40" transform="translate(-400 680) rotate(-90)"/>
      <rect class="cls-1" x="80" y="520" width="40" height="40" transform="translate(-440 640) rotate(-90)"/>
      <rect class="cls-2" x="80" y="560" width="40" height="40" transform="translate(-480 680) rotate(-90)"/>
      <rect class="cls-1" x="240" y="360" width="40" height="40" transform="translate(-120 640) rotate(-90)"/>
      <rect class="cls-1" x="240" y="320" width="40" height="40" transform="translate(-80 600) rotate(-90)"/>
      <rect class="cls-1" x="240" y="280" width="40" height="40" transform="translate(-40 560) rotate(-90)"/>
      <rect class="cls-2" x="240" y="240" width="40" height="40" transform="translate(0 520) rotate(-90)"/>
      <rect class="cls-2" x="280" y="360" width="40" height="40" transform="translate(-80 680) rotate(-90)"/>
      <rect class="cls-1" x="280" y="320" width="40" height="40" transform="translate(-40 640) rotate(-90)"/>
      <rect class="cls-1" x="280" y="280" width="40" height="40" transform="translate(0 600) rotate(-90)"/>
      <rect class="cls-2" x="280" y="240" width="40" height="40" transform="translate(40 560) rotate(-90)"/>
      <rect class="cls-2" x="320" y="320" width="40" height="40" transform="translate(0 680) rotate(-90)"/>
      <rect class="cls-1" x="320" y="280" width="40" height="40" transform="translate(40 640) rotate(-90)"/>
      <rect class="cls-2" x="320" y="240" width="40" height="40" transform="translate(80 600) rotate(-90)"/>
      <rect class="cls-2" x="360" y="280" width="40" height="40" transform="translate(80 680) rotate(-90)"/>
      <rect class="cls-2" x="240" y="160" width="40" height="40" transform="translate(80 440) rotate(-90)"/>
      <rect class="cls-1" x="240" y="120" width="40" height="40" transform="translate(120 400) rotate(-90)"/>
      <rect class="cls-1" x="240" y="80" width="40" height="40" transform="translate(160 360) rotate(-90)"/>
      <rect class="cls-1" x="280" y="80" width="40" height="40" transform="translate(200 400) rotate(-90)"/>
      <rect class="cls-2" x="320" y="80" width="40" height="40" transform="translate(240 440) rotate(-90)"/>
      <rect class="cls-2" x="280" y="120" width="40" height="40" transform="translate(160 440) rotate(-90)"/>
      <rect class="cls-1" x="240" y="40" width="40" height="40" transform="translate(200 320) rotate(-90)"/>
      <rect class="cls-1" x="280" y="40" width="40" height="40" transform="translate(240 360) rotate(-90)"/>
      <rect class="cls-1" x="320" y="40" width="40" height="40" transform="translate(280 400) rotate(-90)"/>
      <rect class="cls-2" x="200" width="40" height="40" transform="translate(200 240) rotate(-90)"/>
      <rect class="cls-2" x="240" width="40" height="40" transform="translate(240 280) rotate(-90)"/>
      <rect class="cls-2" x="280" width="40" height="40" transform="translate(280 320) rotate(-90)"/>
      <rect class="cls-2" x="320" width="40" height="40" transform="translate(320 360) rotate(-90)"/>
      <rect class="cls-2" x="360" y="40" width="40" height="40" transform="translate(320 440) rotate(-90)"/>
    </g>
  </g>
</svg>