<svg width="346" height="344" viewBox="0 0 346 344" fill="none" xmlns="http://www.w3.org/2000/svg">
<path d="M264.35 312.21C237.67 284.89 191.23 300.26 186.12 338.1C185.1 345.67 174.28 346.04 172.75 338.56C165.08 301.15 117.7 288.97 92.9399 318.05C87.9899 323.87 78.6899 318.33 81.4399 311.2C95.2099 275.58 61.9399 239.73 25.3899 250.8C18.0799 253.02 13.2499 243.33 19.4199 238.82C50.2599 216.3 41.6599 168.15 4.92994 157.71C-2.42006 155.62 -1.24006 144.86 6.37994 144.41C44.4999 142.14 63.2999 96.9803 38.0399 68.3403C32.9899 62.6103 39.7899 54.1903 46.4499 57.9403C79.7499 76.6403 119.97 48.8103 114.21 11.0603C113.06 3.51027 123.33 0.110271 126.91 6.86027C144.81 40.5903 193.7 38.9303 209.26 4.06027C212.37 -2.91973 222.86 -0.219729 222.22 7.39027C219.04 45.4503 261.07 70.4803 293.01 49.5503C299.4 45.3603 306.76 53.3003 302.11 59.3603C278.86 89.6603 300.68 133.43 338.87 133.11C346.51 133.04 348.41 143.7 341.22 146.28C305.28 159.2 299.97 207.82 332.27 228.19C338.73 232.27 334.58 242.26 327.13 240.54C289.91 231.98 259.16 270.01 275.32 304.61C278.55 311.53 269.65 317.69 264.32 312.22L264.35 312.21Z" fill="#FEE6BD"/>
<path d="M179.982 284.701C245.03 280.735 294.547 224.787 290.581 159.738C286.615 94.6894 230.667 45.1723 165.618 49.1386C100.569 53.105 51.0523 109.053 55.0186 174.102C58.9849 239.15 114.933 288.667 179.982 284.701Z" fill="#FBF8F0" stroke="#222831" stroke-width="3" stroke-linecap="round" stroke-linejoin="round"/>
<path d="M138.391 143.776C140.814 143.223 142.329 140.81 141.776 138.387C141.223 135.964 138.81 134.449 136.387 135.002C133.964 135.555 132.449 137.968 133.002 140.391C133.555 142.814 135.968 144.329 138.391 143.776Z" fill="#222831"/>
<path d="M214.041 151.781C214.041 151.781 206.258 171.98 184.02 178.746C161.778 185.504 145.134 174.547 145.134 174.547" stroke="#222831" stroke-width="4" stroke-miterlimit="10" stroke-linecap="round"/>
<path d="M126.329 158.987C126.106 155.681 118.554 153.499 109.462 154.113C100.37 154.727 93.181 157.905 93.4043 161.211C93.6276 164.517 101.179 166.699 110.271 166.085C119.363 165.471 126.553 162.293 126.329 158.987Z" fill="#FFC7C7"/>
<path d="M249.329 139.987C249.106 136.681 241.554 134.499 232.462 135.113C223.37 135.727 216.181 138.905 216.404 142.211C216.628 145.517 224.179 147.699 233.271 147.085C242.363 146.471 249.553 143.293 249.329 139.987Z" fill="#FFC7C7"/>
<path d="M191.678 133.218C196 130 202.5 128.499 208.28 130.666" stroke="black" stroke-width="3" stroke-linecap="round"/>
</svg>
