<svg width="346" height="344" viewBox="0 0 346 344" fill="none" xmlns="http://www.w3.org/2000/svg">


<path d="M179.982 284.701C245.03 280.735 294.547 224.787 290.581 159.738C286.615 94.6894 230.667 45.1723 165.618 49.1386C100.569 53.105 51.0523 109.053 55.0186 174.102C58.9849 239.15 114.933 288.667 179.982 284.701Z" fill="#FBF8F0" stroke="#222831" stroke-width="3" stroke-linecap="round" stroke-linejoin="round"/>

<path d="M138.391 143.776C140.814 143.223 142.329 140.81 141.776 138.387C141.223 135.964 138.81 134.449 136.387 135.002C133.964 135.555 132.449 137.968 133.002 140.391C133.555 142.814 135.968 144.329 138.391 143.776Z" fill="#222831"/>

<path d="M214.041 151.781C214.041 151.781 206.258 171.98 184.02 178.746C161.778 185.504 145.134 174.547 145.134 174.547" stroke="#222831" stroke-width="4" stroke-miterlimit="10" stroke-linecap="round"/>

<path d="M126.329 158.987C126.106 155.681 118.554 153.499 109.462 154.113C100.37 154.727 93.181 157.905 93.4043 161.211C93.6276 164.517 101.179 166.699 110.271 166.085C119.363 165.471 126.553 162.293 126.329 158.987Z" fill="#FFC7C7"/>

<path d="M249.329 139.987C249.106 136.681 241.554 134.499 232.462 135.113C223.37 135.727 216.181 138.905 216.404 142.211C216.628 145.517 224.179 147.699 233.271 147.085C242.363 146.471 249.553 143.293 249.329 139.987Z" fill="#FFC7C7"/>

<path d="M191.678 133.218C196 130 202.5 128.499 208.28 130.666" stroke="black" stroke-width="3" stroke-linecap="round"/>
</svg>
