<?xml version="1.0" encoding="UTF-8"?>
<svg id="Layer_2" data-name="Layer 2" xmlns="http://www.w3.org/2000/svg" viewBox="0 0 513.95 505.39">
  <defs>
    <style>
      .cls-1 {
        fill: #fff;
      }
    </style>
  </defs>
  <g id="_ÎÓÈ_1" data-name="—ÎÓÈ_1">
    <g>
      <path class="cls-1" d="M433.9,226.28c34.85-10.92,86.12-29.93,79.46-76.08-7.19-49.9-72.8-29.71-102.12-16.29-24.07,11.02-46.22,25.73-68.19,40.38,16.03-18.35,29.36-39.07,39.49-61.23,9.29-20.33,19.48-45.14,18.24-67.94-1.28-23.61-22.19-35.96-44.18-28.26-22.5,7.87-40.12,30.13-53.07,49.18-15.54,22.88-27.03,48.17-38.37,73.3,6.28-30.81,6.01-63.03-.92-93.71-5.1-22.55-22.46-55.86-51.15-42.62-26.73,12.33-27.37,50.32-26.16,75.26,1.55,32.18,10.17,63.49,18.72,94.38-19.02-35.03-41.13-78.43-78.59-97.02-14.44-7.16-36.89-10.56-45.65,6.78-9.41,18.63,5.64,42.08,16.4,56.69,14.95,20.3,34.25,36.84,53.32,53.11-22.67-12.22-47.02-21.32-72.14-27-15.48-3.5-46.15-11.37-53.65,9.33-7.63,21.05,18.67,40.07,33.7,49,20.53,12.21,43.71,19.07,66.48,25.78-26.11.97-52.65,1.96-77.91,9.3-19.88,5.77-45.39,16.82-47.48,40.59-2.22,25.17,25.98,31.48,45.41,32.49,27.28,1.43,54.12-5.95,80.17-13.12-32.9,16.72-79.78,39.17-87.46,79.66-3.59,18.92,6.97,35.6,26.91,36.79,19.69,1.18,39.79-9.26,56.24-18.97,20.98-12.38,39.67-28.67,54.69-47.85-15.02,25.64-30.39,51.87-37.41,81.03-2.86,11.91-4.75,25.93,1.72,37.06,5.82,10.02,17.48,14.43,28.68,13.63,25.47-1.81,44.46-27.39,55.43-48.03,12.42-23.36,18.92-49.32,25.18-74.86,4.34,27.12,8.72,54.55,18.4,80.38,7.09,18.92,19.67,47.71,43.8,47.95,26.9.28,35.82-30.77,36.52-52.31.86-26.55-6.79-53.32-21.61-75.37,30.49,27.86,56.62,78.27,104.82,75.05,19.54-1.31,32.27-15.68,31.97-35.02-.3-19.8-11.51-37.42-23.96-52.02-16.63-19.5-37.78-34.63-59.66-47.69,24.97,11.36,52.47,17.06,79.89,16.67,20.1-.29,52.7-3.56,53.29-30.28.53-24.04-23.45-40.93-43.08-49.14-24.16-10.1-50.87-12.19-76.77-12.9,12.7-7.22,26.63-11.73,40.61-16.11ZM274.31,147.81c2.22-6.06,4.59-12.06,7.05-18.03-.02.04-.03.08-.05.12,13.37-31.68,31.48-61.67,55.24-86.66,1.94-1.88,3.93-3.67,6.02-5.4,2.18-1.67,4.4-3.25,6.71-4.73,3.52-2.05,7.09-3.92,10.82-5.57,1.47-.54,2.93-1.1,4.42-1.57,1.31-.35,2.63-.64,3.97-.87.77-.09,1.53-.15,2.3-.19.76.01,1.51.06,2.27.14.66.11,1.3.24,1.94.4.3.09.59.19.89.3.45.2.89.41,1.33.64.82.51,1.62,1.06,2.4,1.63,2.11,1.71,4.07,3.63,5.81,5.72.56.75,1.09,1.52,1.59,2.32.48.86.91,1.72,1.32,2.61.46,1.15.87,2.31,1.22,3.5.49,1.93.83,3.88,1.12,5.85.18,1.63.29,3.25.32,4.9-.04,2.39-.26,4.76-.49,7.14-.47,3.4-1.04,6.75-1.81,10.09-9.81,34.98-30.7,67.91-53.12,96.17-23.38,29.47-49.51,60.01-82.03,79.73.21-.12.41-.24.61-.36-3.32,1.94-7.95,3.68-6.4,8.51,1.28,3.98,5.3,4.4,8.55,2.8,2.09,2.25,5.77,2.34,7.99.27-.85,1.2-1.16,2.89-.84,4.31-5.83,1.5-11.65,3.04-17.44,4.66-.45-1.24-1.46-2.34-2.62-2.96,6.18-2.64,2.49-8.45-.87-11.1,5.88-2.52,6.15-18.09,7.48-23.69,2.11-8.88,4.41-17.71,6.9-26.49,5.19-18.22,10.89-36.4,17.4-54.19ZM239.6,283.75c-.2-.04-.39-.06-.59-.08.16-.32.32-.64.48-.96.03.35.08.69.11,1.04ZM232.63,243.12c1.07,0,2.05-.29,2.94-.85-.24,1.27-.52,2.54-.73,3.81-1.4-1.12-2.81-2.22-4.21-3.34.64.24,1.31.38,2,.38ZM200.67,100.93c-2.51-18.48-3.95-37.06-1.76-55.66.48-3.14,1.06-6.23,1.76-9.32.46-1.61.96-3.2,1.5-4.79.76-1.75,1.6-3.41,2.54-5.07,1.08-1.75,2.17-3.48,3.39-5.15.56-.69,1.14-1.36,1.74-2.02,1.4-1.37,2.82-2.72,4.33-3.96.7-.51,1.41-.99,2.15-1.44,1.12-.61,2.26-1.17,3.43-1.71.81-.33,1.63-.63,2.47-.9.6-.15,1.19-.28,1.79-.39.68-.08,1.35-.13,2.04-.15.64.03,1.27.08,1.9.15.45.07.9.16,1.34.27.66.2,1.3.41,1.95.66.6.27,1.19.57,1.76.88.56.35,1.1.72,1.64,1.11,3.85,3.12,7.27,6.7,10.46,10.48,1.26,1.66,2.42,3.36,3.54,5.12,1.12,1.93,2.16,3.89,3.13,5.9.86,2.06,1.64,4.14,2.34,6.26,4.08,14.5,4.24,30.95,4.16,45.92-.07,14.9-.89,29.79-2.79,44.57-4.08,31.67-10.46,62.78-16.47,94.11-.6,2.62-1.18,5.25-1.74,7.88-6.6-18.81-13.66-37.5-19.09-56.68.06.23.13.47.19.7-7.09-25.33-13.97-50.67-17.72-76.77ZM105.22,130.83c-3.24-4.28-6.24-8.67-9.07-13.23-1.37-2.48-2.65-4.98-3.81-7.56-.64-1.67-1.24-3.35-1.8-5.05-.67-2.48-1.17-4.96-1.56-7.5.03.22.07.44.1.67-.1-.98-.18-1.95-.22-2.93,0-.9.05-1.8.13-2.69.1-.72.23-1.43.39-2.14.12-.45.26-.89.42-1.33.24-.59.5-1.16.79-1.73.36-.59.73-1.16,1.13-1.72.57-.75,1.15-1.48,1.79-2.18.2-.19.41-.37.63-.55.55-.39,1.11-.75,1.68-1.11.51-.28,1.02-.53,1.54-.77,1.07-.41,2.18-.71,3.32-.91,1.24-.16,2.48-.22,3.74-.26,1.92.02,3.8.11,5.71.27,1.33.22,2.63.47,3.94.75,1.38.41,2.74.85,4.11,1.32,2.15.9,4.24,1.89,6.32,2.96,25.77,15.32,42.87,42.89,57.67,68.12,8.01,13.65,15.85,27.43,22.77,41.67,6.77,13.93,14.95,28.07,19.8,42.8.01.11.03.22.04.33-41.38-33.11-86.07-65.67-119.55-107.22ZM36.73,174.95c.08-.09.15-.18.23-.26-.07.08-.13.15-.2.23.08-.07.16-.14.24-.21-.09.08-.17.15-.26.23-.04.04-.07.08-.11.13.03-.03.05-.06.07-.09-.05.05-.11.1-.16.14.06-.05.11-.11.17-.16ZM90.57,226.32c-11.52-4.21-22.81-9-33.26-15.46-2.51-1.69-4.93-3.45-7.3-5.33-1.86-1.62-3.64-3.28-5.35-5.07-1.63-1.85-3.21-3.73-4.73-5.68-.79-1.2-1.54-2.41-2.25-3.66-.68-1.44-1.35-2.88-1.92-4.37-.27-.79-.5-1.57-.7-2.38-.11-.59-.21-1.17-.29-1.77-.04-.64-.06-1.28-.06-1.93.05-.66.12-1.3.22-1.95.07-.31.14-.62.23-.92.13-.39.28-.77.45-1.15.13-.26.27-.52.42-.77.17-.25.36-.49.56-.73.16-.16.32-.32.48-.48.18-.15.36-.29.54-.43.15-.1.31-.19.47-.28.25-.12.5-.23.75-.33,1.13-.39,2.28-.71,3.43-1.01,1.3-.24,2.59-.42,3.9-.56,34.61-1.93,68.86,15.41,99.38,29.67-.05-.03-.1-.05-.16-.08,15.57,7.39,32.7,15.2,45.67,26.72,6.13,5.44,12.62,8.85,19.54,13.1,7.03,4.31,13.28,10.09,19.72,15.2-3.99-.28-7.98-.64-11.96-1.05-9.91-3.87-22.72-3.57-33.23-4.51-32.02-5.34-64.07-13.65-94.56-24.8ZM92.91,314.95c-15.96,3.39-32.65,6.84-49.04,6.28-3.73-.28-7.41-.68-11.1-1.31-1.79-.4-3.55-.83-5.31-1.32-1.49-.51-2.97-1.05-4.44-1.63-1.27-.62-2.52-1.27-3.76-1.96-1.04-.68-2.05-1.38-3.05-2.12-.84-.72-1.66-1.46-2.46-2.23-.61-.69-1.2-1.39-1.75-2.13-.31-.48-.6-.96-.88-1.45-.1-.22-.2-.44-.29-.66-.1-.3-.19-.61-.27-.91-.13-.65-.24-1.29-.32-1.95-.01-.44,0-.87,0-1.31.06-.79.15-1.56.27-2.34.31-1.29.65-2.56,1.03-3.82.61-1.58,1.29-3.13,2-4.67.6-1.17,1.23-2.32,1.89-3.46.77-1.13,1.57-2.22,2.4-3.31,1-1.11,2.02-2.18,3.08-3.23,1.27-1.12,2.56-2.2,3.89-3.25,1.94-1.35,3.92-2.59,6.01-3.7,1.56-.72,3.12-1.39,4.71-2.01,23.02-7.42,48.21-9.99,72.24-11.57,24.27-1.59,48.78-1.21,73.01.86,11.32,1.87,22.68,3.33,34.09,4.52,1.02.43,2.18.54,3.35.35,3.79.38,7.59.73,11.39,1-43.84,21.45-89.06,36.75-136.68,47.34ZM147.08,381.8c-14.15,12.69-29.31,24.89-46.13,33.87.22-.11.44-.23.67-.34-5,2.5-10.02,4.75-15.3,6.61-1.81.54-3.62,1.06-5.44,1.55-1.43.28-2.85.51-4.3.7-2.79.18-5.59.3-8.39.21-.83-.07-1.64-.18-2.47-.31-2.7-.55-5.39-1.15-8.04-1.94-.44-.15-.87-.33-1.3-.51-.26-.13-.51-.27-.76-.41-1.08-.72-2.12-1.48-3.13-2.29-.27-.24-.53-.49-.78-.75-.4-.49-.77-.98-1.14-1.49-.3-.48-.58-.97-.85-1.47-.14-.32-.28-.66-.4-.99-.47-1.45-.85-2.91-1.19-4.4-.21-1.23-.39-2.45-.55-3.68-.06-1.17-.11-2.32-.09-3.49.19-2.13.48-4.23.81-6.34.25-1.21.54-2.4.89-3.58.34-.97.73-1.91,1.14-2.86,1.32-2.62,2.72-5.18,4.29-7.66,1.32-1.82,2.62-3.48,4.07-5.21,2.83-3.05,5.74-6,8.73-8.89,22.35-19.97,50.11-33.38,76.63-46.81,26.63-13.49,53.97-25.86,81.68-36.97-20.39,35.97-48.19,69.63-78.67,97.46ZM242.15,353.38c-4.14,42.25-18.81,89.62-47.52,121.74-1.81,1.85-3.67,3.61-5.63,5.3-1.54,1.2-3.1,2.33-4.74,3.39-1.6.9-3.22,1.76-4.87,2.57-.89.36-1.79.7-2.7,1.01-1.55.41-3.1.77-4.67,1.08-1.68.27-3.36.48-5.06.62-1.24,0-2.47-.03-3.71-.1-1.52-.15-3.03-.31-4.53-.59-.25-.06-.49-.13-.74-.2-.31-.12-.61-.26-.91-.41-.89-.51-1.73-1.07-2.58-1.64-.98-.76-1.94-1.52-2.86-2.36-.5-.5-.99-1.01-1.45-1.54-.36-.48-.71-.97-1.05-1.48-.4-.69-.78-1.38-1.13-2.1-.28-.65-.52-1.31-.76-1.98-.38-1.35-.72-2.69-1.02-4.06-.31-2.15-.57-4.28-.7-6.45,0-.92.02-1.83.07-2.74.23-2.18.65-4.31,1.1-6.45,7.6-30.69,24.6-58.88,40.46-85.93,15.61-26.65,32.88-52.82,53.43-75.96.7,8.65,1.38,17.31,1.79,25.98,0-.03,0-.06,0-.09.42,10.79.55,21.62-.23,32.4ZM333.14,419.16c1.17,3.97,2.13,7.96,2.97,12,1.59,9.85,1.73,19.73,1.02,29.67-.28,2.3-.59,4.59-.97,6.87-.66,2.85-1.43,5.65-2.31,8.44-.58,1.49-1.17,2.97-1.87,4.41-.34.64-.7,1.26-1.08,1.88-1.25,1.79-2.56,3.5-3.95,5.18-.62.67-1.25,1.31-1.92,1.94-.82.7-1.67,1.36-2.55,1.99-.85.54-1.71,1.04-2.6,1.51-.3.13-.61.26-.91.37-.35.11-.71.2-1.07.28-1.28.21-2.56.33-3.85.41-1.26-.01-2.5-.07-3.75-.17-1.17-.16-2.33-.32-3.48-.54-.91-.23-1.81-.49-2.7-.79-1.14-.44-2.25-.93-3.35-1.47-1.02-.55-2-1.14-2.97-1.77-.88-.62-1.71-1.27-2.54-1.96-.61-.58-1.2-1.17-1.77-1.79-.84-1.03-1.63-2.1-2.38-3.2-16.99-27.13-22.65-60.38-28.14-91.37-5.75-32.46-8.89-65.12-8.77-98.1,17.33,16.95,31.7,37.87,44.68,58.24,13.67,21.46,26.11,43.75,34.27,67.95ZM400.93,344.8c12.19,9.08,22.93,19.58,32.62,31.29,3.91,5.1,7.65,10.25,11.03,15.71,1.44,2.56,2.79,5.14,4.1,7.78.95,2.24,1.74,4.5,2.52,6.8.67,2.35,1.32,4.7,1.78,7.11.38,2.61.52,5.2.37,7.83-.07.64-.17,1.27-.28,1.9-.07.29-.13.58-.22.86-.66,1.69-1.45,3.32-2.3,4.93-.47.74-.93,1.48-1.4,2.23-1.19,1.62-2.39,3.21-3.74,4.71-.56.57-1.13,1.1-1.74,1.62-.62.46-1.25.89-1.91,1.31-.95.54-1.91,1.05-2.91,1.51-1.02.42-2.04.8-3.09,1.14-.98.26-1.96.47-2.96.65-1.59.2-3.19.33-4.78.44-2.35.02-4.7.03-7.04-.16-2.96-.36-5.81-1.04-8.63-1.99-3.56-1.38-7-2.93-10.42-4.63-2.3-1.3-4.47-2.69-6.65-4.18-26.57-19.87-48.21-46.46-68.79-72.22-20.68-25.89-40.04-53.24-61.56-78.4,11.07,2.96,21.82,7.02,32.55,11.02,0,0-.02,0-.03-.01,36.1,13.6,71.95,30.34,103.47,52.75ZM422.91,255.05c12.8,1.8,25.5,4.65,37.78,8.71,8.91,3.3,17.42,7.52,25.33,12.79,1.65,1.22,3.25,2.46,4.84,3.74,1.28,1.18,2.51,2.38,3.73,3.63.99,1.18,1.93,2.38,2.85,3.63.57.88,1.1,1.78,1.59,2.7.36.76.68,1.53.98,2.31.65,1.98,1.26,3.96,1.71,5.99.16.93.27,1.85.36,2.79.04.92.04,1.84.01,2.76-.08.86-.19,1.7-.34,2.55-.18.8-.4,1.58-.65,2.37-.22.57-.45,1.13-.71,1.68-.37.7-.77,1.37-1.19,2.04-.47.65-.95,1.27-1.47,1.88-.87.92-1.8,1.77-2.76,2.61-.6.45-1.2.9-1.79,1.35-1.28.81-2.56,1.57-3.89,2.3-1.5.74-3.04,1.37-4.63,1.89-1.89.54-3.77,1.02-5.68,1.46-3.47.57-6.92.97-10.43,1.21-31.74.89-62.7-9.69-92.43-19.66-32.48-10.89-65.38-22.07-96.51-36.45,46.76-11.63,94.97-21.05,143.27-14.3ZM362.68,238.88c-20.83,5.15-41.61,8.53-62.7,12.17-5.69.57-11.39,1.15-17.08,1.73-5.17.53-12.51.19-17.01,3.02,31.45-29.07,62.61-58.88,98.5-82.51,16.94-11.15,34.91-21.18,53.17-30.01,18.68-9.04,39.55-16.15,60.54-13.65,1.2.2,2.39.43,3.57.73,1.3.41,2.56.89,3.83,1.38,1.57.7,3.11,1.44,4.64,2.22,1.34.81,2.62,1.64,3.91,2.54,2.15,1.72,3.99,3.73,5.7,5.88.62.85,1.19,1.7,1.72,2.6.35.66.67,1.33.98,2.01.43,1.2.78,2.41,1.12,3.63.23.95.42,1.91.56,2.88.06.67.08,1.34.09,2.02-.06,1.46-.17,2.9-.31,4.35-.39,2.5-.91,4.94-1.53,7.39-.57,1.83-1.13,3.64-1.82,5.43-.54,1.23-1.13,2.43-1.78,3.6-.77,1.27-1.61,2.49-2.5,3.69-1.3,1.62-2.67,3.16-4.13,4.63-2.24,2.05-4.51,4.01-6.87,5.93-3.95,2.92-8,5.61-12.19,8.18-34.24,19.14-72.6,30.54-110.42,40.15Z"/>
      <g>
        <path class="cls-1" d="M217.76,266.82c3.81.38,7.63.74,11.45,1-29.97,14.69-60.63,27.18-92.71,36.47-30.16,8.73-63.82,18.9-95.5,17.87-3.78-.29-7.5-.7-11.24-1.33-1.81-.41-3.6-.84-5.39-1.34-1.51-.52-3-1.06-4.49-1.66-1.29-.62-2.55-1.28-3.81-1.98-1.06-.69-2.08-1.4-3.1-2.15-.85-.73-1.68-1.48-2.49-2.26-.61-.7-1.22-1.41-1.78-2.15-.32-.48-.61-.97-.89-1.47-.1-.22-.2-.44-.3-.67-.1-.3-.19-.61-.27-.93-.13-.66-.24-1.31-.32-1.97-.02-.44-.01-.88,0-1.32.07-.8.15-1.58.27-2.37.31-1.3.66-2.59,1.05-3.87.62-1.6,1.3-3.17,2.02-4.73.61-1.19,1.24-2.35,1.91-3.51.78-1.14,1.59-2.25,2.43-3.35,1.01-1.12,2.05-2.21,3.12-3.28,1.29-1.14,2.61-2.24,3.97-3.32,1.96-1.36,3.96-2.6,6.06-3.72,1.57-.73,3.16-1.41,4.77-2.04,23.33-7.52,48.86-10.12,73.21-11.72,24.55-1.61,49.37-1.25,73.88.86,11.49,1.92,23.04,3.35,34.63,4.59,1.06.46,2.29.58,3.5.36Z"/>
        <path class="cls-1" d="M228.17,255.33c.6.48,1.19.95,1.79,1.42-4.02-.27-8.04-.64-12.06-1.06-9.99-4.04-23.24-3.66-33.86-4.6-22.51-3.75-44.75-9.26-66.64-15.66-21.48-6.27-43.64-13.27-62.77-25.14-2.54-1.72-5-3.49-7.4-5.4-1.89-1.64-3.69-3.33-5.42-5.14-1.66-1.88-3.26-3.78-4.8-5.76-.81-1.22-1.57-2.43-2.29-3.7-.69-1.46-1.36-2.92-1.95-4.43-.27-.8-.5-1.6-.71-2.42-.11-.59-.21-1.19-.29-1.79-.04-.65-.06-1.3-.06-1.95.05-.67.12-1.32.22-1.98.07-.32.14-.63.23-.94.13-.39.28-.78.45-1.16.25-.53.56-1.02.94-1.46.01-.01.03-.03.03-.04.17-.16.34-.34.5-.51.18-.15.36-.3.55-.43.16-.1.31-.2.48-.29,1.33-.62,2.83-.98,4.24-1.35,1.32-.25,2.63-.43,3.95-.56,34.2-1.88,67.85,14.83,98.08,28.84,29.1,13.49,56.82,29.91,79.64,52.72,1.1,2.56,4.57,4,7.14,2.78Z"/>
        <path class="cls-1" d="M224.29,237.53c.01.11.03.22.05.33-23.56-18.84-47.42-37.4-70.01-57.41-21.8-19.31-44.87-39.72-60.33-64.65-1.39-2.51-2.68-5.04-3.86-7.66-.65-1.7-1.26-3.39-1.83-5.12-.63-2.29-1.13-4.56-1.47-6.92-.1-.99-.18-1.97-.22-2.96.01-.92.05-1.82.13-2.73.1-.73.24-1.45.39-2.17.13-.45.26-.9.42-1.35.25-.6.51-1.18.81-1.75.84-1.42,1.83-2.74,2.95-3.95.21-.2.42-.38.64-.56.56-.39,1.12-.76,1.7-1.12.51-.28,1.03-.54,1.56-.78,1.09-.42,2.21-.72,3.36-.92,1.26-.16,2.52-.22,3.78-.27,1.94.02,3.86.11,5.79.27,1.35.22,2.67.47,4,.76,1.4.42,2.78.86,4.16,1.34,2.18.92,4.3,1.92,6.4,3.01,12.45,7.37,22.54,17.76,31.57,28.93,0,0,.01.01.02.02,14.65,18.73,26.7,39.21,38.24,59.96,5.95,10.7,11.38,21.64,16.67,32.68,5.16,10.78,11.37,21.66,15.1,33.04Z"/>
        <path class="cls-1" d="M258.32,82.07c-.17,51.16-10.79,101.49-21.3,151.34-10.86-30.94-21.55-61.77-29.13-93.73-7.48-31.54-13.57-64.7-9.76-97.19.49-3.18,1.07-6.31,1.79-9.45.47-1.63.97-3.24,1.52-4.85.77-1.77,1.63-3.45,2.58-5.14,1.1-1.77,2.2-3.53,3.44-5.22.56-.7,1.16-1.38,1.76-2.04,1.42-1.39,2.86-2.76,4.39-4.02.71-.52,1.43-1,2.18-1.46,1.14-.62,2.3-1.19,3.47-1.73.83-.33,1.66-.64,2.5-.92.6-.15,1.21-.28,1.82-.39.69-.08,1.37-.13,2.07-.15.65.03,1.28.08,1.92.15.45.08.91.16,1.35.27.67.2,1.32.42,1.98.67.61.28,1.2.58,1.79.9.57.36,1.12.73,1.66,1.12,3.9,3.16,7.37,6.79,10.59,10.62,1.28,1.68,2.46,3.41,3.6,5.18,1.14,1.96,2.19,3.94,3.17,5.98.88,2.08,1.67,4.19,2.37,6.34,3.9,13.82,4.04,29.44,4.24,43.7Z"/>
        <path class="cls-1" d="M392.47,45.28c.18,1.66.29,3.3.32,4.97-.04,2.42-.27,4.83-.49,7.24-.48,3.44-1.06,6.84-1.83,10.23-11.66,41.44-37.98,79.09-65.45,111.58-14.52,17.18-29.55,33.89-46.87,48.32-7.85,6.54-15.88,13.07-24.66,18.35-3.34,2.01-8.07,4.24-5.61,9.11,1.69,3.35,5.44,3.43,8.4,1.99,2.06,2.21,5.93,2.44,8.11.26-.86,1.21-1.19,2.92-.86,4.37-5.9,1.51-11.8,3.06-17.67,4.7-.45-1.23-1.47-2.36-2.61-2.98,6.23-2.68,2.46-8.57-.92-11.24,6.07-2.6,6.55-19.71,7.92-25.43,2.4-9.95,5.01-19.86,7.88-29.68,5.62-19.24,11.66-38.47,18.86-57.18,14.03-36.44,33.61-71.03,60.62-99.46,1.97-1.91,3.98-3.72,6.1-5.46,2.21-1.69,4.46-3.29,6.8-4.8,3.57-2.07,7.19-3.96,10.96-5.65,1.49-.55,2.97-1.12,4.48-1.59,1.33-.36,2.66-.65,4.02-.88.78-.09,1.55-.16,2.33-.19.77.01,1.53.05,2.3.14.67.11,1.32.24,1.97.4.31.09.6.19.9.3.45.2.9.42,1.35.65.83.52,1.64,1.07,2.43,1.66,1.28,1.04,2.47,2.19,3.66,3.33.78.8,1.52,1.62,2.23,2.47.57.76,1.1,1.54,1.61,2.35.48.87.93,1.74,1.34,2.65.47,1.16.88,2.34,1.23,3.55.5,1.96.84,3.94,1.15,5.92Z"/>
        <path class="cls-1" d="M507.44,152.19c.06.68.09,1.36.09,2.04-.06,1.48-.17,2.94-.31,4.41-.4,2.53-.93,5.01-1.56,7.49-.57,1.85-1.15,3.69-1.84,5.5-.55,1.25-1.15,2.46-1.8,3.65-.78,1.29-1.63,2.53-2.53,3.74-1.32,1.64-2.71,3.2-4.19,4.7-2.28,2.07-4.57,4.06-6.96,6.01-4,2.96-8.11,5.68-12.35,8.29-53.64,29.96-115.57,42.85-175.44,53.01-5.77.63-11.54,1.17-17.31,1.76-5.24.54-12.66.19-17.24,3.06,31.87-29.46,63.45-59.66,99.82-83.61,17.17-11.3,35.38-21.46,53.89-30.41,18.93-9.16,40.08-16.38,61.35-13.83,1.22.2,2.42.43,3.62.73,1.32.42,2.59.9,3.87,1.4,1.59.71,3.15,1.46,4.71,2.25,1.35.82,2.66,1.67,3.96,2.58,2.18,1.73,4.04,3.78,5.78,5.96.62.85,1.21,1.73,1.75,2.64.35.67.69,1.35.99,2.04.43,1.21.79,2.44,1.14,3.68.23.96.42,1.93.57,2.92Z"/>
        <path class="cls-1" d="M505.36,302c.04.93.05,1.86.02,2.8-.08.87-.19,1.73-.34,2.59-.19.81-.4,1.61-.66,2.41-.22.58-.46,1.14-.72,1.7-.38.7-.78,1.39-1.21,2.07-.47.65-.96,1.28-1.49,1.9-.89.94-1.83,1.8-2.79,2.65-.61.45-1.22.92-1.82,1.37-1.29.82-2.6,1.59-3.94,2.33-1.52.75-3.08,1.39-4.69,1.91-1.91.55-3.81,1.04-5.75,1.48-3.51.58-7.01.99-10.56,1.23-32.17.9-63.55-9.82-93.68-19.92-32.92-11.04-66.25-22.38-97.81-36.94,35.49-8.83,71.66-16.7,108.39-16.71,34.38-.01,71.53,4.53,100.75,24.01,1.67,1.23,3.3,2.49,4.91,3.79,1.29,1.19,2.55,2.42,3.78,3.68,1,1.19,1.96,2.41,2.89,3.67.58.89,1.11,1.8,1.61,2.74.37.77.69,1.55,1,2.34.66,2,1.28,4.01,1.74,6.07.16.94.28,1.87.36,2.83Z"/>
        <path class="cls-1" d="M456.05,420.12c.02,1.15,0,2.3-.07,3.46-.08.7-.18,1.4-.31,2.09.05-.24.11-.47.16-.71-.09.48-.21.95-.37,1.41-.67,1.72-1.47,3.37-2.33,4.99-.47.75-.94,1.51-1.41,2.26-1.21,1.64-2.42,3.26-3.79,4.77-.56.57-1.15,1.12-1.76,1.64-.63.47-1.27.9-1.93,1.33-.96.55-1.94,1.06-2.94,1.53-1.04.42-2.07.81-3.14,1.16-.99.26-1.99.48-3,.66-1.62.21-3.23.33-4.85.45-2.38.02-4.76.03-7.14-.16-3-.37-5.88-1.05-8.75-2.02-3.61-1.4-7.1-2.96-10.56-4.69-2.33-1.31-4.53-2.73-6.74-4.23-26.91-20.17-48.86-47.08-69.71-73.19-20.96-26.24-40.59-53.93-62.39-79.46,11.22,3,22.11,7.11,32.99,11.16-.01,0-.02,0-.03,0,50.17,18.88,103.08,43.09,137.92,85.17,3.96,5.17,7.75,10.38,11.18,15.92,1.47,2.6,2.83,5.21,4.15,7.88.96,2.27,1.76,4.56,2.55,6.89.67,2.39,1.34,4.77,1.8,7.21.22,1.49.36,2.98.44,4.48Z"/>
        <path class="cls-1" d="M338.51,445.88c.25,5.94.1,11.82-.31,17.75-.28,2.33-.6,4.65-.99,6.97-.67,2.89-1.45,5.72-2.34,8.56-.59,1.51-1.18,3-1.89,4.47-.35.65-.71,1.28-1.1,1.91-1.27,1.81-2.6,3.55-4.01,5.25-.63.68-1.27,1.33-1.95,1.97-.83.71-1.69,1.38-2.58,2.02-.86.55-1.73,1.06-2.64,1.53-.31.14-.61.26-.93.37-.36.11-.72.2-1.09.29-1.3.21-2.59.33-3.9.42-1.28-.02-2.53-.08-3.8-.17-1.18-.16-2.36-.32-3.53-.55-.93-.23-1.84-.49-2.74-.79-1.16-.45-2.27-.94-3.39-1.49-1.04-.56-2.03-1.16-3.01-1.79-.89-.63-1.74-1.29-2.57-1.99-.62-.59-1.22-1.18-1.79-1.81-.85-1.05-1.65-2.13-2.41-3.24-1.78-2.84-3.4-5.72-4.93-8.7-10.81-23.1-16.64-47.2-21.43-72.16-4.98-25.93-8.74-52.04-10.23-78.42,0-.02,0-.04,0-.05-.49-10.89-.82-21.79-.82-32.69,17.56,17.17,32.13,38.37,45.28,59.02,13.85,21.75,26.46,44.34,34.72,68.86,1.18,4.02,2.16,8.07,3.01,12.16.66,4.09,1.06,8.18,1.35,12.32Z"/>
        <path class="cls-1" d="M242.18,322c1.12,28.95-2.43,56.5-11.06,84.18-8.1,25.99-19,51.42-37.33,71.93-1.84,1.87-3.72,3.66-5.71,5.38-1.56,1.21-3.14,2.36-4.8,3.43-1.62.91-3.26,1.78-4.93,2.6-.9.37-1.81.71-2.73,1.02-1.57.42-3.14.78-4.73,1.1-1.7.27-3.4.49-5.13.63-1.26,0-2.5-.03-3.76-.1-1.55-.15-3.07-.31-4.59-.6-.25-.07-.5-.13-.75-.21-.31-.13-.62-.26-.92-.41-.9-.52-1.76-1.08-2.62-1.67-.99-.77-1.97-1.55-2.9-2.39-.51-.5-1-1.02-1.47-1.57-.37-.49-.72-.99-1.06-1.5-.41-.7-.79-1.4-1.15-2.13-.28-.66-.53-1.33-.77-2.01-.39-1.36-.72-2.73-1.04-4.12-.31-2.18-.58-4.34-.7-6.54,0-.93.02-1.85.07-2.78.24-2.2.66-4.36,1.11-6.54,7.73-31.1,24.93-59.65,41-87.08,15.82-27,33.31-53.54,54.15-76.98.68,8.77,1.4,17.54,1.81,26.33Z"/>
        <path class="cls-1" d="M224.48,285.12c.28-.12.57-.23.85-.35-16.34,28.95-37.86,55.87-60.61,80-22.41,23.76-49.43,48.38-80.68,59.45-1.83.55-3.67,1.07-5.51,1.57-1.45.29-2.88.52-4.35.71-2.83.19-5.67.3-8.5.21-.84-.07-1.67-.18-2.5-.31-2.74-.55-5.47-1.17-8.15-1.96-.44-.16-.88-.33-1.32-.53-.26-.13-.52-.26-.77-.42-1.1-.72-2.15-1.5-3.17-2.32-.27-.25-.53-.5-.79-.76-.4-.49-.78-.99-1.15-1.51-.31-.49-.59-.98-.87-1.49-.14-.33-.28-.66-.41-1-.48-1.47-.87-2.95-1.21-4.46-.22-1.24-.39-2.48-.55-3.73-.07-1.18-.11-2.35-.09-3.53.19-2.16.48-4.29.82-6.43.25-1.23.55-2.43.9-3.63.35-.99.74-1.94,1.16-2.9,1.35-2.66,2.76-5.25,4.35-7.77,1.32-1.82,2.68-3.56,4.12-5.28,2.87-3.09,5.81-6.07,8.85-9,22.26-19.93,49.92-33.38,76.36-46.78,27.16-13.77,55.01-26.35,83.23-37.79Z"/>
      </g>
      <path d="M224.66,296.93c-19.67-8.44-22.96-30.46-12.88-47.69,4.63-7.92,11.56-15.69,20.39-18.86,9.58-3.43,19.19.76,27.43,5.72,36.38,21.87.93,76.23-34.95,60.83Z"/>
    </g>
  </g>
</svg>