<svg width="156" height="147" viewBox="0 0 156 147" fill="none" xmlns="http://www.w3.org/2000/svg">
<g clip-path="url(#clip0_2237_241)">
<path d="M154.985 69.378C152.477 61.787 149.215 54.6681 145.262 48.1027C145.639 43.6671 145.09 39.0746 143.647 34.8921C141.593 28.9898 137.877 23.749 131.949 18.3987C122.07 9.46533 112.786 5.34644 103.517 5.75641C101.337 5.85113 99.1728 6.29365 97.0713 7.00258C88.1641 3.45201 78.6141 1.14762 68.6245 0.247771L66.6804 0.0746088C61.082 -0.430078 55.4202 1.51023 50.7321 5.55068C50.01 6.18265 49.3203 6.84422 48.6615 7.53983C40.0527 7.0973 22.2838 10.0174 3.92073 36.2167C0.0619434 41.7268 -1.06746 47.9932 1.06487 52.1905C2.58545 55.1728 5.50307 56.8467 9.25156 56.8778C10.0516 56.894 10.9604 56.894 11.9486 56.894C18.7382 56.9103 35.2675 56.9414 40.7719 61.2349C42.9365 70.2631 49.5232 77.16 58.5717 79.1639L60.579 79.6064C61.0967 79.7174 61.5981 79.8432 62.0996 79.9853C62.3658 81.7377 62.7893 83.3627 63.3702 84.8309C65.2672 89.6291 72.9054 95.0268 80.5729 95.3894C80.6509 95.5477 80.7303 95.7046 80.8082 95.863C83.3964 101.955 87.8802 106.516 93.4478 108.726C95.9257 109.704 98.5287 110.194 101.164 110.194C106.574 114.644 110.636 130.68 112.314 137.293C112.549 138.257 112.768 139.14 112.973 139.913C113.945 143.591 116.281 146.036 119.527 146.779C120.186 146.921 120.876 146.999 121.581 146.999C125.721 146.999 130.442 144.442 134.143 140.055C153.918 116.617 153.291 98.9888 150.955 90.2596C151.896 89.0282 152.71 87.7021 153.416 86.2976C156.193 80.7579 156.756 74.7446 154.984 69.378H154.985ZM129.361 135.966C126.303 139.58 122.806 141.048 120.924 140.622C120.548 140.527 119.576 140.306 119.042 138.301C118.837 137.543 118.618 136.676 118.383 135.729C115.874 125.786 112.895 115.432 108.409 109.025C109.318 108.724 110.245 108.378 111.154 107.983L139.365 98.6868C141.577 97.9602 143.693 96.8723 145.606 95.4989C146.641 103.596 144.9 117.563 129.359 135.966H129.361ZM147.834 83.4249C147.834 83.4412 147.818 83.4412 147.818 83.456C147.316 84.4505 146.736 85.3815 146.077 86.265C143.865 89.2946 140.824 91.568 137.421 92.6883L109.052 102.032C108.942 102.063 108.848 102.095 108.739 102.143C107.077 102.9 105.398 103.405 103.767 103.658C101.367 104.053 99.0154 103.911 96.8199 103.216C96.4596 103.121 96.0993 102.995 95.7537 102.853C92.0523 101.385 88.9788 98.3864 87.0347 94.377C100.458 90.2108 106.465 85.9809 115.387 79.6834L118.398 77.5684C119.981 76.4643 121.895 75.2803 123.902 74.0327C130.912 69.677 139.443 64.3889 143.034 56.9562C145.355 61.5013 147.362 66.3159 149.025 71.3657C150.249 75.0583 149.809 79.4629 147.834 83.4234V83.4249ZM69.5642 83.1733C69.3922 82.9365 69.2819 82.6997 69.1878 82.4791C68.7642 81.4372 68.4657 80.2221 68.2628 78.896C68.0745 77.7919 67.9642 76.6079 67.9334 75.3292C67.5878 65.2591 71.101 50.598 74.8804 39.3603C78.2833 29.2591 87.6611 17.9266 97.1963 13.7293C98.686 13.0825 100.145 12.6089 101.618 12.3247H101.635C102.371 12.1989 103.093 12.1042 103.814 12.0716C104.159 12.0554 104.504 12.0406 104.849 12.0406C106.009 12.0406 107.17 12.1353 108.346 12.3247C114.493 13.2719 120.781 16.7752 127.761 23.0889C132.858 27.714 136.025 32.1318 137.719 36.9937C137.767 37.1195 137.797 37.2468 137.844 37.3726C138.567 39.5512 138.989 41.8866 139.099 44.2058V44.2221C139.162 45.9745 139.068 47.7105 138.786 49.414C138.628 50.4722 138.378 51.4979 138.08 52.5073C136.089 59.0416 127.511 64.3755 120.609 68.6528C118.524 69.9626 116.548 71.1777 114.823 72.3928L111.796 74.5078C102.779 80.8689 97.3213 84.7036 83.992 88.713C83.9611 88.7293 83.945 88.7293 83.9141 88.7441C83.0832 88.9972 82.22 89.1067 81.3421 89.1067C81.0435 89.1067 80.7303 89.0904 80.4318 89.0593C78.5818 88.9172 76.6995 88.3178 75.0054 87.4816C72.5274 86.2828 70.473 84.6089 69.5642 83.1733ZM46.3703 56.6099C46.2762 55.4895 46.26 54.3218 46.3394 53.1378L48.3306 22.9616C48.5821 19.0943 50.2129 15.307 52.8776 12.2774C53.4585 11.598 54.1158 10.9513 54.807 10.3519C55.0732 10.1313 55.3408 9.90934 55.6232 9.7051C58.4776 7.51171 61.8025 6.31141 64.9849 6.31141C65.3613 6.31141 65.7378 6.32769 66.1143 6.35877L68.0745 6.53194C75.4921 7.19498 82.6112 8.64688 89.339 10.8255C79.648 17.265 71.901 28.565 68.9363 37.34C66.929 43.2586 61.754 59.9251 61.6437 73.3726L59.9187 72.9937C54.6805 71.8422 50.6188 68.527 48.3453 63.9345C47.263 61.7559 46.5894 59.2784 46.3689 56.6114L46.3703 56.6099ZM11.9648 50.5818C10.9927 50.5818 10.1148 50.5818 9.3295 50.5655C7.29129 50.5492 6.8207 49.6494 6.66335 49.303C5.76924 47.567 6.30306 43.7633 9.03098 39.8487C23.1764 19.6938 36.3807 14.786 44.3306 13.9498C43.0439 16.6641 42.2762 19.5842 42.0718 22.5517L40.0807 52.713C40.0498 53.0756 40.0336 53.4382 40.0336 53.8023C31.9734 50.6143 20.1647 50.598 11.9633 50.5832L11.9648 50.5818Z" fill="#CECECE"/>
<path d="M102.952 24.102C104.175 24.0546 105.429 24.1804 106.747 24.5282C109.71 25.286 112.926 27.0384 116.485 29.8474C117.521 30.6526 118.571 31.5524 119.7 32.5618C123.495 36.0028 125.769 39.0798 126.882 42.253C126.96 42.4735 127.04 42.7103 127.087 42.9471C127.432 44.0512 127.62 45.2352 127.668 46.4355C127.731 48.1242 129.126 49.4503 130.788 49.4503H130.929C132.654 49.3867 134.003 47.9037 133.925 46.1676C133.862 44.4952 133.595 42.8849 133.156 41.3383C133.062 40.9431 132.937 40.5495 132.795 40.1543C131.337 35.9407 128.498 32.0423 123.888 27.8761C122.65 26.7557 121.488 25.7774 120.344 24.8775C115.169 20.806 110.371 18.5016 105.791 17.9333C104.741 17.7912 103.69 17.7438 102.655 17.7912C100.93 17.8696 99.5972 19.3541 99.6751 21.0902C99.7531 22.8425 101.212 24.1834 102.953 24.105L102.952 24.102Z" fill="#CECECE"/>
</g>
<defs>
<clipPath id="clip0_2237_241">
<rect width="156" height="147" fill="white"/>
</clipPath>
</defs>
</svg>
