<?xml version="1.0" encoding="UTF-8"?>
<svg id="Layer_2" data-name="Layer 2" xmlns="http://www.w3.org/2000/svg" viewBox="0 0 251.6 310.79">
  <defs>
    <style>
      .cls-1 {
        fill: #373737;
      }

      .cls-2 {
        fill: #000b1d;
      }
    </style>
  </defs>
  <g id="adobe_products_set" data-name="adobe products set">
    <g id="outline_black" data-name="outline black">
      <path class="cls-1" d="M59.54,285.77v24.3c0,.22-.09.34-.3.34h-4.12c-.16.02-.31-.09-.34-.25,0-.03,0-.06,0-.08v-24.3c0-.2.11-.3.34-.3h4.12c.14-.02.28.07.3.22,0,.03,0,.05,0,.08M63.61,306.09v-22.39c0-.2.11-.3.34-.3h4.08c.22,0,.34.1.34.3v22.35c-.04.38.05.77.26,1.08.23.22.54.32.86.3.27,0,.55-.03.82-.07.11,0,.19.07.19.22v2.4c0,.22-.07.36-.22.41-.79.28-1.63.41-2.47.37-1.13.08-2.25-.3-3.11-1.05-.83-1.02-1.22-2.32-1.09-3.63M72.69,306.09v-22.39c0-.2.11-.3.34-.3h4.08c.22,0,.34.1.34.3v22.35c-.05.38.05.77.26,1.08.23.22.54.32.86.3.28,0,.55-.03.82-.07.11,0,.19.07.19.22v2.4c0,.22-.07.36-.22.41-.79.28-1.63.41-2.47.37-1.13.08-2.25-.3-3.11-1.05-.83-1.02-1.23-2.32-1.09-3.63M97.69,292.47v13.81c-.02,1.29.06,2.58.22,3.86,0,.17-.09.26-.3.26h-3.63c-.18,0-.34-.1-.41-.26-.15-.41-.23-.84-.22-1.27-1.44,1.3-3.34,1.98-5.28,1.91-4.21,0-6.32-2.38-6.33-7.15v-11.16c-.02-.15.09-.28.24-.3.02,0,.04,0,.07,0h4.15c.14-.02.28.08.3.22,0,.03,0,.05,0,.08v10.82c0,2.55,1.05,3.82,3.11,3.82,1.27.06,2.5-.47,3.33-1.42v-13.22c0-.2.11-.3.34-.3h4.12c.14-.02.28.08.3.22,0,.03,0,.05,0,.08M111.94,296.47c-1.3-.85-2.82-1.3-4.38-1.31-.69-.05-1.37.12-1.95.48-.37.27-.59.7-.6,1.16,0,.45.2.89.52,1.2.67.5,1.42.89,2.21,1.16,1.62.52,3.1,1.39,4.34,2.55.87.91,1.33,2.14,1.27,3.41.05,1.6-.67,3.14-1.95,4.12-1.5,1.1-3.34,1.64-5.2,1.53-1.87.07-3.73-.34-5.39-1.2-.15-.06-.25-.21-.22-.37v-3.48c0-.07.02-.14.07-.19.07-.05.15-.05.19,0,1.49,1.15,3.32,1.78,5.2,1.8.69.04,1.38-.11,1.98-.45.44-.25.71-.72.71-1.24.01-.5-.19-.97-.56-1.31-.65-.53-1.4-.94-2.21-1.2-1.56-.51-2.99-1.35-4.19-2.47-.79-.94-1.2-2.14-1.16-3.37-.02-1.49.63-2.92,1.76-3.89,1.42-1.13,3.21-1.69,5.02-1.57,1.6-.08,3.2.2,4.68.83.13.07.19.24.19.49v3.11c0,.3-.11.37-.34.22M125.1,307.41v2.28c0,.25-.07.4-.22.45-1.09.46-2.26.68-3.44.63-3.33,0-4.98-1.76-4.98-5.28v-9.92h-2.28c-.19,0-.26-.11-.26-.33v-2.77c-.02-.14.07-.28.22-.3.03,0,.06,0,.08,0h2.25c.04-1.53.18-3.05.41-4.57.01-.17.13-.31.3-.34l4.01-.52c.17-.05.26.01.26.19-.11,1.13-.19,2.87-.22,5.24h3.59c.17,0,.26.1.26.3v2.85c0,.17-.07.26-.22.26h-3.63v9.43c-.05.66.1,1.31.45,1.87.44.42,1.04.63,1.65.56.52,0,1.04-.09,1.53-.26.17-.05.26.02.26.22M127.42,292.17h3.71c.2,0,.37.14.41.34.21.72.35,1.46.41,2.21,1.4-1.89,3.64-2.97,5.99-2.88.13-.01.25.07.26.2,0,.02,0,.04,0,.06v3.86c.02.15-.09.28-.24.3-.02,0-.04,0-.07,0-1.99-.25-3.98.41-5.43,1.8-.23.24-.35.56-.34.9v11.16c.02.15-.09.28-.24.3-.02,0-.04,0-.06,0h-4.12c-.22,0-.34-.1-.34-.3v-12.61c0-1.95-.07-3.63-.19-5.05-.04-.18.04-.26.22-.26M149.39,307.1v-5.16c-.69-.12-1.39-.17-2.1-.15-1.09-.07-2.17.19-3.11.75-.7.47-1.11,1.26-1.09,2.1-.03.81.3,1.59.9,2.14.79.61,1.78.9,2.77.82.9.01,1.79-.15,2.62-.49M154,299.13v7.19c-.01.82.03,1.65.11,2.47,0,.07-.04.13-.11.15-2.51,1.2-5.26,1.83-8.05,1.83-1.92.08-3.81-.43-5.43-1.46-1.41-1.07-2.18-2.77-2.06-4.53-.08-1.76.81-3.43,2.32-4.34,1.9-1.08,4.07-1.6,6.25-1.5.43,0,.92.01,1.46.04h.9v-.64c0-.41-.08-.82-.22-1.2-.22-.51-.6-.93-1.09-1.2-.72-.43-1.56-.64-2.4-.6-1.79.02-3.55.47-5.13,1.31-.19.1-.3.02-.3-.22v-2.88c-.02-.16.07-.32.22-.37,1.9-.93,3.99-1.39,6.1-1.35,2.05-.15,4.07.58,5.54,2.02,1.3,1.45,1.97,3.34,1.87,5.28M166.69,307.41v2.28c0,.25-.07.4-.22.45-1.09.46-2.26.68-3.44.63-3.31,0-4.98-1.76-4.98-5.28v-9.92h-2.28c-.17,0-.26-.11-.26-.33v-2.77c-.02-.14.07-.28.22-.3.03,0,.05,0,.08,0h2.25c.05-1.53.19-3.05.41-4.57.06-.2.15-.31.3-.34l4.01-.52c.17-.05.26.01.26.19-.09,1.13-.17,2.87-.22,5.24h3.59c.17,0,.26.1.26.3v2.85c0,.17-.07.26-.22.26h-3.63v9.43c-.05.66.11,1.31.45,1.87.44.42,1.04.62,1.65.56.52,0,1.04-.09,1.53-.26.17-.05.26.02.26.22M177.17,291.83c2.52-.14,4.96.84,6.7,2.66,1.65,1.85,2.53,4.26,2.43,6.74.14,2.58-.78,5.11-2.55,7-1.77,1.73-4.19,2.65-6.66,2.55-2.59.17-5.12-.83-6.89-2.73-1.58-1.88-2.42-4.28-2.36-6.74-.09-2.52.83-4.97,2.55-6.82,1.79-1.8,4.24-2.76,6.78-2.66M176.98,295.09c-1.26-.02-2.44.6-3.14,1.65-.86,1.33-1.29,2.91-1.2,4.49-.08,1.61.34,3.2,1.2,4.57.75,1.1,2.01,1.73,3.33,1.69,1.21,0,2.35-.56,3.07-1.54.92-1.37,1.35-3,1.24-4.64.08-1.58-.31-3.14-1.12-4.49-.73-1.14-2.02-1.8-3.37-1.72M189.02,292.17h3.71c.2,0,.37.14.41.34.22.72.36,1.46.41,2.21,1.4-1.88,3.64-2.97,5.99-2.88.13-.01.25.07.26.2,0,.02,0,.04,0,.06v3.86c.02.14-.07.28-.22.3-.03,0-.06,0-.08,0-1.99-.25-3.98.41-5.43,1.8-.23.24-.35.56-.34.9v11.16c.02.14-.08.28-.22.3-.03,0-.05,0-.08,0h-4.12c-.22,0-.34-.1-.34-.3v-12.61c0-1.95-.05-3.63-.19-5.05-.02-.18.06-.26.22-.26"/>
      <g>
        <path class="cls-2" d="M208.16,251.6H43.44c-23.95,0-43.44-19.49-43.44-43.44V43.44C0,19.49,19.49,0,43.44,0h164.72c23.95,0,43.44,19.49,43.44,43.44v164.72c0,23.95-19.49,43.44-43.44,43.44ZM43.44,12c-17.33,0-31.44,14.1-31.44,31.44v164.72c0,17.33,14.1,31.44,31.44,31.44h164.72c17.33,0,31.44-14.1,31.44-31.44V43.44c0-17.33-14.1-31.44-31.44-31.44H43.44Z"/>
        <path class="cls-2" d="M122.82,151.86h-36.57l-7.47,24.43c-.21.87-1.01,1.47-1.9,1.42h-18.53c-1.05,0-1.43-.58-1.11-1.74l31.58-91.17c.32-.95.63-2.03.95-3.25.44-1.77.65-3.59.64-5.42-.08-.54.29-1.03.83-1.11.09-.01.18-.01.28,0h25.17c.74,0,1.16.27,1.27.79l36.03,100.31c.31,1.06,0,1.59-.95,1.58h-20.58c-.73.08-1.41-.39-1.59-1.11l-8.04-24.74ZM91.75,135.01h26.79c-.63-2.11-2.81-6.99-3.65-9.63-.84-2.64-2-4.74-2.95-7.74-.95-3.01-1.9-6.01-2.85-9.02s-1.82-5.91-2.62-8.71c-.8-2.8-1.5-5.36-2.14-7.67h-.16c-.89,4.28-2,8.5-3.33,12.66-1.48,4.75-2.98,9.6-4.51,14.56-1.52,4.96-3.1,11.33-4.58,15.55h0Z"/>
        <path class="cls-2" d="M175.39,91.54c-3.27.13-6.43-1.14-8.71-3.48-2.27-2.44-3.46-5.69-3.33-9.02-.12-3.3,1.17-6.5,3.56-8.79,2.35-2.26,5.52-3.49,8.78-3.4,3.33-.18,6.58,1.05,8.94,3.4,2.21,2.38,3.37,5.54,3.24,8.79.14,3.34-1.09,6.6-3.4,9.02-2.41,2.38-5.71,3.64-9.09,3.48M165.14,176.13v-72.38c0-.95.42-1.42,1.27-1.42h17.98c.84,0,1.27.48,1.27,1.42v72.38c0,1.06-.42,1.59-1.27,1.58h-17.82c-.95,0-1.43-.53-1.42-1.58"/>
      </g>
    </g>
  </g>
</svg>