<svg width="4001" height="4213" viewBox="0 0 4001 4213" fill="none" xmlns="http://www.w3.org/2000/svg">
<g clip-path="url(#clip0_2085_705)">
<path d="M4001 0.117188H0V4213H4001V0.117188Z" fill="#FFF7F5"/>
<path d="M285.784 0H0V300.917H285.784V0Z" fill="white"/>
<path d="M571.568 0H285.784V300.917H571.568V0Z" fill="#FFF7F5"/>
<path d="M285.784 300.918H0V601.835H285.784V300.918Z" fill="#FFF7F5"/>
<path d="M571.568 300.918H285.784V601.835H571.568V300.918Z" fill="white"/>
<path d="M857.353 0H571.568V300.917H857.353V0Z" fill="white"/>
<path d="M1143.14 0H857.353V300.917H1143.14V0Z" fill="#FFF7F5"/>
<path d="M857.353 300.918H571.568V601.835H857.353V300.918Z" fill="#FFF7F5"/>
<path d="M1143.14 300.918H857.353V601.835H1143.14V300.918Z" fill="white"/>
<path d="M1428.93 0H1143.15V300.917H1428.93V0Z" fill="white"/>
<path d="M1714.72 0H1428.93V300.917H1714.72V0Z" fill="#FFF7F5"/>
<path d="M1428.93 300.918H1143.15V601.835H1428.93V300.918Z" fill="#FFF7F5"/>
<path d="M1714.72 300.918H1428.93V601.835H1714.72V300.918Z" fill="white"/>
<path d="M2000.5 0H1714.72V300.917H2000.5V0Z" fill="white"/>
<path d="M2286.28 0H2000.5V300.917H2286.28V0Z" fill="#FFF7F5"/>
<path d="M2000.5 300.918H1714.72V601.835H2000.5V300.918Z" fill="#FFF7F5"/>
<path d="M2286.28 300.918H2000.5V601.835H2286.28V300.918Z" fill="white"/>
<path d="M2572.07 0H2286.28V300.917H2572.07V0Z" fill="white"/>
<path d="M2857.85 0H2572.07V300.917H2857.85V0Z" fill="#FFF7F5"/>
<path d="M2572.07 300.918H2286.28V601.835H2572.07V300.918Z" fill="#FFF7F5"/>
<path d="M2857.85 300.918H2572.07V601.835H2857.85V300.918Z" fill="white"/>
<path d="M3143.65 0H2857.86V300.917H3143.65V0Z" fill="white"/>
<path d="M3429.43 0H3143.65V300.917H3429.43V0Z" fill="#FFF7F5"/>
<path d="M3143.65 300.918H2857.86V601.835H3143.65V300.918Z" fill="#FFF7F5"/>
<path d="M3429.43 300.918H3143.65V601.835H3429.43V300.918Z" fill="white"/>
<path d="M3715.22 0H3429.43V300.917H3715.22V0Z" fill="white"/>
<path d="M4001 0H3715.22V300.917H4001V0Z" fill="#FFF7F5"/>
<path d="M3715.22 300.918H3429.43V601.835H3715.22V300.918Z" fill="#FFF7F5"/>
<path d="M4001 300.918H3715.22V601.835H4001V300.918Z" fill="white"/>
<path d="M285.784 601.602H0V902.518H285.784V601.602Z" fill="white"/>
<path d="M571.568 601.602H285.784V902.518H571.568V601.602Z" fill="#FFF7F5"/>
<path d="M285.784 902.52H0V1203.44H285.784V902.52Z" fill="#FFF7F5"/>
<path d="M571.568 902.52H285.784V1203.44H571.568V902.52Z" fill="white"/>
<path d="M857.353 601.602H571.568V902.518H857.353V601.602Z" fill="white"/>
<path d="M1143.14 601.602H857.353V902.518H1143.14V601.602Z" fill="#FFF7F5"/>
<path d="M857.353 902.52H571.568V1203.44H857.353V902.52Z" fill="#FFF7F5"/>
<path d="M1143.14 902.52H857.353V1203.44H1143.14V902.52Z" fill="white"/>
<path d="M1428.93 601.602H1143.15V902.518H1428.93V601.602Z" fill="white"/>
<path d="M1714.72 601.602H1428.93V902.518H1714.72V601.602Z" fill="#FFF7F5"/>
<path d="M1428.93 902.52H1143.15V1203.44H1428.93V902.52Z" fill="#FFF7F5"/>
<path d="M1714.72 902.52H1428.93V1203.44H1714.72V902.52Z" fill="white"/>
<path d="M2000.5 601.602H1714.72V902.518H2000.5V601.602Z" fill="white"/>
<path d="M2286.28 601.602H2000.5V902.518H2286.28V601.602Z" fill="#FFF7F5"/>
<path d="M2000.5 902.52H1714.72V1203.44H2000.5V902.52Z" fill="#FFF7F5"/>
<path d="M2286.28 902.52H2000.5V1203.44H2286.28V902.52Z" fill="white"/>
<path d="M2572.07 601.602H2286.28V902.518H2572.07V601.602Z" fill="white"/>
<path d="M2857.85 601.602H2572.07V902.518H2857.85V601.602Z" fill="#FFF7F5"/>
<path d="M2572.07 902.52H2286.28V1203.44H2572.07V902.52Z" fill="#FFF7F5"/>
<path d="M2857.85 902.52H2572.07V1203.44H2857.85V902.52Z" fill="white"/>
<path d="M3143.65 601.602H2857.86V902.518H3143.65V601.602Z" fill="white"/>
<path d="M3429.43 601.602H3143.65V902.518H3429.43V601.602Z" fill="#FFF7F5"/>
<path d="M3143.65 902.52H2857.86V1203.44H3143.65V902.52Z" fill="#FFF7F5"/>
<path d="M3429.43 902.52H3143.65V1203.44H3429.43V902.52Z" fill="white"/>
<path d="M3715.22 601.602H3429.43V902.518H3715.22V601.602Z" fill="white"/>
<path d="M4001 601.602H3715.22V902.518H4001V601.602Z" fill="#FFF7F5"/>
<path d="M3715.22 902.52H3429.43V1203.44H3715.22V902.52Z" fill="#FFF7F5"/>
<path d="M4001 902.52H3715.22V1203.44H4001V902.52Z" fill="white"/>
<path d="M285.784 1203.2H0V1504.12H285.784V1203.2Z" fill="white"/>
<path d="M571.568 1203.2H285.784V1504.12H571.568V1203.2Z" fill="#FFF7F5"/>
<path d="M285.784 1504.12H0V1805.04H285.784V1504.12Z" fill="#FFF7F5"/>
<path d="M571.568 1504.12H285.784V1805.04H571.568V1504.12Z" fill="white"/>
<path d="M857.353 1203.2H571.568V1504.12H857.353V1203.2Z" fill="white"/>
<path d="M1143.14 1203.2H857.353V1504.12H1143.14V1203.2Z" fill="#FFF7F5"/>
<path d="M857.353 1504.12H571.568V1805.04H857.353V1504.12Z" fill="#FFF7F5"/>
<path d="M1143.14 1504.12H857.353V1805.04H1143.14V1504.12Z" fill="white"/>
<path d="M1428.93 1203.2H1143.15V1504.12H1428.93V1203.2Z" fill="white"/>
<path d="M1714.72 1203.2H1428.93V1504.12H1714.72V1203.2Z" fill="#FFF7F5"/>
<path d="M1428.93 1504.12H1143.15V1805.04H1428.93V1504.12Z" fill="#FFF7F5"/>
<path d="M1714.72 1504.12H1428.93V1805.04H1714.72V1504.12Z" fill="white"/>
<path d="M2000.5 1203.2H1714.72V1504.12H2000.5V1203.2Z" fill="white"/>
<path d="M2286.28 1203.2H2000.5V1504.12H2286.28V1203.2Z" fill="#FFF7F5"/>
<path d="M2000.5 1504.12H1714.72V1805.04H2000.5V1504.12Z" fill="#FFF7F5"/>
<path d="M2286.28 1504.12H2000.5V1805.04H2286.28V1504.12Z" fill="white"/>
<path d="M2572.07 1203.2H2286.28V1504.12H2572.07V1203.2Z" fill="white"/>
<path d="M2857.85 1203.2H2572.07V1504.12H2857.85V1203.2Z" fill="#FFF7F5"/>
<path d="M2572.07 1504.12H2286.28V1805.04H2572.07V1504.12Z" fill="#FFF7F5"/>
<path d="M2857.85 1504.12H2572.07V1805.04H2857.85V1504.12Z" fill="white"/>
<path d="M3143.65 1203.2H2857.86V1504.12H3143.65V1203.2Z" fill="white"/>
<path d="M3429.43 1203.2H3143.65V1504.12H3429.43V1203.2Z" fill="#FFF7F5"/>
<path d="M3143.65 1504.12H2857.86V1805.04H3143.65V1504.12Z" fill="#FFF7F5"/>
<path d="M3429.43 1504.12H3143.65V1805.04H3429.43V1504.12Z" fill="white"/>
<path d="M3715.22 1203.2H3429.43V1504.12H3715.22V1203.2Z" fill="white"/>
<path d="M4001 1203.2H3715.22V1504.12H4001V1203.2Z" fill="#FFF7F5"/>
<path d="M3715.22 1504.12H3429.43V1805.04H3715.22V1504.12Z" fill="#FFF7F5"/>
<path d="M4001 1504.12H3715.22V1805.04H4001V1504.12Z" fill="white"/>
<path d="M285.784 1804.79H0V2105.71H285.784V1804.79Z" fill="white"/>
<path d="M571.568 1804.79H285.784V2105.71H571.568V1804.79Z" fill="#FFF7F5"/>
<path d="M285.784 2105.72H0V2406.64H285.784V2105.72Z" fill="#FFF7F5"/>
<path d="M571.568 2105.72H285.784V2406.64H571.568V2105.72Z" fill="white"/>
<path d="M857.353 1804.79H571.568V2105.71H857.353V1804.79Z" fill="white"/>
<path d="M1143.14 1804.79H857.353V2105.71H1143.14V1804.79Z" fill="#FFF7F5"/>
<path d="M857.353 2105.72H571.568V2406.64H857.353V2105.72Z" fill="#FFF7F5"/>
<path d="M1143.14 2105.72H857.353V2406.64H1143.14V2105.72Z" fill="white"/>
<path d="M1428.93 1804.79H1143.15V2105.71H1428.93V1804.79Z" fill="white"/>
<path d="M1714.72 1804.79H1428.93V2105.71H1714.72V1804.79Z" fill="#FFF7F5"/>
<path d="M1428.93 2105.72H1143.15V2406.64H1428.93V2105.72Z" fill="#FFF7F5"/>
<path d="M1714.72 2105.72H1428.93V2406.64H1714.72V2105.72Z" fill="white"/>
<path d="M2000.5 1804.79H1714.72V2105.71H2000.5V1804.79Z" fill="white"/>
<path d="M2286.28 1804.79H2000.5V2105.71H2286.28V1804.79Z" fill="#FFF7F5"/>
<path d="M2000.5 2105.72H1714.72V2406.64H2000.5V2105.72Z" fill="#FFF7F5"/>
<path d="M2286.28 2105.72H2000.5V2406.64H2286.28V2105.72Z" fill="white"/>
<path d="M2572.07 1804.79H2286.28V2105.71H2572.07V1804.79Z" fill="white"/>
<path d="M2857.85 1804.79H2572.07V2105.71H2857.85V1804.79Z" fill="#FFF7F5"/>
<path d="M2572.07 2105.72H2286.28V2406.64H2572.07V2105.72Z" fill="#FFF7F5"/>
<path d="M2857.85 2105.72H2572.07V2406.64H2857.85V2105.72Z" fill="white"/>
<path d="M3143.65 1804.79H2857.86V2105.71H3143.65V1804.79Z" fill="white"/>
<path d="M3429.43 1804.79H3143.65V2105.71H3429.43V1804.79Z" fill="#FFF7F5"/>
<path d="M3143.65 2105.72H2857.86V2406.64H3143.65V2105.72Z" fill="#FFF7F5"/>
<path d="M3429.43 2105.72H3143.65V2406.64H3429.43V2105.72Z" fill="white"/>
<path d="M3715.22 1804.79H3429.43V2105.71H3715.22V1804.79Z" fill="white"/>
<path d="M4001 1804.79H3715.22V2105.71H4001V1804.79Z" fill="#FFF7F5"/>
<path d="M3715.22 2105.72H3429.43V2406.64H3715.22V2105.72Z" fill="#FFF7F5"/>
<path d="M4001 2105.72H3715.22V2406.64H4001V2105.72Z" fill="white"/>
<path d="M285.784 2406.39H0V2707.31H285.784V2406.39Z" fill="white"/>
<path d="M571.568 2406.39H285.784V2707.31H571.568V2406.39Z" fill="#FFF7F5"/>
<path d="M285.784 2707.32H0V3008.24H285.784V2707.32Z" fill="#FFF7F5"/>
<path d="M571.568 2707.32H285.784V3008.24H571.568V2707.32Z" fill="white"/>
<path d="M857.353 2406.39H571.568V2707.31H857.353V2406.39Z" fill="white"/>
<path d="M1143.14 2406.39H857.353V2707.31H1143.14V2406.39Z" fill="#FFF7F5"/>
<path d="M857.353 2707.32H571.568V3008.24H857.353V2707.32Z" fill="#FFF7F5"/>
<path d="M1143.14 2707.32H857.353V3008.24H1143.14V2707.32Z" fill="white"/>
<path d="M1428.93 2406.39H1143.15V2707.31H1428.93V2406.39Z" fill="white"/>
<path d="M1714.72 2406.39H1428.93V2707.31H1714.72V2406.39Z" fill="#FFF7F5"/>
<path d="M1428.93 2707.32H1143.15V3008.24H1428.93V2707.32Z" fill="#FFF7F5"/>
<path d="M1714.72 2707.32H1428.93V3008.24H1714.72V2707.32Z" fill="white"/>
<path d="M2000.5 2406.39H1714.72V2707.31H2000.5V2406.39Z" fill="white"/>
<path d="M2286.28 2406.39H2000.5V2707.31H2286.28V2406.39Z" fill="#FFF7F5"/>
<path d="M2000.5 2707.32H1714.72V3008.24H2000.5V2707.32Z" fill="#FFF7F5"/>
<path d="M2286.28 2707.32H2000.5V3008.24H2286.28V2707.32Z" fill="white"/>
<path d="M2572.07 2406.39H2286.28V2707.31H2572.07V2406.39Z" fill="white"/>
<path d="M2857.85 2406.39H2572.07V2707.31H2857.85V2406.39Z" fill="#FFF7F5"/>
<path d="M2572.07 2707.32H2286.28V3008.24H2572.07V2707.32Z" fill="#FFF7F5"/>
<path d="M2857.85 2707.32H2572.07V3008.24H2857.85V2707.32Z" fill="white"/>
<path d="M3143.65 2406.39H2857.86V2707.31H3143.65V2406.39Z" fill="white"/>
<path d="M3429.43 2406.39H3143.65V2707.31H3429.43V2406.39Z" fill="#FFF7F5"/>
<path d="M3143.65 2707.32H2857.86V3008.24H3143.65V2707.32Z" fill="#FFF7F5"/>
<path d="M3429.43 2707.32H3143.65V3008.24H3429.43V2707.32Z" fill="white"/>
<path d="M3715.22 2406.39H3429.43V2707.31H3715.22V2406.39Z" fill="white"/>
<path d="M4001 2406.39H3715.22V2707.31H4001V2406.39Z" fill="#FFF7F5"/>
<path d="M3715.22 2707.32H3429.43V3008.24H3715.22V2707.32Z" fill="#FFF7F5"/>
<path d="M4001 2707.32H3715.22V3008.24H4001V2707.32Z" fill="white"/>
<path d="M285.784 3008H0V3308.91H285.784V3008Z" fill="white"/>
<path d="M571.568 3008H285.784V3308.91H571.568V3008Z" fill="#FFF7F5"/>
<path d="M285.784 3308.91H0V3609.83H285.784V3308.91Z" fill="#FFF7F5"/>
<path d="M571.568 3308.91H285.784V3609.83H571.568V3308.91Z" fill="white"/>
<path d="M857.353 3008H571.568V3308.91H857.353V3008Z" fill="white"/>
<path d="M1143.14 3008H857.353V3308.91H1143.14V3008Z" fill="#FFF7F5"/>
<path d="M857.353 3308.91H571.568V3609.83H857.353V3308.91Z" fill="#FFF7F5"/>
<path d="M1143.14 3308.91H857.353V3609.83H1143.14V3308.91Z" fill="white"/>
<path d="M1428.93 3008H1143.15V3308.91H1428.93V3008Z" fill="white"/>
<path d="M1714.72 3008H1428.93V3308.91H1714.72V3008Z" fill="#FFF7F5"/>
<path d="M1428.93 3308.91H1143.15V3609.83H1428.93V3308.91Z" fill="#FFF7F5"/>
<path d="M1714.72 3308.91H1428.93V3609.83H1714.72V3308.91Z" fill="white"/>
<path d="M2000.5 3008H1714.72V3308.91H2000.5V3008Z" fill="white"/>
<path d="M2286.28 3008H2000.5V3308.91H2286.28V3008Z" fill="#FFF7F5"/>
<path d="M2000.5 3308.91H1714.72V3609.83H2000.5V3308.91Z" fill="#FFF7F5"/>
<path d="M2286.28 3308.91H2000.5V3609.83H2286.28V3308.91Z" fill="white"/>
<path d="M2572.07 3008H2286.28V3308.91H2572.07V3008Z" fill="white"/>
<path d="M2857.85 3008H2572.07V3308.91H2857.85V3008Z" fill="#FFF7F5"/>
<path d="M2572.07 3308.91H2286.28V3609.83H2572.07V3308.91Z" fill="#FFF7F5"/>
<path d="M2857.85 3308.91H2572.07V3609.83H2857.85V3308.91Z" fill="white"/>
<path d="M3143.65 3008H2857.86V3308.91H3143.65V3008Z" fill="white"/>
<path d="M3429.43 3008H3143.65V3308.91H3429.43V3008Z" fill="#FFF7F5"/>
<path d="M3143.65 3308.91H2857.86V3609.83H3143.65V3308.91Z" fill="#FFF7F5"/>
<path d="M3429.43 3308.91H3143.65V3609.83H3429.43V3308.91Z" fill="white"/>
<path d="M3715.22 3008H3429.43V3308.91H3715.22V3008Z" fill="white"/>
<path d="M4001 3008H3715.22V3308.91H4001V3008Z" fill="#FFF7F5"/>
<path d="M3715.22 3308.91H3429.43V3609.83H3715.22V3308.91Z" fill="#FFF7F5"/>
<path d="M4001 3308.91H3715.22V3609.83H4001V3308.91Z" fill="white"/>
<path d="M285.784 3609.6H0V3910.51H285.784V3609.6Z" fill="white"/>
<path d="M571.568 3609.6H285.784V3910.51H571.568V3609.6Z" fill="#FFF7F5"/>
<path d="M285.784 3910.52H0V4211.43H285.784V3910.52Z" fill="#FFF7F5"/>
<path d="M571.568 3910.52H285.784V4211.43H571.568V3910.52Z" fill="white"/>
<path d="M857.353 3609.6H571.568V3910.51H857.353V3609.6Z" fill="white"/>
<path d="M1143.14 3609.6H857.353V3910.51H1143.14V3609.6Z" fill="#FFF7F5"/>
<path d="M857.353 3910.52H571.568V4211.43H857.353V3910.52Z" fill="#FFF7F5"/>
<path d="M1143.14 3910.52H857.353V4211.43H1143.14V3910.52Z" fill="white"/>
<path d="M1428.93 3609.6H1143.15V3910.51H1428.93V3609.6Z" fill="white"/>
<path d="M1714.72 3609.6H1428.93V3910.51H1714.72V3609.6Z" fill="#FFF7F5"/>
<path d="M1428.93 3910.52H1143.15V4211.43H1428.93V3910.52Z" fill="#FFF7F5"/>
<path d="M1714.72 3910.52H1428.93V4211.43H1714.72V3910.52Z" fill="white"/>
<path d="M2000.5 3609.6H1714.72V3910.51H2000.5V3609.6Z" fill="white"/>
<path d="M2286.28 3609.6H2000.5V3910.51H2286.28V3609.6Z" fill="#FFF7F5"/>
<path d="M2000.5 3910.52H1714.72V4211.43H2000.5V3910.52Z" fill="#FFF7F5"/>
<path d="M2286.28 3910.52H2000.5V4211.43H2286.28V3910.52Z" fill="white"/>
<path d="M2572.07 3609.6H2286.28V3910.51H2572.07V3609.6Z" fill="white"/>
<path d="M2857.85 3609.6H2572.07V3910.51H2857.85V3609.6Z" fill="#FFF7F5"/>
<path d="M2572.07 3910.52H2286.28V4211.43H2572.07V3910.52Z" fill="#FFF7F5"/>
<path d="M2857.85 3910.52H2572.07V4211.43H2857.85V3910.52Z" fill="white"/>
<path d="M3143.65 3609.6H2857.86V3910.51H3143.65V3609.6Z" fill="white"/>
<path d="M3429.43 3609.6H3143.65V3910.51H3429.43V3609.6Z" fill="#FFF7F5"/>
<path d="M3143.65 3910.52H2857.86V4211.43H3143.65V3910.52Z" fill="#FFF7F5"/>
<path d="M3429.43 3910.52H3143.65V4211.43H3429.43V3910.52Z" fill="white"/>
<path d="M3715.22 3609.6H3429.43V3910.51H3715.22V3609.6Z" fill="white"/>
<path d="M4001 3609.6H3715.22V3910.51H4001V3609.6Z" fill="#FFF7F5"/>
<path d="M3715.22 3910.52H3429.43V4211.43H3715.22V3910.52Z" fill="#FFF7F5"/>
<path d="M4001 3910.52H3715.22V4211.43H4001V3910.52Z" fill="white"/>
</g>
<defs>
<clipPath id="clip0_2085_705">
<rect width="4001" height="4213" fill="white"/>
</clipPath>
</defs>
</svg>
