<svg width="220" height="180" viewBox="0 0 220 180" fill="none" xmlns="http://www.w3.org/2000/svg">
<g clip-path="url(#clip0_1546_1316)">
<path d="M160 105H140V120H160V105Z" fill="#FEE6BD"/>
<path d="M80 105H60V120H80V105Z" fill="#FEE6BD"/>
<path d="M160 120H140V135H160V120Z" fill="#FEE6BD"/>
<path d="M80 120H60V135H80V120Z" fill="#FEE6BD"/>
<path d="M100 105H80V120H100V105Z" fill="#FEE6BD"/>
<path d="M120 105H100V120H120V105Z" fill="black"/>
<path d="M120 60H100V75H120V60Z" fill="#FEE6BD"/>
<path d="M140 105H120V120H140V105Z" fill="#FEE6BD"/>
<path d="M220 90H200V105H220V90Z" fill="black"/>
<path d="M160 60H140V75H160V60Z" fill="#FEE6BD"/>
<path d="M140 60H120V75H140V60Z" fill="#FEE6BD"/>
<path d="M100 60H80V75H100V60Z" fill="#FEE6BD"/>
<path d="M80 60H60V75H80V60Z" fill="#FEE6BD"/>
<path d="M20 90H0V105H20V90Z" fill="black"/>
<path d="M220 135H200V150H220V135Z" fill="black"/>
<path d="M20 135H0V150H20V135Z" fill="black"/>
<path d="M220 150H200V165H220V150Z" fill="black"/>
<path d="M20 150H0V165H20V150Z" fill="black"/>
<path d="M220 165H200V180H220V165Z" fill="black"/>
<path d="M20 165H0V180H20V165Z" fill="black"/>
<path d="M220 75H200V90H220V75Z" fill="black"/>
<path d="M160 45H140V60H160V45Z" fill="#FEE6BD"/>
<path d="M140 45H120V60H140V45Z" fill="#FEE6BD"/>
<path d="M120 45H100V60H120V45Z" fill="#FEE6BD"/>
<path d="M100 45H80V60H100V45Z" fill="#FEE6BD"/>
<path d="M80 45H60V60H80V45Z" fill="#FEE6BD"/>
<path d="M20 75H0V90H20V75Z" fill="black"/>
<path d="M120 90H100V105H120V90Z" fill="#FEE6BD"/>
<path d="M220 120H200V135H220V120Z" fill="black"/>
<path d="M160 90H140V105H160V90Z" fill="#FEE6BD"/>
<path d="M140 90H120V105H140V90Z" fill="#FEE6BD"/>
<path d="M100 90H80V105H100V90Z" fill="#FEE6BD"/>
<path d="M80 90H60V105H80V90Z" fill="#FEE6BD"/>
<path d="M20 120H0V135H20V120Z" fill="black"/>
<path d="M220 105H200V120H220V105Z" fill="black"/>
<path d="M160 75H140V90H160V75Z" fill="#FEE6BD"/>
<path d="M140 75H120V90H140V75Z" fill="#FEE6BD"/>
<path d="M120 75H100V90H120V75Z" fill="#FEE6BD"/>
<path d="M100 75H80V90H100V75Z" fill="#FEE6BD"/>
<path d="M80 75H60V90H80V75Z" fill="#FEE6BD"/>
<path d="M20 105H0V120H20V105Z" fill="black"/>
<path d="M160 30H140V45H160V30Z" fill="black"/>
<path d="M140 30H120V45H140V30Z" fill="#FEE6BD"/>
<path d="M120 30H100V45H120V30Z" fill="#FEE6BD"/>
<path d="M100 30H80V45H100V30Z" fill="#FEE6BD"/>
<path d="M80 30H60V45H80V30Z" fill="black"/>
<path d="M140 15H120V30H140V15Z" fill="black"/>
<path d="M120 15H100V30H120V15Z" fill="#FEE6BD"/>
<path d="M100 15H80V30H100V15Z" fill="black"/>
<path d="M120 0H100V15H120V0Z" fill="black"/>
<path d="M160 135H140V150H160V135Z" fill="black"/>
<path d="M80 135H60V150H80V135Z" fill="black"/>
<path d="M60 120H40V135H60V120Z" fill="#FEE6BD"/>
<path d="M60 135H40V150H60V135Z" fill="#FEE6BD"/>
<path d="M60 75H40V90H60V75Z" fill="#FEE6BD"/>
<path d="M60 60H40V75H60V60Z" fill="#FEE6BD"/>
<path d="M60 105H40V120H60V105Z" fill="#FEE6BD"/>
<path d="M60 90H40V105H60V90Z" fill="#FEE6BD"/>
<path d="M60 45H40V60H60V45Z" fill="black"/>
<path d="M60 150H40V165H60V150Z" fill="black"/>
<path d="M40 135H20V150H40V135Z" fill="#FEE6BD"/>
<path d="M40 150H20V165H40V150Z" fill="#FEE6BD"/>
<path d="M40 90H20V105H40V90Z" fill="#FEE6BD"/>
<path d="M40 75H20V90H40V75Z" fill="#FEE6BD"/>
<path d="M40 120H20V135H40V120Z" fill="#FEE6BD"/>
<path d="M40 105H20V120H40V105Z" fill="#FEE6BD"/>
<path d="M40 60H20V75H40V60Z" fill="black"/>
<path d="M40 165H20V180H40V165Z" fill="black"/>
<path d="M140 120H120V135H140V120Z" fill="black"/>
<path d="M200 135H180V150H200V135Z" fill="#FEE6BD"/>
<path d="M200 150H180V165H200V150Z" fill="#FEE6BD"/>
<path d="M180 135H160V150H180V135Z" fill="#FEE6BD"/>
<path d="M200 90H180V105H200V90Z" fill="#FEE6BD"/>
<path d="M180 90H160V105H180V90Z" fill="#FEE6BD"/>
<path d="M200 75H180V90H200V75Z" fill="#FEE6BD"/>
<path d="M180 75H160V90H180V75Z" fill="#FEE6BD"/>
<path d="M200 120H180V135H200V120Z" fill="#FEE6BD"/>
<path d="M180 120H160V135H180V120Z" fill="#FEE6BD"/>
<path d="M200 105H180V120H200V105Z" fill="#FEE6BD"/>
<path d="M180 105H160V120H180V105Z" fill="#FEE6BD"/>
<path d="M200 60H180V75H200V60Z" fill="black"/>
<path d="M180 60H160V75H180V60Z" fill="#FEE6BD"/>
<path d="M180 45H160V60H180V45Z" fill="black"/>
<path d="M200 165H180V180H200V165Z" fill="black"/>
<path d="M180 150H160V165H180V150Z" fill="black"/>
<path d="M100 120H80V135H100V120Z" fill="black"/>
</g>
<defs>
<clipPath id="clip0_1546_1316">
<rect width="220" height="180" fill="white"/>
</clipPath>
</defs>
</svg>
