<svg width="433" height="266" viewBox="0 0 433 266" fill="none" xmlns="http://www.w3.org/2000/svg">
<rect x="52.5" y="2" width="91" height="29" rx="14.5" fill="#B0B0B0"/>
<path d="M74.1378 22V10.3636H78.3991C79.2249 10.3636 79.9086 10.5 80.4503 10.7727C80.992 11.0417 81.3973 11.4072 81.6662 11.8693C81.9351 12.3277 82.0696 12.8447 82.0696 13.4205C82.0696 13.9053 81.9806 14.3144 81.8026 14.6477C81.6245 14.9773 81.3859 15.2424 81.0866 15.4432C80.7912 15.6402 80.4654 15.7841 80.1094 15.875V15.9886C80.4957 16.0076 80.8726 16.1326 81.2401 16.3636C81.6113 16.5909 81.9181 16.9148 82.1605 17.3352C82.4029 17.7557 82.5241 18.267 82.5241 18.8693C82.5241 19.464 82.384 19.9981 82.1037 20.4716C81.8272 20.9413 81.3991 21.3144 80.8196 21.5909C80.2401 21.8636 79.4995 22 78.598 22H74.1378ZM75.8935 20.4943H78.4276C79.2685 20.4943 79.8707 20.3314 80.2344 20.0057C80.598 19.6799 80.7798 19.2727 80.7798 18.7841C80.7798 18.4167 80.687 18.0795 80.5014 17.7727C80.3158 17.4659 80.0507 17.2216 79.706 17.0398C79.3651 16.858 78.9598 16.767 78.4901 16.767H75.8935V20.4943ZM75.8935 15.3977H78.2457C78.6397 15.3977 78.9938 15.322 79.3082 15.1705C79.6264 15.0189 79.8783 14.8068 80.0639 14.5341C80.2533 14.2576 80.348 13.9318 80.348 13.5568C80.348 13.0758 80.1795 12.6723 79.8423 12.3466C79.5052 12.0208 78.9882 11.858 78.2912 11.858H75.8935V15.3977ZM88.2315 22.1761C87.3717 22.1761 86.6312 21.9924 86.0099 21.625C85.3925 21.2538 84.9152 20.733 84.5781 20.0625C84.2448 19.3883 84.0781 18.5985 84.0781 17.6932C84.0781 16.7992 84.2448 16.0114 84.5781 15.3295C84.9152 14.6477 85.3849 14.1155 85.9872 13.733C86.5933 13.3504 87.3016 13.1591 88.1122 13.1591C88.6046 13.1591 89.0819 13.2405 89.544 13.4034C90.0062 13.5663 90.4209 13.822 90.7884 14.1705C91.1558 14.5189 91.4455 14.9716 91.6577 15.5284C91.8698 16.0814 91.9759 16.7538 91.9759 17.5455V18.1477H85.0384V16.875H90.3111C90.3111 16.428 90.2202 16.0322 90.0384 15.6875C89.8565 15.339 89.6009 15.0644 89.2713 14.8636C88.9455 14.6629 88.563 14.5625 88.1236 14.5625C87.6463 14.5625 87.2296 14.6799 86.8736 14.9148C86.5213 15.1458 86.2486 15.4489 86.0554 15.8239C85.866 16.1951 85.7713 16.5985 85.7713 17.0341V18.0284C85.7713 18.6117 85.8736 19.108 86.0781 19.517C86.2865 19.9261 86.5762 20.2386 86.9474 20.4545C87.3187 20.6667 87.7524 20.7727 88.2486 20.7727C88.5705 20.7727 88.8641 20.7273 89.1293 20.6364C89.3944 20.5417 89.6236 20.4015 89.8168 20.2159C90.0099 20.0303 90.1577 19.8011 90.2599 19.5284L91.8679 19.8182C91.7391 20.2917 91.508 20.7064 91.1747 21.0625C90.8452 21.4148 90.4304 21.6894 89.9304 21.8864C89.4342 22.0795 88.8679 22.1761 88.2315 22.1761ZM98.0142 13.2727V14.6364H93.0824V13.2727H98.0142ZM94.4347 22V12.2614C94.4347 11.7159 94.554 11.2633 94.7926 10.9034C95.0313 10.5398 95.3475 10.2689 95.7415 10.0909C96.1354 9.90909 96.5634 9.81818 97.0256 9.81818C97.3665 9.81818 97.6581 9.84659 97.9006 9.90341C98.143 9.95644 98.3229 10.0057 98.4403 10.0511L98.0426 11.4261C97.9631 11.4034 97.8608 11.3769 97.7358 11.3466C97.6108 11.3125 97.4593 11.2955 97.2812 11.2955C96.8684 11.2955 96.5729 11.3977 96.3949 11.6023C96.2206 11.8068 96.1335 12.1023 96.1335 12.4886V22H94.4347ZM103.099 22.1761C102.281 22.1761 101.567 21.9886 100.957 21.6136C100.348 21.2386 99.8741 20.714 99.5369 20.0398C99.1998 19.3655 99.0312 18.5777 99.0312 17.6761C99.0312 16.7708 99.1998 15.9792 99.5369 15.3011C99.8741 14.6231 100.348 14.0966 100.957 13.7216C101.567 13.3466 102.281 13.1591 103.099 13.1591C103.918 13.1591 104.632 13.3466 105.241 13.7216C105.851 14.0966 106.325 14.6231 106.662 15.3011C106.999 15.9792 107.168 16.7708 107.168 17.6761C107.168 18.5777 106.999 19.3655 106.662 20.0398C106.325 20.714 105.851 21.2386 105.241 21.6136C104.632 21.9886 103.918 22.1761 103.099 22.1761ZM103.105 20.75C103.635 20.75 104.075 20.6098 104.423 20.3295C104.772 20.0492 105.029 19.6761 105.196 19.2102C105.366 18.7443 105.452 18.2311 105.452 17.6705C105.452 17.1136 105.366 16.6023 105.196 16.1364C105.029 15.6667 104.772 15.2898 104.423 15.0057C104.075 14.7216 103.635 14.5795 103.105 14.5795C102.571 14.5795 102.128 14.7216 101.776 15.0057C101.427 15.2898 101.168 15.6667 100.997 16.1364C100.83 16.6023 100.747 17.1136 100.747 17.6705C100.747 18.2311 100.83 18.7443 100.997 19.2102C101.168 19.6761 101.427 20.0492 101.776 20.3295C102.128 20.6098 102.571 20.75 103.105 20.75ZM109.064 22V13.2727H110.706V14.6591H110.797C110.956 14.1894 111.236 13.8201 111.638 13.5511C112.043 13.2784 112.501 13.142 113.013 13.142C113.119 13.142 113.244 13.1458 113.388 13.1534C113.536 13.161 113.651 13.1705 113.734 13.1818V14.8068C113.666 14.7879 113.545 14.767 113.371 14.7443C113.196 14.7178 113.022 14.7045 112.848 14.7045C112.446 14.7045 112.089 14.7898 111.774 14.9602C111.464 15.1269 111.217 15.3598 111.036 15.6591C110.854 15.9545 110.763 16.2917 110.763 16.6705V22H109.064ZM118.653 22.1761C117.794 22.1761 117.053 21.9924 116.432 21.625C115.814 21.2538 115.337 20.733 115 20.0625C114.667 19.3883 114.5 18.5985 114.5 17.6932C114.5 16.7992 114.667 16.0114 115 15.3295C115.337 14.6477 115.807 14.1155 116.409 13.733C117.015 13.3504 117.723 13.1591 118.534 13.1591C119.027 13.1591 119.504 13.2405 119.966 13.4034C120.428 13.5663 120.843 13.822 121.21 14.1705C121.578 14.5189 121.867 14.9716 122.08 15.5284C122.292 16.0814 122.398 16.7538 122.398 17.5455V18.1477H115.46V16.875H120.733C120.733 16.428 120.642 16.0322 120.46 15.6875C120.278 15.339 120.023 15.0644 119.693 14.8636C119.367 14.6629 118.985 14.5625 118.545 14.5625C118.068 14.5625 117.652 14.6799 117.295 14.9148C116.943 15.1458 116.67 15.4489 116.477 15.8239C116.288 16.1951 116.193 16.5985 116.193 17.0341V18.0284C116.193 18.6117 116.295 19.108 116.5 19.517C116.708 19.9261 116.998 20.2386 117.369 20.4545C117.741 20.6667 118.174 20.7727 118.67 20.7727C118.992 20.7727 119.286 20.7273 119.551 20.6364C119.816 20.5417 120.045 20.4015 120.239 20.2159C120.432 20.0303 120.58 19.8011 120.682 19.5284L122.29 19.8182C122.161 20.2917 121.93 20.7064 121.597 21.0625C121.267 21.4148 120.852 21.6894 120.352 21.8864C119.856 22.0795 119.29 22.1761 118.653 22.1761Z" fill="white"/>
<g filter="url(#filter0_d_712_6531)">
<rect x="8" y="44" width="180" height="214" rx="20" fill="#FFFCF6" shape-rendering="crispEdges"/>
<path d="M35.344 82.248H31.504L30.608 85H28.368L32.4 73.8H34.48L38.496 85H36.256L35.344 82.248ZM34.784 80.536L33.456 76.552H33.36L32.064 80.536H34.784ZM43.3819 88.552C42.9872 88.552 42.6885 88.5253 42.4859 88.472C42.2832 88.4293 42.0805 88.3707 41.8779 88.296V86.52C41.9845 86.552 42.1552 86.584 42.3899 86.616C42.6352 86.6587 42.8699 86.68 43.0939 86.68C43.8405 86.68 44.3632 86.4667 44.6619 86.04C44.9712 85.624 45.1259 85.1013 45.1259 84.472V83.352H44.9979C44.8272 83.736 44.5285 84.0933 44.1019 84.424C43.6752 84.7547 43.1099 84.92 42.4059 84.92C41.7232 84.92 41.1312 84.744 40.6299 84.392C40.1285 84.0293 39.7445 83.528 39.4779 82.888C39.2112 82.2373 39.0779 81.4907 39.0779 80.648C39.0779 79.784 39.2112 79.032 39.4779 78.392C39.7445 77.7413 40.1285 77.24 40.6299 76.888C41.1419 76.5253 41.7392 76.344 42.4219 76.344C43.1365 76.344 43.7072 76.52 44.1339 76.872C44.5605 77.2133 44.8485 77.576 44.9979 77.96H45.1259V76.552H47.3499V84.472C47.3499 85.016 47.2485 85.592 47.0459 86.2C46.8539 86.8187 46.4645 87.3627 45.8779 87.832C45.2912 88.312 44.4592 88.552 43.3819 88.552ZM43.2379 83.128C43.8565 83.128 44.3259 82.8773 44.6459 82.376C44.9659 81.8747 45.1259 81.288 45.1259 80.616C45.1259 79.9547 44.9659 79.3787 44.6459 78.888C44.3365 78.3867 43.8672 78.136 43.2379 78.136C42.6085 78.136 42.1339 78.3867 41.8139 78.888C41.4939 79.3787 41.3339 79.9547 41.3339 80.616C41.3339 81.288 41.4885 81.8747 41.7979 82.376C42.1179 82.8773 42.5979 83.128 43.2379 83.128ZM53.1568 85.128C52.2714 85.128 51.5248 84.9253 50.9168 84.52C50.3088 84.104 49.8554 83.5653 49.5568 82.904C49.2688 82.232 49.1248 81.512 49.1248 80.744C49.1248 79.976 49.2688 79.2613 49.5568 78.6C49.8554 77.928 50.3088 77.384 50.9168 76.968C51.5248 76.552 52.2768 76.344 53.1727 76.344C54.3568 76.344 55.2954 76.7227 55.9888 77.48C56.6928 78.2373 57.0448 79.3307 57.0448 80.76V81.368H51.2528V81.496C51.2528 82.008 51.4288 82.4507 51.7808 82.824C52.1328 83.1867 52.5754 83.368 53.1088 83.368C53.5248 83.368 53.8768 83.272 54.1648 83.08C54.4528 82.888 54.6608 82.6267 54.7888 82.296H56.9648C56.7408 83.128 56.3034 83.8107 55.6528 84.344C55.0021 84.8667 54.1701 85.128 53.1568 85.128ZM54.9168 79.928C54.8954 79.256 54.7248 78.76 54.4048 78.44C54.0848 78.12 53.6634 77.96 53.1408 77.96C52.5861 77.96 52.1488 78.136 51.8288 78.488C51.5088 78.84 51.3381 79.32 51.3168 79.928H54.9168Z" fill="#754B37"/>
<rect x="28.5" y="109" width="14" height="14" rx="2.5" fill="white" stroke="#754B37"/>
<path opacity="0.8" d="M53.832 123.16C52.488 123.16 51.48 122.701 50.808 121.784C50.1467 120.856 49.816 119.656 49.816 118.184V116.52C49.816 115.048 50.1467 113.859 50.808 112.952C51.48 112.035 52.488 111.576 53.832 111.576C55.176 111.576 56.1787 112.035 56.84 112.952C57.5013 113.859 57.832 115.048 57.832 116.52V118.184C57.832 119.656 57.496 120.856 56.824 121.784C56.1627 122.701 55.1653 123.16 53.832 123.16ZM53.832 121.944C54.6427 121.944 55.2613 121.624 55.688 120.984C56.1253 120.344 56.344 119.395 56.344 118.136V116.584C56.344 115.325 56.1307 114.381 55.704 113.752C55.2773 113.112 54.6533 112.792 53.832 112.792C53.0107 112.792 52.3813 113.112 51.944 113.752C51.5173 114.381 51.304 115.325 51.304 116.584V118.136C51.304 119.395 51.5173 120.344 51.944 120.984C52.3813 121.624 53.0107 121.944 53.832 121.944ZM60.5595 117.432H66.4315V118.568H60.5595V117.432ZM75.5129 121.768V123H69.8329V121.768H72.1049V113.448H72.0409L69.8009 115.56V113.912L72.0409 111.8H73.4009V121.768H75.5129ZM84.067 123.016V118.952L80.419 111.8H81.923L84.707 117.4H84.819L87.587 111.8H89.091L85.459 118.952V123L84.067 123.016ZM92.8145 123.112C91.9505 123.112 91.2198 122.904 90.6225 122.488C90.0358 122.072 89.5985 121.528 89.3105 120.856C89.0225 120.184 88.8785 119.475 88.8785 118.728C88.8785 117.971 89.0225 117.261 89.3105 116.6C89.5985 115.928 90.0412 115.384 90.6385 114.968C91.2358 114.552 91.9665 114.344 92.8305 114.344C93.9612 114.344 94.8625 114.723 95.5345 115.48C96.2172 116.237 96.5585 117.325 96.5585 118.744V119.128H90.2545V119.24C90.2545 119.709 90.3612 120.152 90.5745 120.568C90.7878 120.984 91.0865 121.32 91.4705 121.576C91.8545 121.832 92.2972 121.96 92.7985 121.96C93.3425 121.96 93.8118 121.821 94.2065 121.544C94.6012 121.267 94.8945 120.893 95.0865 120.424H96.4465C96.2225 121.192 95.8012 121.832 95.1825 122.344C94.5745 122.856 93.7852 123.112 92.8145 123.112ZM95.1985 118.152C95.1558 117.192 94.9212 116.499 94.4945 116.072C94.0678 115.645 93.5078 115.432 92.8145 115.432C92.0572 115.432 91.4545 115.683 91.0065 116.184C90.5585 116.685 90.3185 117.341 90.2865 118.152H95.1985ZM101.679 123.112C100.932 123.112 100.292 122.92 99.7586 122.536C99.236 122.152 98.836 121.629 98.5586 120.968C98.2813 120.307 98.1426 119.56 98.1426 118.728C98.1426 117.896 98.2813 117.149 98.5586 116.488C98.8466 115.816 99.2573 115.293 99.7906 114.92C100.335 114.536 100.98 114.344 101.727 114.344C102.473 114.344 103.076 114.52 103.535 114.872C103.993 115.224 104.34 115.645 104.575 116.136H104.687V114.568H106.079V123H104.687V121.272H104.575C104.319 121.773 103.956 122.205 103.487 122.568C103.017 122.931 102.415 123.112 101.679 123.112ZM102.111 121.928C102.932 121.928 103.561 121.624 103.999 121.016C104.436 120.397 104.655 119.635 104.655 118.728C104.655 117.821 104.436 117.064 103.999 116.456C103.561 115.837 102.932 115.528 102.111 115.528C101.268 115.528 100.628 115.832 100.191 116.44C99.764 117.048 99.5506 117.805 99.5506 118.712C99.5506 119.629 99.764 120.397 100.191 121.016C100.628 121.624 101.268 121.928 102.111 121.928ZM108.449 114.568H109.825V115.912H109.921C110.059 115.539 110.305 115.224 110.657 114.968C111.019 114.701 111.473 114.568 112.016 114.568C112.187 114.568 112.321 114.579 112.417 114.6C112.523 114.611 112.641 114.637 112.769 114.68L112.721 116.024C112.55 115.971 112.401 115.933 112.273 115.912C112.155 115.891 112.001 115.88 111.809 115.88C110.486 115.88 109.825 116.664 109.825 118.232V123H108.449V114.568ZM117.08 123.112C116.397 123.112 115.805 122.979 115.304 122.712C114.803 122.435 114.419 122.083 114.152 121.656C113.896 121.229 113.768 120.781 113.768 120.312V120.232H115.144V120.296C115.144 120.563 115.219 120.829 115.368 121.096C115.517 121.352 115.741 121.565 116.04 121.736C116.339 121.896 116.701 121.976 117.128 121.976C117.64 121.976 118.061 121.853 118.392 121.608C118.733 121.352 118.904 121.005 118.904 120.568C118.904 120.205 118.771 119.917 118.504 119.704C118.248 119.491 117.923 119.352 117.528 119.288L116.424 119.128C115.731 119.021 115.149 118.787 114.68 118.424C114.211 118.051 113.976 117.512 113.976 116.808C113.976 116.029 114.253 115.427 114.808 115C115.373 114.563 116.093 114.344 116.968 114.344C117.619 114.344 118.173 114.467 118.632 114.712C119.101 114.947 119.459 115.261 119.704 115.656C119.949 116.04 120.072 116.461 120.072 116.92V116.984H118.696V116.952C118.696 116.739 118.637 116.515 118.52 116.28C118.413 116.045 118.227 115.843 117.96 115.672C117.693 115.501 117.352 115.416 116.936 115.416C116.424 115.416 116.013 115.544 115.704 115.8C115.395 116.045 115.24 116.371 115.24 116.776C115.24 117.107 115.363 117.379 115.608 117.592C115.853 117.805 116.163 117.944 116.536 118.008L117.736 118.2C118.44 118.317 119.032 118.563 119.512 118.936C119.992 119.299 120.232 119.837 120.232 120.552C120.232 121.064 120.093 121.512 119.816 121.896C119.549 122.28 119.176 122.579 118.696 122.792C118.216 123.005 117.677 123.112 117.08 123.112Z" fill="#754B37"/>
<rect x="28.5" y="145" width="14" height="14" rx="2.5" fill="white" stroke="#754B37"/>
<path opacity="0.8" d="M56.216 157.768V159H50.536V157.768H52.808V149.448H52.744L50.504 151.56V149.912L52.744 147.8H54.104V157.768H56.216ZM58.7626 153.432H64.6346V154.568H58.7626V153.432ZM71.348 159.128C70.196 159.128 69.3 158.851 68.66 158.296C68.0307 157.741 67.6413 157.059 67.492 156.248H68.884C69.0333 156.739 69.3107 157.133 69.716 157.432C70.132 157.731 70.6707 157.88 71.332 157.88C72.1213 157.88 72.7133 157.683 73.108 157.288C73.5133 156.893 73.716 156.397 73.716 155.8C73.716 155.139 73.4867 154.632 73.028 154.28C72.5693 153.928 72.004 153.752 71.332 153.752H70.276V152.648H71.268C71.908 152.648 72.452 152.499 72.9 152.2C73.348 151.901 73.572 151.416 73.572 150.744C73.572 150.125 73.364 149.635 72.948 149.272C72.532 148.909 71.9827 148.728 71.3 148.728C70.66 148.728 70.1533 148.877 69.78 149.176C69.4173 149.475 69.1827 149.864 69.076 150.344H67.732C67.86 149.576 68.2067 148.92 68.772 148.376C69.3373 147.821 70.1853 147.544 71.316 147.544C72.1267 147.544 72.804 147.693 73.348 147.992C73.892 148.291 74.292 148.68 74.548 149.16C74.804 149.629 74.932 150.136 74.932 150.68C74.932 151.256 74.804 151.731 74.548 152.104C74.292 152.467 74.0093 152.739 73.7 152.92C73.4013 153.091 73.1987 153.176 73.092 153.176V153.272C73.2307 153.283 73.4547 153.368 73.764 153.528C74.084 153.688 74.3773 153.965 74.644 154.36C74.9213 154.755 75.06 155.272 75.06 155.912C75.06 156.499 74.9267 157.037 74.66 157.528C74.3933 158.008 73.9773 158.397 73.412 158.696C72.8573 158.984 72.1693 159.128 71.348 159.128ZM83.7858 159.016V154.952L80.1378 147.8H81.6418L84.4258 153.4H84.5378L87.3058 147.8H88.8098L85.1778 154.952V159L83.7858 159.016ZM92.5333 159.112C91.6693 159.112 90.9386 158.904 90.3413 158.488C89.7546 158.072 89.3173 157.528 89.0293 156.856C88.7413 156.184 88.5973 155.475 88.5973 154.728C88.5973 153.971 88.7413 153.261 89.0293 152.6C89.3173 151.928 89.7599 151.384 90.3573 150.968C90.9546 150.552 91.6853 150.344 92.5493 150.344C93.6799 150.344 94.5813 150.723 95.2533 151.48C95.9359 152.237 96.2773 153.325 96.2773 154.744V155.128H89.9733V155.24C89.9733 155.709 90.0799 156.152 90.2933 156.568C90.5066 156.984 90.8053 157.32 91.1893 157.576C91.5733 157.832 92.0159 157.96 92.5173 157.96C93.0613 157.96 93.5306 157.821 93.9253 157.544C94.3199 157.267 94.6133 156.893 94.8053 156.424H96.1653C95.9413 157.192 95.5199 157.832 94.9013 158.344C94.2933 158.856 93.5039 159.112 92.5333 159.112ZM94.9173 154.152C94.8746 153.192 94.6399 152.499 94.2133 152.072C93.7866 151.645 93.2266 151.432 92.5333 151.432C91.7759 151.432 91.1733 151.683 90.7253 152.184C90.2773 152.685 90.0373 153.341 90.0053 154.152H94.9173ZM101.397 159.112C100.651 159.112 100.011 158.92 99.4774 158.536C98.9547 158.152 98.5547 157.629 98.2774 156.968C98 156.307 97.8614 155.56 97.8614 154.728C97.8614 153.896 98 153.149 98.2774 152.488C98.5654 151.816 98.976 151.293 99.5094 150.92C100.053 150.536 100.699 150.344 101.445 150.344C102.192 150.344 102.795 150.52 103.253 150.872C103.712 151.224 104.059 151.645 104.293 152.136H104.405V150.568H105.797V159H104.405V157.272H104.293C104.037 157.773 103.675 158.205 103.205 158.568C102.736 158.931 102.133 159.112 101.397 159.112ZM101.829 157.928C102.651 157.928 103.28 157.624 103.717 157.016C104.155 156.397 104.373 155.635 104.373 154.728C104.373 153.821 104.155 153.064 103.717 152.456C103.28 151.837 102.651 151.528 101.829 151.528C100.987 151.528 100.347 151.832 99.9094 152.44C99.4827 153.048 99.2694 153.805 99.2694 154.712C99.2694 155.629 99.4827 156.397 99.9094 157.016C100.347 157.624 100.987 157.928 101.829 157.928ZM108.167 150.568H109.543V151.912H109.639C109.778 151.539 110.023 151.224 110.375 150.968C110.738 150.701 111.191 150.568 111.735 150.568C111.906 150.568 112.039 150.579 112.135 150.6C112.242 150.611 112.359 150.637 112.487 150.68L112.439 152.024C112.269 151.971 112.119 151.933 111.991 151.912C111.874 151.891 111.719 151.88 111.527 151.88C110.205 151.88 109.543 152.664 109.543 154.232V159H108.167V150.568ZM116.799 159.112C116.116 159.112 115.524 158.979 115.023 158.712C114.521 158.435 114.137 158.083 113.871 157.656C113.615 157.229 113.487 156.781 113.487 156.312V156.232H114.863V156.296C114.863 156.563 114.937 156.829 115.087 157.096C115.236 157.352 115.46 157.565 115.759 157.736C116.057 157.896 116.42 157.976 116.847 157.976C117.359 157.976 117.78 157.853 118.111 157.608C118.452 157.352 118.623 157.005 118.623 156.568C118.623 156.205 118.489 155.917 118.223 155.704C117.967 155.491 117.641 155.352 117.247 155.288L116.143 155.128C115.449 155.021 114.868 154.787 114.399 154.424C113.929 154.051 113.695 153.512 113.695 152.808C113.695 152.029 113.972 151.427 114.527 151C115.092 150.563 115.812 150.344 116.687 150.344C117.337 150.344 117.892 150.467 118.351 150.712C118.82 150.947 119.177 151.261 119.423 151.656C119.668 152.04 119.791 152.461 119.791 152.92V152.984H118.415V152.952C118.415 152.739 118.356 152.515 118.239 152.28C118.132 152.045 117.945 151.843 117.679 151.672C117.412 151.501 117.071 151.416 116.655 151.416C116.143 151.416 115.732 151.544 115.423 151.8C115.113 152.045 114.959 152.371 114.959 152.776C114.959 153.107 115.081 153.379 115.327 153.592C115.572 153.805 115.881 153.944 116.255 154.008L117.455 154.2C118.159 154.317 118.751 154.563 119.231 154.936C119.711 155.299 119.951 155.837 119.951 156.552C119.951 157.064 119.812 157.512 119.535 157.896C119.268 158.28 118.895 158.579 118.415 158.792C117.935 159.005 117.396 159.112 116.799 159.112Z" fill="#754B37"/>
<rect x="28.5" y="181" width="14" height="14" rx="2.5" fill="white" stroke="#754B37"/>
<path opacity="0.8" d="M53.848 195.128C52.696 195.128 51.8 194.851 51.16 194.296C50.5307 193.741 50.1413 193.059 49.992 192.248H51.384C51.5333 192.739 51.8107 193.133 52.216 193.432C52.632 193.731 53.1707 193.88 53.832 193.88C54.6213 193.88 55.2133 193.683 55.608 193.288C56.0133 192.893 56.216 192.397 56.216 191.8C56.216 191.139 55.9867 190.632 55.528 190.28C55.0693 189.928 54.504 189.752 53.832 189.752H52.776V188.648H53.768C54.408 188.648 54.952 188.499 55.4 188.2C55.848 187.901 56.072 187.416 56.072 186.744C56.072 186.125 55.864 185.635 55.448 185.272C55.032 184.909 54.4827 184.728 53.8 184.728C53.16 184.728 52.6533 184.877 52.28 185.176C51.9173 185.475 51.6827 185.864 51.576 186.344H50.232C50.36 185.576 50.7067 184.92 51.272 184.376C51.8373 183.821 52.6853 183.544 53.816 183.544C54.6267 183.544 55.304 183.693 55.848 183.992C56.392 184.291 56.792 184.68 57.048 185.16C57.304 185.629 57.432 186.136 57.432 186.68C57.432 187.256 57.304 187.731 57.048 188.104C56.792 188.467 56.5093 188.739 56.2 188.92C55.9013 189.091 55.6987 189.176 55.592 189.176V189.272C55.7307 189.283 55.9547 189.368 56.264 189.528C56.584 189.688 56.8773 189.965 57.144 190.36C57.4213 190.755 57.56 191.272 57.56 191.912C57.56 192.499 57.4267 193.037 57.16 193.528C56.8933 194.008 56.4773 194.397 55.912 194.696C55.3573 194.984 54.6693 195.128 53.848 195.128ZM60.2783 189.432H66.1503V190.568H60.2783V189.432ZM69.8876 194.808L74.1596 185.208V185.08H68.4476V183.8H75.5516V185.16L71.2956 195H69.8876V194.808ZM84.0826 195.016V190.952L80.4346 183.8H81.9386L84.7226 189.4H84.8346L87.6026 183.8H89.1066L85.4746 190.952V195L84.0826 195.016ZM92.8301 195.112C91.9661 195.112 91.2355 194.904 90.6381 194.488C90.0515 194.072 89.6141 193.528 89.3261 192.856C89.0381 192.184 88.8941 191.475 88.8941 190.728C88.8941 189.971 89.0381 189.261 89.3261 188.6C89.6141 187.928 90.0568 187.384 90.6541 186.968C91.2515 186.552 91.9821 186.344 92.8461 186.344C93.9768 186.344 94.8781 186.723 95.5501 187.48C96.2328 188.237 96.5741 189.325 96.5741 190.744V191.128H90.2701V191.24C90.2701 191.709 90.3768 192.152 90.5901 192.568C90.8035 192.984 91.1021 193.32 91.4861 193.576C91.8701 193.832 92.3128 193.96 92.8141 193.96C93.3581 193.96 93.8275 193.821 94.2221 193.544C94.6168 193.267 94.9101 192.893 95.1021 192.424H96.4621C96.2381 193.192 95.8168 193.832 95.1981 194.344C94.5901 194.856 93.8008 195.112 92.8301 195.112ZM95.2141 190.152C95.1715 189.192 94.9368 188.499 94.5101 188.072C94.0835 187.645 93.5235 187.432 92.8301 187.432C92.0728 187.432 91.4701 187.683 91.0221 188.184C90.5741 188.685 90.3341 189.341 90.3021 190.152H95.2141ZM101.694 195.112C100.948 195.112 100.308 194.92 99.7743 194.536C99.2516 194.152 98.8516 193.629 98.5743 192.968C98.2969 192.307 98.1583 191.56 98.1583 190.728C98.1583 189.896 98.2969 189.149 98.5743 188.488C98.8623 187.816 99.2729 187.293 99.8063 186.92C100.35 186.536 100.996 186.344 101.742 186.344C102.489 186.344 103.092 186.52 103.55 186.872C104.009 187.224 104.356 187.645 104.59 188.136H104.702V186.568H106.094V195H104.702V193.272H104.59C104.334 193.773 103.972 194.205 103.502 194.568C103.033 194.931 102.43 195.112 101.694 195.112ZM102.126 193.928C102.948 193.928 103.577 193.624 104.014 193.016C104.452 192.397 104.67 191.635 104.67 190.728C104.67 189.821 104.452 189.064 104.014 188.456C103.577 187.837 102.948 187.528 102.126 187.528C101.284 187.528 100.644 187.832 100.206 188.44C99.7796 189.048 99.5663 189.805 99.5663 190.712C99.5663 191.629 99.7796 192.397 100.206 193.016C100.644 193.624 101.284 193.928 102.126 193.928ZM108.464 186.568H109.84V187.912H109.936C110.075 187.539 110.32 187.224 110.672 186.968C111.035 186.701 111.488 186.568 112.032 186.568C112.203 186.568 112.336 186.579 112.432 186.6C112.539 186.611 112.656 186.637 112.784 186.68L112.736 188.024C112.565 187.971 112.416 187.933 112.288 187.912C112.171 187.891 112.016 187.88 111.824 187.88C110.501 187.88 109.84 188.664 109.84 190.232V195H108.464V186.568ZM117.096 195.112C116.413 195.112 115.821 194.979 115.32 194.712C114.818 194.435 114.434 194.083 114.168 193.656C113.912 193.229 113.784 192.781 113.784 192.312V192.232H115.16V192.296C115.16 192.563 115.234 192.829 115.384 193.096C115.533 193.352 115.757 193.565 116.056 193.736C116.354 193.896 116.717 193.976 117.144 193.976C117.656 193.976 118.077 193.853 118.408 193.608C118.749 193.352 118.92 193.005 118.92 192.568C118.92 192.205 118.786 191.917 118.52 191.704C118.264 191.491 117.938 191.352 117.544 191.288L116.44 191.128C115.746 191.021 115.165 190.787 114.696 190.424C114.226 190.051 113.992 189.512 113.992 188.808C113.992 188.029 114.269 187.427 114.824 187C115.389 186.563 116.109 186.344 116.984 186.344C117.634 186.344 118.189 186.467 118.648 186.712C119.117 186.947 119.474 187.261 119.72 187.656C119.965 188.04 120.088 188.461 120.088 188.92V188.984H118.712V188.952C118.712 188.739 118.653 188.515 118.536 188.28C118.429 188.045 118.242 187.843 117.976 187.672C117.709 187.501 117.368 187.416 116.952 187.416C116.44 187.416 116.029 187.544 115.72 187.8C115.41 188.045 115.256 188.371 115.256 188.776C115.256 189.107 115.378 189.379 115.624 189.592C115.869 189.805 116.178 189.944 116.552 190.008L117.752 190.2C118.456 190.317 119.048 190.563 119.528 190.936C120.008 191.299 120.248 191.837 120.248 192.552C120.248 193.064 120.109 193.512 119.832 193.896C119.565 194.28 119.192 194.579 118.712 194.792C118.232 195.005 117.693 195.112 117.096 195.112Z" fill="#754B37"/>
<rect x="28.5" y="217" width="14" height="14" rx="2.5" fill="white" stroke="#754B37"/>
<path opacity="0.8" d="M50.872 230.808L55.144 221.208V221.08H49.432V219.8H56.536V221.16L52.28 231H50.872V230.808ZM64.9635 226.616H62.4195V229.16H61.2035V226.616H58.6595V225.384H61.2035V222.856H62.4195V225.384H64.9635V226.616ZM74.3326 231.016V226.952L70.6846 219.8H72.1886L74.9726 225.4H75.0846L77.8526 219.8H79.3566L75.7246 226.952V231L74.3326 231.016ZM83.0801 231.112C82.2161 231.112 81.4855 230.904 80.8881 230.488C80.3015 230.072 79.8641 229.528 79.5761 228.856C79.2881 228.184 79.1441 227.475 79.1441 226.728C79.1441 225.971 79.2881 225.261 79.5761 224.6C79.8641 223.928 80.3068 223.384 80.9041 222.968C81.5015 222.552 82.2321 222.344 83.0961 222.344C84.2268 222.344 85.1281 222.723 85.8001 223.48C86.4828 224.237 86.8241 225.325 86.8241 226.744V227.128H80.5201V227.24C80.5201 227.709 80.6268 228.152 80.8401 228.568C81.0535 228.984 81.3521 229.32 81.7361 229.576C82.1201 229.832 82.5628 229.96 83.0641 229.96C83.6081 229.96 84.0775 229.821 84.4721 229.544C84.8668 229.267 85.1601 228.893 85.3521 228.424H86.7121C86.4881 229.192 86.0668 229.832 85.4481 230.344C84.8401 230.856 84.0508 231.112 83.0801 231.112ZM85.4641 226.152C85.4215 225.192 85.1868 224.499 84.7601 224.072C84.3335 223.645 83.7735 223.432 83.0801 223.432C82.3228 223.432 81.7201 223.683 81.2721 224.184C80.8241 224.685 80.5841 225.341 80.5521 226.152H85.4641ZM91.9443 231.112C91.1976 231.112 90.5576 230.92 90.0243 230.536C89.5016 230.152 89.1016 229.629 88.8243 228.968C88.5469 228.307 88.4083 227.56 88.4083 226.728C88.4083 225.896 88.5469 225.149 88.8243 224.488C89.1123 223.816 89.5229 223.293 90.0563 222.92C90.6003 222.536 91.2456 222.344 91.9923 222.344C92.7389 222.344 93.3416 222.52 93.8003 222.872C94.2589 223.224 94.6056 223.645 94.8403 224.136H94.9523V222.568H96.3443V231H94.9523V229.272H94.8403C94.5843 229.773 94.2216 230.205 93.7523 230.568C93.2829 230.931 92.6803 231.112 91.9443 231.112ZM92.3763 229.928C93.1976 229.928 93.8269 229.624 94.2643 229.016C94.7016 228.397 94.9203 227.635 94.9203 226.728C94.9203 225.821 94.7016 225.064 94.2643 224.456C93.8269 223.837 93.1976 223.528 92.3763 223.528C91.5336 223.528 90.8936 223.832 90.4563 224.44C90.0296 225.048 89.8163 225.805 89.8163 226.712C89.8163 227.629 90.0296 228.397 90.4563 229.016C90.8936 229.624 91.5336 229.928 92.3763 229.928ZM98.7141 222.568H100.09V223.912H100.186C100.325 223.539 100.57 223.224 100.922 222.968C101.285 222.701 101.738 222.568 102.282 222.568C102.453 222.568 102.586 222.579 102.682 222.6C102.789 222.611 102.906 222.637 103.034 222.68L102.986 224.024C102.815 223.971 102.666 223.933 102.538 223.912C102.421 223.891 102.266 223.88 102.074 223.88C100.751 223.88 100.09 224.664 100.09 226.232V231H98.7141V222.568ZM107.346 231.112C106.663 231.112 106.071 230.979 105.57 230.712C105.068 230.435 104.684 230.083 104.418 229.656C104.162 229.229 104.034 228.781 104.034 228.312V228.232H105.41V228.296C105.41 228.563 105.484 228.829 105.634 229.096C105.783 229.352 106.007 229.565 106.306 229.736C106.604 229.896 106.967 229.976 107.394 229.976C107.906 229.976 108.327 229.853 108.658 229.608C108.999 229.352 109.17 229.005 109.17 228.568C109.17 228.205 109.036 227.917 108.77 227.704C108.514 227.491 108.188 227.352 107.794 227.288L106.69 227.128C105.996 227.021 105.415 226.787 104.946 226.424C104.476 226.051 104.242 225.512 104.242 224.808C104.242 224.029 104.519 223.427 105.074 223C105.639 222.563 106.359 222.344 107.234 222.344C107.884 222.344 108.439 222.467 108.898 222.712C109.367 222.947 109.724 223.261 109.97 223.656C110.215 224.04 110.338 224.461 110.338 224.92V224.984H108.962V224.952C108.962 224.739 108.903 224.515 108.786 224.28C108.679 224.045 108.492 223.843 108.226 223.672C107.959 223.501 107.618 223.416 107.202 223.416C106.69 223.416 106.279 223.544 105.97 223.8C105.66 224.045 105.506 224.371 105.506 224.776C105.506 225.107 105.628 225.379 105.874 225.592C106.119 225.805 106.428 225.944 106.802 226.008L108.002 226.2C108.706 226.317 109.298 226.563 109.778 226.936C110.258 227.299 110.498 227.837 110.498 228.552C110.498 229.064 110.359 229.512 110.082 229.896C109.815 230.28 109.442 230.579 108.962 230.792C108.482 231.005 107.943 231.112 107.346 231.112Z" fill="#754B37"/>
</g>
<rect x="279" width="112" height="29" rx="14.5" fill="#C7DB75"/>
<path d="M302.198 8.36364V20H300.442V8.36364H302.198ZM304.619 20V11.2727H306.249V12.6932H306.357C306.539 12.2121 306.836 11.8371 307.249 11.5682C307.662 11.2955 308.156 11.1591 308.732 11.1591C309.316 11.1591 309.804 11.2955 310.198 11.5682C310.596 11.8409 310.889 12.2159 311.079 12.6932H311.17C311.378 12.2273 311.71 11.8561 312.164 11.5795C312.619 11.2992 313.16 11.1591 313.789 11.1591C314.581 11.1591 315.227 11.4072 315.727 11.9034C316.23 12.3996 316.482 13.1477 316.482 14.1477V20H314.783V14.3068C314.783 13.7159 314.622 13.2879 314.3 13.0227C313.978 12.7576 313.594 12.625 313.147 12.625C312.594 12.625 312.164 12.7955 311.857 13.1364C311.55 13.4735 311.397 13.9072 311.397 14.4375V20H309.704V14.1989C309.704 13.7254 309.556 13.3447 309.261 13.0568C308.965 12.7689 308.581 12.625 308.107 12.625C307.785 12.625 307.488 12.7102 307.215 12.8807C306.946 13.0473 306.728 13.2803 306.562 13.5795C306.399 13.8788 306.317 14.2254 306.317 14.6193V20H304.619ZM318.759 23.2727V11.2727H320.418V12.6875H320.56C320.659 12.5057 320.801 12.2955 320.987 12.0568C321.172 11.8182 321.43 11.6098 321.759 11.4318C322.089 11.25 322.524 11.1591 323.066 11.1591C323.771 11.1591 324.399 11.3371 324.952 11.6932C325.505 12.0492 325.939 12.5625 326.254 13.233C326.572 13.9034 326.731 14.7102 326.731 15.6534C326.731 16.5966 326.574 17.4053 326.259 18.0795C325.945 18.75 325.513 19.267 324.964 19.6307C324.415 19.9905 323.788 20.1705 323.083 20.1705C322.553 20.1705 322.119 20.0814 321.782 19.9034C321.449 19.7254 321.187 19.517 320.998 19.2784C320.808 19.0398 320.663 18.8277 320.56 18.642H320.458V23.2727H318.759ZM320.424 15.6364C320.424 16.25 320.513 16.7879 320.691 17.25C320.869 17.7121 321.127 18.0739 321.464 18.3352C321.801 18.5928 322.214 18.7216 322.702 18.7216C323.21 18.7216 323.634 18.5871 323.975 18.3182C324.316 18.0455 324.574 17.6761 324.748 17.2102C324.926 16.7443 325.015 16.2197 325.015 15.6364C325.015 15.0606 324.928 14.5436 324.754 14.0852C324.583 13.6269 324.326 13.2652 323.981 13C323.64 12.7348 323.214 12.6023 322.702 12.6023C322.21 12.6023 321.793 12.7292 321.452 12.983C321.115 13.2367 320.86 13.5909 320.685 14.0455C320.511 14.5 320.424 15.0303 320.424 15.6364ZM328.634 20V11.2727H330.276V12.6591H330.367C330.526 12.1894 330.807 11.8201 331.208 11.5511C331.613 11.2784 332.072 11.142 332.583 11.142C332.689 11.142 332.814 11.1458 332.958 11.1534C333.106 11.161 333.221 11.1705 333.305 11.1818V12.8068C333.237 12.7879 333.115 12.767 332.941 12.7443C332.767 12.7178 332.593 12.7045 332.418 12.7045C332.017 12.7045 331.659 12.7898 331.344 12.9602C331.034 13.1269 330.788 13.3598 330.606 13.6591C330.424 13.9545 330.333 14.2917 330.333 14.6705V20H328.634ZM338.138 20.1761C337.32 20.1761 336.606 19.9886 335.996 19.6136C335.387 19.2386 334.913 18.714 334.576 18.0398C334.239 17.3655 334.07 16.5777 334.07 15.6761C334.07 14.7708 334.239 13.9792 334.576 13.3011C334.913 12.6231 335.387 12.0966 335.996 11.7216C336.606 11.3466 337.32 11.1591 338.138 11.1591C338.957 11.1591 339.671 11.3466 340.281 11.7216C340.89 12.0966 341.364 12.6231 341.701 13.3011C342.038 13.9792 342.207 14.7708 342.207 15.6761C342.207 16.5777 342.038 17.3655 341.701 18.0398C341.364 18.714 340.89 19.2386 340.281 19.6136C339.671 19.9886 338.957 20.1761 338.138 20.1761ZM338.144 18.75C338.674 18.75 339.114 18.6098 339.462 18.3295C339.811 18.0492 340.068 17.6761 340.235 17.2102C340.406 16.7443 340.491 16.2311 340.491 15.6705C340.491 15.1136 340.406 14.6023 340.235 14.1364C340.068 13.6667 339.811 13.2898 339.462 13.0057C339.114 12.7216 338.674 12.5795 338.144 12.5795C337.61 12.5795 337.167 12.7216 336.815 13.0057C336.466 13.2898 336.207 13.6667 336.036 14.1364C335.87 14.6023 335.786 15.1136 335.786 15.6705C335.786 16.2311 335.87 16.7443 336.036 17.2102C336.207 17.6761 336.466 18.0492 336.815 18.3295C337.167 18.6098 337.61 18.75 338.144 18.75ZM351.272 11.2727L348.107 20H346.289L343.119 11.2727H344.942L347.153 17.9886H347.244L349.448 11.2727H351.272ZM356.333 20.1761C355.473 20.1761 354.733 19.9924 354.112 19.625C353.494 19.2538 353.017 18.733 352.68 18.0625C352.346 17.3883 352.18 16.5985 352.18 15.6932C352.18 14.7992 352.346 14.0114 352.68 13.3295C353.017 12.6477 353.487 12.1155 354.089 11.733C354.695 11.3504 355.403 11.1591 356.214 11.1591C356.706 11.1591 357.183 11.2405 357.646 11.4034C358.108 11.5663 358.522 11.822 358.89 12.1705C359.257 12.5189 359.547 12.9716 359.759 13.5284C359.971 14.0814 360.077 14.7538 360.077 15.5455V16.1477H353.14V14.875H358.413C358.413 14.428 358.322 14.0322 358.14 13.6875C357.958 13.339 357.702 13.0644 357.373 12.8636C357.047 12.6629 356.665 12.5625 356.225 12.5625C355.748 12.5625 355.331 12.6799 354.975 12.9148C354.623 13.1458 354.35 13.4489 354.157 13.8239C353.968 14.1951 353.873 14.5985 353.873 15.0341V16.0284C353.873 16.6117 353.975 17.108 354.18 17.517C354.388 17.9261 354.678 18.2386 355.049 18.4545C355.42 18.6667 355.854 18.7727 356.35 18.7727C356.672 18.7727 356.966 18.7273 357.231 18.6364C357.496 18.5417 357.725 18.4015 357.918 18.2159C358.112 18.0303 358.259 17.8011 358.362 17.5284L359.969 17.8182C359.841 18.2917 359.61 18.7064 359.276 19.0625C358.947 19.4148 358.532 19.6894 358.032 19.8864C357.536 20.0795 356.969 20.1761 356.333 20.1761ZM365.229 20.1705C364.525 20.1705 363.896 19.9905 363.343 19.6307C362.794 19.267 362.362 18.75 362.048 18.0795C361.737 17.4053 361.582 16.5966 361.582 15.6534C361.582 14.7102 361.739 13.9034 362.053 13.233C362.371 12.5625 362.807 12.0492 363.36 11.6932C363.913 11.3371 364.54 11.1591 365.241 11.1591C365.782 11.1591 366.218 11.25 366.548 11.4318C366.881 11.6098 367.138 11.8182 367.32 12.0568C367.506 12.2955 367.65 12.5057 367.752 12.6875H367.854V8.36364H369.553V20H367.894V18.642H367.752C367.65 18.8277 367.502 19.0398 367.309 19.2784C367.12 19.517 366.858 19.7254 366.525 19.9034C366.192 20.0814 365.76 20.1705 365.229 20.1705ZM365.604 18.7216C366.093 18.7216 366.506 18.5928 366.843 18.3352C367.184 18.0739 367.442 17.7121 367.616 17.25C367.794 16.7879 367.883 16.25 367.883 15.6364C367.883 15.0303 367.796 14.5 367.621 14.0455C367.447 13.5909 367.192 13.2367 366.854 12.983C366.517 12.7292 366.101 12.6023 365.604 12.6023C365.093 12.6023 364.667 12.7348 364.326 13C363.985 13.2652 363.728 13.6269 363.553 14.0852C363.383 14.5436 363.298 15.0606 363.298 15.6364C363.298 16.2197 363.385 16.7443 363.559 17.2102C363.733 17.6761 363.991 18.0455 364.332 18.3182C364.676 18.5871 365.101 18.7216 365.604 18.7216Z" fill="black"/>
<g filter="url(#filter1_d_712_6531)">
<rect x="245" y="44" width="180" height="214" rx="20" fill="#FFFCF6" shape-rendering="crispEdges"/>
<path d="M272.344 82.248H268.504L267.608 85H265.368L269.4 73.8H271.48L275.496 85H273.256L272.344 82.248ZM271.784 80.536L270.456 76.552H270.36L269.064 80.536H271.784ZM280.382 88.552C279.987 88.552 279.689 88.5253 279.486 88.472C279.283 88.4293 279.081 88.3707 278.878 88.296V86.52C278.985 86.552 279.155 86.584 279.39 86.616C279.635 86.6587 279.87 86.68 280.094 86.68C280.841 86.68 281.363 86.4667 281.662 86.04C281.971 85.624 282.126 85.1013 282.126 84.472V83.352H281.998C281.827 83.736 281.529 84.0933 281.102 84.424C280.675 84.7547 280.11 84.92 279.406 84.92C278.723 84.92 278.131 84.744 277.63 84.392C277.129 84.0293 276.745 83.528 276.478 82.888C276.211 82.2373 276.078 81.4907 276.078 80.648C276.078 79.784 276.211 79.032 276.478 78.392C276.745 77.7413 277.129 77.24 277.63 76.888C278.142 76.5253 278.739 76.344 279.422 76.344C280.137 76.344 280.707 76.52 281.134 76.872C281.561 77.2133 281.849 77.576 281.998 77.96H282.126V76.552H284.35V84.472C284.35 85.016 284.249 85.592 284.046 86.2C283.854 86.8187 283.465 87.3627 282.878 87.832C282.291 88.312 281.459 88.552 280.382 88.552ZM280.238 83.128C280.857 83.128 281.326 82.8773 281.646 82.376C281.966 81.8747 282.126 81.288 282.126 80.616C282.126 79.9547 281.966 79.3787 281.646 78.888C281.337 78.3867 280.867 78.136 280.238 78.136C279.609 78.136 279.134 78.3867 278.814 78.888C278.494 79.3787 278.334 79.9547 278.334 80.616C278.334 81.288 278.489 81.8747 278.798 82.376C279.118 82.8773 279.598 83.128 280.238 83.128ZM290.157 85.128C289.271 85.128 288.525 84.9253 287.917 84.52C287.309 84.104 286.855 83.5653 286.557 82.904C286.269 82.232 286.125 81.512 286.125 80.744C286.125 79.976 286.269 79.2613 286.557 78.6C286.855 77.928 287.309 77.384 287.917 76.968C288.525 76.552 289.277 76.344 290.173 76.344C291.357 76.344 292.295 76.7227 292.989 77.48C293.693 78.2373 294.045 79.3307 294.045 80.76V81.368H288.253V81.496C288.253 82.008 288.429 82.4507 288.781 82.824C289.133 83.1867 289.575 83.368 290.109 83.368C290.525 83.368 290.877 83.272 291.165 83.08C291.453 82.888 291.661 82.6267 291.789 82.296H293.965C293.741 83.128 293.303 83.8107 292.653 84.344C292.002 84.8667 291.17 85.128 290.157 85.128ZM291.917 79.928C291.895 79.256 291.725 78.76 291.405 78.44C291.085 78.12 290.663 77.96 290.141 77.96C289.586 77.96 289.149 78.136 288.829 78.488C288.509 78.84 288.338 79.32 288.317 79.928H291.917ZM307.255 75.736H304.215V85H302.007V75.736H298.967V73.8H307.255V75.736ZM311.694 86.2C311.544 86.5947 311.384 86.9413 311.214 87.24C311.043 87.5493 310.739 87.848 310.302 88.136C309.875 88.424 309.31 88.568 308.606 88.568C308.307 88.568 308.051 88.5413 307.838 88.488C307.624 88.4453 307.491 88.4187 307.438 88.408V86.856C307.608 86.8987 307.838 86.92 308.126 86.92C308.478 86.92 308.76 86.8613 308.974 86.744C309.187 86.6267 309.358 86.472 309.486 86.28C309.614 86.088 309.742 85.8213 309.87 85.48L310.142 84.808L307.102 76.552H309.342L311.166 82.36H311.262L313.182 76.552H315.422L311.694 86.2ZM321.528 85.128C320.813 85.128 320.253 84.9627 319.848 84.632C319.442 84.3013 319.144 83.9387 318.952 83.544H318.824V88.328H316.6V76.552H318.824V77.864H318.952C319.122 77.5013 319.41 77.16 319.816 76.84C320.221 76.5093 320.786 76.344 321.512 76.344C322.589 76.344 323.416 76.744 323.992 77.544C324.578 78.344 324.872 79.416 324.872 80.76C324.872 82.072 324.578 83.128 323.992 83.928C323.416 84.728 322.594 85.128 321.528 85.128ZM320.728 83.368C321.368 83.368 321.842 83.112 322.152 82.6C322.472 82.088 322.632 81.4693 322.632 80.744C322.632 80.04 322.472 79.4373 322.152 78.936C321.842 78.424 321.368 78.168 320.728 78.168C320.098 78.168 319.624 78.424 319.304 78.936C318.984 79.448 318.824 80.056 318.824 80.76C318.824 81.4747 318.984 82.088 319.304 82.6C319.624 83.112 320.098 83.368 320.728 83.368ZM330.297 85.128C329.412 85.128 328.665 84.9253 328.057 84.52C327.449 84.104 326.996 83.5653 326.697 82.904C326.409 82.232 326.265 81.512 326.265 80.744C326.265 79.976 326.409 79.2613 326.697 78.6C326.996 77.928 327.449 77.384 328.057 76.968C328.665 76.552 329.417 76.344 330.313 76.344C331.497 76.344 332.436 76.7227 333.129 77.48C333.833 78.2373 334.185 79.3307 334.185 80.76V81.368H328.393V81.496C328.393 82.008 328.569 82.4507 328.921 82.824C329.273 83.1867 329.716 83.368 330.249 83.368C330.665 83.368 331.017 83.272 331.305 83.08C331.593 82.888 331.801 82.6267 331.929 82.296H334.105C333.881 83.128 333.444 83.8107 332.793 84.344C332.143 84.8667 331.311 85.128 330.297 85.128ZM332.057 79.928C332.036 79.256 331.865 78.76 331.545 78.44C331.225 78.12 330.804 77.96 330.281 77.96C329.727 77.96 329.289 78.136 328.969 78.488C328.649 78.84 328.479 79.32 328.457 79.928H332.057Z" fill="#754B37"/>
<rect x="265.5" y="109" width="14" height="14" rx="2.5" fill="white" stroke="#754B37"/>
<path opacity="0.8" d="M287.2 111.8H291.68C292.427 111.8 293.035 111.944 293.504 112.232C293.984 112.52 294.325 112.883 294.528 113.32C294.731 113.747 294.832 114.189 294.832 114.648C294.832 115.128 294.731 115.544 294.528 115.896C294.325 116.248 294.08 116.52 293.792 116.712C293.504 116.904 293.232 117.027 292.976 117.08V117.176C293.253 117.197 293.573 117.299 293.936 117.48C294.309 117.651 294.635 117.933 294.912 118.328C295.2 118.712 295.344 119.203 295.344 119.8C295.344 120.333 295.221 120.845 294.976 121.336C294.741 121.816 294.368 122.216 293.856 122.536C293.344 122.845 292.704 123 291.936 123H287.2V111.8ZM291.28 116.712C291.888 116.712 292.411 116.557 292.848 116.248C293.285 115.928 293.504 115.437 293.504 114.776C293.504 114.147 293.291 113.688 292.864 113.4C292.448 113.112 291.92 112.968 291.28 112.968H288.544V116.712H291.28ZM291.584 121.832C292.277 121.832 292.853 121.672 293.312 121.352C293.771 121.032 294 120.509 294 119.784C294 119.069 293.771 118.563 293.312 118.264C292.853 117.955 292.277 117.8 291.584 117.8H288.544V121.832H291.584ZM300.272 123.112C299.526 123.112 298.886 122.92 298.352 122.536C297.83 122.152 297.43 121.629 297.152 120.968C296.875 120.307 296.736 119.56 296.736 118.728C296.736 117.896 296.875 117.149 297.152 116.488C297.44 115.816 297.851 115.293 298.384 114.92C298.928 114.536 299.574 114.344 300.32 114.344C301.067 114.344 301.67 114.52 302.128 114.872C302.587 115.224 302.934 115.645 303.168 116.136H303.28V114.568H304.672V123H303.28V121.272H303.168C302.912 121.773 302.55 122.205 302.08 122.568C301.611 122.931 301.008 123.112 300.272 123.112ZM300.704 121.928C301.526 121.928 302.155 121.624 302.592 121.016C303.03 120.397 303.248 119.635 303.248 118.728C303.248 117.821 303.03 117.064 302.592 116.456C302.155 115.837 301.526 115.528 300.704 115.528C299.862 115.528 299.222 115.832 298.784 116.44C298.358 117.048 298.144 117.805 298.144 118.712C298.144 119.629 298.358 120.397 298.784 121.016C299.222 121.624 299.862 121.928 300.704 121.928ZM311.49 123.112C310.754 123.112 310.152 122.931 309.682 122.568C309.213 122.205 308.85 121.773 308.594 121.272H308.482V123H307.09V111H308.482V116.136H308.594C308.829 115.645 309.176 115.224 309.634 114.872C310.093 114.52 310.696 114.344 311.442 114.344C312.2 114.344 312.845 114.536 313.378 114.92C313.922 115.293 314.333 115.816 314.61 116.488C314.888 117.149 315.026 117.896 315.026 118.728C315.026 119.56 314.888 120.307 314.61 120.968C314.333 121.629 313.928 122.152 313.394 122.536C312.861 122.92 312.226 123.112 311.49 123.112ZM311.058 121.928C311.89 121.928 312.52 121.624 312.946 121.016C313.384 120.408 313.602 119.645 313.602 118.728C313.602 117.821 313.389 117.064 312.962 116.456C312.536 115.848 311.901 115.544 311.058 115.544C310.226 115.544 309.592 115.848 309.154 116.456C308.728 117.064 308.514 117.821 308.514 118.728C308.514 119.635 308.733 120.397 309.17 121.016C309.608 121.624 310.237 121.928 311.058 121.928ZM319.711 124.168C319.54 124.573 319.375 124.904 319.215 125.16C319.065 125.427 318.815 125.677 318.463 125.912C318.111 126.147 317.652 126.264 317.087 126.264C316.788 126.264 316.468 126.221 316.127 126.136V125.112C316.383 125.155 316.607 125.176 316.799 125.176C317.151 125.176 317.433 125.107 317.647 124.968C317.86 124.84 318.025 124.669 318.143 124.456C318.271 124.243 318.42 123.933 318.591 123.528L318.975 122.584L315.855 114.568H317.295L319.647 121.064H319.743L322.207 114.568H323.647L319.711 124.168Z" fill="#754B37"/>
<rect x="265.5" y="145" width="14" height="14" rx="2.5" fill="white" stroke="#754B37"/>
<path opacity="0.8" d="M294.688 149.048H291.392V159H290.016V149.048H286.72V147.8H294.688V149.048ZM298.783 159.112C297.919 159.112 297.189 158.904 296.591 158.488C296.005 158.072 295.567 157.528 295.279 156.856C294.991 156.184 294.847 155.475 294.847 154.728C294.847 153.971 294.991 153.261 295.279 152.6C295.567 151.928 296.01 151.384 296.607 150.968C297.205 150.552 297.935 150.344 298.799 150.344C299.93 150.344 300.831 150.723 301.503 151.48C302.186 152.237 302.527 153.325 302.527 154.744V155.128H296.223V155.24C296.223 155.709 296.33 156.152 296.543 156.568C296.757 156.984 297.055 157.32 297.439 157.576C297.823 157.832 298.266 157.96 298.767 157.96C299.311 157.96 299.781 157.821 300.175 157.544C300.57 157.267 300.863 156.893 301.055 156.424H302.415C302.191 157.192 301.77 157.832 301.151 158.344C300.543 158.856 299.754 159.112 298.783 159.112ZM301.167 154.152C301.125 153.192 300.89 152.499 300.463 152.072C300.037 151.645 299.477 151.432 298.783 151.432C298.026 151.432 297.423 151.683 296.975 152.184C296.527 152.685 296.287 153.341 296.255 154.152H301.167ZM308.111 159.112C307.247 159.112 306.517 158.904 305.919 158.488C305.333 158.072 304.895 157.528 304.607 156.856C304.319 156.184 304.175 155.475 304.175 154.728C304.175 153.971 304.319 153.261 304.607 152.6C304.895 151.928 305.338 151.384 305.935 150.968C306.533 150.552 307.263 150.344 308.127 150.344C309.258 150.344 310.159 150.723 310.831 151.48C311.514 152.237 311.855 153.325 311.855 154.744V155.128H305.551V155.24C305.551 155.709 305.658 156.152 305.871 156.568C306.085 156.984 306.383 157.32 306.767 157.576C307.151 157.832 307.594 157.96 308.095 157.96C308.639 157.96 309.109 157.821 309.503 157.544C309.898 157.267 310.191 156.893 310.383 156.424H311.743C311.519 157.192 311.098 157.832 310.479 158.344C309.871 158.856 309.082 159.112 308.111 159.112ZM310.495 154.152C310.453 153.192 310.218 152.499 309.791 152.072C309.365 151.645 308.805 151.432 308.111 151.432C307.354 151.432 306.751 151.683 306.303 152.184C305.855 152.685 305.615 153.341 305.583 154.152H310.495ZM313.888 150.568H315.264V152.088H315.392C315.605 151.597 315.952 151.187 316.432 150.856C316.912 150.515 317.498 150.344 318.192 150.344C318.906 150.344 319.504 150.515 319.984 150.856C320.464 151.187 320.816 151.629 321.04 152.184C321.274 152.728 321.392 153.32 321.392 153.96V159H320.016V154.136C320.016 153.304 319.797 152.669 319.36 152.232C318.933 151.795 318.373 151.576 317.68 151.576C316.944 151.576 316.357 151.816 315.92 152.296C315.482 152.765 315.264 153.379 315.264 154.136V159H313.888V150.568ZM326.819 159.112C326.073 159.112 325.433 158.92 324.899 158.536C324.377 158.152 323.977 157.629 323.699 156.968C323.422 156.307 323.283 155.56 323.283 154.728C323.283 153.896 323.422 153.149 323.699 152.488C323.987 151.816 324.398 151.293 324.931 150.92C325.475 150.536 326.121 150.344 326.867 150.344C327.614 150.344 328.217 150.52 328.675 150.872C329.134 151.224 329.481 151.645 329.715 152.136H329.827V150.568H331.219V159H329.827V157.272H329.715C329.459 157.773 329.097 158.205 328.627 158.568C328.158 158.931 327.555 159.112 326.819 159.112ZM327.251 157.928C328.073 157.928 328.702 157.624 329.139 157.016C329.577 156.397 329.795 155.635 329.795 154.728C329.795 153.821 329.577 153.064 329.139 152.456C328.702 151.837 328.073 151.528 327.251 151.528C326.409 151.528 325.769 151.832 325.331 152.44C324.905 153.048 324.691 153.805 324.691 154.712C324.691 155.629 324.905 156.397 325.331 157.016C325.769 157.624 326.409 157.928 327.251 157.928ZM337.382 162.376C337.062 162.376 336.801 162.355 336.598 162.312C336.406 162.269 336.209 162.211 336.006 162.136V160.984C336.145 161.027 336.332 161.064 336.566 161.096C336.801 161.139 337.03 161.16 337.254 161.16C338.086 161.16 338.71 160.925 339.126 160.456C339.553 159.987 339.766 159.363 339.766 158.584V157.064H339.638C339.414 157.565 339.052 157.992 338.55 158.344C338.06 158.685 337.462 158.856 336.758 158.856C336.054 158.856 335.436 158.675 334.902 158.312C334.369 157.949 333.953 157.448 333.654 156.808C333.366 156.157 333.222 155.416 333.222 154.584C333.222 153.752 333.366 153.016 333.654 152.376C333.953 151.725 334.369 151.219 334.902 150.856C335.436 150.493 336.054 150.312 336.758 150.312C337.494 150.312 338.108 150.504 338.598 150.888C339.1 151.261 339.452 151.699 339.654 152.2H339.766V150.584H341.158V158.584C341.158 159.181 341.036 159.768 340.79 160.344C340.556 160.92 340.156 161.4 339.59 161.784C339.025 162.179 338.289 162.376 337.382 162.376ZM337.206 157.672C337.75 157.672 338.214 157.528 338.598 157.24C338.982 156.941 339.265 156.557 339.446 156.088C339.638 155.608 339.734 155.096 339.734 154.552C339.734 154.019 339.638 153.523 339.446 153.064C339.265 152.605 338.982 152.232 338.598 151.944C338.225 151.656 337.761 151.512 337.206 151.512C336.385 151.512 335.756 151.811 335.318 152.408C334.892 152.995 334.678 153.709 334.678 154.552C334.678 155.107 334.769 155.624 334.95 156.104C335.142 156.573 335.425 156.952 335.798 157.24C336.182 157.528 336.652 157.672 337.206 157.672ZM347.221 159.112C346.357 159.112 345.626 158.904 345.029 158.488C344.442 158.072 344.005 157.528 343.717 156.856C343.429 156.184 343.285 155.475 343.285 154.728C343.285 153.971 343.429 153.261 343.717 152.6C344.005 151.928 344.447 151.384 345.045 150.968C345.642 150.552 346.373 150.344 347.237 150.344C348.367 150.344 349.269 150.723 349.941 151.48C350.623 152.237 350.965 153.325 350.965 154.744V155.128H344.661V155.24C344.661 155.709 344.767 156.152 344.981 156.568C345.194 156.984 345.493 157.32 345.877 157.576C346.261 157.832 346.703 157.96 347.205 157.96C347.749 157.96 348.218 157.821 348.613 157.544C349.007 157.267 349.301 156.893 349.493 156.424H350.853C350.629 157.192 350.207 157.832 349.589 158.344C348.981 158.856 348.191 159.112 347.221 159.112ZM349.605 154.152C349.562 153.192 349.327 152.499 348.901 152.072C348.474 151.645 347.914 151.432 347.221 151.432C346.463 151.432 345.861 151.683 345.413 152.184C344.965 152.685 344.725 153.341 344.693 154.152H349.605Z" fill="#754B37"/>
<rect x="265.5" y="181" width="14" height="14" rx="2.5" fill="white" stroke="#754B37"/>
<path opacity="0.8" d="M293.728 191.736H289.168L287.984 195H286.576L290.784 183.8H292.096L296.336 195H294.928L293.728 191.736ZM293.328 190.632L291.456 185.56H291.392L289.568 190.632H293.328ZM300.758 195.112C300.011 195.112 299.371 194.92 298.838 194.536C298.315 194.152 297.915 193.629 297.638 192.968C297.36 192.307 297.222 191.56 297.222 190.728C297.222 189.885 297.36 189.133 297.638 188.472C297.915 187.811 298.32 187.293 298.854 186.92C299.387 186.536 300.032 186.344 300.79 186.344C301.536 186.344 302.139 186.525 302.598 186.888C303.067 187.24 303.414 187.656 303.638 188.136H303.766V183H305.142V195H303.766V193.272H303.638C303.382 193.784 303.019 194.221 302.55 194.584C302.091 194.936 301.494 195.112 300.758 195.112ZM301.174 193.928C302.006 193.928 302.64 193.624 303.078 193.016C303.515 192.397 303.734 191.635 303.734 190.728C303.734 189.821 303.515 189.064 303.078 188.456C302.64 187.848 302.006 187.544 301.174 187.544C300.331 187.544 299.696 187.848 299.27 188.456C298.843 189.064 298.63 189.821 298.63 190.728C298.63 191.645 298.843 192.408 299.27 193.016C299.707 193.624 300.342 193.928 301.174 193.928ZM314.888 195H313.496V193.4H313.4C313.176 193.891 312.829 194.307 312.36 194.648C311.901 194.979 311.336 195.144 310.664 195.144C309.96 195.144 309.373 194.973 308.904 194.632C308.434 194.291 308.088 193.848 307.864 193.304C307.65 192.76 307.544 192.168 307.544 191.528V186.568H308.92V191.352C308.92 192.173 309.128 192.808 309.544 193.256C309.96 193.693 310.504 193.912 311.176 193.912C311.88 193.912 312.44 193.677 312.856 193.208C313.282 192.728 313.496 192.109 313.496 191.352V186.568H314.888V195ZM319.376 195.064C318.746 195.064 318.277 194.963 317.968 194.76C317.658 194.557 317.461 194.296 317.376 193.976C317.301 193.645 317.264 193.219 317.264 192.696L317.28 183H318.656V192.488C318.656 192.893 318.672 193.197 318.704 193.4C318.746 193.592 318.848 193.747 319.008 193.864C319.178 193.981 319.445 194.04 319.808 194.04C320.032 194.04 320.229 194.024 320.4 193.992V194.984C320.112 195.037 319.77 195.064 319.376 195.064ZM324.503 187.672V192.568C324.503 192.963 324.519 193.256 324.551 193.448C324.594 193.629 324.695 193.773 324.855 193.88C325.026 193.987 325.298 194.04 325.671 194.04C325.927 194.04 326.204 194.003 326.503 193.928V194.92C326.428 194.952 326.263 194.984 326.007 195.016C325.762 195.048 325.506 195.064 325.239 195.064C324.62 195.064 324.156 194.979 323.847 194.808C323.548 194.627 323.351 194.387 323.255 194.088C323.17 193.779 323.127 193.373 323.127 192.872V187.672H321.559V186.568H323.127V183.8H324.503V186.568H326.503V187.672H324.503Z" fill="#754B37"/>
<rect x="265.5" y="217" width="14" height="14" rx="2.5" fill="white" stroke="#754B37"/>
<path opacity="0.8" d="M290.896 231.128C290.032 231.128 289.291 230.952 288.672 230.6C288.064 230.237 287.605 229.773 287.296 229.208C286.987 228.643 286.832 228.051 286.832 227.432V227.352H288.352V227.432C288.352 227.805 288.437 228.179 288.608 228.552C288.789 228.925 289.072 229.24 289.456 229.496C289.84 229.741 290.331 229.864 290.928 229.864C291.632 229.864 292.213 229.683 292.672 229.32C293.131 228.957 293.36 228.467 293.36 227.848C293.36 227.336 293.189 226.931 292.848 226.632C292.517 226.323 292.091 226.115 291.568 226.008L289.936 225.704C288.059 225.288 287.12 224.301 287.12 222.744C287.12 222.104 287.275 221.544 287.584 221.064C287.893 220.584 288.32 220.216 288.864 219.96C289.419 219.693 290.059 219.56 290.784 219.56C291.605 219.56 292.309 219.725 292.896 220.056C293.483 220.387 293.925 220.819 294.224 221.352C294.523 221.875 294.672 222.419 294.672 222.984V223.048H293.152V223C293.152 222.68 293.072 222.355 292.912 222.024C292.763 221.683 292.507 221.389 292.144 221.144C291.792 220.899 291.323 220.776 290.736 220.776C290.064 220.776 289.525 220.963 289.12 221.336C288.725 221.709 288.528 222.173 288.528 222.728C288.528 223.197 288.683 223.581 288.992 223.88C289.301 224.179 289.723 224.381 290.256 224.488L291.728 224.776C293.787 225.192 294.816 226.2 294.816 227.8C294.816 228.451 294.651 229.027 294.32 229.528C294 230.029 293.541 230.424 292.944 230.712C292.347 230.989 291.664 231.128 290.896 231.128ZM300.33 231.112C299.466 231.112 298.735 230.904 298.138 230.488C297.551 230.072 297.114 229.528 296.826 228.856C296.538 228.184 296.394 227.475 296.394 226.728C296.394 225.971 296.538 225.261 296.826 224.6C297.114 223.928 297.557 223.384 298.154 222.968C298.751 222.552 299.482 222.344 300.346 222.344C301.477 222.344 302.378 222.723 303.05 223.48C303.733 224.237 304.074 225.325 304.074 226.744V227.128H297.77V227.24C297.77 227.709 297.877 228.152 298.09 228.568C298.303 228.984 298.602 229.32 298.986 229.576C299.37 229.832 299.813 229.96 300.314 229.96C300.858 229.96 301.327 229.821 301.722 229.544C302.117 229.267 302.41 228.893 302.602 228.424H303.962C303.738 229.192 303.317 229.832 302.698 230.344C302.09 230.856 301.301 231.112 300.33 231.112ZM302.714 226.152C302.671 225.192 302.437 224.499 302.01 224.072C301.583 223.645 301.023 223.432 300.33 223.432C299.573 223.432 298.97 223.683 298.522 224.184C298.074 224.685 297.834 225.341 297.802 226.152H302.714ZM306.106 222.568H307.482V224.088H307.61C307.824 223.597 308.17 223.187 308.65 222.856C309.13 222.515 309.717 222.344 310.41 222.344C311.125 222.344 311.722 222.515 312.202 222.856C312.682 223.187 313.034 223.629 313.258 224.184C313.493 224.728 313.61 225.32 313.61 225.96V231H312.234V226.136C312.234 225.304 312.016 224.669 311.578 224.232C311.152 223.795 310.592 223.576 309.898 223.576C309.162 223.576 308.576 223.816 308.138 224.296C307.701 224.765 307.482 225.379 307.482 226.136V231H306.106V222.568ZM316.015 222.568H317.391V231H316.015V222.568ZM316.687 221C316.431 221 316.218 220.915 316.047 220.744C315.876 220.563 315.791 220.349 315.791 220.104C315.791 219.859 315.876 219.651 316.047 219.48C316.218 219.299 316.431 219.208 316.687 219.208C316.943 219.208 317.156 219.299 317.327 219.48C317.508 219.651 317.599 219.859 317.599 220.104C317.599 220.349 317.508 220.563 317.327 220.744C317.156 220.915 316.943 221 316.687 221ZM323.471 231.112C322.618 231.112 321.892 230.909 321.295 230.504C320.708 230.088 320.266 229.549 319.967 228.888C319.668 228.216 319.519 227.496 319.519 226.728C319.519 225.96 319.668 225.245 319.967 224.584C320.266 223.912 320.708 223.373 321.295 222.968C321.892 222.552 322.618 222.344 323.471 222.344C324.324 222.344 325.044 222.552 325.631 222.968C326.228 223.373 326.671 223.912 326.959 224.584C327.258 225.256 327.407 225.971 327.407 226.728C327.407 227.485 327.258 228.2 326.959 228.872C326.66 229.544 326.212 230.088 325.615 230.504C325.028 230.909 324.314 231.112 323.471 231.112ZM323.471 229.928C323.994 229.928 324.447 229.784 324.831 229.496C325.226 229.208 325.524 228.824 325.727 228.344C325.93 227.853 326.031 227.309 326.031 226.712C326.031 225.795 325.802 225.032 325.343 224.424C324.884 223.816 324.26 223.512 323.471 223.512C322.938 223.512 322.474 223.656 322.079 223.944C321.695 224.232 321.402 224.621 321.199 225.112C320.996 225.592 320.895 226.125 320.895 226.712C320.895 227.629 321.124 228.397 321.583 229.016C322.042 229.624 322.671 229.928 323.471 229.928ZM329.355 222.568H330.731V223.912H330.827C330.965 223.539 331.211 223.224 331.563 222.968C331.925 222.701 332.379 222.568 332.923 222.568C333.093 222.568 333.227 222.579 333.323 222.6C333.429 222.611 333.547 222.637 333.675 222.68L333.627 224.024C333.456 223.971 333.307 223.933 333.179 223.912C333.061 223.891 332.907 223.88 332.715 223.88C331.392 223.88 330.731 224.664 330.731 226.232V231H329.355V222.568Z" fill="#754B37"/>
</g>
<defs>
<filter id="filter0_d_712_6531" x="0" y="36" width="196" height="230" filterUnits="userSpaceOnUse" color-interpolation-filters="sRGB">
<feFlood flood-opacity="0" result="BackgroundImageFix"/>
<feColorMatrix in="SourceAlpha" type="matrix" values="0 0 0 0 0 0 0 0 0 0 0 0 0 0 0 0 0 0 127 0" result="hardAlpha"/>
<feOffset/>
<feGaussianBlur stdDeviation="4"/>
<feComposite in2="hardAlpha" operator="out"/>
<feColorMatrix type="matrix" values="0 0 0 0 0 0 0 0 0 0 0 0 0 0 0 0 0 0 0.15 0"/>
<feBlend mode="normal" in2="BackgroundImageFix" result="effect1_dropShadow_712_6531"/>
<feBlend mode="normal" in="SourceGraphic" in2="effect1_dropShadow_712_6531" result="shape"/>
</filter>
<filter id="filter1_d_712_6531" x="237" y="36" width="196" height="230" filterUnits="userSpaceOnUse" color-interpolation-filters="sRGB">
<feFlood flood-opacity="0" result="BackgroundImageFix"/>
<feColorMatrix in="SourceAlpha" type="matrix" values="0 0 0 0 0 0 0 0 0 0 0 0 0 0 0 0 0 0 127 0" result="hardAlpha"/>
<feOffset/>
<feGaussianBlur stdDeviation="4"/>
<feComposite in2="hardAlpha" operator="out"/>
<feColorMatrix type="matrix" values="0 0 0 0 0 0 0 0 0 0 0 0 0 0 0 0 0 0 0.2 0"/>
<feBlend mode="normal" in2="BackgroundImageFix" result="effect1_dropShadow_712_6531"/>
<feBlend mode="normal" in="SourceGraphic" in2="effect1_dropShadow_712_6531" result="shape"/>
</filter>
</defs>
</svg>
