<?xml version="1.0" encoding="UTF-8"?>
<svg id="Layer_2" data-name="Layer 2" xmlns="http://www.w3.org/2000/svg" viewBox="0 0 715.7 743.89">
  <defs>
    <style>
      .cls-1 {
        fill: #5d7f5e;
      }
    </style>
  </defs>
  <g id="white_space" data-name="white space">
    <g>
      <g>
        <g>
          <path class="cls-1" d="M547.48,254.86l-.71-.78c4.02-3.18,8.36-6.51,12.95-10.03,33.67-25.87,79.79-61.3,84.07-100.23l1.09.1c-4.33,39.34-50.65,74.93-84.46,100.92-4.59,3.52-8.92,6.85-12.94,10.03Z"/>
          <path class="cls-1" d="M547.56,254.79l-.86-.63c8.95-10.6,19.54-21.22,30.76-32.47,25.26-25.34,51.37-51.54,62.62-81.2l1.04.34c-11.32,29.86-37.52,56.14-62.85,81.55-11.2,11.24-21.78,21.85-30.7,32.41Z"/>
          <path class="cls-1" d="M547.7,252.92l-1.09-.11c5.45-48.99,34.83-107.78,78.55-120.21l.32.98c-43.27,12.3-72.37,70.67-77.78,119.34Z"/>
          <path class="cls-1" d="M547.67,253.05l-1.03-.35c20.09-51.74,46.09-106.13,86.58-117.19l.31.98c-40.02,10.94-65.86,65.06-85.86,116.56Z"/>
          <path class="cls-1" d="M547.61,254.72l-.96-.5c23.4-38.94,60.37-86.71,89.89-116.18l.8.7c-29.46,29.41-66.36,77.11-89.73,115.98Z"/>
        </g>
        <path class="cls-1" d="M694.06,539.93c-8.59,0-17.9-2.19-27.23-5.59-9.09-3.18-16.27-9.12-22.89-15.4-6.06-5.79-12.39-12.35-17.37-18.96-41.43-49.08-56.23-112.52-66.94-174.76-3.03-22.86-7.51-47.4-9.14-71.72,21.97-13.67,48.45-26.51,66.02-42.98,14.99-14.06,30.5-29.38,33.51-50.89,2.44-17.42-18.14-34.1-34.04-32.42-35.71,4.2-57.28,42.27-64.1,74.62-3.29,17.26-5.3,34.7-6.68,52.22-12.95,7.14-25.75,14.33-37.6,22.41-34.3,22.57-70.6,42.27-107.81,59.41-43.7,19.3-89.49,33.84-135.71,45.66-64.48,17.88-130.39,22.19-196.63,23.64L353.06,9.78c.76-1.05,1.17-2.31,1.17-3.61V0H27.34s-.25,93.59-.25,93.59h5.46l.55-3.26C42.93,41.35,83.89,8.16,134.13,8.16h152.92L.04,406.07c0,1.99-.04,10.36-.04,10.39,55.08.14,109.94-.8,164.89-5.74,55.11-5.53,108.88-19.5,160.93-37.98,52.1-18.03,102.01-42.16,148.99-71.02,23.79-14.12,47.19-29.37,70.17-44.7-1.73,23.07-2.42,46.27-3.53,69.36-1.82,60.72-2.21,141.26,35.45,191.89,14.6,19.39,34.11,34.94,58.82,37.16,14.79,1.33,30.71-2.3,44.62-7.32,11.79-4.25,22.88-6.89,34.22-12.47-9.97,2.59-11.89,4.3-20.49,4.3ZM573.96,155.66c43.11-53.4,109.08-5.25,39.94,53.74-18.43,16.91-41.04,29.42-63.55,41.8-2.02-34.15,1.87-67.75,23.61-95.54Z"/>
        <path class="cls-1" d="M435.05,414.54c-.73-.19-1.48-.38-2.22-.54-2.6-20.69-3.68-34.25-5.97-49.51-12.12-73.8-59.23-126.98-134.75-140.6-16.46-3.45-38.3-4.67-54.49-5.01,14.24,1.22,28,6.41,39.05,15.25.96.77,2.26,1.95,3.76,3.44v211.24c-14.89,6.33-29.52,13.29-43.84,20.84-21.49,11.78-82.91,45.37-83.55,71.37,1.26,20.47,55.41,16.11,69.52,15.86,4.64-.08,9.25-.6,13.89-.6h109.97v-5.2s-57.81-19.81-57.81-49.08v-48.95c13.18-5.43,26.55-10.37,40.05-14.85,20.71-6.55,70.08-22.28,99.25-19.25,4.24,10.19,7.01,20.82,12.42,30.62,4.2,6.25,8.81.6,10.37-4.18,4.89-14.31-.81-26.93-15.66-30.85ZM280.43,502c0,20.9-29.02,36.99-45.6,44.47-.28.13-.56.25-.84.38-6.66,2.97-13.78,4.68-21.06,5.05-.68.03-1.36.07-2.04.09-10.75.24-50.09,2.42-51.4-11.23,1.7-18.02,26.69-31.6,38.91-40.39,25.86-17.09,53.47-31.66,82.03-43.91v45.53ZM373.52,418.2c-28.96,6.89-57.36,15.98-84.9,27.19v-198.85c4.95,5.94,10.06,13.05,13.11,19.66,5.71,12.38,11.83,41.04,28.07,62.15,8.23,11.34,27.8,34.06,41.96,43.97,11.99,8.39,47.33,26.42,53.45,40.38-17.32-2-35.08,2.02-51.69,5.49ZM445.54,451.04c-4.73,3.39-7.62-14.37-11.45-32.04,3.78.87,7.05,3.11,9.66,4.97,6.84,5.18,9.66,21.42,1.79,27.07Z"/>
      </g>
      <g>
        <path class="cls-1" d="M34.95,651.33c-3.48,0-6.51.48-9.12,1.43-2.61.96-4.88,2.3-6.84,4.03-1.95,1.74-3.67,3.82-5.14,6.25-1.47,2.43-2.86,5.17-4.16,8.2h-1.7v-21.74h67.44l-52.6,90.87h23.56c3.48,0,6.81-.48,10.03-1.43,3.21-.95,6.19-2.54,8.92-4.75,2.74-2.21,5.12-5.08,7.16-8.59,2.04-3.51,3.62-7.79,4.76-12.82h1.69v29.42H.7l52.34-90.87h-18.1Z"/>
        <path class="cls-1" d="M107.59,715.38c0,3.13.13,6.27.39,9.44.26,3.17.95,6.03,2.08,8.59s2.78,4.67,4.95,6.31,5.2,2.47,9.11,2.47c3.47,0,6.4-.65,8.79-1.95,2.39-1.3,4.34-2.8,5.86-4.49,1.52-1.69,2.65-3.36,3.39-5.01.74-1.65,1.15-2.86,1.24-3.64l1.82.65c-.44,1.65-1.17,3.41-2.22,5.27-1.04,1.87-2.47,3.6-4.29,5.21-1.82,1.61-4.08,2.95-6.77,4.04-2.7,1.08-5.95,1.63-9.76,1.63-4.52,0-8.72-.67-12.63-2.02-3.91-1.34-7.31-3.3-10.22-5.86s-5.19-5.69-6.83-9.37c-1.65-3.69-2.47-7.88-2.47-12.56,0-3.73.78-7.38,2.34-10.94,1.57-3.56,3.71-6.7,6.45-9.44,2.73-2.74,5.94-4.95,9.63-6.64,3.69-1.69,7.66-2.54,11.92-2.54,3.03,0,6.07.48,9.11,1.43,3.03.96,5.77,2.43,8.2,4.43,2.43,2,4.43,4.58,5.99,7.75,1.56,3.17,2.35,6.97,2.35,11.39h-38.41v5.86ZM128.42,698.98c0-.95-.04-2.13-.13-3.52-.09-1.39-.39-2.78-.92-4.17-.52-1.39-1.36-2.56-2.53-3.52-1.17-.95-2.8-1.43-4.88-1.43-2.95,0-5.23.7-6.84,2.08-1.6,1.39-2.8,3.15-3.58,5.27s-1.28,4.43-1.5,6.9c-.22,2.47-.37,4.84-.45,7.09h20.83v-8.72Z"/>
        <path class="cls-1" d="M164.61,740.38v-52.21h-8.59v-1.82h24.22v13.02h.26c.35-.78.95-1.97,1.82-3.58.86-1.61,2.13-3.19,3.78-4.75s3.78-2.93,6.38-4.1,5.86-1.76,9.76-1.76c5.73,0,10.18,1.65,13.35,4.95,3.17,3.3,4.75,7.81,4.75,13.54v36.71h8.72v1.82h-32.67v-1.82h8.07v-41.14c0-3.65-.74-6.31-2.21-8.01-1.47-1.69-3.47-2.54-5.99-2.54-2.08,0-4.08.5-5.99,1.5s-3.58,2.5-5.01,4.49c-1.43,2-2.59,4.47-3.45,7.42-.87,2.95-1.31,6.42-1.31,10.42v27.86h8.2v1.82h-32.68v-1.82h8.59Z"/>
        <path class="cls-1" d="M306.65,649.51l22.52,64.83h.26l22.91-64.83h32.55v1.82h-11.98v89.05h11.98v1.82h-42.7v-1.82h11.85v-89.05h-.26l-32.03,90.87h-2.08l-32.16-90.87h-.26v89.05h11.98v1.82h-26.04v-1.82h11.98v-89.05h-11.98v-1.82h33.46Z"/>
        <path class="cls-1" d="M450.06,743.37c-2.31.35-4.45.52-6.45.52-4.42,0-7.7-.78-9.82-2.34-2.13-1.56-3.45-3.73-3.98-6.51h-.26c-1.39,3.47-3.3,5.81-5.73,7.03-2.43,1.21-5.95,1.82-10.55,1.82-2.08,0-4.21-.22-6.38-.65-2.17-.44-4.17-1.13-5.99-2.09-1.82-.95-3.3-2.28-4.42-3.97-1.13-1.69-1.7-3.75-1.7-6.19s.5-4.62,1.5-6.31c1-1.69,2.3-3.12,3.91-4.3,1.6-1.17,3.42-2.13,5.47-2.86,2.04-.74,4.14-1.45,6.31-2.15,3.56-1.04,6.44-1.93,8.65-2.67,2.22-.74,3.93-1.52,5.14-2.34,1.21-.82,2.06-1.76,2.54-2.8.48-1.04.72-2.39.72-4.04v-7.94c0-2.34-.57-4.47-1.7-6.38-1.13-1.91-3.25-2.86-6.37-2.86-2,0-3.74.46-5.21,1.37s-2.21,2.59-2.21,5.01c0,.26.04.72.13,1.37s.17,1.37.26,2.15c.08.78.18,1.52.26,2.21.08.7.13,1.17.13,1.43,0,1.3-.31,2.32-.91,3.06-.61.74-1.33,1.28-2.15,1.63-.83.35-1.69.54-2.61.58-.91.04-1.67.07-2.28.07-.87,0-1.76-.07-2.67-.19-.91-.13-1.72-.43-2.41-.91s-1.28-1.15-1.75-2.02c-.48-.86-.72-2.04-.72-3.51,0-2.26.63-4.27,1.89-6.05,1.26-1.78,2.93-3.25,5.01-4.43s4.45-2.06,7.1-2.67c2.64-.61,5.4-.91,8.26-.91,3.3,0,6.4.26,9.31.78,2.91.52,5.42,1.48,7.55,2.86,2.13,1.39,3.82,3.28,5.08,5.66,1.26,2.39,1.89,5.4,1.89,9.05v32.29c0,1.65.24,3.1.72,4.36.47,1.26,1.67,1.89,3.58,1.89,1.13,0,2.06-.21,2.8-.65.74-.43,1.45-1.04,2.15-1.82l1.17,1.17c-1.22,1.82-2.98,2.91-5.27,3.25ZM428.77,709.91c-.17.52-.5,1.02-.97,1.5-.47.48-1.32,1.02-2.54,1.63-1.65.78-3.3,1.54-4.95,2.28-1.65.74-3.13,1.67-4.42,2.8-1.31,1.13-2.37,2.52-3.2,4.17-.82,1.65-1.23,3.77-1.23,6.38,0,1.04.06,2.26.19,3.65.13,1.39.48,2.73,1.04,4.03.57,1.3,1.42,2.41,2.54,3.32s2.69,1.37,4.69,1.37c1.13,0,2.23-.26,3.32-.78,1.08-.52,2.06-1.32,2.93-2.41s1.56-2.52,2.09-4.3c.52-1.78.78-3.93.78-6.44v-17.19h-.26Z"/>
        <path class="cls-1" d="M474.01,670.86c1.34.35,2.67.52,3.97.52s2.63-.17,3.98-.52c1.34-.35,2.67-.78,3.97-1.3v16.8h15.24v1.82h-15.24v43.62c0,1.3.08,2.52.26,3.64.17,1.13.5,2.15.97,3.06s1.17,1.63,2.09,2.15c.91.52,2.1.78,3.58.78,1.65,0,3.06-.35,4.23-1.04s2.19-1.58,3.06-2.67c.87-1.08,1.58-2.32,2.15-3.71.56-1.39,1.02-2.73,1.36-4.03l1.96.39c-.53,2.95-1.42,5.32-2.67,7.09-1.26,1.78-2.7,3.15-4.3,4.1-1.61.95-3.32,1.58-5.14,1.89-1.82.3-3.56.46-5.2.46-4.52,0-8.01-.52-10.48-1.56-2.47-1.04-4.29-2.34-5.47-3.91-1.17-1.56-1.84-3.25-2.02-5.08s-.26-3.52-.26-5.08v-40.1h-8.72v-1.82h8.72v-16.8c1.31.52,2.63.96,3.98,1.3Z"/>
        <path class="cls-1" d="M511.7,704.19c1.39-3.47,3.45-6.66,6.19-9.57,2.73-2.91,6.07-5.32,10.03-7.23,3.95-1.91,8.53-2.86,13.73-2.86,3.3,0,6.29.35,8.98,1.04,2.69.7,5.01,1.67,6.97,2.93,1.95,1.26,3.47,2.78,4.55,4.56,1.08,1.78,1.63,3.76,1.63,5.92,0,2.86-.74,4.88-2.21,6.05-1.47,1.17-3.56,1.76-6.25,1.76-2,0-3.84-.37-5.53-1.11-1.69-.74-2.53-2.28-2.53-4.62,0-.35.1-.95.32-1.82.22-.87.43-1.78.65-2.73.21-.96.43-1.87.65-2.74.21-.87.32-1.47.32-1.82,0-1.74-.76-3.1-2.28-4.1s-3.41-1.5-5.66-1.5c-3.12,0-5.6.74-7.42,2.21-1.82,1.48-3.23,3.45-4.23,5.92-1,2.47-1.64,5.34-1.95,8.59-.31,3.25-.46,6.7-.46,10.35,0,3.38.13,6.77.39,10.15.26,3.39.96,6.47,2.09,9.24,1.13,2.78,2.78,5.03,4.95,6.77,2.17,1.74,5.12,2.6,8.85,2.6s6.55-.63,8.98-1.89c2.43-1.26,4.38-2.73,5.86-4.43s2.59-3.38,3.32-5.08,1.19-2.93,1.36-3.71l1.82.65c-.43,1.56-1.1,3.28-2.02,5.14-.91,1.87-2.23,3.6-3.97,5.21-1.74,1.61-3.98,2.97-6.7,4.1-2.74,1.13-6.19,1.69-10.35,1.69-1.13,0-2.72-.11-4.75-.33-2.04-.22-4.25-.7-6.64-1.43-2.39-.74-4.8-1.76-7.23-3.06-2.43-1.3-4.67-3.06-6.7-5.27-2.04-2.21-3.69-4.92-4.95-8.14-1.25-3.21-1.89-7.03-1.89-11.46,0-3.21.7-6.55,2.08-10.02Z"/>
        <path class="cls-1" d="M581.09,740.38v-90.22h-8.59v-1.82h24.48v50.51h.26c.34-.78.93-1.93,1.75-3.45.82-1.52,2.06-3.04,3.71-4.56,1.64-1.52,3.75-2.84,6.31-3.97,2.56-1.13,5.79-1.69,9.7-1.69,5.73,0,10.18,1.65,13.35,4.95,3.17,3.3,4.75,7.81,4.75,13.54v36.71h8.72v1.82h-32.67v-1.82h8.07v-41.14c0-3.65-.74-6.31-2.21-8.01-1.47-1.69-3.47-2.54-5.99-2.54-2.08,0-4.08.5-5.99,1.5-1.91,1-3.58,2.5-5.01,4.49-1.43,2-2.59,4.47-3.45,7.42-.87,2.95-1.3,6.42-1.3,10.42v27.86h8.2v1.82h-32.68v-1.82h8.59Z"/>
        <path class="cls-1" d="M710.43,743.37c-2.3.35-4.45.52-6.44.52-4.42,0-7.7-.78-9.83-2.34s-3.45-3.73-3.97-6.51h-.26c-1.39,3.47-3.3,5.81-5.73,7.03-2.43,1.21-5.94,1.82-10.54,1.82-2.09,0-4.21-.22-6.38-.65-2.17-.44-4.16-1.13-5.98-2.09-1.82-.95-3.3-2.28-4.43-3.97-1.13-1.69-1.69-3.75-1.69-6.19s.5-4.62,1.5-6.31c1-1.69,2.3-3.12,3.9-4.3,1.61-1.17,3.43-2.13,5.47-2.86,2.04-.74,4.14-1.45,6.31-2.15,3.56-1.04,6.45-1.93,8.66-2.67s3.92-1.52,5.14-2.34c1.22-.82,2.06-1.76,2.54-2.8.47-1.04.72-2.39.72-4.04v-7.94c0-2.34-.56-4.47-1.69-6.38s-3.25-2.86-6.38-2.86c-2,0-3.73.46-5.2,1.37-1.48.91-2.21,2.59-2.21,5.01,0,.26.04.72.13,1.37s.17,1.37.26,2.15c.08.78.17,1.52.26,2.21.08.7.13,1.17.13,1.43,0,1.3-.31,2.32-.92,3.06-.61.74-1.32,1.28-2.14,1.63-.83.35-1.7.54-2.6.58-.92.04-1.67.07-2.28.07-.87,0-1.76-.07-2.67-.19-.91-.13-1.71-.43-2.41-.91s-1.28-1.15-1.76-2.02c-.48-.86-.72-2.04-.72-3.51,0-2.26.63-4.27,1.89-6.05,1.25-1.78,2.92-3.25,5.01-4.43s4.45-2.06,7.09-2.67c2.65-.61,5.41-.91,8.27-.91,3.3,0,6.4.26,9.31.78,2.91.52,5.42,1.48,7.55,2.86,2.12,1.39,3.81,3.28,5.08,5.66,1.25,2.39,1.89,5.4,1.89,9.05v32.29c0,1.65.24,3.1.72,4.36.47,1.26,1.67,1.89,3.58,1.89,1.13,0,2.06-.21,2.8-.65.74-.43,1.45-1.04,2.15-1.82l1.17,1.17c-1.21,1.82-2.97,2.91-5.27,3.25ZM689.15,709.91c-.18.52-.5,1.02-.97,1.5-.48.48-1.33,1.02-2.54,1.63-1.65.78-3.3,1.54-4.95,2.28s-3.12,1.67-4.43,2.8c-1.3,1.13-2.36,2.52-3.19,4.17-.83,1.65-1.24,3.77-1.24,6.38,0,1.04.07,2.26.19,3.65s.47,2.73,1.04,4.03c.56,1.3,1.41,2.41,2.54,3.32,1.12.91,2.69,1.37,4.68,1.37,1.13,0,2.24-.26,3.32-.78,1.08-.52,2.06-1.32,2.93-2.41.86-1.08,1.56-2.52,2.08-4.3.52-1.78.78-3.93.78-6.44v-17.19h-.26Z"/>
      </g>
    </g>
  </g>
</svg>