<?xml version="1.0" encoding="UTF-8"?>
<svg id="Layer_2" data-name="Layer 2" xmlns="http://www.w3.org/2000/svg" viewBox="0 0 513.95 505.39">
  <defs>
    <style>
      .cls-1 {
        fill: #fff;
      }
    </style>
  </defs>
  <g id="_ÎÓÈ_1" data-name="—ÎÓÈ_1">
    <g>
      <path d="M433.9,226.28c34.85-10.92,86.12-29.93,79.46-76.08-7.19-49.9-72.8-29.71-102.12-16.29-24.07,11.02-46.22,25.73-68.19,40.38,16.03-18.35,29.36-39.07,39.49-61.23,9.29-20.33,19.48-45.14,18.24-67.94-1.28-23.61-22.19-35.96-44.18-28.26-22.5,7.87-40.12,30.13-53.07,49.18-15.54,22.88-27.03,48.17-38.37,73.3,6.28-30.81,6.01-63.03-.92-93.71-5.1-22.55-22.46-55.86-51.15-42.62-26.73,12.33-27.37,50.32-26.16,75.26,1.55,32.18,10.17,63.49,18.72,94.38-19.02-35.03-41.13-78.43-78.59-97.02-14.44-7.16-36.89-10.56-45.65,6.78-9.41,18.63,5.64,42.08,16.4,56.69,14.95,20.3,34.25,36.84,53.32,53.11-22.67-12.22-47.02-21.32-72.14-27-15.48-3.5-46.15-11.37-53.65,9.33-7.63,21.05,18.67,40.07,33.7,49,20.53,12.21,43.71,19.07,66.48,25.78-26.11.97-52.65,1.96-77.91,9.3-19.88,5.77-45.39,16.82-47.48,40.59-2.22,25.17,25.98,31.48,45.41,32.49,27.28,1.43,54.12-5.95,80.17-13.12-32.9,16.72-79.78,39.17-87.46,79.66-3.59,18.92,6.97,35.6,26.91,36.79,19.69,1.18,39.79-9.26,56.24-18.97,20.98-12.38,39.67-28.67,54.69-47.85-15.02,25.64-30.39,51.87-37.41,81.03-2.86,11.91-4.75,25.93,1.72,37.06,5.82,10.02,17.48,14.43,28.68,13.63,25.47-1.81,44.46-27.39,55.43-48.03,12.42-23.36,18.92-49.32,25.18-74.86,4.34,27.12,8.72,54.55,18.4,80.38,7.09,18.92,19.67,47.71,43.8,47.95,26.9.28,35.82-30.77,36.52-52.31.86-26.55-6.79-53.32-21.61-75.37,30.49,27.86,56.62,78.27,104.82,75.05,19.54-1.31,32.27-15.68,31.97-35.02-.3-19.8-11.51-37.42-23.96-52.02-16.63-19.5-37.78-34.63-59.66-47.69,24.97,11.36,52.47,17.06,79.89,16.67,20.1-.29,52.7-3.56,53.29-30.28.53-24.04-23.45-40.93-43.08-49.14-24.16-10.1-50.87-12.19-76.77-12.9,12.7-7.22,26.63-11.73,40.61-16.11ZM274.31,147.81c2.22-6.06,4.59-12.06,7.05-18.03-.02.04-.03.08-.05.12,13.37-31.68,31.48-61.67,55.24-86.66,1.94-1.88,3.93-3.67,6.02-5.4,2.18-1.67,4.4-3.25,6.71-4.73,3.52-2.05,7.09-3.92,10.82-5.57,1.47-.54,2.93-1.1,4.42-1.57,1.31-.35,2.63-.64,3.97-.87.77-.09,1.53-.15,2.3-.19.76.01,1.51.06,2.27.14.66.11,1.3.24,1.94.4.3.09.59.19.89.3.45.2.89.41,1.33.64.82.51,1.62,1.06,2.4,1.63,2.11,1.71,4.07,3.63,5.81,5.72.56.75,1.09,1.52,1.59,2.32.48.86.91,1.72,1.32,2.61.46,1.15.87,2.31,1.22,3.5.49,1.93.83,3.88,1.12,5.85.18,1.63.29,3.25.32,4.9-.04,2.39-.26,4.76-.49,7.14-.47,3.4-1.04,6.75-1.81,10.09-9.81,34.98-30.7,67.91-53.12,96.17-23.38,29.47-49.51,60.01-82.03,79.73.21-.12.41-.24.61-.36-3.32,1.94-7.95,3.68-6.4,8.51,1.28,3.98,5.3,4.4,8.55,2.8,2.09,2.25,5.77,2.34,7.99.27-.85,1.2-1.16,2.89-.84,4.31-5.83,1.5-11.65,3.04-17.44,4.66-.45-1.24-1.46-2.34-2.62-2.96,6.18-2.64,2.49-8.45-.87-11.1,5.88-2.52,6.15-18.09,7.48-23.69,2.11-8.88,4.41-17.71,6.9-26.49,5.19-18.22,10.89-36.4,17.4-54.19ZM239.6,283.75c-.2-.04-.39-.06-.59-.08.16-.32.32-.64.48-.96.03.35.08.69.11,1.04ZM232.63,243.12c1.07,0,2.05-.29,2.94-.85-.24,1.27-.52,2.54-.73,3.81-1.4-1.12-2.81-2.22-4.21-3.34.64.24,1.31.38,2,.38ZM200.67,100.93c-2.51-18.48-3.95-37.06-1.76-55.66.48-3.14,1.06-6.23,1.76-9.32.46-1.61.96-3.2,1.5-4.79.76-1.75,1.6-3.41,2.54-5.07,1.08-1.75,2.17-3.48,3.39-5.15.56-.69,1.14-1.36,1.74-2.02,1.4-1.37,2.82-2.72,4.33-3.96.7-.51,1.41-.99,2.15-1.44,1.12-.61,2.26-1.17,3.43-1.71.81-.33,1.63-.63,2.47-.9.6-.15,1.19-.28,1.79-.39.68-.08,1.35-.13,2.04-.15.64.03,1.27.08,1.9.15.45.07.9.16,1.34.27.66.2,1.3.41,1.95.66.6.27,1.19.57,1.76.88.56.35,1.1.72,1.64,1.11,3.85,3.12,7.27,6.7,10.46,10.48,1.26,1.66,2.42,3.36,3.54,5.12,1.12,1.93,2.16,3.89,3.13,5.9.86,2.06,1.64,4.14,2.34,6.26,4.08,14.5,4.24,30.95,4.16,45.92-.07,14.9-.89,29.79-2.79,44.57-4.08,31.67-10.46,62.78-16.47,94.11-.6,2.62-1.18,5.25-1.74,7.88-6.6-18.81-13.66-37.5-19.09-56.68.06.23.13.47.19.7-7.09-25.33-13.97-50.67-17.72-76.77ZM105.22,130.83c-3.24-4.28-6.24-8.67-9.07-13.23-1.37-2.48-2.65-4.98-3.81-7.56-.64-1.67-1.24-3.35-1.8-5.05-.67-2.48-1.17-4.96-1.56-7.5.03.22.07.44.1.67-.1-.98-.18-1.95-.22-2.93,0-.9.05-1.8.13-2.69.1-.72.23-1.43.39-2.14.12-.45.26-.89.42-1.33.24-.59.5-1.16.79-1.73.36-.59.73-1.16,1.13-1.72.57-.75,1.15-1.48,1.79-2.18.2-.19.41-.37.63-.55.55-.39,1.11-.75,1.68-1.11.51-.28,1.02-.53,1.54-.77,1.07-.41,2.18-.71,3.32-.91,1.24-.16,2.48-.22,3.74-.26,1.92.02,3.8.11,5.71.27,1.33.22,2.63.47,3.94.75,1.38.41,2.74.85,4.11,1.32,2.15.9,4.24,1.89,6.32,2.96,25.77,15.32,42.87,42.89,57.67,68.12,8.01,13.65,15.85,27.43,22.77,41.67,6.77,13.93,14.95,28.07,19.8,42.8.01.11.03.22.04.33-41.38-33.11-86.07-65.67-119.55-107.22ZM36.73,174.95c.08-.09.15-.18.23-.26-.07.08-.13.15-.2.23.08-.07.16-.14.24-.21-.09.08-.17.15-.26.23-.04.04-.07.08-.11.13.03-.03.05-.06.07-.09-.05.05-.11.1-.16.14.06-.05.11-.11.17-.16ZM90.57,226.32c-11.52-4.21-22.81-9-33.26-15.46-2.51-1.69-4.93-3.45-7.3-5.33-1.86-1.62-3.64-3.28-5.35-5.07-1.63-1.85-3.21-3.73-4.73-5.68-.79-1.2-1.54-2.41-2.25-3.66-.68-1.44-1.35-2.88-1.92-4.37-.27-.79-.5-1.57-.7-2.38-.11-.59-.21-1.17-.29-1.77-.04-.64-.06-1.28-.06-1.93.05-.66.12-1.3.22-1.95.07-.31.14-.62.23-.92.13-.39.28-.77.45-1.15.13-.26.27-.52.42-.77.17-.25.36-.49.56-.73.16-.16.32-.32.48-.48.18-.15.36-.29.54-.43.15-.1.31-.19.47-.28.25-.12.5-.23.75-.33,1.13-.39,2.28-.71,3.43-1.01,1.3-.24,2.59-.42,3.9-.56,34.61-1.93,68.86,15.41,99.38,29.67-.05-.03-.1-.05-.16-.08,15.57,7.39,32.7,15.2,45.67,26.72,6.13,5.44,12.62,8.85,19.54,13.1,7.03,4.31,13.28,10.09,19.72,15.2-3.99-.28-7.98-.64-11.96-1.05-9.91-3.87-22.72-3.57-33.23-4.51-32.02-5.34-64.07-13.65-94.56-24.8ZM92.91,314.95c-15.96,3.39-32.65,6.84-49.04,6.28-3.73-.28-7.41-.68-11.1-1.31-1.79-.4-3.55-.83-5.31-1.32-1.49-.51-2.97-1.05-4.44-1.63-1.27-.62-2.52-1.27-3.76-1.96-1.04-.68-2.05-1.38-3.05-2.12-.84-.72-1.66-1.46-2.46-2.23-.61-.69-1.2-1.39-1.75-2.13-.31-.48-.6-.96-.88-1.45-.1-.22-.2-.44-.29-.66-.1-.3-.19-.61-.27-.91-.13-.65-.24-1.29-.32-1.95-.01-.44,0-.87,0-1.31.06-.79.15-1.56.27-2.34.31-1.29.65-2.56,1.03-3.82.61-1.58,1.29-3.13,2-4.67.6-1.17,1.23-2.32,1.89-3.46.77-1.13,1.57-2.22,2.4-3.31,1-1.11,2.02-2.18,3.08-3.23,1.27-1.12,2.56-2.2,3.89-3.25,1.94-1.35,3.92-2.59,6.01-3.7,1.56-.72,3.12-1.39,4.71-2.01,23.02-7.42,48.21-9.99,72.24-11.57,24.27-1.59,48.78-1.21,73.01.86,11.32,1.87,22.68,3.33,34.09,4.52,1.02.43,2.18.54,3.35.35,3.79.38,7.59.73,11.39,1-43.84,21.45-89.06,36.75-136.68,47.34ZM147.08,381.8c-14.15,12.69-29.31,24.89-46.13,33.87.22-.11.44-.23.67-.34-5,2.5-10.02,4.75-15.3,6.61-1.81.54-3.62,1.06-5.44,1.55-1.43.28-2.85.51-4.3.7-2.79.18-5.59.3-8.39.21-.83-.07-1.64-.18-2.47-.31-2.7-.55-5.39-1.15-8.04-1.94-.44-.15-.87-.33-1.3-.51-.26-.13-.51-.27-.76-.41-1.08-.72-2.12-1.48-3.13-2.29-.27-.24-.53-.49-.78-.75-.4-.49-.77-.98-1.14-1.49-.3-.48-.58-.97-.85-1.47-.14-.32-.28-.66-.4-.99-.47-1.45-.85-2.91-1.19-4.4-.21-1.23-.39-2.45-.55-3.68-.06-1.17-.11-2.32-.09-3.49.19-2.13.48-4.23.81-6.34.25-1.21.54-2.4.89-3.58.34-.97.73-1.91,1.14-2.86,1.32-2.62,2.72-5.18,4.29-7.66,1.32-1.82,2.62-3.48,4.07-5.21,2.83-3.05,5.74-6,8.73-8.89,22.35-19.97,50.11-33.38,76.63-46.81,26.63-13.49,53.97-25.86,81.68-36.97-20.39,35.97-48.19,69.63-78.67,97.46ZM242.15,353.38c-4.14,42.25-18.81,89.62-47.52,121.74-1.81,1.85-3.67,3.61-5.63,5.3-1.54,1.2-3.1,2.33-4.74,3.39-1.6.9-3.22,1.76-4.87,2.57-.89.36-1.79.7-2.7,1.01-1.55.41-3.1.77-4.67,1.08-1.68.27-3.36.48-5.06.62-1.24,0-2.47-.03-3.71-.1-1.52-.15-3.03-.31-4.53-.59-.25-.06-.49-.13-.74-.2-.31-.12-.61-.26-.91-.41-.89-.51-1.73-1.07-2.58-1.64-.98-.76-1.94-1.52-2.86-2.36-.5-.5-.99-1.01-1.45-1.54-.36-.48-.71-.97-1.05-1.48-.4-.69-.78-1.38-1.13-2.1-.28-.65-.52-1.31-.76-1.98-.38-1.35-.72-2.69-1.02-4.06-.31-2.15-.57-4.28-.7-6.45,0-.92.02-1.83.07-2.74.23-2.18.65-4.31,1.1-6.45,7.6-30.69,24.6-58.88,40.46-85.93,15.61-26.65,32.88-52.82,53.43-75.96.7,8.65,1.38,17.31,1.79,25.98,0-.03,0-.06,0-.09.42,10.79.55,21.62-.23,32.4ZM333.14,419.16c1.17,3.97,2.13,7.96,2.97,12,1.59,9.85,1.73,19.73,1.02,29.67-.28,2.3-.59,4.59-.97,6.87-.66,2.85-1.43,5.65-2.31,8.44-.58,1.49-1.17,2.97-1.87,4.41-.34.64-.7,1.26-1.08,1.88-1.25,1.79-2.56,3.5-3.95,5.18-.62.67-1.25,1.31-1.92,1.94-.82.7-1.67,1.36-2.55,1.99-.85.54-1.71,1.04-2.6,1.51-.3.13-.61.26-.91.37-.35.11-.71.2-1.07.28-1.28.21-2.56.33-3.85.41-1.26-.01-2.5-.07-3.75-.17-1.17-.16-2.33-.32-3.48-.54-.91-.23-1.81-.49-2.7-.79-1.14-.44-2.25-.93-3.35-1.47-1.02-.55-2-1.14-2.97-1.77-.88-.62-1.71-1.27-2.54-1.96-.61-.58-1.2-1.17-1.77-1.79-.84-1.03-1.63-2.1-2.38-3.2-16.99-27.13-22.65-60.38-28.14-91.37-5.75-32.46-8.89-65.12-8.77-98.1,17.33,16.95,31.7,37.87,44.68,58.24,13.67,21.46,26.11,43.75,34.27,67.95ZM400.93,344.8c12.19,9.08,22.93,19.58,32.62,31.29,3.91,5.1,7.65,10.25,11.03,15.71,1.44,2.56,2.79,5.14,4.1,7.78.95,2.24,1.74,4.5,2.52,6.8.67,2.35,1.32,4.7,1.78,7.11.38,2.61.52,5.2.37,7.83-.07.64-.17,1.27-.28,1.9-.07.29-.13.58-.22.86-.66,1.69-1.45,3.32-2.3,4.93-.47.74-.93,1.48-1.4,2.23-1.19,1.62-2.39,3.21-3.74,4.71-.56.57-1.13,1.1-1.74,1.62-.62.46-1.25.89-1.91,1.31-.95.54-1.91,1.05-2.91,1.51-1.02.42-2.04.8-3.09,1.14-.98.26-1.96.47-2.96.65-1.59.2-3.19.33-4.78.44-2.35.02-4.7.03-7.04-.16-2.96-.36-5.81-1.04-8.63-1.99-3.56-1.38-7-2.93-10.42-4.63-2.3-1.3-4.47-2.69-6.65-4.18-26.57-19.87-48.21-46.46-68.79-72.22-20.68-25.89-40.04-53.24-61.56-78.4,11.07,2.96,21.82,7.02,32.55,11.02,0,0-.02,0-.03-.01,36.1,13.6,71.95,30.34,103.47,52.75ZM422.91,255.05c12.8,1.8,25.5,4.65,37.78,8.71,8.91,3.3,17.42,7.52,25.33,12.79,1.65,1.22,3.25,2.46,4.84,3.74,1.28,1.18,2.51,2.38,3.73,3.63.99,1.18,1.93,2.38,2.85,3.63.57.88,1.1,1.78,1.59,2.7.36.76.68,1.53.98,2.31.65,1.98,1.26,3.96,1.71,5.99.16.93.27,1.85.36,2.79.04.92.04,1.84.01,2.76-.08.86-.19,1.7-.34,2.55-.18.8-.4,1.58-.65,2.37-.22.57-.45,1.13-.71,1.68-.37.7-.77,1.37-1.19,2.04-.47.65-.95,1.27-1.47,1.88-.87.92-1.8,1.77-2.76,2.61-.6.45-1.2.9-1.79,1.35-1.28.81-2.56,1.57-3.89,2.3-1.5.74-3.04,1.37-4.63,1.89-1.89.54-3.77,1.02-5.68,1.46-3.47.57-6.92.97-10.43,1.21-31.74.89-62.7-9.69-92.43-19.66-32.48-10.89-65.38-22.07-96.51-36.45,46.76-11.63,94.97-21.05,143.27-14.3ZM362.68,238.88c-20.83,5.15-41.61,8.53-62.7,12.17-5.69.57-11.39,1.15-17.08,1.73-5.17.53-12.51.19-17.01,3.02,31.45-29.07,62.61-58.88,98.5-82.51,16.94-11.15,34.91-21.18,53.17-30.01,18.68-9.04,39.55-16.15,60.54-13.65,1.2.2,2.39.43,3.57.73,1.3.41,2.56.89,3.83,1.38,1.57.7,3.11,1.44,4.64,2.22,1.34.81,2.62,1.64,3.91,2.54,2.15,1.72,3.99,3.73,5.7,5.88.62.85,1.19,1.7,1.72,2.6.35.66.67,1.33.98,2.01.43,1.2.78,2.41,1.12,3.63.23.95.42,1.91.56,2.88.06.67.08,1.34.09,2.02-.06,1.46-.17,2.9-.31,4.35-.39,2.5-.91,4.94-1.53,7.39-.57,1.83-1.13,3.64-1.82,5.43-.54,1.23-1.13,2.43-1.78,3.6-.77,1.27-1.61,2.49-2.5,3.69-1.3,1.62-2.67,3.16-4.13,4.63-2.24,2.05-4.51,4.01-6.87,5.93-3.95,2.92-8,5.61-12.19,8.18-34.24,19.14-72.6,30.54-110.42,40.15Z"/>
      <path d="M218.28,266.62c3.76.38,7.53.73,11.3.99-29.57,14.49-59.83,26.82-91.48,35.98-29.76,8.62-62.98,18.65-94.23,17.64-3.73-.29-7.4-.69-11.09-1.31-1.79-.4-3.55-.83-5.32-1.32-1.49-.51-2.96-1.04-4.43-1.63-1.28-.62-2.52-1.27-3.76-1.96-1.04-.68-2.05-1.38-3.06-2.12-.84-.72-1.65-1.46-2.46-2.23-.61-.69-1.2-1.39-1.75-2.13-.31-.48-.61-.96-.88-1.45-.1-.22-.2-.44-.29-.67-.1-.3-.19-.61-.27-.91-.13-.65-.24-1.29-.31-1.95-.02-.44-.01-.87,0-1.3.06-.79.15-1.56.27-2.34.31-1.29.65-2.56,1.03-3.82.61-1.58,1.29-3.13,2-4.67.6-1.17,1.23-2.32,1.89-3.46.77-1.12,1.57-2.22,2.4-3.31,1-1.11,2.02-2.18,3.08-3.23,1.28-1.12,2.58-2.21,3.92-3.27,1.93-1.34,3.9-2.57,5.98-3.67,1.55-.72,3.11-1.39,4.71-2.02,23.02-7.42,48.21-9.99,72.24-11.56,24.23-1.59,48.71-1.23,72.91.85,11.34,1.89,22.74,3.31,34.17,4.53,1.05.45,2.26.57,3.45.36Z"/>
      <path d="M228.55,255.29c.59.47,1.18.94,1.77,1.41-3.97-.27-7.93-.63-11.9-1.05-9.85-3.99-22.93-3.61-33.42-4.54-22.21-3.7-44.16-9.14-65.76-15.45-21.2-6.19-43.06-13.09-61.94-24.81-2.5-1.69-4.93-3.44-7.3-5.33-1.86-1.62-3.64-3.28-5.35-5.07-1.63-1.86-3.21-3.73-4.73-5.68-.8-1.2-1.55-2.4-2.26-3.66-.68-1.44-1.35-2.88-1.92-4.37-.27-.79-.5-1.58-.7-2.38-.11-.58-.21-1.17-.29-1.76-.04-.64-.06-1.28-.06-1.93.05-.66.12-1.3.22-1.95.07-.31.14-.62.23-.92.13-.39.28-.77.44-1.15.25-.52.56-1,.93-1.44.01-.01.03-.03.03-.04.17-.16.34-.34.5-.5.18-.15.36-.29.54-.43.16-.1.31-.19.47-.29,1.31-.61,2.79-.97,4.19-1.33,1.3-.24,2.59-.42,3.9-.56,33.75-1.86,66.95,14.63,96.78,28.46,28.71,13.31,56.07,29.51,78.58,52.02,1.08,2.52,4.51,3.95,7.04,2.75Z"/>
      <path d="M224.72,237.73c.01.11.03.22.05.32-23.25-18.59-46.79-36.91-69.09-56.65-21.51-19.05-44.27-39.2-59.54-63.8-1.37-2.48-2.64-4.98-3.81-7.56-.64-1.68-1.24-3.35-1.8-5.05-.62-2.26-1.11-4.5-1.45-6.82-.1-.97-.18-1.95-.22-2.93.01-.9.05-1.8.13-2.69.1-.72.23-1.43.39-2.14.12-.45.26-.89.42-1.34.24-.59.5-1.16.79-1.73.83-1.4,1.8-2.7,2.91-3.9.21-.19.42-.37.63-.55.55-.39,1.11-.75,1.68-1.11.5-.28,1.02-.53,1.54-.77,1.08-.41,2.18-.71,3.32-.9,1.24-.16,2.48-.22,3.73-.27,1.91.02,3.81.11,5.71.27,1.33.22,2.63.47,3.94.75,1.38.41,2.74.85,4.1,1.32,2.15.9,4.25,1.89,6.32,2.97,12.28,7.27,22.24,17.53,31.15,28.54,0,0,.01.01.02.02,14.46,18.48,26.34,38.69,37.73,59.17,5.88,10.56,11.23,21.35,16.44,32.25,5.09,10.64,11.22,21.37,14.9,32.6Z"/>
      <path d="M258.31,84.33c-.16,50.48-10.65,100.15-21.02,149.34-10.72-30.53-21.27-60.96-28.75-92.49-7.38-31.12-13.39-63.85-9.63-95.9.48-3.14,1.05-6.22,1.76-9.32.46-1.61.96-3.2,1.5-4.79.76-1.75,1.61-3.41,2.54-5.07,1.08-1.75,2.17-3.48,3.39-5.15.56-.69,1.14-1.36,1.74-2.01,1.4-1.37,2.82-2.72,4.33-3.96.7-.51,1.41-.99,2.15-1.44,1.12-.62,2.27-1.17,3.43-1.71.82-.33,1.63-.63,2.47-.9.6-.15,1.19-.28,1.8-.39.68-.08,1.35-.13,2.04-.15.64.03,1.27.08,1.9.15.45.08.9.16,1.34.27.66.2,1.3.42,1.95.66.6.28,1.18.57,1.76.89.56.35,1.1.72,1.64,1.11,3.84,3.12,7.27,6.7,10.45,10.48,1.26,1.66,2.43,3.36,3.55,5.12,1.12,1.93,2.16,3.89,3.13,5.91.87,2.05,1.64,4.13,2.34,6.26,3.85,13.64,3.99,29.05,4.18,43.12Z"/>
      <path d="M390.68,48.02c.17,1.63.29,3.26.32,4.9-.04,2.39-.27,4.76-.49,7.14-.48,3.4-1.04,6.75-1.81,10.09-11.5,40.89-37.48,78.04-64.58,110.11-14.33,16.96-29.16,33.44-46.25,47.68-7.75,6.46-15.67,12.9-24.33,18.11-3.3,1.98-7.96,4.19-5.53,8.99,1.67,3.31,5.37,3.39,8.29,1.97,2.03,2.18,5.86,2.41,8,.26-.85,1.2-1.18,2.88-.85,4.31-5.82,1.49-11.64,3.02-17.44,4.63-.44-1.21-1.45-2.33-2.58-2.94,6.15-2.65,2.43-8.46-.91-11.09,5.99-2.56,6.46-19.45,7.82-25.09,2.36-9.82,4.95-19.59,7.78-29.29,5.55-18.98,11.5-37.96,18.61-56.42,13.84-35.96,33.16-70.09,59.82-98.14,1.94-1.88,3.93-3.67,6.02-5.39,2.18-1.67,4.4-3.25,6.71-4.74,3.53-2.04,7.09-3.91,10.82-5.57,1.47-.55,2.93-1.11,4.42-1.57,1.31-.35,2.63-.64,3.96-.87.77-.09,1.53-.16,2.3-.19.76.01,1.51.05,2.27.14.66.11,1.3.24,1.94.39.3.09.59.19.89.3.45.2.89.42,1.33.64.82.51,1.62,1.06,2.4,1.63,1.27,1.03,2.43,2.16,3.61,3.28.77.79,1.5,1.6,2.2,2.44.56.75,1.09,1.52,1.59,2.32.48.85.91,1.72,1.32,2.61.46,1.15.87,2.31,1.22,3.5.49,1.93.83,3.88,1.13,5.85Z"/>
      <path d="M504.13,153.52c.06.68.09,1.34.09,2.02-.06,1.46-.17,2.9-.31,4.35-.39,2.5-.91,4.94-1.54,7.39-.56,1.83-1.13,3.64-1.82,5.43-.54,1.23-1.13,2.43-1.78,3.6-.77,1.27-1.61,2.49-2.49,3.69-1.3,1.62-2.67,3.16-4.13,4.63-2.25,2.04-4.51,4.01-6.87,5.93-3.95,2.92-8.01,5.61-12.19,8.18-52.93,29.56-114.04,42.28-173.12,52.31-5.69.62-11.39,1.15-17.08,1.74-5.17.53-12.5.19-17.01,3.02,31.45-29.07,62.61-58.87,98.5-82.5,16.94-11.15,34.91-21.18,53.17-30.01,18.68-9.04,39.55-16.16,60.54-13.65,1.2.19,2.39.43,3.57.72,1.3.41,2.56.89,3.82,1.38,1.57.7,3.11,1.44,4.65,2.22,1.34.81,2.62,1.64,3.9,2.55,2.15,1.71,3.99,3.73,5.7,5.88.62.84,1.19,1.7,1.73,2.6.35.66.68,1.33.97,2.01.43,1.2.78,2.41,1.13,3.63.23.95.42,1.9.56,2.88Z"/>
      <path d="M502.08,301.34c.04.92.05,1.84.02,2.76-.08.86-.19,1.7-.34,2.55-.18.8-.39,1.58-.65,2.37-.22.57-.45,1.12-.71,1.68-.37.69-.77,1.37-1.19,2.04-.47.64-.95,1.27-1.47,1.88-.88.92-1.81,1.77-2.75,2.62-.6.45-1.2.9-1.8,1.35-1.28.81-2.56,1.57-3.89,2.3-1.5.74-3.04,1.37-4.62,1.88-1.89.54-3.76,1.02-5.68,1.46-3.46.58-6.91.97-10.42,1.21-31.74.89-62.71-9.69-92.44-19.65-32.48-10.89-65.38-22.08-96.51-36.45,35.02-8.71,70.72-16.48,106.96-16.49,33.93-.01,70.58,4.47,99.42,23.69,1.64,1.22,3.26,2.46,4.84,3.74,1.28,1.18,2.51,2.38,3.73,3.63.99,1.18,1.93,2.38,2.85,3.62.57.88,1.09,1.77,1.58,2.7.36.76.68,1.53.98,2.31.65,1.97,1.26,3.96,1.71,5.99.16.92.28,1.85.36,2.79Z"/>
      <path d="M453.41,417.9c.02,1.14,0,2.27-.06,3.41-.08.69-.18,1.38-.3,2.07.05-.23.11-.46.16-.7-.09.48-.21.94-.36,1.39-.67,1.7-1.45,3.32-2.3,4.93-.47.74-.93,1.49-1.4,2.23-1.19,1.62-2.39,3.21-3.74,4.71-.56.56-1.13,1.1-1.74,1.62-.62.46-1.25.89-1.9,1.31-.95.54-1.91,1.04-2.9,1.51-1.02.42-2.04.8-3.09,1.14-.98.26-1.96.48-2.96.65-1.6.21-3.19.33-4.79.44-2.35.02-4.69.03-7.05-.16-2.96-.36-5.8-1.04-8.63-1.99-3.56-1.38-7.01-2.92-10.42-4.62-2.3-1.29-4.47-2.69-6.65-4.17-26.56-19.9-48.21-46.46-68.79-72.22-20.68-25.9-40.05-53.22-61.56-78.4,11.07,2.96,21.82,7.02,32.56,11.02-.01,0-.02,0-.03,0,49.5,18.63,101.71,42.52,136.09,84.04,3.91,5.1,7.64,10.24,11.03,15.7,1.45,2.56,2.79,5.14,4.1,7.78.95,2.24,1.74,4.5,2.52,6.8.67,2.36,1.32,4.7,1.78,7.11.22,1.47.36,2.94.43,4.42Z"/>
      <path d="M337.43,443.32c.25,5.86.1,11.67-.31,17.52-.28,2.3-.59,4.59-.97,6.87-.67,2.86-1.43,5.65-2.31,8.44-.58,1.49-1.17,2.96-1.87,4.41-.35.64-.7,1.27-1.08,1.88-1.25,1.78-2.56,3.5-3.95,5.18-.62.67-1.25,1.31-1.93,1.94-.82.7-1.67,1.36-2.55,1.99-.85.54-1.71,1.04-2.6,1.51-.3.14-.61.25-.91.36-.35.11-.71.2-1.07.28-1.28.21-2.56.32-3.84.41-1.26-.02-2.5-.08-3.75-.17-1.17-.16-2.33-.32-3.48-.54-.91-.23-1.81-.49-2.7-.78-1.14-.44-2.24-.93-3.34-1.47-1.02-.55-2-1.14-2.97-1.77-.88-.62-1.71-1.27-2.54-1.96-.61-.58-1.2-1.17-1.77-1.79-.84-1.03-1.63-2.1-2.38-3.2-1.75-2.8-3.35-5.64-4.86-8.58-10.66-22.79-16.42-46.58-21.15-71.21-4.91-25.59-8.62-51.35-10.09-77.38,0-.02,0-.04,0-.05-.48-10.74-.81-21.5-.81-32.26,17.33,16.95,31.7,37.86,44.68,58.24,13.67,21.46,26.11,43.75,34.26,67.95,1.17,3.97,2.13,7.96,2.97,12,.65,4.04,1.05,8.07,1.33,12.16Z"/>
      <path d="M242.38,321.07c1.11,28.57-2.4,55.75-10.91,83.06-7.99,25.65-18.75,50.74-36.83,70.98-1.82,1.84-3.67,3.61-5.63,5.31-1.54,1.2-3.1,2.33-4.74,3.39-1.6.9-3.22,1.76-4.87,2.57-.89.36-1.78.7-2.7,1.01-1.55.41-3.1.77-4.67,1.08-1.68.27-3.36.48-5.06.62-1.24,0-2.47-.03-3.71-.1-1.53-.15-3.03-.31-4.53-.59-.25-.07-.49-.13-.74-.21-.31-.12-.61-.26-.91-.41-.89-.51-1.74-1.07-2.58-1.64-.98-.76-1.94-1.53-2.86-2.36-.5-.5-.99-1.01-1.45-1.55-.37-.48-.71-.97-1.05-1.48-.4-.69-.78-1.38-1.14-2.1-.28-.65-.52-1.31-.76-1.98-.38-1.35-.71-2.69-1.02-4.06-.31-2.15-.57-4.28-.69-6.45,0-.91.02-1.82.07-2.74.23-2.17.65-4.3,1.1-6.45,7.63-30.69,24.6-58.86,40.46-85.93,15.61-26.64,32.87-52.83,53.43-75.96.67,8.66,1.38,17.31,1.78,25.99Z"/>
      <path d="M224.91,284.68c.28-.11.56-.23.84-.34-16.13,28.56-37.36,55.14-59.81,78.94-22.11,23.45-48.78,47.74-79.62,58.67-1.81.54-3.62,1.06-5.44,1.55-1.43.28-2.84.51-4.29.7-2.8.18-5.59.3-8.39.21-.83-.07-1.64-.18-2.47-.31-2.7-.55-5.4-1.15-8.04-1.94-.44-.16-.87-.33-1.3-.52-.25-.12-.51-.26-.76-.41-1.08-.71-2.13-1.48-3.13-2.29-.27-.24-.52-.49-.78-.75-.39-.49-.77-.98-1.14-1.49-.3-.48-.58-.97-.85-1.47-.14-.32-.28-.65-.4-.99-.48-1.45-.85-2.91-1.19-4.4-.22-1.22-.39-2.44-.55-3.68-.06-1.16-.11-2.32-.09-3.49.18-2.13.48-4.23.81-6.34.25-1.21.54-2.4.89-3.58.35-.97.73-1.91,1.14-2.86,1.33-2.62,2.72-5.18,4.29-7.66,1.3-1.8,2.64-3.51,4.07-5.21,2.83-3.05,5.74-5.99,8.73-8.89,21.97-19.66,49.25-32.94,75.35-46.16,26.8-13.58,54.28-26,82.13-37.29Z"/>
      <path class="cls-1" d="M224.66,296.93c-19.67-8.44-22.96-30.46-12.88-47.69,4.63-7.92,11.56-15.69,20.39-18.86,9.58-3.43,19.19.76,27.43,5.72,36.38,21.87.93,76.23-34.95,60.83Z"/>
    </g>
  </g>
</svg>