<?xml version="1.0" encoding="UTF-8"?>
<svg id="Layer_2" data-name="Layer 2" xmlns="http://www.w3.org/2000/svg" viewBox="0 0 513.95 515.78">
  <defs>
    <style>
      .cls-1 {
        fill: #fff;
      }
    </style>
  </defs>
  <g id="_ÎÓÈ_1" data-name="—ÎÓÈ_1">
    <g>
      <path class="cls-1" d="M201.23,150.78c1.54-33.92,9.92-65.62,22.42-96.23,4.85-11.88,10.39-23.29,19.25-33.03,11.09-12.2,21.62-25.03,40.71-20.64,23.23,5.34,36.28,21.96,40.76,43.64,3.55,17.16,2.33,35.3,3.38,56.04,8.58-6.56,16.03-11.42,22.52-17.35,22.45-20.49,49.24-23.41,76.66-16.32,9.49,2.45,16.89,12.77,18.52,25.46,3.53,27.47-1.05,52.67-16.77,75.58-3.85,5.6-9.69,10.13-7.98,19.14,13.42,3.36,25.88-4.91,39.43-5.26,23.36-.62,39.49,7.1,49.59,28.54,9.58,20.34,1.41,37.59-10.26,52.3-20.8,26.25-49.2,41.28-82.25,47.25-4.13.75-8.21,1.79-12.12,2.66-1.43,8.68,4.83,11.21,10,13.6,25.27,11.69,38.46,33.78,48.22,57.8,11.53,28.36-6.71,57.66-37.02,59.72-29.01,1.97-55.45-5.32-75.92-27.94-3.87-4.28-7.8-9.14-16.31-8.76-4.21,8.82.1,17.5,1.87,26.27,4.02,19.9,3.17,39.44-5.45,58.11-12.17,26.35-30.27,31.45-55.14,14.97-19.49-12.92-34.16-29.9-41.56-52.73-1.44-4.43-1.37-10.51-8.34-13.38-5.67,10.14-12.27,20.03-16.92,30.77-5.04,11.62-13.96,19.23-22.97,27.14-10.1,8.87-22.63,12.28-33.2,4.94-9.95-6.9-20.61-13.01-20.4-31.31.27-23.46.54-46.81,4.78-71.57-12.64,3.37-21.61,10.01-32.3,12.68-10.42,2.61-20.36,3.31-30.41.33-22.93-6.8-30.14-25.57-22.48-48.18,9.29-27.4,28-45.23,58.46-60.94-28.72-4.47-50.13-11.29-69.91-22.63-15.4-8.83-26.79-21.31-35.09-36.66-10.28-19.01-4.27-35.55,13.66-47.96,24.83-17.17,50.48-10.12,76.36-5.62,5.63.98,10.69,5.63,18.1,2.27-.69-9.05-8.36-13.72-12.68-20.42-16.07-24.92-29.46-49.56-17.08-81.7,11.38-29.52,35.04-31.83,53.68-17.64,21.81,16.61,36.94,37.78,50.67,60.65,3.27,5.44,3.06,13.54,13.5,16.41ZM404.39,109.12c-21.01,9.01-37.02,18.92-48.77,35.72-13.73,19.64-30.26,37.44-42.83,57.74-9.54,15.4-21.16,13.77-34.47,10.31-19.76-5.15-22.68-9.86-13.3-28.38,19.32-38.14,19.6-79.25,20.81-120.28.16-5.48.46-12.12-5.19-16.39-7.27.05-11.47,6.23-12.96,10.64-6.2,18.4-13.11,37.09-15.28,56.19-2.68,23.56-5.75,47.19-7.23,70.86-.87,13.79-8.75,21.97-18.12,28.47-21.55,14.94-22.04,13.25-30.95-11.31-14.79-40.8-36.36-77.47-73.06-103.08-3.56-2.48-7.33-5.96-11.45-3.22-3.85,2.57-3.24,7.2-1.99,11.65,7.73,27.35,18.1,52.89,39,73.62,13.92,13.82,25.77,29.75,35.26,47.27,3.85,7.11,7.23,14.22,2.5,21.23-6.03,8.95-15.99,10.17-25.25,6.65-11.94-4.55-22.98-11.45-34.83-16.29-28.26-11.54-57.3-18.72-91.99-15.33,11.56,16.98,19.57,30.5,37.05,35.02,29.66,7.68,59.15,16.03,88.71,24.12,12.85,3.52,14.86,7.57,11.57,19.9-3.67,13.76-14.86,18.34-26.34,21.86-23.91,7.32-42.14,22.54-58.84,40.19-3.52,3.72-8.33,7.48-5.46,13.17,3.58,7.11,10.24,4.45,15.96,3.23,11.31-2.41,20.45-8.65,28.43-16.8,10.23-10.44,20.87-20.49,30.64-31.34,7.12-7.9,14.38-6.54,23.24-3.96,11.31,3.29,7.38,11.89,7.85,18.82.28,4.18-.76,8.56-1.83,12.69-5.79,22.34-12.66,44.44-17.31,67.01-2.4,11.66-6.7,23.76-4.04,37.96,7.09-2.66,9.81-7.01,12.59-11.12,10.16-15.06,14.81-32.45,20.43-49.39,6.75-20.32,13.5-40.66,19.64-61.17,3.16-10.56,8.85-11.3,17.21-6.43,9.83,5.73,17.31,11.51,16.88,25.58-.64,20.54,4.41,40.96,12.72,59.72,7.53,16.99,12.81,36.3,32.05,48.24,1.66-20.97,3.51-39.36.94-58.28-2.87-21.09-1.4-42.49-8.9-63.29-5.03-13.95,1.48-20.92,16.32-26.95,14-5.69,17.55,2.59,22.18,12.99,16.5,37.04,50.46,54.13,84.08,71.1,6.36,3.21,14.15.53,18.51-5.31,4.53-6.05-1.3-11.58-4.14-16.25-14.05-23.06-31.14-43.04-57.35-53.22-8.79-3.41-17.65-7.02-25.69-11.85-8.2-4.91-15.42-11.42-12.79-22.89,2.57-11.21,9.24-17.35,20.83-19.73,16.99-3.49,34.09-3.16,51.21-3.7,33.12-1.05,57.75-15.92,74.67-44.27-6.82-5.81-13.06-6.29-20.25-4.36-27.91,7.47-56.17,13.91-83.1,24.47-31.06,12.18-30.67,12.6-46.92-15.91-4.16-7.31-3.13-10.8,3.3-16.99,31.41-30.24,62.58-60.99,76.08-108.93Z"/>
      <path class="cls-1" d="M248.62,258.49c8.23,1.9,16.16,3.17,16.45,11.68.25,7.52-1.85,15.7-11.82,16.51-9.13.74-16.18-5.63-17.1-12.72-.89-6.92,6.32-12.58,12.47-15.47Z"/>
    </g>
  </g>
</svg>