<?xml version="1.0" encoding="UTF-8"?>
<svg id="Layer_2" data-name="Layer 2" xmlns="http://www.w3.org/2000/svg" viewBox="0 0 182.26 276.23">
  <defs>
    <style>
      .cls-1 {
        fill: #010101;
      }

      .cls-2 {
        fill: #ccc;
      }

      .cls-3 {
        fill: #fff;
      }
    </style>
  </defs>
  <g id="Layer_1-2" data-name="Layer 1">
    <g>
      <path class="cls-1" d="M95.47,4.44c9.49-5.86,22.14-5.84,31.82-.43,8.15,4.87,14.01,12.87,17.73,21.48,5.25,12.28,7,25.81,6.73,39.09-.35,17.45-3.73,34.61-6.3,51.82,12.1,2.82,24.85,8.12,31.61,19.16,5.46,8.52,6.01,19.13,4.38,28.86-2.32,13.52-5.41,27.05-11.04,39.61-6.01,13.68-14.95,26.41-27.2,35.18-7.13,5.21-15.37,8.66-23.78,11.2-2.08,7.62-7,14.53-13.96,18.39-14.54,7.8-32,9.27-47.9,5.28-10.51-2.69-21.03-7.29-28.31-15.62-4.75-5.17-7.65-12.35-6.41-19.41-10.32-5.2-18.47-14.93-20.86-26.34-3.74-17.1-1.71-34.84,1.95-51.76,3.1-13.56,5.97-27.49,13.07-39.64,5.02-8.77,12.45-16.37,21.71-20.63,8.52-3.75,18.14-3.53,27.15-2.06,6.77-4.72,14.81-8.25,23.26-7.5.12-15.27-.15-30.76-4.17-45.59-2.18-7.83-3.22-16.23-1.23-24.22,1.67-6.79,5.7-13.17,11.73-16.87ZM108.21,9.89c-4.07.62-8.3,2.05-10.99,5.32-4.02,4.91-5.26,11.52-4.82,17.71.25,5.09,2.07,9.89,2.99,14.86,4.62,22.2,4.13,45.24.37,67.54-2.1,11.29-5.56,23.05-13.64,31.58,2.23-11.43,4.27-22.95,5.02-34.6.58-3.48.73-7.01,1-10.52-4.19-.24-8.45.32-12.28,2.1l.12.07c-3.41,1.94-6.26,4.69-9.03,7.44-9.81,10.2-15.93,23.14-22.51,35.49-.16-10.78,2.71-21.68,8.5-30.81,1.9-2.98,3.72-6,5.67-8.95-5.17-.05-10.5.07-15.39,1.99-3.23,1.26-6.01,3.43-8.61,5.67-8.85,7.89-14.02,19.05-17.11,30.31-4.64,17.94-8.68,36.44-7.11,55.08.58,5.67,1.18,11.52,3.77,16.68,3.05,6.3,8.38,11.49,14.85,14.22,20.65,9.24,43.43,13.29,65.99,13.06,16.54-.37,33.59-4.38,46.98-14.5,7.59-6.2,13.17-14.54,17.36-23.33,6.25-13.28,9.47-27.71,12.33-42.03,1.66-8.48,1.26-17.99-4-25.21-5.63-7.63-15.02-11.02-23.88-13.27-.57,2.88-1.09,5.77-1.62,8.67-1.01,5.76-1.71,11.55-2.45,17.35,4.11-2.07,8.82-2.64,13.34-1.9-3.67,3.43-8.37,5.61-11.68,9.42-1.17,1.42-2.45,3.04-2.29,4.99-.14,7.71-.04,15.51,1.51,23.1-.11,1.18-.22,2.36-.33,3.54-3.41-3.78-6.03-8.2-8.27-12.74-2.45-12.76-2.73-25.93-.32-38.72,3.63-23.28,8.7-46.38,10.23-69.94.79-16.18-1.01-33.23-9.48-47.39-4.94-8.18-14.49-14.11-24.26-12.28ZM33,242.95c1.26,9.81,9.66,16.43,18.11,20.26,13.35,5.93,29.17,6.94,42.87,1.59,5.84-2.23,11.13-6.36,13.78-12.13-1.38.27-2.84.23-4.14.8-5.65-.11-11.3.24-16.95-.06-16.23-.5-32.32-3.39-47.78-8.29-1.86-.97-3.93-1.46-5.89-2.17Z"/>
      <path class="cls-3" d="M97.23,15.21c2.69-3.28,6.92-4.71,10.99-5.32,1.26.18,2.65.28,3.59,1.29,4.16,3.62,8.57,7.29,11.04,12.33,3.78,7.61,5.71,16.02,6.74,24.42,1.77,15.48,1.3,31.1.47,46.62-1.05,15.34-2.39,30.74-5.91,45.73-1.78,9.53-1.6,19.68,1.98,28.79,1.4,3.36,2.94,6.85,5.9,9.14,2.24,4.54,4.86,8.97,8.27,12.74.11-1.18.22-2.36.33-3.54,4.48-7.13,6.49-15.59,11.63-22.35,3.57-5.15,8.87-8.66,14.14-11.85-.97-4.92-4.24-9.09-8.18-12.05-4.7-3.52-10.36-5.39-16.01-6.7.53-2.89,1.05-5.79,1.62-8.67,8.86,2.25,18.25,5.65,23.88,13.27,5.26,7.22,5.66,16.72,4,25.21-2.86,14.32-6.08,28.75-12.33,42.03-4.18,8.79-9.76,17.12-17.36,23.33-13.39,10.11-30.44,14.13-46.98,14.5-22.56.23-45.34-3.82-65.99-13.06-6.46-2.74-11.79-7.92-14.85-14.22-2.59-5.16-3.19-11.01-3.77-16.68-1.57-18.64,2.47-37.14,7.11-55.08,3.09-11.26,8.26-22.42,17.11-30.31,2.59-2.24,5.38-4.41,8.61-5.67,2.17.12,4.48-.17,6.55.62,2.02,1.46,2.46,4.11,3.16,6.34-5.79,9.12-8.66,20.03-8.5,30.81,6.58-12.35,12.69-25.29,22.51-35.49,2.77-2.74,5.62-5.5,9.03-7.44,4.36,1.85,8.18,4.67,11.15,8.36-.75,11.64-2.79,23.17-5.02,34.6,8.08-8.52,11.54-20.28,13.64-31.58,3.76-22.3,4.24-45.34-.37-67.54-.92-4.97-2.74-9.77-2.99-14.86-.44-6.2.8-12.81,4.82-17.71Z"/>
      <path class="cls-3" d="M33,242.95c1.95.72,4.03,1.2,5.89,2.17,5.6,10.15,17.12,15.34,28.13,17.12,12.58,2.25,27.09.49,36.6-8.77,1.3-.57,2.76-.53,4.14-.8-2.65,5.76-7.94,9.9-13.78,12.13-13.71,5.35-29.52,4.34-42.87-1.59-8.45-3.83-16.85-10.45-18.11-20.26Z"/>
      <path class="cls-2" d="M108.21,9.89c9.77-1.83,19.32,4.1,24.26,12.28,8.47,14.15,10.27,31.2,9.48,47.39-1.53,23.56-6.6,46.66-10.23,69.94-2.41,12.79-2.14,25.96.32,38.72-2.97-2.29-4.51-5.78-5.9-9.14-3.58-9.12-3.76-19.26-1.98-28.79,3.53-14.99,4.87-30.4,5.91-45.73.82-15.52,1.3-31.15-.47-46.62-1.04-8.4-2.96-16.81-6.74-24.42-2.48-5.05-6.89-8.72-11.04-12.33-.94-1.01-2.34-1.11-3.59-1.29Z"/>
      <path class="cls-2" d="M75.89,103.89c3.83-1.78,8.08-2.34,12.28-2.1-.27,3.51-.42,7.04-1,10.52-2.98-3.69-6.79-6.5-11.15-8.36l-.12-.07Z"/>
      <path class="cls-2" d="M43.26,109.11c4.88-1.92,10.21-2.04,15.39-1.99-1.95,2.94-3.78,5.97-5.67,8.95-.7-2.23-1.14-4.87-3.16-6.34-2.07-.79-4.38-.51-6.55-.62Z"/>
      <path class="cls-2" d="M142.21,134.47c5.65,1.31,11.31,3.19,16.01,6.7,3.94,2.96,7.21,7.13,8.18,12.05-5.27,3.19-10.57,6.7-14.14,11.85-5.14,6.76-7.14,15.22-11.63,22.35-1.56-7.58-1.65-15.39-1.51-23.1-.16-1.95,1.11-3.57,2.29-4.99,3.32-3.82,8.02-6,11.68-9.42-4.52-.73-9.23-.17-13.34,1.9.74-5.8,1.45-11.59,2.45-17.35Z"/>
      <path class="cls-2" d="M38.89,245.12c15.46,4.9,31.55,7.79,47.78,8.29,5.65.3,11.3-.05,16.95.06-9.51,9.26-24.02,11.03-36.6,8.77-11.01-1.79-22.53-6.97-28.13-17.12Z"/>
    </g>
  </g>
</svg>