<?xml version="1.0" encoding="UTF-8"?>
<svg id="Layer_2" data-name="Layer 2" xmlns="http://www.w3.org/2000/svg" xmlns:xlink="http://www.w3.org/1999/xlink" viewBox="0 0 469 402.11">
  <defs>
    <style>
      .cls-1 {
        fill: #f9b491;
      }

      .cls-2 {
        fill: #421803;
      }
    </style>
  </defs>
  <g id="Layer_1-2" data-name="Layer 1">
    <g>
      <image width="620" height="773" transform="translate(0 106.91) scale(.38)" xlink:href="../../../../../../../Project 1- tim hortons/donut illustration.png"/>
      <image width="578" height="865" transform="translate(255 79.91) scale(.37)" xlink:href="../../../../../../../Project 1- tim hortons/coffeeillustration.png"/>
      <g>
        <g>
          <path class="cls-1" d="M243.06,108.15c-6.76-15.48-15.71-29.93-24.94-44.04-1.15-4.5,6.07-5.75,9.49-5.01,12.4,2.68,20.23,27.22,19.89,38.39-.05,1.54-1.74,12.62-4.45,10.65Z"/>
          <path class="cls-1" d="M213.22,65.52c6.24,9.06,12.1,18.51,17.43,28.14,2.77,5,6.46,11.32,8.59,16.48.38.91,1.36,1.22.15,2.09-7.42,4.14-18.69-10.06-22.43-15.19-5.94-8.14-17.14-25.22-3.73-31.52Z"/>
        </g>
        <g>
          <path class="cls-2" d="M240.11,109.62c-6.76-15.48-15.71-29.93-24.94-44.04-1.15-4.5,6.07-5.75,9.49-5.01,12.4,2.68,20.23,27.22,19.89,38.39-.05,1.54-1.74,12.62-4.45,10.65Z"/>
          <path class="cls-2" d="M210.27,66.99c6.24,9.06,12.1,18.51,17.43,28.14,2.77,5,6.46,11.32,8.59,16.48.38.91,1.36,1.22.15,2.09-7.42,4.14-18.69-10.06-22.43-15.19-5.94-8.14-17.14-25.22-3.73-31.52Z"/>
        </g>
      </g>
      <g>
        <g>
          <path class="cls-1" d="M266.29,52.51c8.14-14.8,14.13-30.71,19.67-46.63,2.86-3.66,8.26,1.3,9.76,4.47,5.44,11.46-9.22,32.63-18.28,39.18-1.25.9-11.06,6.32-11.15,2.98Z"/>
          <path class="cls-1" d="M281.86,2.85c-3.37,10.47-7.28,20.88-11.66,30.98-2.27,5.24-5.02,12.02-7.82,16.86-.49.85-.14,1.82-1.57,1.4-7.81-3.35-3.43-20.95-1.65-27.04,2.82-9.67,9.52-28.97,22.7-22.19Z"/>
        </g>
        <g>
          <path class="cls-2" d="M263.32,51.07c8.14-14.8,14.13-30.71,19.67-46.63,2.86-3.66,8.26,1.3,9.76,4.47,5.44,11.46-9.22,32.63-18.28,39.18-1.25.9-11.06,6.32-11.15,2.98Z"/>
          <path class="cls-2" d="M278.89,1.41c-3.37,10.47-7.28,20.88-11.66,30.98-2.27,5.24-5.02,12.02-7.82,16.86-.49.85-.14,1.82-1.57,1.4-7.81-3.35-3.43-20.95-1.65-27.04,2.82-9.67,9.52-28.97,22.7-22.19Z"/>
        </g>
      </g>
    </g>
  </g>
</svg>