<svg width="57" height="55" viewBox="0 0 57 55" fill="none" xmlns="http://www.w3.org/2000/svg">
<rect y="10" width="44" height="45" rx="8" fill="#FBF8F0" fill-opacity=".2" />
<rect x="6.5" y="1.5" width="49" height="49" rx="13.5" stroke="#ffffff" stroke-width="3"/>
<path d="M26.1542 50.8349C26.8174 50.5668 27.0305 50.056 27.0169 49.3687C26.9922 48.093 27.0097 46.8164 27.0097 45.4864C26.6809 45.5372 26.4405 45.5794 26.1987 45.611C24.9323 45.7769 23.6676 45.7228 22.4299 45.4359C21.0203 45.1091 19.9927 44.2968 19.3981 42.9279C19.0554 42.1393 18.629 41.3739 18.139 40.6681C17.8313 40.2252 17.3336 39.9149 16.9253 39.5402C16.6572 39.2942 16.3647 39.065 16.1411 38.7824C15.8931 38.4684 15.9729 38.2982 16.3739 38.196C17.0833 38.0156 17.7432 38.2082 18.3724 38.5205C19.3189 38.9908 20.0494 39.6936 20.5827 40.6091C21.1302 41.5487 21.858 42.322 22.9015 42.6812C24.2599 43.1485 25.5959 42.9015 26.8929 42.3761C26.9688 42.3454 27.0466 42.2356 27.0615 42.1515C27.2521 41.0926 27.6267 40.1226 28.4476 39.3387C27.5087 39.163 26.6232 39.0452 25.7634 38.8269C23.4423 38.2379 21.3716 37.2136 19.9874 35.157C19.0004 33.6901 18.5172 32.0266 18.3151 30.2863C18.1469 28.8382 18.0967 27.3868 18.4401 25.9472C18.7563 24.6208 19.3486 23.4382 20.245 22.4142C20.4419 22.1893 20.4844 22.0049 20.3842 21.7157C19.7464 19.8748 19.9917 18.0679 20.6572 16.29C20.6952 16.1887 20.8719 16.0654 20.9732 16.0746C21.5375 16.1264 22.1228 16.1379 22.6554 16.3074C24.0158 16.7398 25.3159 17.3265 26.4965 18.1424C26.7989 18.3511 27.0723 18.3983 27.4361 18.307C30.8795 17.4399 34.3287 17.4409 37.7711 18.3126C38.1223 18.4016 38.3812 18.3449 38.6714 18.1562C40.0447 17.2645 41.4925 16.5281 43.0887 16.1171C43.117 16.1099 43.145 16.1007 43.1741 16.0947C44.2789 15.8695 44.4616 15.9902 44.7795 17.0735C45.2508 18.6793 45.3296 20.2775 44.7676 21.8819C44.7271 21.9977 44.7788 22.2011 44.8636 22.2974C46.7579 24.4516 47.1932 27.0006 46.9301 29.7537C46.7648 31.4834 46.3592 33.1364 45.5097 34.6656C44.6215 36.2644 43.2318 37.2785 41.6227 38.0542C40.1439 38.7669 38.56 39.0508 36.9555 39.2682C36.8991 39.2757 36.8437 39.2873 36.7425 39.3044C36.8315 39.4143 36.8972 39.5033 36.9714 39.5851C37.7144 40.404 38.1045 41.394 38.1372 42.4708C38.2074 44.777 38.2104 47.0855 38.2074 49.3934C38.2064 50.0639 38.3977 50.5609 39.0339 50.8353H26.1535L26.1542 50.8349Z" stroke="#ffffff" stroke-width="2.5"/>
</svg>
