<svg width="58" height="52" viewBox="0 0 58 52" fill="none" xmlns="http://www.w3.org/2000/svg">
<rect y="6" width="44" height="44" rx="8" fill="#FBF8F0" fill-opacity=".2"/>
<rect x="7.5" y="1.5" width="49" height="49" rx="13.5" stroke="#ffffff" stroke-width="3"/>
<path d="M31.75 34.7306L31.3486 19.9166C31.3486 19.4544 31.5067 19.0774 31.823 18.7855C32.1392 18.4936 32.4554 18.3477 32.7717 18.3477C33.5501 18.3477 34.0001 18.676 34.1217 19.3328C34.219 19.9896 34.2676 20.6707 34.2676 21.3761C35.5812 19.649 37.2231 18.7855 39.1935 18.7855C42.2098 18.7855 43.7179 22.2275 43.7179 29.1115C43.7179 29.744 43.7179 30.7048 43.7179 31.994C43.7179 33.2589 43.645 34.1833 43.499 34.7671C43.3287 35.4968 42.8057 35.8617 41.93 35.8617C41.3462 35.8617 41.0543 35.4725 41.0543 34.6941L41.0908 32.6508C41.0908 29.8291 40.9935 27.9074 40.7989 26.8858C40.6287 25.8398 40.4584 25.0127 40.2881 24.4046C39.8746 23.091 39.2056 22.4343 38.2813 22.4343C37.065 22.4343 36.2137 22.8721 35.7272 23.7478C35.192 24.6965 34.8758 25.8155 34.7785 27.1047C34.6082 29.3669 34.5231 31.7629 34.5231 34.2927C34.5231 34.7792 34.3406 35.1684 33.9757 35.4603C33.6109 35.7522 33.173 35.8982 32.6622 35.8982C32.0541 35.8982 31.75 35.509 31.75 34.7306Z" fill="#ffffff"/>
<path d="M23.9703 13C24.4082 13 24.8217 13.2068 25.2109 13.6203C25.6001 14.0338 25.7947 14.4717 25.7947 14.9338C25.7947 15.3717 25.5758 15.8217 25.1379 16.2839C24.7244 16.7461 24.2866 16.9772 23.8244 16.9772C23.3622 16.9772 22.9365 16.7826 22.5473 16.3933C22.1824 16.0041 22 15.5055 22 14.8974C22 13.7298 22.6325 13.0973 23.8974 13C23.9217 13 23.946 13 23.9703 13ZM25.5028 32.1195L25.5393 34.6736C25.5393 35.1358 25.3569 35.525 24.992 35.8413C24.6271 36.1332 24.2379 36.2791 23.8244 36.2791C23.2163 36.2791 22.9 35.975 22.8757 35.3669C22.5595 27.6072 22.4014 23.3138 22.4014 22.4868C22.4014 21.6597 22.4379 20.6502 22.5108 19.4583C22.5595 19.0205 22.8392 18.8015 23.35 18.8015C24.6393 18.8015 25.369 19.3245 25.5393 20.3705C25.6123 20.9057 25.6488 21.3313 25.6488 21.6476L25.5028 23.9463V32.1195Z" fill="#ffffff"/>
</svg>
