<?xml version="1.0" encoding="UTF-8"?>
<svg id="Layer_2" data-name="Layer 2" xmlns="http://www.w3.org/2000/svg" viewBox="0 0 68.86 86.36">
  <g id="Layer_2-2" data-name="Layer 2">
    <path d="M62.19,0l.24,6.54,5.61.11.81,1.33-.84,78.38h-18.05l-.24-6.54-5.87-.55v-6.51s-6.11,0-6.11,0l-.32-6.52h-6.35s0,6.52,0,6.52h-6.12s0,6.51,0,6.51l-5.87.55-.24,6.54H.81L0,7.38l1.12-.65,5.28-.19.24-6.54h55.55ZM56.08,6.51H12.75l-.27,6.56-5.84.54v66.25h6.11s0-7.1,0-7.1h6.12s0-6.51,0-6.51h6.12s0-6.5,0-6.5h18.89v6.51s6.11,0,6.11,0v6.51s6.11,0,6.11,0v7.1c1.36-.25,6.22.73,6.6-.94l-.49-65.32-5.87-.55-.24-6.54Z"/>
  </g>
</svg>