<?xml version="1.0" encoding="UTF-8"?>
<svg id="Layer_2" data-name="Layer 2" xmlns="http://www.w3.org/2000/svg" viewBox="0 0 118.26 118.26">
  <g id="Layer_2-2" data-name="Layer 2">
    <g>
      <path d="M29.57,9.65c0,3.32,0,6.65,0,9.96-3.32,0-6.65-.02-9.96,0,.02-3.32,0-6.65,0-9.96,3.32,0,6.65.02,9.96,0Z"/>
      <path d="M29.57,9.65c0-3.21,0-6.44,0-9.65h59.13c0,3.21,0,6.44,0,9.65-19.7-.1-39.43-.1-59.13,0Z"/>
      <path d="M88.7,9.65c3.32.02,6.65-.01,9.96,0,0,3.32-.02,6.65,0,9.96-3.32-.02-6.65,0-9.96,0,0-3.32.01-6.65,0-9.96Z"/>
      <path d="M19.61,19.61c-.02,3.32,0,6.65,0,9.96-3.32,0-6.65-.01-9.96,0,.02-3.32-.01-6.65,0-9.96,3.32,0,6.65.02,9.96,0Z"/>
      <path d="M98.66,19.61c3.32.02,6.65,0,9.96,0,0,3.32-.02,6.65,0,9.96-3.32,0-6.65,0-9.96,0,0-3.32.02-6.65,0-9.96Z"/>
      <path d="M9.65,29.57c-.06,13.17-.07,26.36,0,39.53-3.21,0-6.44,0-9.65,0V29.57c3.21,0,6.44,0,9.65,0Z"/>
      <path d="M108.62,29.57c3.21,0,6.44,0,9.65,0v39.53c-3.21,0-6.44,0-9.65,0,.07-13.17.06-26.36,0-39.53Z"/>
      <path d="M9.65,69.09c3.31.01,6.64,0,9.96,0v9.65h9.49c.44.27.43.62.48,1.07.3,2.55-.03,6.18-.02,8.89-3.31-.03-6.64.02-9.96,0v-9.49c0-.9-2.25-.2-2.65-.22-.59-.02-1.16-.27-1.85-.27-1.74,0-3.44.13-5.17.2-.53-.38-.28-8.43-.29-9.83Z"/>
      <path d="M108.62,69.09c-.02,3.21.01,6.44,0,9.65-1.48-.25-3.14.23-4.51.25-1.57.02-4.03-.89-5.45.22v9.49c-3.31.02-6.64-.03-9.96,0,.02-2.71-.32-6.33-.02-8.89.05-.45.04-.8.48-1.07h9.49v-9.65c3.31,0,6.64.01,9.96,0Z"/>
      <path d="M29.57,88.7c2.71.02,6.33-.32,8.89-.02.45.05.8.04,1.07.48v9.49c-3.31.01-6.64-.02-9.96,0-.02-3.31.02-6.64,0-9.96Z"/>
      <path d="M88.7,88.7c-.03,3.31.02,6.64,0,9.96h-9.49c-1.11,1.42-.2,3.87-.22,5.45-.02,1.37-.5,3.03-.25,4.51-9.85-.01-19.72.01-29.57,0,.01-3.31,0-6.64,0-9.96h29.57v-9.49c.27-.44.62-.43,1.07-.48,2.56-.3,6.18.04,8.89.02Z"/>
      <path d="M29.57,98.66c.02,3.32-.01,6.65,0,9.96,6.53,0,13.08-.01,19.61,0,0,3.21,0,6.44,0,9.65H9.65v-9.65h9.96v-9.96c3.31-.01,6.64.02,9.96,0Z"/>
    </g>
  </g>
</svg>