<?xml version="1.0" encoding="UTF-8"?>
<svg id="Layer_2" data-name="Layer 2" xmlns="http://www.w3.org/2000/svg" viewBox="0 0 251.6 318.97">
  <defs>
    <style>
      .cls-1 {
        fill: #373737;
      }

      .cls-2 {
        fill: #000b1d;
      }
    </style>
  </defs>
  <g id="adobe_products_set" data-name="adobe products set">
    <g id="outline_black" data-name="outline black">
      <path class="cls-1" d="M44.87,310.14v-24.41c-.02-.13.07-.24.2-.26.02,0,.04,0,.06,0,1.91-.05,4.31-.07,7.23-.07,2.73-.24,5.44.59,7.56,2.32,1.59,1.47,2.48,3.56,2.43,5.73.17,2.47-.97,4.86-2.99,6.29-2.24,1.45-4.86,2.16-7.52,2.06h-2.21v8.31c.02.14-.07.28-.22.3-.03,0-.05,0-.08,0h-4.16c-.19,0-.3-.09-.3-.26M49.62,288.99v9.21c.81.07,1.62.09,2.43.07,1.43.07,2.84-.31,4.04-1.09,1.1-.87,1.7-2.24,1.57-3.63.08-1.29-.43-2.54-1.39-3.4-1.12-.87-2.52-1.3-3.93-1.2-.41,0-.84.01-1.27.04h-1.46ZM65.05,310.1v-26.43c-.02-.13.07-.25.2-.26.02,0,.04,0,.06,0h4.23c.19,0,.26.09.26.26v9.7c1.44-1.03,3.17-1.57,4.94-1.53,1.71-.05,3.37.6,4.6,1.8,1.4,1.59,2.08,3.69,1.87,5.8v10.67c.02.14-.08.28-.22.3-.03,0-.05,0-.08,0h-4.12c-.22,0-.34-.1-.34-.3v-10.78c.07-1.02-.22-2.02-.82-2.84-.58-.7-1.46-1.08-2.36-1.01-1.29,0-2.53.48-3.48,1.35v13.33c0,.17-.09.26-.3.26h-4.16c-.15.02-.28-.09-.3-.24,0-.02,0-.04,0-.06M93.24,291.83c2.52-.13,4.96.84,6.7,2.66,1.65,1.85,2.52,4.26,2.43,6.74.13,2.58-.79,5.1-2.54,7-1.78,1.73-4.19,2.65-6.67,2.55-2.59.18-5.12-.83-6.89-2.73-1.58-1.88-2.42-4.28-2.36-6.74-.1-2.52.82-4.98,2.54-6.82,1.78-1.8,4.25-2.76,6.78-2.66M93.05,295.09c-1.26-.02-2.45.6-3.15,1.65-.87,1.33-1.3,2.91-1.2,4.49-.09,1.61.33,3.21,1.2,4.57.75,1.1,2,1.74,3.33,1.69,1.21,0,2.35-.57,3.07-1.54.92-1.37,1.35-3,1.24-4.64.08-1.58-.31-3.14-1.12-4.49-.73-1.14-2.02-1.8-3.37-1.72M114.35,307.4v2.28c0,.25-.07.4-.22.45-1.09.46-2.26.68-3.45.64-3.33,0-4.98-1.76-4.98-5.28v-9.92h-2.28c-.19,0-.26-.11-.26-.34v-2.77c-.02-.14.07-.28.22-.3.03,0,.05,0,.08,0h2.25c.04-1.53.18-3.05.41-4.57.01-.16.13-.3.3-.34l4.01-.53c.17-.05.26.01.26.19-.11,1.13-.19,2.87-.22,5.24h3.59c.17,0,.26.1.26.3v2.85c0,.17-.07.26-.22.26h-3.63v9.43c-.05.66.11,1.31.45,1.87.44.42,1.04.63,1.65.56.52,0,1.04-.09,1.54-.26.17-.05.26.02.26.22M124.83,291.83c2.52-.14,4.96.83,6.7,2.66,1.65,1.85,2.53,4.26,2.43,6.74.14,2.58-.78,5.11-2.55,7-1.77,1.73-4.19,2.65-6.66,2.55-2.59.17-5.12-.83-6.89-2.73-1.58-1.88-2.42-4.28-2.36-6.74-.09-2.52.83-4.97,2.55-6.82,1.79-1.8,4.24-2.76,6.78-2.66M124.65,295.09c-1.26-.02-2.44.6-3.14,1.65-.87,1.33-1.29,2.91-1.2,4.49-.08,1.61.34,3.2,1.2,4.57.75,1.1,2.01,1.73,3.33,1.69,1.21,0,2.35-.56,3.07-1.54.92-1.37,1.35-3,1.24-4.64.08-1.58-.31-3.14-1.12-4.49-.73-1.14-2.02-1.8-3.37-1.72M147.33,296.47c-1.31-.85-2.82-1.3-4.38-1.31-.69-.05-1.37.12-1.95.49-.37.27-.59.7-.6,1.16,0,.45.19.89.52,1.2.67.5,1.42.89,2.21,1.16,1.62.52,3.1,1.39,4.34,2.55.86.92,1.32,2.15,1.27,3.41.04,1.6-.68,3.13-1.95,4.12-1.5,1.1-3.35,1.64-5.2,1.53-1.87.07-3.73-.34-5.39-1.2-.15-.06-.25-.21-.22-.38v-3.48c0-.1.02-.16.07-.19.05-.05.13-.05.19,0,1.49,1.15,3.32,1.79,5.2,1.8.69.05,1.38-.11,1.98-.45.43-.26.7-.73.71-1.24.01-.5-.19-.97-.56-1.31-.65-.53-1.4-.94-2.21-1.2-1.56-.51-2.99-1.35-4.19-2.47-.79-.94-1.2-2.14-1.16-3.37-.02-1.5.62-2.92,1.76-3.89,1.42-1.13,3.21-1.69,5.02-1.57,1.6-.08,3.2.2,4.68.83.13.07.19.24.19.48v3.11c0,.3-.11.37-.34.22M151.28,310.1v-26.43c0-.17.07-.26.26-.26h4.23c.13-.02.24.07.26.2,0,.02,0,.04,0,.06v9.7c1.43-1.04,3.17-1.58,4.94-1.53,1.71-.04,3.37.61,4.6,1.8,1.39,1.6,2.07,3.7,1.87,5.8v10.67c.02.15-.09.28-.23.3-.02,0-.04,0-.06,0h-4.12c-.22,0-.34-.1-.34-.3v-10.78c.06-1.01-.23-2.02-.82-2.84-.58-.7-1.45-1.08-2.36-1.01-1.29,0-2.53.47-3.48,1.35v13.33c0,.17-.11.26-.3.26h-4.16c-.14.02-.28-.07-.3-.22,0-.03,0-.05,0-.08M179.46,291.83c2.51-.13,4.96.84,6.7,2.66,1.65,1.85,2.52,4.26,2.43,6.74.14,2.58-.78,5.11-2.55,7-1.78,1.73-4.19,2.65-6.66,2.55-2.59.17-5.12-.83-6.89-2.73-1.59-1.88-2.42-4.28-2.36-6.74-.1-2.52.82-4.98,2.55-6.82,1.79-1.8,4.24-2.76,6.77-2.66h0ZM179.27,295.09c-1.26-.02-2.44.6-3.14,1.65-.87,1.33-1.3,2.91-1.2,4.49-.09,1.61.33,3.21,1.2,4.57.75,1.1,2.01,1.73,3.33,1.69,1.21,0,2.35-.57,3.07-1.54.92-1.37,1.35-3,1.24-4.64.08-1.58-.31-3.14-1.12-4.49-.73-1.14-2.02-1.8-3.37-1.72M199.33,291.83c2.54-.17,5.03.77,6.81,2.58,1.6,1.79,2.44,4.12,2.36,6.52.02,1.51-.28,3-.9,4.38-.5,1.22-1.32,2.29-2.36,3.11-.99.77-2.1,1.36-3.29,1.76-1.19.41-2.44.61-3.71.6-.76.03-1.51-.06-2.25-.26v7.71c.02.16-.1.31-.26.33-.01,0-.02,0-.04,0-.39.05-.94.1-1.65.15-.67.07-1.25.13-1.76.19-.51.05-.77.07-.82.07-.15,0-.23-.09-.23-.26v-22.84c0-.75-.04-1.5-.15-2.25-.01-.1.05-.2.15-.22,2.6-.95,5.33-1.47,8.09-1.57M198.85,295.27c-.97,0-1.93.15-2.85.45v11.23c.81.36,1.7.53,2.58.53,1.36.01,2.67-.57,3.56-1.61,1.08-1.31,1.61-2.99,1.5-4.68.11-1.57-.36-3.13-1.31-4.38-.86-1.03-2.14-1.6-3.48-1.53"/>
      <g>
        <path class="cls-2" d="M208.16,251.6H43.44c-23.95,0-43.44-19.49-43.44-43.44V43.44C0,19.49,19.49,0,43.44,0h164.72c23.95,0,43.44,19.49,43.44,43.44v164.72c0,23.95-19.49,43.44-43.44,43.44ZM43.44,12c-17.33,0-31.44,14.1-31.44,31.44v164.72c0,17.33,14.1,31.44,31.44,31.44h164.72c17.33,0,31.44-14.1,31.44-31.44V43.44c0-17.33-14.1-31.44-31.44-31.44H43.44Z"/>
        <path class="cls-2" d="M59.49,176.3v-101.16c0-.74.32-1.11.95-1.11,1.69,0,3.69-.03,6.02-.08,2.32-.05,4.83-.1,7.52-.16,2.69-.05,5.54-.1,8.55-.16,3.01-.05,5.99-.08,8.94-.08,6.88-.18,13.73.84,20.26,3.01,4.95,1.68,9.47,4.43,13.22,8.07,3.18,3.16,5.64,6.96,7.2,11.16,1.48,4.09,2.23,8.4,2.21,12.74.3,7.41-1.75,14.72-5.86,20.9-3.93,5.51-9.45,9.68-15.83,11.95-7.1,2.56-14.61,3.82-22.16,3.72-2.32,0-3.96-.03-4.9-.08-.95-.05-2.37-.08-4.27-.08v31.18c.1.69-.38,1.33-1.07,1.42-.12.02-.24.02-.36,0h-19.32c-.74,0-1.11-.42-1.11-1.27M81.34,93.03v32.77c1.37.11,2.64.16,3.8.16h5.22c3.83.06,7.65-.48,11.32-1.58,3.14-.93,5.94-2.74,8.08-5.22,2.21-2.9,3.3-6.49,3.08-10.13.08-3.06-.71-6.08-2.3-8.71-1.67-2.53-4.07-4.49-6.89-5.62-3.68-1.43-7.61-2.11-11.56-1.98-2.53,0-4.78.03-6.73.08-1.95.05-3.3.13-4.04.24"/>
        <path class="cls-2" d="M195.99,119.47c-3.67-1.51-7.5-2.62-11.41-3.32-3.61-.83-7.3-1.25-11-1.27-2-.05-4,.19-5.94.71-1.23.27-2.32.97-3.08,1.97-.52.8-.79,1.74-.79,2.69.03.93.36,1.82.95,2.53.92,1.09,2.06,1.98,3.33,2.62,2.26,1.21,4.58,2.3,6.97,3.24,5.31,1.78,10.39,4.2,15.12,7.2,3.22,2.03,5.89,4.84,7.76,8.15,1.57,3.14,2.36,6.62,2.29,10.13.1,4.64-1.23,9.2-3.8,13.06-2.75,3.92-6.57,6.97-11,8.79-5.65,2.27-11.72,3.34-17.81,3.16-4.49.04-8.97-.38-13.38-1.27-3.67-.65-7.26-1.71-10.69-3.17-.71-.37-1.14-1.1-1.11-1.9v-17.1c-.04-.34.12-.68.4-.87.28-.16.62-.13.87.08,4.01,2.24,8.34,3.87,12.83,4.83,3.78.95,7.66,1.45,11.56,1.5,2.79.17,5.59-.31,8.15-1.42,1.61-.73,2.64-2.35,2.62-4.12-.14-1.62-1.01-3.08-2.37-3.96-3-1.96-6.25-3.51-9.66-4.59-4.97-1.73-9.68-4.13-14.01-7.12-3.09-2.15-5.64-5-7.44-8.31-1.56-3.12-2.35-6.57-2.3-10.05,0-4.19,1.14-8.3,3.32-11.87,2.49-3.94,6.06-7.07,10.3-9.02,4.9-2.68,10.41-4.05,16-3.99,4.45-.23,8.91-.17,13.35.19,3.61.74,7.12,1.91,10.45,3.49.43.12.79.45.95.87.1.39.16.79.16,1.19v16c.02.38-.16.74-.48.95-.34.22-.77.22-1.11,0h0Z"/>
      </g>
    </g>
  </g>
</svg>