<svg width="269" height="57" viewBox="0 0 269 57" fill="none" xmlns="http://www.w3.org/2000/svg">
<rect x="0.5" y="0.5" width="267.015" height="55.1324" rx="27.5662" stroke="black"/>
<path d="M34.5528 36.1305L32.0128 36.1322L32.0026 20.1322L38.3626 20.1281C40.4159 20.1268 42.1361 20.499 43.5233 21.2448C44.9238 21.9905 45.6246 23.3501 45.6259 25.3234C45.627 27.0701 44.9145 28.3172 43.4883 29.0648C42.0621 29.8124 40.3557 30.1868 38.369 30.1881L34.549 30.1905L34.5528 36.1305ZM38.3675 27.7481C39.8341 27.7471 40.934 27.5664 41.6671 27.206C42.4002 26.8322 42.7665 26.1786 42.7659 25.2453C42.7653 24.3253 42.3915 23.6655 41.6446 23.266C40.8977 22.8665 39.8042 22.6672 38.3642 22.6681L34.5442 22.6705L34.5475 27.7505L38.3675 27.7481ZM51.013 28.5C51.1723 27.4999 51.4385 26.733 51.8115 26.1994C52.1845 25.6659 52.6642 25.2989 53.2508 25.0985C53.8506 24.8981 54.6239 24.7976 55.5706 24.797L55.5724 27.577C55.1723 27.4973 54.799 27.4575 54.4523 27.4577C53.399 27.4584 52.5858 27.7923 52.0129 28.4593C51.4533 29.113 51.1739 30.0265 51.1747 31.1999L51.1778 36.1199L48.6378 36.1215L48.6306 24.7815L51.1706 24.7799L50.613 28.5002L51.013 28.5ZM63.4626 36.412C62.4092 36.4126 61.4491 36.1466 60.5821 35.6138C59.715 35.081 59.0279 34.3548 58.5207 33.4351C58.0267 32.5155 57.7794 31.5089 57.7787 30.4156C57.778 29.3356 58.0241 28.3421 58.5168 27.4351C59.0229 26.5281 59.7091 25.8077 60.5754 25.2738C61.4417 24.7399 62.4016 24.4726 63.4549 24.472C64.5082 24.4713 65.4684 24.7373 66.3354 25.2701C67.2024 25.8029 67.8829 26.5225 68.3768 27.4288C68.8707 28.3352 69.118 29.3283 69.1187 30.4083C69.1194 31.5017 68.8734 32.5085 68.3807 33.4288C67.8879 34.3491 67.2084 35.0762 66.3421 35.6101C65.4757 36.144 64.5159 36.4113 63.4626 36.412ZM63.461 33.932C64.421 33.9313 65.1874 33.6042 65.7603 32.9505C66.3333 32.2834 66.6194 31.4433 66.6187 30.4299C66.6181 29.4166 66.3309 28.5834 65.7571 27.9305C65.1834 27.2775 64.4165 26.9513 63.4565 26.952C62.5098 26.9526 61.7434 27.2864 61.1571 27.9534C60.5709 28.6072 60.2781 29.434 60.2787 30.434C60.2794 31.4473 60.5733 32.2872 61.1603 32.9534C61.7474 33.6064 62.5143 33.9326 63.461 33.932ZM84.1719 20.0987L84.1822 36.0986L81.6222 36.1003L81.8198 32.3802L81.4798 32.3804C81.0416 35.0607 79.5824 36.4016 77.1024 36.4032C76.1824 36.4038 75.3423 36.151 74.5819 35.6448C73.8216 35.1253 73.2211 34.4324 72.7806 33.566C72.34 32.6996 72.1194 31.7664 72.1188 30.7664C72.1181 29.6197 72.3374 28.5863 72.7768 27.666C73.2162 26.7324 73.8091 25.9986 74.5554 25.4648C75.315 24.931 76.1615 24.6638 77.0949 24.6632C78.1882 24.6625 79.1084 24.9952 79.8555 25.6614C80.6159 26.3143 81.1299 27.2473 81.3973 28.4604L81.8173 28.4602L81.6149 24.7803L81.6119 20.1003L84.1719 20.0987ZM77.9808 33.8626C78.5808 33.8622 79.134 33.7086 79.6405 33.4016C80.1603 33.0812 80.5667 32.6676 80.8597 32.1608C81.166 31.6539 81.319 31.1272 81.3187 30.5805C81.3183 29.9805 81.1713 29.4339 80.8776 28.9408C80.584 28.4343 80.1837 28.0412 79.6769 27.7615C79.17 27.4685 78.6032 27.3222 77.9766 27.3226C77.0032 27.3233 76.2034 27.6371 75.5772 28.2642C74.9509 28.8779 74.6381 29.6714 74.6387 30.6448C74.6391 31.2581 74.7795 31.8114 75.0598 32.3045C75.3534 32.7843 75.7537 33.1641 76.2605 33.4437C76.7674 33.7234 77.3408 33.863 77.9808 33.8626ZM99.4382 24.7688L99.4455 36.0888L96.8855 36.0905L97.4431 32.3901L97.0631 32.3904C96.9038 33.4571 96.6377 34.284 96.2647 34.8709C95.8918 35.4445 95.4187 35.8448 94.8455 36.0718C94.2856 36.2855 93.5857 36.3926 92.7457 36.3931C91.159 36.3942 89.9654 35.9016 89.1647 34.9154C88.3774 33.9293 87.9831 32.3362 87.9817 30.1362L87.9782 24.7762L90.4582 24.7746L90.4617 30.1346C90.4625 31.4013 90.7031 32.3345 91.1835 32.9342C91.6639 33.5338 92.4241 33.8334 93.4641 33.8327C94.5174 33.832 95.3505 33.4781 95.9634 32.7711C96.5762 32.0507 96.8822 31.0238 96.8814 29.6905L96.8782 24.7705L99.4382 24.7688ZM113.461 33.4198C112.409 35.3938 110.609 36.3817 108.063 36.3833C107.009 36.384 106.049 36.1246 105.182 35.6052C104.329 35.0724 103.655 34.3595 103.161 33.4665C102.68 32.5601 102.44 31.5736 102.439 30.5069C102.438 29.4403 102.678 28.4601 103.157 27.5665C103.65 26.6595 104.323 25.9457 105.176 25.4252C106.042 24.9046 107.002 24.644 108.055 24.6433C109.362 24.6425 110.482 24.9151 111.416 25.4611C112.349 26.0072 113.077 26.7934 113.597 27.8197L111.618 29.181C111.111 28.4347 110.597 27.9217 110.077 27.642C109.57 27.349 108.963 27.2027 108.257 27.2032C107.297 27.2038 106.51 27.511 105.897 28.1247C105.298 28.7384 104.998 29.5319 104.999 30.5053C105 31.5319 105.3 32.3451 105.901 32.9447C106.501 33.531 107.288 33.8238 108.261 33.8232C109.581 33.8223 110.641 33.235 111.44 32.0611L113.461 33.4198ZM120.697 30.2152C120.698 31.4019 120.759 32.2018 120.879 32.6151C120.999 33.0283 121.279 33.2948 121.719 33.4145C122.173 33.5209 123.046 33.5737 124.34 33.5728L124.341 36.0728C122.368 36.0741 120.961 35.915 120.121 35.5956C119.281 35.2761 118.747 34.7431 118.52 33.9966C118.306 33.2367 118.198 31.9768 118.197 30.2168L118.195 27.3168L115.995 27.3182L115.994 24.7582L118.194 24.7568L118.191 20.8768L120.691 20.8752L120.694 24.7552L124.314 24.7529L124.315 27.3129L120.695 27.3152L120.697 30.2152ZM138.743 20.0636C141.623 20.0617 143.717 20.7671 145.024 22.1796C146.345 23.592 147.006 25.5249 147.008 27.9783C147.01 30.4583 146.351 32.4254 145.032 33.8796C143.713 35.3337 141.62 36.0617 138.753 36.0636L133.333 36.0671L133.323 20.0671L135.823 20.0655L135.823 20.0855L138.743 20.0636ZM138.752 33.5436C140.672 33.529 142.111 33.0681 143.071 32.1608C144.03 31.2535 144.509 29.8599 144.508 27.9799C144.506 24.3799 142.584 22.5811 138.744 22.5836L135.824 22.5855L135.832 33.5655L138.752 33.5436ZM152.574 31.2547C152.721 32.0546 153.081 32.6944 153.655 33.174C154.242 33.6403 154.975 33.8732 155.855 33.8726C157.269 33.8717 158.388 33.3243 159.214 32.2304L160.915 33.3893C160.396 34.3763 159.689 35.1168 158.796 35.6107C157.903 36.1046 156.924 36.3519 155.857 36.3526C154.804 36.3533 153.83 36.0939 152.936 35.5745C152.043 35.0417 151.329 34.3288 150.795 33.4358C150.274 32.5295 150.014 31.543 150.013 30.4764C150.012 29.4097 150.272 28.4295 150.791 27.5358C151.324 26.6422 152.037 25.935 152.93 25.4145C153.823 24.8806 154.796 24.6133 155.849 24.6126C156.969 24.6119 157.956 24.8912 158.81 25.4507C159.664 26.0101 160.317 26.7964 160.771 27.8094C161.225 28.8091 161.433 29.9557 161.394 31.249L152.574 31.2547ZM155.851 27.0526C155.024 27.0531 154.318 27.2936 153.731 27.774C153.158 28.241 152.779 28.8412 152.593 29.5747L158.993 29.5706C158.832 28.784 158.458 28.1709 157.871 27.7313C157.298 27.2783 156.624 27.0521 155.851 27.0526ZM166.813 31.9256C167.133 32.552 167.533 33.0318 168.013 33.3648C168.507 33.6845 169.134 33.8441 169.894 33.8436C171.52 33.8425 172.334 33.4887 172.333 32.782C172.333 32.4353 172.173 32.1688 171.853 31.9823C171.532 31.7959 170.919 31.6163 170.012 31.4435L169.292 31.304C167.772 31.0249 166.672 30.599 165.991 30.0261C165.311 29.4399 164.97 28.6667 164.97 27.7067C164.969 27.1467 165.129 26.6333 165.449 26.1664C165.782 25.6996 166.288 25.3259 166.968 25.0455C167.661 24.7517 168.515 24.6045 169.528 24.6038C170.835 24.603 171.875 24.869 172.648 25.4018C173.422 25.9213 174.063 26.7076 174.57 27.7606L172.431 28.7819C172.043 28.1422 171.63 27.6958 171.19 27.4427C170.749 27.1764 170.196 27.0434 169.529 27.0438C168.783 27.0443 168.243 27.138 167.91 27.3249C167.59 27.4984 167.43 27.7318 167.43 28.0252C167.43 28.3318 167.557 28.5717 167.81 28.7449C168.077 28.9181 168.571 29.0844 169.291 29.244L170.011 29.3835C171.264 29.6094 172.231 29.8887 172.911 30.2216C173.605 30.5545 174.085 30.9409 174.352 31.3807C174.619 31.8072 174.753 32.3271 174.753 32.9405C174.754 33.5005 174.581 34.0406 174.234 34.5608C173.901 35.0677 173.368 35.4813 172.635 35.8018C171.902 36.1223 170.989 36.2829 169.895 36.2836C168.549 36.2844 167.449 36.0318 166.595 35.5257C165.755 35.0062 165.027 34.1667 164.413 33.0071L166.813 31.9256ZM179.27 23.6976C178.856 23.6978 178.51 23.5647 178.229 23.2982C177.949 23.0184 177.809 22.6785 177.809 22.2785C177.808 21.8785 177.948 21.5384 178.228 21.2582C178.508 20.978 178.854 20.8378 179.268 20.8376C179.654 20.8373 179.981 20.9771 180.248 21.2569C180.528 21.5367 180.668 21.8767 180.669 22.2767C180.669 22.6767 180.529 23.0167 180.249 23.2969C179.983 23.5638 179.656 23.6973 179.27 23.6976ZM178.01 24.7184L180.51 24.7168L180.518 36.0368L178.018 36.0384L178.01 24.7184ZM189.959 40.0307C188.532 40.0316 187.359 39.8124 186.438 39.373C185.531 38.9469 184.758 38.274 184.117 37.3544L186.036 36.0932C186.503 36.7462 187.037 37.1992 187.637 37.4522C188.237 37.7051 189.011 37.8313 189.957 37.8307C191.157 37.8299 192.104 37.4693 192.797 36.7489C193.489 36.0418 193.882 35.1415 193.975 34.0481L194.134 32.308L193.794 32.3082C193.515 33.7351 192.989 34.7354 192.216 35.3092C191.456 35.8697 190.523 36.1503 189.416 36.151C188.55 36.1516 187.736 35.8988 186.976 35.3926C186.215 34.8864 185.602 34.1935 185.134 33.3138C184.68 32.4341 184.453 31.4609 184.452 30.3942C184.452 29.3409 184.665 28.3741 185.091 27.4938C185.53 26.6002 186.13 25.8998 186.889 25.3927C187.649 24.8722 188.489 24.6116 189.409 24.611C190.489 24.6103 191.409 24.9298 192.169 25.5693C192.93 26.2088 193.45 27.1484 193.731 28.3883L194.131 28.388L193.929 24.7081L196.489 24.7065L196.494 32.3665C196.495 34.9665 195.91 36.8935 194.737 38.1476C193.565 39.4017 191.972 40.0294 189.959 40.0307ZM190.315 33.7905C190.875 33.7901 191.408 33.6498 191.914 33.3694C192.434 33.0758 192.847 32.6755 193.154 32.1686C193.473 31.6484 193.633 31.055 193.632 30.3883C193.632 29.4283 193.311 28.6685 192.671 28.1089C192.044 27.536 191.257 27.2499 190.31 27.2505C189.67 27.2509 189.091 27.3912 188.571 27.6716C188.064 27.9386 187.664 28.3122 187.371 28.7923C187.078 29.2725 186.932 29.806 186.932 30.3926C186.933 31.0593 187.073 31.6525 187.354 32.1724C187.647 32.6788 188.048 33.0786 188.554 33.3716C189.075 33.6513 189.661 33.7909 190.315 33.7905ZM206.393 24.4001C207.98 24.3991 209.167 24.8917 209.954 25.8778C210.754 26.864 211.155 28.4571 211.157 30.6571L211.16 36.0171L208.68 36.0187L208.677 30.6587C208.676 29.392 208.435 28.4588 207.955 27.8591C207.475 27.2594 206.715 26.9599 205.675 26.9606C204.621 26.9613 203.788 27.3218 203.175 28.0422C202.562 28.7493 202.256 29.7695 202.257 31.1028L202.26 36.0228L199.7 36.0244L199.693 24.7044L202.253 24.7028L201.695 28.4031L202.075 28.4029C202.235 27.3361 202.501 26.516 202.874 25.9424C203.247 25.3555 203.713 24.9552 204.273 24.7415C204.846 24.5145 205.553 24.4007 206.393 24.4001ZM216.714 31.2135C216.861 32.0134 217.222 32.6532 217.796 33.1328C218.382 33.5991 219.116 33.832 219.996 33.8314C221.409 33.8305 222.529 33.2831 223.355 32.1892L225.056 33.3481C224.536 34.3351 223.83 35.0756 222.937 35.5695C222.044 36.0634 221.064 36.3107 219.998 36.3114C218.944 36.3121 217.971 36.0527 217.077 35.5333C216.183 35.0005 215.47 34.2876 214.936 33.3946C214.415 32.4883 214.154 31.5018 214.154 30.4351C214.153 29.3685 214.412 28.3883 214.932 27.4946C215.465 26.601 216.178 25.8938 217.071 25.3733C217.964 24.8394 218.937 24.5721 219.99 24.5714C221.11 24.5707 222.097 24.85 222.951 25.4095C223.804 25.9689 224.458 26.7552 224.912 27.7682C225.366 28.7679 225.573 29.9145 225.534 31.2078L216.714 31.2135ZM219.992 27.0114C219.165 27.0119 218.458 27.2524 217.872 27.7328C217.299 28.1998 216.919 28.8 216.733 29.5335L223.133 29.5294C222.973 28.7428 222.599 28.1297 222.012 27.6901C221.438 27.2371 220.765 27.0109 219.992 27.0114ZM230.931 28.3844C231.09 27.3843 231.356 26.6174 231.729 26.0838C232.102 25.5503 232.582 25.1833 233.169 24.9829C233.769 24.7825 234.542 24.682 235.489 24.6814L235.49 27.4614C235.09 27.3817 234.717 27.3419 234.37 27.3422C233.317 27.3428 232.504 27.6767 231.931 28.3437C231.371 28.9974 231.092 29.9109 231.093 31.0843L231.096 36.0043L228.556 36.0059L228.549 24.6659L231.089 24.6643L230.531 28.3846L230.931 28.3844Z" fill="black"/>
</svg>
