<svg width="452" height="351" viewBox="0 0 452 351" fill="none" xmlns="http://www.w3.org/2000/svg">
<g clip-path="url(#clip0_2133_197)">
<path d="M267.153 299.841H232.539C228.75 299.841 225.675 296.936 225.675 293.356C225.675 289.776 228.75 286.871 232.539 286.871H267.153C275.527 286.871 282.346 280.429 282.346 272.517V110.949C282.346 103.037 275.527 96.5954 267.153 96.5954H28.921C20.5467 96.5954 13.7283 103.037 13.7283 110.949V272.517C13.7283 280.429 20.5467 286.871 28.921 286.871H66.1704C69.9595 286.871 73.0346 289.776 73.0346 293.356C73.0346 296.936 69.9595 299.841 66.1704 299.841H28.921C12.9778 299.841 0 287.58 0 272.517V110.949C0 95.8863 12.9778 83.625 28.921 83.625H267.153C283.096 83.625 296.074 95.8863 296.074 110.949V272.517C296.074 287.58 283.096 299.841 267.153 299.841Z" fill="#E1DFD8"/>
<path d="M269.862 129.117H26.2118C22.4228 129.117 19.3477 126.211 19.3477 122.632C19.3477 119.052 22.4228 116.146 26.2118 116.146H269.862C273.651 116.146 276.726 119.052 276.726 122.632C276.726 126.211 273.651 129.117 269.862 129.117Z" fill="#E1DFD8"/>
<path d="M31.5015 111.865C34.418 111.865 36.7823 109.631 36.7823 106.876C36.7823 104.12 34.418 101.887 31.5015 101.887C28.585 101.887 26.2207 104.12 26.2207 106.876C26.2207 109.631 28.585 111.865 31.5015 111.865Z" fill="#E1DFD8"/>
<path d="M52.3961 111.865C55.3126 111.865 57.6769 109.631 57.6769 106.876C57.6769 104.12 55.3126 101.887 52.3961 101.887C49.4795 101.887 47.1152 104.12 47.1152 106.876C47.1152 109.631 49.4795 111.865 52.3961 111.865Z" fill="#E1DFD8"/>
<path d="M73.2906 111.865C76.2071 111.865 78.5714 109.631 78.5714 106.876C78.5714 104.12 76.2071 101.887 73.2906 101.887C70.3741 101.887 68.0098 104.12 68.0098 106.876C68.0098 109.631 70.3741 111.865 73.2906 111.865Z" fill="#E1DFD8"/>
<path d="M405.681 260.635C401.892 260.635 398.817 257.73 398.817 254.15V15.0629C398.817 13.9129 397.819 12.9704 396.602 12.9704H56.3689C55.1517 12.9704 54.1541 13.9129 54.1541 15.0629V66.1403C54.1541 69.7201 51.0789 72.6255 47.2899 72.6255C43.5009 72.6255 40.4258 69.7201 40.4258 66.1403V15.0629C40.4349 6.75324 47.5828 0 56.3689 0H396.602C405.397 0 412.545 6.75324 412.545 15.0629V254.15C412.545 257.73 409.47 260.635 405.681 260.635Z" fill="#E1DFD8"/>
<path d="M424.974 290.034H315.056C311.267 290.034 308.191 287.129 308.191 283.549C308.191 279.969 311.267 277.064 315.056 277.064H424.974C432.304 277.064 438.272 271.426 438.272 264.5V260.634H317.911C314.122 260.634 311.047 257.729 311.047 254.149C311.047 250.569 314.122 247.664 317.911 247.664H445.136C448.925 247.664 452 250.569 452 254.149V264.5C452 278.585 439.873 290.034 424.974 290.034Z" fill="#E1DFD8"/>
<path d="M375.763 241.207C371.974 241.207 368.898 238.301 368.898 234.721V42.9587H84.0818V66.1497C84.0818 69.7295 81.0067 72.6349 77.2177 72.6349C73.4287 72.6349 70.3535 69.7295 70.3535 66.1497V36.4735C70.3535 32.8936 73.4287 29.9883 77.2177 29.9883H375.772C379.561 29.9883 382.636 32.8936 382.636 36.4735V234.721C382.636 238.301 379.561 241.207 375.772 241.207H375.763Z" fill="#E1DFD8"/>
<path d="M191.155 350.624H104.118C92.7509 350.624 83.498 342.732 83.498 333.038V168.155C83.498 158.46 92.7509 150.568 104.118 150.568H191.155C202.522 150.568 211.775 158.46 211.775 168.155V333.038C211.775 342.732 202.522 350.624 191.155 350.624ZM104.118 162.277C100.32 162.277 97.2264 164.915 97.2264 168.155V333.038C97.2264 336.277 100.32 338.915 104.118 338.915H191.155C194.954 338.915 198.047 336.277 198.047 333.038V168.155C198.047 164.915 194.954 162.277 191.155 162.277H104.118Z" fill="#E1DFD8"/>
<path d="M204.911 317.527H90.3622C86.5732 317.527 83.498 314.904 83.498 311.673C83.498 308.441 86.5732 305.818 90.3622 305.818H204.911C208.7 305.818 211.775 308.441 211.775 311.673C211.775 314.904 208.7 317.527 204.911 317.527Z" fill="#E1DFD8"/>
<path d="M152.835 333.724H142.429C138.64 333.724 135.564 331.102 135.564 327.87C135.564 324.638 138.64 322.016 142.429 322.016H152.835C156.624 322.016 159.699 324.638 159.699 327.87C159.699 331.102 156.624 333.724 152.835 333.724Z" fill="#E1DFD8"/>
</g>
<defs>
<clipPath id="clip0_2133_197">
<rect width="452" height="351" fill="white"/>
</clipPath>
</defs>
</svg>
