<svg width="406" height="359" viewBox="0 0 406 359" fill="none" xmlns="http://www.w3.org/2000/svg">
<g clip-path="url(#clip0_2133_197)">
<path d="M239.965 284.77H208.874C205.47 284.77 202.708 282.011 202.708 278.611C202.708 275.211 205.47 272.452 208.874 272.452H239.965C247.487 272.452 253.611 266.333 253.611 258.819V105.373C253.611 97.8585 247.487 91.7403 239.965 91.7403H25.9777C18.4557 91.7403 12.3312 97.8585 12.3312 105.373V258.819C12.3312 266.333 18.4557 272.452 25.9777 272.452H59.4363C62.8397 272.452 65.6019 275.211 65.6019 278.611C65.6019 282.011 62.8397 284.77 59.4363 284.77H25.9777C11.6571 284.77 0 273.125 0 258.819V105.373C0 91.0669 11.6571 79.4219 25.9777 79.4219H239.965C254.285 79.4219 265.942 91.0669 265.942 105.373V258.819C265.942 273.125 254.285 284.77 239.965 284.77Z" fill="#FBF8F0"/>
<path d="M242.398 122.627H23.5445C20.1411 122.627 17.3789 119.868 17.3789 116.468C17.3789 113.068 20.1411 110.309 23.5445 110.309H242.398C245.802 110.309 248.564 113.068 248.564 116.468C248.564 119.868 245.802 122.627 242.398 122.627Z" fill="#FBF8F0"/>
<path d="M28.2961 106.243C30.9158 106.243 33.0395 104.121 33.0395 101.504C33.0395 98.8871 30.9158 96.7656 28.2961 96.7656C25.6764 96.7656 23.5527 98.8871 23.5527 101.504C23.5527 104.121 25.6764 106.243 28.2961 106.243Z" fill="#FBF8F0"/>
<path d="M47.0637 106.243C49.6834 106.243 51.8071 104.121 51.8071 101.504C51.8071 98.8871 49.6834 96.7656 47.0637 96.7656C44.444 96.7656 42.3203 98.8871 42.3203 101.504C42.3203 104.121 44.444 106.243 47.0637 106.243Z" fill="#FBF8F0"/>
<path d="M65.8313 106.243C68.451 106.243 70.5747 104.121 70.5747 101.504C70.5747 98.8871 68.451 96.7656 65.8313 96.7656C63.2116 96.7656 61.0879 98.8871 61.0879 101.504C61.0879 104.121 63.2116 106.243 65.8313 106.243Z" fill="#FBF8F0"/>
<path d="M364.394 247.535C360.991 247.535 358.228 244.775 358.228 241.375V14.3058C358.228 13.2136 357.332 12.3184 356.239 12.3184H50.6312C49.5378 12.3184 48.6417 13.2136 48.6417 14.3058V62.8158C48.6417 66.2156 45.8795 68.975 42.4761 68.975C39.0727 68.975 36.3105 66.2156 36.3105 62.8158V14.3058C36.3188 6.41379 42.7392 0 50.6312 0H356.239C364.139 0 370.56 6.41379 370.56 14.3058V241.375C370.56 244.775 367.797 247.535 364.394 247.535Z" fill="#FBF8F0"/>
<path d="M381.723 275.457H282.992C279.588 275.457 276.826 272.698 276.826 269.298C276.826 265.898 279.588 263.139 282.992 263.139H381.723C388.308 263.139 393.668 257.784 393.668 251.206V247.535H285.557C282.153 247.535 279.391 244.776 279.391 241.376C279.391 237.976 282.153 235.217 285.557 235.217H399.834C403.237 235.217 405.999 237.976 405.999 241.376V251.206C405.999 264.584 395.107 275.457 381.723 275.457Z" fill="#FBF8F0"/>
<path d="M337.521 229.082C334.118 229.082 331.355 226.323 331.355 222.923V40.7989H75.5245V62.8242C75.5245 66.2241 72.7624 68.9835 69.3589 68.9835C65.9555 68.9835 63.1934 66.2241 63.1934 62.8242V34.6397C63.1934 31.2398 65.9555 28.4805 69.3589 28.4805H337.529C340.933 28.4805 343.695 31.2398 343.695 34.6397V222.923C343.695 226.323 340.933 229.082 337.529 229.082H337.521Z" fill="#FBF8F0"/>
<path d="M172.06 359H93.8808C83.6706 359 75.3594 350.697 75.3594 340.498V167.03C75.3594 156.83 83.6706 148.527 93.8808 148.527H172.06C182.271 148.527 190.582 156.83 190.582 167.03V340.498C190.582 350.697 182.271 359 172.06 359ZM93.8808 160.846C90.4692 160.846 87.6906 163.622 87.6906 167.03V340.498C87.6906 343.906 90.4692 346.682 93.8808 346.682H172.06C175.472 346.682 178.251 343.906 178.251 340.498V167.03C178.251 163.622 175.472 160.846 172.06 160.846H93.8808Z" fill="#FBF8F0"/>
<path d="M184.416 324.18H81.525C78.1216 324.18 75.3594 321.42 75.3594 318.021C75.3594 314.621 78.1216 311.861 81.525 311.861H184.416C187.82 311.861 190.582 314.621 190.582 318.021C190.582 321.42 187.82 324.18 184.416 324.18Z" fill="#FBF8F0"/>
<path d="M137.64 341.221H128.293C124.889 341.221 122.127 338.461 122.127 335.062C122.127 331.662 124.889 328.902 128.293 328.902H137.64C141.043 328.902 143.805 331.662 143.805 335.062C143.805 338.461 141.043 341.221 137.64 341.221Z" fill="#FBF8F0"/>
</g>
<defs>
<clipPath id="clip0_2133_197">
<rect width="406" height="359" fill="white"/>
</clipPath>
</defs>
</svg>
