<?xml version="1.0" encoding="UTF-8"?>
<svg id="Layer_2" data-name="Layer 2" xmlns="http://www.w3.org/2000/svg" viewBox="0 0 421.38 553">
  <defs>
    <style>
      .cls-1 {
        fill: #171717;
      }
    </style>
  </defs>
  <g id="_ÎÓÈ_1" data-name="—ÎÓÈ_1">
    <g>
      <g>
        <path class="cls-1" d="M400.55,314.21c-12.21,4.96-24.71,8.78-37.61,11.52-15.67,3.32-9.04,27.33,6.62,24.01,12.89-2.73,25.39-6.56,37.61-11.52,6.23-2.53,10.63-8.29,8.7-15.32-1.62-5.9-9.05-11.24-15.32-8.7h0Z"/>
        <path class="cls-1" d="M408.93,417.7c-12.13-1.25-23.9-4.32-35.32-8.55-15.05-5.58-21.54,18.48-6.62,24.01,13.62,5.05,27.51,7.95,41.94,9.44,6.7.69,12.45-6.22,12.45-12.45,0-7.31-5.73-11.76-12.45-12.45h0Z"/>
        <path class="cls-1" d="M346.47,534.08c-10.53-14.64-15.57-32.7-20.45-49.93-4.36-15.41-28-7.56-23.64,7.86,5.48,19.34,11.44,39.29,23.26,55.74,9.33,12.97,30.21-.61,20.82-13.67h0Z"/>
        <path class="cls-1" d="M225.42,530.82c7.89-14.76,16.91-28.7,27.08-41.99,9.73-12.72-9.52-28.52-19.28-15.76-11.43,14.95-21.58,30.8-30.45,47.4-7.57,14.18,15.13,24.43,22.65,10.35h0Z"/>
        <path class="cls-1" d="M163.62,463.65c4.53-12.13,13.47-21.7,24.67-27.96,14-7.81,1.45-29.33-12.57-21.5-17.1,9.55-29.31,24.6-36.12,42.84-2.35,6.3,2.62,13.65,8.7,15.32,6.98,1.92,12.96-2.37,15.32-8.7h0Z"/>
      </g>
      <g>
        <path class="cls-1" d="M169.32,132.19c46.22-32.23,88.29-70.22,127.2-110.9-7.09-2.94-14.17-5.87-21.26-8.81,2.49,35.03,4.99,70.09,5.28,105.22.27,32.27-1.67,64.54-3.25,96.76-3.17,64.45-3.05,128.91-5.69,193.36,7.09-2.93,14.17-5.87,21.26-8.81-47.89-43.67-90.58-92.6-137.03-137.75-45.63-44.35-90.21-89.67-134.79-135.07-1.83,6.94-3.66,13.88-5.49,20.81,48.76-8.29,98.03-12.58,147.48-13.13,16.02-.18,16.06-25.08,0-24.9-51.68.58-103.15,5.36-154.1,14.02-9.57,1.63-11.54,14.66-5.49,20.81,44.58,45.4,89.16,90.71,134.79,135.07,46.44,45.15,89.14,94.08,137.03,137.75,8.08,7.37,20.81,2.16,21.26-8.81,2.64-64.45,2.52-128.91,5.69-193.36,1.55-31.53,3.46-63.12,3.27-94.69-.21-35.82-2.76-71.57-5.3-107.29-.73-10.26-13.36-17.06-21.26-8.81-37.43,39.12-77.7,75.99-122.16,107-13.05,9.1-.62,30.7,12.57,21.5h0Z"/>
        <path class="cls-1" d="M271.41,376.11c5.05-9.41,8.48-19.16,10.05-29.73,1.1-7.44-6.13-15.31-13.72-10.55-8.06,5.06-16.12,10.11-24.17,15.17,4.57,3.52,9.15,7.03,13.72,10.55,7.87-19.18,17.65-37.43,28.92-54.83,5.03-7.77-5-17.82-12.78-12.78-16.69,10.83-32.76,22.52-48.8,34.27,4.26,4.26,8.52,8.52,12.78,12.78,13.01-23.4,27.27-46.01,42.79-67.83,6.32-8.89-7.24-18.38-14.67-11.32-16.67,15.85-34.08,30.88-52.34,44.88,4.26,4.26,8.52,8.52,12.78,12.78,19-27.15,38.01-54.31,57.01-81.46,6.33-9.05-7.15-18.12-14.67-11.32-26.34,23.83-52.68,47.67-79.02,71.5,4.89,3.77,9.78,7.54,14.67,11.32,21.23-37.62,45.27-73.57,72.17-107.37,7.31-9.18-4.39-21.83-13.21-13.21-29.46,28.81-58.91,57.62-88.37,86.43,4.89,3.77,9.78,7.54,14.67,11.32,31.7-45.71,63.4-91.43,95.1-137.14-5.38-3.14-10.75-6.28-16.13-9.43-27.55,43.56-56.28,88.61-100.31,117.3l12.78,12.78c17.09-28.36,38.57-53.57,57.71-80.5,19.42-27.33,34.9-57,50.19-86.76,5.52-10.76-9.38-19.36-16.13-9.43-37.04,54.53-79.8,104.82-127.5,150.32,4.89,3.77,9.78,7.54,14.67,11.32,33.46-72.22,83.15-135.82,123.06-204.45-5.69-.74-11.38-1.49-17.07-2.23,3.34,9.73-4.03,21.19-7.89,29.9-4.25,9.61-8.69,19.13-13.34,28.55-7.95,16.12-16.55,31.96-29.83,44.36-13.03,12.17-28.47,21.43-41.63,33.48-14.49,13.26-27.06,28.44-39.57,43.53,4.89,3.77,9.78,7.54,14.67,11.32,34.42-47.02,68.82-94.47,92.76-147.89-5.69-2.4-11.38-4.8-17.07-7.2-4.51,12.25-13.84,21.49-22.73,30.69-9.57,9.91-19.03,19.92-28.31,30.09-19.01,20.84-37.33,42.28-55.03,64.25,4.89,3.77,9.78,7.54,14.67,11.32,16.9-26.32,33.65-52.76,46.69-81.26,4.91-10.73-9.89-19.98-16.13-9.43-14.69,24.84-30.91,48.7-48.82,71.33,5.2,3.03,10.41,6.06,15.61,9.09,5.54-22.44,20.27-43.03,31.42-63.07,5.37-9.65-6.73-17.96-14.67-11.32-19.58,16.36-37.67,34.25-54.26,53.64,5.2,3.03,10.41,6.06,15.61,9.09,5.58-20,13.97-38.65,25.15-56.14,6.02-9.42-6.98-17.87-14.67-11.32-16.21,13.81-31.78,28.3-46.72,43.48,5.2,3.03,10.41,6.06,15.61,9.09,4.18-13.29,8.95-26.35,14.49-39.14,3.79-8.74-7.35-20.34-14.67-11.32-9.26,11.43-18.53,22.85-27.79,34.28,5.31,2.2,10.63,4.4,15.94,6.6.49-11.9,1.67-23.66,3.7-35.4,1.59-9.2-8.3-15.48-15.61-9.09-7.02,6.14-14.04,12.27-21.06,18.41l15.61,4.12c-1.21-6.08-1.44-11.94-1.06-18.1.74-12.01-17.94-11.96-18.68,0-.48,7.86.19,15.35,1.73,23.06,1.47,7.37,10.73,8.39,15.61,4.12,7.02-6.14,14.04-12.27,21.06-18.41-5.2-3.03-10.41-6.06-15.61-9.09-2.31,13.38-3.81,26.8-4.36,40.36-.31,7.61,10.79,12.96,15.94,6.6,9.26-11.42,18.53-22.85,27.79-34.28-4.89-3.77-9.78-7.55-14.67-11.32-6.19,14.27-11.7,28.76-16.37,43.6-2.83,8.99,9.2,15.6,15.61,9.09,14.93-15.18,30.51-29.67,46.72-43.48-4.89-3.77-9.78-7.55-14.67-11.32-12,18.79-21.04,39.13-27.03,60.6-2.39,8.57,9.37,16.38,15.61,9.09,16.59-19.39,34.68-37.27,54.26-53.64-4.89-3.77-9.78-7.55-14.67-11.32-11.97,21.51-27.35,43.39-33.3,67.53-2.05,8.3,9.46,16.85,15.61,9.09,18.91-23.89,36.23-48.87,51.74-75.11-5.38-3.14-10.75-6.28-16.13-9.43-13.03,28.51-29.79,54.94-46.69,81.26-5.62,8.76,7.94,19.67,14.67,11.32,19.34-24.01,39.43-47.39,60.35-70.05,17.98-19.48,41.12-37.71,50.53-63.22,3.62-9.83-12.73-16.87-17.07-7.2-23.94,53.42-58.34,100.86-92.76,147.89-6.21,8.49,7.9,19.48,14.67,11.32,13.68-16.5,27.45-33.1,43.69-47.19,15.61-13.54,33.88-23.92,47.13-40.06,12.78-15.57,21.47-33.97,29.95-52.11,7.81-16.7,22.82-39.64,16.3-58.64-2.54-7.4-12.85-9.49-17.07-2.23-39.91,68.63-89.6,132.23-123.06,204.45-4.31,9.31,6.6,19.02,14.67,11.32,48.84-46.58,92.5-98.27,130.42-154.1-5.38-3.14-10.75-6.28-16.13-9.43-15.29,29.76-30.77,59.43-50.19,86.76-19.14,26.93-40.62,52.14-57.71,80.5-4.7,7.8,4.85,17.95,12.78,12.78,46.85-30.53,77.66-77.6,107.01-124,6.5-10.27-9.36-19.19-16.13-9.43-31.7,45.71-63.4,91.43-95.1,137.14-6.17,8.9,7.27,18.55,14.67,11.32,29.46-28.81,58.91-57.62,88.37-86.43-4.4-4.4-8.81-8.81-13.21-13.21-27.91,35.07-53.06,72.11-75.09,111.15-5.31,9.42,6.86,18.38,14.67,11.32,26.34-23.83,52.68-47.67,79.02-71.5-4.89-3.77-9.78-7.55-14.67-11.32-19,27.15-38.01,54.31-57.01,81.46-5.17,7.39,5.37,18.45,12.78,12.78,19.54-14.97,38.28-30.83,56.13-47.8-4.89-3.77-9.78-7.54-14.67-11.32-15.52,21.82-29.78,44.43-42.79,67.83-4.2,7.56,4.83,18.61,12.78,12.78,16.04-11.76,32.11-23.44,48.8-34.27-4.26-4.26-8.52-8.52-12.78-12.78-12.18,18.8-22.3,38.57-30.8,59.29-3.16,7.7,7.28,14.59,13.72,10.55,8.06-5.06,16.12-10.11,24.17-15.17-4.57-3.52-9.15-7.03-13.72-10.55-1.34,9.07-3.82,17.16-8.17,25.27-5.68,10.59,10.44,20.03,16.13,9.43h0Z"/>
      </g>
    </g>
  </g>
</svg>