<?xml version="1.0" encoding="UTF-8"?>
<svg id="Layer_2" data-name="Layer 2" xmlns="http://www.w3.org/2000/svg" viewBox="0 0 1040 520">
  <defs>
    <style>
      .cls-1 {
        fill: #ff1f39;
      }

      .cls-2 {
        fill: #00bd6a;
      }

      .cls-3 {
        fill: #fbcd04;
      }

      .cls-4 {
        fill: #004ba3;
      }
    </style>
  </defs>
  <g id="Layer_4" data-name="Layer 4">
    <g>
      <g>
        <rect class="cls-4" x="520" y="360" width="40" height="40"/>
        <rect class="cls-2" x="520" y="320" width="40" height="40"/>
        <rect class="cls-2" x="520" y="280" width="40" height="40"/>
        <rect class="cls-4" x="520" y="240" width="40" height="40"/>
        <rect class="cls-3" x="520" y="200" width="40" height="40"/>
        <rect class="cls-3" x="520" y="160" width="40" height="40"/>
        <rect class="cls-4" x="520" y="120" width="40" height="40"/>
        <rect class="cls-1" x="520" y="80" width="40" height="40"/>
        <rect class="cls-1" x="520" y="40" width="40" height="40"/>
        <rect class="cls-4" x="520" width="40" height="40"/>
        <rect class="cls-4" x="560" y="360" width="40" height="40"/>
        <rect class="cls-2" x="560" y="320" width="40" height="40"/>
        <rect class="cls-2" x="560" y="280" width="40" height="40"/>
        <rect class="cls-4" x="560" y="240" width="40" height="40"/>
        <rect class="cls-3" x="560" y="200" width="40" height="40"/>
        <rect class="cls-3" x="560" y="160" width="40" height="40"/>
        <rect class="cls-4" x="560" y="120" width="40" height="40"/>
        <rect class="cls-1" x="560" y="80" width="40" height="40"/>
        <rect class="cls-1" x="560" y="40" width="40" height="40"/>
        <rect class="cls-4" x="560" width="40" height="40"/>
        <rect class="cls-4" x="600" y="400" width="40" height="40"/>
        <rect class="cls-2" x="600" y="360" width="40" height="40"/>
        <rect class="cls-2" x="600" y="320" width="40" height="40"/>
        <rect class="cls-2" x="600" y="280" width="40" height="40"/>
        <rect class="cls-4" x="600" y="240" width="40" height="40"/>
        <rect class="cls-3" x="600" y="200" width="40" height="40"/>
        <rect class="cls-3" x="600" y="160" width="40" height="40"/>
        <rect class="cls-4" x="600" y="120" width="40" height="40"/>
        <rect class="cls-1" x="600" y="80" width="40" height="40"/>
        <rect class="cls-1" x="600" y="40" width="40" height="40"/>
        <rect class="cls-4" x="600" width="40" height="40"/>
        <rect class="cls-4" x="640" y="480" width="40" height="40"/>
        <rect class="cls-4" x="640" y="440" width="40" height="40"/>
        <rect class="cls-2" x="640" y="400" width="40" height="40"/>
        <rect class="cls-2" x="640" y="360" width="40" height="40"/>
        <rect class="cls-2" x="640" y="320" width="40" height="40"/>
        <rect class="cls-2" x="640" y="280" width="40" height="40"/>
        <rect class="cls-4" x="640" y="240" width="40" height="40"/>
        <rect class="cls-3" x="640" y="200" width="40" height="40"/>
        <rect class="cls-3" x="640" y="160" width="40" height="40"/>
        <rect class="cls-4" x="640" y="120" width="40" height="40"/>
        <rect class="cls-1" x="640" y="80" width="40" height="40"/>
        <rect class="cls-1" x="640" y="40" width="40" height="40"/>
        <rect class="cls-4" x="640" width="40" height="40"/>
        <rect class="cls-2" x="680" y="480" width="40" height="40"/>
        <rect class="cls-2" x="680" y="440" width="40" height="40"/>
        <rect class="cls-2" x="680" y="400" width="40" height="40"/>
        <rect class="cls-2" x="680" y="360" width="40" height="40"/>
        <rect class="cls-2" x="680" y="320" width="40" height="40"/>
        <rect class="cls-4" x="680" y="280" width="40" height="40"/>
        <rect class="cls-3" x="680" y="240" width="40" height="40"/>
        <rect class="cls-3" x="680" y="200" width="40" height="40"/>
        <rect class="cls-4" x="680" y="160" width="40" height="40"/>
        <rect class="cls-1" x="680" y="120" width="40" height="40"/>
        <rect class="cls-1" x="680" y="80" width="40" height="40"/>
        <rect class="cls-1" x="680" y="40" width="40" height="40"/>
        <rect class="cls-4" x="680" width="40" height="40"/>
        <rect class="cls-2" x="720" y="480" width="40" height="40"/>
        <rect class="cls-2" x="720" y="440" width="40" height="40"/>
        <rect class="cls-2" x="720" y="400" width="40" height="40"/>
        <rect class="cls-2" x="720" y="360" width="40" height="40"/>
        <rect class="cls-4" x="720" y="320" width="40" height="40"/>
        <rect class="cls-3" x="720" y="280" width="40" height="40"/>
        <rect class="cls-3" x="720" y="240" width="40" height="40"/>
        <rect class="cls-3" x="720" y="200" width="40" height="40"/>
        <rect class="cls-4" x="720" y="160" width="40" height="40"/>
        <rect class="cls-1" x="720" y="120" width="40" height="40"/>
        <rect class="cls-1" x="720" y="80" width="40" height="40"/>
        <rect class="cls-4" x="720" y="40" width="40" height="40"/>
        <rect class="cls-4" x="760" y="480" width="40" height="40"/>
        <rect class="cls-4" x="760" y="440" width="40" height="40"/>
        <rect class="cls-4" x="760" y="400" width="40" height="40"/>
        <rect class="cls-4" x="760" y="360" width="40" height="40"/>
        <rect class="cls-3" x="760" y="320" width="40" height="40"/>
        <rect class="cls-3" x="760" y="280" width="40" height="40"/>
        <rect class="cls-3" x="760" y="240" width="40" height="40"/>
        <rect class="cls-4" x="760" y="200" width="40" height="40"/>
        <rect class="cls-1" x="760" y="160" width="40" height="40"/>
        <rect class="cls-1" x="760" y="120" width="40" height="40"/>
        <rect class="cls-1" x="760" y="80" width="40" height="40"/>
        <rect class="cls-4" x="760" y="40" width="40" height="40"/>
        <rect class="cls-3" x="800" y="480" width="40" height="40"/>
        <rect class="cls-3" x="800" y="440" width="40" height="40"/>
        <rect class="cls-3" x="800" y="400" width="40" height="40"/>
        <rect class="cls-3" x="800" y="360" width="40" height="40"/>
        <rect class="cls-3" x="800" y="320" width="40" height="40"/>
        <rect class="cls-3" x="800" y="280" width="40" height="40"/>
        <rect class="cls-4" x="800" y="240" width="40" height="40"/>
        <rect class="cls-1" x="800" y="200" width="40" height="40"/>
        <rect class="cls-1" x="800" y="160" width="40" height="40"/>
        <rect class="cls-1" x="800" y="120" width="40" height="40"/>
        <rect class="cls-4" x="800" y="80" width="40" height="40"/>
        <rect class="cls-3" x="840" y="480" width="40" height="40"/>
        <rect class="cls-3" x="840" y="440" width="40" height="40"/>
        <rect class="cls-3" x="840" y="400" width="40" height="40"/>
        <rect class="cls-3" x="840" y="360" width="40" height="40"/>
        <rect class="cls-4" x="840" y="320" width="40" height="40"/>
        <rect class="cls-4" x="840" y="280" width="40" height="40"/>
        <rect class="cls-1" x="840" y="240" width="40" height="40"/>
        <rect class="cls-1" x="840" y="200" width="40" height="40"/>
        <rect class="cls-1" x="840" y="160" width="40" height="40"/>
        <rect class="cls-1" x="840" y="120" width="40" height="40"/>
        <rect class="cls-4" x="840" y="80" width="40" height="40"/>
        <rect class="cls-4" x="880" y="480" width="40" height="40"/>
        <rect class="cls-4" x="880" y="440" width="40" height="40"/>
        <rect class="cls-4" x="880" y="400" width="40" height="40"/>
        <rect class="cls-4" x="880" y="360" width="40" height="40"/>
        <rect class="cls-1" x="880" y="320" width="40" height="40"/>
        <rect class="cls-1" x="880" y="280" width="40" height="40"/>
        <rect class="cls-1" x="880" y="240" width="40" height="40"/>
        <rect class="cls-1" x="880" y="200" width="40" height="40"/>
        <rect class="cls-1" x="880" y="160" width="40" height="40"/>
        <rect class="cls-4" x="880" y="120" width="40" height="40"/>
        <rect class="cls-1" x="920" y="480" width="40" height="40"/>
        <rect class="cls-1" x="920" y="440" width="40" height="40"/>
        <rect class="cls-1" x="920" y="400" width="40" height="40"/>
        <rect class="cls-1" x="920" y="360" width="40" height="40"/>
        <rect class="cls-1" x="920" y="320" width="40" height="40"/>
        <rect class="cls-1" x="920" y="280" width="40" height="40"/>
        <rect class="cls-1" x="920" y="240" width="40" height="40"/>
        <rect class="cls-4" x="920" y="200" width="40" height="40"/>
        <rect class="cls-4" x="920" y="160" width="40" height="40"/>
        <rect class="cls-1" x="960" y="480" width="40" height="40"/>
        <rect class="cls-1" x="960" y="440" width="40" height="40"/>
        <rect class="cls-1" x="960" y="400" width="40" height="40"/>
        <rect class="cls-1" x="960" y="360" width="40" height="40"/>
        <rect class="cls-1" x="960" y="320" width="40" height="40"/>
        <rect class="cls-4" x="960" y="280" width="40" height="40"/>
        <rect class="cls-4" x="960" y="240" width="40" height="40"/>
        <rect class="cls-4" x="1000" y="480" width="40" height="40"/>
        <rect class="cls-4" x="1000" y="440" width="40" height="40"/>
        <rect class="cls-4" x="1000" y="400" width="40" height="40"/>
        <rect class="cls-4" x="1000" y="360" width="40" height="40"/>
        <rect class="cls-4" x="1000" y="320" width="40" height="40"/>
      </g>
      <g>
        <rect class="cls-4" x="480" y="360" width="40" height="40"/>
        <rect class="cls-2" x="480" y="320" width="40" height="40"/>
        <rect class="cls-2" x="480" y="280" width="40" height="40"/>
        <rect class="cls-4" x="480" y="240" width="40" height="40"/>
        <rect class="cls-3" x="480" y="200" width="40" height="40"/>
        <rect class="cls-3" x="480" y="160" width="40" height="40"/>
        <rect class="cls-4" x="480" y="120" width="40" height="40"/>
        <rect class="cls-1" x="480" y="80" width="40" height="40"/>
        <rect class="cls-1" x="480" y="40" width="40" height="40"/>
        <rect class="cls-4" x="480" width="40" height="40"/>
        <rect class="cls-4" x="440" y="360" width="40" height="40"/>
        <rect class="cls-2" x="440" y="320" width="40" height="40"/>
        <rect class="cls-2" x="440" y="280" width="40" height="40"/>
        <rect class="cls-4" x="440" y="240" width="40" height="40"/>
        <rect class="cls-3" x="440" y="200" width="40" height="40"/>
        <rect class="cls-3" x="440" y="160" width="40" height="40"/>
        <rect class="cls-4" x="440" y="120" width="40" height="40"/>
        <rect class="cls-1" x="440" y="80" width="40" height="40"/>
        <rect class="cls-1" x="440" y="40" width="40" height="40"/>
        <rect class="cls-4" x="440" width="40" height="40"/>
        <rect class="cls-4" x="400" y="400" width="40" height="40"/>
        <rect class="cls-2" x="400" y="360" width="40" height="40"/>
        <rect class="cls-2" x="400" y="320" width="40" height="40"/>
        <rect class="cls-2" x="400" y="280" width="40" height="40"/>
        <rect class="cls-4" x="400" y="240" width="40" height="40"/>
        <rect class="cls-3" x="400" y="200" width="40" height="40"/>
        <rect class="cls-3" x="400" y="160" width="40" height="40"/>
        <rect class="cls-4" x="400" y="120" width="40" height="40"/>
        <rect class="cls-1" x="400" y="80" width="40" height="40"/>
        <rect class="cls-1" x="400" y="40" width="40" height="40"/>
        <rect class="cls-4" x="400" width="40" height="40"/>
        <rect class="cls-4" x="360" y="480" width="40" height="40"/>
        <rect class="cls-4" x="360" y="440" width="40" height="40"/>
        <rect class="cls-2" x="360" y="400" width="40" height="40"/>
        <rect class="cls-2" x="360" y="360" width="40" height="40"/>
        <rect class="cls-2" x="360" y="320" width="40" height="40"/>
        <rect class="cls-2" x="360" y="280" width="40" height="40"/>
        <rect class="cls-4" x="360" y="240" width="40" height="40"/>
        <rect class="cls-3" x="360" y="200" width="40" height="40"/>
        <rect class="cls-3" x="360" y="160" width="40" height="40"/>
        <rect class="cls-4" x="360" y="120" width="40" height="40"/>
        <rect class="cls-1" x="360" y="80" width="40" height="40"/>
        <rect class="cls-1" x="360" y="40" width="40" height="40"/>
        <rect class="cls-4" x="360" width="40" height="40"/>
        <rect class="cls-2" x="320" y="480" width="40" height="40"/>
        <rect class="cls-2" x="320" y="440" width="40" height="40"/>
        <rect class="cls-2" x="320" y="400" width="40" height="40"/>
        <rect class="cls-2" x="320" y="360" width="40" height="40"/>
        <rect class="cls-2" x="320" y="320" width="40" height="40"/>
        <rect class="cls-4" x="320" y="280" width="40" height="40"/>
        <rect class="cls-3" x="320" y="240" width="40" height="40"/>
        <rect class="cls-3" x="320" y="200" width="40" height="40"/>
        <rect class="cls-4" x="320" y="160" width="40" height="40"/>
        <rect class="cls-1" x="320" y="120" width="40" height="40"/>
        <rect class="cls-1" x="320" y="80" width="40" height="40"/>
        <rect class="cls-1" x="320" y="40" width="40" height="40"/>
        <rect class="cls-4" x="320" width="40" height="40"/>
        <rect class="cls-2" x="280" y="480" width="40" height="40"/>
        <rect class="cls-2" x="280" y="440" width="40" height="40"/>
        <rect class="cls-2" x="280" y="400" width="40" height="40"/>
        <rect class="cls-2" x="280" y="360" width="40" height="40"/>
        <rect class="cls-4" x="280" y="320" width="40" height="40"/>
        <rect class="cls-3" x="280" y="280" width="40" height="40"/>
        <rect class="cls-3" x="280" y="240" width="40" height="40"/>
        <rect class="cls-3" x="280" y="200" width="40" height="40"/>
        <rect class="cls-4" x="280" y="160" width="40" height="40"/>
        <rect class="cls-1" x="280" y="120" width="40" height="40"/>
        <rect class="cls-1" x="280" y="80" width="40" height="40"/>
        <rect class="cls-4" x="280" y="40" width="40" height="40"/>
        <rect class="cls-4" x="240" y="480" width="40" height="40"/>
        <rect class="cls-4" x="240" y="440" width="40" height="40"/>
        <rect class="cls-4" x="240" y="400" width="40" height="40"/>
        <rect class="cls-4" x="240" y="360" width="40" height="40"/>
        <rect class="cls-3" x="240" y="320" width="40" height="40"/>
        <rect class="cls-3" x="240" y="280" width="40" height="40"/>
        <rect class="cls-3" x="240" y="240" width="40" height="40"/>
        <rect class="cls-4" x="240" y="200" width="40" height="40"/>
        <rect class="cls-1" x="240" y="160" width="40" height="40"/>
        <rect class="cls-1" x="240" y="120" width="40" height="40"/>
        <rect class="cls-1" x="240" y="80" width="40" height="40"/>
        <rect class="cls-4" x="240" y="40" width="40" height="40"/>
        <rect class="cls-3" x="200" y="480" width="40" height="40"/>
        <rect class="cls-3" x="200" y="440" width="40" height="40"/>
        <rect class="cls-3" x="200" y="400" width="40" height="40"/>
        <rect class="cls-3" x="200" y="360" width="40" height="40"/>
        <rect class="cls-3" x="200" y="320" width="40" height="40"/>
        <rect class="cls-3" x="200" y="280" width="40" height="40"/>
        <rect class="cls-4" x="200" y="240" width="40" height="40"/>
        <rect class="cls-1" x="200" y="200" width="40" height="40"/>
        <rect class="cls-1" x="200" y="160" width="40" height="40"/>
        <rect class="cls-1" x="200" y="120" width="40" height="40"/>
        <rect class="cls-4" x="200" y="80" width="40" height="40"/>
        <rect class="cls-3" x="160" y="480" width="40" height="40"/>
        <rect class="cls-3" x="160" y="440" width="40" height="40"/>
        <rect class="cls-3" x="160" y="400" width="40" height="40"/>
        <rect class="cls-3" x="160" y="360" width="40" height="40"/>
        <rect class="cls-4" x="160" y="320" width="40" height="40"/>
        <rect class="cls-4" x="160" y="280" width="40" height="40"/>
        <rect class="cls-1" x="160" y="240" width="40" height="40"/>
        <rect class="cls-1" x="160" y="200" width="40" height="40"/>
        <rect class="cls-1" x="160" y="160" width="40" height="40"/>
        <rect class="cls-1" x="160" y="120" width="40" height="40"/>
        <rect class="cls-4" x="160" y="80" width="40" height="40"/>
        <rect class="cls-4" x="120" y="480" width="40" height="40"/>
        <rect class="cls-4" x="120" y="440" width="40" height="40"/>
        <rect class="cls-4" x="120" y="400" width="40" height="40"/>
        <rect class="cls-4" x="120" y="360" width="40" height="40"/>
        <rect class="cls-1" x="120" y="320" width="40" height="40"/>
        <rect class="cls-1" x="120" y="280" width="40" height="40"/>
        <rect class="cls-1" x="120" y="240" width="40" height="40"/>
        <rect class="cls-1" x="120" y="200" width="40" height="40"/>
        <rect class="cls-1" x="120" y="160" width="40" height="40"/>
        <rect class="cls-4" x="120" y="120" width="40" height="40"/>
        <rect class="cls-1" x="80" y="480" width="40" height="40"/>
        <rect class="cls-1" x="80" y="440" width="40" height="40"/>
        <rect class="cls-1" x="80" y="400" width="40" height="40"/>
        <rect class="cls-1" x="80" y="360" width="40" height="40"/>
        <rect class="cls-1" x="80" y="320" width="40" height="40"/>
        <rect class="cls-1" x="80" y="280" width="40" height="40"/>
        <rect class="cls-1" x="80" y="240" width="40" height="40"/>
        <rect class="cls-4" x="80" y="200" width="40" height="40"/>
        <rect class="cls-4" x="80" y="160" width="40" height="40"/>
        <rect class="cls-1" x="40" y="480" width="40" height="40"/>
        <rect class="cls-1" x="40" y="440" width="40" height="40"/>
        <rect class="cls-1" x="40" y="400" width="40" height="40"/>
        <rect class="cls-1" x="40" y="360" width="40" height="40"/>
        <rect class="cls-1" x="40" y="320" width="40" height="40"/>
        <rect class="cls-4" x="40" y="280" width="40" height="40"/>
        <rect class="cls-4" x="40" y="240" width="40" height="40"/>
        <rect class="cls-4" y="480" width="40" height="40"/>
        <rect class="cls-4" y="440" width="40" height="40"/>
        <rect class="cls-4" y="400" width="40" height="40"/>
        <rect class="cls-4" y="360" width="40" height="40"/>
        <rect class="cls-4" y="320" width="40" height="40"/>
      </g>
    </g>
  </g>
</svg>