<?xml version="1.0" encoding="UTF-8"?>
<svg id="Layer_2" data-name="Layer 2" xmlns="http://www.w3.org/2000/svg" viewBox="0 0 440 720">
  <defs>
    <style>
      .cls-1 {
        fill: #fa87ac;
      }

      .cls-2 {
        fill: #004ba3;
      }
    </style>
  </defs>
  <g id="Layer_4" data-name="Layer 4">
    <g>
      <rect class="cls-2" x="400" y="440" width="40" height="40"/>
      <rect class="cls-2" x="400" y="400" width="40" height="40"/>
      <rect class="cls-2" x="360" y="480" width="40" height="40"/>
      <rect class="cls-2" x="360" y="440" width="40" height="40"/>
      <rect class="cls-2" x="360" y="400" width="40" height="40"/>
      <rect class="cls-1" x="360" y="40" width="40" height="40"/>
      <rect class="cls-2" x="320" y="520" width="40" height="40"/>
      <rect class="cls-2" x="320" y="480" width="40" height="40"/>
      <rect class="cls-2" x="320" y="440" width="40" height="40"/>
      <rect class="cls-1" x="320" y="240" width="40" height="40"/>
      <rect class="cls-1" x="320" y="200" width="40" height="40"/>
      <rect class="cls-1" x="320" y="160" width="40" height="40"/>
      <rect class="cls-1" x="320" y="120" width="40" height="40"/>
      <rect class="cls-1" x="320" y="80" width="40" height="40"/>
      <rect class="cls-1" x="320" y="40" width="40" height="40"/>
      <rect class="cls-2" x="280" y="560" width="40" height="40"/>
      <rect class="cls-2" x="280" y="520" width="40" height="40"/>
      <rect class="cls-2" x="280" y="480" width="40" height="40"/>
      <rect class="cls-1" x="280" y="280" width="40" height="40"/>
      <rect class="cls-1" x="280" y="240" width="40" height="40"/>
      <rect class="cls-1" x="280" y="200" width="40" height="40"/>
      <rect class="cls-1" x="280" y="160" width="40" height="40"/>
      <rect class="cls-1" x="280" y="120" width="40" height="40"/>
      <rect class="cls-1" x="280" y="80" width="40" height="40"/>
      <rect class="cls-2" x="240" y="600" width="40" height="40"/>
      <rect class="cls-2" x="240" y="560" width="40" height="40"/>
      <rect class="cls-2" x="240" y="520" width="40" height="40"/>
      <rect class="cls-1" x="240" y="320" width="40" height="40"/>
      <rect class="cls-1" x="240" y="280" width="40" height="40"/>
      <rect class="cls-1" x="240" y="240" width="40" height="40"/>
      <rect class="cls-1" x="240" y="200" width="40" height="40"/>
      <rect class="cls-1" x="240" y="160" width="40" height="40"/>
      <rect class="cls-1" x="240" y="120" width="40" height="40"/>
      <rect class="cls-1" x="240" y="80" width="40" height="40"/>
      <rect class="cls-1" x="240" y="40" width="40" height="40"/>
      <rect class="cls-2" x="200" y="680" width="40" height="40"/>
      <rect class="cls-2" x="200" y="640" width="40" height="40"/>
      <rect class="cls-2" x="200" y="600" width="40" height="40"/>
      <rect class="cls-2" x="200" y="560" width="40" height="40"/>
      <rect class="cls-2" x="200" y="520" width="40" height="40"/>
      <rect class="cls-2" x="200" y="480" width="40" height="40"/>
      <rect class="cls-2" x="200" y="440" width="40" height="40"/>
      <rect class="cls-2" x="200" y="400" width="40" height="40"/>
      <rect class="cls-2" x="200" y="360" width="40" height="40"/>
      <rect class="cls-1" x="200" y="320" width="40" height="40"/>
      <rect class="cls-1" x="200" y="280" width="40" height="40"/>
      <rect class="cls-1" x="200" y="240" width="40" height="40"/>
      <rect class="cls-1" x="200" y="200" width="40" height="40"/>
      <rect class="cls-1" x="200" y="160" width="40" height="40"/>
      <rect class="cls-1" x="200" y="120" width="40" height="40"/>
      <rect class="cls-1" x="200" y="80" width="40" height="40"/>
      <rect class="cls-1" x="200" y="40" width="40" height="40"/>
      <rect class="cls-1" x="200" width="40" height="40"/>
      <rect class="cls-2" x="160" y="600" width="40" height="40"/>
      <rect class="cls-2" x="160" y="560" width="40" height="40"/>
      <rect class="cls-2" x="160" y="520" width="40" height="40"/>
      <rect class="cls-1" x="160" y="320" width="40" height="40"/>
      <rect class="cls-1" x="160" y="280" width="40" height="40"/>
      <rect class="cls-1" x="160" y="240" width="40" height="40"/>
      <rect class="cls-1" x="160" y="200" width="40" height="40"/>
      <rect class="cls-1" x="160" y="160" width="40" height="40"/>
      <rect class="cls-1" x="160" y="120" width="40" height="40"/>
      <rect class="cls-1" x="160" y="80" width="40" height="40"/>
      <rect class="cls-1" x="160" y="40" width="40" height="40"/>
      <rect class="cls-2" x="120" y="560" width="40" height="40"/>
      <rect class="cls-2" x="120" y="520" width="40" height="40"/>
      <rect class="cls-2" x="120" y="480" width="40" height="40"/>
      <rect class="cls-1" x="120" y="280" width="40" height="40"/>
      <rect class="cls-1" x="120" y="240" width="40" height="40"/>
      <rect class="cls-1" x="120" y="200" width="40" height="40"/>
      <rect class="cls-1" x="120" y="160" width="40" height="40"/>
      <rect class="cls-1" x="120" y="120" width="40" height="40"/>
      <rect class="cls-1" x="120" y="80" width="40" height="40"/>
      <rect class="cls-2" x="80" y="520" width="40" height="40"/>
      <rect class="cls-2" x="80" y="480" width="40" height="40"/>
      <rect class="cls-2" x="80" y="440" width="40" height="40"/>
      <rect class="cls-1" x="80" y="240" width="40" height="40"/>
      <rect class="cls-1" x="80" y="200" width="40" height="40"/>
      <rect class="cls-1" x="80" y="160" width="40" height="40"/>
      <rect class="cls-1" x="80" y="120" width="40" height="40"/>
      <rect class="cls-1" x="80" y="80" width="40" height="40"/>
      <rect class="cls-1" x="80" y="40" width="40" height="40"/>
      <rect class="cls-2" x="40" y="480" width="40" height="40"/>
      <rect class="cls-2" x="40" y="440" width="40" height="40"/>
      <rect class="cls-2" x="40" y="400" width="40" height="40"/>
      <rect class="cls-1" x="40" y="40" width="40" height="40"/>
      <rect class="cls-2" y="440" width="40" height="40"/>
      <rect class="cls-2" y="400" width="40" height="40"/>
    </g>
  </g>
</svg>