<svg width="354" height="353" viewBox="0 0 354 353" fill="none" xmlns="http://www.w3.org/2000/svg">
<g clip-path="url(#clip0_2133_213)">
<path d="M83.1113 108.918L91.691 146.374L95.6844 163.972L107.891 217.261" stroke="#E1DFD8" stroke-width="14" stroke-linecap="round" stroke-linejoin="round"/>
<path d="M60.3206 211.34L49.7791 175.936L44.6261 158.755L33.666 121.838" stroke="#E1DFD8" stroke-width="14" stroke-linecap="round" stroke-linejoin="round"/>
<path d="M95.6848 163.99C88.7791 167.842 81.3504 170.902 73.4595 172.893C65.6384 174.937 57.6167 175.971 49.752 175.911" stroke="#E1DFD8" stroke-width="14" stroke-linecap="round" stroke-linejoin="round"/>
<path d="M8.44912 93.2416C-0.130584 60.3761 15.9651 21.007 38.5304 6.28711C49.3509 47.456 82.3706 38.8396 90.9503 71.7051C94.499 85.1991 91.1508 98.8061 83.1466 108.909C77.6099 115.821 69.8411 121.143 60.5028 123.577C51.1645 126.012 41.896 125.142 33.6651 121.821C21.6762 116.995 11.9891 106.727 8.44912 93.2329V93.2416Z" stroke="#E1DFD8" stroke-width="14" stroke-linecap="round" stroke-linejoin="round"/>
<path d="M238.227 216.773L275.998 79.2164C275.998 79.1556 276.059 79.0947 276.059 79.0338L276.434 77.6949C277.184 74.8431 278.483 72.1738 280.323 69.748L303.403 36.3H303.464L320.876 11.0944C327.398 2.31286 341.715 6.28628 342.875 17.1197L344.958 47.6029L347.783 88.1892C348.071 91.1715 347.81 94.1537 347.06 97.0055L346.624 98.5271L318.539 200.862" stroke="#E1DFD8" stroke-width="14" stroke-linecap="round" stroke-linejoin="round"/>
<path d="M303.42 36.2832L324.207 41.9608L344.984 47.6383" stroke="#E1DFD8" stroke-width="14" stroke-linecap="round" stroke-linejoin="round"/>
<path d="M277.123 213.347L311.276 88.91C313.081 82.4151 322.437 79.3024 332.194 81.9717C341.95 84.6409 348.368 92.1009 346.624 98.5349L318.539 200.87" stroke="#E1DFD8" stroke-width="14" stroke-linecap="round" stroke-linejoin="round"/>
<path d="M277.123 213.347L311.276 88.91C313.081 82.4151 306.655 75.016 296.846 72.3468C287.22 69.6776 277.925 72.7294 276.059 79.0416C276.059 79.1025 275.998 79.1633 275.998 79.2242L238.227 216.781" stroke="#E1DFD8" stroke-width="14" stroke-linecap="round" stroke-linejoin="round"/>
<path d="M128.076 192.872L129.07 18.1804C129.105 11.4855 134.572 6.04272 141.347 6.0862L214.588 6.50354C221.363 6.53831 226.76 12.0507 226.725 18.7368L225.853 172.379" stroke="#E1DFD8" stroke-width="14" stroke-linecap="round" stroke-linejoin="round"/>
<path d="M183.758 61.0703L202.068 61.1746" stroke="#E1DFD8" stroke-width="14" stroke-linecap="round" stroke-linejoin="round"/>
<path d="M183.207 158.389L201.517 158.493" stroke="#E1DFD8" stroke-width="14" stroke-linecap="round" stroke-linejoin="round"/>
<path d="M189.59 109.77L201.797 109.839" stroke="#E1DFD8" stroke-width="14" stroke-linecap="round" stroke-linejoin="round"/>
<path d="M189.031 207.088L201.238 207.157" stroke="#E1DFD8" stroke-width="14" stroke-linecap="round" stroke-linejoin="round"/>
<path d="M305.172 346.914L317.379 225.26C317.318 235.337 254.147 243.944 176.616 243.51C99.0845 243.075 36.559 235.337 36.6114 225.26L48.8183 346.914" stroke="#E1DFD8" stroke-width="14" stroke-linecap="round" stroke-linejoin="round"/>
</g>
<defs>
<clipPath id="clip0_2133_213">
<rect width="354" height="353" fill="white"/>
</clipPath>
</defs>
</svg>
