<svg width="441" height="417" viewBox="0 0 441 417" fill="none" xmlns="http://www.w3.org/2000/svg">
<g clip-path="url(#clip0_2133_232)">
<path d="M429.258 125.802L224.009 229.988C221.804 231.105 219.186 231.105 216.981 229.988L11.742 125.802C6.22403 123.005 6.22403 115.26 11.742 112.462L216.981 8.28694C219.186 7.16998 221.804 7.16998 224.009 8.28694L429.258 112.473C434.776 115.271 434.776 123.015 429.258 125.813V125.802Z" stroke="#E1DFD8" stroke-width="14" stroke-linecap="round" stroke-linejoin="round"/>
<path d="M387.472 180.564L429.291 201.787C434.765 204.616 434.765 212.361 429.291 215.19L223.998 319.366C221.793 320.483 219.207 320.483 217.002 319.366L11.7094 215.19C6.23489 212.361 6.23489 204.616 11.7094 201.787L53.5283 180.564" stroke="#E1DFD8" stroke-width="14" stroke-linecap="round" stroke-linejoin="round"/>
<path d="M387.548 269.922L429.291 291.144C434.765 293.974 434.765 301.718 429.291 304.548L223.998 408.723C221.793 409.84 219.207 409.84 217.002 408.723L11.7094 304.548C6.23489 301.718 6.23489 293.974 11.7094 291.144L53.5283 269.922" stroke="#E1DFD8" stroke-width="14" stroke-linecap="round" stroke-linejoin="round"/>
</g>
<defs>
<clipPath id="clip0_2133_232">
<rect width="441" height="417" fill="white"/>
</clipPath>
</defs>
</svg>
