<svg width="372" height="352" viewBox="0 0 372 352" fill="none" xmlns="http://www.w3.org/2000/svg">
<g clip-path="url(#clip0_2133_232)">
<path d="M362.096 106.192L188.96 194.138C187.1 195.081 184.892 195.081 183.032 194.138L9.905 106.192C5.25042 103.83 5.25042 97.293 9.905 94.9314L183.032 6.99425C184.892 6.0514 187.1 6.0514 188.96 6.99425L362.096 94.9404C366.75 97.302 366.75 103.839 362.096 106.201V106.192Z" stroke="#E1DFD8" stroke-width="14" stroke-linecap="round" stroke-linejoin="round"/>
<path d="M326.847 152.42L362.123 170.334C366.741 172.723 366.741 179.26 362.123 181.648L188.951 269.586C187.091 270.528 184.91 270.528 183.05 269.586L9.87751 181.648C5.25958 179.26 5.25958 172.723 9.87751 170.334L45.1534 152.42" stroke="#E1DFD8" stroke-width="14" stroke-linecap="round" stroke-linejoin="round"/>
<path d="M326.911 227.848L362.123 245.762C366.741 248.151 366.741 254.688 362.123 257.076L188.951 345.013C187.091 345.956 184.91 345.956 183.05 345.013L9.87751 257.076C5.25958 254.688 5.25958 248.151 9.87751 245.762L45.1534 227.848" stroke="#E1DFD8" stroke-width="14" stroke-linecap="round" stroke-linejoin="round"/>
</g>
<defs>
<clipPath id="clip0_2133_232">
<rect width="372" height="352" fill="white"/>
</clipPath>
</defs>
</svg>
